<?xml version="1.0" encoding="UTF-8" standalone="no"?><svg xmlns="http://www.w3.org/2000/svg" xmlns:xlink="http://www.w3.org/1999/xlink" contentScriptType="application/ecmascript" contentStyleType="text/css" height="74px" preserveAspectRatio="none" style="width:188px;height:74px;" version="1.1" viewBox="0 0 188 74" width="188px" zoomAndPan="magnify"><defs><filter height="300%" id="f1ej2xccovjkpl" width="300%" x="-1" y="-1"><feGaussianBlur result="blurOut" stdDeviation="2.0"/><feColorMatrix in="blurOut" result="blurOut2" type="matrix" values="0 0 0 0 0 0 0 0 0 0 0 0 0 0 0 0 0 0 .4 0"/><feOffset dx="4.0" dy="4.0" in="blurOut2" result="blurOut3"/><feBlend in="SourceGraphic" in2="blurOut3" mode="normal"/></filter></defs><g><!--MD5=[060322837cf907fb29556f3e6b48a9e1]
class Demo1--><rect fill="#FEFECE" filter="url(#f1ej2xccovjkpl)" height="48" id="Demo1" style="stroke: #A80036; stroke-width: 1.5;" width="69" x="7" y="7"/><ellipse cx="22" cy="23" fill="#ADD1B2" rx="11" ry="11" style="stroke: #A80036; stroke-width: 1.0;"/><path d="M21.3594,26.7813 Q22.1563,26.7813 22.7188,26.5938 Q23.2969,26.3906 23.5313,26.1719 Q23.7813,25.9375 24.0156,25.75 Q24.2656,25.5469 24.4844,25.5469 Q24.8281,25.5469 25.0781,25.8125 Q25.3438,26.0625 25.3438,26.3906 Q25.3438,27.125 24.1719,27.8125 Q23.0156,28.4844 21.3125,28.4844 Q19.1563,28.4844 17.7344,27.2188 Q16.3125,25.9531 16.3125,24.0156 L16.3125,22.8906 Q16.3125,20.8594 17.6406,19.4844 Q18.9688,18.0938 20.9375,18.0938 Q22.125,18.0938 23.3438,18.6719 L23.5156,18.75 Q23.8125,18.3438 24.2344,18.3438 Q24.7188,18.3438 24.8906,18.6406 Q25.0781,18.9219 25.0781,19.4688 L25.0781,20.8906 Q25.0781,22.0156 24.2344,22.0156 Q23.9219,22.0156 23.7188,21.8438 Q23.5313,21.6719 23.4844,21.5313 Q23.4531,21.375 23.4063,21.1094 Q23.2969,20.5938 22.7813,20.2813 Q22.2656,19.9688 21.8125,19.8906 Q21.375,19.7969 21,19.7969 Q19.7188,19.7969 18.8594,20.6719 Q18.0156,21.5469 18.0156,22.8906 L18.0156,23.9844 Q18.0156,25.2656 18.9219,26.0313 Q19.8281,26.7813 21.3594,26.7813 Z "/><text fill="#000000" font-family="sans-serif" font-size="12" lengthAdjust="spacingAndGlyphs" textLength="37" x="36" y="27.8">Demo1</text><line style="stroke: #A80036; stroke-width: 1.5;" x1="8" x2="75" y1="39" y2="39"/><line style="stroke: #A80036; stroke-width: 1.5;" x1="8" x2="75" y1="47" y2="47"/><path d="M111,18 L111,27 L76.16,31 L111,35 L111,43.6 A0,0 0 0 0 111,43.6 L176,43.6 A0,0 0 0 0 176,43.6 L176,28 L166,18 L111,18 A0,0 0 0 0 111,18 " fill="#FBFB77" filter="url(#f1ej2xccovjkpl)" style="stroke: #A80036; stroke-width: 1.0;"/><path d="M166,18 L166,28 L176,28 L166,18 " fill="#FBFB77" style="stroke: #A80036; stroke-width: 1.0;"/><a href="../c4/l2" target="_top" title="../c4/l2" xlink:actuate="onRequest" xlink:href="../c4/l2" xlink:show="new" xlink:title="../c4/l2" xlink:type="simple"><text fill="#0000FF" font-family="sans-serif" font-size="13" lengthAdjust="spacingAndGlyphs" text-decoration="underline" textLength="44" x="117" y="36">link to 2</text></a><!--MD5=[da050dd8b518b3d2c00b33efbf17c736]
@startuml
class Demo1
note right
[[../c4/l2 link to 2]]
end note
@enduml

PlantUML version 1.2020.15(Sun Jun 28 11:39:45 GMT 2020)
(GPL source distribution)
Java Runtime: OpenJDK Runtime Environment
JVM: OpenJDK 64-Bit Server VM
Default Encoding: UTF-8
Language: en
Country: US
--></g></svg>