<svg xmlns="http://www.w3.org/2000/svg" xmlns:xlink="http://www.w3.org/1999/xlink" contentStyleType="text/css" data-diagram-type="DESCRIPTION" height="683px" preserveAspectRatio="none" style="width:787px;height:683px;background:#FFFFFF;" version="1.1" viewBox="0 0 787 683" width="787px" zoomAndPan="magnify"><defs/><g><!--entity DS--><g class="entity" data-entity="DS" data-source-line="4" data-uid="ent0002" id="entity_DS"><ellipse cx="86.0139" cy="71.5313" fill="#F1F1F1" rx="40.9704" ry="25.7813" style="stroke:#181818;stroke-width:0.5;"/><text fill="#000000" font-family="sans-serif" font-size="14" lengthAdjust="spacing" textLength="54.3252" x="58.8513" y="68.4097">Domain</text><text fill="#000000" font-family="sans-serif" font-size="14" lengthAdjust="spacing" textLength="51.7412" x="60.1433" y="84.7065">Service</text></g><!--entity DO--><g class="entity" data-entity="DO" data-source-line="5" data-uid="ent0003" id="entity_DO"><ellipse cx="187.0152" cy="71.5321" fill="#F1F1F1" rx="40.0217" ry="25.2121" style="stroke:#181818;stroke-width:0.5;"/><text fill="#000000" font-family="sans-serif" font-size="14" lengthAdjust="spacing" textLength="54.3252" x="159.8526" y="69.2363">Domain</text><text fill="#000000" font-family="sans-serif" font-size="14" lengthAdjust="spacing" textLength="45.5957" x="164.2174" y="85.5332">Object</text></g><!--entity DE--><g class="entity" data-entity="DE" data-source-line="6" data-uid="ent0004" id="entity_DE"><ellipse cx="286.0184" cy="71.526" fill="#F1F1F1" rx="39.2949" ry="24.776" style="stroke:#181818;stroke-width:0.5;"/><text fill="#000000" font-family="sans-serif" font-size="14" font-style="italic" lengthAdjust="spacing" textLength="54.3252" x="258.8558" y="69.8797">Domain</text><text fill="#000000" font-family="sans-serif" font-size="14" font-style="italic" lengthAdjust="spacing" textLength="40.1064" x="265.9652" y="86.1765">Event</text></g><!--entity MB--><g class="entity" data-entity="MB" data-source-line="8" data-uid="ent0005" id="entity_MB"><ellipse cx="268.0129" cy="279.3336" fill="#F1F1F1" rx="43.7194" ry="14.5236" style="stroke:#181818;stroke-width:0.5;"/><text fill="#000000" font-family="sans-serif" font-size="14" font-style="italic" lengthAdjust="spacing" textLength="57.5859" x="239.2199" y="283.9821">Member</text></g><!--entity P--><g class="entity" data-entity="P" data-source-line="10" data-uid="ent0006" id="entity_P"><ellipse cx="309.0142" cy="486.9936" fill="#F1F1F1" rx="45.2807" ry="14.5236" style="stroke:#181818;stroke-width:0.5;"/><text fill="#000000" font-family="sans-serif" font-size="14" lengthAdjust="spacing" textLength="59.7939" x="279.1172" y="491.6421">Property</text></g><!--entity A--><g class="entity" data-entity="A" data-source-line="11" data-uid="ent0007" id="entity_A"><ellipse cx="86.0111" cy="486.9936" fill="#F1F1F1" rx="34.1776" ry="14.5236" style="stroke:#181818;stroke-width:0.5;"/><text fill="#000000" font-family="sans-serif" font-size="14" lengthAdjust="spacing" textLength="44.0918" x="63.9652" y="491.6421">Action</text></g><!--entity C--><g class="entity" data-entity="C" data-source-line="12" data-uid="ent0008" id="entity_C"><ellipse cx="192.0093" cy="486.9936" fill="#F1F1F1" rx="51.9658" ry="14.5236" style="stroke:#181818;stroke-width:0.5;"/><text fill="#000000" font-family="sans-serif" font-size="14" lengthAdjust="spacing" textLength="69.248" x="157.3852" y="491.6421">Collection</text></g><!--entity EX--><g class="entity" data-entity="EX" data-source-line="23" data-uid="ent0018" id="entity_EX"><ellipse cx="86.0171" cy="653.6736" fill="#F1F1F1" rx="51.8836" ry="14.5236" style="stroke:#181818;stroke-width:0.5;"/><text fill="#000000" font-family="sans-serif" font-size="14" lengthAdjust="spacing" textLength="69.1318" x="51.4512" y="658.3221">Execution</text></g><!--entity EB--><g class="entity" data-entity="EB" data-source-line="27" data-uid="ent0021" id="entity_EB"><ellipse cx="424.0117" cy="653.6685" fill="#F1F1F1" rx="29.5982" ry="24.2785" style="stroke:#181818;stroke-width:0.5;"/><text fill="#000000" font-family="sans-serif" font-size="14" lengthAdjust="spacing" textLength="40.1064" x="403.9585" y="652.4864">Event</text><text fill="#000000" font-family="sans-serif" font-size="14" lengthAdjust="spacing" textLength="25.7715" x="411.1259" y="668.7833">Bus</text></g><!--entity SPRING--><g class="entity" data-entity="SPRING" data-source-line="28" data-uid="ent0022" id="entity_SPRING"><ellipse cx="570.0097" cy="653.6736" fill="#F1F1F1" rx="34.9462" ry="14.5236" style="stroke:#181818;stroke-width:0.5;"/><text fill="#000000" font-family="sans-serif" font-size="14" lengthAdjust="spacing" textLength="45.1787" x="547.4203" y="658.3221">Spring</text></g><!--entity EL--><g class="entity" data-entity="EL" data-source-line="32" data-uid="ent0026" id="entity_EL"><ellipse cx="419.0093" cy="486.9935" fill="#F1F1F1" rx="40.4558" ry="24.6735" style="stroke:#181818;stroke-width:0.5;"/><text fill="#000000" font-family="sans-serif" font-size="14" lengthAdjust="spacing" textLength="40.1064" x="398.9561" y="481.4847">Event</text><text fill="#000000" font-family="sans-serif" font-size="14" lengthAdjust="spacing" textLength="56.3281" x="390.8453" y="497.7816">Listener</text></g><g class="entity" data-entity="GMN30" data-source-line="37" data-uid="ent0031" id="entity_GMN30"><path d="M344.9135,6 L344.9135,67.53 L325.6335,71.53 L344.9135,75.53 L344.9135,137.0625 A0,0 0 0 0 344.9135,137.0625 L641.1098,137.0625 A0,0 0 0 0 641.1098,137.0625 L641.1098,16 L631.1098,6 L344.9135,6 A0,0 0 0 0 344.9135,6" fill="#FEFFDD" style="stroke:#181818;stroke-width:0.5;"/><path d="M631.1098,6 L631.1098,16 L641.1098,16 L631.1098,6" fill="#FEFFDD" style="stroke:#181818;stroke-width:0.5;"/><text fill="#000000" font-family="sans-serif" font-size="13" lengthAdjust="spacing" textLength="75.4102" x="350.9135" y="23.0669">Phases are:</text><ellipse cx="356.4135" cy="33.7656" fill="#000000" rx="2.5" ry="2.5"/><text fill="#000000" font-family="sans-serif" font-size="13" lengthAdjust="spacing" textLength="47.252" x="362.9135" y="38.1997">HIDING</text><ellipse cx="356.4135" cy="48.8984" fill="#000000" rx="2.5" ry="2.5"/><text fill="#000000" font-family="sans-serif" font-size="13" lengthAdjust="spacing" textLength="70.7827" x="362.9135" y="53.3325">DISABLING</text><ellipse cx="356.4135" cy="64.0313" fill="#000000" rx="2.5" ry="2.5"/><text fill="#000000" font-family="sans-serif" font-size="13" lengthAdjust="spacing" textLength="79.3394" x="362.9135" y="68.4653">VALIDATING</text><ellipse cx="356.4135" cy="79.1641" fill="#000000" rx="2.5" ry="2.5"/><text fill="#000000" font-family="sans-serif" font-size="13" lengthAdjust="spacing" textLength="75.499" x="362.9135" y="83.5981">EXECUTING</text><ellipse cx="356.4135" cy="94.2969" fill="#000000" rx="2.5" ry="2.5"/><text fill="#000000" font-family="sans-serif" font-size="13" lengthAdjust="spacing" textLength="70.0908" x="362.9135" y="98.731">EXECUTED</text><text fill="#000000" font-family="sans-serif" font-size="13" lengthAdjust="spacing" textLength="258.667" x="350.9135" y="113.8638">The framework automatically sends out</text><text fill="#000000" font-family="sans-serif" font-size="13" lengthAdjust="spacing" textLength="275.1963" x="350.9135" y="128.9966">events with the phases in the order listed.</text></g><g class="entity" data-entity="GMN33" data-source-line="48" data-uid="ent0034" id="entity_GMN33"><path d="M331.8535,244.06 L331.8535,275.33 L312.0435,279.33 L331.8535,283.33 L331.8535,314.5913 A0,0 0 0 0 331.8535,314.5913 L744.1802,314.5913 A0,0 0 0 0 744.1802,314.5913 L744.1802,254.06 L734.1802,244.06 L331.8535,244.06 A0,0 0 0 0 331.8535,244.06" fill="#FEFFDD" style="stroke:#181818;stroke-width:0.5;"/><path d="M734.1802,244.06 L734.1802,254.06 L744.1802,254.06 L734.1802,244.06" fill="#FEFFDD" style="stroke:#181818;stroke-width:0.5;"/><text fill="#000000" font-family="sans-serif" font-size="13" font-style="italic" lengthAdjust="spacing" textLength="87.6865" x="337.8535" y="261.1269">DomainEvent</text><text fill="#000000" font-family="sans-serif" font-size="13" lengthAdjust="spacing" textLength="110.2969" x="429.6723" y="261.1269">is declared as an</text><text fill="#000000" font-family="sans-serif" font-size="13" lengthAdjust="spacing" textLength="355.6846" x="337.8535" y="276.2597">annotation type element in a member annotation, e.g.</text><text fill="#000000" font-family="sans-serif" font-size="13" font-weight="bold" lengthAdjust="spacing" textLength="65.5649" x="337.8535" y="291.3925">@Action(</text><text fill="#000000" font-family="sans-serif" font-size="13" lengthAdjust="spacing" textLength="33.0586" x="337.8535" y="306.5253">&#160;&#160;&#160;&#160;&#160;&#160;&#160;&#160;</text><text fill="#000000" font-family="sans-serif" font-size="13" font-weight="bold" lengthAdjust="spacing" textLength="106.7993" x="370.9121" y="306.5253">domainEvent=</text><text fill="#000000" font-family="sans-serif" font-size="13" font-style="italic" font-weight="bold" lengthAdjust="spacing" textLength="55.2246" x="477.7114" y="306.5253">Custom</text><text fill="#000000" font-family="sans-serif" font-size="13" font-weight="bold" lengthAdjust="spacing" textLength="196.2441" x="532.936" y="306.5253">ActionDomainEvent.class).</text></g><g class="entity" data-entity="GMN36" data-source-line="55" data-uid="ent0037" id="entity_GMN36"><path d="M479.3135,436.6 L479.3135,482.99 L459.8135,486.99 L479.3135,490.99 L479.3135,537.3969 A0,0 0 0 0 479.3135,537.3969 L780.7085,537.3969 A0,0 0 0 0 780.7085,537.3969 L780.7085,446.6 L770.7085,436.6 L479.3135,436.6 A0,0 0 0 0 479.3135,436.6" fill="#FEFFDD" style="stroke:#181818;stroke-width:0.5;"/><path d="M770.7085,436.6 L770.7085,446.6 L780.7085,446.6 L770.7085,436.6" fill="#FEFFDD" style="stroke:#181818;stroke-width:0.5;"/><text fill="#000000" font-family="sans-serif" font-size="13" lengthAdjust="spacing" textLength="225.2148" x="485.3135" y="453.6669">EventListeners can be declared on</text><text fill="#000000" font-family="sans-serif" font-size="13" lengthAdjust="spacing" textLength="236.9326" x="485.3135" y="468.7997">any public Spring bean method, e.g.</text><text fill="#000000" font-family="sans-serif" font-size="13" font-weight="bold" lengthAdjust="spacing" textLength="120.5737" x="485.3135" y="483.9325">@EventListener(</text><text fill="#000000" font-family="sans-serif" font-size="13" lengthAdjust="spacing" textLength="28.9263" x="485.3135" y="499.0653">&#160;&#160;&#160;&#160;&#160;&#160;&#160;</text><text fill="#000000" font-family="sans-serif" font-size="13" font-style="italic" font-weight="bold" lengthAdjust="spacing" textLength="55.2246" x="514.2398" y="499.0653">Custom</text><text fill="#000000" font-family="sans-serif" font-size="13" font-weight="bold" lengthAdjust="spacing" textLength="196.2441" x="569.4644" y="499.0653">ActionDomainEvent.class).</text><text fill="#000000" font-family="sans-serif" font-size="13" lengthAdjust="spacing" textLength="20.4712" x="485.3135" y="514.1981">Via</text><text fill="#000000" font-family="sans-serif" font-size="13" font-style="italic" lengthAdjust="spacing" textLength="87.6865" x="509.917" y="514.1981">DomainEvent</text><text fill="#000000" font-family="sans-serif" font-size="13" lengthAdjust="spacing" textLength="115.813" x="597.6035" y="514.1981">.getEventPhase(),</text><text fill="#000000" font-family="sans-serif" font-size="13" lengthAdjust="spacing" textLength="203.3916" x="485.3135" y="529.331">further filtering can be applied.</text></g><!--reverse link MB to P--><g class="link" data-entity-1="MB" data-entity-2="P" data-source-line="14" data-uid="lnk10" id="link_MB_P"><path d="M271.9366,300.0242 C279.4066,337.4942 298.8135,434.85 306.2735,472.24" fill="none" id="MB-backto-P" style="stroke:#181818;stroke-width:1;"/><polygon fill="#181818" points="270.7635,294.14,268.6003,303.7484,271.7411,299.0435,276.4459,302.1843,270.7635,294.14" style="stroke:#181818;stroke-width:1;"/><text fill="#000000" font-family="sans-serif" font-size="13" lengthAdjust="spacing" textLength="22.4834" x="293.0135" y="380.1669">is a</text></g><!--reverse link MB to A--><g class="link" data-entity-1="MB" data-entity-2="A" data-source-line="15" data-uid="lnk12" id="link_MB_A"><path d="M246.576,296.9627 C230.996,309.3427 212.1835,325.25 194.0135,344.6 C152.9935,388.28 112.1235,446.96 94.7335,472.82" fill="none" id="MB-backto-A" style="stroke:#181818;stroke-width:1;"/><polygon fill="#181818" points="251.2735,293.23,241.7387,295.6974,247.3589,296.3406,246.7157,301.9608,251.2735,293.23" style="stroke:#181818;stroke-width:1;"/><text fill="#000000" font-family="sans-serif" font-size="13" lengthAdjust="spacing" textLength="22.4834" x="195.0135" y="380.1669">is a</text></g><!--reverse link MB to C--><g class="link" data-entity-1="MB" data-entity-2="C" data-source-line="16" data-uid="lnk14" id="link_MB_C"><path d="M260.8333,299.7679 C246.9833,337.2379 210.9135,434.85 197.0935,472.24" fill="none" id="MB-backto-C" style="stroke:#181818;stroke-width:1;"/><polygon fill="#181818" points="262.9135,294.14,256.0413,301.195,261.18,298.8299,263.5451,303.9686,262.9135,294.14" style="stroke:#181818;stroke-width:1;"/><text fill="#000000" font-family="sans-serif" font-size="13" lengthAdjust="spacing" textLength="22.4834" x="244.0135" y="380.1669">is a</text></g><!--link DO to MB--><g class="link" data-entity-1="DO" data-entity-2="MB" data-source-line="18" data-uid="lnk15" id="link_DO_MB"><path d="M196.3035,96.14 C213.3435,139.43 246.8759,224.6369 260.4359,259.0869" fill="none" id="DO-to-MB" style="stroke:#181818;stroke-width:1;"/><polygon fill="#181818" points="262.6335,264.67,263.0592,254.8303,260.8022,260.0174,255.6151,257.7604,262.6335,264.67" style="stroke:#181818;stroke-width:1;"/><text fill="#000000" font-family="sans-serif" font-size="13" lengthAdjust="spacing" textLength="22.9785" x="242.0135" y="195.1269">has</text></g><!--link DS to A--><g class="link" data-entity-1="DS" data-entity-2="A" data-source-line="19" data-uid="lnk16" id="link_DS_A"><path d="M86.0135,97.77 C86.0135,175.97 86.0135,406.52 86.0135,466.2" fill="none" id="DS-to-A" style="stroke:#181818;stroke-width:1;"/><polygon fill="#181818" points="86.0135,472.2,90.0135,463.2,86.0135,467.2,82.0135,463.2,86.0135,472.2" style="stroke:#181818;stroke-width:1;"/><text fill="#000000" font-family="sans-serif" font-size="13" lengthAdjust="spacing" textLength="22.9785" x="87.0135" y="283.8969">has</text></g><!--link DE to MB--><g class="link" data-entity-1="DE" data-entity-2="MB" data-source-line="21" data-uid="lnk17" id="link_DE_MB"><path d="M283.9135,96.54 C280.1135,140.02 272.7263,224.4628 269.7263,258.7628" fill="none" id="DE-to-MB" style="stroke:#181818;stroke-width:1;"/><polygon fill="#181818" points="269.2035,264.74,273.9725,256.1228,269.6391,259.759,266.0029,255.4257,269.2035,264.74" style="stroke:#181818;stroke-width:1;"/><text fill="#000000" font-family="sans-serif" font-size="13" lengthAdjust="spacing" textLength="43.7354" x="286.4971" y="180.1269">can be</text><text fill="#000000" font-family="sans-serif" font-size="13" lengthAdjust="spacing" textLength="56.5703" x="282.1458" y="195.2597">declared</text><text fill="#000000" font-family="sans-serif" font-size="13" lengthAdjust="spacing" textLength="17.875" x="303.5596" y="210.3925">for</text></g><!--link P to EX--><g class="link" data-entity-1="P" data-entity-2="EX" data-source-line="24" data-uid="lnk19" id="link_P_EX"><path d="M295.4335,501.1 C284.5635,511.37 268.7435,525.81 254.0135,537.39 C202.8635,577.64 143.5208,616.3671 111.3308,636.7771" fill="none" id="P-to-EX" style="stroke:#181818;stroke-width:1;"/><polygon fill="#181818" points="106.2635,639.99,116.0063,638.5488,110.4862,637.3126,111.7225,631.7925,106.2635,639.99" style="stroke:#181818;stroke-width:1;"/><text fill="#000000" font-family="sans-serif" font-size="13" lengthAdjust="spacing" textLength="24.959" x="255.4578" y="521.7559">edit</text><text fill="#000000" font-family="sans-serif" font-size="13" lengthAdjust="spacing" textLength="30.7227" x="256.7083" y="536.8887">is an</text></g><!--link A to EX--><g class="link" data-entity-1="A" data-entity-2="EX" data-source-line="25" data-uid="lnk20" id="link_A_EX"><path d="M86.0135,501.75 C86.0135,532.83 86.0135,602.14 86.0135,633.07" fill="none" id="A-to-EX" style="stroke:#181818;stroke-width:1;"/><polygon fill="#181818" points="86.0135,639.07,90.0135,630.07,86.0135,634.07,82.0135,630.07,86.0135,639.07" style="stroke:#181818;stroke-width:1;"/><text fill="#000000" font-family="sans-serif" font-size="13" lengthAdjust="spacing" textLength="67.5137" x="6" y="521.476">invocation</text><text fill="#000000" font-family="sans-serif" font-size="13" lengthAdjust="spacing" textLength="30.7227" x="28.5278" y="536.6088">is an</text></g><!--reverse link EB to SPRING--><g class="link" data-entity-1="EB" data-entity-2="SPRING" data-source-line="29" data-uid="lnk24" id="link_EB_SPRING"><path d="M459.9135,653.67 C483.3535,653.67 510.0335,653.67 534.7535,653.67" fill="none" id="EB-backto-SPRING" style="stroke:#181818;stroke-width:1;stroke-dasharray:7,7;"/><polygon fill="#181818" points="453.9135,653.67,462.9135,657.67,458.9135,653.67,462.9135,649.67,453.9135,653.67" style="stroke:#181818;stroke-width:1;"/><text fill="#000000" font-family="sans-serif" font-size="13" lengthAdjust="spacing" textLength="60.2583" x="464.3435" y="631.7369">provides/</text><text fill="#000000" font-family="sans-serif" font-size="13" lengthAdjust="spacing" textLength="59.8584" x="464.5434" y="646.8697">manages</text></g><!--link EX to EB--><g class="link" data-entity-1="EX" data-entity-2="EB" data-source-line="30" data-uid="lnk25" id="link_EX_EB"><path d="M138.0835,653.67 C209.7535,653.67 330.4335,653.67 388.0235,653.67" fill="none" id="EX-to-EB" style="stroke:#181818;stroke-width:1;"/><polygon fill="#181818" points="394.0235,653.67,385.0235,649.67,389.0235,653.67,385.0235,657.67,394.0235,653.67" style="stroke:#181818;stroke-width:1;"/><text fill="#000000" font-family="sans-serif" font-size="13" lengthAdjust="spacing" textLength="100.9976" x="213.8693" y="616.7369">is published as:</text><text fill="#000000" font-family="sans-serif" font-size="13" lengthAdjust="spacing" textLength="231.4292" x="152.7858" y="631.8697">* before event (phase: EXECUTING)</text><text fill="#000000" font-family="sans-serif" font-size="13" lengthAdjust="spacing" textLength="214.8809" x="161.06" y="647.0025">* after event (phase: EXECUTED)</text></g><!--link EL to EB--><g class="link" data-entity-1="EL" data-entity-2="EB" data-source-line="33" data-uid="lnk27" id="link_EL_EB"><path d="M419.7435,511.94 C420.6935,543.25 422.1608,591.7728 423.1108,622.9628" fill="none" id="EL-to-EB" style="stroke:#181818;stroke-width:1;"/><polygon fill="#181818" points="423.2935,628.96,427.0176,619.8424,423.1413,623.9623,419.0213,620.0859,423.2935,628.96" style="stroke:#181818;stroke-width:1;"/><text fill="#000000" font-family="sans-serif" font-size="13" lengthAdjust="spacing" textLength="42.104" x="423.0135" y="580.4569">listens</text><text fill="#000000" font-family="sans-serif" font-size="13" lengthAdjust="spacing" textLength="16.1929" x="440.1014" y="595.5897">on</text></g><!--reverse link MB to EL--><g class="link" data-entity-1="MB" data-entity-2="EL" data-source-line="34" data-uid="lnk29" id="link_MB_EL"><path d="M283.2041,297.9191 C294.1641,310.7291 307.2235,326.38 321.0135,344.6 C352.0135,385.56 385.5935,435.31 404.2935,463.54" fill="none" id="MB-backto-EL" style="stroke:#181818;stroke-width:1;"/><polygon fill="#181818" points="279.3035,293.36,282.1151,302.799,282.554,297.1592,288.1938,297.5982,279.3035,293.36" style="stroke:#181818;stroke-width:1;"/><text fill="#000000" font-family="sans-serif" font-size="13" lengthAdjust="spacing" textLength="119.0566" x="366.3499" y="357.6669">can check/modify:</text><text fill="#000000" font-family="sans-serif" font-size="13" lengthAdjust="spacing" textLength="100.0771" x="375.8397" y="372.7997">visibility (hide),</text><text fill="#000000" font-family="sans-serif" font-size="13" lengthAdjust="spacing" textLength="119.7295" x="366.0135" y="387.9325">usability (disable),</text><text fill="#000000" font-family="sans-serif" font-size="13" lengthAdjust="spacing" textLength="114.0103" x="370.9393" y="403.0653">validity (validate)</text></g><!--SRC=[ZLJVRzem47xtNt7g4rGbdVQ8EhH0eWs9hcXqLHzuCSc5U7Nio7ReqBJ_lMSR0cqtQNc9_Ntdky_tm_P9g9ORte3I9LfiuUC7nfpUeglHm6y6z0qotN2Xrcg5PYSA70AtaArUStURdrYuIDr5waPCZYmjynsg0v-pFyopjzXiqDnSYqd0RwVl8Y-DRj6uVU2N4KiB9xGAI1gHcPOIJ-YCt2zXr8qcv1B682nmbhu5Pcy1bjt1g3n2DRSiMtc0aFG0i2m_CocuWWt2Ma69XUG6Ix-kj65iaF_2ekiLvOyaw09BuRo5ZwOkl5zFf70Xr4uNt5k_feabJpvlQpNjR7GrPODLQuJQXkrg-Nt-xGkBFqXaGgUyjjRedQ2ANgzLmnNVecNv8umEB8LekuqKjYRDt8vzs4kw2sb7G1yG1YrT6CUa8P_zk2Vdms33AqVL-Pj9dWrFQXV2EbHeekG5onSmEWQNWRC-fbQ1wSupMjHOF5qtkXJLtWlR2IisGWgtXq5DLnfU4TXPViHAGMiPuHsNeWneM767f4bfXs34jdQWAzzyIo-Racnmp2xXwppp6Ro4RBvAfukuVaWNyoozZvi-1VqwpzXzZL3HuE2pDa_0EqUTxaJ1fTo3HLLQq9rZ8L4MdeMhWVeQsXXQgB3JfgHaXdoK2QD3uBM-LKnZqKzIIAyV65_2lkkuxnZ65PsBNUJsBTLHOkFBHC4uD67Ku6Hp1PXi4tQpcNoE0pK8i-G_mifJj4yKVDPPkf-F6stFn2IamThXl-Nxwdl3OqlOuzpqyhNNleyTMK1iRZ8WguOU0rsUINtbgLTCp7-AV10StYSpeKSdR49d38PNhEfCU8Og8QdVlPw3QDwsKfnNwmK0]--></g></svg>