<?xml version="1.0" encoding="us-ascii" standalone="no"?><svg xmlns="http://www.w3.org/2000/svg" xmlns:xlink="http://www.w3.org/1999/xlink" contentStyleType="text/css" height="484px" preserveAspectRatio="none" style="width:1019px;height:484px;background:#FFFFFF;" version="1.1" viewBox="0 0 1019 484" width="1019px" zoomAndPan="magnify"><defs/><g><g id="elem_EB"><ellipse cx="764.0024" cy="177.9273" fill="#F1F1F1" rx="39.0624" ry="26.0473" style="stroke:#181818;stroke-width:0.5;"/><text fill="#000000" font-family="sans-serif" font-size="14" lengthAdjust="spacing" textLength="39" x="744.5024" y="172.6255">Event</text><text fill="#000000" font-family="sans-serif" font-size="14" lengthAdjust="spacing" textLength="27" x="750.5024" y="188.9224">Bus</text></g><g id="elem_SPRING"><ellipse cx="941.9991" cy="177.9313" fill="#F1F1F1" rx="42.8991" ry="14.6113" style="stroke:#181818;stroke-width:0.5;"/><text fill="#000000" font-family="sans-serif" font-size="14" lengthAdjust="spacing" textLength="44" x="916.9991" y="181.6788">Spring</text></g><g id="elem_EL"><ellipse cx="763.9962" cy="32.0473" fill="#F1F1F1" rx="50.3762" ry="26.0473" style="stroke:#181818;stroke-width:0.5;"/><text fill="#000000" font-family="sans-serif" font-size="14" lengthAdjust="spacing" textLength="39" x="744.4962" y="26.7455">Event</text><text fill="#000000" font-family="sans-serif" font-size="14" lengthAdjust="spacing" textLength="55" x="736.4962" y="43.0424">Listener</text></g><g id="elem_LCE"><ellipse cx="535.9978" cy="177.9273" fill="#F1F1F1" rx="74.4178" ry="26.0473" style="stroke:#181818;stroke-width:0.5;"/><text fill="#000000" font-family="sans-serif" font-size="14" font-style="italic" lengthAdjust="spacing" textLength="45" x="513.4978" y="172.6255">Object</text><text fill="#000000" font-family="sans-serif" font-size="14" lengthAdjust="spacing" textLength="89" x="491.4978" y="188.9224">LifecyleEvent</text></g><g id="elem_C"><ellipse cx="962.9962" cy="323.8073" fill="#F1F1F1" rx="50.3762" ry="26.0473" style="stroke:#181818;stroke-width:0.5;"/><text fill="#000000" font-family="sans-serif" font-size="14" lengthAdjust="spacing" textLength="55" x="935.4962" y="318.5055">Created</text><text fill="#000000" font-family="sans-serif" font-size="14" lengthAdjust="spacing" textLength="39" x="943.4962" y="334.8024">Event</text></g><g id="elem_L"><ellipse cx="829.9977" cy="323.8073" fill="#F1F1F1" rx="47.5477" ry="26.0473" style="stroke:#181818;stroke-width:0.5;"/><text fill="#000000" font-family="sans-serif" font-size="14" lengthAdjust="spacing" textLength="51" x="804.4977" y="318.5055">Loaded</text><text fill="#000000" font-family="sans-serif" font-size="14" lengthAdjust="spacing" textLength="39" x="810.4977" y="334.8024">Event</text></g><g id="elem_PNG"><ellipse cx="687.9985" cy="323.8073" fill="#F1F1F1" rx="59.5685" ry="26.0473" style="stroke:#181818;stroke-width:0.5;"/><text fill="#000000" font-family="sans-serif" font-size="14" lengthAdjust="spacing" textLength="68" x="653.9985" y="318.5055">Persisting</text><text fill="#000000" font-family="sans-serif" font-size="14" lengthAdjust="spacing" textLength="39" x="668.4985" y="334.8024">Event</text></g><g id="elem_PED"><ellipse cx="535.9972" cy="323.8073" fill="#F1F1F1" rx="57.4472" ry="26.0473" style="stroke:#181818;stroke-width:0.5;"/><text fill="#000000" font-family="sans-serif" font-size="14" lengthAdjust="spacing" textLength="65" x="503.4972" y="318.5055">Persisted</text><text fill="#000000" font-family="sans-serif" font-size="14" lengthAdjust="spacing" textLength="39" x="516.4972" y="334.8024">Event</text></g><g id="elem_UNG"><ellipse cx="387.9959" cy="323.8073" fill="#F1F1F1" rx="55.3259" ry="26.0473" style="stroke:#181818;stroke-width:0.5;"/><text fill="#000000" font-family="sans-serif" font-size="14" lengthAdjust="spacing" textLength="62" x="356.9959" y="318.5055">Updating</text><text fill="#000000" font-family="sans-serif" font-size="14" lengthAdjust="spacing" textLength="39" x="368.4959" y="334.8024">Event</text></g><g id="elem_UED"><ellipse cx="244.0046" cy="323.8073" fill="#F1F1F1" rx="53.2046" ry="26.0473" style="stroke:#181818;stroke-width:0.5;"/><text fill="#000000" font-family="sans-serif" font-size="14" lengthAdjust="spacing" textLength="59" x="214.5046" y="318.5055">Updated</text><text fill="#000000" font-family="sans-serif" font-size="14" lengthAdjust="spacing" textLength="39" x="224.5046" y="334.8024">Event</text></g><g id="elem_RNG"><ellipse cx="95.9956" cy="323.8073" fill="#F1F1F1" rx="60.2756" ry="26.0473" style="stroke:#181818;stroke-width:0.5;"/><text fill="#000000" font-family="sans-serif" font-size="14" lengthAdjust="spacing" textLength="69" x="61.4956" y="318.5055">Removing</text><text fill="#000000" font-family="sans-serif" font-size="14" lengthAdjust="spacing" textLength="39" x="76.4956" y="334.8024">Event</text></g><g id="elem_FS"><ellipse cx="963.0006" cy="452.8973" fill="#F1F1F1" rx="46.8406" ry="26.0473" style="stroke:#181818;stroke-width:0.5;"/><text fill="#000000" font-family="sans-serif" font-size="14" lengthAdjust="spacing" textLength="50" x="938.0006" y="447.5955">Factory</text><text fill="#000000" font-family="sans-serif" font-size="14" lengthAdjust="spacing" textLength="50" x="938.0006" y="463.8924">Service</text></g><g id="elem_RS"><ellipse cx="427.0012" cy="452.8973" fill="#F1F1F1" rx="63.8112" ry="26.0473" style="stroke:#181818;stroke-width:0.5;"/><text fill="#000000" font-family="sans-serif" font-size="14" lengthAdjust="spacing" textLength="74" x="390.0012" y="447.5955">Repository</text><text fill="#000000" font-family="sans-serif" font-size="14" lengthAdjust="spacing" textLength="50" x="402.0012" y="463.8924">Service</text></g><g id="elem_GMN47"><path d="M6,135.1 L6,220.7641 A0,0 0 0 0 6,220.7641 L92,220.7641 L96,297.67 L100,220.7641 L186,220.7641 A0,0 0 0 0 186,220.7641 L186,145.1 L176,135.1 L6,135.1 A0,0 0 0 0 6,135.1 " fill="#FEFFDD" style="stroke:#181818;stroke-width:0.5;"/><path d="M176,135.1 L176,145.1 L186,145.1 L176,135.1 " fill="#FEFFDD" style="stroke:#181818;stroke-width:0.5;"/><text fill="#000000" font-family="sans-serif" font-size="13" lengthAdjust="spacing" textLength="107" x="12" y="152.1669">JDO/Datanucleus</text><text fill="#000000" font-family="sans-serif" font-size="13" lengthAdjust="spacing" textLength="109" x="12" y="167.2997">does not support</text><text fill="#000000" font-family="sans-serif" font-size="13" lengthAdjust="spacing" textLength="105" x="12" y="182.4325">something like a</text><text fill="#000000" font-family="sans-serif" font-size="13" lengthAdjust="spacing" textLength="114" x="12" y="197.5653">"Removed Event".</text><text fill="#000000" font-family="sans-serif" font-size="13" lengthAdjust="spacing" textLength="159" x="12" y="212.6981">Hence not implemented.</text></g><!--reverse link EB to SPRING--><g id="link_EB_SPRING"><path d="M809.26,177.93 C836.78,177.93 871.74,177.93 898.87,177.93 " fill="none" id="EB-backto-SPRING" style="stroke:#181818;stroke-width:1.0;stroke-dasharray:7.0,7.0;"/><polygon fill="#181818" points="804.5,177.93,813.5,181.93,809.5,177.93,813.5,173.93,804.5,177.93" style="stroke:#181818;stroke-width:1.0;"/><text fill="#000000" font-family="sans-serif" font-size="13" lengthAdjust="spacing" textLength="58" x="822.08" y="155.9969">provides/</text><text fill="#000000" font-family="sans-serif" font-size="13" lengthAdjust="spacing" textLength="60" x="821.08" y="171.1297">manages</text></g><!--link EL to EB--><g id="link_EL_EB"><path d="M764,58.44 C764,82.89 764,119.91 764,146.06 " fill="none" id="EL-to-EB" style="stroke:#181818;stroke-width:1.0;"/><polygon fill="#181818" points="764,150.79,768,141.79,764,145.79,760,141.79,764,150.79" style="stroke:#181818;stroke-width:1.0;"/><text fill="#000000" font-family="sans-serif" font-size="13" lengthAdjust="spacing" textLength="41" x="765" y="101.1669">listens</text></g><!--link LCE to EB--><g id="link_LCE_EB"><path d="M610.66,177.93 C646.48,177.93 688.21,177.93 719.09,177.93 " fill="none" id="LCE-to-EB" style="stroke:#181818;stroke-width:1.0;"/><polygon fill="#181818" points="723.72,177.93,714.72,173.93,718.72,177.93,714.72,181.93,723.72,177.93" style="stroke:#181818;stroke-width:1.0;"/><text fill="#000000" font-family="sans-serif" font-size="13" lengthAdjust="spacing" textLength="78" x="628.68" y="170.9969">published to</text></g><!--reverse link LCE to C--><g id="link_LCE_C"><path d="M595.49,197.95 C666.86,220.93 790.05,261.08 895,297.76 C904.03,300.92 913.69,304.41 922.81,307.75 " fill="none" id="LCE-backto-C" style="stroke:#181818;stroke-width:1.0;"/><polygon fill="#181818" points="591.02,196.19,598.3649,202.7515,595.7803,197.7196,600.8122,195.135,591.02,196.19" style="stroke:#181818;stroke-width:1.0;"/><text fill="#000000" font-family="sans-serif" font-size="13" lengthAdjust="spacing" textLength="22" x="807" y="263.8269">is a</text></g><!--reverse link LCE to L--><g id="link_LCE_L"><path d="M583.7,202.27 C643.03,231.31 742.9,280.18 795.38,305.87 " fill="none" id="LCE-backto-L" style="stroke:#181818;stroke-width:1.0;"/><polygon fill="#181818" points="579.44,199.7,585.7686,207.2464,583.9319,201.8961,589.2823,200.0594,579.44,199.7" style="stroke:#181818;stroke-width:1.0;"/><text fill="#000000" font-family="sans-serif" font-size="13" lengthAdjust="spacing" textLength="22" x="710" y="263.8269">is a</text></g><!--reverse link LCE to PNG--><g id="link_LCE_PNG"><path d="M565.22,206.59 C593.89,233.73 637.09,274.62 663.87,299.97 " fill="none" id="LCE-backto-PNG" style="stroke:#181818;stroke-width:1.0;"/><polygon fill="#181818" points="562.1,203.69,565.9123,212.7711,565.741,207.1168,571.3953,206.9455,562.1,203.69" style="stroke:#181818;stroke-width:1.0;"/><text fill="#000000" font-family="sans-serif" font-size="13" lengthAdjust="spacing" textLength="22" x="626" y="263.8269">is a</text></g><!--reverse link LCE to PED--><g id="link_LCE_PED"><path d="M536,210.07 C536,236.29 536,273.31 536,297.67 " fill="none" id="LCE-backto-PED" style="stroke:#181818;stroke-width:1.0;"/><polygon fill="#181818" points="536,205.32,532,214.32,536,210.32,540,214.32,536,205.32" style="stroke:#181818;stroke-width:1.0;"/><text fill="#000000" font-family="sans-serif" font-size="13" lengthAdjust="spacing" textLength="22" x="537" y="263.8269">is a</text></g><!--reverse link LCE to UNG--><g id="link_LCE_UNG"><path d="M507.55,206.59 C479.63,233.73 437.57,274.62 411.5,299.97 " fill="none" id="LCE-backto-UNG" style="stroke:#181818;stroke-width:1.0;"/><polygon fill="#181818" points="510.56,203.69,501.3185,207.0952,506.9748,207.1752,506.8948,212.8315,510.56,203.69" style="stroke:#181818;stroke-width:1.0;"/><text fill="#000000" font-family="sans-serif" font-size="13" lengthAdjust="spacing" textLength="22" x="463" y="263.8269">is a</text></g><!--reverse link LCE to UED--><g id="link_LCE_UED"><path d="M488.7,202.23 C430.61,230.86 333.3,278.81 280.6,304.77 " fill="none" id="LCE-backto-UED" style="stroke:#181818;stroke-width:1.0;"/><polygon fill="#181818" points="492.85,199.7,483.0091,200.0969,488.3665,201.9132,486.5503,207.2705,492.85,199.7" style="stroke:#181818;stroke-width:1.0;"/><text fill="#000000" font-family="sans-serif" font-size="13" lengthAdjust="spacing" textLength="22" x="391" y="263.8269">is a</text></g><!--reverse link LCE to RNG--><g id="link_LCE_RNG"><path d="M476.79,198.29 C388.55,227.15 224.29,280.86 143.44,307.29 " fill="none" id="LCE-backto-RNG" style="stroke:#181818;stroke-width:1.0;"/><polygon fill="#181818" points="481.49,196.43,471.6913,195.437,476.7395,197.9897,474.1868,203.0378,481.49,196.43" style="stroke:#181818;stroke-width:1.0;"/><text fill="#000000" font-family="sans-serif" font-size="13" lengthAdjust="spacing" textLength="22" x="317" y="263.8269">is a</text></g><!--reverse link C to FS--><g id="link_C_FS"><path d="M963,356.14 C963,377.81 963,406.28 963,426.53 " fill="none" id="C-backto-FS" style="stroke:#181818;stroke-width:1.0;"/><polygon fill="#181818" points="963,351.22,959,360.22,963,356.22,967,360.22,963,351.22" style="stroke:#181818;stroke-width:1.0;"/><text fill="#000000" font-family="sans-serif" font-size="13" lengthAdjust="spacing" textLength="36" x="964" y="392.9269">emits</text></g><!--reverse link L to RS--><g id="link_L_RS"><path d="M786.55,341.94 C779.37,344.66 772,347.38 765,349.86 C665.3,385.08 546.5,419.17 479.6,437.66 " fill="none" id="L-backto-RS" style="stroke:#181818;stroke-width:1.0;"/><polygon fill="#181818" points="790.98,339.87,781.1465,339.321,786.3048,341.6428,783.983,346.8012,790.98,339.87" style="stroke:#181818;stroke-width:1.0;"/><text fill="#000000" font-family="sans-serif" font-size="13" lengthAdjust="spacing" textLength="36" x="674" y="392.9269">emits</text></g><!--reverse link PNG to RS--><g id="link_PNG_RS"><path d="M643.64,346.41 C594.19,370.49 514.9,409.1 467.2,432.33 " fill="none" id="PNG-backto-RS" style="stroke:#181818;stroke-width:1.0;"/><polygon fill="#181818" points="647.93,343.84,638.0877,344.1994,643.4381,346.0361,641.6014,351.3864,647.93,343.84" style="stroke:#181818;stroke-width:1.0;"/><text fill="#000000" font-family="sans-serif" font-size="13" lengthAdjust="spacing" textLength="36" x="574" y="392.9269">emits</text></g><!--reverse link PED to RS--><g id="link_PED_RS"><path d="M512,352.8 C492.68,375.32 465.83,406.63 447.51,427.99 " fill="none" id="PED-backto-RS" style="stroke:#181818;stroke-width:1.0;"/><polygon fill="#181818" points="515.75,349.42,506.8559,353.6501,512.496,353.2163,512.9299,358.8565,515.75,349.42" style="stroke:#181818;stroke-width:1.0;"/><text fill="#000000" font-family="sans-serif" font-size="13" lengthAdjust="spacing" textLength="36" x="490" y="392.9269">emits</text></g><!--reverse link UNG to RS--><g id="link_UNG_RS"><path d="M397.45,355.59 C404.15,377.44 413.04,406.41 419.31,426.85 " fill="none" id="UNG-backto-RS" style="stroke:#181818;stroke-width:1.0;"/><polygon fill="#181818" points="395.71,350.92,394.5398,360.6991,397.1834,355.698,402.1846,358.3416,395.71,350.92" style="stroke:#181818;stroke-width:1.0;"/><text fill="#000000" font-family="sans-serif" font-size="13" lengthAdjust="spacing" textLength="36" x="411" y="392.9269">emits</text></g><!--reverse link UED to RS--><g id="link_UED_RS"><path d="M278.64,348.87 C312.25,372.21 362.81,407.32 395.36,429.93 " fill="none" id="UED-backto-RS" style="stroke:#181818;stroke-width:1.0;"/><polygon fill="#181818" points="274.81,345.51,279.9268,353.9254,278.9189,348.359,284.4852,347.3511,274.81,345.51" style="stroke:#181818;stroke-width:1.0;"/><text fill="#000000" font-family="sans-serif" font-size="13" lengthAdjust="spacing" textLength="36" x="348" y="392.9269">emits</text></g><!--reverse link RNG to RS--><g id="link_RNG_RS"><path d="M144.86,344.34 C181.67,358.97 233.41,379.4 279,396.86 C312.8,409.79 351.09,424.02 380.25,434.77 " fill="none" id="RNG-backto-RS" style="stroke:#181818;stroke-width:1.0;"/><polygon fill="#181818" points="140.54,342.22,147.4294,349.2582,145.1873,344.0646,150.3808,341.8225,140.54,342.22" style="stroke:#181818;stroke-width:1.0;"/><text fill="#000000" font-family="sans-serif" font-size="13" lengthAdjust="spacing" textLength="36" x="280" y="392.9269">emits</text></g><!--SRC=[RP9DZu8m48RlyoiQJ-n1l1lZGSJz25a9X1kNIaVjBhGDBIR- -nqgnaKyD8JfypxfJ1l45rIkL9lElZ5kMRo183UjL2V_cwVPv_Sxt3uihCCr4Mp9JAilKg1TbAhXYf_GGZ2O4caTAcnlkWJYXCtdGwpsUnOWMCdr_l23bLijvBeF7R6wrkWTFfb4CT1YzwZf3fG-es1EGn2ro1sAKZq24KHitX7UfvPCMiOXI3GNOoo1P891a69hwMpKzdysfTPfJRK3FZQdyHPelR0NHl1dTq7kufNRmsDpGURYfJd3XYvYRCx8dBqmGx3ZbTFjjLGvjXTPeSTtEUpo6non9JRIsTvhj9LJECiX6-3a3jyB_QIUItJefr8nfOefbJqeKDeXNRfX-kXx-zhk5rlkkEgg6ZiBGgDb137R6QDR1rOtwCuq5NfllqYTp_oOwEdu8Sr2-41LeS_8njJOK1L52AX4NyG_]--></g></svg>