<svg xmlns="http://www.w3.org/2000/svg" xmlns:xlink="http://www.w3.org/1999/xlink" contentStyleType="text/css" data-diagram-type="DESCRIPTION" height="510px" preserveAspectRatio="none" style="width:750px;height:510px;background:#FFFFFF;" version="1.1" viewBox="0 0 750 510" width="750px" zoomAndPan="magnify"><defs/><g><g class="entity" data-entity="EB" data-source-line="3" data-uid="ent0002" id="entity_EB"><ellipse cx="410.0148" cy="349.1373" fill="#F1F1F1" rx="39.8448" ry="26.0473" style="stroke:#181818;stroke-width:0.5;"/><text fill="#000000" font-family="sans-serif" font-size="14" lengthAdjust="spacing" textLength="40.1064" x="389.9616" y="343.8355">Event</text><text fill="#000000" font-family="sans-serif" font-size="14" lengthAdjust="spacing" textLength="25.7715" x="397.1291" y="360.1324">Bus</text></g><g class="entity" data-entity="SPRING" data-source-line="4" data-uid="ent0003" id="entity_SPRING"><ellipse cx="575.0085" cy="349.1425" fill="#F1F1F1" rx="43.7785" ry="14.6225" style="stroke:#181818;stroke-width:0.5;"/><text fill="#000000" font-family="sans-serif" font-size="14" lengthAdjust="spacing" textLength="45.1787" x="549.4192" y="352.8901">Spring</text></g><g class="entity" data-entity="EL" data-source-line="6" data-uid="ent0006" id="entity_EL"><ellipse cx="403.0053" cy="173.1273" fill="#F1F1F1" rx="51.3153" ry="26.0473" style="stroke:#181818;stroke-width:0.5;"/><text fill="#000000" font-family="sans-serif" font-size="14" lengthAdjust="spacing" textLength="40.1064" x="382.9521" y="167.8255">Event</text><text fill="#000000" font-family="sans-serif" font-size="14" lengthAdjust="spacing" textLength="56.3281" x="374.8412" y="184.1224">Listener</text></g><g class="entity" data-entity="UIE" data-source-line="9" data-uid="ent0008" id="entity_UIE"><ellipse cx="238.0148" cy="349.1373" fill="#F1F1F1" rx="39.8448" ry="26.0473" style="stroke:#181818;stroke-width:0.5;"/><text fill="#000000" font-family="sans-serif" font-size="14" lengthAdjust="spacing" textLength="14.376" x="230.8268" y="343.8355">UI</text><text fill="#000000" font-family="sans-serif" font-size="14" lengthAdjust="spacing" textLength="40.1064" x="217.9616" y="360.1324">Event</text></g><g class="entity" data-entity="TUIE" data-source-line="12" data-uid="ent0010" id="entity_TUIE"><ellipse cx="56.0102" cy="478.2273" fill="#F1F1F1" rx="50.0102" ry="26.0473" style="stroke:#181818;stroke-width:0.5;"/><text fill="#000000" font-family="sans-serif" font-size="14" lengthAdjust="spacing" textLength="30.4336" x="40.7934" y="472.9255">Title</text><text fill="#000000" font-family="sans-serif" font-size="14" lengthAdjust="spacing" textLength="54.4824" x="28.769" y="489.2224">UIEvent</text></g><g class="entity" data-entity="IUIE" data-source-line="14" data-uid="ent0013" id="entity_IUIE"><ellipse cx="176.0102" cy="478.2273" fill="#F1F1F1" rx="50.0102" ry="26.0473" style="stroke:#181818;stroke-width:0.5;"/><text fill="#000000" font-family="sans-serif" font-size="14" lengthAdjust="spacing" textLength="29.2646" x="161.3778" y="472.9255">Icon</text><text fill="#000000" font-family="sans-serif" font-size="14" lengthAdjust="spacing" textLength="54.4824" x="148.769" y="489.2224">UIEvent</text></g><g class="entity" data-entity="CCUIE" data-source-line="17" data-uid="ent0016" id="entity_CCUIE"><ellipse cx="301.0069" cy="478.2273" fill="#F1F1F1" rx="54.7569" ry="26.0473" style="stroke:#181818;stroke-width:0.5;"/><text fill="#000000" font-family="sans-serif" font-size="14" lengthAdjust="spacing" textLength="61.1953" x="270.4092" y="472.9255">CssClass</text><text fill="#000000" font-family="sans-serif" font-size="14" lengthAdjust="spacing" textLength="54.4824" x="273.7657" y="489.2224">UIEvent</text></g><g class="entity" data-entity="LUIE" data-source-line="19" data-uid="ent0019" id="entity_LUIE"><ellipse cx="426.0102" cy="478.2273" fill="#F1F1F1" rx="50.0102" ry="26.0473" style="stroke:#181818;stroke-width:0.5;"/><text fill="#000000" font-family="sans-serif" font-size="14" lengthAdjust="spacing" textLength="47.5918" x="402.2143" y="472.9255">Layout</text><text fill="#000000" font-family="sans-serif" font-size="14" lengthAdjust="spacing" textLength="54.4824" x="398.769" y="489.2224">UIEvent</text></g><g class="entity" data-entity="DO" data-source-line="23" data-uid="ent0022" id="entity_DO"><ellipse cx="276.009" cy="173.1273" fill="#F1F1F1" rx="49.899" ry="26.0473" style="stroke:#181818;stroke-width:0.5;"/><text fill="#000000" font-family="sans-serif" font-size="14" lengthAdjust="spacing" textLength="54.3252" x="248.8464" y="167.8255">Domain</text><text fill="#000000" font-family="sans-serif" font-size="14" lengthAdjust="spacing" textLength="45.5957" x="253.2111" y="184.1224">Object</text></g><g class="entity" data-entity="PST" data-source-line="26" data-uid="ent0024" id="entity_PST"><ellipse cx="336.0122" cy="22.0824" fill="#F1F1F1" rx="68.4122" ry="16.0824" style="stroke:#181818;stroke-width:0.5;"/><text fill="#000000" font-family="sans-serif" font-size="14" lengthAdjust="spacing" textLength="88.4775" x="288.7734" y="25.83">Presentation</text></g><g class="entity" data-entity="GMN29" data-source-line="30" data-uid="ent0030" id="entity_GMN29"><path d="M474.42,115.16 L474.42,169.13 L454.51,173.13 L474.42,177.13 L474.42,231.0897 A0,0 0 0 0 474.42,231.0897 L743.5943,231.0897 A0,0 0 0 0 743.5943,231.0897 L743.5943,125.16 L733.5943,115.16 L474.42,115.16 A0,0 0 0 0 474.42,115.16" fill="#FEFFDD" style="stroke:#181818;stroke-width:0.5;"/><path d="M733.5943,115.16 L733.5943,125.16 L743.5943,125.16 L733.5943,115.16" fill="#FEFFDD" style="stroke:#181818;stroke-width:0.5;"/><text fill="#000000" font-family="sans-serif" font-size="13" lengthAdjust="spacing" textLength="215.2871" x="480.42" y="132.2269">When DomainObject implements</text><text fill="#000000" font-family="sans-serif" font-size="13" lengthAdjust="spacing" textLength="248.1743" x="480.42" y="147.3597">respective supporting methods itself (</text><ellipse cx="485.92" cy="158.0584" fill="#000000" rx="2.5" ry="2.5"/><text fill="#000000" font-family="sans-serif" font-size="13" lengthAdjust="spacing" textLength="39.6919" x="492.42" y="162.4925">title(),</text><ellipse cx="485.92" cy="173.1912" fill="#000000" rx="2.5" ry="2.5"/><text fill="#000000" font-family="sans-serif" font-size="13" lengthAdjust="spacing" textLength="79.5806" x="492.42" y="177.6253">iconName(),</text><ellipse cx="485.92" cy="188.3241" fill="#000000" rx="2.5" ry="2.5"/><text fill="#000000" font-family="sans-serif" font-size="13" lengthAdjust="spacing" textLength="69.1704" x="492.42" y="192.7581">cssClass(),</text><ellipse cx="485.92" cy="203.4569" fill="#000000" rx="2.5" ry="2.5"/><text fill="#000000" font-family="sans-serif" font-size="13" lengthAdjust="spacing" textLength="59.9092" x="492.42" y="207.891">layout()),</text><text fill="#000000" font-family="sans-serif" font-size="13" lengthAdjust="spacing" textLength="182.1143" x="480.42" y="223.0238">modification is not possible.</text></g><!--reverse link EB to SPRING--><g class="link" data-entity-1="EB" data-entity-2="SPRING" data-source-line="5" data-uid="lnk5" id="link_EB_SPRING"><path d="M455.95,349.14 C480.37,349.14 505.63,349.14 530.79,349.14" fill="none" id="EB-backto-SPRING" style="stroke:#181818;stroke-width:1;stroke-dasharray:7.0,7.0;"/><polygon fill="#181818" points="449.95,349.14,458.95,353.14,454.95,349.14,458.95,345.14,449.95,349.14" style="stroke:#181818;stroke-width:1;"/><text fill="#000000" font-family="sans-serif" font-size="13" lengthAdjust="spacing" textLength="60.2583" x="460.54" y="327.2069">provides/</text><text fill="#000000" font-family="sans-serif" font-size="13" lengthAdjust="spacing" textLength="59.8584" x="460.74" y="342.3397">manages</text></g><!--link EL to EB--><g class="link" data-entity-1="EL" data-entity-2="EB" data-source-line="7" data-uid="lnk7" id="link_EL_EB"><path d="M404.03,199.43 C405.36,232.42 407.4184,283.8049 408.7484,316.8049" fill="none" id="EL-to-EB" style="stroke:#181818;stroke-width:1;"/><polygon fill="#181818" points="408.99,322.8,412.6243,313.6462,408.7886,317.8041,404.6308,313.9684,408.99,322.8" style="stroke:#181818;stroke-width:1;"/><text fill="#000000" font-family="sans-serif" font-size="13" lengthAdjust="spacing" textLength="59.2871" x="435.6099" y="274.1569">listens to</text><text fill="#000000" font-family="sans-serif" font-size="13" lengthAdjust="spacing" textLength="112.4868" x="413.1423" y="289.2897">(is subscribed to)</text></g><!--link UIE to EB--><g class="link" data-entity-1="UIE" data-entity-2="EB" data-source-line="10" data-uid="lnk9" id="link_UIE_EB"><path d="M278.34,349.14 C305.94,349.14 336.39,349.14 363.94,349.14" fill="none" id="UIE-to-EB" style="stroke:#181818;stroke-width:1;"/><polygon fill="#181818" points="369.94,349.14,360.94,345.14,364.94,349.14,360.94,353.14,369.94,349.14" style="stroke:#181818;stroke-width:1;"/><text fill="#000000" font-family="sans-serif" font-size="13" lengthAdjust="spacing" textLength="10.3848" x="316.9983" y="312.2069">is</text><text fill="#000000" font-family="sans-serif" font-size="13" lengthAdjust="spacing" textLength="63.229" x="292.6423" y="327.3397">published</text><text fill="#000000" font-family="sans-serif" font-size="13" lengthAdjust="spacing" textLength="13.0508" x="319.7976" y="342.4725">to</text></g><!--reverse link UIE to TUIE--><g class="link" data-entity-1="UIE" data-entity-2="TUIE" data-source-line="13" data-uid="lnk12" id="link_UIE_TUIE"><path d="M206.2409,372.3255 C172.6209,395.8055 120.15,432.44 85.39,456.72" fill="none" id="UIE-backto-TUIE" style="stroke:#181818;stroke-width:1;"/><polygon fill="#181818" points="211.16,368.89,201.491,370.7638,207.0607,371.7529,206.0717,377.3226,211.16,368.89" style="stroke:#181818;stroke-width:1;"/><text fill="#000000" font-family="sans-serif" font-size="13" lengthAdjust="spacing" textLength="22.4834" x="159.01" y="418.2569">is a</text></g><!--reverse link UIE to IUIE--><g class="link" data-entity-1="UIE" data-entity-2="IUIE" data-source-line="15" data-uid="lnk15" id="link_UIE_IUIE"><path d="M223.5696,379.7327 C212.6096,402.2027 199,430.11 187.99,452.69" fill="none" id="UIE-backto-IUIE" style="stroke:#181818;stroke-width:1;"/><polygon fill="#181818" points="226.2,374.34,218.6593,380.6755,224.008,378.8339,225.8496,384.1826,226.2,374.34" style="stroke:#181818;stroke-width:1;"/><text fill="#000000" font-family="sans-serif" font-size="13" lengthAdjust="spacing" textLength="22.4834" x="212.01" y="418.2569">is a</text></g><!--reverse link UIE to CCUIE--><g class="link" data-entity-1="UIE" data-entity-2="CCUIE" data-source-line="18" data-uid="lnk18" id="link_UIE_CCUIE"><path d="M252.6751,379.7156 C263.8151,402.1856 277.65,430.11 288.84,452.69" fill="none" id="UIE-backto-CCUIE" style="stroke:#181818;stroke-width:1;"/><polygon fill="#181818" points="250.01,374.34,250.4239,384.1802,252.2309,378.8197,257.5914,380.6267,250.01,374.34" style="stroke:#181818;stroke-width:1;"/><text fill="#000000" font-family="sans-serif" font-size="13" lengthAdjust="spacing" textLength="22.4834" x="275.01" y="418.2569">is a</text></g><!--reverse link UIE to LUIE--><g class="link" data-entity-1="UIE" data-entity-2="LUIE" data-source-line="20" data-uid="lnk21" id="link_UIE_LUIE"><path d="M270.3211,371.9798 C305.1511,395.5198 360.16,432.72 396.15,457.05" fill="none" id="UIE-backto-LUIE" style="stroke:#181818;stroke-width:1;"/><polygon fill="#181818" points="265.35,368.62,270.5668,376.9737,269.4926,371.4198,275.0465,370.3455,265.35,368.62" style="stroke:#181818;stroke-width:1;"/><text fill="#000000" font-family="sans-serif" font-size="13" lengthAdjust="spacing" textLength="22.4834" x="345.01" y="418.2569">is a</text></g><!--link DO to UIE--><g class="link" data-entity-1="DO" data-entity-2="UIE" data-source-line="24" data-uid="lnk23" id="link_DO_UIE"><path d="M270.48,199.43 C263.26,232.51 251.9605,284.2682 244.7605,317.2282" fill="none" id="DO-to-UIE" style="stroke:#181818;stroke-width:1;"/><polygon fill="#181818" points="243.48,323.09,249.3086,315.151,244.5471,318.2052,241.4929,313.4437,243.48,323.09" style="stroke:#181818;stroke-width:1;"/><text fill="#000000" font-family="sans-serif" font-size="13" lengthAdjust="spacing" textLength="35.1089" x="210.821" y="219.3133">when</text><text fill="#000000" font-family="sans-serif" font-size="13" lengthAdjust="spacing" textLength="63.5591" x="198.6621" y="234.4461">rendered,</text><text fill="#000000" font-family="sans-serif" font-size="13" lengthAdjust="spacing" textLength="51.7842" x="204.5496" y="249.5789">leads to</text><text fill="#000000" font-family="sans-serif" font-size="13" lengthAdjust="spacing" textLength="57.624" x="201.6296" y="264.7118">emission</text><text fill="#000000" font-family="sans-serif" font-size="13" lengthAdjust="spacing" textLength="12.5303" x="224.1765" y="279.8446">of</text></g><!--reverse link PST to DO--><g class="link" data-entity-1="PST" data-entity-2="DO" data-source-line="27" data-uid="lnk26" id="link_PST_DO"><path d="M327.579,44.0358 C317.219,69.7658 298.53,116.19 286.04,147.2" fill="none" id="PST-backto-DO" style="stroke:#181818;stroke-width:1;"/><polygon fill="#181818" points="329.82,38.47,322.748,45.3246,327.9525,43.1081,330.169,48.3127,329.82,38.47" style="stroke:#181818;stroke-width:1;"/><text fill="#000000" font-family="sans-serif" font-size="13" lengthAdjust="spacing" textLength="22.9785" x="318.01" y="81.2269">has</text></g><!--reverse link PST to EL--><g class="link" data-entity-1="PST" data-entity-2="EL" data-source-line="28" data-uid="lnk28" id="link_PST_EL"><path d="M345.3896,43.9427 C356.9896,69.7527 378,116.5 391.93,147.47" fill="none" id="PST-backto-EL" style="stroke:#181818;stroke-width:1;"/><polygon fill="#181818" points="342.93,38.47,342.971,48.3188,344.9797,43.0306,350.2679,45.0393,342.93,38.47" style="stroke:#181818;stroke-width:1;"/><text fill="#000000" font-family="sans-serif" font-size="13" lengthAdjust="spacing" textLength="72.2363" x="365.01" y="81.2269">can modify</text></g><!--SRC=[RL9DRzim3BthLn0zAKMJ3Zlkq4EJO31WDC6Ie1TVP9k9jUeBefmX_twKdBO8seDjadhlyOaqlMaNL5GMdE-HCC3F7qB8zHbTQjppI3DG1Ejd8NSXQdSgwMxxfthvBQOFBCpYYH7m2qBqPyqgZuspogaJqeTIhIcXmpZ9rM9Tmtn-fPboHf0yD0wa9g2nfIxg5dikpjZFeMfSKIhyGxKM_C0ylaimXwbXR5bhO1OdoJDlhvF1nZ7uWxpFx7sXZqpFGU4h8QlEkrjmbS7LTs0XbqHBeuXk6SjbffJtrmQrklWntHBgZA-_RI7aobkbsTEc_OlTX5zjn6e3T_y6TFcQ4LsF4Vk7d1XK_ViSqMeYxJF87-_c_QJDcjl8UtP99JuiYjlTFakMzXnp-q5HsT1dfLCEhE_ryIASJmXHduO4_fXt-PgjJ4uddw1jC6Yv2Gbk5hYapyXR3S77n7yHM4o3Pwiw4PeZI74FAQzApXuurBo75sMlMNUTyvIPCa8vuwJuqLsvI9uO6uFW-TAjmONWkUGA_WS0]--></g></svg>