<svg xmlns="http://www.w3.org/2000/svg" xmlns:xlink="http://www.w3.org/1999/xlink" contentStyleType="text/css" data-diagram-type="DESCRIPTION" height="487px" preserveAspectRatio="none" style="width:889px;height:487px;background:#FFFFFF;" version="1.1" viewBox="0 0 889 487" width="889px" zoomAndPan="magnify"><?plantuml 1.2026.6?><defs/><g><!--entity EB--><g class="entity" data-qualified-name="EB" data-source-line="1" id="ent0001"><ellipse cx="679.1182" cy="175.1685" fill="#F1F1F1" rx="29.5982" ry="24.2785" style="stroke:#181818;stroke-width:0.5;"/><text fill="#000000" font-family="sans-serif" font-size="14" lengthAdjust="spacing" textLength="40.1064" x="659.065" y="173.9864">Event</text><text fill="#000000" font-family="sans-serif" font-size="14" lengthAdjust="spacing" textLength="25.7715" x="666.2324" y="190.2833">Bus</text></g><!--entity SPRING--><g class="entity" data-qualified-name="SPRING" data-source-line="2" id="ent0002"><ellipse cx="840.1162" cy="175.1736" fill="#F1F1F1" rx="34.9462" ry="14.5236" style="stroke:#181818;stroke-width:0.5;"/><text fill="#000000" font-family="sans-serif" font-size="14" lengthAdjust="spacing" textLength="45.1787" x="817.5268" y="179.8221">Spring</text></g><!--entity EL--><g class="entity" data-qualified-name="EL" data-source-line="4" id="ent0005"><ellipse cx="679.1158" cy="30.6735" fill="#F1F1F1" rx="40.4558" ry="24.6735" style="stroke:#181818;stroke-width:0.5;"/><text fill="#000000" font-family="sans-serif" font-size="14" lengthAdjust="spacing" textLength="40.1064" x="659.0626" y="25.1647">Event</text><text fill="#000000" font-family="sans-serif" font-size="14" lengthAdjust="spacing" textLength="56.3281" x="650.9518" y="41.4616">Listener</text></g><!--entity LCE--><g class="entity" data-qualified-name="LCE" data-source-line="7" id="ent0007"><ellipse cx="470.1221" cy="175.1726" fill="#F1F1F1" rx="63.3421" ry="23.9626" style="stroke:#181818;stroke-width:0.5;"/><text fill="#000000" font-family="sans-serif" font-size="14" font-style="italic" lengthAdjust="spacing" textLength="45.5957" x="447.3242" y="168.5606">Object</text><text fill="#000000" font-family="sans-serif" font-size="14" lengthAdjust="spacing" textLength="93.8232" x="423.2105" y="184.8574">LifecyleEvent</text></g><!--entity C--><g class="entity" data-qualified-name="C" data-source-line="9" id="ent0009"><ellipse cx="831.1185" cy="319.9637" fill="#F1F1F1" rx="40.0985" ry="24.7037" style="stroke:#181818;stroke-width:0.5;"/><text fill="#000000" font-family="sans-serif" font-size="14" lengthAdjust="spacing" textLength="55.7129" x="803.262" y="318.4266">Created</text><text fill="#000000" font-family="sans-serif" font-size="14" lengthAdjust="spacing" textLength="40.1064" x="811.0652" y="334.7235">Event</text></g><!--entity L--><g class="entity" data-qualified-name="L" data-source-line="11" id="ent0012"><ellipse cx="718.1244" cy="319.9638" fill="#F1F1F1" rx="37.5744" ry="24.9538" style="stroke:#181818;stroke-width:0.5;"/><text fill="#000000" font-family="sans-serif" font-size="14" lengthAdjust="spacing" textLength="51.3311" x="692.4589" y="318.0508">Loaded</text><text fill="#000000" font-family="sans-serif" font-size="14" lengthAdjust="spacing" textLength="40.1064" x="698.0712" y="334.3477">Event</text></g><!--entity PNG--><g class="entity" data-qualified-name="PNG" data-source-line="14" id="ent0015"><ellipse cx="598.1224" cy="319.9604" fill="#F1F1F1" rx="47.5924" ry="24.2404" style="stroke:#181818;stroke-width:0.5;"/><text fill="#000000" font-family="sans-serif" font-size="14" lengthAdjust="spacing" textLength="68.4277" x="563.9085" y="319.135">Persisting</text><text fill="#000000" font-family="sans-serif" font-size="14" lengthAdjust="spacing" textLength="40.1064" x="578.0691" y="335.4319">Event</text></g><!--entity PED--><g class="entity" data-qualified-name="PED" data-source-line="16" id="ent0018"><ellipse cx="470.1152" cy="319.9605" fill="#F1F1F1" rx="45.1252" ry="24.3605" style="stroke:#181818;stroke-width:0.5;"/><text fill="#000000" font-family="sans-serif" font-size="14" lengthAdjust="spacing" textLength="64.2783" x="437.976" y="318.9486">Persisted</text><text fill="#000000" font-family="sans-serif" font-size="14" lengthAdjust="spacing" textLength="40.1064" x="450.062" y="335.2455">Event</text></g><!--entity UNG--><g class="entity" data-qualified-name="UNG" data-source-line="19" id="ent0021"><ellipse cx="345.1154" cy="319.958" fill="#F1F1F1" rx="44.8054" ry="24.378" style="stroke:#181818;stroke-width:0.5;"/><text fill="#000000" font-family="sans-serif" font-size="14" lengthAdjust="spacing" textLength="63.7383" x="313.2463" y="318.919">Updating</text><text fill="#000000" font-family="sans-serif" font-size="14" lengthAdjust="spacing" textLength="40.1064" x="325.0622" y="335.2159">Event</text></g><!--entity UED--><g class="entity" data-qualified-name="UED" data-source-line="21" id="ent0024"><ellipse cx="223.1202" cy="319.9592" fill="#F1F1F1" rx="42.3602" ry="24.5292" style="stroke:#181818;stroke-width:0.5;"/><text fill="#000000" font-family="sans-serif" font-size="14" lengthAdjust="spacing" textLength="59.5889" x="193.3258" y="318.6878">Updated</text><text fill="#000000" font-family="sans-serif" font-size="14" lengthAdjust="spacing" textLength="40.1064" x="203.067" y="334.9846">Event</text></g><!--entity RNG--><g class="entity" data-qualified-name="RNG" data-source-line="24" id="ent0027"><ellipse cx="97.1177" cy="319.959" fill="#F1F1F1" rx="48.8177" ry="24.189" style="stroke:#181818;stroke-width:0.5;"/><text fill="#000000" font-family="sans-serif" font-size="14" lengthAdjust="spacing" textLength="70.4785" x="61.8784" y="319.2139">Removing</text><text fill="#000000" font-family="sans-serif" font-size="14" lengthAdjust="spacing" textLength="40.1064" x="77.0644" y="335.5108">Event</text></g><!--entity FS--><g class="entity" data-qualified-name="FS" data-source-line="27" id="ent0030"><ellipse cx="831.1201" cy="447.8927" fill="#F1F1F1" rx="39.9501" ry="25.9727" style="stroke:#181818;stroke-width:0.5;"/><text fill="#000000" font-family="sans-serif" font-size="14" lengthAdjust="spacing" textLength="52.4248" x="804.9077" y="444.4983">Factory</text><text fill="#000000" font-family="sans-serif" font-size="14" lengthAdjust="spacing" textLength="51.7412" x="805.2495" y="460.7952">Service</text></g><!--entity RS--><g class="entity" data-qualified-name="RS" data-source-line="29" id="ent0033"><ellipse cx="385.1228" cy="447.8879" fill="#F1F1F1" rx="52.7228" ry="24.5879" style="stroke:#181818;stroke-width:0.5;"/><text fill="#000000" font-family="sans-serif" font-size="14" lengthAdjust="spacing" textLength="75.0723" x="347.5867" y="446.5268">Repository</text><text fill="#000000" font-family="sans-serif" font-size="14" lengthAdjust="spacing" textLength="51.7412" x="359.2522" y="462.8236">Service</text></g><g class="entity" data-qualified-name="GMN46" data-source-line="38" id="ent0047"><path d="M6,132.34 L6,218.0041 A0,0 0 0 0 6,218.0041 L93.12,218.0041 L97.12,295.39 L101.12,218.0041 L188.2305,218.0041 A0,0 0 0 0 188.2305,218.0041 L188.2305,142.34 L178.2305,132.34 L6,132.34 A0,0 0 0 0 6,132.34" fill="#FEFFDD" style="stroke:#181818;stroke-width:0.5;"/><path d="M178.2305,132.34 L178.2305,142.34 L188.2305,142.34 L178.2305,132.34" fill="#FEFFDD" style="stroke:#181818;stroke-width:0.5;"/><text fill="#000000" font-family="sans-serif" font-size="13" lengthAdjust="spacing" textLength="93.5454" x="12" y="149.4069">JPA/Eclipselink</text><text fill="#000000" font-family="sans-serif" font-size="13" lengthAdjust="spacing" textLength="110.4429" x="12" y="164.5397">does not support</text><text fill="#000000" font-family="sans-serif" font-size="13" lengthAdjust="spacing" textLength="107.8086" x="12" y="179.6725">something like a</text><text fill="#000000" font-family="sans-serif" font-size="13" lengthAdjust="spacing" textLength="119.0566" x="12" y="194.8053">"Removed Event".</text><text fill="#000000" font-family="sans-serif" font-size="13" lengthAdjust="spacing" textLength="161.2305" x="12" y="209.9381">Hence not implemented.</text></g><!--reverse link EB to SPRING--><g class="link" data-entity-1="ent0001" data-entity-2="ent0002" data-link-type="dependency" data-source-line="3" id="lnk4"><path d="M714.02,175.17 C741.12,175.17 776.08,175.17 804.76,175.17" fill="none" id="EB-backto-SPRING" style="stroke:#181818;stroke-width:1;stroke-dasharray:7,7;"/><polygon fill="#181818" points="709.02,175.17,718.02,179.17,714.02,175.17,718.02,171.17,709.02,175.17" style="stroke:#181818;stroke-width:1;stroke-linejoin:miter;stroke-miterlimit:10;"/><text fill="#000000" font-family="sans-serif" font-size="13" lengthAdjust="spacing" textLength="60.2583" x="726.94" y="153.2369">provides/</text><text fill="#000000" font-family="sans-serif" font-size="13" lengthAdjust="spacing" textLength="59.8584" x="727.14" y="168.3697">manages</text></g><!--link EL to EB--><g class="link" data-entity-1="ent0005" data-entity-2="ent0001" data-link-type="dependency" data-source-line="5" id="lnk6"><path d="M679.12,55.52 C679.12,81.99 679.12,119.42 679.12,145.72" fill="none" id="EL-to-EB" style="stroke:#181818;stroke-width:1;"/><polygon fill="#181818" points="679.12,150.72,683.12,141.72,679.12,145.72,675.12,141.72,679.12,150.72" style="stroke:#181818;stroke-width:1;stroke-linejoin:miter;stroke-miterlimit:10;"/><text fill="#000000" font-family="sans-serif" font-size="13" lengthAdjust="spacing" textLength="42.104" x="680.12" y="98.4069">listens</text></g><!--link LCE to EB--><g class="link" data-entity-1="ent0007" data-entity-2="ent0001" data-link-type="dependency" data-source-line="8" id="lnk8"><path d="M533.67,175.17 C571.98,175.17 614.01,175.17 644.03,175.17" fill="none" id="LCE-to-EB" style="stroke:#181818;stroke-width:1;"/><polygon fill="#181818" points="649.03,175.17,640.03,171.17,644.03,175.17,640.03,179.17,649.03,175.17" style="stroke:#181818;stroke-width:1;stroke-linejoin:miter;stroke-miterlimit:10;"/><text fill="#000000" font-family="sans-serif" font-size="13" lengthAdjust="spacing" textLength="80.4121" x="551.49" y="168.2369">published to</text></g><!--reverse link LCE to C--><g class="link" data-entity-1="ent0007" data-entity-2="ent0009" data-link-type="dependency" data-source-line="10" id="lnk11"><path d="M518.4394,194.6378 C556.1794,209.0878 607.48,228.85 656.12,248.01 C708.25,268.55 721.22,273.87 773.12,295.01 C781.29,298.34 790.1,301.96 798.32,305.35" fill="none" id="LCE-backto-C" style="stroke:#181818;stroke-width:1;"/><polygon fill="#181818" points="513.77,192.85,520.7447,199.8037,518.4394,194.6378,523.6053,192.3326,513.77,192.85" style="stroke:#181818;stroke-width:1;stroke-linejoin:miter;stroke-miterlimit:10;"/><text fill="#000000" font-family="sans-serif" font-size="13" lengthAdjust="spacing" textLength="22.4834" x="699.78" y="261.0769">is a</text></g><!--reverse link LCE to L--><g class="link" data-entity-1="ent0007" data-entity-2="ent0012" data-link-type="dependency" data-source-line="12" id="lnk14"><path d="M508.4131,198.2249 C557.8931,226.7149 644.54,276.6 690.3,302.94" fill="none" id="LCE-backto-L" style="stroke:#181818;stroke-width:1;"/><polygon fill="#181818" points="504.08,195.73,509.8836,203.6873,508.4131,198.2249,513.8754,196.7544,504.08,195.73" style="stroke:#181818;stroke-width:1;stroke-linejoin:miter;stroke-miterlimit:10;"/><text fill="#000000" font-family="sans-serif" font-size="13" lengthAdjust="spacing" textLength="22.4834" x="624.62" y="261.0769">is a</text></g><!--reverse link LCE to PNG--><g class="link" data-entity-1="ent0007" data-entity-2="ent0015" data-link-type="dependency" data-source-line="15" id="lnk17"><path d="M493.1678,201.8928 C517.4378,228.9628 555.02,270.89 579,297.64" fill="none" id="LCE-backto-PNG" style="stroke:#181818;stroke-width:1;"/><polygon fill="#181818" points="489.83,198.17,492.8597,207.5413,493.1678,201.8928,498.8162,202.2009,489.83,198.17" style="stroke:#181818;stroke-width:1;stroke-linejoin:miter;stroke-miterlimit:10;"/><text fill="#000000" font-family="sans-serif" font-size="13" lengthAdjust="spacing" textLength="22.4834" x="550.34" y="261.0769">is a</text></g><!--reverse link LCE to PED--><g class="link" data-entity-1="ent0007" data-entity-2="ent0018" data-link-type="dependency" data-source-line="17" id="lnk20"><path d="M470.12,204.43 C470.12,230.83 470.12,268.65 470.12,295.24" fill="none" id="LCE-backto-PED" style="stroke:#181818;stroke-width:1;"/><polygon fill="#181818" points="470.12,199.43,466.12,208.43,470.12,204.43,474.12,208.43,470.12,199.43" style="stroke:#181818;stroke-width:1;stroke-linejoin:miter;stroke-miterlimit:10;"/><text fill="#000000" font-family="sans-serif" font-size="13" lengthAdjust="spacing" textLength="22.4834" x="471.12" y="261.0769">is a</text></g><!--reverse link LCE to UNG--><g class="link" data-entity-1="ent0007" data-entity-2="ent0021" data-link-type="dependency" data-source-line="20" id="lnk23"><path d="M447.5664,201.9319 C423.8664,229.0019 387.2,270.89 363.78,297.64" fill="none" id="LCE-backto-UNG" style="stroke:#181818;stroke-width:1;"/><polygon fill="#181818" points="450.86,198.17,441.922,202.3066,447.5664,201.9319,447.9411,207.5764,450.86,198.17" style="stroke:#181818;stroke-width:1;stroke-linejoin:miter;stroke-miterlimit:10;"/><text fill="#000000" font-family="sans-serif" font-size="13" lengthAdjust="spacing" textLength="22.4834" x="404.87" y="261.0769">is a</text></g><!--reverse link LCE to UED--><g class="link" data-entity-1="ent0007" data-entity-2="ent0024" data-link-type="dependency" data-source-line="22" id="lnk26"><path d="M431.9614,198.2326 C383.3414,226.3426 298.81,275.2 252.68,301.87" fill="none" id="LCE-backto-UED" style="stroke:#181818;stroke-width:1;"/><polygon fill="#181818" points="436.29,195.73,426.4964,196.7718,431.9614,198.2326,430.5006,203.6976,436.29,195.73" style="stroke:#181818;stroke-width:1;stroke-linejoin:miter;stroke-miterlimit:10;"/><text fill="#000000" font-family="sans-serif" font-size="13" lengthAdjust="spacing" textLength="22.4834" x="340.21" y="261.0769">is a</text></g><!--reverse link LCE to RNG--><g class="link" data-entity-1="ent0007" data-entity-2="ent0027" data-link-type="dependency" data-source-line="25" id="lnk29"><path d="M421.9305,194.6176 C348.3205,222.7976 205.14,277.61 135.31,304.34" fill="none" id="LCE-backto-RNG" style="stroke:#181818;stroke-width:1;"/><polygon fill="#181818" points="426.6,192.83,416.7648,192.3121,421.9305,194.6176,419.625,199.7833,426.6,192.83" style="stroke:#181818;stroke-width:1;stroke-linejoin:miter;stroke-miterlimit:10;"/><text fill="#000000" font-family="sans-serif" font-size="13" lengthAdjust="spacing" textLength="22.4834" x="273.43" y="261.0769">is a</text></g><!--reverse link C to FS--><g class="link" data-entity-1="ent0009" data-entity-2="ent0030" data-link-type="dependency" data-source-line="28" id="lnk32"><path d="M831.12,349.94 C831.12,371.92 831.12,399.35 831.12,421.7" fill="none" id="C-backto-FS" style="stroke:#181818;stroke-width:1;"/><polygon fill="#181818" points="831.12,344.94,827.12,353.94,831.12,349.94,835.12,353.94,831.12,344.94" style="stroke:#181818;stroke-width:1;stroke-linejoin:miter;stroke-miterlimit:10;"/><text fill="#000000" font-family="sans-serif" font-size="13" lengthAdjust="spacing" textLength="36.1436" x="832.12" y="387.9769">emits</text></g><!--reverse link L to RS--><g class="link" data-entity-1="ent0012" data-entity-2="ent0033" data-link-type="dependency" data-source-line="30" id="lnk35"><path d="M682.4353,336.5851 C674.6453,339.9751 670.87,341.6 663.12,344.91 C613.48,366.14 601.67,372.97 551.12,391.91 C509.89,407.36 462.11,422.95 428.43,433.56" fill="none" id="L-backto-RS" style="stroke:#181818;stroke-width:1;"/><polygon fill="#181818" points="687.02,334.59,677.1714,334.5135,682.4353,336.5851,680.3637,341.849,687.02,334.59" style="stroke:#181818;stroke-width:1;stroke-linejoin:miter;stroke-miterlimit:10;"/><text fill="#000000" font-family="sans-serif" font-size="13" lengthAdjust="spacing" textLength="36.1436" x="595.22" y="387.9769">emits</text></g><!--reverse link PNG to RS--><g class="link" data-entity-1="ent0015" data-entity-2="ent0033" data-link-type="dependency" data-source-line="31" id="lnk37"><path d="M563.54,341.6783 C539.52,356.0583 509.35,374.06 479.12,391.91 C458.6,404.03 435.51,417.53 417.35,428.13" fill="none" id="PNG-backto-RS" style="stroke:#181818;stroke-width:1;"/><polygon fill="#181818" points="567.83,339.11,558.0534,340.3009,563.54,341.6783,562.1626,347.1649,567.83,339.11" style="stroke:#181818;stroke-width:1;stroke-linejoin:miter;stroke-miterlimit:10;"/><text fill="#000000" font-family="sans-serif" font-size="13" lengthAdjust="spacing" textLength="36.1436" x="506.24" y="387.9769">emits</text></g><!--reverse link PED to RS--><g class="link" data-entity-1="ent0018" data-entity-2="ent0033" data-link-type="dependency" data-source-line="32" id="lnk39"><path d="M452.3138,347.325 C436.9738,370.065 416.04,401.08 400.54,424.04" fill="none" id="PED-backto-RS" style="stroke:#181818;stroke-width:1;"/><polygon fill="#181818" points="455.11,343.18,446.7608,348.4041,452.3138,347.325,453.3929,352.878,455.11,343.18" style="stroke:#181818;stroke-width:1;stroke-linejoin:miter;stroke-miterlimit:10;"/><text fill="#000000" font-family="sans-serif" font-size="13" lengthAdjust="spacing" textLength="36.1436" x="433.7" y="387.9769">emits</text></g><!--reverse link UNG to RS--><g class="link" data-entity-1="ent0021" data-entity-2="ent0033" data-link-type="dependency" data-source-line="33" id="lnk41"><path d="M353.1455,349.1742 C357.1455,363.0442 361.06,376.13 366.12,391.91 C369.41,402.2 373.27,413.49 376.65,423.15" fill="none" id="UNG-backto-RS" style="stroke:#181818;stroke-width:1;"/><polygon fill="#181818" points="351.76,344.37,350.4105,354.126,353.1455,349.1742,358.0973,351.9092,351.76,344.37" style="stroke:#181818;stroke-width:1;stroke-linejoin:miter;stroke-miterlimit:10;"/><text fill="#000000" font-family="sans-serif" font-size="13" lengthAdjust="spacing" textLength="36.1436" x="367.12" y="387.9769">emits</text></g><!--reverse link UED to RS--><g class="link" data-entity-1="ent0024" data-entity-2="ent0033" data-link-type="dependency" data-source-line="34" id="lnk43"><path d="M251.6681,343.158 C281.5881,366.408 327.93,402.44 358.66,426.32" fill="none" id="UED-backto-RS" style="stroke:#181818;stroke-width:1;"/><polygon fill="#181818" points="247.72,340.09,252.3722,348.7708,251.6681,343.158,257.281,342.4539,247.72,340.09" style="stroke:#181818;stroke-width:1;stroke-linejoin:miter;stroke-miterlimit:10;"/><text fill="#000000" font-family="sans-serif" font-size="13" lengthAdjust="spacing" textLength="36.1436" x="314.81" y="387.9769">emits</text></g><!--reverse link RNG to RS--><g class="link" data-entity-1="ent0027" data-entity-2="ent0033" data-link-type="dependency" data-source-line="35" id="lnk45"><path d="M135.8396,339.9103 C166.2796,354.6603 207.61,374.29 248.12,391.91 C280.43,405.97 317.55,420.79 345,431.49" fill="none" id="RNG-backto-RS" style="stroke:#181818;stroke-width:1;"/><polygon fill="#181818" points="131.34,337.73,137.695,345.2542,135.8396,339.9103,141.1835,338.0549,131.34,337.73" style="stroke:#181818;stroke-width:1;stroke-linejoin:miter;stroke-miterlimit:10;"/><text fill="#000000" font-family="sans-serif" font-size="13" lengthAdjust="spacing" textLength="36.1436" x="249.12" y="387.9769">emits</text></g><?plantuml-src RP9DZu8m48RlyoiQJzs3UZV6P6LnFzBi4WWtBWYZTeMseSN4Vxz3nRW8XuOmVTuddMbvU47bChLjxGlBBGktm1FJI7NqlqaKVtw_m-t35jLYGmHRCTFeYopHBZDLvoe_eWNUcuIq3XKsDvs0KB3vl8zLViy2yBNS_En_iN3hfTnqeGCMrmgzmoT5408jTe-QTa_f4vRCQU11Wxd3CbEFG001cxU4TwaLavRbm8NEoo4cG8mmu14sbiv6RVzd8sgTrbZRuqDp5Bu1hGbxQihysPsIEvroUtXeJicSJffZhEaYXkQOpF646VWkBvnkhfbAiBd80Zs-Is2NtE20hR2MpdPUewqSmt42SG-BEtmlT9DwBj6Xdqhfc4h7LFoWG6c7TEc6wOFlxIjwNOP59Ot5Igepb1ej8uZPrXZTEB2wHdUYgT1xEoDrFlDZegVZXpHRm0Ug0dr6rgR2cgfOBW1LsHNn3m00?></g></svg>