<?xml version="1.0" encoding="UTF-8" standalone="no"?><svg xmlns="http://www.w3.org/2000/svg" xmlns:xlink="http://www.w3.org/1999/xlink" contentStyleType="text/css" height="492px" preserveAspectRatio="none" style="width:952px;height:492px;background:#FFFFFF;" version="1.1" viewBox="0 0 952 492" width="952px" zoomAndPan="magnify"><defs/><g><g id="elem_EB"><ellipse cx="709.734" cy="180.7587" fill="#F1F1F1" rx="36.234" ry="26.7587" style="stroke:#181818;stroke-width:0.5;"/><text fill="#000000" font-family="sans-serif" font-size="14" lengthAdjust="spacing" textLength="35" x="692.234" y="175.9587">Event</text><text fill="#000000" font-family="sans-serif" font-size="14" lengthAdjust="spacing" textLength="24" x="697.734" y="192.7586">Bus</text></g><g id="elem_SPRING"><ellipse cx="874.4767" cy="180.8793" fill="#F1F1F1" rx="40.4767" ry="14.8793" style="stroke:#181818;stroke-width:0.5;"/><text fill="#000000" font-family="sans-serif" font-size="14" lengthAdjust="spacing" textLength="41" x="853.9767" y="184.4793">Spring</text></g><g id="elem_EL"><ellipse cx="709.6335" cy="32.7587" fill="#F1F1F1" rx="46.1335" ry="26.7587" style="stroke:#181818;stroke-width:0.5;"/><text fill="#000000" font-family="sans-serif" font-size="14" lengthAdjust="spacing" textLength="35" x="692.1335" y="27.9587">Event</text><text fill="#000000" font-family="sans-serif" font-size="14" lengthAdjust="spacing" textLength="49" x="685.1335" y="44.7586">Listener</text></g><g id="elem_LCE"><ellipse cx="499.2609" cy="180.7587" fill="#F1F1F1" rx="68.7609" ry="26.7587" style="stroke:#181818;stroke-width:0.5;"/><text fill="#000000" font-family="sans-serif" font-size="14" font-style="italic" lengthAdjust="spacing" textLength="41" x="478.7609" y="175.9587">Object</text><text fill="#000000" font-family="sans-serif" font-size="14" lengthAdjust="spacing" textLength="81" x="458.7609" y="192.7586">LifecyleEvent</text></g><g id="elem_C"><ellipse cx="900.6335" cy="328.7587" fill="#F1F1F1" rx="46.1335" ry="26.7587" style="stroke:#181818;stroke-width:0.5;"/><text fill="#000000" font-family="sans-serif" font-size="14" lengthAdjust="spacing" textLength="49" x="876.1335" y="323.9587">Created</text><text fill="#000000" font-family="sans-serif" font-size="14" lengthAdjust="spacing" textLength="35" x="883.1335" y="340.7586">Event</text></g><g id="elem_L"><ellipse cx="775.5122" cy="328.7587" fill="#F1F1F1" rx="44.0122" ry="26.7587" style="stroke:#181818;stroke-width:0.5;"/><text fill="#000000" font-family="sans-serif" font-size="14" lengthAdjust="spacing" textLength="46" x="752.5122" y="323.9587">Loaded</text><text fill="#000000" font-family="sans-serif" font-size="14" lengthAdjust="spacing" textLength="35" x="758.0122" y="340.7586">Event</text></g><g id="elem_PNG"><ellipse cx="641.6188" cy="328.7587" fill="#F1F1F1" rx="54.6188" ry="26.7587" style="stroke:#181818;stroke-width:0.5;"/><text fill="#000000" font-family="sans-serif" font-size="14" lengthAdjust="spacing" textLength="61" x="611.1188" y="323.9587">Persisting</text><text fill="#000000" font-family="sans-serif" font-size="14" lengthAdjust="spacing" textLength="35" x="624.1188" y="340.7586">Event</text></g><g id="elem_PED"><ellipse cx="499.2904" cy="328.7587" fill="#F1F1F1" rx="51.7904" ry="26.7587" style="stroke:#181818;stroke-width:0.5;"/><text fill="#000000" font-family="sans-serif" font-size="14" lengthAdjust="spacing" textLength="57" x="470.7904" y="323.9587">Persisted</text><text fill="#000000" font-family="sans-serif" font-size="14" lengthAdjust="spacing" textLength="35" x="481.7904" y="340.7586">Event</text></g><g id="elem_UNG"><ellipse cx="360.2904" cy="328.7587" fill="#F1F1F1" rx="51.7904" ry="26.7587" style="stroke:#181818;stroke-width:0.5;"/><text fill="#000000" font-family="sans-serif" font-size="14" lengthAdjust="spacing" textLength="57" x="331.7904" y="323.9587">Updating</text><text fill="#000000" font-family="sans-serif" font-size="14" lengthAdjust="spacing" textLength="35" x="342.7904" y="340.7586">Event</text></g><g id="elem_UED"><ellipse cx="224.4619" cy="328.7587" fill="#F1F1F1" rx="48.9619" ry="26.7587" style="stroke:#181818;stroke-width:0.5;"/><text fill="#000000" font-family="sans-serif" font-size="14" lengthAdjust="spacing" textLength="53" x="197.9619" y="323.9587">Updated</text><text fill="#000000" font-family="sans-serif" font-size="14" lengthAdjust="spacing" textLength="35" x="206.9619" y="340.7586">Event</text></g><g id="elem_RNG"><ellipse cx="85.6188" cy="328.7587" fill="#F1F1F1" rx="54.6188" ry="26.7587" style="stroke:#181818;stroke-width:0.5;"/><text fill="#000000" font-family="sans-serif" font-size="14" lengthAdjust="spacing" textLength="61" x="55.1188" y="323.9587">Removing</text><text fill="#000000" font-family="sans-serif" font-size="14" lengthAdjust="spacing" textLength="35" x="68.1188" y="340.7586">Event</text></g><g id="elem_FS"><ellipse cx="900.5122" cy="459.7587" fill="#F1F1F1" rx="44.0122" ry="26.7587" style="stroke:#181818;stroke-width:0.5;"/><text fill="#000000" font-family="sans-serif" font-size="14" lengthAdjust="spacing" textLength="46" x="877.5122" y="454.9587">Factory</text><text fill="#000000" font-family="sans-serif" font-size="14" lengthAdjust="spacing" textLength="45" x="878.0122" y="471.7586">Service</text></g><g id="elem_RS"><ellipse cx="397.4472" cy="459.7587" fill="#F1F1F1" rx="57.4472" ry="26.7587" style="stroke:#181818;stroke-width:0.5;"/><text fill="#000000" font-family="sans-serif" font-size="14" lengthAdjust="spacing" textLength="65" x="364.9472" y="454.9587">Repository</text><text fill="#000000" font-family="sans-serif" font-size="14" lengthAdjust="spacing" textLength="45" x="374.9472" y="471.7586">Service</text></g><g id="elem_GMN26812595"><path d="M6,137 L6,225.0001 A0,0 0 0 0 6,225.0001 L81.5,225.0001 L85.5,301.77 L89.5,225.0001 L165,225.0001 A0,0 0 0 0 165,225.0001 L165,147 L155,137 L6,137 A0,0 0 0 0 6,137 " fill="#FEFFDD" style="stroke:#181818;stroke-width:0.5;"/><path d="M155,137 L155,147 L165,147 L155,137 " fill="#FEFFDD" style="stroke:#181818;stroke-width:0.5;"/><text fill="#000000" font-family="sans-serif" font-size="13" lengthAdjust="spacing" textLength="101" x="12" y="155">JDO/Datanucleus</text><text fill="#000000" font-family="sans-serif" font-size="13" lengthAdjust="spacing" textLength="93" x="12" y="170.6">does not support</text><text fill="#000000" font-family="sans-serif" font-size="13" lengthAdjust="spacing" textLength="92" x="12" y="186.2">something like a</text><text fill="#000000" font-family="sans-serif" font-size="13" lengthAdjust="spacing" textLength="100" x="12" y="201.8001">"Removed Event".</text><text fill="#000000" font-family="sans-serif" font-size="13" lengthAdjust="spacing" textLength="138" x="12" y="217.4001">Hence not implemented.</text></g><!--MD5=[d1eae5240a55dd7693df787515d81648]
reverse link EB to SPRING--><g id="link_EB_SPRING"><path d="M751,181 C776.32,181 808.55,181 833.73,181 " fill="none" id="EB-backto-SPRING" style="stroke:#181818;stroke-width:1.0;stroke-dasharray:7.0,7.0;"/><polygon fill="#181818" points="745.71,181,754.71,185,750.71,181,754.71,177,745.71,181" style="stroke:#181818;stroke-width:1.0;"/><text fill="#000000" font-family="sans-serif" font-size="13" lengthAdjust="spacing" textLength="51" x="764.25" y="159">provides/</text><text fill="#000000" font-family="sans-serif" font-size="13" lengthAdjust="spacing" textLength="52" x="763.75" y="174.6">manages</text></g><!--MD5=[ac395a5f0af45a9274ed645000c8d5e4]
link EL to EB--><g id="link_EL_EB"><path d="M709.5,60.1 C709.5,84.86 709.5,122.1 709.5,148.5 " fill="none" id="EL-to-EB" style="stroke:#181818;stroke-width:1.0;"/><polygon fill="#181818" points="709.5,153.63,713.5,144.63,709.5,148.63,705.5,144.63,709.5,153.63" style="stroke:#181818;stroke-width:1.0;"/><text fill="#000000" font-family="sans-serif" font-size="13" lengthAdjust="spacing" textLength="36" x="710.5" y="104">listens</text></g><!--MD5=[2f6280d0eca489a682568452e961fe9c]
link LCE to EB--><g id="link_LCE_EB"><path d="M568.55,181 C601.53,181 639.88,181 668.25,181 " fill="none" id="LCE-to-EB" style="stroke:#181818;stroke-width:1.0;"/><polygon fill="#181818" points="673.42,181,664.42,177,668.42,181,664.42,185,673.42,181" style="stroke:#181818;stroke-width:1.0;"/><text fill="#000000" font-family="sans-serif" font-size="13" lengthAdjust="spacing" textLength="68" x="587" y="175">published to</text></g><!--MD5=[75ccd0a7c0177918b2f4e1fe034bbd39]
reverse link LCE to C--><g id="link_LCE_C"><path d="M555.23,200.82 C622.49,223.76 738.85,264.16 837.5,302 C846.12,305.31 855.33,309.01 863.98,312.56 " fill="none" id="LCE-backto-C" style="stroke:#181818;stroke-width:1.0;"/><polygon fill="#181818" points="550.47,199.2,557.695,205.8932,555.2019,200.8154,560.2797,198.3222,550.47,199.2" style="stroke:#181818;stroke-width:1.0;"/><text fill="#000000" font-family="sans-serif" font-size="13" lengthAdjust="spacing" textLength="19" x="755.5" y="269">is a</text></g><!--MD5=[bbb235f4ef92c0bd6a170ad65aa49446]
reverse link LCE to L--><g id="link_LCE_L"><path d="M543.93,205.5 C599.43,234.86 693.1,284.41 742.59,310.59 " fill="none" id="LCE-backto-L" style="stroke:#181818;stroke-width:1.0;"/><polygon fill="#181818" points="539.34,203.07,545.4248,210.8143,543.7596,205.4081,549.1658,203.7429,539.34,203.07" style="stroke:#181818;stroke-width:1.0;"/><text fill="#000000" font-family="sans-serif" font-size="13" lengthAdjust="spacing" textLength="19" x="662.5" y="269">is a</text></g><!--MD5=[c486c5af1b93da1afdaf51b149c02319]
reverse link LCE to PNG--><g id="link_LCE_PNG"><path d="M526.77,210.04 C553.43,237.45 593.55,278.7 618.6,304.45 " fill="none" id="LCE-backto-PNG" style="stroke:#181818;stroke-width:1.0;"/><polygon fill="#181818" points="523.27,206.44,526.6752,215.6815,526.7552,210.0252,532.4115,210.1052,523.27,206.44" style="stroke:#181818;stroke-width:1.0;"/><text fill="#000000" font-family="sans-serif" font-size="13" lengthAdjust="spacing" textLength="19" x="583.5" y="269">is a</text></g><!--MD5=[860bf4085319c7143ca9ad46b74d2438]
reverse link LCE to PED--><g id="link_LCE_PED"><path d="M499.5,213.21 C499.5,239.53 499.5,276.78 499.5,301.63 " fill="none" id="LCE-backto-PED" style="stroke:#181818;stroke-width:1.0;"/><polygon fill="#181818" points="499.5,208.1,495.5,217.1,499.5,213.1,503.5,217.1,499.5,208.1" style="stroke:#181818;stroke-width:1.0;"/><text fill="#000000" font-family="sans-serif" font-size="13" lengthAdjust="spacing" textLength="19" x="500.5" y="269">is a</text></g><!--MD5=[943416907fe380fee497bcc034fd57b7]
reverse link LCE to UNG--><g id="link_LCE_UNG"><path d="M472.48,210.38 C446.39,237.78 407.34,278.8 382.92,304.45 " fill="none" id="LCE-backto-UNG" style="stroke:#181818;stroke-width:1.0;"/><polygon fill="#181818" points="476.23,206.44,467.1184,210.1789,472.7739,210.0532,472.8996,215.7087,476.23,206.44" style="stroke:#181818;stroke-width:1.0;"/><text fill="#000000" font-family="sans-serif" font-size="13" lengthAdjust="spacing" textLength="19" x="431.5" y="269">is a</text></g><!--MD5=[c61e2a0637541a1589aa14b17c754823]
reverse link LCE to UED--><g id="link_LCE_UED"><path d="M454.99,205.63 C400.25,234.69 308.51,283.4 258.89,309.74 " fill="none" id="LCE-backto-UED" style="stroke:#181818;stroke-width:1.0;"/><polygon fill="#181818" points="459.51,203.23,449.6851,203.9161,455.0935,205.574,453.4355,210.9825,459.51,203.23" style="stroke:#181818;stroke-width:1.0;"/><text fill="#000000" font-family="sans-serif" font-size="13" lengthAdjust="spacing" textLength="19" x="363.5" y="269">is a</text></g><!--MD5=[30d918aa703d4b8f2ff689ec47e1756d]
reverse link LCE to RNG--><g id="link_LCE_RNG"><path d="M444.25,201.21 C376.59,224.78 258.52,266.04 157.5,302 C148.11,305.34 138.04,308.96 128.5,312.4 " fill="none" id="LCE-backto-RNG" style="stroke:#181818;stroke-width:1.0;"/><polygon fill="#181818" points="449.04,199.55,439.225,198.7345,444.3185,201.1954,441.8576,206.2889,449.04,199.55" style="stroke:#181818;stroke-width:1.0;"/><text fill="#000000" font-family="sans-serif" font-size="13" lengthAdjust="spacing" textLength="19" x="290.5" y="269">is a</text></g><!--MD5=[1cbe179d3daec32f5faa981a16301542]
reverse link C to FS--><g id="link_C_FS"><path d="M900.5,361.24 C900.5,383.19 900.5,412.22 900.5,432.93 " fill="none" id="C-backto-FS" style="stroke:#181818;stroke-width:1.0;"/><polygon fill="#181818" points="900.5,356.11,896.5,365.11,900.5,361.11,904.5,365.11,900.5,356.11" style="stroke:#181818;stroke-width:1.0;"/><text fill="#000000" font-family="sans-serif" font-size="13" lengthAdjust="spacing" textLength="31" x="901.5" y="400">emits</text></g><!--MD5=[3a8bc639e179d896293946457acfd753]
reverse link L to RS--><g id="link_L_RS"><path d="M735.31,347.34 C728.09,350.32 720.6,353.32 713.5,356 C619.73,391.47 507.68,426.24 445.36,444.92 " fill="none" id="L-backto-RS" style="stroke:#181818;stroke-width:1.0;"/><polygon fill="#181818" points="740.26,345.29,730.4142,345.0441,735.6417,347.206,733.4798,352.4334,740.26,345.29" style="stroke:#181818;stroke-width:1.0;"/><text fill="#000000" font-family="sans-serif" font-size="13" lengthAdjust="spacing" textLength="31" x="628.5" y="400">emits</text></g><!--MD5=[4bd74ea313b3c1610abe58247970ba03]
reverse link PNG to RS--><g id="link_PNG_RS"><path d="M600.57,351.64 C554.26,376.12 479.5,415.65 434.77,439.3 " fill="none" id="PNG-backto-RS" style="stroke:#181818;stroke-width:1.0;"/><polygon fill="#181818" points="605.23,349.17,595.4025,349.8181,600.8045,351.497,599.1256,356.899,605.23,349.17" style="stroke:#181818;stroke-width:1.0;"/><text fill="#000000" font-family="sans-serif" font-size="13" lengthAdjust="spacing" textLength="31" x="534.5" y="400">emits</text></g><!--MD5=[b9bfa1d258362552b7ecee7be0bb4f9a]
reverse link PED to RS--><g id="link_PED_RS"><path d="M477.04,358.4 C459.06,381.15 434.09,412.73 416.95,434.41 " fill="none" id="PED-backto-RS" style="stroke:#181818;stroke-width:1.0;"/><polygon fill="#181818" points="480.31,354.26,471.5948,358.8474,477.2127,358.1851,477.875,363.8031,480.31,354.26" style="stroke:#181818;stroke-width:1.0;"/><text fill="#000000" font-family="sans-serif" font-size="13" lengthAdjust="spacing" textLength="31" x="456.5" y="400">emits</text></g><!--MD5=[043bd61570ca63bf2260ec1fb0bddafc]
reverse link UNG to RS--><g id="link_UNG_RS"><path d="M369.29,360.65 C375.59,382.63 384,411.92 389.99,432.81 " fill="none" id="UNG-backto-RS" style="stroke:#181818;stroke-width:1.0;"/><polygon fill="#181818" points="367.9,355.8,366.5187,365.5515,369.2698,360.6087,374.2127,363.3598,367.9,355.8" style="stroke:#181818;stroke-width:1.0;"/><text fill="#000000" font-family="sans-serif" font-size="13" lengthAdjust="spacing" textLength="31" x="382.5" y="400">emits</text></g><!--MD5=[44f5cd522503cd2c479f17cc879102b6]
reverse link UED to RS--><g id="link_UED_RS"><path d="M257.25,354.42 C289.07,378.15 336.96,413.86 367.73,436.8 " fill="none" id="UED-backto-RS" style="stroke:#181818;stroke-width:1.0;"/><polygon fill="#181818" points="253.07,351.3,257.8897,359.889,257.0769,354.2908,262.675,353.478,253.07,351.3" style="stroke:#181818;stroke-width:1.0;"/><text fill="#000000" font-family="sans-serif" font-size="13" lengthAdjust="spacing" textLength="31" x="322.5" y="400">emits</text></g><!--MD5=[85ca2b8f2d46686e0c0375c2524e1508]
reverse link RNG to RS--><g id="link_RNG_RS"><path d="M130.79,349 C166.1,363.78 216.38,384.78 260.5,403 C292.09,416.04 327.83,430.65 354.89,441.67 " fill="none" id="RNG-backto-RS" style="stroke:#181818;stroke-width:1.0;"/><polygon fill="#181818" points="126.13,347.05,132.8914,354.2113,130.7433,348.9781,135.9764,346.83,126.13,347.05" style="stroke:#181818;stroke-width:1.0;"/><text fill="#000000" font-family="sans-serif" font-size="13" lengthAdjust="spacing" textLength="31" x="261.5" y="400">emits</text></g><!--MD5=[30417df4cca7980ab55fba5c0663bdce]
@startuml
(Event\nBus) as EB
(Spring) as SPRING
SPRING .l.> EB : provides/\nmanages
(Event\nListener) as EL
EL - -> EB : listens

(<i>Object</i>\nLifecyleEvent) as LCE
LCE -> EB : published to
(Created\nEvent) as C
C -u-> LCE : is a
(Loaded\nEvent) as L
L -u-> LCE : is a

(Persisting\nEvent) as PNG
PNG -u-> LCE : is a
(Persisted\nEvent) as PED
PED -u-> LCE : is a

(Updating\nEvent) as UNG
UNG -u-> LCE : is a
(Updated\nEvent) as UED
UED -u-> LCE : is a

(Removing\nEvent) as RNG
RNG -u-> LCE : is a

(Factory\nService) as FS
FS -u-> C :emits
(Repository\nService) as RS
RS -u-> L :emits
RS -u-> PNG :emits
RS -u-> PED :emits
RS -u-> UNG :emits
RS -u-> UED :emits
RS -u-> RNG :emits

note top of RNG
JDO/Datanucleus
does not support
something like a
"Removed Event".
Hence not implemented.
end note
@enduml

PlantUML version 1.2022.5(Sat Apr 30 10:55:52 GMT 2022)
(GPL source distribution)
Java Runtime: OpenJDK Runtime Environment
JVM: OpenJDK 64-Bit Server VM
Default Encoding: UTF-8
Language: en
Country: US
--></g></svg>