<?xml version="1.0" encoding="us-ascii" standalone="no"?><svg xmlns="http://www.w3.org/2000/svg" xmlns:xlink="http://www.w3.org/1999/xlink" contentStyleType="text/css" height="704px" preserveAspectRatio="none" style="width:832px;height:704px;background:#FFFFFF;" version="1.1" viewBox="0 0 832 704" width="832px" zoomAndPan="magnify"><defs/><g><!--cluster metamodel--><g id="cluster_metamodel"><path d="M8.5,6 L96.5,6 A3.75,3.75 0 0 1 99,8.5 L106,28.2969 L620.5,28.2969 A2.5,2.5 0 0 1 623,30.7969 L623,694.91 A2.5,2.5 0 0 1 620.5,697.41 L8.5,697.41 A2.5,2.5 0 0 1 6,694.91 L6,8.5 A2.5,2.5 0 0 1 8.5,6 " fill="none" style="stroke:#000000;stroke-width:1.5;"/><line style="stroke:#000000;stroke-width:1.5;" x1="6" x2="106" y1="28.2969" y2="28.2969"/><text fill="#000000" font-family="sans-serif" font-size="14" font-weight="bold" lengthAdjust="spacing" textLength="87" x="10" y="20.9951">metamodel</text></g><!--cluster runtime--><g id="cluster_runtime"><path d="M649.5,18.15 L711.5,18.15 A3.75,3.75 0 0 1 714,20.65 L721,40.4469 L822.5,40.4469 A2.5,2.5 0 0 1 825,42.9469 L825,272.07 A2.5,2.5 0 0 1 822.5,274.57 L649.5,274.57 A2.5,2.5 0 0 1 647,272.07 L647,20.65 A2.5,2.5 0 0 1 649.5,18.15 " fill="none" style="stroke:#000000;stroke-width:1.5;"/><line style="stroke:#000000;stroke-width:1.5;" x1="647" x2="721" y1="40.4469" y2="40.4469"/><text fill="#000000" font-family="sans-serif" font-size="14" font-weight="bold" lengthAdjust="spacing" textLength="61" x="651" y="33.1451">runtime</text></g><!--class LogicalType--><g id="elem_LogicalType"><rect codeLine="21" fill="#FFFFFF" height="64.5625" id="LogicalType" rx="2.5" ry="2.5" style="stroke:#181818;stroke-width:0.5;" width="113" x="315.5" y="41"/><ellipse cx="330.5" cy="61.1328" fill="#ADD1B2" rx="11" ry="11" style="stroke:#181818;stroke-width:1.0;"/><path d="M333.4688,66.7734 Q332.8906,67.0703 332.25,67.2109 Q331.6094,67.3672 330.9063,67.3672 Q328.4063,67.3672 327.0781,65.7266 Q325.7656,64.0703 325.7656,60.9453 Q325.7656,57.8203 327.0781,56.1641 Q328.4063,54.5078 330.9063,54.5078 Q331.6094,54.5078 332.25,54.6641 Q332.9063,54.8203 333.4688,55.1172 L333.4688,57.8359 Q332.8438,57.2578 332.25,56.9922 Q331.6563,56.7109 331.0313,56.7109 Q329.6875,56.7109 329,57.7891 Q328.3125,58.8516 328.3125,60.9453 Q328.3125,63.0391 329,64.1172 Q329.6875,65.1797 331.0313,65.1797 Q331.6563,65.1797 332.25,64.9141 Q332.8438,64.6328 333.4688,64.0547 L333.4688,66.7734 Z " fill="#000000"/><text fill="#000000" font-family="sans-serif" font-size="12" font-style="italic" lengthAdjust="spacing" textLength="47" x="361.5" y="57.1387">&#171;value&#187;</text><text fill="#000000" font-family="sans-serif" font-size="14" lengthAdjust="spacing" textLength="81" x="344.5" y="72.9639">LogicalType</text><line style="stroke:#181818;stroke-width:0.5;" x1="316.5" x2="427.5" y1="81.2656" y2="81.2656"/><ellipse cx="326.5" cy="94.9141" fill="none" rx="3" ry="3" style="stroke:#038048;stroke-width:1.0;"/><text fill="#000000" font-family="sans-serif" font-size="14" lengthAdjust="spacing" textLength="30" x="335.5" y="98.2607">type</text></g><!--class Object\nSpecification--><g id="elem_Object\nSpecification"><rect codeLine="25" fill="#00FFFF" height="105.1563" id="Object\nSpecification" rx="2.5" ry="2.5" style="stroke:#181818;stroke-width:0.5;" width="188" x="100" y="165.57"/><ellipse cx="146.25" cy="193.8512" fill="#ADD1B2" rx="11" ry="11" style="stroke:#181818;stroke-width:1.0;"/><path d="M149.2188,199.4919 Q148.6406,199.7887 148,199.9294 Q147.3594,200.0856 146.6563,200.0856 Q144.1563,200.0856 142.8281,198.445 Q141.5156,196.7887 141.5156,193.6637 Q141.5156,190.5387 142.8281,188.8825 Q144.1563,187.2262 146.6563,187.2262 Q147.3594,187.2262 148,187.3825 Q148.6563,187.5387 149.2188,187.8356 L149.2188,190.5544 Q148.5938,189.9762 148,189.7106 Q147.4063,189.4294 146.7813,189.4294 Q145.4375,189.4294 144.75,190.5075 Q144.0625,191.57 144.0625,193.6637 Q144.0625,195.7575 144.75,196.8356 Q145.4375,197.8981 146.7813,197.8981 Q147.4063,197.8981 148,197.6325 Q148.5938,197.3512 149.2188,196.7731 L149.2188,199.4919 Z " fill="#000000"/><text fill="#000000" font-family="sans-serif" font-size="12" font-style="italic" lengthAdjust="spacing" textLength="44" x="188.25" y="181.7087">&#171;desc&#187;</text><text fill="#000000" font-family="sans-serif" font-size="14" lengthAdjust="spacing" textLength="45" x="187.75" y="197.5339">Object</text><text fill="#000000" font-family="sans-serif" font-size="14" lengthAdjust="spacing" textLength="87" x="166.75" y="213.8307">Specification</text><line style="stroke:#181818;stroke-width:0.5;" x1="101" x2="287" y1="222.1325" y2="222.1325"/><ellipse cx="111" cy="235.7809" fill="none" rx="3" ry="3" style="stroke:#038048;stroke-width:1.0;"/><text fill="#000000" font-family="sans-serif" font-size="14" lengthAdjust="spacing" textLength="90" x="120" y="239.1276">objectSpecId</text><line style="stroke:#181818;stroke-width:1.0;stroke-dasharray:1.0,2.0;" x1="101" x2="287" y1="246.4294" y2="246.4294"/><rect fill="none" height="6" style="stroke:#C82930;stroke-width:1.0;" width="6" x="108" y="257.0778"/><text fill="#000000" font-family="sans-serif" font-size="14" lengthAdjust="spacing" textLength="162" x="120" y="263.4245">fullyQualifiedClassName</text></g><!--class Object\nMember--><g id="elem_Object\nMember"><rect codeLine="31" fill="#00FFFF" height="56.5625" id="Object\nMember" rx="2.5" ry="2.5" style="stroke:#181818;stroke-width:0.5;" width="89" x="154.5" y="391.72"/><ellipse cx="169.5" cy="420.0012" fill="#ADD1B2" rx="11" ry="11" style="stroke:#181818;stroke-width:1.0;"/><path d="M172.4688,425.6419 Q171.8906,425.9387 171.25,426.0794 Q170.6094,426.2356 169.9063,426.2356 Q167.4063,426.2356 166.0781,424.595 Q164.7656,422.9387 164.7656,419.8137 Q164.7656,416.6887 166.0781,415.0325 Q167.4063,413.3762 169.9063,413.3762 Q170.6094,413.3762 171.25,413.5325 Q171.9063,413.6887 172.4688,413.9856 L172.4688,416.7044 Q171.8438,416.1262 171.25,415.8606 Q170.6563,415.5794 170.0313,415.5794 Q168.6875,415.5794 168,416.6575 Q167.3125,417.72 167.3125,419.8137 Q167.3125,421.9075 168,422.9856 Q168.6875,424.0481 170.0313,424.0481 Q170.6563,424.0481 171.25,423.7825 Q171.8438,423.5012 172.4688,422.9231 L172.4688,425.6419 Z " fill="#000000"/><text fill="#000000" font-family="sans-serif" font-size="12" font-style="italic" lengthAdjust="spacing" textLength="44" x="190" y="407.8587">&#171;desc&#187;</text><text fill="#000000" font-family="sans-serif" font-size="14" lengthAdjust="spacing" textLength="45" x="189.5" y="423.6839">Object</text><text fill="#000000" font-family="sans-serif" font-size="14" lengthAdjust="spacing" textLength="57" x="183.5" y="439.9807">Member</text></g><!--class Object\nAction--><g id="elem_Object\nAction"><rect codeLine="35" fill="#00FFFF" height="56.5625" id="Object\nAction" rx="2.5" ry="2.5" style="stroke:#181818;stroke-width:0.5;" width="77" x="168.5" y="508.29"/><ellipse cx="183.5" cy="536.5713" fill="#ADD1B2" rx="11" ry="11" style="stroke:#181818;stroke-width:1.0;"/><path d="M186.4688,542.2119 Q185.8906,542.5088 185.25,542.6494 Q184.6094,542.8056 183.9063,542.8056 Q181.4063,542.8056 180.0781,541.165 Q178.7656,539.5088 178.7656,536.3838 Q178.7656,533.2588 180.0781,531.6025 Q181.4063,529.9463 183.9063,529.9463 Q184.6094,529.9463 185.25,530.1025 Q185.9063,530.2588 186.4688,530.5556 L186.4688,533.2744 Q185.8438,532.6963 185.25,532.4306 Q184.6563,532.1494 184.0313,532.1494 Q182.6875,532.1494 182,533.2275 Q181.3125,534.29 181.3125,536.3838 Q181.3125,538.4775 182,539.5556 Q182.6875,540.6181 184.0313,540.6181 Q184.6563,540.6181 185.25,540.3525 Q185.8438,540.0713 186.4688,539.4931 L186.4688,542.2119 Z " fill="#000000"/><text fill="#000000" font-family="sans-serif" font-size="12" font-style="italic" lengthAdjust="spacing" textLength="44" x="198" y="524.4287">&#171;desc&#187;</text><text fill="#000000" font-family="sans-serif" font-size="14" lengthAdjust="spacing" textLength="45" x="197.5" y="540.2539">Object</text><text fill="#000000" font-family="sans-serif" font-size="14" lengthAdjust="spacing" textLength="43" x="198.5" y="556.5507">Action</text></g><!--class Object\nAssociation--><g id="elem_Object\nAssociation"><rect codeLine="39" fill="#00FFFF" height="56.5625" id="Object\nAssociation" rx="2.5" ry="2.5" style="stroke:#181818;stroke-width:0.5;" width="111" x="22.5" y="508.29"/><ellipse cx="37.5" cy="536.5713" fill="#ADD1B2" rx="11" ry="11" style="stroke:#181818;stroke-width:1.0;"/><path d="M40.4688,542.2119 Q39.8906,542.5088 39.25,542.6494 Q38.6094,542.8056 37.9063,542.8056 Q35.4063,542.8056 34.0781,541.165 Q32.7656,539.5088 32.7656,536.3838 Q32.7656,533.2588 34.0781,531.6025 Q35.4063,529.9463 37.9063,529.9463 Q38.6094,529.9463 39.25,530.1025 Q39.9063,530.2588 40.4688,530.5556 L40.4688,533.2744 Q39.8438,532.6963 39.25,532.4306 Q38.6563,532.1494 38.0313,532.1494 Q36.6875,532.1494 36,533.2275 Q35.3125,534.29 35.3125,536.3838 Q35.3125,538.4775 36,539.5556 Q36.6875,540.6181 38.0313,540.6181 Q38.6563,540.6181 39.25,540.3525 Q39.8438,540.0713 40.4688,539.4931 L40.4688,542.2119 Z " fill="#000000"/><text fill="#000000" font-family="sans-serif" font-size="12" font-style="italic" lengthAdjust="spacing" textLength="44" x="69" y="524.4287">&#171;desc&#187;</text><text fill="#000000" font-family="sans-serif" font-size="14" lengthAdjust="spacing" textLength="45" x="68.5" y="540.2539">Object</text><text fill="#000000" font-family="sans-serif" font-size="14" lengthAdjust="spacing" textLength="79" x="51.5" y="556.5507">Association</text></g><!--class OneToOne\nAssociation--><g id="elem_OneToOne\nAssociation"><rect codeLine="43" fill="#00FFFF" height="56.5625" id="OneToOne\nAssociation" rx="2.5" ry="2.5" style="stroke:#181818;stroke-width:0.5;" width="111" x="22.5" y="624.85"/><ellipse cx="37.5" cy="653.1313" fill="#ADD1B2" rx="11" ry="11" style="stroke:#181818;stroke-width:1.0;"/><path d="M40.4688,658.7719 Q39.8906,659.0688 39.25,659.2094 Q38.6094,659.3656 37.9063,659.3656 Q35.4063,659.3656 34.0781,657.725 Q32.7656,656.0688 32.7656,652.9438 Q32.7656,649.8188 34.0781,648.1625 Q35.4063,646.5063 37.9063,646.5063 Q38.6094,646.5063 39.25,646.6625 Q39.9063,646.8188 40.4688,647.1156 L40.4688,649.8344 Q39.8438,649.2563 39.25,648.9906 Q38.6563,648.7094 38.0313,648.7094 Q36.6875,648.7094 36,649.7875 Q35.3125,650.85 35.3125,652.9438 Q35.3125,655.0375 36,656.1156 Q36.6875,657.1781 38.0313,657.1781 Q38.6563,657.1781 39.25,656.9125 Q39.8438,656.6313 40.4688,656.0531 L40.4688,658.7719 Z " fill="#000000"/><text fill="#000000" font-family="sans-serif" font-size="12" font-style="italic" lengthAdjust="spacing" textLength="44" x="69" y="640.9887">&#171;desc&#187;</text><text fill="#000000" font-family="sans-serif" font-size="14" lengthAdjust="spacing" textLength="76" x="53" y="656.8139">OneToOne</text><text fill="#000000" font-family="sans-serif" font-size="14" lengthAdjust="spacing" textLength="79" x="51.5" y="673.1107">Association</text></g><!--class OneToMany\nAssociation--><g id="elem_OneToMany\nAssociation"><rect codeLine="47" fill="#00FFFF" height="56.5625" id="OneToMany\nAssociation" rx="2.5" ry="2.5" style="stroke:#181818;stroke-width:0.5;" width="115" x="168.5" y="624.85"/><ellipse cx="183.5" cy="653.1313" fill="#ADD1B2" rx="11" ry="11" style="stroke:#181818;stroke-width:1.0;"/><path d="M186.4688,658.7719 Q185.8906,659.0688 185.25,659.2094 Q184.6094,659.3656 183.9063,659.3656 Q181.4063,659.3656 180.0781,657.725 Q178.7656,656.0688 178.7656,652.9438 Q178.7656,649.8188 180.0781,648.1625 Q181.4063,646.5063 183.9063,646.5063 Q184.6094,646.5063 185.25,646.6625 Q185.9063,646.8188 186.4688,647.1156 L186.4688,649.8344 Q185.8438,649.2563 185.25,648.9906 Q184.6563,648.7094 184.0313,648.7094 Q182.6875,648.7094 182,649.7875 Q181.3125,650.85 181.3125,652.9438 Q181.3125,655.0375 182,656.1156 Q182.6875,657.1781 184.0313,657.1781 Q184.6563,657.1781 185.25,656.9125 Q185.8438,656.6313 186.4688,656.0531 L186.4688,658.7719 Z " fill="#000000"/><text fill="#000000" font-family="sans-serif" font-size="12" font-style="italic" lengthAdjust="spacing" textLength="44" x="217" y="640.9887">&#171;desc&#187;</text><text fill="#000000" font-family="sans-serif" font-size="14" lengthAdjust="spacing" textLength="83" x="197.5" y="656.8139">OneToMany</text><text fill="#000000" font-family="sans-serif" font-size="14" lengthAdjust="spacing" textLength="79" x="199.5" y="673.1107">Association</text></g><!--class FacetHolder--><g id="elem_FacetHolder"><rect codeLine="51" fill="#00FFFF" height="40.2656" id="FacetHolder" rx="2.5" ry="2.5" style="stroke:#181818;stroke-width:0.5;" width="115" x="322.5" y="198.01"/><ellipse cx="337.5" cy="218.1428" fill="#B4A7E5" rx="11" ry="11" style="stroke:#181818;stroke-width:1.0;"/><path d="M333.4219,213.9084 L333.4219,211.7522 L340.8125,211.7522 L340.8125,213.9084 L338.3438,213.9084 L338.3438,221.9866 L340.8125,221.9866 L340.8125,224.1428 L333.4219,224.1428 L333.4219,221.9866 L335.8906,221.9866 L335.8906,213.9084 L333.4219,213.9084 Z " fill="#000000"/><text fill="#000000" font-family="sans-serif" font-size="12" font-style="italic" lengthAdjust="spacing" textLength="44" x="371" y="214.1487">&#171;desc&#187;</text><text fill="#000000" font-family="sans-serif" font-size="14" font-style="italic" lengthAdjust="spacing" textLength="83" x="351.5" y="229.9739">FacetHolder</text></g><!--class Object\nActionParameter--><g id="elem_Object\nActionParameter"><rect codeLine="54" fill="#00FFFF" height="56.5625" id="Object\nActionParameter" rx="2.5" ry="2.5" style="stroke:#181818;stroke-width:0.5;" width="146" x="287" y="391.72"/><ellipse cx="302" cy="420.0012" fill="#ADD1B2" rx="11" ry="11" style="stroke:#181818;stroke-width:1.0;"/><path d="M304.9688,425.6419 Q304.3906,425.9387 303.75,426.0794 Q303.1094,426.2356 302.4063,426.2356 Q299.9063,426.2356 298.5781,424.595 Q297.2656,422.9387 297.2656,419.8137 Q297.2656,416.6887 298.5781,415.0325 Q299.9063,413.3762 302.4063,413.3762 Q303.1094,413.3762 303.75,413.5325 Q304.4063,413.6887 304.9688,413.9856 L304.9688,416.7044 Q304.3438,416.1262 303.75,415.8606 Q303.1563,415.5794 302.5313,415.5794 Q301.1875,415.5794 300.5,416.6575 Q299.8125,417.72 299.8125,419.8137 Q299.8125,421.9075 300.5,422.9856 Q301.1875,424.0481 302.5313,424.0481 Q303.1563,424.0481 303.75,423.7825 Q304.3438,423.5012 304.9688,422.9231 L304.9688,425.6419 Z " fill="#000000"/><text fill="#000000" font-family="sans-serif" font-size="12" font-style="italic" lengthAdjust="spacing" textLength="44" x="351" y="407.8587">&#171;desc&#187;</text><text fill="#000000" font-family="sans-serif" font-size="14" lengthAdjust="spacing" textLength="45" x="350.5" y="423.6839">Object</text><text fill="#000000" font-family="sans-serif" font-size="14" lengthAdjust="spacing" textLength="114" x="316" y="439.9807">ActionParameter</text></g><!--class OneToOne\nActionParameter--><g id="elem_OneToOne\nActionParameter"><rect codeLine="57" fill="#00FFFF" height="56.5625" id="OneToOne\nActionParameter" rx="2.5" ry="2.5" style="stroke:#181818;stroke-width:0.5;" width="146" x="280" y="508.29"/><ellipse cx="295" cy="536.5713" fill="#ADD1B2" rx="11" ry="11" style="stroke:#181818;stroke-width:1.0;"/><path d="M297.9688,542.2119 Q297.3906,542.5088 296.75,542.6494 Q296.1094,542.8056 295.4063,542.8056 Q292.9063,542.8056 291.5781,541.165 Q290.2656,539.5088 290.2656,536.3838 Q290.2656,533.2588 291.5781,531.6025 Q292.9063,529.9463 295.4063,529.9463 Q296.1094,529.9463 296.75,530.1025 Q297.4063,530.2588 297.9688,530.5556 L297.9688,533.2744 Q297.3438,532.6963 296.75,532.4306 Q296.1563,532.1494 295.5313,532.1494 Q294.1875,532.1494 293.5,533.2275 Q292.8125,534.29 292.8125,536.3838 Q292.8125,538.4775 293.5,539.5556 Q294.1875,540.6181 295.5313,540.6181 Q296.1563,540.6181 296.75,540.3525 Q297.3438,540.0713 297.9688,539.4931 L297.9688,542.2119 Z " fill="#000000"/><text fill="#000000" font-family="sans-serif" font-size="12" font-style="italic" lengthAdjust="spacing" textLength="44" x="344" y="524.4287">&#171;desc&#187;</text><text fill="#000000" font-family="sans-serif" font-size="14" lengthAdjust="spacing" textLength="76" x="328" y="540.2539">OneToOne</text><text fill="#000000" font-family="sans-serif" font-size="14" lengthAdjust="spacing" textLength="114" x="309" y="556.5507">ActionParameter</text></g><!--class Facet--><g id="elem_Facet"><rect codeLine="60" fill="#00FFFF" height="40.2656" id="Facet" rx="2.5" ry="2.5" style="stroke:#181818;stroke-width:0.5;" width="72" x="472" y="198.01"/><ellipse cx="487" cy="218.1428" fill="#B4A7E5" rx="11" ry="11" style="stroke:#181818;stroke-width:1.0;"/><path d="M482.9219,213.9084 L482.9219,211.7522 L490.3125,211.7522 L490.3125,213.9084 L487.8438,213.9084 L487.8438,221.9866 L490.3125,221.9866 L490.3125,224.1428 L482.9219,224.1428 L482.9219,221.9866 L485.3906,221.9866 L485.3906,213.9084 L482.9219,213.9084 Z " fill="#000000"/><text fill="#000000" font-family="sans-serif" font-size="12" font-style="italic" lengthAdjust="spacing" textLength="44" x="499" y="214.1487">&#171;desc&#187;</text><text fill="#000000" font-family="sans-serif" font-size="14" font-style="italic" lengthAdjust="spacing" textLength="38" x="502" y="229.9739">Facet</text></g><!--class OneToMany\nActionParameter--><g id="elem_OneToMany\nActionParameter"><rect codeLine="63" fill="#00FFFF" height="56.5625" id="OneToMany\nActionParameter" rx="2.5" ry="2.5" style="stroke:#181818;stroke-width:0.5;" width="146" x="461" y="508.29"/><ellipse cx="476" cy="536.5713" fill="#ADD1B2" rx="11" ry="11" style="stroke:#181818;stroke-width:1.0;"/><path d="M478.9688,542.2119 Q478.3906,542.5088 477.75,542.6494 Q477.1094,542.8056 476.4063,542.8056 Q473.9063,542.8056 472.5781,541.165 Q471.2656,539.5088 471.2656,536.3838 Q471.2656,533.2588 472.5781,531.6025 Q473.9063,529.9463 476.4063,529.9463 Q477.1094,529.9463 477.75,530.1025 Q478.4063,530.2588 478.9688,530.5556 L478.9688,533.2744 Q478.3438,532.6963 477.75,532.4306 Q477.1563,532.1494 476.5313,532.1494 Q475.1875,532.1494 474.5,533.2275 Q473.8125,534.29 473.8125,536.3838 Q473.8125,538.4775 474.5,539.5556 Q475.1875,540.6181 476.5313,540.6181 Q477.1563,540.6181 477.75,540.3525 Q478.3438,540.0713 478.9688,539.4931 L478.9688,542.2119 Z " fill="#000000"/><text fill="#000000" font-family="sans-serif" font-size="12" font-style="italic" lengthAdjust="spacing" textLength="44" x="525" y="524.4287">&#171;desc&#187;</text><text fill="#000000" font-family="sans-serif" font-size="14" lengthAdjust="spacing" textLength="83" x="505.5" y="540.2539">OneToMany</text><text fill="#000000" font-family="sans-serif" font-size="14" lengthAdjust="spacing" textLength="114" x="490" y="556.5507">ActionParameter</text></g><!--class ManagedObject--><g id="elem_ManagedObject"><rect codeLine="68" fill="#90EE90" height="80.8594" id="ManagedObject" rx="2.5" ry="2.5" style="stroke:#181818;stroke-width:0.5;" width="146" x="663" y="177.71"/><ellipse cx="680.25" cy="197.8428" fill="#ADD1B2" rx="11" ry="11" style="stroke:#181818;stroke-width:1.0;"/><path d="M683.2188,203.4834 Q682.6406,203.7803 682,203.9209 Q681.3594,204.0772 680.6563,204.0772 Q678.1563,204.0772 676.8281,202.4366 Q675.5156,200.7803 675.5156,197.6553 Q675.5156,194.5303 676.8281,192.8741 Q678.1563,191.2178 680.6563,191.2178 Q681.3594,191.2178 682,191.3741 Q682.6563,191.5303 683.2188,191.8272 L683.2188,194.5459 Q682.5938,193.9678 682,193.7022 Q681.4063,193.4209 680.7813,193.4209 Q679.4375,193.4209 678.75,194.4991 Q678.0625,195.5616 678.0625,197.6553 Q678.0625,199.7491 678.75,200.8272 Q679.4375,201.8897 680.7813,201.8897 Q681.4063,201.8897 682,201.6241 Q682.5938,201.3428 683.2188,200.7647 L683.2188,203.4834 Z " fill="#000000"/><text fill="#000000" font-family="sans-serif" font-size="12" font-style="italic" lengthAdjust="spacing" textLength="35" x="731.75" y="193.8487">&#171;ppt&#187;</text><text fill="#000000" font-family="sans-serif" font-size="14" lengthAdjust="spacing" textLength="109" x="694.75" y="209.6739">ManagedObject</text><line style="stroke:#181818;stroke-width:0.5;" x1="664" x2="808" y1="217.9756" y2="217.9756"/><ellipse cx="674" cy="231.6241" fill="#84BE84" rx="3" ry="3" style="stroke:#038048;stroke-width:1.0;"/><text fill="#000000" font-family="sans-serif" font-size="14" lengthAdjust="spacing" textLength="120" x="683" y="234.9707">getSpecification()</text><ellipse cx="674" cy="247.9209" fill="#84BE84" rx="3" ry="3" style="stroke:#038048;stroke-width:1.0;"/><text fill="#000000" font-family="sans-serif" font-size="14" lengthAdjust="spacing" textLength="63" x="683" y="251.2676">getPojo()</text></g><!--class Bookmark--><g id="elem_Bookmark"><rect codeLine="72" fill="#FFFFFF" height="40.2656" id="Bookmark" rx="2.5" ry="2.5" style="stroke:#181818;stroke-width:0.5;" width="102" x="674" y="53.15"/><ellipse cx="689" cy="73.2828" fill="#ADD1B2" rx="11" ry="11" style="stroke:#181818;stroke-width:1.0;"/><path d="M691.9688,78.9234 Q691.3906,79.2203 690.75,79.3609 Q690.1094,79.5172 689.4063,79.5172 Q686.9063,79.5172 685.5781,77.8766 Q684.2656,76.2203 684.2656,73.0953 Q684.2656,69.9703 685.5781,68.3141 Q686.9063,66.6578 689.4063,66.6578 Q690.1094,66.6578 690.75,66.8141 Q691.4063,66.9703 691.9688,67.2672 L691.9688,69.9859 Q691.3438,69.4078 690.75,69.1422 Q690.1563,68.8609 689.5313,68.8609 Q688.1875,68.8609 687.5,69.9391 Q686.8125,71.0016 686.8125,73.0953 Q686.8125,75.1891 687.5,76.2672 Q688.1875,77.3297 689.5313,77.3297 Q690.1563,77.3297 690.75,77.0641 Q691.3438,76.7828 691.9688,76.2047 L691.9688,78.9234 Z " fill="#000000"/><text fill="#000000" font-family="sans-serif" font-size="12" font-style="italic" lengthAdjust="spacing" textLength="47" x="714.5" y="69.2887">&#171;value&#187;</text><text fill="#000000" font-family="sans-serif" font-size="14" lengthAdjust="spacing" textLength="70" x="703" y="85.1139">Bookmark</text></g><!--reverse link LogicalType to Object\nSpecification--><g id="link_LogicalType_Object\nSpecification"><path codeLine="79" d="M327.8205,109.7453 C306.1005,127.1753 283.31,145.47 258.56,165.33 " fill="none" id="LogicalType-backto-Object\nSpecification" style="stroke:#181818;stroke-width:1.0;"/><polygon fill="#181818" points="332.5,105.99,322.9772,108.5032,328.6004,109.1194,327.9842,114.7426,332.5,105.99" style="stroke:#181818;stroke-width:1.0;"/></g><!--link Object\nSpecification to Object\nMember--><g id="link_Object\nSpecification_Object\nMember"><path codeLine="80" d="M195.3,271.13 C196.26,309.53 197.3788,354.3119 198.1588,385.2619 " fill="none" id="Object\nSpecification-to-Object\nMember" style="stroke:#181818;stroke-width:1.0;"/><polygon fill="#181818" points="198.31,391.26,202.082,382.1621,198.184,386.2616,194.0845,382.3636,198.31,391.26" style="stroke:#181818;stroke-width:1.0;"/><text fill="#000000" font-family="sans-serif" font-size="13" lengthAdjust="spacing" textLength="7" x="190.4458" y="380.8658">*</text></g><!--reverse link Object\nMember to Object\nAssociation--><g id="link_Object\nMember_Object\nAssociation"><path codeLine="81" d="M156.6398,461.1162 C137.6198,479.1262 125.99,490.13 107.02,508.09 " fill="none" id="Object\nMember-backto-Object\nAssociation" style="stroke:#181818;stroke-width:1.0;"/><polygon fill="none" points="169.71,448.74,152.5144,456.7594,160.7652,465.4729,169.71,448.74" style="stroke:#181818;stroke-width:1.0;"/></g><!--reverse link Object\nMember to Object\nAction--><g id="link_Object\nMember_Object\nAction"><path codeLine="82" d="M202.1863,466.6968 C203.4363,484.7068 203.83,490.13 205.08,508.09 " fill="none" id="Object\nMember-backto-Object\nAction" style="stroke:#181818;stroke-width:1.0;"/><polygon fill="none" points="200.94,448.74,196.2007,467.1122,208.1719,466.2814,200.94,448.74" style="stroke:#181818;stroke-width:1.0;"/></g><!--reverse link Object\nAssociation to OneToOne\nAssociation--><g id="link_Object\nAssociation_OneToOne\nAssociation"><path codeLine="83" d="M78,583.3 C78,601.31 78,606.69 78,624.65 " fill="none" id="Object\nAssociation-backto-OneToOne\nAssociation" style="stroke:#181818;stroke-width:1.0;"/><polygon fill="none" points="78,565.3,72,583.3,84,583.3,78,565.3" style="stroke:#181818;stroke-width:1.0;"/></g><!--reverse link Object\nAssociation to OneToMany\nAssociation--><g id="link_Object\nAssociation_OneToMany\nAssociation"><path codeLine="84" d="M128.0648,576.3169 C151.2448,594.2569 167.08,606.52 190.25,624.45 " fill="none" id="Object\nAssociation-backto-OneToMany\nAssociation" style="stroke:#181818;stroke-width:1.0;"/><polygon fill="none" points="113.83,565.3,124.3925,581.0618,131.737,571.572,113.83,565.3" style="stroke:#181818;stroke-width:1.0;"/></g><!--reverse link Object\nActionParameter to OneToOne\nActionParameter--><g id="link_Object\nActionParameter_OneToOne\nActionParameter"><path codeLine="85" d="M357.2027,466.7059 C356.0927,484.7159 355.78,490.13 354.68,508.09 " fill="none" id="Object\nActionParameter-backto-OneToOne\nActionParameter" style="stroke:#181818;stroke-width:1.0;"/><polygon fill="none" points="358.31,448.74,351.2141,466.3368,363.1914,467.075,358.31,448.74" style="stroke:#181818;stroke-width:1.0;"/></g><!--reverse link Object\nActionParameter to OneToMany\nActionParameter--><g id="link_Object\nActionParameter_OneToMany\nActionParameter"><path codeLine="86" d="M417.156,458.6353 C444.416,476.5753 464.73,489.96 491.97,507.89 " fill="none" id="Object\nActionParameter-backto-OneToMany\nActionParameter" style="stroke:#181818;stroke-width:1.0;"/><polygon fill="none" points="402.12,448.74,413.8576,463.6473,420.4545,453.6233,402.12,448.74" style="stroke:#181818;stroke-width:1.0;"/></g><!--reverse link Object\nActionParameter to Object\nAction--><g id="link_Object\nActionParameter_Object\nAction"><path codeLine="87" d="M318.1571,452.3362 C294.1971,470.2762 267.91,489.96 243.96,507.89 " fill="none" id="Object\nActionParameter-backto-Object\nAction" style="stroke:#181818;stroke-width:1.0;"/><polygon fill="#181818" points="322.96,448.74,313.3582,450.9323,318.9576,451.7368,318.1531,457.3361,322.96,448.74" style="stroke:#181818;stroke-width:1.0;"/><text fill="#000000" font-family="sans-serif" font-size="13" lengthAdjust="spacing" textLength="7" x="307.5986" y="468.2948">*</text></g><!--link Object\nSpecification to FacetHolder--><g id="link_Object\nSpecification_FacetHolder"><path codeLine="89" d="M288.45,218.14 C299.66,218.14 292.86,218.14 304.07,218.14 " fill="none" id="Object\nSpecification-to-FacetHolder" style="stroke:#181818;stroke-width:1.0;stroke-dasharray:7.0,7.0;"/><polygon fill="none" points="322.07,218.14,304.07,212.14,304.07,224.14,322.07,218.14" style="stroke:#181818;stroke-width:1.0;"/></g><!--reverse link FacetHolder to Object\nMember--><g id="link_FacetHolder_Object\nMember"><path codeLine="90" d="M350.2364,252.0112 C317.8564,287.7612 261.05,350.49 223.93,391.47 " fill="none" id="FacetHolder-backto-Object\nMember" style="stroke:#181818;stroke-width:1.0;stroke-dasharray:7.0,7.0;"/><polygon fill="none" points="362.32,238.67,345.7894,247.9833,354.6835,256.039,362.32,238.67" style="stroke:#181818;stroke-width:1.0;"/></g><!--reverse link FacetHolder to Object\nActionParameter--><g id="link_FacetHolder_Object\nActionParameter"><path codeLine="91" d="M376.2565,256.5804 C372.6765,292.3304 366.86,350.49 362.76,391.47 " fill="none" id="FacetHolder-backto-Object\nActionParameter" style="stroke:#181818;stroke-width:1.0;stroke-dasharray:7.0,7.0;"/><polygon fill="none" points="378.05,238.67,370.2863,255.9826,382.2266,257.1783,378.05,238.67" style="stroke:#181818;stroke-width:1.0;"/></g><!--link FacetHolder to Facet--><g id="link_FacetHolder_Facet"><path codeLine="92" d="M437.5,218.14 C448.88,218.14 454.27,218.14 465.65,218.14 " fill="none" id="FacetHolder-to-Facet" style="stroke:#181818;stroke-width:1.0;"/><polygon fill="#181818" points="471.65,218.14,462.65,214.14,466.65,218.14,462.65,222.14,471.65,218.14" style="stroke:#181818;stroke-width:1.0;"/><text fill="#000000" font-family="sans-serif" font-size="13" lengthAdjust="spacing" textLength="7" x="457.0536" y="213.7893">*</text></g><!--reverse link Bookmark to ManagedObject--><g id="link_Bookmark_ManagedObject"><path codeLine="95" d="M726.9685,99.8325 C728.6085,121.2325 730.84,150.11 732.93,177.32 " fill="none" id="Bookmark-backto-ManagedObject" style="stroke:#181818;stroke-width:1.0;"/><polygon fill="#181818" points="726.51,93.85,723.2094,103.1293,726.8921,98.8354,731.186,102.518,726.51,93.85" style="stroke:#181818;stroke-width:1.0;"/></g><!--link Bookmark to LogicalType--><g id="link_Bookmark_LogicalType"><path codeLine="97" d="M673.53,73.29 C591.98,73.29 516.43,73.29 434.88,73.29 " fill="none" id="Bookmark-to-LogicalType" style="stroke:#181818;stroke-width:1.0;"/><polygon fill="#181818" points="428.88,73.29,437.88,77.29,433.88,73.29,437.88,69.29,428.88,73.29" style="stroke:#181818;stroke-width:1.0;"/></g><!--SRC=[bPHTRziW58Rl-HMeLzqcznTKaTP8sogrMwPLcYPDaoYSEDHy2UDcrfJ_FlmLOqP2neLbECzxuC0BEyu0WpIknHBaCzWQeRhYoX1B9AQ2r3N-Wx1lTuHMfTMDOcijjBszPL3JrGglMwBIW37EnnzukNCVBS09Il89sd1LfHch1KpK3n12xzDSxInnKBQU_RxZ3j8KCVmyKES0hXnOHKHGNficNubeu9WipO1otBKNRDKhXxtK34H-noJ_pLMqPGU4ZET82Vwi7Uap-SFj4mmd_Q1BJebuQWtCIn-Elslld0_qlKEe-lBy0jJzLDyCKBxr2HpNwkYFGAvxiCFksN7qnhTZfzWsGhHV6o9y8c3hBlzd8izC-jYxDfZjDFgUHWixWzQrffpaUGLFsd_-K_58L7k9fFVPbb307_p7VTA2BMhDbBhfBZ6uZ6GkuH9HjAHivh7KJEh0chRnrq7261eo-IG-n8RgfeSbC5O9Rc6-wpUBs4Q_w77e46IzqxgIn5QXrUVr89JqDIuQKwp2ctAAOtglF7drzYeoArfsyQy1JPalYz855IXdD6NHlE8VYw8JtafDj2GkKoQD4abn8M3heasD9IYuAtwAcrwIVgHYTBcvuscTPUB9GxYmtUCxhhOFU5Cjh8n7DqrEH6ZwcyM1q_u2]--></g></svg>