<svg xmlns="http://www.w3.org/2000/svg" xmlns:xlink="http://www.w3.org/1999/xlink" contentStyleType="text/css" data-diagram-type="CLASS" height="704px" preserveAspectRatio="none" style="width:846px;height:704px;background:#FFFFFF;" version="1.1" viewBox="0 0 846 704" width="846px" zoomAndPan="magnify"><defs/><g><!--cluster metamodel--><g class="cluster" data-entity="metamodel" data-source-line="19" data-uid="ent0002" id="cluster_metamodel"><path d="M8.5,6 L98.2441,6 A3.75,3.75 0 0 1 100.7441,8.5 L107.7441,28.2969 L630.5,28.2969 A2.5,2.5 0 0 1 633,30.7969 L633,694.91 A2.5,2.5 0 0 1 630.5,697.41 L8.5,697.41 A2.5,2.5 0 0 1 6,694.91 L6,8.5 A2.5,2.5 0 0 1 8.5,6" fill="none" style="stroke:#000000;stroke-width:1.5;"/><line style="stroke:#000000;stroke-width:1.5;" x1="6" x2="107.7441" y1="28.2969" y2="28.2969"/><text fill="#000000" font-family="sans-serif" font-size="14" font-weight="bold" lengthAdjust="spacing" textLength="88.7441" x="10" y="20.9951">metamodel</text></g><!--cluster runtime--><g class="cluster" data-entity="runtime" data-source-line="67" data-uid="ent0015" id="cluster_runtime"><path d="M659.5,18.15 L722.9121,18.15 A3.75,3.75 0 0 1 725.4121,20.65 L732.4121,40.4469 L836.5,40.4469 A2.5,2.5 0 0 1 839,42.9469 L839,272.07 A2.5,2.5 0 0 1 836.5,274.57 L659.5,274.57 A2.5,2.5 0 0 1 657,272.07 L657,20.65 A2.5,2.5 0 0 1 659.5,18.15" fill="none" style="stroke:#000000;stroke-width:1.5;"/><line style="stroke:#000000;stroke-width:1.5;" x1="657" x2="732.4121" y1="40.4469" y2="40.4469"/><text fill="#000000" font-family="sans-serif" font-size="14" font-weight="bold" lengthAdjust="spacing" textLength="62.4121" x="661" y="33.1451">runtime</text></g><!--class LogicalType--><g class="entity" data-entity="LogicalType" data-source-line="21" data-uid="ent0003" id="entity_LogicalType"><rect fill="#FFFFFF" height="64.5625" rx="2.5" ry="2.5" style="stroke:#181818;stroke-width:0.5;" width="115.6445" x="312.18" y="41"/><ellipse cx="327.18" cy="61.1328" fill="#ADD1B2" rx="11" ry="11" style="stroke:#181818;stroke-width:1;"/><path d="M330.1488,66.7734 Q329.5706,67.0703 328.93,67.2109 Q328.2894,67.3672 327.5863,67.3672 Q325.0863,67.3672 323.7581,65.7266 Q322.4456,64.0703 322.4456,60.9453 Q322.4456,57.8203 323.7581,56.1641 Q325.0863,54.5078 327.5863,54.5078 Q328.2894,54.5078 328.93,54.6641 Q329.5863,54.8203 330.1488,55.1172 L330.1488,57.8359 Q329.5238,57.2578 328.93,56.9922 Q328.3363,56.7109 327.7113,56.7109 Q326.3675,56.7109 325.68,57.7891 Q324.9925,58.8516 324.9925,60.9453 Q324.9925,63.0391 325.68,64.1172 Q326.3675,65.1797 327.7113,65.1797 Q328.3363,65.1797 328.93,64.9141 Q329.5238,64.6328 330.1488,64.0547 L330.1488,66.7734 Z " fill="#000000"/><text fill="#000000" font-family="sans-serif" font-size="12" font-style="italic" lengthAdjust="spacing" textLength="47.4609" x="359.2718" y="57.1387">&#171;value&#187;</text><text fill="#000000" font-family="sans-serif" font-size="14" lengthAdjust="spacing" textLength="83.6445" x="341.18" y="72.9639">LogicalType</text><line style="stroke:#181818;stroke-width:0.5;" x1="313.18" x2="426.8245" y1="81.2656" y2="81.2656"/><ellipse cx="323.18" cy="94.9141" fill="none" rx="3" ry="3" style="stroke:#038048;stroke-width:1;"/><text fill="#000000" font-family="sans-serif" font-size="14" lengthAdjust="spacing" textLength="31.2744" x="332.18" y="98.2607">type</text></g><!--class Object\nSpecification--><g class="entity" data-entity="Object\nSpecification" data-source-line="25" data-uid="ent0004" id="entity_Object\nSpecification"><rect fill="#00FFFF" height="105.1563" rx="2.5" ry="2.5" style="stroke:#181818;stroke-width:0.5;" width="196.5703" x="83.71" y="165.57"/><ellipse cx="132.8023" cy="193.8512" fill="#ADD1B2" rx="11" ry="11" style="stroke:#181818;stroke-width:1;"/><path d="M135.771,199.4919 Q135.1929,199.7887 134.5523,199.9294 Q133.9117,200.0856 133.2085,200.0856 Q130.7085,200.0856 129.3804,198.445 Q128.0679,196.7887 128.0679,193.6637 Q128.0679,190.5387 129.3804,188.8825 Q130.7085,187.2262 133.2085,187.2262 Q133.9117,187.2262 134.5523,187.3825 Q135.2085,187.5387 135.771,187.8356 L135.771,190.5544 Q135.146,189.9762 134.5523,189.7106 Q133.9585,189.4294 133.3335,189.4294 Q131.9898,189.4294 131.3023,190.5075 Q130.6148,191.57 130.6148,193.6637 Q130.6148,195.7575 131.3023,196.8356 Q131.9898,197.8981 133.3335,197.8981 Q133.9585,197.8981 134.5523,197.6325 Q135.146,197.3512 135.771,196.7731 L135.771,199.4919 Z " fill="#000000"/><text fill="#000000" font-family="sans-serif" font-size="12" font-style="italic" lengthAdjust="spacing" textLength="42.5332" x="176.9786" y="181.7087">&#171;desc&#187;</text><text fill="#000000" font-family="sans-serif" font-size="14" lengthAdjust="spacing" textLength="45.5957" x="175.4473" y="197.5339">Object</text><text fill="#000000" font-family="sans-serif" font-size="14" lengthAdjust="spacing" textLength="89.8857" x="153.3023" y="213.8307">Specification</text><line style="stroke:#181818;stroke-width:0.5;" x1="84.71" x2="279.2803" y1="222.1325" y2="222.1325"/><ellipse cx="94.71" cy="235.7809" fill="none" rx="3" ry="3" style="stroke:#038048;stroke-width:1;"/><text fill="#000000" font-family="sans-serif" font-size="14" lengthAdjust="spacing" textLength="90.2412" x="103.71" y="239.1276">objectSpecId</text><line style="stroke:#181818;stroke-width:1;stroke-dasharray:1.0,2.0;" x1="84.71" x2="279.2803" y1="246.4294" y2="246.4294"/><rect fill="none" height="6" style="stroke:#C82930;stroke-width:1;" width="6" x="91.71" y="257.0778"/><text fill="#000000" font-family="sans-serif" font-size="14" lengthAdjust="spacing" textLength="170.5703" x="103.71" y="263.4245">fullyQualifiedClassName</text></g><!--class Object\nMember--><g class="entity" data-entity="Object\nMember" data-source-line="31" data-uid="ent0005" id="entity_Object\nMember"><rect fill="#00FFFF" height="56.5625" rx="2.5" ry="2.5" style="stroke:#181818;stroke-width:0.5;" width="89.5859" x="160.21" y="391.72"/><ellipse cx="175.21" cy="420.0012" fill="#ADD1B2" rx="11" ry="11" style="stroke:#181818;stroke-width:1;"/><path d="M178.1788,425.6419 Q177.6006,425.9387 176.96,426.0794 Q176.3194,426.2356 175.6163,426.2356 Q173.1163,426.2356 171.7881,424.595 Q170.4756,422.9387 170.4756,419.8137 Q170.4756,416.6887 171.7881,415.0325 Q173.1163,413.3762 175.6163,413.3762 Q176.3194,413.3762 176.96,413.5325 Q177.6163,413.6887 178.1788,413.9856 L178.1788,416.7044 Q177.5538,416.1262 176.96,415.8606 Q176.3663,415.5794 175.7413,415.5794 Q174.3975,415.5794 173.71,416.6575 Q173.0225,417.72 173.0225,419.8137 Q173.0225,421.9075 173.71,422.9856 Q174.3975,424.0481 175.7413,424.0481 Q176.3663,424.0481 176.96,423.7825 Q177.5538,423.5012 178.1788,422.9231 L178.1788,425.6419 Z " fill="#000000"/><text fill="#000000" font-family="sans-serif" font-size="12" font-style="italic" lengthAdjust="spacing" textLength="42.5332" x="196.7364" y="407.8587">&#171;desc&#187;</text><text fill="#000000" font-family="sans-serif" font-size="14" lengthAdjust="spacing" textLength="45.5957" x="195.2051" y="423.6839">Object</text><text fill="#000000" font-family="sans-serif" font-size="14" lengthAdjust="spacing" textLength="57.5859" x="189.21" y="439.9807">Member</text></g><!--class Object\nAction--><g class="entity" data-entity="Object\nAction" data-source-line="35" data-uid="ent0006" id="entity_Object\nAction"><rect fill="#00FFFF" height="56.5625" rx="2.5" ry="2.5" style="stroke:#181818;stroke-width:0.5;" width="77.5957" x="169.2" y="508.29"/><ellipse cx="184.2" cy="536.5713" fill="#ADD1B2" rx="11" ry="11" style="stroke:#181818;stroke-width:1;"/><path d="M187.1688,542.2119 Q186.5906,542.5088 185.95,542.6494 Q185.3094,542.8056 184.6063,542.8056 Q182.1063,542.8056 180.7781,541.165 Q179.4656,539.5088 179.4656,536.3838 Q179.4656,533.2588 180.7781,531.6025 Q182.1063,529.9463 184.6063,529.9463 Q185.3094,529.9463 185.95,530.1025 Q186.6063,530.2588 187.1688,530.5556 L187.1688,533.2744 Q186.5438,532.6963 185.95,532.4306 Q185.3563,532.1494 184.7313,532.1494 Q183.3875,532.1494 182.7,533.2275 Q182.0125,534.29 182.0125,536.3838 Q182.0125,538.4775 182.7,539.5556 Q183.3875,540.6181 184.7313,540.6181 Q185.3563,540.6181 185.95,540.3525 Q186.5438,540.0713 187.1688,539.4931 L187.1688,542.2119 Z " fill="#000000"/><text fill="#000000" font-family="sans-serif" font-size="12" font-style="italic" lengthAdjust="spacing" textLength="42.5332" x="199.7313" y="524.4287">&#171;desc&#187;</text><text fill="#000000" font-family="sans-serif" font-size="14" lengthAdjust="spacing" textLength="45.5957" x="198.2" y="540.2539">Object</text><text fill="#000000" font-family="sans-serif" font-size="14" lengthAdjust="spacing" textLength="44.0918" x="198.952" y="556.5507">Action</text></g><!--class Object\nAssociation--><g class="entity" data-entity="Object\nAssociation" data-source-line="39" data-uid="ent0007" id="entity_Object\nAssociation"><rect fill="#00FFFF" height="56.5625" rx="2.5" ry="2.5" style="stroke:#181818;stroke-width:0.5;" width="111.7139" x="22.14" y="508.29"/><ellipse cx="37.14" cy="536.5713" fill="#ADD1B2" rx="11" ry="11" style="stroke:#181818;stroke-width:1;"/><path d="M40.1088,542.2119 Q39.5306,542.5088 38.89,542.6494 Q38.2494,542.8056 37.5463,542.8056 Q35.0463,542.8056 33.7181,541.165 Q32.4056,539.5088 32.4056,536.3838 Q32.4056,533.2588 33.7181,531.6025 Q35.0463,529.9463 37.5463,529.9463 Q38.2494,529.9463 38.89,530.1025 Q39.5463,530.2588 40.1088,530.5556 L40.1088,533.2744 Q39.4838,532.6963 38.89,532.4306 Q38.2963,532.1494 37.6713,532.1494 Q36.3275,532.1494 35.64,533.2275 Q34.9525,534.29 34.9525,536.3838 Q34.9525,538.4775 35.64,539.5556 Q36.3275,540.6181 37.6713,540.6181 Q38.2963,540.6181 38.89,540.3525 Q39.4838,540.0713 40.1088,539.4931 L40.1088,542.2119 Z " fill="#000000"/><text fill="#000000" font-family="sans-serif" font-size="12" font-style="italic" lengthAdjust="spacing" textLength="42.5332" x="69.7303" y="524.4287">&#171;desc&#187;</text><text fill="#000000" font-family="sans-serif" font-size="14" lengthAdjust="spacing" textLength="45.5957" x="68.1991" y="540.2539">Object</text><text fill="#000000" font-family="sans-serif" font-size="14" lengthAdjust="spacing" textLength="79.7139" x="51.14" y="556.5507">Association</text></g><!--class OneToOne\nAssociation--><g class="entity" data-entity="OneToOne\nAssociation" data-source-line="43" data-uid="ent0008" id="entity_OneToOne\nAssociation"><rect fill="#00FFFF" height="56.5625" rx="2.5" ry="2.5" style="stroke:#181818;stroke-width:0.5;" width="111.7139" x="22.14" y="624.85"/><ellipse cx="37.14" cy="653.1313" fill="#ADD1B2" rx="11" ry="11" style="stroke:#181818;stroke-width:1;"/><path d="M40.1088,658.7719 Q39.5306,659.0688 38.89,659.2094 Q38.2494,659.3656 37.5463,659.3656 Q35.0463,659.3656 33.7181,657.725 Q32.4056,656.0688 32.4056,652.9438 Q32.4056,649.8188 33.7181,648.1625 Q35.0463,646.5063 37.5463,646.5063 Q38.2494,646.5063 38.89,646.6625 Q39.5463,646.8188 40.1088,647.1156 L40.1088,649.8344 Q39.4838,649.2563 38.89,648.9906 Q38.2963,648.7094 37.6713,648.7094 Q36.3275,648.7094 35.64,649.7875 Q34.9525,650.85 34.9525,652.9438 Q34.9525,655.0375 35.64,656.1156 Q36.3275,657.1781 37.6713,657.1781 Q38.2963,657.1781 38.89,656.9125 Q39.4838,656.6313 40.1088,656.0531 L40.1088,658.7719 Z " fill="#000000"/><text fill="#000000" font-family="sans-serif" font-size="12" font-style="italic" lengthAdjust="spacing" textLength="42.5332" x="69.7303" y="640.9887">&#171;desc&#187;</text><text fill="#000000" font-family="sans-serif" font-size="14" lengthAdjust="spacing" textLength="74.1289" x="53.9325" y="656.8139">OneToOne</text><text fill="#000000" font-family="sans-serif" font-size="14" lengthAdjust="spacing" textLength="79.7139" x="51.14" y="673.1107">Association</text></g><!--class OneToMany\nAssociation--><g class="entity" data-entity="OneToMany\nAssociation" data-source-line="47" data-uid="ent0009" id="entity_OneToMany\nAssociation"><rect fill="#00FFFF" height="56.5625" rx="2.5" ry="2.5" style="stroke:#181818;stroke-width:0.5;" width="115.4395" x="169.28" y="624.85"/><ellipse cx="184.28" cy="653.1313" fill="#ADD1B2" rx="11" ry="11" style="stroke:#181818;stroke-width:1;"/><path d="M187.2488,658.7719 Q186.6706,659.0688 186.03,659.2094 Q185.3894,659.3656 184.6863,659.3656 Q182.1863,659.3656 180.8581,657.725 Q179.5456,656.0688 179.5456,652.9438 Q179.5456,649.8188 180.8581,648.1625 Q182.1863,646.5063 184.6863,646.5063 Q185.3894,646.5063 186.03,646.6625 Q186.6863,646.8188 187.2488,647.1156 L187.2488,649.8344 Q186.6238,649.2563 186.03,648.9906 Q185.4363,648.7094 184.8113,648.7094 Q183.4675,648.7094 182.78,649.7875 Q182.0925,650.85 182.0925,652.9438 Q182.0925,655.0375 182.78,656.1156 Q183.4675,657.1781 184.8113,657.1781 Q185.4363,657.1781 186.03,656.9125 Q186.6238,656.6313 187.2488,656.0531 L187.2488,658.7719 Z " fill="#000000"/><text fill="#000000" font-family="sans-serif" font-size="12" font-style="italic" lengthAdjust="spacing" textLength="42.5332" x="218.7331" y="640.9887">&#171;desc&#187;</text><text fill="#000000" font-family="sans-serif" font-size="14" lengthAdjust="spacing" textLength="83.4395" x="198.28" y="656.8139">OneToMany</text><text fill="#000000" font-family="sans-serif" font-size="14" lengthAdjust="spacing" textLength="79.7139" x="200.1428" y="673.1107">Association</text></g><!--class FacetHolder--><g class="entity" data-entity="FacetHolder" data-source-line="51" data-uid="ent0010" id="entity_FacetHolder"><rect fill="#00FFFF" height="40.2656" rx="2.5" ry="2.5" style="stroke:#181818;stroke-width:0.5;" width="116.6699" x="315.67" y="198.01"/><ellipse cx="330.67" cy="218.1428" fill="#B4A7E5" rx="11" ry="11" style="stroke:#181818;stroke-width:1;"/><path d="M326.5919,213.9084 L326.5919,211.7522 L333.9825,211.7522 L333.9825,213.9084 L331.5138,213.9084 L331.5138,221.9866 L333.9825,221.9866 L333.9825,224.1428 L326.5919,224.1428 L326.5919,221.9866 L329.0606,221.9866 L329.0606,213.9084 L326.5919,213.9084 Z " fill="#000000"/><text fill="#000000" font-family="sans-serif" font-size="12" font-style="italic" lengthAdjust="spacing" textLength="42.5332" x="365.7384" y="214.1487">&#171;desc&#187;</text><text fill="#000000" font-family="sans-serif" font-size="14" font-style="italic" lengthAdjust="spacing" textLength="84.6699" x="344.67" y="229.9739">FacetHolder</text></g><!--class Object\nActionParameter--><g class="entity" data-entity="Object\nActionParameter" data-source-line="54" data-uid="ent0011" id="entity_Object\nActionParameter"><rect fill="#00FFFF" height="56.5625" rx="2.5" ry="2.5" style="stroke:#181818;stroke-width:0.5;" width="149.5576" x="285.22" y="391.72"/><ellipse cx="300.22" cy="420.0012" fill="#ADD1B2" rx="11" ry="11" style="stroke:#181818;stroke-width:1;"/><path d="M303.1888,425.6419 Q302.6106,425.9387 301.97,426.0794 Q301.3294,426.2356 300.6263,426.2356 Q298.1263,426.2356 296.7981,424.595 Q295.4856,422.9387 295.4856,419.8137 Q295.4856,416.6887 296.7981,415.0325 Q298.1263,413.3762 300.6263,413.3762 Q301.3294,413.3762 301.97,413.5325 Q302.6263,413.6887 303.1888,413.9856 L303.1888,416.7044 Q302.5638,416.1262 301.97,415.8606 Q301.3763,415.5794 300.7513,415.5794 Q299.4075,415.5794 298.72,416.6575 Q298.0325,417.72 298.0325,419.8137 Q298.0325,421.9075 298.72,422.9856 Q299.4075,424.0481 300.7513,424.0481 Q301.3763,424.0481 301.97,423.7825 Q302.5638,423.5012 303.1888,422.9231 L303.1888,425.6419 Z " fill="#000000"/><text fill="#000000" font-family="sans-serif" font-size="12" font-style="italic" lengthAdjust="spacing" textLength="42.5332" x="351.7322" y="407.8587">&#171;desc&#187;</text><text fill="#000000" font-family="sans-serif" font-size="14" lengthAdjust="spacing" textLength="45.5957" x="350.201" y="423.6839">Object</text><text fill="#000000" font-family="sans-serif" font-size="14" lengthAdjust="spacing" textLength="117.5576" x="314.22" y="439.9807">ActionParameter</text></g><!--class OneToOne\nActionParameter--><g class="entity" data-entity="OneToOne\nActionParameter" data-source-line="57" data-uid="ent0012" id="entity_OneToOne\nActionParameter"><rect fill="#00FFFF" height="56.5625" rx="2.5" ry="2.5" style="stroke:#181818;stroke-width:0.5;" width="149.5576" x="282.22" y="508.29"/><ellipse cx="297.22" cy="536.5713" fill="#ADD1B2" rx="11" ry="11" style="stroke:#181818;stroke-width:1;"/><path d="M300.1888,542.2119 Q299.6106,542.5088 298.97,542.6494 Q298.3294,542.8056 297.6263,542.8056 Q295.1263,542.8056 293.7981,541.165 Q292.4856,539.5088 292.4856,536.3838 Q292.4856,533.2588 293.7981,531.6025 Q295.1263,529.9463 297.6263,529.9463 Q298.3294,529.9463 298.97,530.1025 Q299.6263,530.2588 300.1888,530.5556 L300.1888,533.2744 Q299.5638,532.6963 298.97,532.4306 Q298.3763,532.1494 297.7513,532.1494 Q296.4075,532.1494 295.72,533.2275 Q295.0325,534.29 295.0325,536.3838 Q295.0325,538.4775 295.72,539.5556 Q296.4075,540.6181 297.7513,540.6181 Q298.3763,540.6181 298.97,540.3525 Q299.5638,540.0713 300.1888,539.4931 L300.1888,542.2119 Z " fill="#000000"/><text fill="#000000" font-family="sans-serif" font-size="12" font-style="italic" lengthAdjust="spacing" textLength="42.5332" x="348.7322" y="524.4287">&#171;desc&#187;</text><text fill="#000000" font-family="sans-serif" font-size="14" lengthAdjust="spacing" textLength="74.1289" x="332.9344" y="540.2539">OneToOne</text><text fill="#000000" font-family="sans-serif" font-size="14" lengthAdjust="spacing" textLength="117.5576" x="311.22" y="556.5507">ActionParameter</text></g><!--class Facet--><g class="entity" data-entity="Facet" data-source-line="60" data-uid="ent0013" id="entity_Facet"><rect fill="#00FFFF" height="40.2656" rx="2.5" ry="2.5" style="stroke:#181818;stroke-width:0.5;" width="70.5332" x="467.73" y="198.01"/><ellipse cx="482.73" cy="218.1428" fill="#B4A7E5" rx="11" ry="11" style="stroke:#181818;stroke-width:1;"/><path d="M478.6519,213.9084 L478.6519,211.7522 L486.0425,211.7522 L486.0425,213.9084 L483.5738,213.9084 L483.5738,221.9866 L486.0425,221.9866 L486.0425,224.1428 L478.6519,224.1428 L478.6519,221.9866 L481.1206,221.9866 L481.1206,213.9084 L478.6519,213.9084 Z " fill="#000000"/><text fill="#000000" font-family="sans-serif" font-size="12" font-style="italic" lengthAdjust="spacing" textLength="42.5332" x="494.73" y="214.1487">&#171;desc&#187;</text><text fill="#000000" font-family="sans-serif" font-size="14" font-style="italic" lengthAdjust="spacing" textLength="38.4316" x="496.7808" y="229.9739">Facet</text></g><!--class OneToMany\nActionParameter--><g class="entity" data-entity="OneToMany\nActionParameter" data-source-line="63" data-uid="ent0014" id="entity_OneToMany\nActionParameter"><rect fill="#00FFFF" height="56.5625" rx="2.5" ry="2.5" style="stroke:#181818;stroke-width:0.5;" width="149.5576" x="467.22" y="508.29"/><ellipse cx="482.22" cy="536.5713" fill="#ADD1B2" rx="11" ry="11" style="stroke:#181818;stroke-width:1;"/><path d="M485.1888,542.2119 Q484.6106,542.5088 483.97,542.6494 Q483.3294,542.8056 482.6263,542.8056 Q480.1263,542.8056 478.7981,541.165 Q477.4856,539.5088 477.4856,536.3838 Q477.4856,533.2588 478.7981,531.6025 Q480.1263,529.9463 482.6263,529.9463 Q483.3294,529.9463 483.97,530.1025 Q484.6263,530.2588 485.1888,530.5556 L485.1888,533.2744 Q484.5638,532.6963 483.97,532.4306 Q483.3763,532.1494 482.7513,532.1494 Q481.4075,532.1494 480.72,533.2275 Q480.0325,534.29 480.0325,536.3838 Q480.0325,538.4775 480.72,539.5556 Q481.4075,540.6181 482.7513,540.6181 Q483.3763,540.6181 483.97,540.3525 Q484.5638,540.0713 485.1888,539.4931 L485.1888,542.2119 Z " fill="#000000"/><text fill="#000000" font-family="sans-serif" font-size="12" font-style="italic" lengthAdjust="spacing" textLength="42.5332" x="533.7322" y="524.4287">&#171;desc&#187;</text><text fill="#000000" font-family="sans-serif" font-size="14" lengthAdjust="spacing" textLength="83.4395" x="513.2791" y="540.2539">OneToMany</text><text fill="#000000" font-family="sans-serif" font-size="14" lengthAdjust="spacing" textLength="117.5576" x="496.22" y="556.5507">ActionParameter</text></g><!--class ManagedObject--><g class="entity" data-entity="ManagedObject" data-source-line="68" data-uid="ent0016" id="entity_ManagedObject"><rect fill="#90EE90" height="80.8594" rx="2.5" ry="2.5" style="stroke:#181818;stroke-width:0.5;" width="149.7988" x="673.1" y="177.71"/><ellipse cx="691.5677" cy="197.8428" fill="#ADD1B2" rx="11" ry="11" style="stroke:#181818;stroke-width:1;"/><path d="M694.5365,203.4834 Q693.9583,203.7803 693.3177,203.9209 Q692.6771,204.0772 691.974,204.0772 Q689.474,204.0772 688.1458,202.4366 Q686.8333,200.7803 686.8333,197.6553 Q686.8333,194.5303 688.1458,192.8741 Q689.474,191.2178 691.974,191.2178 Q692.6771,191.2178 693.3177,191.3741 Q693.974,191.5303 694.5365,191.8272 L694.5365,194.5459 Q693.9115,193.9678 693.3177,193.7022 Q692.724,193.4209 692.099,193.4209 Q690.7552,193.4209 690.0677,194.4991 Q689.3802,195.5616 689.3802,197.6553 Q689.3802,199.7491 690.0677,200.8272 Q690.7552,201.8897 692.099,201.8897 Q692.724,201.8897 693.3177,201.6241 Q693.9115,201.3428 694.5365,200.7647 L694.5365,203.4834 Z " fill="#000000"/><text fill="#000000" font-family="sans-serif" font-size="12" font-style="italic" lengthAdjust="spacing" textLength="34.623" x="744.0732" y="193.8487">&#171;ppt&#187;</text><text fill="#000000" font-family="sans-serif" font-size="14" lengthAdjust="spacing" textLength="110.0928" x="706.3383" y="209.6739">ManagedObject</text><line style="stroke:#181818;stroke-width:0.5;" x1="674.1" x2="821.8988" y1="217.9756" y2="217.9756"/><ellipse cx="684.1" cy="231.6241" fill="#84BE84" rx="3" ry="3" style="stroke:#038048;stroke-width:1;"/><text fill="#000000" font-family="sans-serif" font-size="14" lengthAdjust="spacing" textLength="123.7988" x="693.1" y="234.9707">getSpecification()</text><ellipse cx="684.1" cy="247.9209" fill="#84BE84" rx="3" ry="3" style="stroke:#038048;stroke-width:1;"/><text fill="#000000" font-family="sans-serif" font-size="14" lengthAdjust="spacing" textLength="63.376" x="693.1" y="251.2676">getPojo()</text></g><!--class Bookmark--><g class="entity" data-entity="Bookmark" data-source-line="72" data-uid="ent0017" id="entity_Bookmark"><rect fill="#FFFFFF" height="40.2656" rx="2.5" ry="2.5" style="stroke:#181818;stroke-width:0.5;" width="102.9229" x="684.54" y="53.15"/><ellipse cx="699.54" cy="73.2828" fill="#ADD1B2" rx="11" ry="11" style="stroke:#181818;stroke-width:1;"/><path d="M702.5088,78.9234 Q701.9306,79.2203 701.29,79.3609 Q700.6494,79.5172 699.9463,79.5172 Q697.4463,79.5172 696.1181,77.8766 Q694.8056,76.2203 694.8056,73.0953 Q694.8056,69.9703 696.1181,68.3141 Q697.4463,66.6578 699.9463,66.6578 Q700.6494,66.6578 701.29,66.8141 Q701.9463,66.9703 702.5088,67.2672 L702.5088,69.9859 Q701.8838,69.4078 701.29,69.1422 Q700.6963,68.8609 700.0713,68.8609 Q698.7275,68.8609 698.04,69.9391 Q697.3525,71.0016 697.3525,73.0953 Q697.3525,75.1891 698.04,76.2672 Q698.7275,77.3297 700.0713,77.3297 Q700.6963,77.3297 701.29,77.0641 Q701.8838,76.7828 702.5088,76.2047 L702.5088,78.9234 Z " fill="#000000"/><text fill="#000000" font-family="sans-serif" font-size="12" font-style="italic" lengthAdjust="spacing" textLength="47.4609" x="725.271" y="69.2887">&#171;value&#187;</text><text fill="#000000" font-family="sans-serif" font-size="14" lengthAdjust="spacing" textLength="70.9229" x="713.54" y="85.1139">Bookmark</text></g><!--reverse link LogicalType to Object\nSpecification--><g class="link" data-entity-1="LogicalType" data-entity-2="Object\nSpecification" data-source-line="79" data-uid="lnk19" id="link_LogicalType_Object\nSpecification"><path codeLine="79" d="M323.5026,109.6199 C300.5626,127.0499 276.32,145.47 250.19,165.33" fill="none" id="LogicalType-backto-Object\nSpecification" style="stroke:#181818;stroke-width:1;"/><polygon fill="#181818" points="328.28,105.99,318.6939,108.2499,324.2988,109.0149,323.5338,114.6198,328.28,105.99" style="stroke:#181818;stroke-width:1;"/></g><!--link Object\nSpecification to Object\nMember--><g class="link" data-entity-1="Object\nSpecification" data-entity-2="Object\nMember" data-source-line="80" data-uid="lnk20" id="link_Object\nSpecification_Object\nMember"><path codeLine="80" d="M187.98,271.13 C192.4,309.53 197.5644,354.3493 201.1244,385.2993" fill="none" id="Object\nSpecification-to-Object\nMember" style="stroke:#181818;stroke-width:1;"/><polygon fill="#181818" points="201.81,391.26,204.7554,381.8619,201.2386,386.2928,196.8078,382.776,201.81,391.26" style="stroke:#181818;stroke-width:1;"/><text fill="#000000" font-family="sans-serif" font-size="13" lengthAdjust="spacing" textLength="6.5" x="194.5843" y="380.8658">*</text></g><!--reverse link Object\nMember to Object\nAssociation--><g class="link" data-entity-1="Object\nMember" data-entity-2="Object\nAssociation" data-source-line="81" data-uid="lnk21" id="link_Object\nMember_Object\nAssociation"><path codeLine="81" d="M160.893,460.795 C140.923,478.805 128.37,490.13 108.46,508.09" fill="none" id="Object\nMember-backto-Object\nAssociation" style="stroke:#181818;stroke-width:1;"/><polygon fill="none" points="174.26,448.74,156.8747,456.3394,164.9114,465.2507,174.26,448.74" style="stroke:#181818;stroke-width:1;"/></g><!--reverse link Object\nMember to Object\nAction--><g class="link" data-entity-1="Object\nMember" data-entity-2="Object\nAction" data-source-line="82" data-uid="lnk22" id="link_Object\nMember_Object\nAction"><path codeLine="82" d="M206.1996,466.7339 C206.6696,484.7439 206.81,490.13 207.28,508.09" fill="none" id="Object\nMember-backto-Object\nAction" style="stroke:#181818;stroke-width:1;"/><polygon fill="none" points="205.73,448.74,200.2016,466.8904,212.1975,466.5773,205.73,448.74" style="stroke:#181818;stroke-width:1;"/></g><!--reverse link Object\nAssociation to OneToOne\nAssociation--><g class="link" data-entity-1="Object\nAssociation" data-entity-2="OneToOne\nAssociation" data-source-line="83" data-uid="lnk23" id="link_Object\nAssociation_OneToOne\nAssociation"><path codeLine="83" d="M78,583.3 C78,601.31 78,606.69 78,624.65" fill="none" id="Object\nAssociation-backto-OneToOne\nAssociation" style="stroke:#181818;stroke-width:1;"/><polygon fill="none" points="78,565.3,72,583.3,84,583.3,78,565.3" style="stroke:#181818;stroke-width:1;"/></g><!--reverse link Object\nAssociation to OneToMany\nAssociation--><g class="link" data-entity-1="Object\nAssociation" data-entity-2="OneToMany\nAssociation" data-source-line="84" data-uid="lnk24" id="link_Object\nAssociation_OneToMany\nAssociation"><path codeLine="84" d="M128.3413,576.2695 C151.6813,594.2095 167.68,606.52 191.01,624.45" fill="none" id="Object\nAssociation-backto-OneToMany\nAssociation" style="stroke:#181818;stroke-width:1;"/><polygon fill="none" points="114.07,565.3,124.6848,581.0266,131.9978,571.5124,114.07,565.3" style="stroke:#181818;stroke-width:1;"/></g><!--reverse link Object\nActionParameter to OneToOne\nActionParameter--><g class="link" data-entity-1="Object\nActionParameter" data-entity-2="OneToOne\nActionParameter" data-source-line="85" data-uid="lnk25" id="link_Object\nActionParameter_OneToOne\nActionParameter"><path codeLine="85" d="M358.8004,466.7339 C358.3304,484.7439 358.19,490.13 357.72,508.09" fill="none" id="Object\nActionParameter-backto-OneToOne\nActionParameter" style="stroke:#181818;stroke-width:1;"/><polygon fill="none" points="359.27,448.74,352.8025,466.5773,364.7984,466.8904,359.27,448.74" style="stroke:#181818;stroke-width:1;"/></g><!--reverse link Object\nActionParameter to OneToMany\nActionParameter--><g class="link" data-entity-1="Object\nActionParameter" data-entity-2="OneToMany\nActionParameter" data-source-line="86" data-uid="lnk26" id="link_Object\nActionParameter_OneToMany\nActionParameter"><path codeLine="86" d="M419.2948,458.3265 C447.8048,476.2665 469.54,489.96 498.03,507.89" fill="none" id="Object\nActionParameter-backto-OneToMany\nActionParameter" style="stroke:#181818;stroke-width:1;"/><polygon fill="none" points="404.06,448.74,416.0993,463.4048,422.4903,453.2483,404.06,448.74" style="stroke:#181818;stroke-width:1;"/></g><!--reverse link Object\nActionParameter to Object\nAction--><g class="link" data-entity-1="Object\nActionParameter" data-entity-2="Object\nAction" data-source-line="87" data-uid="lnk28" id="link_Object\nActionParameter_Object\nAction"><path codeLine="87" d="M318.4173,452.3497 C294.5973,470.2897 268.51,489.96 244.72,507.89" fill="none" id="Object\nActionParameter-backto-Object\nAction" style="stroke:#181818;stroke-width:1;"/><polygon fill="#181818" points="323.21,448.74,313.6144,450.9593,319.216,451.748,318.4273,457.3496,323.21,448.74" style="stroke:#181818;stroke-width:1;"/><text fill="#000000" font-family="sans-serif" font-size="13" lengthAdjust="spacing" textLength="6.5" x="309.0551" y="468.2948">*</text></g><!--link Object\nSpecification to FacetHolder--><g class="link" data-entity-1="Object\nSpecification" data-entity-2="FacetHolder" data-source-line="89" data-uid="lnk30" id="link_Object\nSpecification_FacetHolder"><path codeLine="89" d="M280.62,218.14 C292.18,218.14 285.73,218.14 297.28,218.14" fill="none" id="Object\nSpecification-to-FacetHolder" style="stroke:#181818;stroke-width:1;stroke-dasharray:7.0,7.0;"/><polygon fill="none" points="315.28,218.14,297.28,212.14,297.28,224.14,315.28,218.14" style="stroke:#181818;stroke-width:1;"/></g><!--reverse link FacetHolder to Object\nMember--><g class="link" data-entity-1="FacetHolder" data-entity-2="Object\nMember" data-source-line="90" data-uid="lnk31" id="link_FacetHolder_Object\nMember"><path codeLine="90" d="M345.8675,252.4147 C315.6375,288.1647 262.94,350.49 228.28,391.47" fill="none" id="FacetHolder-backto-Object\nMember" style="stroke:#181818;stroke-width:1;stroke-dasharray:7.0,7.0;"/><polygon fill="none" points="357.49,238.67,341.2859,248.5406,350.4491,256.2889,357.49,238.67" style="stroke:#181818;stroke-width:1;"/></g><!--reverse link FacetHolder to Object\nActionParameter--><g class="link" data-entity-1="FacetHolder" data-entity-2="Object\nActionParameter" data-source-line="91" data-uid="lnk32" id="link_FacetHolder_Object\nActionParameter"><path codeLine="91" d="M371.3743,256.6261 C368.8743,292.3761 364.8,350.49 361.93,391.47" fill="none" id="FacetHolder-backto-Object\nActionParameter" style="stroke:#181818;stroke-width:1;stroke-dasharray:7.0,7.0;"/><polygon fill="none" points="372.63,238.67,365.3889,256.2076,377.3597,257.0447,372.63,238.67" style="stroke:#181818;stroke-width:1;"/></g><!--link FacetHolder to Facet--><g class="link" data-entity-1="FacetHolder" data-entity-2="Facet" data-source-line="92" data-uid="lnk33" id="link_FacetHolder_Facet"><path codeLine="92" d="M432.71,218.14 C444.24,218.14 449.77,218.14 461.3,218.14" fill="none" id="FacetHolder-to-Facet" style="stroke:#181818;stroke-width:1;"/><polygon fill="#181818" points="467.3,218.14,458.3,214.14,462.3,218.14,458.3,222.14,467.3,218.14" style="stroke:#181818;stroke-width:1;"/><text fill="#000000" font-family="sans-serif" font-size="13" lengthAdjust="spacing" textLength="6.5" x="453.3704" y="213.6731">*</text></g><!--reverse link Bookmark to ManagedObject--><g class="link" data-entity-1="Bookmark" data-entity-2="ManagedObject" data-source-line="95" data-uid="lnk35" id="link_Bookmark_ManagedObject"><path codeLine="95" d="M738.1429,99.8289 C739.9429,121.2289 742.37,150.11 744.65,177.32" fill="none" id="Bookmark-backto-ManagedObject" style="stroke:#181818;stroke-width:1;"/><polygon fill="#181818" points="737.64,93.85,734.4084,103.1536,738.0591,98.8324,742.3803,102.4831,737.64,93.85" style="stroke:#181818;stroke-width:1;"/></g><!--link Bookmark to LogicalType--><g class="link" data-entity-1="Bookmark" data-entity-2="LogicalType" data-source-line="97" data-uid="lnk36" id="link_Bookmark_LogicalType"><path codeLine="97" d="M684.31,73.29 C598.96,73.29 519.61,73.29 434.26,73.29" fill="none" id="Bookmark-to-LogicalType" style="stroke:#181818;stroke-width:1;"/><polygon fill="#181818" points="428.26,73.29,437.26,77.29,433.26,73.29,437.26,69.29,428.26,73.29" style="stroke:#181818;stroke-width:1;"/></g><!--SRC=[bPHTRziW58Rl-HMeLzqcznTKaTP8sogrMwPLcYPDaoYSEDHy2UDcrfJ_FlmLOqP2neLbECzxuC0BEyu0WpIknHBaCzWQeRhYoX1B9AQ2r3N-Wx1lTuHMfTMDOcijjBszPL3JrGglMwBIW37EnnzukNCVBS09Il89sd1LfHch1KpK3n12xzDSxInnKBQU_RxZ3j8KCVmyKES0hXnOHKHGNficNubeu9WipO1otBKNRDKhXxtK34H-noJ_pLMqPGU4ZET82Vwi7Uap-SFj4mmd_Q1BJebuQWtCIn-Elslld0_qlKEe-lBy0jJzLDyCKBxr2HpNwkYFGAvxiCFksN7qnhTZfzWsGhHV6o9y8c3hBlzd8izC-jYxDfZjDFgUHWixWzQrffpaUGLFsd_-K_58L7k9fFVPbb307_p7VTA2BMhDbBhfBZ6uZ6GkuH9HjAHivh7KJEh0chRnrq7261eo-IG-n8RgfeSbC5O9Rc6-wpUBs4Q_w77e46IzqxgIn5QXrUVr89JqDIuQKwp2ctAAOtglF7drzYeoArfsyQy1JPalYz855IXdD6NHlE8VYw8JtafDj2GkKoQD4abn8M3heasD9IYuAtwAcrwIVgHYTBcvuscTPUB9GxYmtUCxhhOFU5Cjh8n7DqrEH6ZwcyM1q_u2]--></g></svg>