<?xml version="1.0" encoding="UTF-8" standalone="no"?><svg xmlns="http://www.w3.org/2000/svg" xmlns:xlink="http://www.w3.org/1999/xlink" contentStyleType="text/css" height="374px" preserveAspectRatio="none" style="width:789px;height:374px;background:#FFFFFF;" version="1.1" viewBox="0 0 789 374" width="789px" zoomAndPan="magnify"><defs/><g><g id="elem_DO"><ellipse cx="566.7193" cy="119.7587" fill="#F1F1F1" rx="44.7193" ry="26.7587" style="stroke:#181818;stroke-width:0.5;"/><text fill="#000000" font-family="sans-serif" font-size="14" lengthAdjust="spacing" textLength="47" x="543.2193" y="114.9587">Domain</text><text fill="#000000" font-family="sans-serif" font-size="14" lengthAdjust="spacing" textLength="40" x="546.7193" y="131.7586">Object</text></g><g id="elem_E"><ellipse cx="653.734" cy="230.8793" fill="#F1F1F1" rx="36.234" ry="14.8793" style="stroke:#181818;stroke-width:0.5;"/><text fill="#000000" font-family="sans-serif" font-size="14" lengthAdjust="spacing" textLength="35" x="636.234" y="234.4793">Entity</text></g><g id="elem_VM"><ellipse cx="559.6482" cy="230.7587" fill="#F1F1F1" rx="37.6482" ry="26.7587" style="stroke:#181818;stroke-width:0.5;"/><text fill="#000000" font-family="sans-serif" font-size="14" lengthAdjust="spacing" textLength="29" x="545.1482" y="225.9587">View</text><text fill="#000000" font-family="sans-serif" font-size="14" lengthAdjust="spacing" textLength="37" x="541.1482" y="242.7586">Model</text></g><g id="elem_M"><ellipse cx="337.3198" cy="119.8793" fill="#F1F1F1" rx="34.8198" ry="14.8793" style="stroke:#181818;stroke-width:0.5;"/><text fill="#000000" font-family="sans-serif" font-size="14" lengthAdjust="spacing" textLength="33" x="320.8198" y="123.4793">Mixin</text></g><g id="elem_ME"><ellipse cx="429.4411" cy="119.8793" fill="#F1F1F1" rx="36.9411" ry="14.8793" style="stroke:#181818;stroke-width:0.5;"/><text fill="#000000" font-family="sans-serif" font-size="14" lengthAdjust="spacing" textLength="36" x="411.4411" y="123.4793">Mixee</text></g><g id="elem_MB"><ellipse cx="337.3406" cy="230.8793" fill="#F1F1F1" rx="46.8406" ry="14.8793" style="stroke:#181818;stroke-width:0.5;"/><text fill="#000000" font-family="sans-serif" font-size="14" lengthAdjust="spacing" textLength="50" x="312.3406" y="234.4793">Member</text></g><g id="elem_P"><ellipse cx="272.2548" cy="341.8793" fill="#F1F1F1" rx="48.2548" ry="14.8793" style="stroke:#181818;stroke-width:0.5;"/><text fill="#000000" font-family="sans-serif" font-size="14" lengthAdjust="spacing" textLength="52" x="246.2548" y="345.4793">Property</text></g><g id="elem_C"><ellipse cx="393.7391" cy="341.8875" fill="#F1F1F1" rx="53.2391" ry="14.8875" style="stroke:#181818;stroke-width:0.5;"/><text fill="#000000" font-family="sans-serif" font-size="14" lengthAdjust="spacing" textLength="59" x="362.9228" y="345.7989">Collection</text></g><g id="elem_A"><ellipse cx="165.3553" cy="341.8793" fill="#F1F1F1" rx="38.3553" ry="14.8793" style="stroke:#181818;stroke-width:0.5;"/><text fill="#000000" font-family="sans-serif" font-size="14" lengthAdjust="spacing" textLength="38" x="146.3553" y="345.4793">Action</text></g><g id="elem_FW"><ellipse cx="559.3885" cy="341.9777" fill="#F1F1F1" rx="80.3885" ry="18.4777" style="stroke:#181818;stroke-width:0.5;"/><text fill="#000000" font-family="sans-serif" font-size="14" font-style="italic" lengthAdjust="spacing" textLength="118" x="500.3885" y="345.5777">Apache Causeway</text></g><g id="elem_PL"><ellipse cx="721.6899" cy="341.7587" fill="#F1F1F1" rx="61.6899" ry="26.7587" style="stroke:#181818;stroke-width:0.5;"/><text fill="#000000" font-family="sans-serif" font-size="14" lengthAdjust="spacing" textLength="71" x="686.1899" y="336.9587">Persistence</text><text fill="#000000" font-family="sans-serif" font-size="14" lengthAdjust="spacing" textLength="35" x="704.1899" y="353.7586">Layer</text></g><g id="elem_S"><ellipse cx="50.3051" cy="119.8793" fill="#F1F1F1" rx="43.3051" ry="14.8793" style="stroke:#181818;stroke-width:0.5;"/><text fill="#000000" font-family="sans-serif" font-size="14" lengthAdjust="spacing" textLength="45" x="27.8051" y="123.4793">Service</text></g><g id="elem_DS"><ellipse cx="50.7193" cy="230.7587" fill="#F1F1F1" rx="44.7193" ry="26.7587" style="stroke:#181818;stroke-width:0.5;"/><text fill="#000000" font-family="sans-serif" font-size="14" lengthAdjust="spacing" textLength="47" x="27.2193" y="225.9587">Domain</text><text fill="#000000" font-family="sans-serif" font-size="14" lengthAdjust="spacing" textLength="45" x="28.2193" y="242.7586">Service</text></g><g id="elem_SPRING"><ellipse cx="50.4767" cy="20.8793" fill="#F1F1F1" rx="40.4767" ry="14.8793" style="stroke:#181818;stroke-width:0.5;"/><text fill="#000000" font-family="sans-serif" font-size="14" font-style="italic" lengthAdjust="spacing" textLength="41" x="29.9767" y="24.4793">Spring</text></g><!--MD5=[1e04afca7e4c186bc88ae8d654e0637f]
reverse link DO to VM--><g id="link_DO_VM"><path d="M564.48,152.48 C563.44,168.72 562.18,188.31 561.19,203.73 " fill="none" id="DO-backto-VM" style="stroke:#181818;stroke-width:1.0;"/><polygon fill="#181818" points="564.82,147.11,560.2617,155.8405,564.5054,152.1001,568.2459,156.3438,564.82,147.11" style="stroke:#181818;stroke-width:1.0;"/><text fill="#000000" font-family="sans-serif" font-size="13" lengthAdjust="spacing" textLength="19" x="540.2502" y="193.3868">is a</text></g><!--MD5=[8508697190e00d1959ce073bc12ae406]
reverse link DO to E--><g id="link_DO_E"><path d="M588.55,148.62 C605.93,170.4 629.41,199.82 642.85,216.66 " fill="none" id="DO-backto-E" style="stroke:#181818;stroke-width:1.0;"/><polygon fill="#181818" points="585.38,144.65,587.8703,154.1788,588.5,148.5571,594.1217,149.1869,585.38,144.65" style="stroke:#181818;stroke-width:1.0;"/><text fill="#000000" font-family="sans-serif" font-size="13" lengthAdjust="spacing" textLength="19" x="614.932" y="205.2891">is a</text></g><!--MD5=[ea5806870c5fd32f899b3a4dd381e09f]
reverse link VM to FW--><g id="link_VM_FW"><path d="M559.5,263.45 C559.5,282.89 559.5,307.12 559.5,323.28 " fill="none" id="VM-backto-FW" style="stroke:#181818;stroke-width:1.0;stroke-dasharray:7.0,7.0;"/><polygon fill="#181818" points="559.5,258.11,555.5,267.11,559.5,263.11,563.5,267.11,559.5,258.11" style="stroke:#181818;stroke-width:1.0;"/><text fill="#000000" font-family="sans-serif" font-size="13" lengthAdjust="spacing" textLength="52" x="560.5" y="304">manages</text></g><!--MD5=[3d318a2f00e2d8a6bc928f4fd6d1f209]
reverse link E to PL--><g id="link_E_PL"><path d="M664.82,250.14 C676,268.06 693.19,295.61 705.71,315.68 " fill="none" id="E-backto-PL" style="stroke:#181818;stroke-width:1.0;stroke-dasharray:7.0,7.0;"/><polygon fill="#181818" points="662.11,245.8,663.4732,255.5541,664.7536,250.044,670.2636,251.3243,662.11,245.8" style="stroke:#181818;stroke-width:1.0;"/><text fill="#000000" font-family="sans-serif" font-size="13" lengthAdjust="spacing" textLength="52" x="700.5" y="304">manages</text></g><!--MD5=[fb03951c8977dbddaa66e08e228ad265]
reverse link MB to P--><g id="link_MB_P"><path d="M326.65,250.19 C313.77,271.8 292.56,307.37 280.87,326.96 " fill="none" id="MB-backto-P" style="stroke:#181818;stroke-width:1.0;"/><polygon fill="#181818" points="329.27,245.8,321.2179,251.4713,326.7038,250.0912,328.0839,255.5772,329.27,245.8" style="stroke:#181818;stroke-width:1.0;"/><text fill="#000000" font-family="sans-serif" font-size="13" lengthAdjust="spacing" textLength="19" x="261.5327" y="316.527">is a</text></g><!--MD5=[7836793742dd9c4d9c92c79c1667668d]
reverse link MB to C--><g id="link_MB_C"><path d="M347.23,250.94 C358.39,272.65 376.42,307.75 386.35,327.09 " fill="none" id="MB-backto-C" style="stroke:#181818;stroke-width:1.0;"/><polygon fill="#181818" points="344.82,246.25,345.3804,256.0829,347.1074,250.6961,352.4942,252.4231,344.82,246.25" style="stroke:#181818;stroke-width:1.0;"/><text fill="#000000" font-family="sans-serif" font-size="13" lengthAdjust="spacing" textLength="19" x="360.6999" y="316.4285">is a</text></g><!--MD5=[cd1d3de32c1164f3c6ee0cef5a2657ee]
reverse link MB to A--><g id="link_MB_A"><path d="M312.95,247.56 C278.36,269.48 216.03,308.98 184.65,328.86 " fill="none" id="MB-backto-A" style="stroke:#181818;stroke-width:1.0;"/><polygon fill="#181818" points="317.43,244.72,307.6905,246.1836,313.2135,247.4072,311.9899,252.9301,317.43,244.72" style="stroke:#181818;stroke-width:1.0;"/><text fill="#000000" font-family="sans-serif" font-size="13" lengthAdjust="spacing" textLength="19" x="170.6698" y="316.4976">is a</text></g><!--MD5=[df3a0e21e14f1405aaf1784f1a6661b8]
link DO to MB--><g id="link_DO_MB"><path d="M532.22,137.32 C487.4,158.65 409.65,195.66 367.22,215.86 " fill="none" id="DO-to-MB" style="stroke:#181818;stroke-width:1.0;"/><polygon fill="#181818" points="362.47,218.11,372.3151,217.8387,366.9814,215.9542,368.8659,210.6205,362.47,218.11" style="stroke:#181818;stroke-width:1.0;"/><text fill="#000000" font-family="sans-serif" font-size="13" lengthAdjust="spacing" textLength="41" x="466.5" y="181">has 1..*</text></g><!--MD5=[78e04ac827af8dd1fc8e3fb9e2e87134]
link M to MB--><g id="link_M_MB"><path d="M337.5,135.25 C337.5,154.51 337.5,188.91 337.5,210.54 " fill="none" id="M-to-MB" style="stroke:#181818;stroke-width:1.0;stroke-dasharray:7.0,7.0;"/><polygon fill="#181818" points="337.5,215.75,341.5,206.75,337.5,210.75,333.5,206.75,337.5,215.75" style="stroke:#181818;stroke-width:1.0;"/><text fill="#000000" font-family="sans-serif" font-size="13" lengthAdjust="spacing" textLength="63" x="266.8658" y="155.7991">contributes</text><text fill="#000000" font-family="sans-serif" font-size="13" lengthAdjust="spacing" textLength="7" x="296.3658" y="171.3991">a</text></g><!--MD5=[32c794f06a34fd8c446db38a63b9e8ed]
link M to ME--><g id="link_M_ME"><path d="M372.72,120 C377.5,120 382.27,120 387.05,120 " fill="none" id="M-to-ME" style="stroke:#181818;stroke-width:1.0;"/><polygon fill="#181818" points="392.24,120,383.24,116,387.24,120,383.24,124,392.24,120" style="stroke:#181818;stroke-width:1.0;"/><text fill="#000000" font-family="sans-serif" font-size="13" lengthAdjust="spacing" textLength="63" x="357.2097" y="78.7169">contributes</text><text fill="#000000" font-family="sans-serif" font-size="13" lengthAdjust="spacing" textLength="11" x="384.7097" y="94.317">to</text></g><!--MD5=[cb1ffdff54218f1556d86ab3f789ef25]
link DO to ME--><g id="link_DO_ME"><path d="M521.84,120 C505.78,120 487.72,120 471.86,120 " fill="none" id="DO-to-ME" style="stroke:#181818;stroke-width:1.0;"/><polygon fill="#181818" points="466.57,120,475.57,124,471.57,120,475.57,116,466.57,120" style="stroke:#181818;stroke-width:1.0;"/><text fill="#000000" font-family="sans-serif" font-size="13" lengthAdjust="spacing" textLength="21" x="482.25" y="83">can</text><text fill="#000000" font-family="sans-serif" font-size="13" lengthAdjust="spacing" textLength="18" x="485.25" y="98.6">act</text><text fill="#000000" font-family="sans-serif" font-size="13" lengthAdjust="spacing" textLength="13" x="489.25" y="114.2">as</text></g><!--MD5=[aaa5e3decb3a18be11a3ece003ae6d4d]
link SPRING to S--><g id="link_SPRING_S"><path d="M50.5,36.31 C50.5,53.17 50.5,81.25 50.5,99.94 " fill="none" id="SPRING-to-S" style="stroke:#181818;stroke-width:1.0;stroke-dasharray:7.0,7.0;"/><polygon fill="#181818" points="50.5,104.94,54.5,95.94,50.5,99.94,46.5,95.94,50.5,104.94" style="stroke:#181818;stroke-width:1.0;"/><text fill="#000000" font-family="sans-serif" font-size="13" lengthAdjust="spacing" textLength="52" x="51.5" y="58">manages</text></g><!--MD5=[6eb9faedd7ea55fff83c762ffb343295]
reverse link S to DS--><g id="link_S_DS"><path d="M50.5,140.42 C50.5,158.03 50.5,184.13 50.5,203.62 " fill="none" id="S-backto-DS" style="stroke:#181818;stroke-width:1.0;"/><polygon fill="#181818" points="50.5,135.25,46.5,144.25,50.5,140.25,54.5,144.25,50.5,135.25" style="stroke:#181818;stroke-width:1.0;"/><text fill="#000000" font-family="sans-serif" font-size="13" lengthAdjust="spacing" textLength="19" x="29.1309" y="193.25">is a</text></g><!--MD5=[4e12fd745e74cc9b0d722ea0b806bab5]
link DS to A--><g id="link_DS_A"><path d="M73.77,254.06 C95.68,274.82 128,305.46 147.85,324.27 " fill="none" id="DS-to-A" style="stroke:#181818;stroke-width:1.0;"/><polygon fill="#181818" points="151.65,327.87,147.8555,318.7815,148.0157,324.436,142.3611,324.5963,151.65,327.87" style="stroke:#181818;stroke-width:1.0;"/><text fill="#000000" font-family="sans-serif" font-size="13" lengthAdjust="spacing" textLength="41" x="128.5" y="304">has 1..*</text></g><!--MD5=[70086613c2b3a9564f87f19840ffcdbb]
@startuml
skinparam nodesep 20
skinparam ranksep 1

together {
	(Domain\nObject) as DO
	(Entity) as E
	(View\nModel) as VM
}
(<i>Apache Causeway</i>) as FW
(Persistence\nLayer) as PL
together {
	(Mixin) as M
	(Mixee) as ME
}
(Service) as S
(Domain\nService) as DS
(<i>Spring</i>) as SPRING
together {
	(Member) as MB
	(Property) as P
	(Collection) as C
	(Action) as A
}

DO <-d-"is a" VM
DO <-d-"is a" E
FW .u.> VM : manages
PL .u.> E : manages

P "is a"-u-> MB
C "is a"-u-> MB
A "is a"-u-> MB

DO - -> MB : has 1..*

M "contributes\n a"..> MB
M "contributes\n to"-> ME
DO -> ME : can \n act \n as

SPRING ..> S : manages
DS "is a"-u-> S
DS - -> A : has 1..*
@enduml

PlantUML version 1.2022.5(Sat Apr 30 10:55:52 GMT 2022)
(GPL source distribution)
Java Runtime: OpenJDK Runtime Environment
JVM: OpenJDK 64-Bit Server VM
Default Encoding: UTF-8
Language: en
Country: US
--></g></svg>