<?xml version="1.0" encoding="UTF-8" standalone="no"?><svg xmlns="http://www.w3.org/2000/svg" xmlns:xlink="http://www.w3.org/1999/xlink" contentScriptType="application/ecmascript" contentStyleType="text/css" height="729px" preserveAspectRatio="none" style="width:727px;height:729px;" version="1.1" viewBox="0 0 727 729" width="727px" zoomAndPan="magnify"><defs><filter height="300%" id="f1q9c7x0ueqiwj" width="300%" x="-1" y="-1"><feGaussianBlur result="blurOut" stdDeviation="2.0"/><feColorMatrix in="blurOut" result="blurOut2" type="matrix" values="0 0 0 0 0 0 0 0 0 0 0 0 0 0 0 0 0 0 .4 0"/><feOffset dx="4.0" dy="4.0" in="blurOut2" result="blurOut3"/><feBlend in="SourceGraphic" in2="blurOut3" mode="normal"/></filter></defs><g><!--MD5=[9334935552d4be9f1119fee87bd9c090]
cluster metamodel--><polygon fill="#FFFFFF" filter="url(#f1q9c7x0ueqiwj)" points="16,6.6563,91,6.6563,98,31.5508,544,31.5508,544,722.6563,16,722.6563,16,6.6563" style="stroke:#000000;stroke-width:1.5;"/><line style="stroke:#000000;stroke-width:1.5;" x1="16" x2="98" y1="31.5508" y2="31.5508"/><text fill="#000000" font-family="sans-serif" font-size="14" font-weight="bold" lengthAdjust="spacing" textLength="69" x="20" y="23.3945">metamodel</text><!--MD5=[58f92eeca1b9b283e19d96b306260adc]
cluster runtime--><polygon fill="#FFFFFF" filter="url(#f1q9c7x0ueqiwj)" points="568,26.1563,620,26.1563,627,51.0508,710,51.0508,710,293.1563,568,293.1563,568,26.1563" style="stroke:#000000;stroke-width:1.5;"/><line style="stroke:#000000;stroke-width:1.5;" x1="568" x2="627" y1="51.0508" y2="51.0508"/><text fill="#000000" font-family="sans-serif" font-size="14" font-weight="bold" lengthAdjust="spacing" textLength="46" x="572" y="42.8945">runtime</text><!--MD5=[9bd84f0cda9d158e3d4f78628a93cd60]
class Object\nSpecId--><rect codeLine="21" fill="#FFFFFF" filter="url(#f1q9c7x0ueqiwj)" height="81.4316" id="Object\nSpecId" style="stroke:#A80036;stroke-width:1.5;" width="66" x="301" y="43.6563"/><ellipse cx="316" cy="72.9492" fill="#ADD1B2" rx="11" ry="11" style="stroke:#A80036;stroke-width:1.0;"/><path d="M311.9375,73.0898 Q311.9375,69.6367 313.0313,68.0117 Q314.1406,66.3711 316.3594,66.3711 Q317.5625,66.3711 318.8281,67.0273 L318.8281,69.0742 Q317.375,68.293 316.4375,68.293 Q313.9844,68.293 313.9844,73.0898 Q313.9844,75.793 314.6094,76.8555 Q315.25,77.9023 316.4375,77.9023 Q317.4063,77.9023 318.9063,76.9805 L318.9063,79.1836 Q317.6406,79.8086 316.3594,79.8086 Q314.0938,79.8086 313.0156,78.2305 Q311.9375,76.6523 311.9375,73.0898 Z " fill="#000000"/><text fill="#000000" font-family="sans-serif" font-size="12" font-style="italic" lengthAdjust="spacing" textLength="36" x="329" y="61.2891">«value»</text><text fill="#000000" font-family="sans-serif" font-size="12" lengthAdjust="spacing" textLength="33" x="330.5" y="77.4844">Object</text><text fill="#000000" font-family="sans-serif" font-size="12" lengthAdjust="spacing" textLength="34" x="330" y="93.6797">SpecId</text><line style="stroke:#A80036;stroke-width:1.5;" x1="302" x2="366" y1="102.2422" y2="102.2422"/><ellipse cx="312" cy="113.2422" fill="none" rx="3" ry="3" style="stroke:#038048;stroke-width:1.0;"/><text fill="#000000" font-family="sans-serif" font-size="11" lengthAdjust="spacing" textLength="21" x="321" y="117.8223">type</text><!--MD5=[e7dba77a4199cef7594906a5928d38f6]
class Object\nSpecification--><rect codeLine="25" fill="#00FFFF" filter="url(#f1q9c7x0ueqiwj)" height="104.2773" id="Object\nSpecification" style="stroke:#A80036;stroke-width:1.5;" width="145" x="100.5" y="184.6563"/><ellipse cx="136.65" cy="213.9492" fill="#ADD1B2" rx="11" ry="11" style="stroke:#A80036;stroke-width:1.0;"/><path d="M132.5875,214.0898 Q132.5875,210.6367 133.6813,209.0117 Q134.7906,207.3711 137.0094,207.3711 Q138.2125,207.3711 139.4781,208.0273 L139.4781,210.0742 Q138.025,209.293 137.0875,209.293 Q134.6344,209.293 134.6344,214.0898 Q134.6344,216.793 135.2594,217.8555 Q135.9,218.9023 137.0875,218.9023 Q138.0563,218.9023 139.5563,217.9805 L139.5563,220.1836 Q138.2906,220.8086 137.0094,220.8086 Q134.7438,220.8086 133.6656,219.2305 Q132.5875,217.6523 132.5875,214.0898 Z " fill="#000000"/><text fill="#000000" font-family="sans-serif" font-size="12" font-style="italic" lengthAdjust="spacing" textLength="34" x="171.35" y="202.2891">«desc»</text><text fill="#000000" font-family="sans-serif" font-size="12" lengthAdjust="spacing" textLength="33" x="171.85" y="218.4844">Object</text><text fill="#000000" font-family="sans-serif" font-size="12" lengthAdjust="spacing" textLength="66" x="155.35" y="234.6797">Specification</text><line style="stroke:#A80036;stroke-width:1.5;" x1="101.5" x2="244.5" y1="243.2422" y2="243.2422"/><ellipse cx="111.5" cy="254.2422" fill="none" rx="3" ry="3" style="stroke:#038048;stroke-width:1.0;"/><text fill="#000000" font-family="sans-serif" font-size="11" lengthAdjust="spacing" textLength="62" x="120.5" y="258.8223">objectSpecId</text><line style="stroke:#A80036;stroke-width:1.0;stroke-dasharray:1.0,2.0;" x1="101.5" x2="244.5" y1="266.0879" y2="266.0879"/><rect fill="none" height="6" style="stroke:#C82930;stroke-width:1.0;" width="6" x="108.5" y="274.0879"/><text fill="#000000" font-family="sans-serif" font-size="11" lengthAdjust="spacing" textLength="119" x="120.5" y="281.668">fullyQualifiedClassName</text><!--MD5=[1ca98e29750297c77ef424fb76881557]
class Object\nMember--><rect codeLine="31" fill="#00FFFF" filter="url(#f1q9c7x0ueqiwj)" height="58.5859" id="Object\nMember" style="stroke:#A80036;stroke-width:1.5;" width="74" x="148" y="409.6563"/><ellipse cx="163" cy="438.9492" fill="#ADD1B2" rx="11" ry="11" style="stroke:#A80036;stroke-width:1.0;"/><path d="M158.9375,439.0898 Q158.9375,435.6367 160.0313,434.0117 Q161.1406,432.3711 163.3594,432.3711 Q164.5625,432.3711 165.8281,433.0273 L165.8281,435.0742 Q164.375,434.293 163.4375,434.293 Q160.9844,434.293 160.9844,439.0898 Q160.9844,441.793 161.6094,442.8555 Q162.25,443.9023 163.4375,443.9023 Q164.4063,443.9023 165.9063,442.9805 L165.9063,445.1836 Q164.6406,445.8086 163.3594,445.8086 Q161.0938,445.8086 160.0156,444.2305 Q158.9375,442.6523 158.9375,439.0898 Z " fill="#000000"/><text fill="#000000" font-family="sans-serif" font-size="12" font-style="italic" lengthAdjust="spacing" textLength="34" x="181" y="427.2891">«desc»</text><text fill="#000000" font-family="sans-serif" font-size="12" lengthAdjust="spacing" textLength="33" x="181.5" y="443.4844">Object</text><text fill="#000000" font-family="sans-serif" font-size="12" lengthAdjust="spacing" textLength="42" x="177" y="459.6797">Member</text><!--MD5=[236dc35556468579b5ef30f394865326]
class Object\nAction--><rect codeLine="35" fill="#00FFFF" filter="url(#f1q9c7x0ueqiwj)" height="58.5859" id="Object\nAction" style="stroke:#A80036;stroke-width:1.5;" width="65" x="158.5" y="528.6563"/><ellipse cx="173.5" cy="557.9492" fill="#ADD1B2" rx="11" ry="11" style="stroke:#A80036;stroke-width:1.0;"/><path d="M169.4375,558.0898 Q169.4375,554.6367 170.5313,553.0117 Q171.6406,551.3711 173.8594,551.3711 Q175.0625,551.3711 176.3281,552.0273 L176.3281,554.0742 Q174.875,553.293 173.9375,553.293 Q171.4844,553.293 171.4844,558.0898 Q171.4844,560.793 172.1094,561.8555 Q172.75,562.9023 173.9375,562.9023 Q174.9063,562.9023 176.4063,561.9805 L176.4063,564.1836 Q175.1406,564.8086 173.8594,564.8086 Q171.5938,564.8086 170.5156,563.2305 Q169.4375,561.6523 169.4375,558.0898 Z " fill="#000000"/><text fill="#000000" font-family="sans-serif" font-size="12" font-style="italic" lengthAdjust="spacing" textLength="34" x="187" y="546.2891">«desc»</text><text fill="#000000" font-family="sans-serif" font-size="12" lengthAdjust="spacing" textLength="33" x="187.5" y="562.4844">Object</text><text fill="#000000" font-family="sans-serif" font-size="12" lengthAdjust="spacing" textLength="32" x="188" y="578.6797">Action</text><!--MD5=[cc44103bb19bcf3d3cadc52e845b3d92]
class Object\nAssociation--><rect codeLine="39" fill="#00FFFF" filter="url(#f1q9c7x0ueqiwj)" height="58.5859" id="Object\nAssociation" style="stroke:#A80036;stroke-width:1.5;" width="91" x="32.5" y="528.6563"/><ellipse cx="47.5" cy="557.9492" fill="#ADD1B2" rx="11" ry="11" style="stroke:#A80036;stroke-width:1.0;"/><path d="M43.4375,558.0898 Q43.4375,554.6367 44.5313,553.0117 Q45.6406,551.3711 47.8594,551.3711 Q49.0625,551.3711 50.3281,552.0273 L50.3281,554.0742 Q48.875,553.293 47.9375,553.293 Q45.4844,553.293 45.4844,558.0898 Q45.4844,560.793 46.1094,561.8555 Q46.75,562.9023 47.9375,562.9023 Q48.9063,562.9023 50.4063,561.9805 L50.4063,564.1836 Q49.1406,564.8086 47.8594,564.8086 Q45.5938,564.8086 44.5156,563.2305 Q43.4375,561.6523 43.4375,558.0898 Z " fill="#000000"/><text fill="#000000" font-family="sans-serif" font-size="12" font-style="italic" lengthAdjust="spacing" textLength="34" x="74" y="546.2891">«desc»</text><text fill="#000000" font-family="sans-serif" font-size="12" lengthAdjust="spacing" textLength="33" x="74.5" y="562.4844">Object</text><text fill="#000000" font-family="sans-serif" font-size="12" lengthAdjust="spacing" textLength="59" x="61.5" y="578.6797">Association</text><!--MD5=[ffd5e7ba3b20fcc13a678afb28e0866f]
class OneToOne\nAssociation--><rect codeLine="43" fill="#00FFFF" filter="url(#f1q9c7x0ueqiwj)" height="58.5859" id="OneToOne\nAssociation" style="stroke:#A80036;stroke-width:1.5;" width="91" x="32.5" y="647.6563"/><ellipse cx="47.5" cy="676.9492" fill="#ADD1B2" rx="11" ry="11" style="stroke:#A80036;stroke-width:1.0;"/><path d="M43.4375,677.0898 Q43.4375,673.6367 44.5313,672.0117 Q45.6406,670.3711 47.8594,670.3711 Q49.0625,670.3711 50.3281,671.0273 L50.3281,673.0742 Q48.875,672.293 47.9375,672.293 Q45.4844,672.293 45.4844,677.0898 Q45.4844,679.793 46.1094,680.8555 Q46.75,681.9023 47.9375,681.9023 Q48.9063,681.9023 50.4063,680.9805 L50.4063,683.1836 Q49.1406,683.8086 47.8594,683.8086 Q45.5938,683.8086 44.5156,682.2305 Q43.4375,680.6523 43.4375,677.0898 Z " fill="#000000"/><text fill="#000000" font-family="sans-serif" font-size="12" font-style="italic" lengthAdjust="spacing" textLength="34" x="74" y="665.2891">«desc»</text><text fill="#000000" font-family="sans-serif" font-size="12" lengthAdjust="spacing" textLength="52" x="65" y="681.4844">OneToOne</text><text fill="#000000" font-family="sans-serif" font-size="12" lengthAdjust="spacing" textLength="59" x="61.5" y="697.6797">Association</text><!--MD5=[3885f9b3a6a68b2317d3b38f329e94da]
class OneToMany\nAssociation--><rect codeLine="47" fill="#00FFFF" filter="url(#f1q9c7x0ueqiwj)" height="58.5859" id="OneToMany\nAssociation" style="stroke:#A80036;stroke-width:1.5;" width="91" x="158.5" y="647.6563"/><ellipse cx="173.5" cy="676.9492" fill="#ADD1B2" rx="11" ry="11" style="stroke:#A80036;stroke-width:1.0;"/><path d="M169.4375,677.0898 Q169.4375,673.6367 170.5313,672.0117 Q171.6406,670.3711 173.8594,670.3711 Q175.0625,670.3711 176.3281,671.0273 L176.3281,673.0742 Q174.875,672.293 173.9375,672.293 Q171.4844,672.293 171.4844,677.0898 Q171.4844,679.793 172.1094,680.8555 Q172.75,681.9023 173.9375,681.9023 Q174.9063,681.9023 176.4063,680.9805 L176.4063,683.1836 Q175.1406,683.8086 173.8594,683.8086 Q171.5938,683.8086 170.5156,682.2305 Q169.4375,680.6523 169.4375,677.0898 Z " fill="#000000"/><text fill="#000000" font-family="sans-serif" font-size="12" font-style="italic" lengthAdjust="spacing" textLength="34" x="200" y="665.2891">«desc»</text><text fill="#000000" font-family="sans-serif" font-size="12" lengthAdjust="spacing" textLength="59" x="187.5" y="681.4844">OneToMany</text><text fill="#000000" font-family="sans-serif" font-size="12" lengthAdjust="spacing" textLength="59" x="187.5" y="697.6797">Association</text><!--MD5=[3efd7acf70beb98497b74e1a8eca2471]
class FacetHolder--><rect codeLine="51" fill="#00FFFF" filter="url(#f1q9c7x0ueqiwj)" height="42.3906" id="FacetHolder" style="stroke:#A80036;stroke-width:1.5;" width="93" x="280.5" y="215.6563"/><ellipse cx="295.5" cy="236.8516" fill="#B4A7E5" rx="11" ry="11" style="stroke:#A80036;stroke-width:1.0;"/><path d="M298.1563,243.0547 L292.0313,243.0547 L292.0313,241.1641 L294.0313,241.1641 L294.0313,231.8359 L292.0313,231.8359 L292.0313,229.9453 L298.1563,229.9453 L298.1563,231.8359 L296.1563,231.8359 L296.1563,241.1641 L298.1563,241.1641 L298.1563,243.0547 Z " fill="#000000"/><text fill="#000000" font-family="sans-serif" font-size="12" font-style="italic" lengthAdjust="spacing" textLength="34" x="323" y="233.2891">«desc»</text><text fill="#000000" font-family="sans-serif" font-size="12" font-style="italic" lengthAdjust="spacing" textLength="61" x="309.5" y="249.4844">FacetHolder</text><!--MD5=[686c3c3db2e48a4996b4670260839994]
class Object\nActionParameter--><rect codeLine="54" fill="#00FFFF" filter="url(#f1q9c7x0ueqiwj)" height="58.5859" id="Object\nActionParameter" style="stroke:#A80036;stroke-width:1.5;" width="117" x="263.5" y="409.6563"/><ellipse cx="278.5" cy="438.9492" fill="#ADD1B2" rx="11" ry="11" style="stroke:#A80036;stroke-width:1.0;"/><path d="M274.4375,439.0898 Q274.4375,435.6367 275.5313,434.0117 Q276.6406,432.3711 278.8594,432.3711 Q280.0625,432.3711 281.3281,433.0273 L281.3281,435.0742 Q279.875,434.293 278.9375,434.293 Q276.4844,434.293 276.4844,439.0898 Q276.4844,441.793 277.1094,442.8555 Q277.75,443.9023 278.9375,443.9023 Q279.9063,443.9023 281.4063,442.9805 L281.4063,445.1836 Q280.1406,445.8086 278.8594,445.8086 Q276.5938,445.8086 275.5156,444.2305 Q274.4375,442.6523 274.4375,439.0898 Z " fill="#000000"/><text fill="#000000" font-family="sans-serif" font-size="12" font-style="italic" lengthAdjust="spacing" textLength="34" x="318" y="427.2891">«desc»</text><text fill="#000000" font-family="sans-serif" font-size="12" lengthAdjust="spacing" textLength="33" x="318.5" y="443.4844">Object</text><text fill="#000000" font-family="sans-serif" font-size="12" lengthAdjust="spacing" textLength="85" x="292.5" y="459.6797">ActionParameter</text><!--MD5=[873294963b1ef1e6f684c01f03f3e5c3]
class OneToOne\nActionParameter--><rect codeLine="57" fill="#00FFFF" filter="url(#f1q9c7x0ueqiwj)" height="58.5859" id="OneToOne\nActionParameter" style="stroke:#A80036;stroke-width:1.5;" width="117" x="258.5" y="528.6563"/><ellipse cx="273.5" cy="557.9492" fill="#ADD1B2" rx="11" ry="11" style="stroke:#A80036;stroke-width:1.0;"/><path d="M269.4375,558.0898 Q269.4375,554.6367 270.5313,553.0117 Q271.6406,551.3711 273.8594,551.3711 Q275.0625,551.3711 276.3281,552.0273 L276.3281,554.0742 Q274.875,553.293 273.9375,553.293 Q271.4844,553.293 271.4844,558.0898 Q271.4844,560.793 272.1094,561.8555 Q272.75,562.9023 273.9375,562.9023 Q274.9063,562.9023 276.4063,561.9805 L276.4063,564.1836 Q275.1406,564.8086 273.8594,564.8086 Q271.5938,564.8086 270.5156,563.2305 Q269.4375,561.6523 269.4375,558.0898 Z " fill="#000000"/><text fill="#000000" font-family="sans-serif" font-size="12" font-style="italic" lengthAdjust="spacing" textLength="34" x="313" y="546.2891">«desc»</text><text fill="#000000" font-family="sans-serif" font-size="12" lengthAdjust="spacing" textLength="52" x="304" y="562.4844">OneToOne</text><text fill="#000000" font-family="sans-serif" font-size="12" lengthAdjust="spacing" textLength="85" x="287.5" y="578.6797">ActionParameter</text><!--MD5=[badba6705019ea2f9274326cbe645d80]
class Facet--><rect codeLine="60" fill="#00FFFF" filter="url(#f1q9c7x0ueqiwj)" height="42.3906" id="Facet" style="stroke:#A80036;stroke-width:1.5;" width="62" x="408" y="215.6563"/><ellipse cx="423" cy="236.8516" fill="#B4A7E5" rx="11" ry="11" style="stroke:#A80036;stroke-width:1.0;"/><path d="M425.6563,243.0547 L419.5313,243.0547 L419.5313,241.1641 L421.5313,241.1641 L421.5313,231.8359 L419.5313,231.8359 L419.5313,229.9453 L425.6563,229.9453 L425.6563,231.8359 L423.6563,231.8359 L423.6563,241.1641 L425.6563,241.1641 L425.6563,243.0547 Z " fill="#000000"/><text fill="#000000" font-family="sans-serif" font-size="12" font-style="italic" lengthAdjust="spacing" textLength="34" x="435" y="233.2891">«desc»</text><text fill="#000000" font-family="sans-serif" font-size="12" font-style="italic" lengthAdjust="spacing" textLength="28" x="438" y="249.4844">Facet</text><!--MD5=[e4bd214989e251692ad5ab01beff51ac]
class OneToMany\nActionParameter--><rect codeLine="63" fill="#00FFFF" filter="url(#f1q9c7x0ueqiwj)" height="58.5859" id="OneToMany\nActionParameter" style="stroke:#A80036;stroke-width:1.5;" width="117" x="410.5" y="528.6563"/><ellipse cx="425.5" cy="557.9492" fill="#ADD1B2" rx="11" ry="11" style="stroke:#A80036;stroke-width:1.0;"/><path d="M421.4375,558.0898 Q421.4375,554.6367 422.5313,553.0117 Q423.6406,551.3711 425.8594,551.3711 Q427.0625,551.3711 428.3281,552.0273 L428.3281,554.0742 Q426.875,553.293 425.9375,553.293 Q423.4844,553.293 423.4844,558.0898 Q423.4844,560.793 424.1094,561.8555 Q424.75,562.9023 425.9375,562.9023 Q426.9063,562.9023 428.4063,561.9805 L428.4063,564.1836 Q427.1406,564.8086 425.8594,564.8086 Q423.5938,564.8086 422.5156,563.2305 Q421.4375,561.6523 421.4375,558.0898 Z " fill="#000000"/><text fill="#000000" font-family="sans-serif" font-size="12" font-style="italic" lengthAdjust="spacing" textLength="34" x="465" y="546.2891">«desc»</text><text fill="#000000" font-family="sans-serif" font-size="12" lengthAdjust="spacing" textLength="59" x="452.5" y="562.4844">OneToMany</text><text fill="#000000" font-family="sans-serif" font-size="12" lengthAdjust="spacing" textLength="85" x="439.5" y="578.6797">ActionParameter</text><!--MD5=[295831136e401ce982bf01b2da4cd370]
class Object\nAdapter--><rect codeLine="68" fill="#90EE90" filter="url(#f1q9c7x0ueqiwj)" height="81.4316" id="Object\nAdapter" style="stroke:#A80036;stroke-width:1.5;" width="111" x="583.5" y="196.1563"/><ellipse cx="616.5" cy="225.4492" fill="#ADD1B2" rx="11" ry="11" style="stroke:#A80036;stroke-width:1.0;"/><path d="M612.4375,225.5898 Q612.4375,222.1367 613.5313,220.5117 Q614.6406,218.8711 616.8594,218.8711 Q618.0625,218.8711 619.3281,219.5273 L619.3281,221.5742 Q617.875,220.793 616.9375,220.793 Q614.4844,220.793 614.4844,225.5898 Q614.4844,228.293 615.1094,229.3555 Q615.75,230.4023 616.9375,230.4023 Q617.9063,230.4023 619.4063,229.4805 L619.4063,231.6836 Q618.1406,232.3086 616.8594,232.3086 Q614.5938,232.3086 613.5156,230.7305 Q612.4375,229.1523 612.4375,225.5898 Z " fill="#000000"/><text fill="#000000" font-family="sans-serif" font-size="12" font-style="italic" lengthAdjust="spacing" textLength="26" x="641" y="213.7891">«ppt»</text><text fill="#000000" font-family="sans-serif" font-size="12" lengthAdjust="spacing" textLength="33" x="637.5" y="229.9844">Object</text><text fill="#000000" font-family="sans-serif" font-size="12" lengthAdjust="spacing" textLength="39" x="634.5" y="246.1797">Adapter</text><line style="stroke:#A80036;stroke-width:1.5;" x1="584.5" x2="693.5" y1="254.7422" y2="254.7422"/><ellipse cx="594.5" cy="265.7422" fill="#84BE84" rx="3" ry="3" style="stroke:#038048;stroke-width:1.0;"/><text fill="#000000" font-family="sans-serif" font-size="11" lengthAdjust="spacing" textLength="85" x="603.5" y="270.3223">getSpecification()</text><!--MD5=[e7f5c71d6a25cf33dcd8a1ca95ea4521]
class Oid--><rect codeLine="71" fill="#FFFFFF" filter="url(#f1q9c7x0ueqiwj)" height="42.3906" id="Oid" style="stroke:#A80036;stroke-width:1.5;" width="64" x="595" y="63.1563"/><ellipse cx="610" cy="84.3516" fill="#ADD1B2" rx="11" ry="11" style="stroke:#A80036;stroke-width:1.0;"/><path d="M605.9375,84.4922 Q605.9375,81.0391 607.0313,79.4141 Q608.1406,77.7734 610.3594,77.7734 Q611.5625,77.7734 612.8281,78.4297 L612.8281,80.4766 Q611.375,79.6953 610.4375,79.6953 Q607.9844,79.6953 607.9844,84.4922 Q607.9844,87.1953 608.6094,88.2578 Q609.25,89.3047 610.4375,89.3047 Q611.4063,89.3047 612.9063,88.3828 L612.9063,90.5859 Q611.6406,91.2109 610.3594,91.2109 Q608.0938,91.2109 607.0156,89.6328 Q605.9375,88.0547 605.9375,84.4922 Z " fill="#000000"/><text fill="#000000" font-family="sans-serif" font-size="12" font-style="italic" lengthAdjust="spacing" textLength="36" x="622" y="80.7891">«value»</text><text fill="#000000" font-family="sans-serif" font-size="12" lengthAdjust="spacing" textLength="17" x="631.5" y="96.9844">Oid</text><!--MD5=[8b3c5d30e37d4769ea7c3c6b1ba6613f]
reverse link Object\nSpecId to Object\nSpecification--><path codeLine="78" d="M296.88,119.8563 C276.42,138.9863 250.62,163.1063 227.87,184.3663 " fill="none" id="Object\nSpecId-backto-Object\nSpecification" style="stroke:#A80036;stroke-width:1.0;"/><polygon fill="#A80036" points="300.64,116.3362,291.3317,119.5542,296.9852,119.7483,296.791,125.4019,300.64,116.3362" style="stroke:#A80036;stroke-width:1.0;"/><!--MD5=[ed7878ac517ae046682c90f495e7c07d]
link Object\nSpecification to Object\nMember--><path codeLine="79" d="M176.06,288.7663 C178.23,324.9663 181.07,372.5063 182.96,404.1363 " fill="none" id="Object\nSpecification-to-Object\nMember" style="stroke:#A80036;stroke-width:1.0;"/><polygon fill="#A80036" points="183.28,409.4563,186.7322,400.2322,182.9797,404.4653,178.7467,400.7128,183.28,409.4563" style="stroke:#A80036;stroke-width:1.0;"/><text fill="#000000" font-family="sans-serif" font-size="13" lengthAdjust="spacing" textLength="8" x="174.0288" y="397.8904">*</text><!--MD5=[2bdd6bc466205d5f314f0051faa7f01c]
reverse link Object\nMember to Object\nAssociation--><path codeLine="80" d="M145.21,483.6663 C131.54,498.6063 116.6,514.9563 104.28,528.4263 " fill="none" id="Object\nMember-backto-Object\nAssociation" style="stroke:#A80036;stroke-width:1.0;"/><polygon fill="none" points="140.16,478.8163,158.82,468.7763,150.49,488.2563,140.16,478.8163" style="stroke:#A80036;stroke-width:1.0;"/><!--MD5=[241503ab21274031e0e27ca51ddcf3f4]
reverse link Object\nMember to Object\nAction--><path codeLine="81" d="M187.5,488.9063 C188.19,502.3563 188.92,516.5163 189.53,528.4263 " fill="none" id="Object\nMember-backto-Object\nAction" style="stroke:#A80036;stroke-width:1.0;"/><polygon fill="none" points="180.5,489.1063,186.47,468.7763,194.48,488.3963,180.5,489.1063" style="stroke:#A80036;stroke-width:1.0;"/><!--MD5=[7b1dd17f101192166ad8ece1c1058fee]
reverse link Object\nAssociation to OneToOne\nAssociation--><path codeLine="82" d="M78,607.9063 C78,621.3563 78,635.5163 78,647.4263 " fill="none" id="Object\nAssociation-backto-OneToOne\nAssociation" style="stroke:#A80036;stroke-width:1.0;"/><polygon fill="none" points="71,607.7763,78,587.7763,85,607.7763,71,607.7763" style="stroke:#A80036;stroke-width:1.0;"/><!--MD5=[c4d38020f98201eb2fe41c2e8b25f5c7]
reverse link Object\nAssociation to OneToMany\nAssociation--><path codeLine="83" d="M123.59,601.4863 C140.02,616.7463 158.17,633.5963 173.06,647.4263 " fill="none" id="Object\nAssociation-backto-OneToMany\nAssociation" style="stroke:#A80036;stroke-width:1.0;"/><polygon fill="none" points="118.72,606.5163,108.82,587.7763,128.24,596.2563,118.72,606.5163" style="stroke:#A80036;stroke-width:1.0;"/><!--MD5=[fed48b2c8a9a486fb23584c154f1ec15]
reverse link Object\nActionParameter to OneToOne\nActionParameter--><path codeLine="84" d="M319.92,488.9063 C319.34,502.3563 318.74,516.5163 318.23,528.4263 " fill="none" id="Object\nActionParameter-backto-OneToOne\nActionParameter" style="stroke:#A80036;stroke-width:1.0;"/><polygon fill="none" points="312.93,488.4563,320.78,468.7763,326.92,489.0563,312.93,488.4563" style="stroke:#A80036;stroke-width:1.0;"/><!--MD5=[6af0f7e8de7c83f30bca28014b14a2cb]
reverse link Object\nActionParameter to OneToMany\nActionParameter--><path codeLine="85" d="M373.78,481.3663 C393.41,496.9963 415.31,514.4263 433.16,528.6263 " fill="none" id="Object\nActionParameter-backto-OneToMany\nActionParameter" style="stroke:#A80036;stroke-width:1.0;"/><polygon fill="none" points="369.25,486.7063,357.96,468.7763,377.97,475.7563,369.25,486.7063" style="stroke:#A80036;stroke-width:1.0;"/><!--MD5=[b2b29efb307806de1bba54f1e5dc2be6]
reverse link Object\nActionParameter to Object\nAction--><path codeLine="86" d="M286.08,472.2363 C266.41,489.8063 242.22,511.4063 223.17,528.4263 " fill="none" id="Object\nActionParameter-backto-Object\nAction" style="stroke:#A80036;stroke-width:1.0;"/><polygon fill="#A80036" points="289.95,468.7763,280.5723,471.7859,286.2201,472.106,285.8999,477.7538,289.95,468.7763" style="stroke:#A80036;stroke-width:1.0;"/><text fill="#000000" font-family="sans-serif" font-size="13" lengthAdjust="spacing" textLength="8" x="275.078" y="489.8198">*</text><!--MD5=[6386275b757e9a32ce38551d9fe44fc9]
link Object\nSpecification to FacetHolder--><path codeLine="88" d="M245.79,236.6563 C250.56,236.6563 255.33,236.6563 260.11,236.6563 " fill="none" id="Object\nSpecification-to-FacetHolder" style="stroke:#A80036;stroke-width:1.0;stroke-dasharray:7.0,7.0;"/><polygon fill="none" points="260.37,229.6563,280.37,236.6563,260.37,243.6563,260.37,229.6563" style="stroke:#A80036;stroke-width:1.0;"/><!--MD5=[7ed1b40c9d8e1ede63264d1d3150c096]
reverse link FacetHolder to Object\nMember--><path codeLine="89" d="M300.97,274.4063 C273.43,313.3063 230.53,373.8763 205.35,409.4263 " fill="none" id="FacetHolder-backto-Object\nMember" style="stroke:#A80036;stroke-width:1.0;stroke-dasharray:7.0,7.0;"/><polygon fill="none" points="295.33,270.2563,312.6,257.9863,306.76,278.3563,295.33,270.2563" style="stroke:#A80036;stroke-width:1.0;"/><!--MD5=[6d10f057513b3b6ea03cfbefdadc4b76]
reverse link FacetHolder to Object\nActionParameter--><path codeLine="90" d="M325.99,278.1563 C325.02,317.1063 323.57,374.9963 322.72,409.4263 " fill="none" id="FacetHolder-backto-Object\nActionParameter" style="stroke:#A80036;stroke-width:1.0;stroke-dasharray:7.0,7.0;"/><polygon fill="none" points="319,277.8063,326.49,257.9863,332.99,278.1563,319,277.8063" style="stroke:#A80036;stroke-width:1.0;"/><!--MD5=[78d434f5ba83524917ac2512edcf96ee]
link FacetHolder to Facet--><path codeLine="91" d="M373.81,236.6563 C383.5,236.6563 393.18,236.6563 402.87,236.6563 " fill="none" id="FacetHolder-to-Facet" style="stroke:#A80036;stroke-width:1.0;"/><polygon fill="#A80036" points="407.93,236.6563,398.93,232.6563,402.93,236.6563,398.93,240.6563,407.93,236.6563" style="stroke:#A80036;stroke-width:1.0;"/><text fill="#000000" font-family="sans-serif" font-size="13" lengthAdjust="spacing" textLength="8" x="391.8201" y="231.394">*</text><!--MD5=[c65fd9c027a949229ee33a1638947856]
reverse link Oid to Object\nAdapter--><path codeLine="94" d="M629.02,110.5462 C630.89,133.9063 633.68,168.9163 635.84,195.9662 " fill="none" id="Oid-backto-Object\nAdapter" style="stroke:#A80036;stroke-width:1.0;"/><polygon fill="#A80036" points="628.62,105.4562,625.3526,114.7473,629.0199,110.4402,633.3269,114.1075,628.62,105.4562" style="stroke:#A80036;stroke-width:1.0;"/><!--MD5=[43126a164b30e63a2d12c938be1a2b0f]
link Oid to Object\nSpecId--><path codeLine="96" d="M594.78,84.1563 C520.69,84.1563 446.61,84.1563 372.53,84.1563 " fill="none" id="Oid-to-Object\nSpecId" style="stroke:#A80036;stroke-width:1.0;"/><polygon fill="#A80036" points="367.19,84.1563,376.19,88.1563,372.19,84.1563,376.19,80.1563,367.19,84.1563" style="stroke:#A80036;stroke-width:1.0;"/><!--MD5=[6f61920ce7b5feccf90b5a8b7a4d3ceb]
@startuml
hide empty members

skinparam class {
    BackgroundColor<<desc>> Cyan
    BackgroundColor<<ppt>> LightGreen
    BackgroundColor<<mi>> LightPink
    BackgroundColor<<role>> LightYellow
    BackgroundColor<<strategy>> White
    BackgroundColor<<api>> White
    BackgroundColor<<spi>> White
    BackgroundColor<<internal>> LightGrey
    BackgroundColor<<value>> White

    BackgroundColor<<entity>> LightGreen
    BackgroundColor<<viewmodel>> LightPink
    BackgroundColor<<mixin>> LightYellow
}

package metamodel {

    class Object\nSpecId<<value>> {
        +type
    }

    class Object\nSpecification<<desc>> {
        +objectSpecId
        ....
        -fullyQualifiedClassName
    }

    class Object\nMember<<desc>> {

    }

    class Object\nAction<<desc>> {

    }

    class Object\nAssociation<<desc>> {

    }

    class OneToOne\nAssociation<<desc>> {

    }

    class OneToMany\nAssociation<<desc>> {

    }

    interface FacetHolder<<desc>> {
    }

    class Object\nActionParameter<<desc>> {
    }

    class OneToOne\nActionParameter<<desc>> {
    }

    interface Facet<<desc>> {
    }

    class OneToMany\nActionParameter<<desc>> {
    }
}

package runtime {
    class Object\nAdapter<<ppt>> {
        +getSpecification()
    }
    class Oid<<value>> {

    }
}



Object\nSpecification -up-> Object\nSpecId
Object\nSpecification -down-> "*" Object\nMember
Object\nMember ^-down- Object\nAssociation
Object\nMember ^-down- Object\nAction
Object\nAssociation ^-down- OneToOne\nAssociation
Object\nAssociation ^-down- OneToMany\nAssociation
Object\nActionParameter ^-down- OneToOne\nActionParameter
Object\nActionParameter ^-down- OneToMany\nActionParameter
Object\nAction -left-> "*" Object\nActionParameter

FacetHolder ^-.left- Object\nSpecification
FacetHolder ^-.down- Object\nMember
FacetHolder ^-.down- Object\nActionParameter
FacetHolder -right-> "*" Facet


Object\nAdapter  -up-> Oid

Oid -right-> Object\nSpecId
@enduml

PlantUML version 1.2021.01(Tue Feb 02 07:55:08 GMT 2021)
(GPL source distribution)
Java Runtime: OpenJDK Runtime Environment
JVM: OpenJDK 64-Bit Server VM
Default Encoding: UTF-8
Language: en
Country: US
--></g></svg>