<?xml version="1.0" encoding="us-ascii" standalone="no"?><svg xmlns="http://www.w3.org/2000/svg" xmlns:xlink="http://www.w3.org/1999/xlink" contentStyleType="text/css" height="484px" preserveAspectRatio="none" style="width:1019px;height:484px;background:#FFFFFF;" version="1.1" viewBox="0 0 1019 484" width="1019px" zoomAndPan="magnify"><defs/><g><g id="elem_EB"><ellipse cx="764.0024" cy="177.9273" fill="#F1F1F1" rx="39.0624" ry="26.0473" style="stroke:#181818;stroke-width:0.5;"/><text fill="#000000" font-family="sans-serif" font-size="14" lengthAdjust="spacing" textLength="39" x="744.5024" y="172.6255">Event</text><text fill="#000000" font-family="sans-serif" font-size="14" lengthAdjust="spacing" textLength="27" x="750.5024" y="188.9224">Bus</text></g><g id="elem_SPRING"><ellipse cx="941.9991" cy="177.9313" fill="#F1F1F1" rx="42.8991" ry="14.6113" style="stroke:#181818;stroke-width:0.5;"/><text fill="#000000" font-family="sans-serif" font-size="14" lengthAdjust="spacing" textLength="44" x="916.9991" y="181.6788">Spring</text></g><g id="elem_EL"><ellipse cx="763.9962" cy="32.0473" fill="#F1F1F1" rx="50.3762" ry="26.0473" style="stroke:#181818;stroke-width:0.5;"/><text fill="#000000" font-family="sans-serif" font-size="14" lengthAdjust="spacing" textLength="39" x="744.4962" y="26.7455">Event</text><text fill="#000000" font-family="sans-serif" font-size="14" lengthAdjust="spacing" textLength="55" x="736.4962" y="43.0424">Listener</text></g><g id="elem_LCE"><ellipse cx="535.9978" cy="177.9273" fill="#F1F1F1" rx="74.4178" ry="26.0473" style="stroke:#181818;stroke-width:0.5;"/><text fill="#000000" font-family="sans-serif" font-size="14" font-style="italic" lengthAdjust="spacing" textLength="45" x="513.4978" y="172.6255">Object</text><text fill="#000000" font-family="sans-serif" font-size="14" lengthAdjust="spacing" textLength="89" x="491.4978" y="188.9224">LifecyleEvent</text></g><g id="elem_C"><ellipse cx="962.9962" cy="323.8073" fill="#F1F1F1" rx="50.3762" ry="26.0473" style="stroke:#181818;stroke-width:0.5;"/><text fill="#000000" font-family="sans-serif" font-size="14" lengthAdjust="spacing" textLength="55" x="935.4962" y="318.5055">Created</text><text fill="#000000" font-family="sans-serif" font-size="14" lengthAdjust="spacing" textLength="39" x="943.4962" y="334.8024">Event</text></g><g id="elem_L"><ellipse cx="829.9977" cy="323.8073" fill="#F1F1F1" rx="47.5477" ry="26.0473" style="stroke:#181818;stroke-width:0.5;"/><text fill="#000000" font-family="sans-serif" font-size="14" lengthAdjust="spacing" textLength="51" x="804.4977" y="318.5055">Loaded</text><text fill="#000000" font-family="sans-serif" font-size="14" lengthAdjust="spacing" textLength="39" x="810.4977" y="334.8024">Event</text></g><g id="elem_PNG"><ellipse cx="687.9985" cy="323.8073" fill="#F1F1F1" rx="59.5685" ry="26.0473" style="stroke:#181818;stroke-width:0.5;"/><text fill="#000000" font-family="sans-serif" font-size="14" lengthAdjust="spacing" textLength="68" x="653.9985" y="318.5055">Persisting</text><text fill="#000000" font-family="sans-serif" font-size="14" lengthAdjust="spacing" textLength="39" x="668.4985" y="334.8024">Event</text></g><g id="elem_PED"><ellipse cx="535.9972" cy="323.8073" fill="#F1F1F1" rx="57.4472" ry="26.0473" style="stroke:#181818;stroke-width:0.5;"/><text fill="#000000" font-family="sans-serif" font-size="14" lengthAdjust="spacing" textLength="65" x="503.4972" y="318.5055">Persisted</text><text fill="#000000" font-family="sans-serif" font-size="14" lengthAdjust="spacing" textLength="39" x="516.4972" y="334.8024">Event</text></g><g id="elem_UNG"><ellipse cx="387.9959" cy="323.8073" fill="#F1F1F1" rx="55.3259" ry="26.0473" style="stroke:#181818;stroke-width:0.5;"/><text fill="#000000" font-family="sans-serif" font-size="14" lengthAdjust="spacing" textLength="62" x="356.9959" y="318.5055">Updating</text><text fill="#000000" font-family="sans-serif" font-size="14" lengthAdjust="spacing" textLength="39" x="368.4959" y="334.8024">Event</text></g><g id="elem_UED"><ellipse cx="244.0046" cy="323.8073" fill="#F1F1F1" rx="53.2046" ry="26.0473" style="stroke:#181818;stroke-width:0.5;"/><text fill="#000000" font-family="sans-serif" font-size="14" lengthAdjust="spacing" textLength="59" x="214.5046" y="318.5055">Updated</text><text fill="#000000" font-family="sans-serif" font-size="14" lengthAdjust="spacing" textLength="39" x="224.5046" y="334.8024">Event</text></g><g id="elem_RNG"><ellipse cx="95.9956" cy="323.8073" fill="#F1F1F1" rx="60.2756" ry="26.0473" style="stroke:#181818;stroke-width:0.5;"/><text fill="#000000" font-family="sans-serif" font-size="14" lengthAdjust="spacing" textLength="69" x="61.4956" y="318.5055">Removing</text><text fill="#000000" font-family="sans-serif" font-size="14" lengthAdjust="spacing" textLength="39" x="76.4956" y="334.8024">Event</text></g><g id="elem_FS"><ellipse cx="963.0006" cy="452.8973" fill="#F1F1F1" rx="46.8406" ry="26.0473" style="stroke:#181818;stroke-width:0.5;"/><text fill="#000000" font-family="sans-serif" font-size="14" lengthAdjust="spacing" textLength="50" x="938.0006" y="447.5955">Factory</text><text fill="#000000" font-family="sans-serif" font-size="14" lengthAdjust="spacing" textLength="50" x="938.0006" y="463.8924">Service</text></g><g id="elem_RS"><ellipse cx="427.0012" cy="452.8973" fill="#F1F1F1" rx="63.8112" ry="26.0473" style="stroke:#181818;stroke-width:0.5;"/><text fill="#000000" font-family="sans-serif" font-size="14" lengthAdjust="spacing" textLength="74" x="390.0012" y="447.5955">Repository</text><text fill="#000000" font-family="sans-serif" font-size="14" lengthAdjust="spacing" textLength="50" x="402.0012" y="463.8924">Service</text></g><g id="elem_GMN47"><path d="M6,135.1 L6,220.7641 A0,0 0 0 0 6,220.7641 L92,220.7641 L96,297.67 L100,220.7641 L186,220.7641 A0,0 0 0 0 186,220.7641 L186,145.1 L176,135.1 L6,135.1 A0,0 0 0 0 6,135.1 " fill="#FEFFDD" style="stroke:#181818;stroke-width:0.5;"/><path d="M176,135.1 L176,145.1 L186,145.1 L176,135.1 " fill="#FEFFDD" style="stroke:#181818;stroke-width:0.5;"/><text fill="#000000" font-family="sans-serif" font-size="13" lengthAdjust="spacing" textLength="107" x="12" y="152.1669">JDO/Datanucleus</text><text fill="#000000" font-family="sans-serif" font-size="13" lengthAdjust="spacing" textLength="109" x="12" y="167.2997">does not support</text><text fill="#000000" font-family="sans-serif" font-size="13" lengthAdjust="spacing" textLength="105" x="12" y="182.4325">something like a</text><text fill="#000000" font-family="sans-serif" font-size="13" lengthAdjust="spacing" textLength="114" x="12" y="197.5653">"Removed Event".</text><text fill="#000000" font-family="sans-serif" font-size="13" lengthAdjust="spacing" textLength="159" x="12" y="212.6981">Hence not implemented.</text></g><!--reverse link EB to SPRING--><g id="link_EB_SPRING"><path d="M809.5,177.93 C837.77,177.93 869.81,177.93 898.87,177.93 " fill="none" id="EB-backto-SPRING" style="stroke:#181818;stroke-width:1.0;stroke-dasharray:7.0,7.0;"/><polygon fill="#181818" points="803.5,177.93,812.5,181.93,808.5,177.93,812.5,173.93,803.5,177.93" style="stroke:#181818;stroke-width:1.0;"/><text fill="#000000" font-family="sans-serif" font-size="13" lengthAdjust="spacing" textLength="58" x="822.08" y="155.9969">provides/</text><text fill="#000000" font-family="sans-serif" font-size="13" lengthAdjust="spacing" textLength="60" x="821.08" y="171.1297">manages</text></g><!--link EL to EB--><g id="link_EL_EB"><path d="M764,58.44 C764,84.74 764,119.59 764,145.79 " fill="none" id="EL-to-EB" style="stroke:#181818;stroke-width:1.0;"/><polygon fill="#181818" points="764,151.79,768,142.79,764,146.79,760,142.79,764,151.79" style="stroke:#181818;stroke-width:1.0;"/><text fill="#000000" font-family="sans-serif" font-size="13" lengthAdjust="spacing" textLength="41" x="765" y="101.1669">listens</text></g><!--link LCE to EB--><g id="link_LCE_EB"><path d="M610.66,177.93 C648.71,177.93 687.43,177.93 718.72,177.93 " fill="none" id="LCE-to-EB" style="stroke:#181818;stroke-width:1.0;"/><polygon fill="#181818" points="724.72,177.93,715.72,173.93,719.72,177.93,715.72,181.93,724.72,177.93" style="stroke:#181818;stroke-width:1.0;"/><text fill="#000000" font-family="sans-serif" font-size="13" lengthAdjust="spacing" textLength="78" x="628.68" y="170.9969">published to</text></g><!--reverse link LCE to C--><g id="link_LCE_C"><path d="M595.732,198.0267 C666.142,220.6667 787.32,260.12 895,297.76 C904.03,300.92 913.69,304.41 922.81,307.75 " fill="none" id="LCE-backto-C" style="stroke:#181818;stroke-width:1.0;"/><polygon fill="#181818" points="590.02,196.19,597.3635,202.753,594.78,197.7205,599.8124,195.137,590.02,196.19" style="stroke:#181818;stroke-width:1.0;"/><text fill="#000000" font-family="sans-serif" font-size="13" lengthAdjust="spacing" textLength="22" x="807" y="263.8269">is a</text></g><!--reverse link LCE to L--><g id="link_LCE_L"><path d="M583.8296,202.3368 C642.3496,230.9668 741.31,279.41 795.38,305.87 " fill="none" id="LCE-backto-L" style="stroke:#181818;stroke-width:1.0;"/><polygon fill="#181818" points="578.44,199.7,584.7665,207.2482,582.9313,201.8973,588.2822,200.0621,578.44,199.7" style="stroke:#181818;stroke-width:1.0;"/><text fill="#000000" font-family="sans-serif" font-size="13" lengthAdjust="spacing" textLength="22" x="710" y="263.8269">is a</text></g><!--reverse link LCE to PNG--><g id="link_LCE_PNG"><path d="M565.4572,206.8149 C593.9572,233.7949 635.78,273.37 663.87,299.97 " fill="none" id="LCE-backto-PNG" style="stroke:#181818;stroke-width:1.0;"/><polygon fill="#181818" points="561.1,202.69,564.886,211.7821,564.731,206.1274,570.3858,205.9725,561.1,202.69" style="stroke:#181818;stroke-width:1.0;"/><text fill="#000000" font-family="sans-serif" font-size="13" lengthAdjust="spacing" textLength="22" x="626" y="263.8269">is a</text></g><!--reverse link LCE to PED--><g id="link_LCE_PED"><path d="M536,210.32 C536,236.62 536,271.46 536,297.67 " fill="none" id="LCE-backto-PED" style="stroke:#181818;stroke-width:1.0;"/><polygon fill="#181818" points="536,204.32,532,213.32,536,209.32,540,213.32,536,204.32" style="stroke:#181818;stroke-width:1.0;"/><text fill="#000000" font-family="sans-serif" font-size="13" lengthAdjust="spacing" textLength="22" x="537" y="263.8269">is a</text></g><!--reverse link LCE to UNG--><g id="link_LCE_UNG"><path d="M507.2581,206.8725 C479.5081,233.8525 438.85,273.37 411.5,299.97 " fill="none" id="LCE-backto-UNG" style="stroke:#181818;stroke-width:1.0;"/><polygon fill="#181818" points="511.56,202.69,502.3188,206.0959,507.9751,206.1754,507.8955,211.8317,511.56,202.69" style="stroke:#181818;stroke-width:1.0;"/><text fill="#000000" font-family="sans-serif" font-size="13" lengthAdjust="spacing" textLength="22" x="463" y="263.8269">is a</text></g><!--reverse link LCE to UED--><g id="link_LCE_UED"><path d="M488.4679,202.3521 C431.1379,230.6021 334.89,278.02 280.6,304.77 " fill="none" id="LCE-backto-UED" style="stroke:#181818;stroke-width:1.0;"/><polygon fill="#181818" points="493.85,199.7,484.0089,200.0901,489.365,201.9101,487.545,207.2661,493.85,199.7" style="stroke:#181818;stroke-width:1.0;"/><text fill="#000000" font-family="sans-serif" font-size="13" lengthAdjust="spacing" textLength="22" x="391" y="263.8269">is a</text></g><!--reverse link LCE to RNG--><g id="link_LCE_RNG"><path d="M476.787,198.2944 C390.097,226.6344 226.07,280.28 143.44,307.29 " fill="none" id="LCE-backto-RNG" style="stroke:#181818;stroke-width:1.0;"/><polygon fill="#181818" points="482.49,196.43,472.6926,195.4246,477.7375,197.9836,475.1784,203.0286,482.49,196.43" style="stroke:#181818;stroke-width:1.0;"/><text fill="#000000" font-family="sans-serif" font-size="13" lengthAdjust="spacing" textLength="22" x="317" y="263.8269">is a</text></g><!--reverse link C to FS--><g id="link_C_FS"><path d="M963,356.22 C963,378.39 963,404.38 963,426.53 " fill="none" id="C-backto-FS" style="stroke:#181818;stroke-width:1.0;"/><polygon fill="#181818" points="963,350.22,959,359.22,963,355.22,967,359.22,963,350.22" style="stroke:#181818;stroke-width:1.0;"/><text fill="#000000" font-family="sans-serif" font-size="13" lengthAdjust="spacing" textLength="36" x="964" y="392.9269">emits</text></g><!--reverse link L to RS--><g id="link_L_RS"><path d="M786.3773,342.0171 C777.5573,345.3971 773.78,346.75 765,349.86 C665.3,385.08 546.5,419.17 479.6,437.66 " fill="none" id="L-backto-RS" style="stroke:#181818;stroke-width:1.0;"/><polygon fill="#181818" points="791.98,339.87,782.1446,339.3555,787.3111,341.6592,785.0073,346.8257,791.98,339.87" style="stroke:#181818;stroke-width:1.0;"/><text fill="#000000" font-family="sans-serif" font-size="13" lengthAdjust="spacing" textLength="36" x="674" y="392.9269">emits</text></g><!--reverse link PNG to RS--><g id="link_PNG_RS"><path d="M643.5355,346.4667 C594.6155,370.2867 516.64,408.25 467.2,432.33 " fill="none" id="PNG-backto-RS" style="stroke:#181818;stroke-width:1.0;"/><polygon fill="#181818" points="648.93,343.84,639.0871,344.1837,644.4346,346.0289,642.5894,351.3763,648.93,343.84" style="stroke:#181818;stroke-width:1.0;"/><text fill="#000000" font-family="sans-serif" font-size="13" lengthAdjust="spacing" textLength="36" x="574" y="392.9269">emits</text></g><!--reverse link PED to RS--><g id="link_PED_RS"><path d="M511.8441,352.9745 C492.3941,375.6545 467.05,405.2 447.51,427.99 " fill="none" id="PED-backto-RS" style="stroke:#181818;stroke-width:1.0;"/><polygon fill="#181818" points="515.75,348.42,506.8548,352.6479,512.4951,352.2155,512.9275,357.8558,515.75,348.42" style="stroke:#181818;stroke-width:1.0;"/><text fill="#000000" font-family="sans-serif" font-size="13" lengthAdjust="spacing" textLength="36" x="490" y="392.9269">emits</text></g><!--reverse link UNG to RS--><g id="link_UNG_RS"><path d="M397.4685,355.6565 C404.2985,377.9365 412.48,404.58 419.31,426.85 " fill="none" id="UNG-backto-RS" style="stroke:#181818;stroke-width:1.0;"/><polygon fill="#181818" points="395.71,349.92,394.5235,359.6971,397.1755,354.7004,402.1722,357.3524,395.71,349.92" style="stroke:#181818;stroke-width:1.0;"/><text fill="#000000" font-family="sans-serif" font-size="13" lengthAdjust="spacing" textLength="36" x="411" y="392.9269">emits</text></g><!--reverse link UED to RS--><g id="link_UED_RS"><path d="M278.7381,348.9325 C312.1581,372.1425 361.21,406.21 395.36,429.93 " fill="none" id="UED-backto-RS" style="stroke:#181818;stroke-width:1.0;"/><polygon fill="#181818" points="273.81,345.51,278.9205,353.9292,277.9168,348.3621,283.4839,347.3584,273.81,345.51" style="stroke:#181818;stroke-width:1.0;"/><text fill="#000000" font-family="sans-serif" font-size="13" lengthAdjust="spacing" textLength="36" x="348" y="392.9269">emits</text></g><!--reverse link RNG to RS--><g id="link_RNG_RS"><path d="M145.1144,344.4395 C182.1344,359.1795 231.17,378.55 279,396.86 C312.8,409.79 351.09,424.02 380.25,434.77 " fill="none" id="RNG-backto-RS" style="stroke:#181818;stroke-width:1.0;"/><polygon fill="#181818" points="139.54,342.22,146.4219,349.2655,144.1853,344.0696,149.3813,341.833,139.54,342.22" style="stroke:#181818;stroke-width:1.0;"/><text fill="#000000" font-family="sans-serif" font-size="13" lengthAdjust="spacing" textLength="36" x="280" y="392.9269">emits</text></g><!--SRC=[RP9DZu8m48RlyoiQJ-n1l1lZGSJz25a9X1kNIaVjBhGDBIR- -nqgnaKyD8JfypxfJ1l45rIkL9lElZ5kMRo183UjL2V_cwVPv_Sxt3uihCCr4Mp9JAilKg1TbAhXYf_GGZ2O4caTAcnlkWJYXCtdGwpsUnOWMCdr_l23bLijvBeF7R6wrkWTFfb4CT1YzwZf3fG-es1EGn2ro1sAKZq24KHitX7UfvPCMiOXI3GNOoo1P891a69hwMpKzdysfTPfJRK3FZQdyHPelR0NHl1dTq7kufNRmsDpGURYfJd3XYvYRCx8dBqmGx3ZbTFjjLGvjXTPeSTtEUpo6non9JRIsTvhj9LJECiX6-3a3jyB_QIUItJefr8nfOefbJqeKDeXNRfX-kXx-zhk5rlkkEgg6ZiBGgDb137R6QDR1rOtwCuq5NfllqYTp_oOwEdu8Sr2-41LeS_8njJOK1L52AX4NyG_]--></g></svg>