<svg xmlns="http://www.w3.org/2000/svg" xmlns:xlink="http://www.w3.org/1999/xlink" contentStyleType="text/css" data-diagram-type="DESCRIPTION" height="335px" preserveAspectRatio="none" style="width:622px;height:335px;background:#FFFFFF;" version="1.1" viewBox="0 0 622 335" width="622px" zoomAndPan="magnify"><defs/><g><!--entity DO--><g class="entity" data-entity="DO" data-source-line="5" data-uid="ent0002" id="entity_DO"><ellipse cx="407.2817" cy="131.2521" fill="#F1F1F1" rx="40.0217" ry="25.2121" style="stroke:#181818;stroke-width:0.5;"/><text fill="#000000" font-family="sans-serif" font-size="14" lengthAdjust="spacing" textLength="54.3252" x="380.1191" y="128.9563">Domain</text><text fill="#000000" font-family="sans-serif" font-size="14" lengthAdjust="spacing" textLength="45.5957" x="384.4839" y="145.2532">Object</text></g><!--entity E--><g class="entity" data-entity="E" data-source-line="6" data-uid="ent0003" id="entity_E"><ellipse cx="529.2809" cy="223.2536" fill="#F1F1F1" rx="31.9009" ry="14.5236" style="stroke:#181818;stroke-width:0.5;"/><text fill="#000000" font-family="sans-serif" font-size="14" lengthAdjust="spacing" textLength="40.8721" x="508.8449" y="227.9021">Entity</text></g><!--entity VM--><g class="entity" data-entity="VM" data-source-line="7" data-uid="ent0004" id="entity_VM"><ellipse cx="407.2836" cy="223.2544" fill="#F1F1F1" rx="31.4036" ry="25.0244" style="stroke:#181818;stroke-width:0.5;"/><text fill="#000000" font-family="sans-serif" font-size="14" lengthAdjust="spacing" textLength="33.5303" x="390.5184" y="218.2727">View</text><text fill="#000000" font-family="sans-serif" font-size="14" lengthAdjust="spacing" textLength="42.0342" x="386.2665" y="234.5696">Model</text></g><!--entity FW--><g class="entity" data-entity="FW" data-source-line="9" data-uid="ent0005" id="entity_FW"><ellipse cx="407.281" cy="305.9942" fill="#F1F1F1" rx="78.921" ry="18.1842" style="stroke:#181818;stroke-width:0.5;"/><text fill="#000000" font-family="sans-serif" font-size="14" font-style="italic" lengthAdjust="spacing" textLength="128.126" x="343.218" y="310.6426">Apache Causeway</text></g><!--entity PL--><g class="entity" data-entity="PL" data-source-line="10" data-uid="ent0006" id="entity_PL"><ellipse cx="561.2822" cy="305.9887" fill="#F1F1F1" rx="54.8122" ry="23.9587" style="stroke:#181818;stroke-width:0.5;"/><text fill="#000000" font-family="sans-serif" font-size="14" lengthAdjust="spacing" textLength="80.5752" x="520.9946" y="305.6068">Persistence</text><text fill="#000000" font-family="sans-serif" font-size="14" lengthAdjust="spacing" textLength="39.0332" x="541.7656" y="321.9037">Layer</text></g><!--entity M--><g class="entity" data-entity="M" data-source-line="12" data-uid="ent0007" id="entity_M"><ellipse cx="133.2847" cy="131.2536" fill="#F1F1F1" rx="29.1747" ry="14.5236" style="stroke:#181818;stroke-width:0.5;"/><text fill="#000000" font-family="sans-serif" font-size="14" lengthAdjust="spacing" textLength="37.0166" x="114.7764" y="135.9021">Mixin</text></g><!--entity ME--><g class="entity" data-entity="ME" data-source-line="13" data-uid="ent0008" id="entity_ME"><ellipse cx="215.2811" cy="131.2536" fill="#F1F1F1" rx="32.3311" ry="14.5236" style="stroke:#181818;stroke-width:0.5;"/><text fill="#000000" font-family="sans-serif" font-size="14" lengthAdjust="spacing" textLength="41.4805" x="194.5409" y="135.9021">Mixee</text></g><!--entity S--><g class="entity" data-entity="S" data-source-line="15" data-uid="ent0009" id="entity_S"><ellipse cx="307.2766" cy="131.2536" fill="#F1F1F1" rx="39.5866" ry="14.5236" style="stroke:#181818;stroke-width:0.5;"/><text fill="#000000" font-family="sans-serif" font-size="14" lengthAdjust="spacing" textLength="51.7412" x="281.406" y="135.9021">Service</text></g><!--entity DS--><g class="entity" data-entity="DS" data-source-line="16" data-uid="ent0010" id="entity_DS"><ellipse cx="290.2804" cy="223.2513" fill="#F1F1F1" rx="40.9704" ry="25.7813" style="stroke:#181818;stroke-width:0.5;"/><text fill="#000000" font-family="sans-serif" font-size="14" lengthAdjust="spacing" textLength="54.3252" x="263.1178" y="220.1297">Domain</text><text fill="#000000" font-family="sans-serif" font-size="14" lengthAdjust="spacing" textLength="51.7412" x="264.4098" y="236.4265">Service</text></g><!--entity SPRING--><g class="entity" data-entity="SPRING" data-source-line="17" data-uid="ent0011" id="entity_SPRING"><ellipse cx="307.2762" cy="20.5236" fill="#F1F1F1" rx="34.9462" ry="14.5236" style="stroke:#181818;stroke-width:0.5;"/><text fill="#000000" font-family="sans-serif" font-size="14" font-style="italic" lengthAdjust="spacing" textLength="45.1787" x="284.6868" y="25.1721">Spring</text></g><!--entity MB--><g class="entity" data-entity="MB" data-source-line="19" data-uid="ent0012" id="entity_MB"><ellipse cx="168.2794" cy="223.2536" fill="#F1F1F1" rx="43.7194" ry="14.5236" style="stroke:#181818;stroke-width:0.5;"/><text fill="#000000" font-family="sans-serif" font-size="14" lengthAdjust="spacing" textLength="57.5859" x="139.4864" y="227.9021">Member</text></g><!--entity P--><g class="entity" data-entity="P" data-source-line="20" data-uid="ent0013" id="entity_P"><ellipse cx="51.2807" cy="305.9936" fill="#F1F1F1" rx="45.2807" ry="14.5236" style="stroke:#181818;stroke-width:0.5;"/><text fill="#000000" font-family="sans-serif" font-size="14" lengthAdjust="spacing" textLength="59.7939" x="21.3837" y="310.6421">Property</text></g><!--entity C--><g class="entity" data-entity="C" data-source-line="21" data-uid="ent0014" id="entity_C"><ellipse cx="168.2758" cy="305.9936" fill="#F1F1F1" rx="51.9658" ry="14.5236" style="stroke:#181818;stroke-width:0.5;"/><text fill="#000000" font-family="sans-serif" font-size="14" lengthAdjust="spacing" textLength="69.248" x="133.6517" y="310.6421">Collection</text></g><!--entity A--><g class="entity" data-entity="A" data-source-line="22" data-uid="ent0015" id="entity_A"><ellipse cx="274.2776" cy="305.9936" fill="#F1F1F1" rx="34.1776" ry="14.5236" style="stroke:#181818;stroke-width:0.5;"/><text fill="#000000" font-family="sans-serif" font-size="14" lengthAdjust="spacing" textLength="44.0918" x="252.2317" y="310.6421">Action</text></g><!--reverse link DO to VM--><g class="link" data-entity-1="DO" data-entity-2="VM" data-source-line="25" data-uid="lnk16" id="link_DO_VM"><path d="M407.28,162.84 C407.28,175.65 407.28,185.24 407.28,198" fill="none" id="DO-backto-VM" style="stroke:#181818;stroke-width:1;"/><polygon fill="#181818" points="407.28,156.84,403.28,165.84,407.28,161.84,411.28,165.84,407.28,156.84" style="stroke:#181818;stroke-width:1;"/><text fill="#000000" font-family="sans-serif" font-size="13" lengthAdjust="spacing" textLength="22.4834" x="410.0193" y="187.0992">is a</text></g><!--reverse link DO to E--><g class="link" data-entity-1="DO" data-entity-2="E" data-source-line="26" data-uid="lnk17" id="link_DO_E"><path d="M437.6884,154.6819 C461.8584,172.5119 492.57,195.16 513.07,210.29" fill="none" id="DO-backto-E" style="stroke:#181818;stroke-width:1;"/><polygon fill="#181818" points="432.86,151.12,437.728,159.6817,436.8836,154.0882,442.4771,153.2439,432.86,151.12" style="stroke:#181818;stroke-width:1;"/><text fill="#000000" font-family="sans-serif" font-size="13" lengthAdjust="spacing" textLength="22.4834" x="477.9225" y="197.4132">is a</text></g><!--reverse link VM to FW--><g class="link" data-entity-1="VM" data-entity-2="FW" data-source-line="27" data-uid="lnk19" id="link_VM_FW"><path d="M407.28,254.47 C407.28,267.01 407.28,276.04 407.28,287.45" fill="none" id="VM-backto-FW" style="stroke:#181818;stroke-width:1;stroke-dasharray:7,7;"/><polygon fill="#181818" points="407.28,248.47,403.28,257.47,407.28,253.47,411.28,257.47,407.28,248.47" style="stroke:#181818;stroke-width:1;"/><text fill="#000000" font-family="sans-serif" font-size="13" lengthAdjust="spacing" textLength="59.8584" x="408.28" y="270.0969">manages</text></g><!--reverse link E to PL--><g class="link" data-entity-1="E" data-entity-2="PL" data-source-line="28" data-uid="lnk21" id="link_E_PL"><path d="M536.9208,243.5178 C541.7008,255.5778 546.54,267.8 552.18,282.04" fill="none" id="E-backto-PL" style="stroke:#181818;stroke-width:1;stroke-dasharray:7,7;"/><polygon fill="#181818" points="534.71,237.94,534.3076,247.7806,536.5523,242.5882,541.7448,244.8329,534.71,237.94" style="stroke:#181818;stroke-width:1;"/><text fill="#000000" font-family="sans-serif" font-size="13" lengthAdjust="spacing" textLength="59.8584" x="548.28" y="270.0969">manages</text></g><!--reverse link MB to P--><g class="link" data-entity-1="MB" data-entity-2="P" data-source-line="30" data-uid="lnk23" id="link_MB_P"><path d="M145.0619,240.2681 C123.0819,255.4381 91.36,277.33 69.43,292.46" fill="none" id="MB-backto-P" style="stroke:#181818;stroke-width:1;"/><polygon fill="#181818" points="150,236.86,140.3208,238.6801,145.8849,239.7001,144.865,245.2642,150,236.86" style="stroke:#181818;stroke-width:1;"/><text fill="#000000" font-family="sans-serif" font-size="13" lengthAdjust="spacing" textLength="22.4834" x="50.6636" y="280.3537">is a</text></g><!--reverse link MB to C--><g class="link" data-entity-1="MB" data-entity-2="C" data-source-line="31" data-uid="lnk25" id="link_MB_C"><path d="M168.28,243.94 C168.28,258.79 168.28,276.35 168.28,291.22" fill="none" id="MB-backto-C" style="stroke:#181818;stroke-width:1;"/><polygon fill="#181818" points="168.28,237.94,164.28,246.94,168.28,242.94,172.28,246.94,168.28,237.94" style="stroke:#181818;stroke-width:1;"/><text fill="#000000" font-family="sans-serif" font-size="13" lengthAdjust="spacing" textLength="22.4834" x="142.4489" y="280.3756">is a</text></g><!--reverse link MB to A--><g class="link" data-entity-1="MB" data-entity-2="A" data-source-line="32" data-uid="lnk27" id="link_MB_A"><path d="M189.6127,240.4961 C209.6427,255.7561 238.36,277.63 258.18,292.72" fill="none" id="MB-backto-A" style="stroke:#181818;stroke-width:1;"/><polygon fill="#181818" points="184.84,236.86,189.575,245.496,188.8172,239.8901,194.4231,239.1324,184.84,236.86" style="stroke:#181818;stroke-width:1;"/><text fill="#000000" font-family="sans-serif" font-size="13" lengthAdjust="spacing" textLength="22.4834" x="223.7591" y="280.2098">is a</text></g><!--link DO to MB--><g class="link" data-entity-1="DO" data-entity-2="MB" data-source-line="34" data-uid="lnk28" id="link_DO_MB"><path d="M381.39,151.02 C373.87,155.88 365.47,160.78 357.28,164.47 C307.61,186.79 291.24,181.15 239.28,197.47 C225.2,201.88 215.3728,205.2186 202.4728,209.8086" fill="none" id="DO-to-MB" style="stroke:#181818;stroke-width:1;"/><polygon fill="#181818" points="196.82,211.82,206.6401,212.5715,201.5307,210.1439,203.9583,205.0344,196.82,211.82" style="stroke:#181818;stroke-width:1;"/><text fill="#000000" font-family="sans-serif" font-size="13" lengthAdjust="spacing" textLength="50.1465" x="336.28" y="185.5369">has 1..*</text></g><!--link M to MB--><g class="link" data-entity-1="M" data-entity-2="MB" data-source-line="36" data-uid="lnk29" id="link_M_MB"><path d="M138.6,145.92 C145.17,162.84 154.1352,185.888 160.7352,202.858" fill="none" id="M-to-MB" style="stroke:#181818;stroke-width:1;stroke-dasharray:7,7;"/><polygon fill="#181818" points="162.91,208.45,163.3757,198.6122,161.0976,203.79,155.9198,201.5119,162.91,208.45" style="stroke:#181818;stroke-width:1;"/><text fill="#000000" font-family="sans-serif" font-size="13" lengthAdjust="spacing" textLength="73.7534" x="57.3204" y="165.9954">contributes</text><text fill="#000000" font-family="sans-serif" font-size="13" lengthAdjust="spacing" textLength="7.9663" x="92.2801" y="181.1282">a</text></g><!--link M to ME--><g class="link" data-entity-1="M" data-entity-2="ME" data-source-line="37" data-uid="lnk30" id="link_M_ME"><path d="M162.75,131.25 C169.45,131.25 170.16,131.25 176.86,131.25" fill="none" id="M-to-ME" style="stroke:#181818;stroke-width:1;"/><polygon fill="#181818" points="182.86,131.25,173.86,127.25,177.86,131.25,173.86,135.25,182.86,131.25" style="stroke:#181818;stroke-width:1;"/><text fill="#000000" font-family="sans-serif" font-size="13" lengthAdjust="spacing" textLength="73.7534" x="160.6409" y="165.7424">contributes</text><text fill="#000000" font-family="sans-serif" font-size="13" lengthAdjust="spacing" textLength="13.0508" x="193.0583" y="180.8752">to</text></g><!--link DO to ME--><g class="link" data-entity-1="DO" data-entity-2="ME" data-source-line="38" data-uid="lnk31" id="link_DO_ME"><path d="M383.48,110.89 C359.34,91.71 319.95,64.41 280.28,53.83 C267.4,50.39 261.48,46.6 250.28,53.83 C228.84,67.66 221.4287,92.2506 218.2087,110.5706" fill="none" id="DO-to-ME" style="stroke:#181818;stroke-width:1;"/><polygon fill="#181818" points="217.17,116.48,222.6676,108.3083,218.0356,111.5555,214.7884,106.9234,217.17,116.48" style="stroke:#181818;stroke-width:1;"/><text fill="#000000" font-family="sans-serif" font-size="13" lengthAdjust="spacing" textLength="23.353" x="251.7751" y="56.1069">can</text><text fill="#000000" font-family="sans-serif" font-size="13" lengthAdjust="spacing" textLength="20.2109" x="255.4123" y="71.2397">act</text><text fill="#000000" font-family="sans-serif" font-size="13" lengthAdjust="spacing" textLength="14.7393" x="260.2143" y="86.3725">as</text></g><!--link SPRING to S--><g class="link" data-entity-1="SPRING" data-entity-2="S" data-source-line="40" data-uid="lnk32" id="link_SPRING_S"><path d="M307.28,35.29 C307.28,56.09 307.28,89.31 307.28,110.25" fill="none" id="SPRING-to-S" style="stroke:#181818;stroke-width:1;stroke-dasharray:7,7;"/><polygon fill="#181818" points="307.28,116.25,311.28,107.25,307.28,111.25,303.28,107.25,307.28,116.25" style="stroke:#181818;stroke-width:1;"/><text fill="#000000" font-family="sans-serif" font-size="13" lengthAdjust="spacing" textLength="59.8584" x="308.28" y="71.1069">manages</text></g><!--reverse link S to DS--><g class="link" data-entity-1="S" data-entity-2="DS" data-source-line="41" data-uid="lnk34" id="link_S_DS"><path d="M303.5835,151.8152 C301.0135,165.3852 298.15,180.61 295.01,197.2" fill="none" id="S-backto-DS" style="stroke:#181818;stroke-width:1;"/><polygon fill="#181818" points="304.7,145.92,299.0951,154.0185,303.7696,150.8327,306.9554,155.5071,304.7,145.92" style="stroke:#181818;stroke-width:1;"/><text fill="#000000" font-family="sans-serif" font-size="13" lengthAdjust="spacing" textLength="22.4834" x="271.6159" y="186.5235">is a</text></g><!--link DS to A--><g class="link" data-entity-1="DS" data-entity-2="A" data-source-line="42" data-uid="lnk35" id="link_DS_A"><path d="M285.39,248.91 C282.64,262.82 280.454,273.794 278.164,285.374" fill="none" id="DS-to-A" style="stroke:#181818;stroke-width:1;"/><polygon fill="#181818" points="277,291.26,282.67,283.207,277.97,286.355,274.822,281.655,277,291.26" style="stroke:#181818;stroke-width:1;"/><text fill="#000000" font-family="sans-serif" font-size="13" lengthAdjust="spacing" textLength="50.1465" x="285.28" y="270.0969">has 1..*</text></g><!--SRC=[PP1HJy8m4CUVxQUux0bDDiL7GvRCRHWJ9ejDu6KlPLoWmjgbxKHY_Ews7S61J-l_TxkxNwjtNBHCiGQ4NAF65XuVY3v3nSJEmJ4XHcxGR571DxaPPR9XN5HYllh0sjm2qv3DBS-5uUReSsxZWkEX4eMTlFTiKP0VCfhmE6bPlKL8MQVnm8wJUnxx7wPBCYfHQQuDYXehCMD7LBvKpYuL2lx5XQyKVKBiK-vsK5IVlEu99MVV8SweLw6juc9pDg3b- -lRozKgR5OdY-BPvbB95jNfdgK5gTplxJjmsGkb5YL_CR5299l395o70TV00lSGbo0dqoL4NHJR4Zn1mmJRe2Rbh8VvW94I-gQm2sCdb5xbv2gxLQ4_sYbRApIEeZj22WXgAOpYgywWheJjY2BVyAzYPE3wSp_97UoWcWbmJRNn7-lLFnsu8NJWcz6X3tNPsIG3cLy0]--></g></svg>