<svg xmlns="http://www.w3.org/2000/svg" xmlns:xlink="http://www.w3.org/1999/xlink" contentStyleType="text/css" data-diagram-type="DESCRIPTION" height="723px" preserveAspectRatio="none" style="width:795px;height:723px;background:#FFFFFF;" version="1.1" viewBox="0 0 795 723" width="795px" zoomAndPan="magnify"><?plantuml 1.2026.6?><defs/><g><!--entity DS--><g class="entity" data-qualified-name="DS" data-source-line="4" id="ent0001"><ellipse cx="86.0139" cy="103.2113" fill="#F1F1F1" rx="40.9704" ry="25.7813" style="stroke:#181818;stroke-width:0.5;"/><text fill="#000000" font-family="sans-serif" font-size="14" lengthAdjust="spacing" textLength="54.3252" x="58.8513" y="100.0897">Domain</text><text fill="#000000" font-family="sans-serif" font-size="14" lengthAdjust="spacing" textLength="51.7412" x="60.1433" y="116.3865">Service</text></g><!--entity DO--><g class="entity" data-qualified-name="DO" data-source-line="5" id="ent0002"><ellipse cx="285.0152" cy="103.2121" fill="#F1F1F1" rx="40.0217" ry="25.2121" style="stroke:#181818;stroke-width:0.5;"/><text fill="#000000" font-family="sans-serif" font-size="14" lengthAdjust="spacing" textLength="54.3252" x="257.8526" y="100.9163">Domain</text><text fill="#000000" font-family="sans-serif" font-size="14" lengthAdjust="spacing" textLength="45.5957" x="262.2174" y="117.2132">Object</text></g><!--entity DE--><g class="entity" data-qualified-name="DE" data-source-line="6" id="ent0003"><ellipse cx="186.0184" cy="103.206" fill="#F1F1F1" rx="39.2949" ry="24.776" style="stroke:#181818;stroke-width:0.5;"/><text fill="#000000" font-family="sans-serif" font-size="14" font-style="italic" lengthAdjust="spacing" textLength="54.3252" x="158.8558" y="101.5597">Domain</text><text fill="#000000" font-family="sans-serif" font-size="14" font-style="italic" lengthAdjust="spacing" textLength="40.1064" x="165.9652" y="117.8565">Event</text></g><!--entity MB--><g class="entity" data-qualified-name="MB" data-source-line="8" id="ent0004"><ellipse cx="212.0129" cy="311.0136" fill="#F1F1F1" rx="43.7194" ry="14.5236" style="stroke:#181818;stroke-width:0.5;"/><text fill="#000000" font-family="sans-serif" font-size="14" font-style="italic" lengthAdjust="spacing" textLength="57.5859" x="183.2199" y="315.6621">Member</text></g><!--entity P--><g class="entity" data-qualified-name="P" data-source-line="10" id="ent0005"><ellipse cx="185.0142" cy="518.6736" fill="#F1F1F1" rx="45.2807" ry="14.5236" style="stroke:#181818;stroke-width:0.5;"/><text fill="#000000" font-family="sans-serif" font-size="14" lengthAdjust="spacing" textLength="59.7939" x="155.1172" y="523.3221">Property</text></g><!--entity A--><g class="entity" data-qualified-name="A" data-source-line="11" id="ent0006"><ellipse cx="86.0111" cy="518.6736" fill="#F1F1F1" rx="34.1776" ry="14.5236" style="stroke:#181818;stroke-width:0.5;"/><text fill="#000000" font-family="sans-serif" font-size="14" lengthAdjust="spacing" textLength="44.0918" x="63.9652" y="523.3221">Action</text></g><!--entity C--><g class="entity" data-qualified-name="C" data-source-line="12" id="ent0007"><ellipse cx="302.0093" cy="518.6736" fill="#F1F1F1" rx="51.9658" ry="14.5236" style="stroke:#181818;stroke-width:0.5;"/><text fill="#000000" font-family="sans-serif" font-size="14" lengthAdjust="spacing" textLength="69.248" x="267.3852" y="523.3221">Collection</text></g><!--entity EX--><g class="entity" data-qualified-name="EX" data-source-line="23" id="ent0017"><ellipse cx="86.0171" cy="685.3536" fill="#F1F1F1" rx="51.8836" ry="14.5236" style="stroke:#181818;stroke-width:0.5;"/><text fill="#000000" font-family="sans-serif" font-size="14" lengthAdjust="spacing" textLength="69.1318" x="51.4512" y="690.0021">Execution</text></g><!--entity EB--><g class="entity" data-qualified-name="EB" data-source-line="27" id="ent0020"><ellipse cx="424.0117" cy="685.3485" fill="#F1F1F1" rx="29.5982" ry="24.2785" style="stroke:#181818;stroke-width:0.5;"/><text fill="#000000" font-family="sans-serif" font-size="14" lengthAdjust="spacing" textLength="40.1064" x="403.9585" y="684.1664">Event</text><text fill="#000000" font-family="sans-serif" font-size="14" lengthAdjust="spacing" textLength="25.7715" x="411.1259" y="700.4633">Bus</text></g><!--entity SPRING--><g class="entity" data-qualified-name="SPRING" data-source-line="28" id="ent0021"><ellipse cx="570.0097" cy="685.3536" fill="#F1F1F1" rx="34.9462" ry="14.5236" style="stroke:#181818;stroke-width:0.5;"/><text fill="#000000" font-family="sans-serif" font-size="14" lengthAdjust="spacing" textLength="45.1787" x="547.4203" y="690.0021">Spring</text></g><!--entity EL--><g class="entity" data-qualified-name="EL" data-source-line="32" id="ent0025"><ellipse cx="419.0093" cy="518.6735" fill="#F1F1F1" rx="40.4558" ry="24.6735" style="stroke:#181818;stroke-width:0.5;"/><text fill="#000000" font-family="sans-serif" font-size="14" lengthAdjust="spacing" textLength="40.1064" x="398.9561" y="513.1647">Event</text><text fill="#000000" font-family="sans-serif" font-size="14" lengthAdjust="spacing" textLength="56.3281" x="390.8453" y="529.4616">Listener</text></g><g class="entity" data-qualified-name="GMN29" data-source-line="37" id="ent0030"><path d="M344.9135,37.68 L344.9135,168.7425 L641.1098,168.7425 L641.1098,47.68 L631.1098,37.68 L344.9135,37.68" fill="#FEFFDD" style="stroke:#181818;stroke-width:0.5;"/><path d="M631.1098,37.68 L631.1098,47.68 L641.1098,47.68 L631.1098,37.68" fill="#FEFFDD" style="stroke:#181818;stroke-width:1;"/><text fill="#000000" font-family="sans-serif" font-size="13" lengthAdjust="spacing" textLength="75.4102" x="350.9135" y="54.7469">Phases are:</text><ellipse cx="356.4135" cy="65.4456" fill="#000000" rx="2.5" ry="2.5"/><text fill="#000000" font-family="sans-serif" font-size="13" lengthAdjust="spacing" textLength="47.252" x="362.9135" y="69.8797">HIDING</text><ellipse cx="356.4135" cy="80.5784" fill="#000000" rx="2.5" ry="2.5"/><text fill="#000000" font-family="sans-serif" font-size="13" lengthAdjust="spacing" textLength="70.7827" x="362.9135" y="85.0125">DISABLING</text><ellipse cx="356.4135" cy="95.7112" fill="#000000" rx="2.5" ry="2.5"/><text fill="#000000" font-family="sans-serif" font-size="13" lengthAdjust="spacing" textLength="79.3394" x="362.9135" y="100.1453">VALIDATING</text><ellipse cx="356.4135" cy="110.8441" fill="#000000" rx="2.5" ry="2.5"/><text fill="#000000" font-family="sans-serif" font-size="13" lengthAdjust="spacing" textLength="75.499" x="362.9135" y="115.2781">EXECUTING</text><ellipse cx="356.4135" cy="125.9769" fill="#000000" rx="2.5" ry="2.5"/><text fill="#000000" font-family="sans-serif" font-size="13" lengthAdjust="spacing" textLength="70.0908" x="362.9135" y="130.411">EXECUTED</text><text fill="#000000" font-family="sans-serif" font-size="13" lengthAdjust="spacing" textLength="258.667" x="350.9135" y="145.5438">The framework automatically sends out</text><text fill="#000000" font-family="sans-serif" font-size="13" lengthAdjust="spacing" textLength="275.1963" x="350.9135" y="160.6766">events with the phases in the order listed.</text></g><g class="entity" data-qualified-name="GMN32" data-source-line="48" id="ent0033"><path d="M275.8535,275.74 L275.8535,307.01 L256.0435,311.01 L275.8535,315.01 L275.8535,346.2713 A0,0 0 0 0 275.8535,346.2713 L688.1802,346.2713 A0,0 0 0 0 688.1802,346.2713 L688.1802,285.74 L678.1802,275.74 L275.8535,275.74 A0,0 0 0 0 275.8535,275.74" fill="#FEFFDD" style="stroke:#181818;stroke-width:0.5;"/><path d="M678.1802,275.74 L678.1802,285.74 L688.1802,285.74 L678.1802,275.74" fill="#FEFFDD" style="stroke:#181818;stroke-width:0.5;"/><text fill="#000000" font-family="sans-serif" font-size="13" font-style="italic" lengthAdjust="spacing" textLength="87.6865" x="281.8535" y="292.8069">DomainEvent</text><text fill="#000000" font-family="sans-serif" font-size="13" lengthAdjust="spacing" textLength="110.2969" x="373.6723" y="292.8069">is declared as an</text><text fill="#000000" font-family="sans-serif" font-size="13" lengthAdjust="spacing" textLength="355.6846" x="281.8535" y="307.9397">annotation type element in a member annotation, e.g.</text><text fill="#000000" font-family="sans-serif" font-size="13" font-weight="700" lengthAdjust="spacing" textLength="65.5649" x="281.8535" y="323.0725">@Action(</text><text fill="#000000" font-family="sans-serif" font-size="13" lengthAdjust="spacing" textLength="33.0586" x="281.8535" y="338.2053">&#160;&#160;&#160;&#160;&#160;&#160;&#160;&#160;</text><text fill="#000000" font-family="sans-serif" font-size="13" font-weight="700" lengthAdjust="spacing" textLength="106.7993" x="314.9121" y="338.2053">domainEvent=</text><text fill="#000000" font-family="sans-serif" font-size="13" font-style="italic" font-weight="700" lengthAdjust="spacing" textLength="55.2246" x="421.7114" y="338.2053">Custom</text><text fill="#000000" font-family="sans-serif" font-size="13" font-weight="700" lengthAdjust="spacing" textLength="196.2441" x="476.936" y="338.2053">ActionDomainEvent.class).</text></g><g class="entity" data-qualified-name="GMN35" data-source-line="55" id="ent0036"><path d="M479.3135,468.28 L479.3135,514.67 L459.8135,518.67 L479.3135,522.67 L479.3135,569.0769 A0,0 0 0 0 479.3135,569.0769 L780.7085,569.0769 A0,0 0 0 0 780.7085,569.0769 L780.7085,478.28 L770.7085,468.28 L479.3135,468.28 A0,0 0 0 0 479.3135,468.28" fill="#FEFFDD" style="stroke:#181818;stroke-width:0.5;"/><path d="M770.7085,468.28 L770.7085,478.28 L780.7085,478.28 L770.7085,468.28" fill="#FEFFDD" style="stroke:#181818;stroke-width:0.5;"/><text fill="#000000" font-family="sans-serif" font-size="13" lengthAdjust="spacing" textLength="225.2148" x="485.3135" y="485.3469">EventListeners can be declared on</text><text fill="#000000" font-family="sans-serif" font-size="13" lengthAdjust="spacing" textLength="236.9326" x="485.3135" y="500.4797">any public Spring bean method, e.g.</text><text fill="#000000" font-family="sans-serif" font-size="13" font-weight="700" lengthAdjust="spacing" textLength="120.5737" x="485.3135" y="515.6125">@EventListener(</text><text fill="#000000" font-family="sans-serif" font-size="13" lengthAdjust="spacing" textLength="28.9263" x="485.3135" y="530.7453">&#160;&#160;&#160;&#160;&#160;&#160;&#160;</text><text fill="#000000" font-family="sans-serif" font-size="13" font-style="italic" font-weight="700" lengthAdjust="spacing" textLength="55.2246" x="514.2398" y="530.7453">Custom</text><text fill="#000000" font-family="sans-serif" font-size="13" font-weight="700" lengthAdjust="spacing" textLength="196.2441" x="569.4644" y="530.7453">ActionDomainEvent.class).</text><text fill="#000000" font-family="sans-serif" font-size="13" lengthAdjust="spacing" textLength="20.4712" x="485.3135" y="545.8781">Via</text><text fill="#000000" font-family="sans-serif" font-size="13" font-style="italic" lengthAdjust="spacing" textLength="87.6865" x="509.917" y="545.8781">DomainEvent</text><text fill="#000000" font-family="sans-serif" font-size="13" lengthAdjust="spacing" textLength="115.813" x="597.6035" y="545.8781">.getEventPhase(),</text><text fill="#000000" font-family="sans-serif" font-size="13" lengthAdjust="spacing" textLength="203.3916" x="485.3135" y="561.011">further filtering can be applied.</text></g><!--reverse link MB to P--><g class="link" data-entity-1="ent0004" data-entity-2="ent0005" data-link-type="dependency" data-source-line="14" id="lnk9"><path d="M209.5526,330.7774 C204.6326,368.2474 191.7235,466.53 186.8235,503.92" fill="none" id="MB-backto-P" style="stroke:#181818;stroke-width:1;"/><polygon fill="#181818" points="210.2035,325.82,205.0658,334.2227,209.5526,330.7774,212.9978,335.2642,210.2035,325.82" style="stroke:#181818;stroke-width:1;stroke-linejoin:miter;stroke-miterlimit:10;"/><text fill="#000000" font-family="sans-serif" font-size="13" lengthAdjust="spacing" textLength="22.4834" x="204.2835" y="411.8469">is a</text></g><!--reverse link MB to A--><g class="link" data-entity-1="ent0004" data-entity-2="ent0006" data-link-type="dependency" data-source-line="15" id="lnk11"><path d="M199.0461,329.5989 C189.6761,342.4389 178.4035,358.34 167.0135,376.28 C137.9035,422.14 106.8935,478.74 93.2135,504.18" fill="none" id="MB-backto-A" style="stroke:#181818;stroke-width:1;"/><polygon fill="#181818" points="201.9935,325.56,193.457,330.4721,199.0461,329.5989,199.9193,335.188,201.9935,325.56" style="stroke:#181818;stroke-width:1;stroke-linejoin:miter;stroke-miterlimit:10;"/><text fill="#000000" font-family="sans-serif" font-size="13" lengthAdjust="spacing" textLength="22.4834" x="168.0135" y="411.8469">is a</text></g><!--reverse link MB to C--><g class="link" data-entity-1="ent0004" data-entity-2="ent0007" data-link-type="dependency" data-source-line="16" id="lnk13"><path d="M220.0583,330.4005 C236.4583,367.8705 279.6335,466.53 295.9935,503.92" fill="none" id="MB-backto-C" style="stroke:#181818;stroke-width:1;"/><polygon fill="#181818" points="218.0535,325.82,217.9978,335.6687,220.0583,330.4005,225.3265,332.461,218.0535,325.82" style="stroke:#181818;stroke-width:1;stroke-linejoin:miter;stroke-miterlimit:10;"/><text fill="#000000" font-family="sans-serif" font-size="13" lengthAdjust="spacing" textLength="22.4834" x="266.0735" y="411.8469">is a</text></g><!--link DO to MB--><g class="link" data-entity-1="ent0002" data-entity-2="ent0004" data-link-type="dependency" data-source-line="18" id="lnk14"><path d="M283.8335,128.71 C281.6935,157.71 275.7135,206.97 259.0135,245.74 C250.5935,265.3 238.6072,280.8357 227.7572,293.0957" fill="none" id="DO-to-MB" style="stroke:#181818;stroke-width:1;"/><polygon fill="#181818" points="224.4435,296.84,233.4035,292.7512,227.7572,293.0957,227.4127,287.4494,224.4435,296.84" style="stroke:#181818;stroke-width:1;stroke-linejoin:miter;stroke-miterlimit:10;"/><text fill="#000000" font-family="sans-serif" font-size="13" lengthAdjust="spacing" textLength="22.9785" x="274.3035" y="226.8069">has</text></g><!--link DS to A--><g class="link" data-entity-1="ent0001" data-entity-2="ent0006" data-link-type="dependency" data-source-line="19" id="lnk15"><path d="M86.0135,129.45 C86.0135,207.65 86.0135,439.2 86.0135,498.88" fill="none" id="DS-to-A" style="stroke:#181818;stroke-width:1;"/><polygon fill="#181818" points="86.0135,503.88,90.0135,494.88,86.0135,498.88,82.0135,494.88,86.0135,503.88" style="stroke:#181818;stroke-width:1;stroke-linejoin:miter;stroke-miterlimit:10;"/><text fill="#000000" font-family="sans-serif" font-size="13" lengthAdjust="spacing" textLength="22.9785" x="87.0135" y="315.5769">has</text></g><!--link DE to MB--><g class="link" data-entity-1="ent0003" data-entity-2="ent0004" data-link-type="dependency" data-source-line="21" id="lnk16"><path d="M185.1435,128.46 C184.5635,156.81 184.9435,205.04 192.0135,245.74 C195.1335,263.7 200.1215,278.957 204.9215,291.787" fill="none" id="DE-to-MB" style="stroke:#181818;stroke-width:1;"/><polygon fill="#181818" points="206.6735,296.47,207.2663,286.639,204.9215,291.787,199.7735,289.4422,206.6735,296.47" style="stroke:#181818;stroke-width:1;stroke-linejoin:miter;stroke-miterlimit:10;"/><text fill="#000000" font-family="sans-serif" font-size="13" lengthAdjust="spacing" textLength="43.7354" x="201.4971" y="211.8069">can be</text><text fill="#000000" font-family="sans-serif" font-size="13" lengthAdjust="spacing" textLength="56.5703" x="197.1458" y="226.9397">declared</text><text fill="#000000" font-family="sans-serif" font-size="13" lengthAdjust="spacing" textLength="17.875" x="218.5596" y="242.0725">for</text></g><!--link P to EX--><g class="link" data-entity-1="ent0005" data-entity-2="ent0017" data-link-type="dependency" data-source-line="24" id="lnk18"><path d="M176.7435,533.43 C158.0635,564.51 115.3592,635.5345 96.7692,666.4645" fill="none" id="P-to-EX" style="stroke:#181818;stroke-width:1;"/><polygon fill="#181818" points="94.1935,670.75,102.2582,665.0967,96.7692,666.4645,95.4014,660.9755,94.1935,670.75" style="stroke:#181818;stroke-width:1;stroke-linejoin:miter;stroke-miterlimit:10;"/><text fill="#000000" font-family="sans-serif" font-size="13" lengthAdjust="spacing" textLength="24.959" x="139.2593" y="553.156">edit</text><text fill="#000000" font-family="sans-serif" font-size="13" lengthAdjust="spacing" textLength="30.7227" x="140.5097" y="568.2888">is an</text></g><!--link A to EX--><g class="link" data-entity-1="ent0006" data-entity-2="ent0017" data-link-type="dependency" data-source-line="25" id="lnk19"><path d="M86.0135,533.43 C86.0135,564.51 86.0135,634.82 86.0135,665.75" fill="none" id="A-to-EX" style="stroke:#181818;stroke-width:1;"/><polygon fill="#181818" points="86.0135,670.75,90.0135,661.75,86.0135,665.75,82.0135,661.75,86.0135,670.75" style="stroke:#181818;stroke-width:1;stroke-linejoin:miter;stroke-miterlimit:10;"/><text fill="#000000" font-family="sans-serif" font-size="13" lengthAdjust="spacing" textLength="67.5137" x="6" y="553.156">invocation</text><text fill="#000000" font-family="sans-serif" font-size="13" lengthAdjust="spacing" textLength="30.7227" x="28.5278" y="568.2888">is an</text></g><!--reverse link EB to SPRING--><g class="link" data-entity-1="ent0020" data-entity-2="ent0021" data-link-type="dependency" data-source-line="29" id="lnk23"><path d="M458.9135,685.35 C482.3535,685.35 510.0335,685.35 534.7535,685.35" fill="none" id="EB-backto-SPRING" style="stroke:#181818;stroke-width:1;stroke-dasharray:7,7;"/><polygon fill="#181818" points="453.9135,685.35,462.9135,689.35,458.9135,685.35,462.9135,681.35,453.9135,685.35" style="stroke:#181818;stroke-width:1;stroke-linejoin:miter;stroke-miterlimit:10;"/><text fill="#000000" font-family="sans-serif" font-size="13" lengthAdjust="spacing" textLength="60.2583" x="464.3435" y="663.4169">provides/</text><text fill="#000000" font-family="sans-serif" font-size="13" lengthAdjust="spacing" textLength="59.8584" x="464.5434" y="678.5497">manages</text></g><!--link EX to EB--><g class="link" data-entity-1="ent0017" data-entity-2="ent0020" data-link-type="dependency" data-source-line="30" id="lnk24"><path d="M138.0835,685.35 C209.7535,685.35 331.4335,685.35 389.0235,685.35" fill="none" id="EX-to-EB" style="stroke:#181818;stroke-width:1;"/><polygon fill="#181818" points="394.0235,685.35,385.0235,681.35,389.0235,685.35,385.0235,689.35,394.0235,685.35" style="stroke:#181818;stroke-width:1;stroke-linejoin:miter;stroke-miterlimit:10;"/><text fill="#000000" font-family="sans-serif" font-size="13" lengthAdjust="spacing" textLength="100.9976" x="213.8693" y="648.4169">is published as:</text><text fill="#000000" font-family="sans-serif" font-size="13" lengthAdjust="spacing" textLength="231.4292" x="152.7858" y="663.5497">* before event (phase: EXECUTING)</text><text fill="#000000" font-family="sans-serif" font-size="13" lengthAdjust="spacing" textLength="214.8809" x="161.06" y="678.6825">* after event (phase: EXECUTED)</text></g><!--link EL to EB--><g class="link" data-entity-1="ent0025" data-entity-2="ent0020" data-link-type="dependency" data-source-line="33" id="lnk26"><path d="M419.7435,543.62 C420.6935,574.93 422.1913,624.4523 423.1413,655.6423" fill="none" id="EL-to-EB" style="stroke:#181818;stroke-width:1;"/><polygon fill="#181818" points="423.2935,660.64,427.0176,651.5224,423.1413,655.6423,419.0213,651.7659,423.2935,660.64" style="stroke:#181818;stroke-width:1;stroke-linejoin:miter;stroke-miterlimit:10;"/><text fill="#000000" font-family="sans-serif" font-size="13" lengthAdjust="spacing" textLength="42.104" x="423.2535" y="612.1369">listens</text><text fill="#000000" font-family="sans-serif" font-size="13" lengthAdjust="spacing" textLength="16.1929" x="440.3414" y="627.2697">on</text></g><!--reverse link MB to EL--><g class="link" data-entity-1="ent0004" data-entity-2="ent0025" data-link-type="dependency" data-source-line="34" id="lnk28"><path d="M234.0987,327.5949 C251.2487,339.9649 273.3435,356.8 294.0135,376.28 C335.7435,415.6 378.8335,467.24 401.9235,495.98" fill="none" id="MB-backto-EL" style="stroke:#181818;stroke-width:1;"/><polygon fill="#181818" points="230.0435,324.67,235.0029,333.1791,234.0987,327.5949,239.6828,326.6907,230.0435,324.67" style="stroke:#181818;stroke-width:1;stroke-linejoin:miter;stroke-miterlimit:10;"/><text fill="#000000" font-family="sans-serif" font-size="13" lengthAdjust="spacing" textLength="119.0566" x="352.6499" y="389.3469">can check/modify:</text><text fill="#000000" font-family="sans-serif" font-size="13" lengthAdjust="spacing" textLength="100.0771" x="362.1397" y="404.4797">visibility (hide),</text><text fill="#000000" font-family="sans-serif" font-size="13" lengthAdjust="spacing" textLength="119.7295" x="352.3135" y="419.6125">usability (disable),</text><text fill="#000000" font-family="sans-serif" font-size="13" lengthAdjust="spacing" textLength="114.0103" x="357.2393" y="434.7453">validity (validate)</text></g><!--link DE to GMN29--><g class="link" data-entity-1="ent0003" data-entity-2="ent0030" data-link-type="association" data-source-line="37" id="lnk31"><path d="M196.2435,78.89 C205.7735,59.73 221.9835,34.36 245.0135,22.68 C277.9135,6 292.0735,14.38 328.0135,22.68 C343.2335,26.2 358.6735,31.32 373.6835,37.3" fill="none" id="DE-GMN29" style="stroke:#181818;stroke-width:1;stroke-dasharray:7,7;"/></g><?plantuml-src ZLJVRzem47xtNt7g4rGbdVQ8EhH0eWs9hcXqLHzuCSc5U7Nio7ReqBJ_lMSR0cqtQNc9_Ntdky_tm_P9g9ORte3I9LfiuUC7nfpUeglHm6y6z0qotN2Xrcg5PYSA70AtaArUStURdrYuIDr5waPCZYmjynsg0v-pFyopjzXiqDnSYqd0RwVl8Y-DRj6uVU2N4KiB9xGAI1gHcPOIJ-YCt2zXr8qcv1B682nmbhu5Pcy1bjt1g3n2DRSiMtc0aFG0i2m_CocuWWt2Ma69XUG6Ix-kj65iaF_2ekiLvOyaw09BuRo5ZwOkl5zFf70Xr4uNt5k_feabJpvlQpNjR7GrPODLQuJQXkrg-Nt-xGkBFqXaGgUyjjRedQ2ANgzLmnNVecNv8umEB8LekuqKjYRDt8vzs4kw2sb7G1yG1YrT6CUa8P_zk2Vdms33AqVL-Pj9dWrFQXV2EbHeekG5onSmEWQNWRC-fbQ1wSupMjHOF5qtkXJLtWlR2IisGWgtXq5DLnfU4TXPViHAGMiPuHsNeWneM767f4bfXs34jdQWAzzyIo-Racnmp2xXwppp6Ro4RBvAfukuVaWNyoozZvi-1VqwpzXzZL3HuE2pDa_0EqUTxaJ1fTo3HLLQq9rZ8L4MdeMhWVeQsXXQgB3JfgHaXdoK2QD3uBM-LKnZqKzIIAyV65_2lkkuxnZ65PsBNUJsBTLHOkFBHC4uD67Ku6Hp1PXi4tQpcNoE0pK8i-G_mifJj4yKVDPPkf-F6stFn2IamThXl-Nxwdl3OqlOuzpqyhNNleyTMK1iRZ8WguOU0rsUINtbgLTCp7-AV10StYSpeKSdR49d38PNhEfCU8Og8QdVlPw3QDwsKfnNwmK0?></g></svg>