<?xml version="1.0" encoding="UTF-8" standalone="no"?><svg xmlns="http://www.w3.org/2000/svg" xmlns:xlink="http://www.w3.org/1999/xlink" contentStyleType="text/css" height="730px" preserveAspectRatio="none" style="width:782px;height:730px;background:#FFFFFF;" version="1.1" viewBox="0 0 782 730" width="782px" zoomAndPan="magnify"><defs/><g><!--MD5=[9334935552d4be9f1119fee87bd9c090]
cluster metamodel--><g id="cluster_metamodel"><path d="M8.5,6 L86.5,6 A3.75,3.75 0 0 1 89,8.5 L96,28.7999 L582.5,28.7999 A2.5,2.5 0 0 1 585,31.2999 L585,720.5 A2.5,2.5 0 0 1 582.5,723 L8.5,723 A2.5,2.5 0 0 1 6,720.5 L6,8.5 A2.5,2.5 0 0 1 8.5,6 " style="stroke:#000000;stroke-width:1.5;fill:none;"/><line style="stroke:#000000;stroke-width:1.5;fill:none;" x1="6" x2="96" y1="28.7999" y2="28.7999"/><text fill="#000000" font-family="sans-serif" font-size="14" font-weight="bold" lengthAdjust="spacing" textLength="77" x="10" y="21.9999">metamodel</text></g><!--MD5=[58f92eeca1b9b283e19d96b306260adc]
cluster runtime--><g id="cluster_runtime"><path d="M611.5,27 L665.5,27 A3.75,3.75 0 0 1 668,29.5 L675,49.7999 L772.5,49.7999 A2.5,2.5 0 0 1 775,52.2999 L775,293 A2.5,2.5 0 0 1 772.5,295.5 L611.5,295.5 A2.5,2.5 0 0 1 609,293 L609,29.5 A2.5,2.5 0 0 1 611.5,27 " style="stroke:#000000;stroke-width:1.5;fill:none;"/><line style="stroke:#000000;stroke-width:1.5;fill:none;" x1="609" x2="675" y1="49.7999" y2="49.7999"/><text fill="#000000" font-family="sans-serif" font-size="14" font-weight="bold" lengthAdjust="spacing" textLength="53" x="613" y="42.9999">runtime</text></g><!--MD5=[9bd84f0cda9d158e3d4f78628a93cd60]
class Object\nSpecId--><g id="elem_Object\nSpecId"><rect codeLine="21" fill="#FFFFFF" height="82.7999" id="Object\nSpecId" rx="2.5" ry="2.5" style="stroke:#181818;stroke-width:0.5;" width="75" x="319.5" y="41"/><ellipse cx="334.5" cy="70" fill="#ADD1B2" rx="11" ry="11" style="stroke:#181818;stroke-width:1.0;"/><path d="M333.8594,73.7812 Q334.6563,73.7812 335.2188,73.5937 Q335.7969,73.3906 336.0313,73.1719 Q336.2813,72.9375 336.5156,72.75 Q336.7656,72.5469 336.9844,72.5469 Q337.3281,72.5469 337.5781,72.8125 Q337.8438,73.0625 337.8438,73.3906 Q337.8438,74.125 336.6719,74.8125 Q335.5156,75.4844 333.8125,75.4844 Q331.6563,75.4844 330.2344,74.2187 Q328.8125,72.9531 328.8125,71.0156 L328.8125,69.8906 Q328.8125,67.8594 330.1406,66.4844 Q331.4688,65.0937 333.4375,65.0937 Q334.625,65.0937 335.8438,65.6719 L336.0156,65.75 Q336.3125,65.3437 336.7344,65.3437 Q337.2188,65.3437 337.3906,65.6406 Q337.5781,65.9219 337.5781,66.4687 L337.5781,67.8906 Q337.5781,69.0156 336.7344,69.0156 Q336.4219,69.0156 336.2188,68.8437 Q336.0313,68.6719 335.9844,68.5312 Q335.9531,68.375 335.9063,68.1094 Q335.7969,67.5937 335.2813,67.2812 Q334.7656,66.9687 334.3125,66.8906 Q333.875,66.7969 333.5,66.7969 Q332.2188,66.7969 331.3594,67.6719 Q330.5156,68.5469 330.5156,69.8906 L330.5156,70.9844 Q330.5156,72.2656 331.4219,73.0312 Q332.3281,73.7812 333.8594,73.7812 Z " fill="#000000"/><text fill="#000000" font-family="sans-serif" font-size="12" font-style="italic" lengthAdjust="spacing" textLength="39" x="350.5" y="58.0001">«value»</text><text fill="#000000" font-family="sans-serif" font-size="14" lengthAdjust="spacing" textLength="40" x="350" y="74.4">Object</text><text fill="#000000" font-family="sans-serif" font-size="14" lengthAdjust="spacing" textLength="43" x="348.5" y="91.2">SpecId</text><line style="stroke:#181818;stroke-width:0.5;" x1="320.5" x2="393.5" y1="99" y2="99"/><ellipse cx="330.5" cy="110" fill="none" rx="3" ry="3" style="stroke:#038048;stroke-width:1.0;"/><text fill="#000000" font-family="sans-serif" font-size="14" lengthAdjust="spacing" textLength="26" x="339.5" y="116.9999">type</text></g><!--MD5=[e7dba77a4199cef7594906a5928d38f6]
class Object\nSpecification--><g id="elem_Object\nSpecification"><rect codeLine="25" fill="#00FFFF" height="107.5998" id="Object\nSpecification" rx="2.5" ry="2.5" style="stroke:#181818;stroke-width:0.5;" width="177" x="94.5" y="184"/><ellipse cx="139.75" cy="213" fill="#ADD1B2" rx="11" ry="11" style="stroke:#181818;stroke-width:1.0;"/><path d="M139.1094,216.7812 Q139.9063,216.7812 140.4688,216.5937 Q141.0469,216.3906 141.2813,216.1719 Q141.5313,215.9375 141.7656,215.75 Q142.0156,215.5469 142.2344,215.5469 Q142.5781,215.5469 142.8281,215.8125 Q143.0938,216.0625 143.0938,216.3906 Q143.0938,217.125 141.9219,217.8125 Q140.7656,218.4844 139.0625,218.4844 Q136.9063,218.4844 135.4844,217.2187 Q134.0625,215.9531 134.0625,214.0156 L134.0625,212.8906 Q134.0625,210.8594 135.3906,209.4844 Q136.7188,208.0937 138.6875,208.0937 Q139.875,208.0937 141.0938,208.6719 L141.2656,208.75 Q141.5625,208.3437 141.9844,208.3437 Q142.4688,208.3437 142.6406,208.6406 Q142.8281,208.9219 142.8281,209.4687 L142.8281,210.8906 Q142.8281,212.0156 141.9844,212.0156 Q141.6719,212.0156 141.4688,211.8437 Q141.2813,211.6719 141.2344,211.5312 Q141.2031,211.375 141.1563,211.1094 Q141.0469,210.5937 140.5313,210.2812 Q140.0156,209.9687 139.5625,209.8906 Q139.125,209.7969 138.75,209.7969 Q137.4688,209.7969 136.6094,210.6719 Q135.7656,211.5469 135.7656,212.8906 L135.7656,213.9844 Q135.7656,215.2656 136.6719,216.0312 Q137.5781,216.7812 139.1094,216.7812 Z " fill="#000000"/><text fill="#000000" font-family="sans-serif" font-size="12" font-style="italic" lengthAdjust="spacing" textLength="36" x="181.25" y="201.0001">«desc»</text><text fill="#000000" font-family="sans-serif" font-size="14" lengthAdjust="spacing" textLength="40" x="179.25" y="217.4">Object</text><text fill="#000000" font-family="sans-serif" font-size="14" lengthAdjust="spacing" textLength="78" x="160.25" y="234.2">Specification</text><line style="stroke:#181818;stroke-width:0.5;" x1="95.5" x2="270.5" y1="242" y2="242"/><ellipse cx="105.5" cy="253" fill="none" rx="3" ry="3" style="stroke:#038048;stroke-width:1.0;"/><text fill="#000000" font-family="sans-serif" font-size="14" lengthAdjust="spacing" textLength="79" x="114.5" y="259.9999">objectSpecId</text><line style="stroke:#181818;stroke-width:1.0;stroke-dasharray:1.0,2.0;" x1="95.5" x2="270.5" y1="266.7999" y2="266.7999"/><rect fill="none" height="6" style="stroke:#C82930;stroke-width:1.0;" width="6" x="102.5" y="274.7999"/><text fill="#000000" font-family="sans-serif" font-size="14" lengthAdjust="spacing" textLength="151" x="114.5" y="284.7998">fullyQualifiedClassName</text></g><!--MD5=[1ca98e29750297c77ef424fb76881557]
class Object\nMember--><g id="elem_Object\nMember"><rect codeLine="31" fill="#00FFFF" height="58" id="Object\nMember" rx="2.5" ry="2.5" style="stroke:#181818;stroke-width:0.5;" width="82" x="147" y="413"/><ellipse cx="162" cy="442" fill="#ADD1B2" rx="11" ry="11" style="stroke:#181818;stroke-width:1.0;"/><path d="M161.3594,445.7812 Q162.1563,445.7812 162.7188,445.5937 Q163.2969,445.3906 163.5313,445.1719 Q163.7813,444.9375 164.0156,444.75 Q164.2656,444.5469 164.4844,444.5469 Q164.8281,444.5469 165.0781,444.8125 Q165.3438,445.0625 165.3438,445.3906 Q165.3438,446.125 164.1719,446.8125 Q163.0156,447.4844 161.3125,447.4844 Q159.1563,447.4844 157.7344,446.2187 Q156.3125,444.9531 156.3125,443.0156 L156.3125,441.8906 Q156.3125,439.8594 157.6406,438.4844 Q158.9688,437.0937 160.9375,437.0937 Q162.125,437.0937 163.3438,437.6719 L163.5156,437.75 Q163.8125,437.3437 164.2344,437.3437 Q164.7188,437.3437 164.8906,437.6406 Q165.0781,437.9219 165.0781,438.4687 L165.0781,439.8906 Q165.0781,441.0156 164.2344,441.0156 Q163.9219,441.0156 163.7188,440.8437 Q163.5313,440.6719 163.4844,440.5312 Q163.4531,440.375 163.4063,440.1094 Q163.2969,439.5937 162.7813,439.2812 Q162.2656,438.9687 161.8125,438.8906 Q161.375,438.7969 161,438.7969 Q159.7188,438.7969 158.8594,439.6719 Q158.0156,440.5469 158.0156,441.8906 L158.0156,442.9844 Q158.0156,444.2656 158.9219,445.0312 Q159.8281,445.7812 161.3594,445.7812 Z " fill="#000000"/><text fill="#000000" font-family="sans-serif" font-size="12" font-style="italic" lengthAdjust="spacing" textLength="36" x="183" y="430.0001">«desc»</text><text fill="#000000" font-family="sans-serif" font-size="14" lengthAdjust="spacing" textLength="40" x="181" y="446.4">Object</text><text fill="#000000" font-family="sans-serif" font-size="14" lengthAdjust="spacing" textLength="50" x="176" y="463.2">Member</text></g><!--MD5=[236dc35556468579b5ef30f394865326]
class Object\nAction--><g id="elem_Object\nAction"><rect codeLine="35" fill="#00FFFF" height="58" id="Object\nAction" rx="2.5" ry="2.5" style="stroke:#181818;stroke-width:0.5;" width="72" x="159" y="531"/><ellipse cx="174" cy="560" fill="#ADD1B2" rx="11" ry="11" style="stroke:#181818;stroke-width:1.0;"/><path d="M173.3594,563.7812 Q174.1563,563.7812 174.7188,563.5937 Q175.2969,563.3906 175.5313,563.1719 Q175.7813,562.9375 176.0156,562.75 Q176.2656,562.5469 176.4844,562.5469 Q176.8281,562.5469 177.0781,562.8125 Q177.3438,563.0625 177.3438,563.3906 Q177.3438,564.125 176.1719,564.8125 Q175.0156,565.4844 173.3125,565.4844 Q171.1563,565.4844 169.7344,564.2187 Q168.3125,562.9531 168.3125,561.0156 L168.3125,559.8906 Q168.3125,557.8594 169.6406,556.4844 Q170.9688,555.0937 172.9375,555.0937 Q174.125,555.0937 175.3438,555.6719 L175.5156,555.75 Q175.8125,555.3437 176.2344,555.3437 Q176.7188,555.3437 176.8906,555.6406 Q177.0781,555.9219 177.0781,556.4687 L177.0781,557.8906 Q177.0781,559.0156 176.2344,559.0156 Q175.9219,559.0156 175.7188,558.8437 Q175.5313,558.6719 175.4844,558.5312 Q175.4531,558.375 175.4063,558.1094 Q175.2969,557.5937 174.7813,557.2812 Q174.2656,556.9687 173.8125,556.8906 Q173.375,556.7969 173,556.7969 Q171.7188,556.7969 170.8594,557.6719 Q170.0156,558.5469 170.0156,559.8906 L170.0156,560.9844 Q170.0156,562.2656 170.9219,563.0312 Q171.8281,563.7812 173.3594,563.7812 Z " fill="#000000"/><text fill="#000000" font-family="sans-serif" font-size="12" font-style="italic" lengthAdjust="spacing" textLength="36" x="190" y="548.0001">«desc»</text><text fill="#000000" font-family="sans-serif" font-size="14" lengthAdjust="spacing" textLength="40" x="188" y="564.4">Object</text><text fill="#000000" font-family="sans-serif" font-size="14" lengthAdjust="spacing" textLength="38" x="189" y="581.2">Action</text></g><!--MD5=[cc44103bb19bcf3d3cadc52e845b3d92]
class Object\nAssociation--><g id="elem_Object\nAssociation"><rect codeLine="39" fill="#00FFFF" height="58" id="Object\nAssociation" rx="2.5" ry="2.5" style="stroke:#181818;stroke-width:0.5;" width="102" x="22" y="531"/><ellipse cx="37" cy="560" fill="#ADD1B2" rx="11" ry="11" style="stroke:#181818;stroke-width:1.0;"/><path d="M36.3594,563.7812 Q37.1563,563.7812 37.7188,563.5937 Q38.2969,563.3906 38.5313,563.1719 Q38.7813,562.9375 39.0156,562.75 Q39.2656,562.5469 39.4844,562.5469 Q39.8281,562.5469 40.0781,562.8125 Q40.3438,563.0625 40.3438,563.3906 Q40.3438,564.125 39.1719,564.8125 Q38.0156,565.4844 36.3125,565.4844 Q34.1563,565.4844 32.7344,564.2187 Q31.3125,562.9531 31.3125,561.0156 L31.3125,559.8906 Q31.3125,557.8594 32.6406,556.4844 Q33.9688,555.0937 35.9375,555.0937 Q37.125,555.0937 38.3438,555.6719 L38.5156,555.75 Q38.8125,555.3437 39.2344,555.3437 Q39.7188,555.3437 39.8906,555.6406 Q40.0781,555.9219 40.0781,556.4687 L40.0781,557.8906 Q40.0781,559.0156 39.2344,559.0156 Q38.9219,559.0156 38.7188,558.8437 Q38.5313,558.6719 38.4844,558.5312 Q38.4531,558.375 38.4063,558.1094 Q38.2969,557.5937 37.7813,557.2812 Q37.2656,556.9687 36.8125,556.8906 Q36.375,556.7969 36,556.7969 Q34.7188,556.7969 33.8594,557.6719 Q33.0156,558.5469 33.0156,559.8906 L33.0156,560.9844 Q33.0156,562.2656 33.9219,563.0312 Q34.8281,563.7812 36.3594,563.7812 Z " fill="#000000"/><text fill="#000000" font-family="sans-serif" font-size="12" font-style="italic" lengthAdjust="spacing" textLength="36" x="68" y="548.0001">«desc»</text><text fill="#000000" font-family="sans-serif" font-size="14" lengthAdjust="spacing" textLength="40" x="66" y="564.4">Object</text><text fill="#000000" font-family="sans-serif" font-size="14" lengthAdjust="spacing" textLength="70" x="51" y="581.2">Association</text></g><!--MD5=[ffd5e7ba3b20fcc13a678afb28e0866f]
class OneToOne\nAssociation--><g id="elem_OneToOne\nAssociation"><rect codeLine="43" fill="#00FFFF" height="58" id="OneToOne\nAssociation" rx="2.5" ry="2.5" style="stroke:#181818;stroke-width:0.5;" width="102" x="22" y="649"/><ellipse cx="37" cy="678" fill="#ADD1B2" rx="11" ry="11" style="stroke:#181818;stroke-width:1.0;"/><path d="M36.3594,681.7812 Q37.1563,681.7812 37.7188,681.5937 Q38.2969,681.3906 38.5313,681.1719 Q38.7813,680.9375 39.0156,680.75 Q39.2656,680.5469 39.4844,680.5469 Q39.8281,680.5469 40.0781,680.8125 Q40.3438,681.0625 40.3438,681.3906 Q40.3438,682.125 39.1719,682.8125 Q38.0156,683.4844 36.3125,683.4844 Q34.1563,683.4844 32.7344,682.2187 Q31.3125,680.9531 31.3125,679.0156 L31.3125,677.8906 Q31.3125,675.8594 32.6406,674.4844 Q33.9688,673.0937 35.9375,673.0937 Q37.125,673.0937 38.3438,673.6719 L38.5156,673.75 Q38.8125,673.3437 39.2344,673.3437 Q39.7188,673.3437 39.8906,673.6406 Q40.0781,673.9219 40.0781,674.4687 L40.0781,675.8906 Q40.0781,677.0156 39.2344,677.0156 Q38.9219,677.0156 38.7188,676.8437 Q38.5313,676.6719 38.4844,676.5312 Q38.4531,676.375 38.4063,676.1094 Q38.2969,675.5937 37.7813,675.2812 Q37.2656,674.9687 36.8125,674.8906 Q36.375,674.7969 36,674.7969 Q34.7188,674.7969 33.8594,675.6719 Q33.0156,676.5469 33.0156,677.8906 L33.0156,678.9844 Q33.0156,680.2656 33.9219,681.0312 Q34.8281,681.7812 36.3594,681.7812 Z " fill="#000000"/><text fill="#000000" font-family="sans-serif" font-size="12" font-style="italic" lengthAdjust="spacing" textLength="36" x="68" y="666.0001">«desc»</text><text fill="#000000" font-family="sans-serif" font-size="14" lengthAdjust="spacing" textLength="68" x="52" y="682.4">OneToOne</text><text fill="#000000" font-family="sans-serif" font-size="14" lengthAdjust="spacing" textLength="70" x="51" y="699.2">Association</text></g><!--MD5=[3885f9b3a6a68b2317d3b38f329e94da]
class OneToMany\nAssociation--><g id="elem_OneToMany\nAssociation"><rect codeLine="47" fill="#00FFFF" height="58" id="OneToMany\nAssociation" rx="2.5" ry="2.5" style="stroke:#181818;stroke-width:0.5;" width="109" x="159.5" y="649"/><ellipse cx="174.5" cy="678" fill="#ADD1B2" rx="11" ry="11" style="stroke:#181818;stroke-width:1.0;"/><path d="M173.8594,681.7812 Q174.6563,681.7812 175.2188,681.5937 Q175.7969,681.3906 176.0313,681.1719 Q176.2813,680.9375 176.5156,680.75 Q176.7656,680.5469 176.9844,680.5469 Q177.3281,680.5469 177.5781,680.8125 Q177.8438,681.0625 177.8438,681.3906 Q177.8438,682.125 176.6719,682.8125 Q175.5156,683.4844 173.8125,683.4844 Q171.6563,683.4844 170.2344,682.2187 Q168.8125,680.9531 168.8125,679.0156 L168.8125,677.8906 Q168.8125,675.8594 170.1406,674.4844 Q171.4688,673.0937 173.4375,673.0937 Q174.625,673.0937 175.8438,673.6719 L176.0156,673.75 Q176.3125,673.3437 176.7344,673.3437 Q177.2188,673.3437 177.3906,673.6406 Q177.5781,673.9219 177.5781,674.4687 L177.5781,675.8906 Q177.5781,677.0156 176.7344,677.0156 Q176.4219,677.0156 176.2188,676.8437 Q176.0313,676.6719 175.9844,676.5312 Q175.9531,676.375 175.9063,676.1094 Q175.7969,675.5937 175.2813,675.2812 Q174.7656,674.9687 174.3125,674.8906 Q173.875,674.7969 173.5,674.7969 Q172.2188,674.7969 171.3594,675.6719 Q170.5156,676.5469 170.5156,677.8906 L170.5156,678.9844 Q170.5156,680.2656 171.4219,681.0312 Q172.3281,681.7812 173.8594,681.7812 Z " fill="#000000"/><text fill="#000000" font-family="sans-serif" font-size="12" font-style="italic" lengthAdjust="spacing" textLength="36" x="209" y="666.0001">«desc»</text><text fill="#000000" font-family="sans-serif" font-size="14" lengthAdjust="spacing" textLength="77" x="188.5" y="682.4">OneToMany</text><text fill="#000000" font-family="sans-serif" font-size="14" lengthAdjust="spacing" textLength="70" x="192" y="699.2">Association</text></g><!--MD5=[3efd7acf70beb98497b74e1a8eca2471]
class FacetHolder--><g id="elem_FacetHolder"><rect codeLine="51" fill="#00FFFF" height="41.2" id="FacetHolder" rx="2.5" ry="2.5" style="stroke:#181818;stroke-width:0.5;" width="109" x="306.5" y="217.5"/><ellipse cx="321.5" cy="238.1" fill="#B4A7E5" rx="11" ry="11" style="stroke:#181818;stroke-width:1.0;"/><path d="M324.1719,241.3969 Q324.7188,241.3969 325,241.5844 Q325.2813,241.7563 325.2813,242.2563 Q325.2813,243.1 324.1719,243.1 L319.0313,243.1 Q317.9063,243.1 317.9063,242.2563 Q317.9063,241.7563 318.1875,241.5844 Q318.4844,241.3969 319.0313,241.3969 L320.75,241.3969 L320.75,234.8813 L319.0313,234.8813 Q317.9063,234.8813 317.9063,234.0375 Q317.9063,233.5531 318.1875,233.3813 Q318.4844,233.1938 319.0313,233.1938 L324.1719,233.1938 Q324.7188,233.1938 325,233.3813 Q325.2813,233.5531 325.2813,234.0375 Q325.2813,234.8813 324.1719,234.8813 L322.4531,234.8813 L322.4531,241.3969 L324.1719,241.3969 Z " fill="#000000"/><text fill="#000000" font-family="sans-serif" font-size="12" font-style="italic" lengthAdjust="spacing" textLength="36" x="356" y="234.5001">«desc»</text><text fill="#000000" font-family="sans-serif" font-size="14" font-style="italic" lengthAdjust="spacing" textLength="77" x="335.5" y="250.9">FacetHolder</text></g><!--MD5=[686c3c3db2e48a4996b4670260839994]
class Object\nActionParameter--><g id="elem_Object\nActionParameter"><rect codeLine="54" fill="#00FFFF" height="58" id="Object\nActionParameter" rx="2.5" ry="2.5" style="stroke:#181818;stroke-width:0.5;" width="134" x="273" y="413"/><ellipse cx="288" cy="442" fill="#ADD1B2" rx="11" ry="11" style="stroke:#181818;stroke-width:1.0;"/><path d="M287.3594,445.7812 Q288.1563,445.7812 288.7188,445.5937 Q289.2969,445.3906 289.5313,445.1719 Q289.7813,444.9375 290.0156,444.75 Q290.2656,444.5469 290.4844,444.5469 Q290.8281,444.5469 291.0781,444.8125 Q291.3438,445.0625 291.3438,445.3906 Q291.3438,446.125 290.1719,446.8125 Q289.0156,447.4844 287.3125,447.4844 Q285.1563,447.4844 283.7344,446.2187 Q282.3125,444.9531 282.3125,443.0156 L282.3125,441.8906 Q282.3125,439.8594 283.6406,438.4844 Q284.9688,437.0937 286.9375,437.0937 Q288.125,437.0937 289.3438,437.6719 L289.5156,437.75 Q289.8125,437.3437 290.2344,437.3437 Q290.7188,437.3437 290.8906,437.6406 Q291.0781,437.9219 291.0781,438.4687 L291.0781,439.8906 Q291.0781,441.0156 290.2344,441.0156 Q289.9219,441.0156 289.7188,440.8437 Q289.5313,440.6719 289.4844,440.5312 Q289.4531,440.375 289.4063,440.1094 Q289.2969,439.5937 288.7813,439.2812 Q288.2656,438.9687 287.8125,438.8906 Q287.375,438.7969 287,438.7969 Q285.7188,438.7969 284.8594,439.6719 Q284.0156,440.5469 284.0156,441.8906 L284.0156,442.9844 Q284.0156,444.2656 284.9219,445.0312 Q285.8281,445.7812 287.3594,445.7812 Z " fill="#000000"/><text fill="#000000" font-family="sans-serif" font-size="12" font-style="italic" lengthAdjust="spacing" textLength="36" x="335" y="430.0001">«desc»</text><text fill="#000000" font-family="sans-serif" font-size="14" lengthAdjust="spacing" textLength="40" x="333" y="446.4">Object</text><text fill="#000000" font-family="sans-serif" font-size="14" lengthAdjust="spacing" textLength="102" x="302" y="463.2">ActionParameter</text></g><!--MD5=[873294963b1ef1e6f684c01f03f3e5c3]
class OneToOne\nActionParameter--><g id="elem_OneToOne\nActionParameter"><rect codeLine="57" fill="#00FFFF" height="58" id="OneToOne\nActionParameter" rx="2.5" ry="2.5" style="stroke:#181818;stroke-width:0.5;" width="134" x="266" y="531"/><ellipse cx="281" cy="560" fill="#ADD1B2" rx="11" ry="11" style="stroke:#181818;stroke-width:1.0;"/><path d="M280.3594,563.7812 Q281.1563,563.7812 281.7188,563.5937 Q282.2969,563.3906 282.5313,563.1719 Q282.7813,562.9375 283.0156,562.75 Q283.2656,562.5469 283.4844,562.5469 Q283.8281,562.5469 284.0781,562.8125 Q284.3438,563.0625 284.3438,563.3906 Q284.3438,564.125 283.1719,564.8125 Q282.0156,565.4844 280.3125,565.4844 Q278.1563,565.4844 276.7344,564.2187 Q275.3125,562.9531 275.3125,561.0156 L275.3125,559.8906 Q275.3125,557.8594 276.6406,556.4844 Q277.9688,555.0937 279.9375,555.0937 Q281.125,555.0937 282.3438,555.6719 L282.5156,555.75 Q282.8125,555.3437 283.2344,555.3437 Q283.7188,555.3437 283.8906,555.6406 Q284.0781,555.9219 284.0781,556.4687 L284.0781,557.8906 Q284.0781,559.0156 283.2344,559.0156 Q282.9219,559.0156 282.7188,558.8437 Q282.5313,558.6719 282.4844,558.5312 Q282.4531,558.375 282.4063,558.1094 Q282.2969,557.5937 281.7813,557.2812 Q281.2656,556.9687 280.8125,556.8906 Q280.375,556.7969 280,556.7969 Q278.7188,556.7969 277.8594,557.6719 Q277.0156,558.5469 277.0156,559.8906 L277.0156,560.9844 Q277.0156,562.2656 277.9219,563.0312 Q278.8281,563.7812 280.3594,563.7812 Z " fill="#000000"/><text fill="#000000" font-family="sans-serif" font-size="12" font-style="italic" lengthAdjust="spacing" textLength="36" x="328" y="548.0001">«desc»</text><text fill="#000000" font-family="sans-serif" font-size="14" lengthAdjust="spacing" textLength="68" x="312" y="564.4">OneToOne</text><text fill="#000000" font-family="sans-serif" font-size="14" lengthAdjust="spacing" textLength="102" x="295" y="581.2">ActionParameter</text></g><!--MD5=[badba6705019ea2f9274326cbe645d80]
class Facet--><g id="elem_Facet"><rect codeLine="60" fill="#00FFFF" height="41.2" id="Facet" rx="2.5" ry="2.5" style="stroke:#181818;stroke-width:0.5;" width="67" x="450.5" y="217.5"/><ellipse cx="465.5" cy="238.1" fill="#B4A7E5" rx="11" ry="11" style="stroke:#181818;stroke-width:1.0;"/><path d="M468.1719,241.3969 Q468.7188,241.3969 469,241.5844 Q469.2813,241.7563 469.2813,242.2563 Q469.2813,243.1 468.1719,243.1 L463.0313,243.1 Q461.9063,243.1 461.9063,242.2563 Q461.9063,241.7563 462.1875,241.5844 Q462.4844,241.3969 463.0313,241.3969 L464.75,241.3969 L464.75,234.8813 L463.0313,234.8813 Q461.9063,234.8813 461.9063,234.0375 Q461.9063,233.5531 462.1875,233.3813 Q462.4844,233.1938 463.0313,233.1938 L468.1719,233.1938 Q468.7188,233.1938 469,233.3813 Q469.2813,233.5531 469.2813,234.0375 Q469.2813,234.8813 468.1719,234.8813 L466.4531,234.8813 L466.4531,241.3969 L468.1719,241.3969 Z " fill="#000000"/><text fill="#000000" font-family="sans-serif" font-size="12" font-style="italic" lengthAdjust="spacing" textLength="36" x="479" y="234.5001">«desc»</text><text fill="#000000" font-family="sans-serif" font-size="14" font-style="italic" lengthAdjust="spacing" textLength="35" x="479.5" y="250.9">Facet</text></g><!--MD5=[e4bd214989e251692ad5ab01beff51ac]
class OneToMany\nActionParameter--><g id="elem_OneToMany\nActionParameter"><rect codeLine="63" fill="#00FFFF" height="58" id="OneToMany\nActionParameter" rx="2.5" ry="2.5" style="stroke:#181818;stroke-width:0.5;" width="134" x="435" y="531"/><ellipse cx="450" cy="560" fill="#ADD1B2" rx="11" ry="11" style="stroke:#181818;stroke-width:1.0;"/><path d="M449.3594,563.7812 Q450.1563,563.7812 450.7188,563.5937 Q451.2969,563.3906 451.5313,563.1719 Q451.7813,562.9375 452.0156,562.75 Q452.2656,562.5469 452.4844,562.5469 Q452.8281,562.5469 453.0781,562.8125 Q453.3438,563.0625 453.3438,563.3906 Q453.3438,564.125 452.1719,564.8125 Q451.0156,565.4844 449.3125,565.4844 Q447.1563,565.4844 445.7344,564.2187 Q444.3125,562.9531 444.3125,561.0156 L444.3125,559.8906 Q444.3125,557.8594 445.6406,556.4844 Q446.9688,555.0937 448.9375,555.0937 Q450.125,555.0937 451.3438,555.6719 L451.5156,555.75 Q451.8125,555.3437 452.2344,555.3437 Q452.7188,555.3437 452.8906,555.6406 Q453.0781,555.9219 453.0781,556.4687 L453.0781,557.8906 Q453.0781,559.0156 452.2344,559.0156 Q451.9219,559.0156 451.7188,558.8437 Q451.5313,558.6719 451.4844,558.5312 Q451.4531,558.375 451.4063,558.1094 Q451.2969,557.5937 450.7813,557.2812 Q450.2656,556.9687 449.8125,556.8906 Q449.375,556.7969 449,556.7969 Q447.7188,556.7969 446.8594,557.6719 Q446.0156,558.5469 446.0156,559.8906 L446.0156,560.9844 Q446.0156,562.2656 446.9219,563.0312 Q447.8281,563.7812 449.3594,563.7812 Z " fill="#000000"/><text fill="#000000" font-family="sans-serif" font-size="12" font-style="italic" lengthAdjust="spacing" textLength="36" x="497" y="548.0001">«desc»</text><text fill="#000000" font-family="sans-serif" font-size="14" lengthAdjust="spacing" textLength="77" x="476.5" y="564.4">OneToMany</text><text fill="#000000" font-family="sans-serif" font-size="14" lengthAdjust="spacing" textLength="102" x="464" y="581.2">ActionParameter</text></g><!--MD5=[295831136e401ce982bf01b2da4cd370]
class Object\nAdapter--><g id="elem_Object\nAdapter"><rect codeLine="68" fill="#90EE90" height="82.7999" id="Object\nAdapter" rx="2.5" ry="2.5" style="stroke:#181818;stroke-width:0.5;" width="133" x="625.5" y="196.5"/><ellipse cx="663.9" cy="225.5" fill="#ADD1B2" rx="11" ry="11" style="stroke:#181818;stroke-width:1.0;"/><path d="M663.2594,229.2812 Q664.0563,229.2812 664.6188,229.0937 Q665.1969,228.8906 665.4313,228.6719 Q665.6813,228.4375 665.9156,228.25 Q666.1656,228.0469 666.3844,228.0469 Q666.7281,228.0469 666.9781,228.3125 Q667.2438,228.5625 667.2438,228.8906 Q667.2438,229.625 666.0719,230.3125 Q664.9156,230.9844 663.2125,230.9844 Q661.0563,230.9844 659.6344,229.7187 Q658.2125,228.4531 658.2125,226.5156 L658.2125,225.3906 Q658.2125,223.3594 659.5406,221.9844 Q660.8688,220.5937 662.8375,220.5937 Q664.025,220.5937 665.2438,221.1719 L665.4156,221.25 Q665.7125,220.8437 666.1344,220.8437 Q666.6188,220.8437 666.7906,221.1406 Q666.9781,221.4219 666.9781,221.9687 L666.9781,223.3906 Q666.9781,224.5156 666.1344,224.5156 Q665.8219,224.5156 665.6188,224.3437 Q665.4313,224.1719 665.3844,224.0312 Q665.3531,223.875 665.3063,223.6094 Q665.1969,223.0937 664.6813,222.7812 Q664.1656,222.4687 663.7125,222.3906 Q663.275,222.2969 662.9,222.2969 Q661.6188,222.2969 660.7594,223.1719 Q659.9156,224.0469 659.9156,225.3906 L659.9156,226.4844 Q659.9156,227.7656 660.8219,228.5312 Q661.7281,229.2812 663.2594,229.2812 Z " fill="#000000"/><text fill="#000000" font-family="sans-serif" font-size="12" font-style="italic" lengthAdjust="spacing" textLength="27" x="694.1" y="213.5001">«ppt»</text><text fill="#000000" font-family="sans-serif" font-size="14" lengthAdjust="spacing" textLength="40" x="687.6" y="229.9">Object</text><text fill="#000000" font-family="sans-serif" font-size="14" lengthAdjust="spacing" textLength="49" x="683.1" y="246.7">Adapter</text><line style="stroke:#181818;stroke-width:0.5;" x1="626.5" x2="757.5" y1="254.5" y2="254.5"/><ellipse cx="636.5" cy="265.5" fill="#84BE84" rx="3" ry="3" style="stroke:#038048;stroke-width:1.0;"/><text fill="#000000" font-family="sans-serif" font-size="14" lengthAdjust="spacing" textLength="107" x="645.5" y="272.4999">getSpecification()</text></g><!--MD5=[e7f5c71d6a25cf33dcd8a1ca95ea4521]
class Oid--><g id="elem_Oid"><rect codeLine="71" fill="#FFFFFF" height="41.2" id="Oid" rx="2.5" ry="2.5" style="stroke:#181818;stroke-width:0.5;" width="67" x="641.5" y="62"/><ellipse cx="656.5" cy="82.6" fill="#ADD1B2" rx="11" ry="11" style="stroke:#181818;stroke-width:1.0;"/><path d="M655.8594,86.3813 Q656.6563,86.3813 657.2188,86.1938 Q657.7969,85.9906 658.0313,85.7719 Q658.2813,85.5375 658.5156,85.35 Q658.7656,85.1469 658.9844,85.1469 Q659.3281,85.1469 659.5781,85.4125 Q659.8438,85.6625 659.8438,85.9906 Q659.8438,86.725 658.6719,87.4125 Q657.5156,88.0844 655.8125,88.0844 Q653.6563,88.0844 652.2344,86.8188 Q650.8125,85.5531 650.8125,83.6156 L650.8125,82.4906 Q650.8125,80.4594 652.1406,79.0844 Q653.4688,77.6938 655.4375,77.6938 Q656.625,77.6938 657.8438,78.2719 L658.0156,78.35 Q658.3125,77.9438 658.7344,77.9438 Q659.2188,77.9438 659.3906,78.2406 Q659.5781,78.5219 659.5781,79.0688 L659.5781,80.4906 Q659.5781,81.6156 658.7344,81.6156 Q658.4219,81.6156 658.2188,81.4438 Q658.0313,81.2719 657.9844,81.1313 Q657.9531,80.975 657.9063,80.7094 Q657.7969,80.1938 657.2813,79.8813 Q656.7656,79.5688 656.3125,79.4906 Q655.875,79.3969 655.5,79.3969 Q654.2188,79.3969 653.3594,80.2719 Q652.5156,81.1469 652.5156,82.4906 L652.5156,83.5844 Q652.5156,84.8656 653.4219,85.6313 Q654.3281,86.3813 655.8594,86.3813 Z " fill="#000000"/><text fill="#000000" font-family="sans-serif" font-size="12" font-style="italic" lengthAdjust="spacing" textLength="39" x="668.5" y="79.0001">«value»</text><text fill="#000000" font-family="sans-serif" font-size="14" lengthAdjust="spacing" textLength="22" x="677" y="95.4">Oid</text></g><!--MD5=[8b3c5d30e37d4769ea7c3c6b1ba6613f]
reverse link Object\nSpecId to Object\nSpecification--><g id="link_Object\nSpecId_Object\nSpecification"><path codeLine="78" d="M315.28,120.3 C293.72,139.32 267.02,162.88 243.26,183.84 " fill="none" id="Object\nSpecId-backto-Object\nSpecification" style="stroke:#181818;stroke-width:1.0;"/><polygon fill="#181818" points="319.24,116.81,309.8383,119.7439,315.4833,120.1096,315.1176,125.7546,319.24,116.81" style="stroke:#181818;stroke-width:1.0;"/></g><!--MD5=[ed7878ac517ae046682c90f495e7c07d]
link Object\nSpecification to Object\nMember--><g id="link_Object\nSpecification_Object\nMember"><path codeLine="79" d="M184.31,292.07 C185.22,328.65 186.39,376.14 187.17,407.55 " fill="none" id="Object\nSpecification-to-Object\nMember" style="stroke:#181818;stroke-width:1.0;"/><polygon fill="#181818" points="187.3,412.83,191.0933,403.7409,187.1857,407.8313,183.0954,403.9238,187.3,412.83" style="stroke:#181818;stroke-width:1.0;"/><text fill="#000000" font-family="sans-serif" font-size="13" lengthAdjust="spacing" textLength="5" x="181.56" y="402.4195">*</text></g><!--MD5=[2bdd6bc466205d5f314f0051faa7f01c]
reverse link Object\nMember to Object\nAssociation--><g id="link_Object\nMember_Object\nAssociation"><path codeLine="80" d="M145.87,485.5 C130.92,500.58 114.46,517.18 100.98,530.78 " fill="none" id="Object\nMember-backto-Object\nAssociation" style="stroke:#181818;stroke-width:1.0;"/><polygon fill="none" points="141.11,480.36,160.16,471.08,151.05,490.21,141.11,480.36" style="stroke:#181818;stroke-width:1.0;"/></g><!--MD5=[241503ab21274031e0e27ca51ddcf3f4]
reverse link Object\nMember to Object\nAction--><g id="link_Object\nMember_Object\nAction"><path codeLine="81" d="M190.91,491.21 C191.72,504.68 192.58,518.88 193.3,530.78 " fill="none" id="Object\nMember-backto-Object\nAction" style="stroke:#181818;stroke-width:1.0;"/><polygon fill="none" points="183.91,491.47,189.69,471.08,197.89,490.62,183.91,491.47" style="stroke:#181818;stroke-width:1.0;"/></g><!--MD5=[7b1dd17f101192166ad8ece1c1058fee]
reverse link Object\nAssociation to OneToOne\nAssociation--><g id="link_Object\nAssociation_OneToOne\nAssociation"><path codeLine="82" d="M73,609.21 C73,622.68 73,636.88 73,648.78 " fill="none" id="Object\nAssociation-backto-OneToOne\nAssociation" style="stroke:#181818;stroke-width:1.0;"/><polygon fill="none" points="66,609.08,73,589.08,80,609.08,66,609.08" style="stroke:#181818;stroke-width:1.0;"/></g><!--MD5=[c4d38020f98201eb2fe41c2e8b25f5c7]
reverse link Object\nAssociation to OneToMany\nAssociation--><g id="link_Object\nAssociation_OneToMany\nAssociation"><path codeLine="83" d="M122.66,601.85 C141.52,617.37 162.56,634.68 179.69,648.78 " fill="none" id="Object\nAssociation-backto-OneToMany\nAssociation" style="stroke:#181818;stroke-width:1.0;"/><polygon fill="none" points="118.13,607.19,107.13,589.08,127.02,596.38,118.13,607.19" style="stroke:#181818;stroke-width:1.0;"/></g><!--MD5=[fed48b2c8a9a486fb23584c154f1ec15]
reverse link Object\nActionParameter to OneToOne\nActionParameter--><g id="link_Object\nActionParameter_OneToOne\nActionParameter"><path codeLine="84" d="M337.09,491.21 C336.28,504.68 335.42,518.88 334.7,530.78 " fill="none" id="Object\nActionParameter-backto-OneToOne\nActionParameter" style="stroke:#181818;stroke-width:1.0;"/><polygon fill="none" points="330.11,490.62,338.31,471.08,344.09,491.47,330.11,490.62" style="stroke:#181818;stroke-width:1.0;"/></g><!--MD5=[6af0f7e8de7c83f30bca28014b14a2cb]
reverse link Object\nActionParameter to OneToMany\nActionParameter--><g id="link_Object\nActionParameter_OneToMany\nActionParameter"><path codeLine="85" d="M395.49,482.73 C417.65,498.6 442.66,516.51 462.87,530.98 " fill="none" id="Object\nActionParameter-backto-OneToMany\nActionParameter" style="stroke:#181818;stroke-width:1.0;"/><polygon fill="none" points="391.4,488.42,379.22,471.08,399.55,477.03,391.4,488.42" style="stroke:#181818;stroke-width:1.0;"/></g><!--MD5=[b2b29efb307806de1bba54f1e5dc2be6]
reverse link Object\nActionParameter to Object\nAction--><g id="link_Object\nActionParameter_Object\nAction"><path codeLine="86" d="M300.84,474.33 C278.76,491.99 251.4,513.88 230.03,530.98 " fill="none" id="Object\nActionParameter-backto-Object\nAction" style="stroke:#181818;stroke-width:1.0;"/><polygon fill="#181818" points="304.9,471.08,295.3768,473.5915,300.9998,474.2087,300.3827,479.8318,304.9,471.08" style="stroke:#181818;stroke-width:1.0;"/><text fill="#000000" font-family="sans-serif" font-size="13" lengthAdjust="spacing" textLength="5" x="291.675" y="492.1475">*</text></g><!--MD5=[6386275b757e9a32ce38551d9fe44fc9]
link Object\nSpecification to FacetHolder--><g id="link_Object\nSpecification_FacetHolder"><path codeLine="88" d="M271.65,238 C276.42,238 281.19,238 285.96,238 " fill="none" id="Object\nSpecification-to-FacetHolder" style="stroke:#181818;stroke-width:1.0;stroke-dasharray:7.0,7.0;"/><polygon fill="none" points="286.2,231,306.2,238,286.2,245,286.2,231" style="stroke:#181818;stroke-width:1.0;"/></g><!--MD5=[7ed1b40c9d8e1ede63264d1d3150c096]
reverse link FacetHolder to Object\nMember--><g id="link_FacetHolder_Object\nMember"><path codeLine="89" d="M331.02,274 C297.31,313.36 243.23,376.52 212.12,412.83 " fill="none" id="FacetHolder-backto-Object\nMember" style="stroke:#181818;stroke-width:1.0;stroke-dasharray:7.0,7.0;"/><polygon fill="none" points="325.77,269.37,344.1,258.74,336.4,278.48,325.77,269.37" style="stroke:#181818;stroke-width:1.0;"/></g><!--MD5=[6d10f057513b3b6ea03cfbefdadc4b76]
reverse link FacetHolder to Object\nActionParameter--><g id="link_FacetHolder_Object\nActionParameter"><path codeLine="90" d="M356.86,278.86 C352.75,318.4 346.55,377.97 342.93,412.83 " fill="none" id="FacetHolder-backto-Object\nActionParameter" style="stroke:#181818;stroke-width:1.0;stroke-dasharray:7.0,7.0;"/><polygon fill="none" points="349.92,277.91,358.95,258.74,363.84,279.35,349.92,277.91" style="stroke:#181818;stroke-width:1.0;"/></g><!--MD5=[78d434f5ba83524917ac2512edcf96ee]
link FacetHolder to Facet--><g id="link_FacetHolder_Facet"><path codeLine="91" d="M415.77,238 C425.61,238 435.44,238 445.28,238 " fill="none" id="FacetHolder-to-Facet" style="stroke:#181818;stroke-width:1.0;"/><polygon fill="#181818" points="450.42,238,441.42,234,445.42,238,441.42,242,450.42,238" style="stroke:#181818;stroke-width:1.0;"/><text fill="#000000" font-family="sans-serif" font-size="13" lengthAdjust="spacing" textLength="5" x="437.5275" y="234.4031">*</text></g><!--MD5=[c65fd9c027a949229ee33a1638947856]
reverse link Oid to Object\nAdapter--><g id="link_Oid_Object\nAdapter"><path codeLine="94" d="M677.76,108.42 C680.39,132.18 684.4,168.36 687.49,196.3 " fill="none" id="Oid-backto-Object\nAdapter" style="stroke:#181818;stroke-width:1.0;"/><polygon fill="#181818" points="677.19,103.25,674.2172,112.6395,677.7469,108.2189,682.1675,111.7485,677.19,103.25" style="stroke:#181818;stroke-width:1.0;"/></g><!--MD5=[43126a164b30e63a2d12c938be1a2b0f]
link Oid to Object\nSpecId--><g id="link_Oid_Object\nSpecId"><path codeLine="96" d="M641.32,82.5 C560.84,82.5 480.36,82.5 399.88,82.5 " fill="none" id="Oid-to-Object\nSpecId" style="stroke:#181818;stroke-width:1.0;"/><polygon fill="#181818" points="394.58,82.5,403.58,86.5,399.58,82.5,403.58,78.5,394.58,82.5" style="stroke:#181818;stroke-width:1.0;"/></g><!--MD5=[504df756802be414dce6c034eb5de500]
@startuml
hide empty members

skinparam class {
    BackgroundColor<<desc>> Cyan
    BackgroundColor<<ppt>> LightGreen
    BackgroundColor<<mi>> LightPink
    BackgroundColor<<role>> LightYellow
    BackgroundColor<<strategy>> White
    BackgroundColor<<api>> White
    BackgroundColor<<spi>> White
    BackgroundColor<<internal>> LightGrey
    BackgroundColor<<value>> White

    BackgroundColor<<entity>> LightGreen
    BackgroundColor<<viewmodel>> LightPink
    BackgroundColor<<mixin>> LightYellow
}

package metamodel {

    class Object\nSpecId<<value>> {
        +type
    }

    class Object\nSpecification<<desc>> {
        +objectSpecId
        ....
        -fullyQualifiedClassName
    }

    class Object\nMember<<desc>> {

    }

    class Object\nAction<<desc>> {

    }

    class Object\nAssociation<<desc>> {

    }

    class OneToOne\nAssociation<<desc>> {

    }

    class OneToMany\nAssociation<<desc>> {

    }

    interface FacetHolder<<desc>> {
    }

    class Object\nActionParameter<<desc>> {
    }

    class OneToOne\nActionParameter<<desc>> {
    }

    interface Facet<<desc>> {
    }

    class OneToMany\nActionParameter<<desc>> {
    }
}

package runtime {
    class Object\nAdapter<<ppt>> {
        +getSpecification()
    }
    class Oid<<value>> {

    }
}



Object\nSpecification -up-> Object\nSpecId
Object\nSpecification -down-> "*" Object\nMember
Object\nMember ^-down- Object\nAssociation
Object\nMember ^-down- Object\nAction
Object\nAssociation ^-down- OneToOne\nAssociation
Object\nAssociation ^-down- OneToMany\nAssociation
Object\nActionParameter ^-down- OneToOne\nActionParameter
Object\nActionParameter ^-down- OneToMany\nActionParameter
Object\nAction -left-> "*" Object\nActionParameter

FacetHolder ^-.left- Object\nSpecification
FacetHolder ^-.down- Object\nMember
FacetHolder ^-.down- Object\nActionParameter
FacetHolder -right-> "*" Facet


Object\nAdapter  -up-> Oid

Oid -right-> Object\nSpecId
@enduml

PlantUML version 1.2022.3(Tue Mar 29 16:10:57 GMT 2022)
(GPL source distribution)
Java Runtime: OpenJDK Runtime Environment
JVM: OpenJDK 64-Bit Server VM
Default Encoding: UTF-8
Language: en
Country: US
--></g></svg>