<?xml version="1.0" encoding="us-ascii" standalone="no"?><svg xmlns="http://www.w3.org/2000/svg" xmlns:xlink="http://www.w3.org/1999/xlink" contentStyleType="text/css" height="687px" preserveAspectRatio="none" style="width:840px;height:687px;background:#FFFFFF;" version="1.1" viewBox="0 0 840 687" width="840px" zoomAndPan="magnify"><defs/><g><g id="elem_DS"><ellipse cx="80.6902" cy="71.5373" fill="#F1F1F1" rx="48.9619" ry="26.0473" style="stroke:#181818;stroke-width:0.5;"/><text fill="#000000" font-family="sans-serif" font-size="14" lengthAdjust="spacing" textLength="53" x="54.1902" y="66.2355">Domain</text><text fill="#000000" font-family="sans-serif" font-size="14" lengthAdjust="spacing" textLength="50" x="55.6902" y="82.5324">Service</text></g><g id="elem_DO"><ellipse cx="198.6902" cy="71.5373" fill="#F1F1F1" rx="48.9619" ry="26.0473" style="stroke:#181818;stroke-width:0.5;"/><text fill="#000000" font-family="sans-serif" font-size="14" lengthAdjust="spacing" textLength="53" x="172.1902" y="66.2355">Domain</text><text fill="#000000" font-family="sans-serif" font-size="14" lengthAdjust="spacing" textLength="45" x="176.1902" y="82.5324">Object</text></g><g id="elem_DE"><ellipse cx="316.6902" cy="71.5373" fill="#F1F1F1" rx="48.9619" ry="26.0473" style="stroke:#181818;stroke-width:0.5;"/><text fill="#000000" font-family="sans-serif" font-size="14" font-style="italic" lengthAdjust="spacing" textLength="53" x="290.1902" y="66.2355">Domain</text><text fill="#000000" font-family="sans-serif" font-size="14" font-style="italic" lengthAdjust="spacing" textLength="39" x="297.1902" y="82.5324">Event</text></g><g id="elem_MB"><ellipse cx="291.689" cy="279.325" fill="#F1F1F1" rx="52.6007" ry="14.715" style="stroke:#181818;stroke-width:0.5;"/><text fill="#000000" font-family="sans-serif" font-size="14" font-style="italic" lengthAdjust="spacing" textLength="57" x="260.189" y="283.0726">Member</text></g><g id="elem_P"><ellipse cx="337.6854" cy="487.0015" fill="#F1F1F1" rx="53.3472" ry="14.7215" style="stroke:#181818;stroke-width:0.5;"/><text fill="#000000" font-family="sans-serif" font-size="14" lengthAdjust="spacing" textLength="58" x="305.6854" y="490.749">Property</text></g><g id="elem_A"><ellipse cx="80.6913" cy="487.0013" fill="#F1F1F1" rx="42.1531" ry="14.6013" style="stroke:#181818;stroke-width:0.5;"/><text fill="#000000" font-family="sans-serif" font-size="14" lengthAdjust="spacing" textLength="43" x="56.1913" y="490.7489">Action</text></g><g id="elem_C"><ellipse cx="203.6912" cy="486.9971" fill="#F1F1F1" rx="60.813" ry="14.7771" style="stroke:#181818;stroke-width:0.5;"/><text fill="#000000" font-family="sans-serif" font-size="14" lengthAdjust="spacing" textLength="68" x="166.6912" y="490.7447">Collection</text></g><g id="elem_EX"><ellipse cx="110.6912" cy="655.4371" fill="#F1F1F1" rx="60.813" ry="14.7771" style="stroke:#181818;stroke-width:0.5;"/><text fill="#000000" font-family="sans-serif" font-size="14" lengthAdjust="spacing" textLength="68" x="73.6912" y="659.1847">Execution</text></g><g id="elem_EB"><ellipse cx="461.6907" cy="655.4373" fill="#F1F1F1" rx="39.0624" ry="26.0473" style="stroke:#181818;stroke-width:0.5;"/><text fill="#000000" font-family="sans-serif" font-size="14" lengthAdjust="spacing" textLength="39" x="442.1907" y="650.1355">Event</text><text fill="#000000" font-family="sans-serif" font-size="14" lengthAdjust="spacing" textLength="27" x="448.1907" y="666.4324">Bus</text></g><g id="elem_SPRING"><ellipse cx="624.6873" cy="655.4413" fill="#F1F1F1" rx="42.8991" ry="14.6113" style="stroke:#181818;stroke-width:0.5;"/><text fill="#000000" font-family="sans-serif" font-size="14" lengthAdjust="spacing" textLength="44" x="599.6873" y="659.1888">Spring</text></g><g id="elem_EL"><ellipse cx="461.6844" cy="486.9973" fill="#F1F1F1" rx="50.3762" ry="26.0473" style="stroke:#181818;stroke-width:0.5;"/><text fill="#000000" font-family="sans-serif" font-size="14" lengthAdjust="spacing" textLength="39" x="442.1844" y="481.6955">Event</text><text fill="#000000" font-family="sans-serif" font-size="14" lengthAdjust="spacing" textLength="55" x="434.1844" y="497.9924">Listener</text></g><g id="elem_GMN30"><path d="M385.6882,6 L385.6882,67.54 L365.7782,71.54 L385.6882,75.54 L385.6882,137.0625 A0,0 0 0 0 385.6882,137.0625 L673.6882,137.0625 A0,0 0 0 0 673.6882,137.0625 L673.6882,16 L663.6882,6 L385.6882,6 A0,0 0 0 0 385.6882,6 " fill="#FEFFDD" style="stroke:#181818;stroke-width:0.5;"/><path d="M663.6882,6 L663.6882,16 L673.6882,16 L663.6882,6 " fill="#FEFFDD" style="stroke:#181818;stroke-width:0.5;"/><text fill="#000000" font-family="sans-serif" font-size="13" lengthAdjust="spacing" textLength="75" x="391.6882" y="23.0669">Phases are:</text><ellipse cx="397.1882" cy="33.7656" fill="#000000" rx="2.5" ry="2.5" style="stroke:#000000;stroke-width:0.0;"/><text fill="#000000" font-family="sans-serif" font-size="13" lengthAdjust="spacing" textLength="46" x="403.6882" y="38.1997">HIDING</text><ellipse cx="397.1882" cy="48.8984" fill="#000000" rx="2.5" ry="2.5" style="stroke:#000000;stroke-width:0.0;"/><text fill="#000000" font-family="sans-serif" font-size="13" lengthAdjust="spacing" textLength="70" x="403.6882" y="53.3325">DISABLING</text><ellipse cx="397.1882" cy="64.0313" fill="#000000" rx="2.5" ry="2.5" style="stroke:#000000;stroke-width:0.0;"/><text fill="#000000" font-family="sans-serif" font-size="13" lengthAdjust="spacing" textLength="77" x="403.6882" y="68.4653">VALIDATING</text><ellipse cx="397.1882" cy="79.1641" fill="#000000" rx="2.5" ry="2.5" style="stroke:#000000;stroke-width:0.0;"/><text fill="#000000" font-family="sans-serif" font-size="13" lengthAdjust="spacing" textLength="73" x="403.6882" y="83.5981">EXECUTING</text><ellipse cx="397.1882" cy="94.2969" fill="#000000" rx="2.5" ry="2.5" style="stroke:#000000;stroke-width:0.0;"/><text fill="#000000" font-family="sans-serif" font-size="13" lengthAdjust="spacing" textLength="68" x="403.6882" y="98.731">EXECUTED</text><text fill="#000000" font-family="sans-serif" font-size="13" lengthAdjust="spacing" textLength="251" x="391.6882" y="113.8638">The framework automatically sends out</text><text fill="#000000" font-family="sans-serif" font-size="13" lengthAdjust="spacing" textLength="267" x="391.6882" y="128.9966">events with the phases in the order listed.</text></g><g id="elem_GMN33"><path d="M364.6882,244.07 L364.6882,275.33 L344.5482,279.33 L364.6882,283.33 L364.6882,314.6013 A0,0 0 0 0 364.6882,314.6013 L776.6882,314.6013 A0,0 0 0 0 776.6882,314.6013 L776.6882,254.07 L766.6882,244.07 L364.6882,244.07 A0,0 0 0 0 364.6882,244.07 " fill="#FEFFDD" style="stroke:#181818;stroke-width:0.5;"/><path d="M766.6882,244.07 L766.6882,254.07 L776.6882,254.07 L766.6882,244.07 " fill="#FEFFDD" style="stroke:#181818;stroke-width:0.5;"/><text fill="#000000" font-family="sans-serif" font-size="13" font-style="italic" lengthAdjust="spacing" textLength="86" x="370.6882" y="261.1369">DomainEvent</text><text fill="#000000" font-family="sans-serif" font-size="13" lengthAdjust="spacing" textLength="108" x="460.6882" y="261.1369">is declared as an</text><text fill="#000000" font-family="sans-serif" font-size="13" lengthAdjust="spacing" textLength="349" x="370.6882" y="276.2697">annotation type element in a member annotation, e.g.</text><text fill="#000000" font-family="sans-serif" font-size="13" font-weight="bold" lengthAdjust="spacing" textLength="65" x="370.6882" y="291.4025">@Action(</text><text fill="#000000" font-family="sans-serif" font-size="13" lengthAdjust="spacing" textLength="32" x="370.6882" y="306.5353">&#160;&#160;&#160;&#160;&#160;&#160;&#160;&#160;</text><text fill="#000000" font-family="sans-serif" font-size="13" font-weight="bold" lengthAdjust="spacing" textLength="107" x="402.6882" y="306.5353">domainEvent=</text><text fill="#000000" font-family="sans-serif" font-size="13" font-style="italic" font-weight="bold" lengthAdjust="spacing" textLength="56" x="509.6882" y="306.5353">Custom</text><text fill="#000000" font-family="sans-serif" font-size="13" font-weight="bold" lengthAdjust="spacing" textLength="196" x="565.6882" y="306.5353">ActionDomainEvent.class).</text></g><g id="elem_GMN36"><path d="M532.1882,436.6 L532.1882,483 L512.1982,487 L532.1882,491 L532.1882,537.3969 A0,0 0 0 0 532.1882,537.3969 L833.1882,537.3969 A0,0 0 0 0 833.1882,537.3969 L833.1882,446.6 L823.1882,436.6 L532.1882,436.6 A0,0 0 0 0 532.1882,436.6 " fill="#FEFFDD" style="stroke:#181818;stroke-width:0.5;"/><path d="M823.1882,436.6 L823.1882,446.6 L833.1882,446.6 L823.1882,436.6 " fill="#FEFFDD" style="stroke:#181818;stroke-width:0.5;"/><text fill="#000000" font-family="sans-serif" font-size="13" lengthAdjust="spacing" textLength="220" x="538.1882" y="453.6669">EventListeners can be declared on</text><text fill="#000000" font-family="sans-serif" font-size="13" lengthAdjust="spacing" textLength="231" x="538.1882" y="468.7997">any public Spring bean method, e.g.</text><text fill="#000000" font-family="sans-serif" font-size="13" font-weight="bold" lengthAdjust="spacing" textLength="119" x="538.1882" y="483.9325">@EventListener(</text><text fill="#000000" font-family="sans-serif" font-size="13" lengthAdjust="spacing" textLength="28" x="538.1882" y="499.0653">&#160;&#160;&#160;&#160;&#160;&#160;&#160;</text><text fill="#000000" font-family="sans-serif" font-size="13" font-style="italic" font-weight="bold" lengthAdjust="spacing" textLength="56" x="566.1882" y="499.0653">Custom</text><text fill="#000000" font-family="sans-serif" font-size="13" font-weight="bold" lengthAdjust="spacing" textLength="196" x="622.1882" y="499.0653">ActionDomainEvent.class).</text><text fill="#000000" font-family="sans-serif" font-size="13" lengthAdjust="spacing" textLength="20" x="538.1882" y="514.1981">Via</text><text fill="#000000" font-family="sans-serif" font-size="13" font-style="italic" lengthAdjust="spacing" textLength="86" x="562.1882" y="514.1981">DomainEvent</text><text fill="#000000" font-family="sans-serif" font-size="13" lengthAdjust="spacing" textLength="114" x="648.1882" y="514.1981">.getEventPhase(),</text><text fill="#000000" font-family="sans-serif" font-size="13" lengthAdjust="spacing" textLength="195" x="538.1882" y="529.331">further filtering can be applied.</text></g><!--reverse link MB to P--><g id="link_MB_P"><path d="M296.1674,300.3254 C304.5874,337.9854 326.1882,434.57 334.5682,472.03 " fill="none" id="MB-backto-P" style="stroke:#181818;stroke-width:1.0;"/><polygon fill="#181818" points="294.8582,294.47,292.9183,304.1259,295.9492,299.3495,300.7256,302.3804,294.8582,294.47" style="stroke:#181818;stroke-width:1.0;"/><text fill="#000000" font-family="sans-serif" font-size="13" lengthAdjust="spacing" textLength="22" x="319.6882" y="380.1669">is a</text></g><!--reverse link MB to A--><g id="link_MB_A"><path d="M268.507,297.1716 C251.647,309.6616 231.0682,325.65 210.6882,344.6 C163.5582,388.42 113.6082,446.54 91.8682,472.48 " fill="none" id="MB-backto-A" style="stroke:#181818;stroke-width:1.0;"/><polygon fill="#181818" points="273.3282,293.6,263.7154,295.7432,269.3106,296.5763,268.4775,302.1715,273.3282,293.6" style="stroke:#181818;stroke-width:1.0;"/><text fill="#000000" font-family="sans-serif" font-size="13" lengthAdjust="spacing" textLength="22" x="211.6882" y="380.1669">is a</text></g><!--reverse link MB to C--><g id="link_MB_C"><path d="M283.4179,299.6662 C267.4279,337.0362 225.7882,434.35 209.6882,471.97 " fill="none" id="MB-backto-C" style="stroke:#181818;stroke-width:1.0;"/><polygon fill="#181818" points="285.7782,294.15,278.5603,300.8508,283.8113,298.7469,285.9153,303.9979,285.7782,294.15" style="stroke:#181818;stroke-width:1.0;"/><text fill="#000000" font-family="sans-serif" font-size="13" lengthAdjust="spacing" textLength="22" x="263.6882" y="380.1669">is a</text></g><!--link DO to MB--><g id="link_DO_MB"><path d="M209.9082,97.36 C229.6182,140.98 267.377,224.5325 282.907,258.8925 " fill="none" id="DO-to-MB" style="stroke:#181818;stroke-width:1.0;"/><polygon fill="#181818" points="285.3782,264.36,285.3164,254.5113,283.3189,259.8038,278.0265,257.8062,285.3782,264.36" style="stroke:#181818;stroke-width:1.0;"/><text fill="#000000" font-family="sans-serif" font-size="13" lengthAdjust="spacing" textLength="23" x="261.6882" y="195.1369">has</text></g><!--link DS to A--><g id="link_DS_A"><path d="M80.6882,97.78 C80.6882,175.97 80.6882,406.52 80.6882,466.21 " fill="none" id="DS-to-A" style="stroke:#181818;stroke-width:1.0;"/><polygon fill="#181818" points="80.6882,472.21,84.6882,463.21,80.6882,467.21,76.6882,463.21,80.6882,472.21" style="stroke:#181818;stroke-width:1.0;"/><text fill="#000000" font-family="sans-serif" font-size="13" lengthAdjust="spacing" textLength="23" x="81.6882" y="283.8969">has</text></g><!--link DE to MB--><g id="link_DE_MB"><path d="M313.6282,97.77 C308.3182,141.45 298.3122,223.8338 294.1322,258.2238 " fill="none" id="DE-to-MB" style="stroke:#181818;stroke-width:1.0;"/><polygon fill="#181818" points="293.4082,264.18,298.4649,255.7284,294.0115,259.2165,290.5234,254.7631,293.4082,264.18" style="stroke:#181818;stroke-width:1.0;"/><text fill="#000000" font-family="sans-serif" font-size="13" lengthAdjust="spacing" textLength="43" x="313.6882" y="180.1369">can be</text><text fill="#000000" font-family="sans-serif" font-size="13" lengthAdjust="spacing" textLength="55" x="309.6882" y="195.2697">declared</text><text fill="#000000" font-family="sans-serif" font-size="13" lengthAdjust="spacing" textLength="17" x="330.6882" y="210.4025">for</text></g><!--link P to EX--><g id="link_P_EX"><path d="M321.0082,501.41 C308.3982,511.47 290.6082,525.49 274.6882,537.4 C223.1582,575.96 165.9043,616.1245 135.0143,637.6045 " fill="none" id="P-to-EX" style="stroke:#181818;stroke-width:1.0;"/><polygon fill="#181818" points="130.0882,641.03,139.761,639.1759,134.1933,638.1755,135.1937,632.6078,130.0882,641.03" style="stroke:#181818;stroke-width:1.0;"/><text fill="#000000" font-family="sans-serif" font-size="13" lengthAdjust="spacing" textLength="24" x="280.5365" y="521.7854">edit</text><text fill="#000000" font-family="sans-serif" font-size="13" lengthAdjust="spacing" textLength="30" x="281.5365" y="536.9182">is an</text></g><!--link A to EX--><g id="link_A_EX"><path d="M83.1982,501.9 C88.8282,533.15 101.3848,602.775 107.0648,634.315 " fill="none" id="A-to-EX" style="stroke:#181818;stroke-width:1.0;"/><polygon fill="#181818" points="108.1282,640.22,110.4698,630.6535,107.242,635.2992,102.5964,632.0714,108.1282,640.22" style="stroke:#181818;stroke-width:1.0;"/><text fill="#000000" font-family="sans-serif" font-size="13" lengthAdjust="spacing" textLength="65" x="6" y="521.6625">invocation</text><text fill="#000000" font-family="sans-serif" font-size="13" lengthAdjust="spacing" textLength="30" x="27.5" y="536.7953">is an</text></g><!--reverse link EB to SPRING--><g id="link_EB_SPRING"><path d="M507.1482,655.44 C531.3682,655.44 556.3982,655.44 581.2982,655.44 " fill="none" id="EB-backto-SPRING" style="stroke:#181818;stroke-width:1.0;stroke-dasharray:7.0,7.0;"/><polygon fill="#181818" points="501.1482,655.44,510.1482,659.44,506.1482,655.44,510.1482,651.44,501.1482,655.44" style="stroke:#181818;stroke-width:1.0;"/><text fill="#000000" font-family="sans-serif" font-size="13" lengthAdjust="spacing" textLength="58" x="512.2782" y="633.5069">provides/</text><text fill="#000000" font-family="sans-serif" font-size="13" lengthAdjust="spacing" textLength="60" x="511.2782" y="648.6397">manages</text></g><!--link EX to EB--><g id="link_EX_EB"><path d="M171.8282,655.44 C243.9182,655.44 355.5882,655.44 416.4582,655.44 " fill="none" id="EX-to-EB" style="stroke:#181818;stroke-width:1.0;"/><polygon fill="#181818" points="422.4582,655.44,413.4582,651.44,417.4582,655.44,413.4582,659.44,422.4582,655.44" style="stroke:#181818;stroke-width:1.0;"/><text fill="#000000" font-family="sans-serif" font-size="13" lengthAdjust="spacing" textLength="98" x="246.0682" y="618.5069">is published as:</text><text fill="#000000" font-family="sans-serif" font-size="13" lengthAdjust="spacing" textLength="226" x="186.0682" y="633.6397">* before event (phase: EXECUTING)</text><text fill="#000000" font-family="sans-serif" font-size="13" lengthAdjust="spacing" textLength="210" x="194.0682" y="648.7725">* after event (phase: EXECUTED)</text></g><!--link EL to EB--><g id="link_EL_EB"><path d="M461.6882,513.28 C461.6882,544.56 461.6882,591.53 461.6882,622.93 " fill="none" id="EL-to-EB" style="stroke:#181818;stroke-width:1.0;"/><polygon fill="#181818" points="461.6882,628.93,465.6882,619.93,461.6882,623.93,457.6882,619.93,461.6882,628.93" style="stroke:#181818;stroke-width:1.0;"/><text fill="#000000" font-family="sans-serif" font-size="13" lengthAdjust="spacing" textLength="41" x="462.6882" y="580.4669">listens</text><text fill="#000000" font-family="sans-serif" font-size="13" lengthAdjust="spacing" textLength="16" x="479.1882" y="595.5997">on</text></g><!--reverse link MB to EL--><g id="link_MB_EL"><path d="M307.8377,298.4804 C319.2877,311.4004 332.8582,326.91 347.6882,344.6 C382.1282,385.68 421.0982,434.55 443.3982,462.75 " fill="none" id="MB-backto-EL" style="stroke:#181818;stroke-width:1.0;"/><polygon fill="#181818" points="303.8582,293.99,306.8339,303.3786,307.1745,297.732,312.8211,298.0726,303.8582,293.99" style="stroke:#181818;stroke-width:1.0;"/><text fill="#000000" font-family="sans-serif" font-size="13" lengthAdjust="spacing" textLength="115" x="398.6882" y="357.6669">can check/modify:</text><text fill="#000000" font-family="sans-serif" font-size="13" lengthAdjust="spacing" textLength="94" x="409.1882" y="372.7997">visibility (hide),</text><text fill="#000000" font-family="sans-serif" font-size="13" lengthAdjust="spacing" textLength="115" x="398.6882" y="387.9325">usability (disable),</text><text fill="#000000" font-family="sans-serif" font-size="13" lengthAdjust="spacing" textLength="108" x="404.1882" y="403.0653">validity (validate)</text></g><!--SRC=[ZLJVRzem47xtNt7g4rGbdVQ8EhH0eWs9hcXqLHzuCSc5U7Nio7ReqBJ_lMSR0cqtQNc9_Ntdky_tm_P9g9ORte3I9LfiuUC7nfpUeglHm6y6z0qotN2Xrcg5PYSA70AtaArUStURdrYuIDr5waPCZYmjynsg0v-pFyopjzXiqDnSYqd0RwVl8Y-DRj6uVU2N4KiB9xGAI1gHcPOIJ-YCt2zXr8qcv1B682nmbhu5Pcy1bjt1g3n2DRSiMtc0aFG0i2m_CocuWWt2Ma69XUG6Ix-kj65iaF_2ekiLvOyaw09BuRo5ZwOkl5zFf70Xr4uNt5k_feabJpvlQpNjR7GrPODLQuJQXkrg-Nt-xGkBFqXaGgUyjjRedQ2ANgzLmnNVecNv8umEB8LekuqKjYRDt8vzs4kw2sb7G1yG1YrT6CUa8P_zk2Vdms33AqVL-Pj9dWrFQXV2EbHeekG5onSmEWQNWRC-fbQ1wSupMjHOF5qtkXJLtWlR2IisGWgtXq5DLnfU4TXPViHAGMiPuHsNeWneM767f4bfXs34jdQWAzzyIo-Racnmp2xXwppp6Ro4RBvAfukuVaWNyoozZvi-1VqwpzXzZL3HuE2pDa_0EqUTxaJ1fTo3HLLQq9rZ8L4MdeMhWVeQsXXQgB3JfgHaXdoK2QD3uBM-LKnZqKzIIAyV65_2lkkuxnZ65PsBNUJsBTLHOkFBHC4uD67Ku6Hp1PXi4tQpcNoE0pK8i-G_mifJj4yKVDPPkf-F6stFn2IamThXl-Nxwdl3OqlOuzpqyhNNleyTMK1iRZ8WguOU0rsUINtbgLTCp7-AV10StYSpeKSdR49d38PNhEfCU8Og8QdVlPw3QDwsKfnNwmK0]--></g></svg>