<svg xmlns="http://www.w3.org/2000/svg" xmlns:xlink="http://www.w3.org/1999/xlink" contentStyleType="text/css" data-diagram-type="DESCRIPTION" height="687px" preserveAspectRatio="none" style="width:849px;height:687px;background:#FFFFFF;" version="1.1" viewBox="0 0 849 687" width="849px" zoomAndPan="magnify"><defs/><g><g class="entity" data-entity="DS" data-source-line="4" data-uid="ent0002" id="entity_DS"><ellipse cx="82.9724" cy="71.5373" fill="#F1F1F1" rx="49.899" ry="26.0473" style="stroke:#181818;stroke-width:0.5;"/><text fill="#000000" font-family="sans-serif" font-size="14" lengthAdjust="spacing" textLength="54.3252" x="55.8098" y="66.2355">Domain</text><text fill="#000000" font-family="sans-serif" font-size="14" lengthAdjust="spacing" textLength="51.7412" x="57.1018" y="82.5324">Service</text></g><g class="entity" data-entity="DO" data-source-line="5" data-uid="ent0003" id="entity_DO"><ellipse cx="202.9724" cy="71.5373" fill="#F1F1F1" rx="49.899" ry="26.0473" style="stroke:#181818;stroke-width:0.5;"/><text fill="#000000" font-family="sans-serif" font-size="14" lengthAdjust="spacing" textLength="54.3252" x="175.8098" y="66.2355">Domain</text><text fill="#000000" font-family="sans-serif" font-size="14" lengthAdjust="spacing" textLength="45.5957" x="180.1745" y="82.5324">Object</text></g><g class="entity" data-entity="DE" data-source-line="6" data-uid="ent0004" id="entity_DE"><ellipse cx="322.9724" cy="71.5373" fill="#F1F1F1" rx="49.899" ry="26.0473" style="stroke:#181818;stroke-width:0.5;"/><text fill="#000000" font-family="sans-serif" font-size="14" font-style="italic" lengthAdjust="spacing" textLength="54.3252" x="295.8098" y="66.2355">Domain</text><text fill="#000000" font-family="sans-serif" font-size="14" font-style="italic" lengthAdjust="spacing" textLength="40.1064" x="302.9191" y="82.5324">Event</text></g><g class="entity" data-entity="MB" data-source-line="8" data-uid="ent0005" id="entity_MB"><ellipse cx="296.9715" cy="279.3288" fill="#F1F1F1" rx="53.0381" ry="14.7188" style="stroke:#181818;stroke-width:0.5;"/><text fill="#000000" font-family="sans-serif" font-size="14" font-style="italic" lengthAdjust="spacing" textLength="57.5859" x="265.1785" y="283.0764">Member</text></g><g class="entity" data-entity="P" data-source-line="10" data-uid="ent0006" id="entity_P"><ellipse cx="343.9698" cy="487.0026" fill="#F1F1F1" rx="54.6864" ry="14.7326" style="stroke:#181818;stroke-width:0.5;"/><text fill="#000000" font-family="sans-serif" font-size="14" lengthAdjust="spacing" textLength="59.7939" x="311.0728" y="490.7501">Property</text></g><g class="entity" data-entity="A" data-source-line="11" data-uid="ent0007" id="entity_A"><ellipse cx="82.971" cy="487.0022" fill="#F1F1F1" rx="42.9676" ry="14.6122" style="stroke:#181818;stroke-width:0.5;"/><text fill="#000000" font-family="sans-serif" font-size="14" lengthAdjust="spacing" textLength="44.0918" x="57.9251" y="490.7497">Action</text></g><g class="entity" data-entity="C" data-source-line="12" data-uid="ent0008" id="entity_C"><ellipse cx="207.9783" cy="487.0032" fill="#F1F1F1" rx="61.7449" ry="14.7832" style="stroke:#181818;stroke-width:0.5;"/><text fill="#000000" font-family="sans-serif" font-size="14" lengthAdjust="spacing" textLength="69.248" x="170.3542" y="490.7507">Collection</text></g><g class="entity" data-entity="EX" data-source-line="23" data-uid="ent0018" id="entity_EX"><ellipse cx="111.9715" cy="655.4426" fill="#F1F1F1" rx="61.6581" ry="14.7826" style="stroke:#181818;stroke-width:0.5;"/><text fill="#000000" font-family="sans-serif" font-size="14" lengthAdjust="spacing" textLength="69.1318" x="74.4056" y="659.1902">Execution</text></g><g class="entity" data-entity="EB" data-source-line="27" data-uid="ent0021" id="entity_EB"><ellipse cx="469.9782" cy="655.4373" fill="#F1F1F1" rx="39.8448" ry="26.0473" style="stroke:#181818;stroke-width:0.5;"/><text fill="#000000" font-family="sans-serif" font-size="14" lengthAdjust="spacing" textLength="40.1064" x="449.925" y="650.1355">Event</text><text fill="#000000" font-family="sans-serif" font-size="14" lengthAdjust="spacing" textLength="25.7715" x="457.0924" y="666.4324">Bus</text></g><g class="entity" data-entity="SPRING" data-source-line="28" data-uid="ent0022" id="entity_SPRING"><ellipse cx="634.9719" cy="655.4425" fill="#F1F1F1" rx="43.7785" ry="14.6225" style="stroke:#181818;stroke-width:0.5;"/><text fill="#000000" font-family="sans-serif" font-size="14" lengthAdjust="spacing" textLength="45.1787" x="609.3825" y="659.1901">Spring</text></g><g class="entity" data-entity="EL" data-source-line="32" data-uid="ent0026" id="entity_EL"><ellipse cx="469.9686" cy="486.9973" fill="#F1F1F1" rx="51.3153" ry="26.0473" style="stroke:#181818;stroke-width:0.5;"/><text fill="#000000" font-family="sans-serif" font-size="14" lengthAdjust="spacing" textLength="40.1064" x="449.9154" y="481.6955">Event</text><text fill="#000000" font-family="sans-serif" font-size="14" lengthAdjust="spacing" textLength="56.3281" x="441.8046" y="497.9924">Listener</text></g><g class="entity" data-entity="GMN30" data-source-line="37" data-uid="ent0031" id="entity_GMN30"><path d="M392.8734,6 L392.8734,67.54 L373.2134,71.54 L392.8734,75.54 L392.8734,137.0625 A0,0 0 0 0 392.8734,137.0625 L689.0697,137.0625 A0,0 0 0 0 689.0697,137.0625 L689.0697,16 L679.0697,6 L392.8734,6 A0,0 0 0 0 392.8734,6" fill="#FEFFDD" style="stroke:#181818;stroke-width:0.5;"/><path d="M679.0697,6 L679.0697,16 L689.0697,16 L679.0697,6" fill="#FEFFDD" style="stroke:#181818;stroke-width:0.5;"/><text fill="#000000" font-family="sans-serif" font-size="13" lengthAdjust="spacing" textLength="75.4102" x="398.8734" y="23.0669">Phases are:</text><ellipse cx="404.3734" cy="33.7656" fill="#000000" rx="2.5" ry="2.5"/><text fill="#000000" font-family="sans-serif" font-size="13" lengthAdjust="spacing" textLength="47.252" x="410.8734" y="38.1997">HIDING</text><ellipse cx="404.3734" cy="48.8984" fill="#000000" rx="2.5" ry="2.5"/><text fill="#000000" font-family="sans-serif" font-size="13" lengthAdjust="spacing" textLength="70.7827" x="410.8734" y="53.3325">DISABLING</text><ellipse cx="404.3734" cy="64.0313" fill="#000000" rx="2.5" ry="2.5"/><text fill="#000000" font-family="sans-serif" font-size="13" lengthAdjust="spacing" textLength="79.3394" x="410.8734" y="68.4653">VALIDATING</text><ellipse cx="404.3734" cy="79.1641" fill="#000000" rx="2.5" ry="2.5"/><text fill="#000000" font-family="sans-serif" font-size="13" lengthAdjust="spacing" textLength="75.499" x="410.8734" y="83.5981">EXECUTING</text><ellipse cx="404.3734" cy="94.2969" fill="#000000" rx="2.5" ry="2.5"/><text fill="#000000" font-family="sans-serif" font-size="13" lengthAdjust="spacing" textLength="70.0908" x="410.8734" y="98.731">EXECUTED</text><text fill="#000000" font-family="sans-serif" font-size="13" lengthAdjust="spacing" textLength="258.667" x="398.8734" y="113.8638">The framework automatically sends out</text><text fill="#000000" font-family="sans-serif" font-size="13" lengthAdjust="spacing" textLength="275.1963" x="398.8734" y="128.9966">events with the phases in the order listed.</text></g><g class="entity" data-entity="GMN33" data-source-line="48" data-uid="ent0034" id="entity_GMN33"><path d="M369.8034,244.07 L369.8034,275.33 L350.3734,279.33 L369.8034,283.33 L369.8034,314.6013 A0,0 0 0 0 369.8034,314.6013 L782.13,314.6013 A0,0 0 0 0 782.13,314.6013 L782.13,254.07 L772.13,244.07 L369.8034,244.07 A0,0 0 0 0 369.8034,244.07" fill="#FEFFDD" style="stroke:#181818;stroke-width:0.5;"/><path d="M772.13,244.07 L772.13,254.07 L782.13,254.07 L772.13,244.07" fill="#FEFFDD" style="stroke:#181818;stroke-width:0.5;"/><text fill="#000000" font-family="sans-serif" font-size="13" font-style="italic" lengthAdjust="spacing" textLength="87.6865" x="375.8034" y="261.1369">DomainEvent</text><text fill="#000000" font-family="sans-serif" font-size="13" lengthAdjust="spacing" textLength="110.2969" x="467.6222" y="261.1369">is declared as an</text><text fill="#000000" font-family="sans-serif" font-size="13" lengthAdjust="spacing" textLength="355.6846" x="375.8034" y="276.2697">annotation type element in a member annotation, e.g.</text><text fill="#000000" font-family="sans-serif" font-size="13" font-weight="bold" lengthAdjust="spacing" textLength="65.5649" x="375.8034" y="291.4025">@Action(</text><text fill="#000000" font-family="sans-serif" font-size="13" lengthAdjust="spacing" textLength="33.0586" x="375.8034" y="306.5353">&#160;&#160;&#160;&#160;&#160;&#160;&#160;&#160;</text><text fill="#000000" font-family="sans-serif" font-size="13" font-weight="bold" lengthAdjust="spacing" textLength="106.7993" x="408.862" y="306.5353">domainEvent=</text><text fill="#000000" font-family="sans-serif" font-size="13" font-style="italic" font-weight="bold" lengthAdjust="spacing" textLength="55.2246" x="515.6613" y="306.5353">Custom</text><text fill="#000000" font-family="sans-serif" font-size="13" font-weight="bold" lengthAdjust="spacing" textLength="196.2441" x="570.8859" y="306.5353">ActionDomainEvent.class).</text></g><g class="entity" data-entity="GMN36" data-source-line="55" data-uid="ent0037" id="entity_GMN36"><path d="M541.2734,436.6 L541.2734,483 L521.5734,487 L541.2734,491 L541.2734,537.3969 A0,0 0 0 0 541.2734,537.3969 L842.6684,537.3969 A0,0 0 0 0 842.6684,537.3969 L842.6684,446.6 L832.6684,436.6 L541.2734,436.6 A0,0 0 0 0 541.2734,436.6" fill="#FEFFDD" style="stroke:#181818;stroke-width:0.5;"/><path d="M832.6684,436.6 L832.6684,446.6 L842.6684,446.6 L832.6684,436.6" fill="#FEFFDD" style="stroke:#181818;stroke-width:0.5;"/><text fill="#000000" font-family="sans-serif" font-size="13" lengthAdjust="spacing" textLength="225.2148" x="547.2734" y="453.6669">EventListeners can be declared on</text><text fill="#000000" font-family="sans-serif" font-size="13" lengthAdjust="spacing" textLength="236.9326" x="547.2734" y="468.7997">any public Spring bean method, e.g.</text><text fill="#000000" font-family="sans-serif" font-size="13" font-weight="bold" lengthAdjust="spacing" textLength="120.5737" x="547.2734" y="483.9325">@EventListener(</text><text fill="#000000" font-family="sans-serif" font-size="13" lengthAdjust="spacing" textLength="28.9263" x="547.2734" y="499.0653">&#160;&#160;&#160;&#160;&#160;&#160;&#160;</text><text fill="#000000" font-family="sans-serif" font-size="13" font-style="italic" font-weight="bold" lengthAdjust="spacing" textLength="55.2246" x="576.1996" y="499.0653">Custom</text><text fill="#000000" font-family="sans-serif" font-size="13" font-weight="bold" lengthAdjust="spacing" textLength="196.2441" x="631.4242" y="499.0653">ActionDomainEvent.class).</text><text fill="#000000" font-family="sans-serif" font-size="13" lengthAdjust="spacing" textLength="20.4712" x="547.2734" y="514.1981">Via</text><text fill="#000000" font-family="sans-serif" font-size="13" font-style="italic" lengthAdjust="spacing" textLength="87.6865" x="571.8769" y="514.1981">DomainEvent</text><text fill="#000000" font-family="sans-serif" font-size="13" lengthAdjust="spacing" textLength="115.813" x="659.5634" y="514.1981">.getEventPhase(),</text><text fill="#000000" font-family="sans-serif" font-size="13" lengthAdjust="spacing" textLength="203.3916" x="547.2734" y="529.331">further filtering can be applied.</text></g><!--reverse link MB to P--><g class="link" data-entity-1="MB" data-entity-2="P" data-source-line="14" data-uid="lnk10" id="link_MB_P"><path d="M301.5391,300.3194 C310.1391,337.9794 332.2234,434.57 340.7834,472.03" fill="none" id="MB-backto-P" style="stroke:#181818;stroke-width:1;"/><polygon fill="#181818" points="300.2034,294.47,298.3074,304.1346,301.3165,299.3445,306.1066,302.3536,300.2034,294.47" style="stroke:#181818;stroke-width:1;"/><text fill="#000000" font-family="sans-serif" font-size="13" lengthAdjust="spacing" textLength="22.4834" x="324.9734" y="380.1669">is a</text></g><!--reverse link MB to A--><g class="link" data-entity-1="MB" data-entity-2="A" data-source-line="15" data-uid="lnk12" id="link_MB_A"><path d="M273.5611,297.143 C256.4911,309.633 235.6334,325.65 214.9734,344.6 C167.2034,388.41 116.4334,446.53 94.3434,472.48" fill="none" id="MB-backto-A" style="stroke:#181818;stroke-width:1;"/><polygon fill="#181818" points="278.4034,293.6,268.778,295.6864,274.3682,296.5525,273.5021,302.1427,278.4034,293.6" style="stroke:#181818;stroke-width:1;"/><text fill="#000000" font-family="sans-serif" font-size="13" lengthAdjust="spacing" textLength="22.4834" x="215.9734" y="380.1669">is a</text></g><!--reverse link MB to C--><g class="link" data-entity-1="MB" data-entity-2="C" data-source-line="16" data-uid="lnk14" id="link_MB_C"><path d="M288.6107,299.6566 C272.4407,337.0266 230.3234,434.35 214.0434,471.97" fill="none" id="MB-backto-C" style="stroke:#181818;stroke-width:1;"/><polygon fill="#181818" points="290.9934,294.15,283.7482,300.8214,289.0078,298.7388,291.0904,303.9984,290.9934,294.15" style="stroke:#181818;stroke-width:1;"/><text fill="#000000" font-family="sans-serif" font-size="13" lengthAdjust="spacing" textLength="22.4834" x="268.9734" y="380.1669">is a</text></g><!--link DO to MB--><g class="link" data-entity-1="DO" data-entity-2="MB" data-source-line="18" data-uid="lnk15" id="link_DO_MB"><path d="M214.3134,97.36 C234.2334,140.98 272.3998,224.5427 288.0998,258.9027" fill="none" id="DO-to-MB" style="stroke:#181818;stroke-width:1;"/><polygon fill="#181818" points="290.5934,264.36,290.4912,254.5117,288.5154,259.8123,283.2148,257.8364,290.5934,264.36" style="stroke:#181818;stroke-width:1;"/><text fill="#000000" font-family="sans-serif" font-size="13" lengthAdjust="spacing" textLength="22.9785" x="266.9734" y="195.1369">has</text></g><!--link DS to A--><g class="link" data-entity-1="DS" data-entity-2="A" data-source-line="19" data-uid="lnk16" id="link_DS_A"><path d="M82.9734,97.78 C82.9734,175.97 82.9734,406.52 82.9734,466.21" fill="none" id="DS-to-A" style="stroke:#181818;stroke-width:1;"/><polygon fill="#181818" points="82.9734,472.21,86.9734,463.21,82.9734,467.21,78.9734,463.21,82.9734,472.21" style="stroke:#181818;stroke-width:1;"/><text fill="#000000" font-family="sans-serif" font-size="13" lengthAdjust="spacing" textLength="22.9785" x="83.9734" y="283.8969">has</text></g><!--link DE to MB--><g class="link" data-entity-1="DE" data-entity-2="MB" data-source-line="21" data-uid="lnk17" id="link_DE_MB"><path d="M319.7834,97.77 C314.2634,141.45 303.8546,223.8372 299.5146,258.2272" fill="none" id="DE-to-MB" style="stroke:#181818;stroke-width:1;"/><polygon fill="#181818" points="298.7634,264.18,303.8587,255.7516,299.3894,259.2193,295.9217,254.75,298.7634,264.18" style="stroke:#181818;stroke-width:1;"/><text fill="#000000" font-family="sans-serif" font-size="13" lengthAdjust="spacing" textLength="43.7354" x="319.457" y="180.1369">can be</text><text fill="#000000" font-family="sans-serif" font-size="13" lengthAdjust="spacing" textLength="56.5703" x="315.1057" y="195.2697">declared</text><text fill="#000000" font-family="sans-serif" font-size="13" lengthAdjust="spacing" textLength="17.875" x="336.5195" y="210.4025">for</text></g><!--link P to EX--><g class="link" data-entity-1="P" data-entity-2="EX" data-source-line="24" data-uid="lnk19" id="link_P_EX"><path d="M327.0334,501.43 C314.2234,511.5 296.1534,525.52 279.9734,537.4 C227.2334,576.08 168.4819,616.2564 136.8119,637.6964" fill="none" id="P-to-EX" style="stroke:#181818;stroke-width:1;"/><polygon fill="#181818" points="131.8434,641.06,141.5385,639.327,135.9838,638.257,137.0538,632.7023,131.8434,641.06" style="stroke:#181818;stroke-width:1;"/><text fill="#000000" font-family="sans-serif" font-size="13" lengthAdjust="spacing" textLength="24.959" x="286.4908" y="521.8107">edit</text><text fill="#000000" font-family="sans-serif" font-size="13" lengthAdjust="spacing" textLength="30.7227" x="287.7413" y="536.9435">is an</text></g><!--link A to EX--><g class="link" data-entity-1="A" data-entity-2="EX" data-source-line="25" data-uid="lnk20" id="link_A_EX"><path d="M85.3934,501.9 C90.8434,533.15 102.9626,602.7692 108.4626,634.3092" fill="none" id="A-to-EX" style="stroke:#181818;stroke-width:1;"/><polygon fill="#181818" points="109.4934,640.22,111.8878,630.6666,108.6344,635.2943,104.0067,632.041,109.4934,640.22" style="stroke:#181818;stroke-width:1;"/><text fill="#000000" font-family="sans-serif" font-size="13" lengthAdjust="spacing" textLength="67.5137" x="6" y="521.6622">invocation</text><text fill="#000000" font-family="sans-serif" font-size="13" lengthAdjust="spacing" textLength="30.7227" x="28.5278" y="536.7951">is an</text></g><!--reverse link EB to SPRING--><g class="link" data-entity-1="EB" data-entity-2="SPRING" data-source-line="29" data-uid="lnk24" id="link_EB_SPRING"><path d="M515.9134,655.44 C540.3334,655.44 565.5934,655.44 590.7534,655.44" fill="none" id="EB-backto-SPRING" style="stroke:#181818;stroke-width:1;stroke-dasharray:7.0,7.0;"/><polygon fill="#181818" points="509.9134,655.44,518.9134,659.44,514.9134,655.44,518.9134,651.44,509.9134,655.44" style="stroke:#181818;stroke-width:1;"/><text fill="#000000" font-family="sans-serif" font-size="13" lengthAdjust="spacing" textLength="60.2583" x="520.5034" y="633.5069">provides/</text><text fill="#000000" font-family="sans-serif" font-size="13" lengthAdjust="spacing" textLength="59.8584" x="520.7033" y="648.6397">manages</text></g><!--link EX to EB--><g class="link" data-entity-1="EX" data-entity-2="EB" data-source-line="30" data-uid="lnk25" id="link_EX_EB"><path d="M173.9234,655.44 C247.3634,655.44 361.6334,655.44 423.8634,655.44" fill="none" id="EX-to-EB" style="stroke:#181818;stroke-width:1;"/><polygon fill="#181818" points="429.8634,655.44,420.8634,651.44,424.8634,655.44,420.8634,659.44,429.8634,655.44" style="stroke:#181818;stroke-width:1;"/><text fill="#000000" font-family="sans-serif" font-size="13" lengthAdjust="spacing" textLength="100.9976" x="249.5892" y="618.5069">is published as:</text><text fill="#000000" font-family="sans-serif" font-size="13" lengthAdjust="spacing" textLength="231.4292" x="188.5057" y="633.6397">* before event (phase: EXECUTING)</text><text fill="#000000" font-family="sans-serif" font-size="13" lengthAdjust="spacing" textLength="214.8809" x="196.7799" y="648.7725">* after event (phase: EXECUTED)</text></g><!--link EL to EB--><g class="link" data-entity-1="EL" data-entity-2="EB" data-source-line="33" data-uid="lnk27" id="link_EL_EB"><path d="M469.9734,513.28 C469.9734,544.56 469.9734,591.53 469.9734,622.93" fill="none" id="EL-to-EB" style="stroke:#181818;stroke-width:1;"/><polygon fill="#181818" points="469.9734,628.93,473.9734,619.93,469.9734,623.93,465.9734,619.93,469.9734,628.93" style="stroke:#181818;stroke-width:1;"/><text fill="#000000" font-family="sans-serif" font-size="13" lengthAdjust="spacing" textLength="42.104" x="470.9734" y="580.4669">listens</text><text fill="#000000" font-family="sans-serif" font-size="13" lengthAdjust="spacing" textLength="16.1929" x="488.0613" y="595.5997">on</text></g><!--reverse link MB to EL--><g class="link" data-entity-1="MB" data-entity-2="EL" data-source-line="34" data-uid="lnk29" id="link_MB_EL"><path d="M313.0582,298.5334 C324.4682,311.4934 338.0234,327 352.9734,344.6 C388.0334,385.89 428.1234,434.69 451.1034,462.82" fill="none" id="MB-backto-EL" style="stroke:#181818;stroke-width:1;"/><polygon fill="#181818" points="309.0934,294.03,312.0383,303.4283,312.3974,297.7828,318.0428,298.1419,309.0934,294.03" style="stroke:#181818;stroke-width:1;"/><text fill="#000000" font-family="sans-serif" font-size="13" lengthAdjust="spacing" textLength="119.0566" x="405.3098" y="357.6669">can check/modify:</text><text fill="#000000" font-family="sans-serif" font-size="13" lengthAdjust="spacing" textLength="100.0771" x="414.7995" y="372.7997">visibility (hide),</text><text fill="#000000" font-family="sans-serif" font-size="13" lengthAdjust="spacing" textLength="119.7295" x="404.9734" y="387.9325">usability (disable),</text><text fill="#000000" font-family="sans-serif" font-size="13" lengthAdjust="spacing" textLength="114.0103" x="409.8991" y="403.0653">validity (validate)</text></g><!--SRC=[ZLJVRzem47xtNt7g4rGbdVQ8EhH0eWs9hcXqLHzuCSc5U7Nio7ReqBJ_lMSR0cqtQNc9_Ntdky_tm_P9g9ORte3I9LfiuUC7nfpUeglHm6y6z0qotN2Xrcg5PYSA70AtaArUStURdrYuIDr5waPCZYmjynsg0v-pFyopjzXiqDnSYqd0RwVl8Y-DRj6uVU2N4KiB9xGAI1gHcPOIJ-YCt2zXr8qcv1B682nmbhu5Pcy1bjt1g3n2DRSiMtc0aFG0i2m_CocuWWt2Ma69XUG6Ix-kj65iaF_2ekiLvOyaw09BuRo5ZwOkl5zFf70Xr4uNt5k_feabJpvlQpNjR7GrPODLQuJQXkrg-Nt-xGkBFqXaGgUyjjRedQ2ANgzLmnNVecNv8umEB8LekuqKjYRDt8vzs4kw2sb7G1yG1YrT6CUa8P_zk2Vdms33AqVL-Pj9dWrFQXV2EbHeekG5onSmEWQNWRC-fbQ1wSupMjHOF5qtkXJLtWlR2IisGWgtXq5DLnfU4TXPViHAGMiPuHsNeWneM767f4bfXs34jdQWAzzyIo-Racnmp2xXwppp6Ro4RBvAfukuVaWNyoozZvi-1VqwpzXzZL3HuE2pDa_0EqUTxaJ1fTo3HLLQq9rZ8L4MdeMhWVeQsXXQgB3JfgHaXdoK2QD3uBM-LKnZqKzIIAyV65_2lkkuxnZ65PsBNUJsBTLHOkFBHC4uD67Ku6Hp1PXi4tQpcNoE0pK8i-G_mifJj4yKVDPPkf-F6stFn2IamThXl-Nxwdl3OqlOuzpqyhNNleyTMK1iRZ8WguOU0rsUINtbgLTCp7-AV10StYSpeKSdR49d38PNhEfCU8Og8QdVlPw3QDwsKfnNwmK0]--></g></svg>