<svg xmlns="http://www.w3.org/2000/svg" xmlns:xlink="http://www.w3.org/1999/xlink" contentStyleType="text/css" data-diagram-type="DESCRIPTION" height="342px" preserveAspectRatio="none" style="width:716px;height:342px;background:#FFFFFF;" version="1.1" viewBox="0 0 716 342" width="716px" zoomAndPan="magnify"><defs/><g><g class="entity" data-entity="DO" data-source-line="5" data-uid="ent0002" id="entity_DO"><ellipse cx="468.689" cy="132.2873" fill="#F1F1F1" rx="49.899" ry="26.0473" style="stroke:#181818;stroke-width:0.5;"/><text fill="#000000" font-family="sans-serif" font-size="14" lengthAdjust="spacing" textLength="54.3252" x="441.5264" y="126.9855">Domain</text><text fill="#000000" font-family="sans-serif" font-size="14" lengthAdjust="spacing" textLength="45.5957" x="445.8911" y="143.2824">Object</text></g><g class="entity" data-entity="E" data-source-line="6" data-uid="ent0003" id="entity_E"><ellipse cx="606.6889" cy="225.38" fill="#F1F1F1" rx="40.5689" ry="14.58" style="stroke:#181818;stroke-width:0.5;"/><text fill="#000000" font-family="sans-serif" font-size="14" lengthAdjust="spacing" textLength="40.8721" x="583.6359" y="229.0333">Entity</text></g><g class="entity" data-entity="VM" data-source-line="7" data-uid="ent0004" id="entity_VM"><ellipse cx="468.6879" cy="225.3773" fill="#F1F1F1" rx="41.2079" ry="26.0473" style="stroke:#181818;stroke-width:0.5;"/><text fill="#000000" font-family="sans-serif" font-size="14" lengthAdjust="spacing" textLength="33.5303" x="451.9228" y="220.0755">View</text><text fill="#000000" font-family="sans-serif" font-size="14" lengthAdjust="spacing" textLength="42.0342" x="447.6708" y="236.3724">Model</text></g><g class="entity" data-entity="FW" data-source-line="9" data-uid="ent0005" id="entity_FW"><ellipse cx="468.6893" cy="310.4799" fill="#F1F1F1" rx="84.0493" ry="19.2099" style="stroke:#181818;stroke-width:0.5;"/><text fill="#000000" font-family="sans-serif" font-size="14" font-style="italic" lengthAdjust="spacing" textLength="128.126" x="404.3825" y="313.4104">Apache Causeway</text></g><g class="entity" data-entity="PL" data-source-line="10" data-uid="ent0006" id="entity_PL"><ellipse cx="641.6905" cy="310.4773" fill="#F1F1F1" rx="68.4605" ry="26.0473" style="stroke:#181818;stroke-width:0.5;"/><text fill="#000000" font-family="sans-serif" font-size="14" lengthAdjust="spacing" textLength="80.5752" x="601.403" y="305.1755">Persistence</text><text fill="#000000" font-family="sans-serif" font-size="14" lengthAdjust="spacing" textLength="39.0332" x="622.1739" y="321.4724">Layer</text></g><g class="entity" data-entity="M" data-source-line="12" data-uid="ent0007" id="entity_M"><ellipse cx="140.6852" cy="132.2886" fill="#F1F1F1" rx="37.7352" ry="14.5486" style="stroke:#181818;stroke-width:0.5;"/><text fill="#000000" font-family="sans-serif" font-size="14" lengthAdjust="spacing" textLength="37.0166" x="120.5612" y="135.6725">Mixin</text></g><g class="entity" data-entity="ME" data-source-line="13" data-uid="ent0008" id="entity_ME"><ellipse cx="239.6906" cy="132.2858" fill="#F1F1F1" rx="41.0206" ry="14.5858" style="stroke:#181818;stroke-width:0.5;"/><text fill="#000000" font-family="sans-serif" font-size="14" lengthAdjust="spacing" textLength="41.4805" x="216.1679" y="135.9804">Mixee</text></g><g class="entity" data-entity="S" data-source-line="15" data-uid="ent0009" id="entity_S"><ellipse cx="349.6856" cy="132.288" fill="#F1F1F1" rx="48.6756" ry="14.678" style="stroke:#181818;stroke-width:0.5;"/><text fill="#000000" font-family="sans-serif" font-size="14" lengthAdjust="spacing" textLength="51.7412" x="320.815" y="136.0356">Service</text></g><g class="entity" data-entity="DS" data-source-line="16" data-uid="ent0010" id="entity_DS"><ellipse cx="328.689" cy="225.3773" fill="#F1F1F1" rx="49.899" ry="26.0473" style="stroke:#181818;stroke-width:0.5;"/><text fill="#000000" font-family="sans-serif" font-size="14" lengthAdjust="spacing" textLength="54.3252" x="301.5264" y="220.0755">Domain</text><text fill="#000000" font-family="sans-serif" font-size="14" lengthAdjust="spacing" textLength="51.7412" x="302.8184" y="236.3724">Service</text></g><g class="entity" data-entity="SPRING" data-source-line="17" data-uid="ent0011" id="entity_SPRING"><ellipse cx="349.6885" cy="20.6225" fill="#F1F1F1" rx="43.7785" ry="14.6225" style="stroke:#181818;stroke-width:0.5;"/><text fill="#000000" font-family="sans-serif" font-size="14" font-style="italic" lengthAdjust="spacing" textLength="45.1787" x="324.0992" y="24.3701">Spring</text></g><g class="entity" data-entity="MB" data-source-line="19" data-uid="ent0012" id="entity_MB"><ellipse cx="196.6881" cy="225.3788" fill="#F1F1F1" rx="53.0381" ry="14.7188" style="stroke:#181818;stroke-width:0.5;"/><text fill="#000000" font-family="sans-serif" font-size="14" lengthAdjust="spacing" textLength="57.5859" x="164.8952" y="229.1264">Member</text></g><g class="entity" data-entity="P" data-source-line="20" data-uid="ent0013" id="entity_P"><ellipse cx="60.6864" cy="310.4826" fill="#F1F1F1" rx="54.6864" ry="14.7326" style="stroke:#181818;stroke-width:0.5;"/><text fill="#000000" font-family="sans-serif" font-size="14" lengthAdjust="spacing" textLength="59.7939" x="27.7894" y="314.2301">Property</text></g><g class="entity" data-entity="C" data-source-line="21" data-uid="ent0014" id="entity_C"><ellipse cx="196.6949" cy="310.4832" fill="#F1F1F1" rx="61.7449" ry="14.7832" style="stroke:#181818;stroke-width:0.5;"/><text fill="#000000" font-family="sans-serif" font-size="14" lengthAdjust="spacing" textLength="69.248" x="159.0709" y="314.2307">Collection</text></g><g class="entity" data-entity="A" data-source-line="22" data-uid="ent0015" id="entity_A"><ellipse cx="321.6876" cy="310.4822" fill="#F1F1F1" rx="42.9676" ry="14.6122" style="stroke:#181818;stroke-width:0.5;"/><text fill="#000000" font-family="sans-serif" font-size="14" lengthAdjust="spacing" textLength="44.0918" x="296.6417" y="314.2297">Action</text></g><!--reverse link DO to VM--><g class="link" data-entity-1="DO" data-entity-2="VM" data-source-line="25" data-uid="lnk16" id="link_DO_VM"><path d="M468.69,164.66 C468.69,177.3 468.69,186.53 468.69,199.14" fill="none" id="DO-backto-VM" style="stroke:#181818;stroke-width:1;"/><polygon fill="#181818" points="468.69,158.66,464.69,167.66,468.69,163.66,472.69,167.66,468.69,158.66" style="stroke:#181818;stroke-width:1;"/><text fill="#000000" font-family="sans-serif" font-size="13" lengthAdjust="spacing" textLength="22.4834" x="444.2026" y="188.4205">is a</text></g><!--reverse link DO to E--><g class="link" data-entity-1="DO" data-entity-2="E" data-source-line="26" data-uid="lnk17" id="link_DO_E"><path d="M503.9779,156.5847 C531.1179,174.4947 565.05,196.9 587.92,212" fill="none" id="DO-backto-E" style="stroke:#181818;stroke-width:1;"/><polygon fill="#181818" points="498.97,153.28,504.2786,161.5757,503.1432,156.034,508.685,154.8985,498.97,153.28" style="stroke:#181818;stroke-width:1;"/><text fill="#000000" font-family="sans-serif" font-size="13" lengthAdjust="spacing" textLength="22.4834" x="553.0018" y="199.961">is a</text></g><!--reverse link VM to FW--><g class="link" data-entity-1="VM" data-entity-2="FW" data-source-line="27" data-uid="lnk19" id="link_VM_FW"><path d="M468.69,257.76 C468.69,270.37 468.69,279.32 468.69,290.84" fill="none" id="VM-backto-FW" style="stroke:#181818;stroke-width:1;stroke-dasharray:7.0,7.0;"/><polygon fill="#181818" points="468.69,251.76,464.69,260.76,468.69,256.76,472.69,260.76,468.69,251.76" style="stroke:#181818;stroke-width:1;"/><text fill="#000000" font-family="sans-serif" font-size="13" lengthAdjust="spacing" textLength="59.8584" x="469.69" y="272.4969">manages</text></g><!--reverse link E to PL--><g class="link" data-entity-1="E" data-entity-2="PL" data-source-line="28" data-uid="lnk21" id="link_E_PL"><path d="M614.799,245.6296 C619.849,257.6196 624.97,269.79 631.09,284.31" fill="none" id="E-backto-PL" style="stroke:#181818;stroke-width:1;stroke-dasharray:7.0,7.0;"/><polygon fill="#181818" points="612.47,240.1,612.2771,249.947,614.4108,244.708,619.6498,246.8417,612.47,240.1" style="stroke:#181818;stroke-width:1;"/><text fill="#000000" font-family="sans-serif" font-size="13" lengthAdjust="spacing" textLength="59.8584" x="627.69" y="272.4969">manages</text></g><!--reverse link MB to P--><g class="link" data-entity-1="MB" data-entity-2="P" data-source-line="30" data-uid="lnk23" id="link_MB_P"><path d="M170.6202,242.3085 C145.1402,257.8785 107.48,280.89 81.89,296.52" fill="none" id="MB-backto-P" style="stroke:#181818;stroke-width:1;"/><polygon fill="#181818" points="175.74,239.18,165.9746,240.4596,171.4735,241.7871,170.146,247.286,175.74,239.18" style="stroke:#181818;stroke-width:1;"/><text fill="#000000" font-family="sans-serif" font-size="13" lengthAdjust="spacing" textLength="22.4834" x="64.1987" y="284.761">is a</text></g><!--reverse link MB to C--><g class="link" data-entity-1="MB" data-entity-2="C" data-source-line="31" data-uid="lnk25" id="link_MB_C"><path d="M196.69,246.48 C196.69,261.76 196.69,280 196.69,295.31" fill="none" id="MB-backto-C" style="stroke:#181818;stroke-width:1;"/><polygon fill="#181818" points="196.69,240.48,192.69,249.48,196.69,245.48,200.69,249.48,196.69,240.48" style="stroke:#181818;stroke-width:1;"/><text fill="#000000" font-family="sans-serif" font-size="13" lengthAdjust="spacing" textLength="22.4834" x="170.9902" y="284.6058">is a</text></g><!--reverse link MB to A--><g class="link" data-entity-1="MB" data-entity-2="A" data-source-line="32" data-uid="lnk27" id="link_MB_A"><path d="M221.2171,242.6909 C244.9771,258.4809 279.79,281.63 303.11,297.13" fill="none" id="MB-backto-A" style="stroke:#181818;stroke-width:1;"/><polygon fill="#181818" points="216.22,239.37,221.5018,247.6828,220.3843,242.1374,225.9297,241.0199,216.22,239.37" style="stroke:#181818;stroke-width:1;"/><text fill="#000000" font-family="sans-serif" font-size="13" lengthAdjust="spacing" textLength="22.4834" x="267.5421" y="284.5835">is a</text></g><!--link DO to MB--><g class="link" data-entity-1="DO" data-entity-2="MB" data-source-line="34" data-uid="lnk28" id="link_DO_MB"><path d="M437.08,152.79 C428.14,157.73 418.23,162.66 408.69,166.34 C349.03,189.3 330.07,181.48 268.69,199.34 C254.97,203.33 245.6604,206.3917 232.9504,210.9317" fill="none" id="DO-to-MB" style="stroke:#181818;stroke-width:1;"/><polygon fill="#181818" points="227.3,212.95,237.1211,213.6895,232.0086,211.2681,234.43,206.1556,227.3,212.95" style="stroke:#181818;stroke-width:1;"/><text fill="#000000" font-family="sans-serif" font-size="13" lengthAdjust="spacing" textLength="50.1465" x="383.69" y="187.4069">has 1..*</text></g><!--link M to MB--><g class="link" data-entity-1="M" data-entity-2="MB" data-source-line="36" data-uid="lnk29" id="link_M_MB"><path d="M148.95,146.73 C159.48,163.85 174.4376,188.1887 185.0676,205.4787" fill="none" id="M-to-MB" style="stroke:#181818;stroke-width:1;stroke-dasharray:7.0,7.0;"/><polygon fill="#181818" points="188.21,210.59,186.9039,200.8281,185.5913,206.3306,180.0888,205.0181,188.21,210.59" style="stroke:#181818;stroke-width:1;"/><text fill="#000000" font-family="sans-serif" font-size="13" lengthAdjust="spacing" textLength="73.7534" x="68.463" y="166.745">contributes</text><text fill="#000000" font-family="sans-serif" font-size="13" lengthAdjust="spacing" textLength="7.9663" x="103.4227" y="181.8778">a</text></g><!--link M to ME--><g class="link" data-entity-1="M" data-entity-2="ME" data-source-line="37" data-uid="lnk30" id="link_M_ME"><path d="M178.59,132.29 C185.27,132.29 185.95,132.29 192.64,132.29" fill="none" id="M-to-ME" style="stroke:#181818;stroke-width:1;"/><polygon fill="#181818" points="198.64,132.29,189.64,128.29,193.64,132.29,189.64,136.29,198.64,132.29" style="stroke:#181818;stroke-width:1;"/><text fill="#000000" font-family="sans-serif" font-size="13" lengthAdjust="spacing" textLength="73.7534" x="164.4234" y="91.0991">contributes</text><text fill="#000000" font-family="sans-serif" font-size="13" lengthAdjust="spacing" textLength="13.0508" x="196.8409" y="106.2319">to</text></g><!--link DO to ME--><g class="link" data-entity-1="DO" data-entity-2="ME" data-source-line="38" data-uid="lnk31" id="link_DO_ME"><path d="M438.95,111.11 C409.71,91.74 363,64.56 317.69,54.17 C304.69,51.18 299.33,47.66 287.69,54.17 C263.52,67.68 251.9145,93.2236 245.7545,111.8436" fill="none" id="DO-to-ME" style="stroke:#181818;stroke-width:1;"/><polygon fill="#181818" points="243.87,117.54,250.4943,110.2518,245.4404,112.793,242.8992,107.7391,243.87,117.54" style="stroke:#181818;stroke-width:1;"/><text fill="#000000" font-family="sans-serif" font-size="13" lengthAdjust="spacing" textLength="23.353" x="289.1851" y="56.3069">can</text><text fill="#000000" font-family="sans-serif" font-size="13" lengthAdjust="spacing" textLength="20.2109" x="292.8223" y="71.4397">act</text><text fill="#000000" font-family="sans-serif" font-size="13" lengthAdjust="spacing" textLength="14.7393" x="297.6243" y="86.5725">as</text></g><!--link SPRING to S--><g class="link" data-entity-1="SPRING" data-entity-2="S" data-source-line="40" data-uid="lnk32" id="link_SPRING_S"><path d="M349.69,35.51 C349.69,56.49 349.69,90.05 349.69,111.16" fill="none" id="SPRING-to-S" style="stroke:#181818;stroke-width:1;stroke-dasharray:7.0,7.0;"/><polygon fill="#181818" points="349.69,117.16,353.69,108.16,349.69,112.16,345.69,108.16,349.69,117.16" style="stroke:#181818;stroke-width:1;"/><text fill="#000000" font-family="sans-serif" font-size="13" lengthAdjust="spacing" textLength="59.8584" x="350.69" y="71.3069">manages</text></g><!--reverse link S to DS--><g class="link" data-entity-1="S" data-entity-2="DS" data-source-line="41" data-uid="lnk34" id="link_S_DS"><path d="M345.1512,152.9664 C341.9812,166.7064 338.41,182.24 334.54,199.03" fill="none" id="S-backto-DS" style="stroke:#181818;stroke-width:1;"/><polygon fill="#181818" points="346.5,147.12,340.5791,154.9904,345.376,151.992,348.3743,156.7889,346.5,147.12" style="stroke:#181818;stroke-width:1;"/><text fill="#000000" font-family="sans-serif" font-size="13" lengthAdjust="spacing" textLength="22.4834" x="311.4052" y="188.2851">is a</text></g><!--link DS to A--><g class="link" data-entity-1="DS" data-entity-2="A" data-source-line="42" data-uid="lnk35" id="link_DS_A"><path d="M326.55,251.76 C325.33,266.27 324.3412,277.921 323.3412,289.851" fill="none" id="DS-to-A" style="stroke:#181818;stroke-width:1;"/><polygon fill="#181818" points="322.84,295.83,327.5778,287.1956,323.2576,290.8475,319.6057,286.5273,322.84,295.83" style="stroke:#181818;stroke-width:1;"/><text fill="#000000" font-family="sans-serif" font-size="13" lengthAdjust="spacing" textLength="50.1465" x="327.69" y="272.4969">has 1..*</text></g><!--SRC=[PP1HJy8m4CUVxQUux0bDDiL7GvRCRHWJ9ejDu6KlPLoWmjgbxKHY_Ews7S61J-l_TxkxNwjtNBHCiGQ4NAF65XuVY3v3nSJEmJ4XHcxGR571DxaPPR9XN5HYllh0sjm2qv3DBS-5uUReSsxZWkEX4eMTlFTiKP0VCfhmE6bPlKL8MQVnm8wJUnxx7wPBCYfHQQuDYXehCMD7LBvKpYuL2lx5XQyKVKBiK-vsK5IVlEu99MVV8SweLw6juc9pDg3b- -lRozKgR5OdY-BPvbB95jNfdgK5gTplxJjmsGkb5YL_CR5299l395o70TV00lSGbo0dqoL4NHJR4Zn1mmJRe2Rbh8VvW94I-gQm2sCdb5xbv2gxLQ4_sYbRApIEeZj22WXgAOpYgywWheJjY2BVyAzYPE3wSp_97UoWcWbmJRNn7-lLFnsu8NJWcz6X3tNPsIG3cLy0]--></g></svg>