<?xml version="1.0" encoding="us-ascii" standalone="no"?><svg xmlns="http://www.w3.org/2000/svg" xmlns:xlink="http://www.w3.org/1999/xlink" contentStyleType="text/css" height="510px" preserveAspectRatio="none" style="width:735px;height:510px;background:#FFFFFF;" version="1.1" viewBox="0 0 735 510" width="735px" zoomAndPan="magnify"><defs/><g><g id="elem_EB"><ellipse cx="402.2524" cy="349.0773" fill="#F1F1F1" rx="39.0624" ry="26.0473" style="stroke:#181818;stroke-width:0.5;"/><text fill="#000000" font-family="sans-serif" font-size="14" lengthAdjust="spacing" textLength="39" x="382.7524" y="343.7755">Event</text><text fill="#000000" font-family="sans-serif" font-size="14" lengthAdjust="spacing" textLength="27" x="388.7524" y="360.0724">Bus</text></g><g id="elem_SPRING"><ellipse cx="565.2491" cy="349.0813" fill="#F1F1F1" rx="42.8991" ry="14.6113" style="stroke:#181818;stroke-width:0.5;"/><text fill="#000000" font-family="sans-serif" font-size="14" lengthAdjust="spacing" textLength="44" x="540.2491" y="352.8288">Spring</text></g><g id="elem_EL"><ellipse cx="395.2462" cy="173.0673" fill="#F1F1F1" rx="50.3762" ry="26.0473" style="stroke:#181818;stroke-width:0.5;"/><text fill="#000000" font-family="sans-serif" font-size="14" lengthAdjust="spacing" textLength="39" x="375.7462" y="167.7655">Event</text><text fill="#000000" font-family="sans-serif" font-size="14" lengthAdjust="spacing" textLength="55" x="367.7462" y="184.0624">Listener</text></g><g id="elem_UIE"><ellipse cx="233.2524" cy="349.0773" fill="#F1F1F1" rx="39.0624" ry="26.0473" style="stroke:#181818;stroke-width:0.5;"/><text fill="#000000" font-family="sans-serif" font-size="14" lengthAdjust="spacing" textLength="13" x="226.7524" y="343.7755">UI</text><text fill="#000000" font-family="sans-serif" font-size="14" lengthAdjust="spacing" textLength="39" x="213.7524" y="360.0724">Event</text></g><g id="elem_TUIE"><ellipse cx="54.2548" cy="478.1673" fill="#F1F1F1" rx="48.2548" ry="26.0473" style="stroke:#181818;stroke-width:0.5;"/><text fill="#000000" font-family="sans-serif" font-size="14" lengthAdjust="spacing" textLength="29" x="39.7548" y="472.8655">Title</text><text fill="#000000" font-family="sans-serif" font-size="14" lengthAdjust="spacing" textLength="52" x="28.2548" y="489.1624">UIEvent</text></g><g id="elem_IUIE"><ellipse cx="171.2548" cy="478.1673" fill="#F1F1F1" rx="48.2548" ry="26.0473" style="stroke:#181818;stroke-width:0.5;"/><text fill="#000000" font-family="sans-serif" font-size="14" lengthAdjust="spacing" textLength="29" x="156.7548" y="472.8655">Icon</text><text fill="#000000" font-family="sans-serif" font-size="14" lengthAdjust="spacing" textLength="52" x="145.2548" y="489.1624">UIEvent</text></g><g id="elem_CCUIE"><ellipse cx="295.253" cy="478.1673" fill="#F1F1F1" rx="56.033" ry="26.0473" style="stroke:#181818;stroke-width:0.5;"/><text fill="#000000" font-family="sans-serif" font-size="14" lengthAdjust="spacing" textLength="63" x="263.753" y="472.8655">CssClass</text><text fill="#000000" font-family="sans-serif" font-size="14" lengthAdjust="spacing" textLength="52" x="269.253" y="489.1624">UIEvent</text></g><g id="elem_LUIE"><ellipse cx="419.2548" cy="478.1673" fill="#F1F1F1" rx="48.2548" ry="26.0473" style="stroke:#181818;stroke-width:0.5;"/><text fill="#000000" font-family="sans-serif" font-size="14" lengthAdjust="spacing" textLength="45" x="396.7548" y="472.8655">Layout</text><text fill="#000000" font-family="sans-serif" font-size="14" lengthAdjust="spacing" textLength="52" x="393.2548" y="489.1624">UIEvent</text></g><g id="elem_DO"><ellipse cx="270.2519" cy="173.0673" fill="#F1F1F1" rx="48.9619" ry="26.0473" style="stroke:#181818;stroke-width:0.5;"/><text fill="#000000" font-family="sans-serif" font-size="14" lengthAdjust="spacing" textLength="53" x="243.7519" y="167.7655">Domain</text><text fill="#000000" font-family="sans-serif" font-size="14" lengthAdjust="spacing" textLength="45" x="247.7519" y="184.0624">Object</text></g><g id="elem_PST"><ellipse cx="329.25" cy="22.048" fill="#F1F1F1" rx="68.24" ry="16.048" style="stroke:#181818;stroke-width:0.5;"/><text fill="#000000" font-family="sans-serif" font-size="14" lengthAdjust="spacing" textLength="88" x="282.25" y="25.7956">Presentation</text></g><g id="elem_GMN29"><path d="M465.75,115.1 L465.75,169.07 L445.75,173.07 L465.75,177.07 L465.75,231.0297 A0,0 0 0 0 465.75,231.0297 L728.75,231.0297 A0,0 0 0 0 728.75,231.0297 L728.75,125.1 L718.75,115.1 L465.75,115.1 A0,0 0 0 0 465.75,115.1 " fill="#FEFFDD" style="stroke:#181818;stroke-width:0.5;"/><path d="M718.75,115.1 L718.75,125.1 L728.75,125.1 L718.75,115.1 " fill="#FEFFDD" style="stroke:#181818;stroke-width:0.5;"/><text fill="#000000" font-family="sans-serif" font-size="13" lengthAdjust="spacing" textLength="210" x="471.75" y="132.1669">When DomainObject implements</text><text fill="#000000" font-family="sans-serif" font-size="13" lengthAdjust="spacing" textLength="242" x="471.75" y="147.2997">respective supporting methods itself (</text><ellipse cx="477.25" cy="157.9984" fill="#000000" rx="2.5" ry="2.5" style="stroke:#000000;stroke-width:0.0;"/><text fill="#000000" font-family="sans-serif" font-size="13" lengthAdjust="spacing" textLength="38" x="483.75" y="162.4325">title(),</text><ellipse cx="477.25" cy="173.1313" fill="#000000" rx="2.5" ry="2.5" style="stroke:#000000;stroke-width:0.0;"/><text fill="#000000" font-family="sans-serif" font-size="13" lengthAdjust="spacing" textLength="79" x="483.75" y="177.5653">iconName(),</text><ellipse cx="477.25" cy="188.2641" fill="#000000" rx="2.5" ry="2.5" style="stroke:#000000;stroke-width:0.0;"/><text fill="#000000" font-family="sans-serif" font-size="13" lengthAdjust="spacing" textLength="69" x="483.75" y="192.6981">cssClass(),</text><ellipse cx="477.25" cy="203.3969" fill="#000000" rx="2.5" ry="2.5" style="stroke:#000000;stroke-width:0.0;"/><text fill="#000000" font-family="sans-serif" font-size="13" lengthAdjust="spacing" textLength="58" x="483.75" y="207.831">layout()),</text><text fill="#000000" font-family="sans-serif" font-size="13" lengthAdjust="spacing" textLength="177" x="471.75" y="222.9638">modification is not possible.</text></g><!--reverse link EB to SPRING--><g id="link_EB_SPRING"><path d="M447.51,349.08 C470.74,349.08 498.91,349.08 521.86,349.08 " fill="none" id="EB-backto-SPRING" style="stroke:#181818;stroke-width:1.0;stroke-dasharray:7.0,7.0;"/><polygon fill="#181818" points="442.71,349.08,451.71,353.08,447.71,349.08,451.71,345.08,442.71,349.08" style="stroke:#181818;stroke-width:1.0;"/><text fill="#000000" font-family="sans-serif" font-size="13" lengthAdjust="spacing" textLength="58" x="452.84" y="327.1469">provides/</text><text fill="#000000" font-family="sans-serif" font-size="13" lengthAdjust="spacing" textLength="60" x="451.84" y="342.2797">manages</text></g><!--link EL to EB--><g id="link_EL_EB"><path d="M396.27,199.37 C397.53,230.56 399.66,283.54 401.01,317.12 " fill="none" id="EL-to-EB" style="stroke:#181818;stroke-width:1.0;"/><polygon fill="#181818" points="401.24,321.74,404.876,312.5869,401.0396,316.744,396.8825,312.9076,401.24,321.74" style="stroke:#181818;stroke-width:1.0;"/><text fill="#000000" font-family="sans-serif" font-size="13" lengthAdjust="spacing" textLength="58" x="427.25" y="274.0969">listens to</text><text fill="#000000" font-family="sans-serif" font-size="13" lengthAdjust="spacing" textLength="110" x="405.25" y="289.2297">(is subscribed to)</text></g><!--link UIE to EB--><g id="link_UIE_EB"><path d="M272.45,349.08 C297.74,349.08 330.72,349.08 357.11,349.08 " fill="none" id="UIE-to-EB" style="stroke:#181818;stroke-width:1.0;"/><polygon fill="#181818" points="361.98,349.08,352.98,345.08,356.98,349.08,352.98,353.08,361.98,349.08" style="stroke:#181818;stroke-width:1.0;"/><text fill="#000000" font-family="sans-serif" font-size="13" lengthAdjust="spacing" textLength="10" x="310.75" y="312.1469">is</text><text fill="#000000" font-family="sans-serif" font-size="13" lengthAdjust="spacing" textLength="61" x="287.25" y="327.2797">published</text><text fill="#000000" font-family="sans-serif" font-size="13" lengthAdjust="spacing" textLength="13" x="313.25" y="342.4125">to</text></g><!--reverse link UIE to TUIE--><g id="link_UIE_TUIE"><path d="M202.03,372.25 C168.42,396.11 115.41,433.75 82.85,456.87 " fill="none" id="UIE-backto-TUIE" style="stroke:#181818;stroke-width:1.0;"/><polygon fill="#181818" points="205.84,368.83,196.1888,370.7934,201.7675,371.7308,200.8301,377.3094,205.84,368.83" style="stroke:#181818;stroke-width:1.0;"/><text fill="#000000" font-family="sans-serif" font-size="13" lengthAdjust="spacing" textLength="22" x="156.25" y="418.1969">is a</text></g><!--reverse link UIE to IUIE--><g id="link_UIE_IUIE"><path d="M218.92,379.46 C208.1,401.64 193.43,431.72 183.23,452.63 " fill="none" id="UIE-backto-IUIE" style="stroke:#181818;stroke-width:1.0;"/><polygon fill="#181818" points="221.45,375.28,213.9198,381.628,219.2655,379.7775,221.1159,385.1232,221.45,375.28" style="stroke:#181818;stroke-width:1.0;"/><text fill="#000000" font-family="sans-serif" font-size="13" lengthAdjust="spacing" textLength="22" x="207.25" y="418.1969">is a</text></g><!--reverse link UIE to CCUIE--><g id="link_UIE_CCUIE"><path d="M247.59,379.46 C258.41,401.64 273.08,431.72 283.28,452.63 " fill="none" id="UIE-backto-CCUIE" style="stroke:#181818;stroke-width:1.0;"/><polygon fill="#181818" points="245.06,375.28,245.3941,385.1232,247.2445,379.7775,252.5902,381.628,245.06,375.28" style="stroke:#181818;stroke-width:1.0;"/><text fill="#000000" font-family="sans-serif" font-size="13" lengthAdjust="spacing" textLength="22" x="269.25" y="418.1969">is a</text></g><!--reverse link UIE to LUIE--><g id="link_UIE_LUIE"><path d="M264.48,371.42 C299.45,395.31 355.7,433.75 389.89,457.11 " fill="none" id="UIE-backto-LUIE" style="stroke:#181818;stroke-width:1.0;"/><polygon fill="#181818" points="260.9,368.29,266.0836,376.6644,265.0314,371.1062,270.5896,370.0541,260.9,368.29" style="stroke:#181818;stroke-width:1.0;"/><text fill="#000000" font-family="sans-serif" font-size="13" lengthAdjust="spacing" textLength="22" x="339.25" y="418.1969">is a</text></g><!--link DO to UIE--><g id="link_DO_UIE"><path d="M264.87,199.37 C258.22,230.65 246.91,283.84 239.78,317.41 " fill="none" id="DO-to-UIE" style="stroke:#181818;stroke-width:1.0;"/><polygon fill="#181818" points="238.58,322.03,244.3706,314.0633,239.6237,317.1402,236.5469,312.3933,238.58,322.03" style="stroke:#181818;stroke-width:1.0;"/><text fill="#000000" font-family="sans-serif" font-size="13" lengthAdjust="spacing" textLength="33" x="206.4485" y="219.2533">when</text><text fill="#000000" font-family="sans-serif" font-size="13" lengthAdjust="spacing" textLength="62" x="193.9485" y="234.3861">rendered,</text><text fill="#000000" font-family="sans-serif" font-size="13" lengthAdjust="spacing" textLength="51" x="199.4485" y="249.5189">leads to</text><text fill="#000000" font-family="sans-serif" font-size="13" lengthAdjust="spacing" textLength="57" x="196.4485" y="264.6518">emission</text><text fill="#000000" font-family="sans-serif" font-size="13" lengthAdjust="spacing" textLength="12" x="218.9485" y="279.7846">of</text></g><!--reverse link PST to DO--><g id="link_PST_DO"><path d="M321,43.9 C310.28,70.98 291.58,118.21 280.12,147.15 " fill="none" id="PST-backto-DO" style="stroke:#181818;stroke-width:1.0;"/><polygon fill="#181818" points="323.16,39.44,316.1218,46.3294,321.3154,44.0873,323.5575,49.2808,323.16,39.44" style="stroke:#181818;stroke-width:1.0;"/><text fill="#000000" font-family="sans-serif" font-size="13" lengthAdjust="spacing" textLength="23" x="311.25" y="81.1669">has</text></g><!--reverse link PST to EL--><g id="link_PST_EL"><path d="M338.49,43.91 C350.53,71.08 371.53,118.5 384.34,147.42 " fill="none" id="PST-backto-EL" style="stroke:#181818;stroke-width:1.0;"/><polygon fill="#181818" points="336.07,39.44,336.0643,49.2889,338.098,44.0102,343.3767,46.044,336.07,39.44" style="stroke:#181818;stroke-width:1.0;"/><text fill="#000000" font-family="sans-serif" font-size="13" lengthAdjust="spacing" textLength="70" x="358.25" y="81.1669">can modify</text></g><!--SRC=[RL9DRzim3BthLn0zAKMJ3Zlkq4EJO31WDC6Ie1TVP9k9jUeBefmX_twKdBO8seDjadhlyOaqlMaNL5GMdE-HCC3F7qB8zHbTQjppI3DG1Ejd8NSXQdSgwMxxfthvBQOFBCpYYH7m2qBqPyqgZuspogaJqeTIhIcXmpZ9rM9Tmtn-fPboHf0yD0wa9g2nfIxg5dikpjZFeMfSKIhyGxKM_C0ylaimXwbXR5bhO1OdoJDlhvF1nZ7uWxpFx7sXZqpFGU4h8QlEkrjmbS7LTs0XbqHBeuXk6SjbffJtrmQrklWntHBgZA-_RI7aobkbsTEc_OlTX5zjn6e3T_y6TFcQ4LsF4Vk7d1XK_ViSqMeYxJF87-_c_QJDcjl8UtP99JuiYjlTFakMzXnp-q5HsT1dfLCEhE_ryIASJmXHduO4_fXt-PgjJ4uddw1jC6Yv2Gbk5hYapyXR3S77n7yHM4o3Pwiw4PeZI74FAQzApXuurBo75sMlMNUTyvIPCa8vuwJuqLsvI9uO6uFW-TAjmONWkUGA_WS0]--></g></svg>