<?plantuml 1.2026.1?><svg xmlns="http://www.w3.org/2000/svg" xmlns:xlink="http://www.w3.org/1999/xlink" contentStyleType="text/css" data-diagram-type="DESCRIPTION" height="503px" preserveAspectRatio="none" style="width:672px;height:503px;background:#FFFFFF;" version="1.1" viewBox="0 0 672 503" width="672px" zoomAndPan="magnify"><defs/><g><!--entity EB--><g class="entity" data-qualified-name="EB" data-source-line="3" id="ent0002"><ellipse cx="343.3682" cy="345.2685" fill="#F1F1F1" rx="29.5982" ry="24.2785" style="stroke:#181818;stroke-width:0.5;"/><text fill="#000000" font-family="sans-serif" font-size="14" lengthAdjust="spacing" textLength="40.1064" x="323.315" y="344.0864">Event</text><text fill="#000000" font-family="sans-serif" font-size="14" lengthAdjust="spacing" textLength="25.7715" x="330.4824" y="360.3833">Bus</text></g><!--entity SPRING--><g class="entity" data-qualified-name="SPRING" data-source-line="4" id="ent0003"><ellipse cx="489.3662" cy="345.2736" fill="#F1F1F1" rx="34.9462" ry="14.5236" style="stroke:#181818;stroke-width:0.5;"/><text fill="#000000" font-family="sans-serif" font-size="14" lengthAdjust="spacing" textLength="45.1787" x="466.7768" y="349.9221">Spring</text></g><!--entity EL--><g class="entity" data-qualified-name="EL" data-source-line="6" id="ent0006"><ellipse cx="336.3658" cy="171.0235" fill="#F1F1F1" rx="40.4558" ry="24.6735" style="stroke:#181818;stroke-width:0.5;"/><text fill="#000000" font-family="sans-serif" font-size="14" lengthAdjust="spacing" textLength="40.1064" x="316.3126" y="165.5147">Event</text><text fill="#000000" font-family="sans-serif" font-size="14" lengthAdjust="spacing" textLength="56.3281" x="308.2018" y="181.8116">Listener</text></g><!--entity UIE--><g class="entity" data-qualified-name="UIE" data-source-line="9" id="ent0008"><ellipse cx="192.3679" cy="345.2683" fill="#F1F1F1" rx="28.6979" ry="23.5583" style="stroke:#181818;stroke-width:0.5;"/><text fill="#000000" font-family="sans-serif" font-size="14" lengthAdjust="spacing" textLength="14.376" x="185.1799" y="338.3275">UI</text><text fill="#000000" font-family="sans-serif" font-size="14" lengthAdjust="spacing" textLength="40.1064" x="172.3146" y="354.6244">Event</text></g><!--entity TUIE--><g class="entity" data-qualified-name="TUIE" data-source-line="12" id="ent0010"><ellipse cx="44.3674" cy="471.9983" fill="#F1F1F1" rx="38.3674" ry="24.1583" style="stroke:#181818;stroke-width:0.5;"/><text fill="#000000" font-family="sans-serif" font-size="14" lengthAdjust="spacing" textLength="30.4336" x="29.1506" y="465.6954">Title</text><text fill="#000000" font-family="sans-serif" font-size="14" lengthAdjust="spacing" textLength="54.4824" x="17.1262" y="481.9922">UIEvent</text></g><!--entity IUIE--><g class="entity" data-qualified-name="IUIE" data-source-line="14" id="ent0013"><ellipse cx="141.3655" cy="471.9974" fill="#F1F1F1" rx="38.2655" ry="24.0974" style="stroke:#181818;stroke-width:0.5;"/><text fill="#000000" font-family="sans-serif" font-size="14" lengthAdjust="spacing" textLength="29.2646" x="126.7332" y="465.5986">Icon</text><text fill="#000000" font-family="sans-serif" font-size="14" lengthAdjust="spacing" textLength="54.4824" x="114.1243" y="481.8955">UIEvent</text></g><!--entity CCUIE--><g class="entity" data-qualified-name="CCUIE" data-source-line="17" id="ent0016"><ellipse cx="244.3749" cy="471.9978" fill="#F1F1F1" rx="45.1649" ry="25.4578" style="stroke:#181818;stroke-width:0.5;"/><text fill="#000000" font-family="sans-serif" font-size="14" lengthAdjust="spacing" textLength="61.1953" x="213.7773" y="469.3427">CssClass</text><text fill="#000000" font-family="sans-serif" font-size="14" lengthAdjust="spacing" textLength="54.4824" x="217.1337" y="485.6395">UIEvent</text></g><!--entity LUIE--><g class="entity" data-qualified-name="LUIE" data-source-line="19" id="ent0019"><ellipse cx="350.3712" cy="471.995" fill="#F1F1F1" rx="40.4012" ry="25.375" style="stroke:#181818;stroke-width:0.5;"/><text fill="#000000" font-family="sans-serif" font-size="14" lengthAdjust="spacing" textLength="47.5918" x="326.5753" y="467.5296">Layout</text><text fill="#000000" font-family="sans-serif" font-size="14" lengthAdjust="spacing" textLength="54.4824" x="323.13" y="483.8265">UIEvent</text></g><!--entity DO--><g class="entity" data-qualified-name="DO" data-source-line="23" id="ent0022"><ellipse cx="230.3717" cy="171.0221" fill="#F1F1F1" rx="40.0217" ry="25.2121" style="stroke:#181818;stroke-width:0.5;"/><text fill="#000000" font-family="sans-serif" font-size="14" lengthAdjust="spacing" textLength="54.3252" x="203.2091" y="168.7263">Domain</text><text fill="#000000" font-family="sans-serif" font-size="14" lengthAdjust="spacing" textLength="45.5957" x="207.5739" y="185.0232">Object</text></g><!--entity PST--><g class="entity" data-qualified-name="PST" data-source-line="26" id="ent0024"><ellipse cx="279.3715" cy="21.0283" fill="#F1F1F1" rx="63.1415" ry="15.0283" style="stroke:#181818;stroke-width:0.5;"/><text fill="#000000" font-family="sans-serif" font-size="14" lengthAdjust="spacing" textLength="88.4775" x="235.1327" y="25.6767">Presentation</text></g><g class="entity" data-qualified-name="GMN29" data-source-line="30" id="ent0030"><path d="M396.78,113.06 L396.78,167.02 L377.12,171.02 L396.78,175.02 L396.78,228.9897 A0,0 0 0 0 396.78,228.9897 L665.9543,228.9897 A0,0 0 0 0 665.9543,228.9897 L665.9543,123.06 L655.9543,113.06 L396.78,113.06 A0,0 0 0 0 396.78,113.06" fill="#FEFFDD" style="stroke:#181818;stroke-width:0.5;"/><path d="M655.9543,113.06 L655.9543,123.06 L665.9543,123.06 L655.9543,113.06" fill="#FEFFDD" style="stroke:#181818;stroke-width:0.5;"/><text fill="#000000" font-family="sans-serif" font-size="13" lengthAdjust="spacing" textLength="215.2871" x="402.78" y="130.1269">When DomainObject implements</text><text fill="#000000" font-family="sans-serif" font-size="13" lengthAdjust="spacing" textLength="248.1743" x="402.78" y="145.2597">respective supporting methods itself (</text><ellipse cx="408.28" cy="155.9584" fill="#000000" rx="2.5" ry="2.5"/><text fill="#000000" font-family="sans-serif" font-size="13" lengthAdjust="spacing" textLength="39.6919" x="414.78" y="160.3925">title(),</text><ellipse cx="408.28" cy="171.0913" fill="#000000" rx="2.5" ry="2.5"/><text fill="#000000" font-family="sans-serif" font-size="13" lengthAdjust="spacing" textLength="79.5806" x="414.78" y="175.5253">iconName(),</text><ellipse cx="408.28" cy="186.2241" fill="#000000" rx="2.5" ry="2.5"/><text fill="#000000" font-family="sans-serif" font-size="13" lengthAdjust="spacing" textLength="69.1704" x="414.78" y="190.6581">cssClass(),</text><ellipse cx="408.28" cy="201.3569" fill="#000000" rx="2.5" ry="2.5"/><text fill="#000000" font-family="sans-serif" font-size="13" lengthAdjust="spacing" textLength="59.9092" x="414.78" y="205.791">layout()),</text><text fill="#000000" font-family="sans-serif" font-size="13" lengthAdjust="spacing" textLength="182.1143" x="402.78" y="220.9238">modification is not possible.</text></g><!--reverse link EB to SPRING--><g class="link" data-entity-1="ent0002" data-entity-2="ent0003" data-link-type="dependency" data-source-line="5" id="lnk5"><path d="M379.26,345.27 C402.71,345.27 429.39,345.27 454.11,345.27" fill="none" id="EB-backto-SPRING" style="stroke:#181818;stroke-width:1;stroke-dasharray:7,7;"/><polygon fill="#181818" points="373.26,345.27,382.26,349.27,378.26,345.27,382.26,341.27,373.26,345.27" style="stroke:#181818;stroke-width:1;"/><text fill="#000000" font-family="sans-serif" font-size="13" lengthAdjust="spacing" textLength="60.2583" x="383.69" y="323.3369">provides/</text><text fill="#000000" font-family="sans-serif" font-size="13" lengthAdjust="spacing" textLength="59.8584" x="383.89" y="338.4697">manages</text></g><!--link EL to EB--><g class="link" data-entity-1="ent0006" data-entity-2="ent0002" data-link-type="dependency" data-source-line="7" id="lnk7"><path d="M337.34,195.97 C338.68,228.88 340.8269,281.7249 342.1569,314.5249" fill="none" id="EL-to-EB" style="stroke:#181818;stroke-width:1;"/><polygon fill="#181818" points="342.4,320.52,346.0321,311.3653,342.1974,315.5241,338.0386,311.6895,342.4,320.52" style="stroke:#181818;stroke-width:1;"/><text fill="#000000" font-family="sans-serif" font-size="13" lengthAdjust="spacing" textLength="59.2871" x="368.9699" y="272.0569">listens to</text><text fill="#000000" font-family="sans-serif" font-size="13" lengthAdjust="spacing" textLength="112.4868" x="346.5023" y="287.1897">(is subscribed to)</text></g><!--link UIE to EB--><g class="link" data-entity-1="ent0008" data-entity-2="ent0002" data-link-type="dependency" data-source-line="10" id="lnk9"><path d="M221.48,345.27 C247.88,345.27 280.62,345.27 307.31,345.27" fill="none" id="UIE-to-EB" style="stroke:#181818;stroke-width:1;"/><polygon fill="#181818" points="313.31,345.27,304.31,341.27,308.31,345.27,304.31,349.27,313.31,345.27" style="stroke:#181818;stroke-width:1;"/><text fill="#000000" font-family="sans-serif" font-size="13" lengthAdjust="spacing" textLength="10.3848" x="260.4083" y="308.3369">is</text><text fill="#000000" font-family="sans-serif" font-size="13" lengthAdjust="spacing" textLength="63.229" x="236.0523" y="323.4697">published</text><text fill="#000000" font-family="sans-serif" font-size="13" lengthAdjust="spacing" textLength="13.0508" x="263.2076" y="338.6025">to</text></g><!--reverse link UIE to TUIE--><g class="link" data-entity-1="ent0008" data-entity-2="ent0010" data-link-type="dependency" data-source-line="13" id="lnk12"><path d="M168.1218,366.6963 C140.6018,389.8863 95.32,428.06 66.52,452.33" fill="none" id="UIE-backto-TUIE" style="stroke:#181818;stroke-width:1;"/><polygon fill="#181818" points="172.71,362.83,163.2501,365.5706,168.8865,366.0519,168.4052,371.6883,172.71,362.83" style="stroke:#181818;stroke-width:1;"/><text fill="#000000" font-family="sans-serif" font-size="13" lengthAdjust="spacing" textLength="22.4834" x="128.37" y="412.6069">is a</text></g><!--reverse link UIE to IUIE--><g class="link" data-entity-1="ent0008" data-entity-2="ent0013" data-link-type="dependency" data-source-line="15" id="lnk15"><path d="M181.2095,373.5438 C172.0195,396.0238 160.01,425.42 150.67,448.26" fill="none" id="UIE-backto-IUIE" style="stroke:#181818;stroke-width:1;"/><polygon fill="#181818" points="183.48,367.99,176.3718,374.8071,181.588,372.6182,183.7769,377.8344,183.48,367.99" style="stroke:#181818;stroke-width:1;"/><text fill="#000000" font-family="sans-serif" font-size="13" lengthAdjust="spacing" textLength="22.4834" x="171.37" y="412.6069">is a</text></g><!--reverse link UIE to CCUIE--><g class="link" data-entity-1="ent0008" data-entity-2="ent0016" data-link-type="dependency" data-source-line="18" id="lnk18"><path d="M203.7373,373.5286 C212.9273,395.5886 224.82,424.12 234.35,446.97" fill="none" id="UIE-backto-CCUIE" style="stroke:#181818;stroke-width:1;"/><polygon fill="#181818" points="201.43,367.99,201.1986,377.8361,203.3528,372.6055,208.5834,374.7597,201.43,367.99" style="stroke:#181818;stroke-width:1;"/><text fill="#000000" font-family="sans-serif" font-size="13" lengthAdjust="spacing" textLength="22.4834" x="223.37" y="412.6069">is a</text></g><!--reverse link UIE to LUIE--><g class="link" data-entity-1="ent0008" data-entity-2="ent0019" data-link-type="dependency" data-source-line="20" id="lnk21"><path d="M217.4094,366.0377 C246.3294,388.8677 294.57,426.96 325.7,451.53" fill="none" id="UIE-backto-LUIE" style="stroke:#181818;stroke-width:1;"/><polygon fill="#181818" points="212.7,362.32,217.2857,371.0362,216.6245,365.4181,222.2426,364.7569,212.7,362.32" style="stroke:#181818;stroke-width:1;"/><text fill="#000000" font-family="sans-serif" font-size="13" lengthAdjust="spacing" textLength="22.4834" x="282.37" y="412.6069">is a</text></g><!--link DO to UIE--><g class="link" data-entity-1="ent0022" data-entity-2="ent0008" data-link-type="dependency" data-source-line="24" id="lnk23"><path d="M225,196.34 C217.64,229.72 205.7935,283.4311 198.6335,315.8611" fill="none" id="DO-to-UIE" style="stroke:#181818;stroke-width:1;"/><polygon fill="#181818" points="197.34,321.72,203.1863,313.794,198.418,316.8376,195.3744,312.0693,197.34,321.72" style="stroke:#181818;stroke-width:1;"/><text fill="#000000" font-family="sans-serif" font-size="13" lengthAdjust="spacing" textLength="35.1089" x="165.1073" y="216.498">when</text><text fill="#000000" font-family="sans-serif" font-size="13" lengthAdjust="spacing" textLength="63.5591" x="152.9484" y="231.6308">rendered,</text><text fill="#000000" font-family="sans-serif" font-size="13" lengthAdjust="spacing" textLength="51.7842" x="158.8359" y="246.7636">leads to</text><text fill="#000000" font-family="sans-serif" font-size="13" lengthAdjust="spacing" textLength="57.624" x="155.9159" y="261.8964">emission</text><text fill="#000000" font-family="sans-serif" font-size="13" lengthAdjust="spacing" textLength="12.5303" x="178.4628" y="277.0292">of</text></g><!--reverse link PST to DO--><g class="link" data-entity-1="ent0024" data-entity-2="ent0022" data-link-type="dependency" data-source-line="27" id="lnk26"><path d="M272.694,42.1859 C264.264,67.6459 248.59,115 238.31,146.02" fill="none" id="PST-backto-DO" style="stroke:#181818;stroke-width:1;"/><polygon fill="#181818" points="274.58,36.49,267.9538,43.7765,273.0084,41.2366,275.5483,46.2911,274.58,36.49" style="stroke:#181818;stroke-width:1;"/><text fill="#000000" font-family="sans-serif" font-size="13" lengthAdjust="spacing" textLength="22.9785" x="265.37" y="79.1269">has</text></g><!--reverse link PST to EL--><g class="link" data-entity-1="ent0024" data-entity-2="ent0006" data-link-type="dependency" data-source-line="28" id="lnk28"><path d="M287.0965,42.0891 C296.9565,67.6891 315.41,115.61 327.33,146.55" fill="none" id="PST-backto-EL" style="stroke:#181818;stroke-width:1;"/><polygon fill="#181818" points="284.94,36.49,284.4421,46.3263,286.7371,41.1559,291.9075,43.4509,284.94,36.49" style="stroke:#181818;stroke-width:1;"/><text fill="#000000" font-family="sans-serif" font-size="13" lengthAdjust="spacing" textLength="72.2363" x="304.37" y="79.1269">can modify</text></g><?plantuml-src RL9DRzim3BthLn0zAKMJ3Zlkq4EJO31WDC6Ie1TVP9k9jUeBefmX_twKdBO8seDjadhlyOaqlMaNL5GMdE-HCC3F7qB8zHbTQjppI3DG1Ejd8NSXQdSgwMxxfthvBQOFBCpYYH7m2qBqPyqgZuspogaJqeTIhIcXmpZ9rM9Tmtn-fPboHf0yD0wa9g2nfIxg5dikpjZFeMfSKIhyGxKM_C0ylaimXwbXR5bhO1OdoJDlhvF1nZ7uWxpFx7sXZqpFGU4h8QlEkrjmbS7LTs0XbqHBeuXk6SjbffJtrmQrklWntHBgZA-_RI7aobkbsTEc_OlTX5zjn6e3T_y6TFcQ4LsF4Vk7d1XK_ViSqMeYxJF87-_c_QJDcjl8UtP99JuiYjlTFakMzXnp-q5HsT1dfLCEhE_ryIASJmXHduO4_fXt-PgjJ4uddw1jC6Yv2Gbk5hYapyXR3S77n7yHM4o3Pwiw4PeZI74FAQzApXuurBo75sMlMNUTyvIPCa8vuwJuqLsvI9uO6uFW-TAjmONWkUGA_WS0?></g></svg>