<?xml version="1.0" encoding="UTF-8" standalone="no"?><svg xmlns="http://www.w3.org/2000/svg" xmlns:xlink="http://www.w3.org/1999/xlink" contentStyleType="text/css" height="516px" preserveAspectRatio="none" style="width:674px;height:516px;background:#FFFFFF;" version="1.1" viewBox="0 0 674 516" width="674px" zoomAndPan="magnify"><defs/><g><g id="elem_EB"><ellipse cx="377.234" cy="352.7587" fill="#F1F1F1" rx="36.234" ry="26.7587" style="stroke:#181818;stroke-width:0.5;"/><text fill="#000000" font-family="sans-serif" font-size="14" lengthAdjust="spacing" textLength="35" x="359.734" y="347.9587">Event</text><text fill="#000000" font-family="sans-serif" font-size="14" lengthAdjust="spacing" textLength="24" x="365.234" y="364.7586">Bus</text></g><g id="elem_SPRING"><ellipse cx="526.9767" cy="352.8793" fill="#F1F1F1" rx="40.4767" ry="14.8793" style="stroke:#181818;stroke-width:0.5;"/><text fill="#000000" font-family="sans-serif" font-size="14" lengthAdjust="spacing" textLength="41" x="506.4767" y="356.4793">Spring</text></g><g id="elem_EL"><ellipse cx="371.1335" cy="173.2587" fill="#F1F1F1" rx="46.1335" ry="26.7587" style="stroke:#181818;stroke-width:0.5;"/><text fill="#000000" font-family="sans-serif" font-size="14" lengthAdjust="spacing" textLength="35" x="353.6335" y="168.4587">Event</text><text fill="#000000" font-family="sans-serif" font-size="14" lengthAdjust="spacing" textLength="49" x="346.6335" y="185.2586">Listener</text></g><g id="elem_UIE"><ellipse cx="223.234" cy="352.7587" fill="#F1F1F1" rx="36.234" ry="26.7587" style="stroke:#181818;stroke-width:0.5;"/><text fill="#000000" font-family="sans-serif" font-size="14" lengthAdjust="spacing" textLength="14" x="216.234" y="347.9587">UI</text><text fill="#000000" font-family="sans-serif" font-size="14" lengthAdjust="spacing" textLength="35" x="205.734" y="364.7586">Event</text></g><g id="elem_TUIE"><ellipse cx="52.1335" cy="483.7587" fill="#F1F1F1" rx="46.1335" ry="26.7587" style="stroke:#181818;stroke-width:0.5;"/><text fill="#000000" font-family="sans-serif" font-size="14" lengthAdjust="spacing" textLength="26" x="39.1335" y="478.9587">Title</text><text fill="#000000" font-family="sans-serif" font-size="14" lengthAdjust="spacing" textLength="49" x="27.6335" y="495.7586">UIEvent</text></g><g id="elem_IUIE"><ellipse cx="164.1335" cy="483.7587" fill="#F1F1F1" rx="46.1335" ry="26.7587" style="stroke:#181818;stroke-width:0.5;"/><text fill="#000000" font-family="sans-serif" font-size="14" lengthAdjust="spacing" textLength="26" x="151.1335" y="478.9587">Icon</text><text fill="#000000" font-family="sans-serif" font-size="14" lengthAdjust="spacing" textLength="49" x="139.6335" y="495.7586">UIEvent</text></g><g id="elem_CCUIE"><ellipse cx="283.2046" cy="483.7587" fill="#F1F1F1" rx="53.2046" ry="26.7587" style="stroke:#181818;stroke-width:0.5;"/><text fill="#000000" font-family="sans-serif" font-size="14" lengthAdjust="spacing" textLength="59" x="253.7046" y="478.9587">CssClass</text><text fill="#000000" font-family="sans-serif" font-size="14" lengthAdjust="spacing" textLength="49" x="258.7046" y="495.7586">UIEvent</text></g><g id="elem_LUIE"><ellipse cx="402.1335" cy="483.7587" fill="#F1F1F1" rx="46.1335" ry="26.7587" style="stroke:#181818;stroke-width:0.5;"/><text fill="#000000" font-family="sans-serif" font-size="14" lengthAdjust="spacing" textLength="42" x="381.1335" y="478.9587">Layout</text><text fill="#000000" font-family="sans-serif" font-size="14" lengthAdjust="spacing" textLength="49" x="377.6335" y="495.7586">UIEvent</text></g><g id="elem_DO"><ellipse cx="255.2193" cy="173.2587" fill="#F1F1F1" rx="44.7193" ry="26.7587" style="stroke:#181818;stroke-width:0.5;"/><text fill="#000000" font-family="sans-serif" font-size="14" lengthAdjust="spacing" textLength="47" x="231.7193" y="168.4587">Domain</text><text fill="#000000" font-family="sans-serif" font-size="14" lengthAdjust="spacing" textLength="40" x="235.2193" y="185.2586">Object</text></g><g id="elem_PST"><ellipse cx="309.8986" cy="21.2797" fill="#F1F1F1" rx="64.3986" ry="15.2797" style="stroke:#181818;stroke-width:0.5;"/><text fill="#000000" font-family="sans-serif" font-size="14" lengthAdjust="spacing" textLength="77" x="268.3986" y="25.5297">Presentation</text></g><g id="elem_GMN26812504"><path d="M437,114 L437,169.5 L417.31,173.5 L437,177.5 L437,233.2001 A0,0 0 0 0 437,233.2001 L667,233.2001 A0,0 0 0 0 667,233.2001 L667,124 L657,114 L437,114 A0,0 0 0 0 437,114 " fill="#FEFFDD" style="stroke:#181818;stroke-width:0.5;"/><path d="M657,114 L657,124 L667,124 L657,114 " fill="#FEFFDD" style="stroke:#181818;stroke-width:0.5;"/><text fill="#000000" font-family="sans-serif" font-size="13" lengthAdjust="spacing" textLength="187" x="443" y="132">When DomainObject implements</text><text fill="#000000" font-family="sans-serif" font-size="13" lengthAdjust="spacing" textLength="209" x="443" y="147.6">respective supporting methods itself (</text><ellipse cx="448.5" cy="158.3" fill="#000000" rx="2.5" ry="2.5" style="stroke:#000000;stroke-width:0.0;"/><text fill="#000000" font-family="sans-serif" font-size="13" lengthAdjust="spacing" textLength="33" x="455" y="163.2">title(),</text><ellipse cx="448.5" cy="173.9001" fill="#000000" rx="2.5" ry="2.5" style="stroke:#000000;stroke-width:0.0;"/><text fill="#000000" font-family="sans-serif" font-size="13" lengthAdjust="spacing" textLength="70" x="455" y="178.8001">iconName(),</text><ellipse cx="448.5" cy="189.5001" fill="#000000" rx="2.5" ry="2.5" style="stroke:#000000;stroke-width:0.0;"/><text fill="#000000" font-family="sans-serif" font-size="13" lengthAdjust="spacing" textLength="62" x="455" y="194.4001">cssClass(),</text><ellipse cx="448.5" cy="205.1001" fill="#000000" rx="2.5" ry="2.5" style="stroke:#000000;stroke-width:0.0;"/><text fill="#000000" font-family="sans-serif" font-size="13" lengthAdjust="spacing" textLength="50" x="455" y="210.0001">layout()),</text><text fill="#000000" font-family="sans-serif" font-size="13" lengthAdjust="spacing" textLength="155" x="443" y="225.6001">modification is not possible.</text></g><!--MD5=[d1eae5240a55dd7693df787515d81648]
reverse link EB to SPRING--><g id="link_EB_SPRING"><path d="M418.31,353 C439.48,353 465.18,353 486.27,353 " fill="none" id="EB-backto-SPRING" style="stroke:#181818;stroke-width:1.0;stroke-dasharray:7.0,7.0;"/><polygon fill="#181818" points="413.31,353,422.31,357,418.31,353,422.31,349,413.31,353" style="stroke:#181818;stroke-width:1.0;"/><text fill="#000000" font-family="sans-serif" font-size="13" lengthAdjust="spacing" textLength="51" x="424.25" y="331">provides/</text><text fill="#000000" font-family="sans-serif" font-size="13" lengthAdjust="spacing" textLength="52" x="423.75" y="346.6">manages</text></g><!--MD5=[ac395a5f0af45a9274ed645000c8d5e4]
link EL to EB--><g id="link_EL_EB"><path d="M371.89,200.69 C372.97,232.64 374.79,286.59 375.94,320.69 " fill="none" id="EL-to-EB" style="stroke:#181818;stroke-width:1.0;"/><polygon fill="#181818" points="376.12,325.99,379.8093,316.8582,375.9487,320.9929,371.814,317.1323,376.12,325.99" style="stroke:#181818;stroke-width:1.0;"/><text fill="#000000" font-family="sans-serif" font-size="13" lengthAdjust="spacing" textLength="50" x="399.5" y="277">listens to</text><text fill="#000000" font-family="sans-serif" font-size="13" lengthAdjust="spacing" textLength="95" x="380" y="292.6">(is subscribed to)</text></g><!--MD5=[bf93368643f63bec631408c5f416f802]
link UIE to EB--><g id="link_UIE_EB"><path d="M259.11,353 C282.1,353 311.94,353 335.85,353 " fill="none" id="UIE-to-EB" style="stroke:#181818;stroke-width:1.0;"/><polygon fill="#181818" points="340.85,353,331.85,349,335.85,353,331.85,357,340.85,353" style="stroke:#181818;stroke-width:1.0;"/><text fill="#000000" font-family="sans-serif" font-size="13" lengthAdjust="spacing" textLength="9" x="294" y="316">is</text><text fill="#000000" font-family="sans-serif" font-size="13" lengthAdjust="spacing" textLength="54" x="273" y="331.6">published</text><text fill="#000000" font-family="sans-serif" font-size="13" lengthAdjust="spacing" textLength="11" x="296" y="347.2">to</text></g><!--MD5=[22518f582da1805f85153ed4e5db2b3a]
reverse link UIE to TUIE--><g id="link_UIE_TUIE"><path d="M193.94,375.92 C161.92,400.08 110.81,438.64 79.44,462.3 " fill="none" id="UIE-backto-TUIE" style="stroke:#181818;stroke-width:1.0;"/><polygon fill="#181818" points="198.14,372.76,188.545,374.9819,194.1469,375.7691,193.3596,381.3709,198.14,372.76" style="stroke:#181818;stroke-width:1.0;"/><text fill="#000000" font-family="sans-serif" font-size="13" lengthAdjust="spacing" textLength="19" x="149" y="424">is a</text></g><!--MD5=[52ff9790534a8a85599632ccc74ed42d]
reverse link UIE to IUIE--><g id="link_UIE_IUIE"><path d="M209.49,383.53 C199.24,405.96 185.28,436.47 175.54,457.76 " fill="none" id="UIE-backto-IUIE" style="stroke:#181818;stroke-width:1.0;"/><polygon fill="#181818" points="211.62,378.87,204.2374,385.389,209.5392,383.4164,211.5117,388.7183,211.62,378.87" style="stroke:#181818;stroke-width:1.0;"/><text fill="#000000" font-family="sans-serif" font-size="13" lengthAdjust="spacing" textLength="19" x="199" y="424">is a</text></g><!--MD5=[d5aa250f5170024e0d6b0b03983e2b07]
reverse link UIE to CCUIE--><g id="link_UIE_CCUIE"><path d="M236.72,383.5 C247.08,405.77 261.16,436.04 271.06,457.32 " fill="none" id="UIE-backto-CCUIE" style="stroke:#181818;stroke-width:1.0;"/><polygon fill="#181818" points="234.57,378.87,234.7274,388.7176,236.6735,383.406,241.985,385.3521,234.57,378.87" style="stroke:#181818;stroke-width:1.0;"/><text fill="#000000" font-family="sans-serif" font-size="13" lengthAdjust="spacing" textLength="19" x="258" y="424">is a</text></g><!--MD5=[1c9c458e17097cd9de663310a3d77be6]
reverse link UIE to LUIE--><g id="link_UIE_LUIE"><path d="M253.05,375.66 C286.71,399.91 340.84,438.92 373.74,462.64 " fill="none" id="UIE-backto-LUIE" style="stroke:#181818;stroke-width:1.0;"/><polygon fill="#181818" points="248.65,372.48,253.6063,380.9909,252.7041,375.4064,258.2886,374.5042,248.65,372.48" style="stroke:#181818;stroke-width:1.0;"/><text fill="#000000" font-family="sans-serif" font-size="13" lengthAdjust="spacing" textLength="19" x="325" y="424">is a</text></g><!--MD5=[706f214c806c8835e30c5fe645838078]
link DO to UIE--><g id="link_DO_UIE"><path d="M250.28,200.69 C244.52,232.64 234.79,286.59 228.64,320.69 " fill="none" id="DO-to-UIE" style="stroke:#181818;stroke-width:1.0;"/><polygon fill="#181818" points="227.69,325.99,233.2188,317.8394,228.5744,321.0688,225.345,316.4244,227.69,325.99" style="stroke:#181818;stroke-width:1.0;"/><text fill="#000000" font-family="sans-serif" font-size="13" lengthAdjust="spacing" textLength="30" x="199.9585" y="220.9559">when</text><text fill="#000000" font-family="sans-serif" font-size="13" lengthAdjust="spacing" textLength="54" x="189.4585" y="236.556">rendered,</text><text fill="#000000" font-family="sans-serif" font-size="13" lengthAdjust="spacing" textLength="44" x="194.4585" y="252.156">leads to</text><text fill="#000000" font-family="sans-serif" font-size="13" lengthAdjust="spacing" textLength="50" x="191.4585" y="267.756">emission</text><text fill="#000000" font-family="sans-serif" font-size="13" lengthAdjust="spacing" textLength="11" x="210.9585" y="283.356">of</text></g><!--MD5=[a65288458555cbe3a52fc05d0bce6105]
reverse link PST to DO--><g id="link_PST_DO"><path d="M302.88,41.91 C293.03,68.78 275.22,117.35 264.32,147.09 " fill="none" id="PST-backto-DO" style="stroke:#181818;stroke-width:1.0;"/><polygon fill="#181818" points="304.63,37.16,297.7882,44.2445,302.9167,41.8573,305.3039,46.9858,304.63,37.16" style="stroke:#181818;stroke-width:1.0;"/><text fill="#000000" font-family="sans-serif" font-size="13" lengthAdjust="spacing" textLength="20" x="294" y="81">has</text></g><!--MD5=[da64892d008c425404a326a43e6271a9]
reverse link PST to EL--><g id="link_PST_EL"><path d="M317.89,41.91 C328.82,68.78 348.57,117.35 360.67,147.09 " fill="none" id="PST-backto-EL" style="stroke:#181818;stroke-width:1.0;"/><polygon fill="#181818" points="315.96,37.16,315.6513,47.004,317.8465,41.7905,323.06,43.9856,315.96,37.16" style="stroke:#181818;stroke-width:1.0;"/><text fill="#000000" font-family="sans-serif" font-size="13" lengthAdjust="spacing" textLength="62" x="335" y="81">can modify</text></g><!--MD5=[1ff95fec72ef19abe7d7abf31212d269]
@startuml
skinparam nodesep 20

(Event\nBus) as EB
(Spring) as SPRING
SPRING .l.> EB : provides/\nmanages
(Event\nListener) as EL
EL - -> EB : listens to \n (is subscribed to)

(UI\nEvent) as UIE
UIE -r-> EB : is \n published \n to

(Title\nUIEvent) as TUIE
TUIE -u-> UIE : is a
(Icon\nUIEvent) as IUIE
IUIE -u-> UIE : is a

(CssClass\nUIEvent) as CCUIE
CCUIE -u-> UIE : is a
(Layout\nUIEvent) as LUIE
LUIE -u-> UIE : is a


(Domain\nObject) as DO
DO "when \n rendered, \n leads to \n emission \nof"-d-> UIE

(Presentation) as PST
DO -u-> PST : has
EL -u-> PST : can modify
note right of EL
When DomainObject implements
respective supporting methods itself (
* title(),
* iconName(),
* cssClass(),
* layout()),
modification is not possible.
end note
@enduml

PlantUML version 1.2022.5(Sat Apr 30 10:55:52 GMT 2022)
(GPL source distribution)
Java Runtime: OpenJDK Runtime Environment
JVM: OpenJDK 64-Bit Server VM
Default Encoding: UTF-8
Language: en
Country: US
--></g></svg>