<?xml version="1.0" encoding="UTF-8" standalone="no"?><svg xmlns="http://www.w3.org/2000/svg" xmlns:xlink="http://www.w3.org/1999/xlink" contentScriptType="application/ecmascript" contentStyleType="text/css" height="694px" preserveAspectRatio="none" style="width:733px;height:694px;background:#FFFFFF;" version="1.1" viewBox="0 0 733 694" width="733px" zoomAndPan="magnify"><defs><filter height="300%" id="f1q9c7x0ueqiwj" width="300%" x="-1" y="-1"><feGaussianBlur result="blurOut" stdDeviation="2.0"/><feColorMatrix in="blurOut" result="blurOut2" type="matrix" values="0 0 0 0 0 0 0 0 0 0 0 0 0 0 0 0 0 0 .4 0"/><feOffset dx="4.0" dy="4.0" in="blurOut2" result="blurOut3"/><feBlend in="SourceGraphic" in2="blurOut3" mode="normal"/></filter></defs><g><!--MD5=[9334935552d4be9f1119fee87bd9c090]
cluster metamodel--><polygon fill="#FFFFFF" filter="url(#f1q9c7x0ueqiwj)" points="16,6,99,6,106,28.7999,550,28.7999,550,687,16,687,16,6" style="stroke:#000000;stroke-width:1.5;"/><line style="stroke:#000000;stroke-width:1.5;" x1="16" x2="106" y1="28.7999" y2="28.7999"/><text fill="#000000" font-family="sans-serif" font-size="14" font-weight="bold" lengthAdjust="spacing" textLength="77" x="20" y="21.9999">metamodel</text><!--MD5=[58f92eeca1b9b283e19d96b306260adc]
cluster runtime--><polygon fill="#FFFFFF" filter="url(#f1q9c7x0ueqiwj)" points="574,23.5,633,23.5,640,46.2999,716,46.2999,716,276,574,276,574,23.5" style="stroke:#000000;stroke-width:1.5;"/><line style="stroke:#000000;stroke-width:1.5;" x1="574" x2="640" y1="46.2999" y2="46.2999"/><text fill="#000000" font-family="sans-serif" font-size="14" font-weight="bold" lengthAdjust="spacing" textLength="53" x="578" y="39.4999">runtime</text><!--MD5=[9bd84f0cda9d158e3d4f78628a93cd60]
class Object\nSpecId--><rect codeLine="21" fill="#FFFFFF" filter="url(#f1q9c7x0ueqiwj)" height="74.4002" id="Object\nSpecId" style="stroke:#A80036;stroke-width:1.5;" width="69" x="302.5" y="41"/><ellipse cx="317.5" cy="67.6002" fill="#ADD1B2" rx="11" ry="11" style="stroke:#A80036;stroke-width:1.0;"/><path d="M316.8594,71.3814 Q317.6563,71.3814 318.2188,71.1939 Q318.7969,70.9908 319.0313,70.772 Q319.2813,70.5377 319.5156,70.3502 Q319.7656,70.147 319.9844,70.147 Q320.3281,70.147 320.5781,70.4127 Q320.8438,70.6627 320.8438,70.9908 Q320.8438,71.7252 319.6719,72.4127 Q318.5156,73.0845 316.8125,73.0845 Q314.6563,73.0845 313.2344,71.8189 Q311.8125,70.5533 311.8125,68.6158 L311.8125,67.4908 Q311.8125,65.4595 313.1406,64.0845 Q314.4688,62.6939 316.4375,62.6939 Q317.625,62.6939 318.8438,63.272 L319.0156,63.3502 Q319.3125,62.9439 319.7344,62.9439 Q320.2188,62.9439 320.3906,63.2408 Q320.5781,63.522 320.5781,64.0689 L320.5781,65.4908 Q320.5781,66.6158 319.7344,66.6158 Q319.4219,66.6158 319.2188,66.4439 Q319.0313,66.272 318.9844,66.1314 Q318.9531,65.9752 318.9063,65.7095 Q318.7969,65.1939 318.2813,64.8814 Q317.7656,64.5689 317.3125,64.4908 Q316.875,64.397 316.5,64.397 Q315.2188,64.397 314.3594,65.272 Q313.5156,66.147 313.5156,67.4908 L313.5156,68.5845 Q313.5156,69.8658 314.4219,70.6314 Q315.3281,71.3814 316.8594,71.3814 Z " fill="#000000"/><text fill="#000000" font-family="sans-serif" font-size="12" font-style="italic" lengthAdjust="spacing" textLength="39" x="330.5" y="58.0001">«value»</text><text fill="#000000" font-family="sans-serif" font-size="12" lengthAdjust="spacing" textLength="34" x="333" y="72.4002">Object</text><text fill="#000000" font-family="sans-serif" font-size="12" lengthAdjust="spacing" textLength="37" x="331.5" y="86.8003">SpecId</text><line style="stroke:#A80036;stroke-width:1.5;" x1="303.5" x2="370.5" y1="94.2003" y2="94.2003"/><ellipse cx="313.5" cy="105.2003" rx="3" ry="3" style="stroke:#038048;stroke-width:1.0;fill:none;"/><text fill="#000000" font-family="sans-serif" font-size="11" lengthAdjust="spacing" textLength="20" x="322.5" y="109.2002">type</text><!--MD5=[e7dba77a4199cef7594906a5928d38f6]
class Object\nSpecification--><rect codeLine="25" fill="#00FFFF" filter="url(#f1q9c7x0ueqiwj)" height="95.6001" id="Object\nSpecification" style="stroke:#A80036;stroke-width:1.5;" width="141" x="104.5" y="175"/><ellipse cx="138.4" cy="201.6002" fill="#ADD1B2" rx="11" ry="11" style="stroke:#A80036;stroke-width:1.0;"/><path d="M137.7594,205.3814 Q138.5563,205.3814 139.1188,205.1939 Q139.6969,204.9908 139.9313,204.772 Q140.1813,204.5377 140.4156,204.3502 Q140.6656,204.147 140.8844,204.147 Q141.2281,204.147 141.4781,204.4127 Q141.7438,204.6627 141.7438,204.9908 Q141.7438,205.7252 140.5719,206.4127 Q139.4156,207.0845 137.7125,207.0845 Q135.5563,207.0845 134.1344,205.8189 Q132.7125,204.5533 132.7125,202.6158 L132.7125,201.4908 Q132.7125,199.4595 134.0406,198.0845 Q135.3688,196.6939 137.3375,196.6939 Q138.525,196.6939 139.7438,197.272 L139.9156,197.3502 Q140.2125,196.9439 140.6344,196.9439 Q141.1188,196.9439 141.2906,197.2408 Q141.4781,197.522 141.4781,198.0689 L141.4781,199.4908 Q141.4781,200.6158 140.6344,200.6158 Q140.3219,200.6158 140.1188,200.4439 Q139.9313,200.272 139.8844,200.1314 Q139.8531,199.9752 139.8063,199.7095 Q139.6969,199.1939 139.1813,198.8814 Q138.6656,198.5689 138.2125,198.4908 Q137.775,198.397 137.4,198.397 Q136.1188,198.397 135.2594,199.272 Q134.4156,200.147 134.4156,201.4908 L134.4156,202.5845 Q134.4156,203.8658 135.3219,204.6314 Q136.2281,205.3814 137.7594,205.3814 Z " fill="#000000"/><text fill="#000000" font-family="sans-serif" font-size="12" font-style="italic" lengthAdjust="spacing" textLength="36" x="172.1" y="192.0001">«desc»</text><text fill="#000000" font-family="sans-serif" font-size="12" lengthAdjust="spacing" textLength="34" x="173.1" y="206.4002">Object</text><text fill="#000000" font-family="sans-serif" font-size="12" lengthAdjust="spacing" textLength="67" x="156.6" y="220.8003">Specification</text><line style="stroke:#A80036;stroke-width:1.5;" x1="105.5" x2="244.5" y1="228.2003" y2="228.2003"/><ellipse cx="115.5" cy="239.2003" rx="3" ry="3" style="stroke:#038048;stroke-width:1.0;fill:none;"/><text fill="#000000" font-family="sans-serif" font-size="11" lengthAdjust="spacing" textLength="64" x="124.5" y="243.2002">objectSpecId</text><line style="stroke:#A80036;stroke-width:1.0;stroke-dasharray:1.0,2.0;" x1="105.5" x2="244.5" y1="249.4002" y2="249.4002"/><rect fill="none" height="6" style="stroke:#C82930;stroke-width:1.0;" width="6" x="112.5" y="257.4002"/><text fill="#000000" font-family="sans-serif" font-size="11" lengthAdjust="spacing" textLength="115" x="124.5" y="264.4001">fullyQualifiedClassName</text><!--MD5=[1ca98e29750297c77ef424fb76881557]
class Object\nMember--><rect codeLine="31" fill="#00FFFF" filter="url(#f1q9c7x0ueqiwj)" height="53.2003" id="Object\nMember" style="stroke:#A80036;stroke-width:1.5;" width="75" x="149.5" y="392"/><ellipse cx="164.5" cy="418.6002" fill="#ADD1B2" rx="11" ry="11" style="stroke:#A80036;stroke-width:1.0;"/><path d="M163.8594,422.3814 Q164.6563,422.3814 165.2188,422.1939 Q165.7969,421.9908 166.0313,421.772 Q166.2813,421.5377 166.5156,421.3502 Q166.7656,421.147 166.9844,421.147 Q167.3281,421.147 167.5781,421.4127 Q167.8438,421.6627 167.8438,421.9908 Q167.8438,422.7252 166.6719,423.4127 Q165.5156,424.0845 163.8125,424.0845 Q161.6563,424.0845 160.2344,422.8189 Q158.8125,421.5533 158.8125,419.6158 L158.8125,418.4908 Q158.8125,416.4595 160.1406,415.0845 Q161.4688,413.6939 163.4375,413.6939 Q164.625,413.6939 165.8438,414.272 L166.0156,414.3502 Q166.3125,413.9439 166.7344,413.9439 Q167.2188,413.9439 167.3906,414.2408 Q167.5781,414.522 167.5781,415.0689 L167.5781,416.4908 Q167.5781,417.6158 166.7344,417.6158 Q166.4219,417.6158 166.2188,417.4439 Q166.0313,417.272 165.9844,417.1314 Q165.9531,416.9752 165.9063,416.7095 Q165.7969,416.1939 165.2813,415.8814 Q164.7656,415.5689 164.3125,415.4908 Q163.875,415.397 163.5,415.397 Q162.2188,415.397 161.3594,416.272 Q160.5156,417.147 160.5156,418.4908 L160.5156,419.5845 Q160.5156,420.8658 161.4219,421.6314 Q162.3281,422.3814 163.8594,422.3814 Z " fill="#000000"/><text fill="#000000" font-family="sans-serif" font-size="12" font-style="italic" lengthAdjust="spacing" textLength="36" x="182" y="409.0001">«desc»</text><text fill="#000000" font-family="sans-serif" font-size="12" lengthAdjust="spacing" textLength="34" x="183" y="423.4002">Object</text><text fill="#000000" font-family="sans-serif" font-size="12" lengthAdjust="spacing" textLength="43" x="178.5" y="437.8003">Member</text><!--MD5=[236dc35556468579b5ef30f394865326]
class Object\nAction--><rect codeLine="35" fill="#00FFFF" filter="url(#f1q9c7x0ueqiwj)" height="53.2003" id="Object\nAction" style="stroke:#A80036;stroke-width:1.5;" width="66" x="159" y="505"/><ellipse cx="174" cy="531.6002" fill="#ADD1B2" rx="11" ry="11" style="stroke:#A80036;stroke-width:1.0;"/><path d="M173.3594,535.3814 Q174.1563,535.3814 174.7188,535.1939 Q175.2969,534.9908 175.5313,534.772 Q175.7813,534.5377 176.0156,534.3502 Q176.2656,534.147 176.4844,534.147 Q176.8281,534.147 177.0781,534.4127 Q177.3438,534.6627 177.3438,534.9908 Q177.3438,535.7252 176.1719,536.4127 Q175.0156,537.0845 173.3125,537.0845 Q171.1563,537.0845 169.7344,535.8189 Q168.3125,534.5533 168.3125,532.6158 L168.3125,531.4908 Q168.3125,529.4595 169.6406,528.0845 Q170.9688,526.6939 172.9375,526.6939 Q174.125,526.6939 175.3438,527.272 L175.5156,527.3502 Q175.8125,526.9439 176.2344,526.9439 Q176.7188,526.9439 176.8906,527.2408 Q177.0781,527.522 177.0781,528.0689 L177.0781,529.4908 Q177.0781,530.6158 176.2344,530.6158 Q175.9219,530.6158 175.7188,530.4439 Q175.5313,530.272 175.4844,530.1314 Q175.4531,529.9752 175.4063,529.7095 Q175.2969,529.1939 174.7813,528.8814 Q174.2656,528.5689 173.8125,528.4908 Q173.375,528.397 173,528.397 Q171.7188,528.397 170.8594,529.272 Q170.0156,530.147 170.0156,531.4908 L170.0156,532.5845 Q170.0156,533.8658 170.9219,534.6314 Q171.8281,535.3814 173.3594,535.3814 Z " fill="#000000"/><text fill="#000000" font-family="sans-serif" font-size="12" font-style="italic" lengthAdjust="spacing" textLength="36" x="187" y="522.0001">«desc»</text><text fill="#000000" font-family="sans-serif" font-size="12" lengthAdjust="spacing" textLength="34" x="188" y="536.4002">Object</text><text fill="#000000" font-family="sans-serif" font-size="12" lengthAdjust="spacing" textLength="32" x="189" y="550.8003">Action</text><!--MD5=[cc44103bb19bcf3d3cadc52e845b3d92]
class Object\nAssociation--><rect codeLine="39" fill="#00FFFF" filter="url(#f1q9c7x0ueqiwj)" height="53.2003" id="Object\nAssociation" style="stroke:#A80036;stroke-width:1.5;" width="92" x="32" y="505"/><ellipse cx="47" cy="531.6002" fill="#ADD1B2" rx="11" ry="11" style="stroke:#A80036;stroke-width:1.0;"/><path d="M46.3594,535.3814 Q47.1563,535.3814 47.7188,535.1939 Q48.2969,534.9908 48.5313,534.772 Q48.7813,534.5377 49.0156,534.3502 Q49.2656,534.147 49.4844,534.147 Q49.8281,534.147 50.0781,534.4127 Q50.3438,534.6627 50.3438,534.9908 Q50.3438,535.7252 49.1719,536.4127 Q48.0156,537.0845 46.3125,537.0845 Q44.1563,537.0845 42.7344,535.8189 Q41.3125,534.5533 41.3125,532.6158 L41.3125,531.4908 Q41.3125,529.4595 42.6406,528.0845 Q43.9688,526.6939 45.9375,526.6939 Q47.125,526.6939 48.3438,527.272 L48.5156,527.3502 Q48.8125,526.9439 49.2344,526.9439 Q49.7188,526.9439 49.8906,527.2408 Q50.0781,527.522 50.0781,528.0689 L50.0781,529.4908 Q50.0781,530.6158 49.2344,530.6158 Q48.9219,530.6158 48.7188,530.4439 Q48.5313,530.272 48.4844,530.1314 Q48.4531,529.9752 48.4063,529.7095 Q48.2969,529.1939 47.7813,528.8814 Q47.2656,528.5689 46.8125,528.4908 Q46.375,528.397 46,528.397 Q44.7188,528.397 43.8594,529.272 Q43.0156,530.147 43.0156,531.4908 L43.0156,532.5845 Q43.0156,533.8658 43.9219,534.6314 Q44.8281,535.3814 46.3594,535.3814 Z " fill="#000000"/><text fill="#000000" font-family="sans-serif" font-size="12" font-style="italic" lengthAdjust="spacing" textLength="36" x="73" y="522.0001">«desc»</text><text fill="#000000" font-family="sans-serif" font-size="12" lengthAdjust="spacing" textLength="34" x="74" y="536.4002">Object</text><text fill="#000000" font-family="sans-serif" font-size="12" lengthAdjust="spacing" textLength="60" x="61" y="550.8003">Association</text><!--MD5=[ffd5e7ba3b20fcc13a678afb28e0866f]
class OneToOne\nAssociation--><rect codeLine="43" fill="#00FFFF" filter="url(#f1q9c7x0ueqiwj)" height="53.2003" id="OneToOne\nAssociation" style="stroke:#A80036;stroke-width:1.5;" width="92" x="32" y="618"/><ellipse cx="47" cy="644.6002" fill="#ADD1B2" rx="11" ry="11" style="stroke:#A80036;stroke-width:1.0;"/><path d="M46.3594,648.3814 Q47.1563,648.3814 47.7188,648.1939 Q48.2969,647.9908 48.5313,647.772 Q48.7813,647.5377 49.0156,647.3502 Q49.2656,647.147 49.4844,647.147 Q49.8281,647.147 50.0781,647.4127 Q50.3438,647.6627 50.3438,647.9908 Q50.3438,648.7252 49.1719,649.4127 Q48.0156,650.0845 46.3125,650.0845 Q44.1563,650.0845 42.7344,648.8189 Q41.3125,647.5533 41.3125,645.6158 L41.3125,644.4908 Q41.3125,642.4595 42.6406,641.0845 Q43.9688,639.6939 45.9375,639.6939 Q47.125,639.6939 48.3438,640.272 L48.5156,640.3502 Q48.8125,639.9439 49.2344,639.9439 Q49.7188,639.9439 49.8906,640.2408 Q50.0781,640.522 50.0781,641.0689 L50.0781,642.4908 Q50.0781,643.6158 49.2344,643.6158 Q48.9219,643.6158 48.7188,643.4439 Q48.5313,643.272 48.4844,643.1314 Q48.4531,642.9752 48.4063,642.7095 Q48.2969,642.1939 47.7813,641.8814 Q47.2656,641.5689 46.8125,641.4908 Q46.375,641.397 46,641.397 Q44.7188,641.397 43.8594,642.272 Q43.0156,643.147 43.0156,644.4908 L43.0156,645.5845 Q43.0156,646.8658 43.9219,647.6314 Q44.8281,648.3814 46.3594,648.3814 Z " fill="#000000"/><text fill="#000000" font-family="sans-serif" font-size="12" font-style="italic" lengthAdjust="spacing" textLength="36" x="73" y="635.0001">«desc»</text><text fill="#000000" font-family="sans-serif" font-size="12" lengthAdjust="spacing" textLength="56" x="63" y="649.4002">OneToOne</text><text fill="#000000" font-family="sans-serif" font-size="12" lengthAdjust="spacing" textLength="60" x="61" y="663.8003">Association</text><!--MD5=[3885f9b3a6a68b2317d3b38f329e94da]
class OneToMany\nAssociation--><rect codeLine="47" fill="#00FFFF" filter="url(#f1q9c7x0ueqiwj)" height="53.2003" id="OneToMany\nAssociation" style="stroke:#A80036;stroke-width:1.5;" width="96" x="159" y="618"/><ellipse cx="174" cy="644.6002" fill="#ADD1B2" rx="11" ry="11" style="stroke:#A80036;stroke-width:1.0;"/><path d="M173.3594,648.3814 Q174.1563,648.3814 174.7188,648.1939 Q175.2969,647.9908 175.5313,647.772 Q175.7813,647.5377 176.0156,647.3502 Q176.2656,647.147 176.4844,647.147 Q176.8281,647.147 177.0781,647.4127 Q177.3438,647.6627 177.3438,647.9908 Q177.3438,648.7252 176.1719,649.4127 Q175.0156,650.0845 173.3125,650.0845 Q171.1563,650.0845 169.7344,648.8189 Q168.3125,647.5533 168.3125,645.6158 L168.3125,644.4908 Q168.3125,642.4595 169.6406,641.0845 Q170.9688,639.6939 172.9375,639.6939 Q174.125,639.6939 175.3438,640.272 L175.5156,640.3502 Q175.8125,639.9439 176.2344,639.9439 Q176.7188,639.9439 176.8906,640.2408 Q177.0781,640.522 177.0781,641.0689 L177.0781,642.4908 Q177.0781,643.6158 176.2344,643.6158 Q175.9219,643.6158 175.7188,643.4439 Q175.5313,643.272 175.4844,643.1314 Q175.4531,642.9752 175.4063,642.7095 Q175.2969,642.1939 174.7813,641.8814 Q174.2656,641.5689 173.8125,641.4908 Q173.375,641.397 173,641.397 Q171.7188,641.397 170.8594,642.272 Q170.0156,643.147 170.0156,644.4908 L170.0156,645.5845 Q170.0156,646.8658 170.9219,647.6314 Q171.8281,648.3814 173.3594,648.3814 Z " fill="#000000"/><text fill="#000000" font-family="sans-serif" font-size="12" font-style="italic" lengthAdjust="spacing" textLength="36" x="202" y="635.0001">«desc»</text><text fill="#000000" font-family="sans-serif" font-size="12" lengthAdjust="spacing" textLength="64" x="188" y="649.4002">OneToMany</text><text fill="#000000" font-family="sans-serif" font-size="12" lengthAdjust="spacing" textLength="60" x="190" y="663.8003">Association</text><!--MD5=[3efd7acf70beb98497b74e1a8eca2471]
class FacetHolder--><rect codeLine="51" fill="#00FFFF" filter="url(#f1q9c7x0ueqiwj)" height="38.8002" id="FacetHolder" style="stroke:#A80036;stroke-width:1.5;" width="99" x="280.5" y="203.5"/><ellipse cx="295.5" cy="222.9001" fill="#B4A7E5" rx="11" ry="11" style="stroke:#A80036;stroke-width:1.0;"/><path d="M298.1719,226.197 Q298.7188,226.197 299,226.3845 Q299.2813,226.5564 299.2813,227.0564 Q299.2813,227.9001 298.1719,227.9001 L293.0313,227.9001 Q291.9063,227.9001 291.9063,227.0564 Q291.9063,226.5564 292.1875,226.3845 Q292.4844,226.197 293.0313,226.197 L294.75,226.197 L294.75,219.6814 L293.0313,219.6814 Q291.9063,219.6814 291.9063,218.8376 Q291.9063,218.3532 292.1875,218.1814 Q292.4844,217.9939 293.0313,217.9939 L298.1719,217.9939 Q298.7188,217.9939 299,218.1814 Q299.2813,218.3532 299.2813,218.8376 Q299.2813,219.6814 298.1719,219.6814 L296.4531,219.6814 L296.4531,226.197 L298.1719,226.197 Z " fill="#000000"/><text fill="#000000" font-family="sans-serif" font-size="12" font-style="italic" lengthAdjust="spacing" textLength="36" x="325" y="220.5001">«desc»</text><text fill="#000000" font-family="sans-serif" font-size="12" font-style="italic" lengthAdjust="spacing" textLength="67" x="309.5" y="234.9002">FacetHolder</text><!--MD5=[686c3c3db2e48a4996b4670260839994]
class Object\nActionParameter--><rect codeLine="54" fill="#00FFFF" filter="url(#f1q9c7x0ueqiwj)" height="53.2003" id="Object\nActionParameter" style="stroke:#A80036;stroke-width:1.5;" width="119" x="265.5" y="392"/><ellipse cx="280.5" cy="418.6002" fill="#ADD1B2" rx="11" ry="11" style="stroke:#A80036;stroke-width:1.0;"/><path d="M279.8594,422.3814 Q280.6563,422.3814 281.2188,422.1939 Q281.7969,421.9908 282.0313,421.772 Q282.2813,421.5377 282.5156,421.3502 Q282.7656,421.147 282.9844,421.147 Q283.3281,421.147 283.5781,421.4127 Q283.8438,421.6627 283.8438,421.9908 Q283.8438,422.7252 282.6719,423.4127 Q281.5156,424.0845 279.8125,424.0845 Q277.6563,424.0845 276.2344,422.8189 Q274.8125,421.5533 274.8125,419.6158 L274.8125,418.4908 Q274.8125,416.4595 276.1406,415.0845 Q277.4688,413.6939 279.4375,413.6939 Q280.625,413.6939 281.8438,414.272 L282.0156,414.3502 Q282.3125,413.9439 282.7344,413.9439 Q283.2188,413.9439 283.3906,414.2408 Q283.5781,414.522 283.5781,415.0689 L283.5781,416.4908 Q283.5781,417.6158 282.7344,417.6158 Q282.4219,417.6158 282.2188,417.4439 Q282.0313,417.272 281.9844,417.1314 Q281.9531,416.9752 281.9063,416.7095 Q281.7969,416.1939 281.2813,415.8814 Q280.7656,415.5689 280.3125,415.4908 Q279.875,415.397 279.5,415.397 Q278.2188,415.397 277.3594,416.272 Q276.5156,417.147 276.5156,418.4908 L276.5156,419.5845 Q276.5156,420.8658 277.4219,421.6314 Q278.3281,422.3814 279.8594,422.3814 Z " fill="#000000"/><text fill="#000000" font-family="sans-serif" font-size="12" font-style="italic" lengthAdjust="spacing" textLength="36" x="320" y="409.0001">«desc»</text><text fill="#000000" font-family="sans-serif" font-size="12" lengthAdjust="spacing" textLength="34" x="321" y="423.4002">Object</text><text fill="#000000" font-family="sans-serif" font-size="12" lengthAdjust="spacing" textLength="87" x="294.5" y="437.8003">ActionParameter</text><!--MD5=[873294963b1ef1e6f684c01f03f3e5c3]
class OneToOne\nActionParameter--><rect codeLine="57" fill="#00FFFF" filter="url(#f1q9c7x0ueqiwj)" height="53.2003" id="OneToOne\nActionParameter" style="stroke:#A80036;stroke-width:1.5;" width="119" x="260.5" y="505"/><ellipse cx="275.5" cy="531.6002" fill="#ADD1B2" rx="11" ry="11" style="stroke:#A80036;stroke-width:1.0;"/><path d="M274.8594,535.3814 Q275.6563,535.3814 276.2188,535.1939 Q276.7969,534.9908 277.0313,534.772 Q277.2813,534.5377 277.5156,534.3502 Q277.7656,534.147 277.9844,534.147 Q278.3281,534.147 278.5781,534.4127 Q278.8438,534.6627 278.8438,534.9908 Q278.8438,535.7252 277.6719,536.4127 Q276.5156,537.0845 274.8125,537.0845 Q272.6563,537.0845 271.2344,535.8189 Q269.8125,534.5533 269.8125,532.6158 L269.8125,531.4908 Q269.8125,529.4595 271.1406,528.0845 Q272.4688,526.6939 274.4375,526.6939 Q275.625,526.6939 276.8438,527.272 L277.0156,527.3502 Q277.3125,526.9439 277.7344,526.9439 Q278.2188,526.9439 278.3906,527.2408 Q278.5781,527.522 278.5781,528.0689 L278.5781,529.4908 Q278.5781,530.6158 277.7344,530.6158 Q277.4219,530.6158 277.2188,530.4439 Q277.0313,530.272 276.9844,530.1314 Q276.9531,529.9752 276.9063,529.7095 Q276.7969,529.1939 276.2813,528.8814 Q275.7656,528.5689 275.3125,528.4908 Q274.875,528.397 274.5,528.397 Q273.2188,528.397 272.3594,529.272 Q271.5156,530.147 271.5156,531.4908 L271.5156,532.5845 Q271.5156,533.8658 272.4219,534.6314 Q273.3281,535.3814 274.8594,535.3814 Z " fill="#000000"/><text fill="#000000" font-family="sans-serif" font-size="12" font-style="italic" lengthAdjust="spacing" textLength="36" x="315" y="522.0001">«desc»</text><text fill="#000000" font-family="sans-serif" font-size="12" lengthAdjust="spacing" textLength="56" x="305" y="536.4002">OneToOne</text><text fill="#000000" font-family="sans-serif" font-size="12" lengthAdjust="spacing" textLength="87" x="289.5" y="550.8003">ActionParameter</text><!--MD5=[badba6705019ea2f9274326cbe645d80]
class Facet--><rect codeLine="60" fill="#00FFFF" filter="url(#f1q9c7x0ueqiwj)" height="38.8002" id="Facet" style="stroke:#A80036;stroke-width:1.5;" width="64" x="415" y="203.5"/><ellipse cx="430" cy="222.9001" fill="#B4A7E5" rx="11" ry="11" style="stroke:#A80036;stroke-width:1.0;"/><path d="M432.6719,226.197 Q433.2188,226.197 433.5,226.3845 Q433.7813,226.5564 433.7813,227.0564 Q433.7813,227.9001 432.6719,227.9001 L427.5313,227.9001 Q426.4063,227.9001 426.4063,227.0564 Q426.4063,226.5564 426.6875,226.3845 Q426.9844,226.197 427.5313,226.197 L429.25,226.197 L429.25,219.6814 L427.5313,219.6814 Q426.4063,219.6814 426.4063,218.8376 Q426.4063,218.3532 426.6875,218.1814 Q426.9844,217.9939 427.5313,217.9939 L432.6719,217.9939 Q433.2188,217.9939 433.5,218.1814 Q433.7813,218.3532 433.7813,218.8376 Q433.7813,219.6814 432.6719,219.6814 L430.9531,219.6814 L430.9531,226.197 L432.6719,226.197 Z " fill="#000000"/><text fill="#000000" font-family="sans-serif" font-size="12" font-style="italic" lengthAdjust="spacing" textLength="36" x="442" y="220.5001">«desc»</text><text fill="#000000" font-family="sans-serif" font-size="12" font-style="italic" lengthAdjust="spacing" textLength="30" x="445" y="234.9002">Facet</text><!--MD5=[e4bd214989e251692ad5ab01beff51ac]
class OneToMany\nActionParameter--><rect codeLine="63" fill="#00FFFF" filter="url(#f1q9c7x0ueqiwj)" height="53.2003" id="OneToMany\nActionParameter" style="stroke:#A80036;stroke-width:1.5;" width="119" x="414.5" y="505"/><ellipse cx="429.5" cy="531.6002" fill="#ADD1B2" rx="11" ry="11" style="stroke:#A80036;stroke-width:1.0;"/><path d="M428.8594,535.3814 Q429.6563,535.3814 430.2188,535.1939 Q430.7969,534.9908 431.0313,534.772 Q431.2813,534.5377 431.5156,534.3502 Q431.7656,534.147 431.9844,534.147 Q432.3281,534.147 432.5781,534.4127 Q432.8438,534.6627 432.8438,534.9908 Q432.8438,535.7252 431.6719,536.4127 Q430.5156,537.0845 428.8125,537.0845 Q426.6563,537.0845 425.2344,535.8189 Q423.8125,534.5533 423.8125,532.6158 L423.8125,531.4908 Q423.8125,529.4595 425.1406,528.0845 Q426.4688,526.6939 428.4375,526.6939 Q429.625,526.6939 430.8438,527.272 L431.0156,527.3502 Q431.3125,526.9439 431.7344,526.9439 Q432.2188,526.9439 432.3906,527.2408 Q432.5781,527.522 432.5781,528.0689 L432.5781,529.4908 Q432.5781,530.6158 431.7344,530.6158 Q431.4219,530.6158 431.2188,530.4439 Q431.0313,530.272 430.9844,530.1314 Q430.9531,529.9752 430.9063,529.7095 Q430.7969,529.1939 430.2813,528.8814 Q429.7656,528.5689 429.3125,528.4908 Q428.875,528.397 428.5,528.397 Q427.2188,528.397 426.3594,529.272 Q425.5156,530.147 425.5156,531.4908 L425.5156,532.5845 Q425.5156,533.8658 426.4219,534.6314 Q427.3281,535.3814 428.8594,535.3814 Z " fill="#000000"/><text fill="#000000" font-family="sans-serif" font-size="12" font-style="italic" lengthAdjust="spacing" textLength="36" x="469" y="522.0001">«desc»</text><text fill="#000000" font-family="sans-serif" font-size="12" lengthAdjust="spacing" textLength="64" x="455" y="536.4002">OneToMany</text><text fill="#000000" font-family="sans-serif" font-size="12" lengthAdjust="spacing" textLength="87" x="443.5" y="550.8003">ActionParameter</text><!--MD5=[295831136e401ce982bf01b2da4cd370]
class Object\nAdapter--><rect codeLine="68" fill="#90EE90" filter="url(#f1q9c7x0ueqiwj)" height="74.4002" id="Object\nAdapter" style="stroke:#A80036;stroke-width:1.5;" width="110" x="590" y="186"/><ellipse cx="621.2" cy="212.6002" fill="#ADD1B2" rx="11" ry="11" style="stroke:#A80036;stroke-width:1.0;"/><path d="M620.5594,216.3814 Q621.3563,216.3814 621.9188,216.1939 Q622.4969,215.9908 622.7313,215.772 Q622.9813,215.5377 623.2156,215.3502 Q623.4656,215.147 623.6844,215.147 Q624.0281,215.147 624.2781,215.4127 Q624.5438,215.6627 624.5438,215.9908 Q624.5438,216.7252 623.3719,217.4127 Q622.2156,218.0845 620.5125,218.0845 Q618.3563,218.0845 616.9344,216.8189 Q615.5125,215.5533 615.5125,213.6158 L615.5125,212.4908 Q615.5125,210.4595 616.8406,209.0845 Q618.1688,207.6939 620.1375,207.6939 Q621.325,207.6939 622.5438,208.272 L622.7156,208.3502 Q623.0125,207.9439 623.4344,207.9439 Q623.9188,207.9439 624.0906,208.2408 Q624.2781,208.522 624.2781,209.0689 L624.2781,210.4908 Q624.2781,211.6158 623.4344,211.6158 Q623.1219,211.6158 622.9188,211.4439 Q622.7313,211.272 622.6844,211.1314 Q622.6531,210.9752 622.6063,210.7095 Q622.4969,210.1939 621.9813,209.8814 Q621.4656,209.5689 621.0125,209.4908 Q620.575,209.397 620.2,209.397 Q618.9188,209.397 618.0594,210.272 Q617.2156,211.147 617.2156,212.4908 L617.2156,213.5845 Q617.2156,214.8658 618.1219,215.6314 Q619.0281,216.3814 620.5594,216.3814 Z " fill="#000000"/><text fill="#000000" font-family="sans-serif" font-size="12" font-style="italic" lengthAdjust="spacing" textLength="27" x="646.3" y="203.0001">«ppt»</text><text fill="#000000" font-family="sans-serif" font-size="12" lengthAdjust="spacing" textLength="34" x="642.8" y="217.4002">Object</text><text fill="#000000" font-family="sans-serif" font-size="12" lengthAdjust="spacing" textLength="42" x="638.8" y="231.8003">Adapter</text><line style="stroke:#A80036;stroke-width:1.5;" x1="591" x2="699" y1="239.2003" y2="239.2003"/><ellipse cx="601" cy="250.2003" fill="#84BE84" rx="3" ry="3" style="stroke:#038048;stroke-width:1.0;"/><text fill="#000000" font-family="sans-serif" font-size="11" lengthAdjust="spacing" textLength="84" x="610" y="254.2002">getSpecification()</text><!--MD5=[e7f5c71d6a25cf33dcd8a1ca95ea4521]
class Oid--><rect codeLine="71" fill="#FFFFFF" filter="url(#f1q9c7x0ueqiwj)" height="38.8002" id="Oid" style="stroke:#A80036;stroke-width:1.5;" width="67" x="600.5" y="58.5"/><ellipse cx="615.5" cy="77.9001" fill="#ADD1B2" rx="11" ry="11" style="stroke:#A80036;stroke-width:1.0;"/><path d="M614.8594,81.6814 Q615.6563,81.6814 616.2188,81.4939 Q616.7969,81.2907 617.0313,81.072 Q617.2813,80.8376 617.5156,80.6501 Q617.7656,80.447 617.9844,80.447 Q618.3281,80.447 618.5781,80.7126 Q618.8438,80.9626 618.8438,81.2907 Q618.8438,82.0251 617.6719,82.7126 Q616.5156,83.3845 614.8125,83.3845 Q612.6563,83.3845 611.2344,82.1189 Q609.8125,80.8532 609.8125,78.9157 L609.8125,77.7907 Q609.8125,75.7595 611.1406,74.3845 Q612.4688,72.9939 614.4375,72.9939 Q615.625,72.9939 616.8438,73.572 L617.0156,73.6501 Q617.3125,73.2439 617.7344,73.2439 Q618.2188,73.2439 618.3906,73.5407 Q618.5781,73.822 618.5781,74.3689 L618.5781,75.7907 Q618.5781,76.9157 617.7344,76.9157 Q617.4219,76.9157 617.2188,76.7439 Q617.0313,76.572 616.9844,76.4314 Q616.9531,76.2751 616.9063,76.0095 Q616.7969,75.4939 616.2813,75.1814 Q615.7656,74.8689 615.3125,74.7907 Q614.875,74.697 614.5,74.697 Q613.2188,74.697 612.3594,75.572 Q611.5156,76.447 611.5156,77.7907 L611.5156,78.8845 Q611.5156,80.1657 612.4219,80.9314 Q613.3281,81.6814 614.8594,81.6814 Z " fill="#000000"/><text fill="#000000" font-family="sans-serif" font-size="12" font-style="italic" lengthAdjust="spacing" textLength="39" x="627.5" y="75.5001">«value»</text><text fill="#000000" font-family="sans-serif" font-size="12" lengthAdjust="spacing" textLength="19" x="637.5" y="89.9002">Oid</text><!--MD5=[8b3c5d30e37d4769ea7c3c6b1ba6613f]
reverse link Object\nSpecId to Object\nSpecification--><path codeLine="78" d="M298.41,113.07 C277.5,131.52 251.35,154.6 228.51,174.77 " fill="none" id="Object\nSpecId-backto-Object\nSpecification" style="stroke:#A80036;stroke-width:1.0;"/><polygon fill="#A80036" points="302.25,109.68,292.8546,112.6341,298.5004,112.9876,298.1468,118.6334,302.25,109.68" style="stroke:#A80036;stroke-width:1.0;"/><!--MD5=[ed7878ac517ae046682c90f495e7c07d]
link Object\nSpecification to Object\nMember--><path codeLine="79" d="M177.94,271.34 C180.17,307.3 183.17,355.71 185.09,386.77 " fill="none" id="Object\nSpecification-to-Object\nMember" style="stroke:#A80036;stroke-width:1.0;"/><polygon fill="#A80036" points="185.42,391.98,188.8722,382.756,185.1197,386.989,180.8867,383.2365,185.42,391.98" style="stroke:#A80036;stroke-width:1.0;"/><text fill="#000000" font-family="sans-serif" font-size="13" lengthAdjust="spacing" textLength="5" x="179.3745" y="381.3136">*</text><!--MD5=[2bdd6bc466205d5f314f0051faa7f01c]
reverse link Object\nMember to Object\nAssociation--><path codeLine="80" d="M147.61,459.61 C132.78,474.72 116.33,491.47 103.14,504.89 " fill="none" id="Object\nMember-backto-Object\nAssociation" style="stroke:#A80036;stroke-width:1.0;"/><polygon fill="none" points="142.71,454.61,161.72,445.24,152.7,464.42,142.71,454.61" style="stroke:#A80036;stroke-width:1.0;"/><!--MD5=[241503ab21274031e0e27ca51ddcf3f4]
reverse link Object\nMember to Object\nAction--><path codeLine="81" d="M189.07,465.34 C189.67,478.85 190.32,493.15 190.85,504.89 " fill="none" id="Object\nMember-backto-Object\nAction" style="stroke:#A80036;stroke-width:1.0;"/><polygon fill="none" points="182.07,465.54,188.16,445.24,196.05,464.91,182.07,465.54" style="stroke:#A80036;stroke-width:1.0;"/><!--MD5=[7b1dd17f101192166ad8ece1c1058fee]
reverse link Object\nAssociation to OneToOne\nAssociation--><path codeLine="82" d="M78,578.34 C78,591.85 78,606.15 78,617.89 " fill="none" id="Object\nAssociation-backto-OneToOne\nAssociation" style="stroke:#A80036;stroke-width:1.0;"/><polygon fill="none" points="71,578.24,78,558.24,85,578.24,71,578.24" style="stroke:#A80036;stroke-width:1.0;"/><!--MD5=[c4d38020f98201eb2fe41c2e8b25f5c7]
reverse link Object\nAssociation to OneToMany\nAssociation--><path codeLine="83" d="M123.25,571.44 C141.15,586.84 161.23,604.12 177.24,617.89 " fill="none" id="Object\nAssociation-backto-OneToMany\nAssociation" style="stroke:#A80036;stroke-width:1.0;"/><polygon fill="none" points="118.51,576.6,107.92,558.24,127.65,565.98,118.51,576.6" style="stroke:#A80036;stroke-width:1.0;"/><!--MD5=[fed48b2c8a9a486fb23584c154f1ec15]
reverse link Object\nActionParameter to OneToOne\nActionParameter--><path codeLine="84" d="M322.93,465.34 C322.33,478.85 321.68,493.15 321.15,504.89 " fill="none" id="Object\nActionParameter-backto-OneToOne\nActionParameter" style="stroke:#A80036;stroke-width:1.0;"/><polygon fill="none" points="315.95,464.91,323.84,445.24,329.93,465.54,315.95,464.91" style="stroke:#A80036;stroke-width:1.0;"/><!--MD5=[6af0f7e8de7c83f30bca28014b14a2cb]
reverse link Object\nActionParameter to OneToMany\nActionParameter--><path codeLine="85" d="M375.7,457.27 C396.76,472.96 420.67,490.77 439.63,504.89 " fill="none" id="Object\nActionParameter-backto-OneToMany\nActionParameter" style="stroke:#A80036;stroke-width:1.0;"/><polygon fill="none" points="371.41,462.81,359.56,445.24,379.78,451.58,371.41,462.81" style="stroke:#A80036;stroke-width:1.0;"/><!--MD5=[b2b29efb307806de1bba54f1e5dc2be6]
reverse link Object\nActionParameter to Object\nAction--><path codeLine="86" d="M290.31,448.46 C269.35,465.95 242.87,488.04 222.68,504.89 " fill="none" id="Object\nActionParameter-backto-Object\nAction" style="stroke:#A80036;stroke-width:1.0;"/><polygon fill="#A80036" points="294.15,445.24,284.6802,447.9461,290.3147,448.4479,289.8129,454.0825,294.15,445.24" style="stroke:#A80036;stroke-width:1.0;"/><text fill="#000000" font-family="sans-serif" font-size="13" lengthAdjust="spacing" textLength="5" x="281.4378" y="466.2042">*</text><!--MD5=[6386275b757e9a32ce38551d9fe44fc9]
link Object\nSpecification to FacetHolder--><path codeLine="88" d="M245.54,223 C250.41,223 255.28,223 260.15,223 " fill="none" id="Object\nSpecification-to-FacetHolder" style="stroke:#A80036;stroke-width:1.0;stroke-dasharray:7.0,7.0;"/><polygon fill="none" points="260.18,216,280.18,223,260.18,230,260.18,216" style="stroke:#A80036;stroke-width:1.0;"/><!--MD5=[7ed1b40c9d8e1ede63264d1d3150c096]
reverse link FacetHolder to Object\nMember--><path codeLine="89" d="M304.25,258.85 C276,297.07 231.33,357.52 206.06,391.71 " fill="none" id="FacetHolder-backto-Object\nMember" style="stroke:#A80036;stroke-width:1.0;stroke-dasharray:7.0,7.0;"/><polygon fill="none" points="298.77,254.48,316.29,242.55,310.03,262.8,298.77,254.48" style="stroke:#A80036;stroke-width:1.0;"/><!--MD5=[6d10f057513b3b6ea03cfbefdadc4b76]
reverse link FacetHolder to Object\nActionParameter--><path codeLine="90" d="M329,262.55 C328.01,300.88 326.52,358.6 325.67,391.71 " fill="none" id="FacetHolder-backto-Object\nActionParameter" style="stroke:#A80036;stroke-width:1.0;stroke-dasharray:7.0,7.0;"/><polygon fill="none" points="322.01,262.37,329.52,242.55,336,262.73,322.01,262.37" style="stroke:#A80036;stroke-width:1.0;"/><!--MD5=[78d434f5ba83524917ac2512edcf96ee]
link FacetHolder to Facet--><path codeLine="91" d="M379.82,223 C389.8,223 399.78,223 409.76,223 " fill="none" id="FacetHolder-to-Facet" style="stroke:#A80036;stroke-width:1.0;"/><polygon fill="#A80036" points="414.98,223,405.98,219,409.98,223,405.98,227,414.98,223" style="stroke:#A80036;stroke-width:1.0;"/><text fill="#000000" font-family="sans-serif" font-size="13" lengthAdjust="spacing" textLength="5" x="401.9973" y="219.3581">*</text><!--MD5=[c65fd9c027a949229ee33a1638947856]
reverse link Oid to Object\nAdapter--><path codeLine="94" d="M635.84,102.91 C637.58,125.59 640.23,159.98 642.23,185.98 " fill="none" id="Oid-backto-Object\nAdapter" style="stroke:#A80036;stroke-width:1.0;"/><polygon fill="#A80036" points="635.44,97.69,632.1197,106.9623,635.8115,102.6762,640.0976,106.368,635.44,97.69" style="stroke:#A80036;stroke-width:1.0;"/><!--MD5=[43126a164b30e63a2d12c938be1a2b0f]
link Oid to Object\nSpecId--><path codeLine="96" d="M600.42,78 C525.91,78 451.39,78 376.88,78 " fill="none" id="Oid-to-Object\nSpecId" style="stroke:#A80036;stroke-width:1.0;"/><polygon fill="#A80036" points="371.51,78,380.51,82,376.51,78,380.51,74,371.51,78" style="stroke:#A80036;stroke-width:1.0;"/><!--MD5=[5694d46f70e8e8f2bfd85939b8a17351]
@startuml
hide empty members

skinparam class {
    BackgroundColor<<desc>> Cyan
    BackgroundColor<<ppt>> LightGreen
    BackgroundColor<<mi>> LightPink
    BackgroundColor<<role>> LightYellow
    BackgroundColor<<strategy>> White
    BackgroundColor<<api>> White
    BackgroundColor<<spi>> White
    BackgroundColor<<internal>> LightGrey
    BackgroundColor<<value>> White

    BackgroundColor<<entity>> LightGreen
    BackgroundColor<<viewmodel>> LightPink
    BackgroundColor<<mixin>> LightYellow
}

package metamodel {

    class Object\nSpecId<<value>> {
        +type
    }

    class Object\nSpecification<<desc>> {
        +objectSpecId
        ....
        -fullyQualifiedClassName
    }

    class Object\nMember<<desc>> {

    }

    class Object\nAction<<desc>> {

    }

    class Object\nAssociation<<desc>> {

    }

    class OneToOne\nAssociation<<desc>> {

    }

    class OneToMany\nAssociation<<desc>> {

    }

    interface FacetHolder<<desc>> {
    }

    class Object\nActionParameter<<desc>> {
    }

    class OneToOne\nActionParameter<<desc>> {
    }

    interface Facet<<desc>> {
    }

    class OneToMany\nActionParameter<<desc>> {
    }
}

package runtime {
    class Object\nAdapter<<ppt>> {
        +getSpecification()
    }
    class Oid<<value>> {

    }
}



Object\nSpecification -up-> Object\nSpecId
Object\nSpecification -down-> "*" Object\nMember
Object\nMember ^-down- Object\nAssociation
Object\nMember ^-down- Object\nAction
Object\nAssociation ^-down- OneToOne\nAssociation
Object\nAssociation ^-down- OneToMany\nAssociation
Object\nActionParameter ^-down- OneToOne\nActionParameter
Object\nActionParameter ^-down- OneToMany\nActionParameter
Object\nAction -left-> "*" Object\nActionParameter

FacetHolder ^-.left- Object\nSpecification
FacetHolder ^-.down- Object\nMember
FacetHolder ^-.down- Object\nActionParameter
FacetHolder -right-> "*" Facet


Object\nAdapter  -up-> Oid

Oid -right-> Object\nSpecId
@enduml

PlantUML version 1.2021.8(Sat Jun 26 08:20:59 GMT 2021)
(GPL source distribution)
Java Runtime: OpenJDK Runtime Environment
JVM: OpenJDK 64-Bit Server VM
Default Encoding: UTF-8
Language: en
Country: US
--></g></svg>