<?xml version="1.0" encoding="UTF-8" standalone="no"?><svg xmlns="http://www.w3.org/2000/svg" xmlns:xlink="http://www.w3.org/1999/xlink" contentStyleType="text/css" height="713px" preserveAspectRatio="none" style="width:782px;height:713px;background:#FFFFFF;" version="1.1" viewBox="0 0 782 713" width="782px" zoomAndPan="magnify"><defs/><g><!--MD5=[9334935552d4be9f1119fee87bd9c090]
cluster metamodel--><g id="cluster_metamodel"><path d="M8.5,6 L86.5,6 A3.75,3.75 0 0 1 89,8.5 L96,28.7999 L582.5,28.7999 A2.5,2.5 0 0 1 585,31.2999 L585,703.5 A2.5,2.5 0 0 1 582.5,706 L8.5,706 A2.5,2.5 0 0 1 6,703.5 L6,8.5 A2.5,2.5 0 0 1 8.5,6 " style="stroke:#000000;stroke-width:1.5;fill:none;"/><line style="stroke:#000000;stroke-width:1.5;fill:none;" x1="6" x2="96" y1="28.7999" y2="28.7999"/><text fill="#000000" font-family="sans-serif" font-size="14" font-weight="bold" lengthAdjust="spacing" textLength="77" x="10" y="21.9999">metamodel</text></g><!--MD5=[58f92eeca1b9b283e19d96b306260adc]
cluster runtime--><g id="cluster_runtime"><path d="M611.5,18.5 L665.5,18.5 A3.75,3.75 0 0 1 668,21 L675,41.2999 L772.5,41.2999 A2.5,2.5 0 0 1 775,43.7999 L775,276 A2.5,2.5 0 0 1 772.5,278.5 L611.5,278.5 A2.5,2.5 0 0 1 609,276 L609,21 A2.5,2.5 0 0 1 611.5,18.5 " style="stroke:#000000;stroke-width:1.5;fill:none;"/><line style="stroke:#000000;stroke-width:1.5;fill:none;" x1="609" x2="675" y1="41.2999" y2="41.2999"/><text fill="#000000" font-family="sans-serif" font-size="14" font-weight="bold" lengthAdjust="spacing" textLength="53" x="613" y="34.4999">runtime</text></g><!--MD5=[ae1f2a881dfbd2e0487d7ef3d2909269]
class LogicalType--><g id="elem_LogicalType"><rect codeLine="21" fill="#FFFFFF" height="66" id="LogicalType" rx="2.5" ry="2.5" style="stroke:#181818;stroke-width:0.5;" width="107" x="295.5" y="41"/><ellipse cx="310.5" cy="61.6" fill="#ADD1B2" rx="11" ry="11" style="stroke:#181818;stroke-width:1.0;"/><path d="M309.8594,65.3813 Q310.6563,65.3813 311.2188,65.1938 Q311.7969,64.9906 312.0313,64.7719 Q312.2813,64.5375 312.5156,64.35 Q312.7656,64.1469 312.9844,64.1469 Q313.3281,64.1469 313.5781,64.4125 Q313.8438,64.6625 313.8438,64.9906 Q313.8438,65.725 312.6719,66.4125 Q311.5156,67.0844 309.8125,67.0844 Q307.6563,67.0844 306.2344,65.8188 Q304.8125,64.5531 304.8125,62.6156 L304.8125,61.4906 Q304.8125,59.4594 306.1406,58.0844 Q307.4688,56.6938 309.4375,56.6938 Q310.625,56.6938 311.8438,57.2719 L312.0156,57.35 Q312.3125,56.9438 312.7344,56.9438 Q313.2188,56.9438 313.3906,57.2406 Q313.5781,57.5219 313.5781,58.0688 L313.5781,59.4906 Q313.5781,60.6156 312.7344,60.6156 Q312.4219,60.6156 312.2188,60.4438 Q312.0313,60.2719 311.9844,60.1313 Q311.9531,59.975 311.9063,59.7094 Q311.7969,59.1938 311.2813,58.8813 Q310.7656,58.5688 310.3125,58.4906 Q309.875,58.3969 309.5,58.3969 Q308.2188,58.3969 307.3594,59.2719 Q306.5156,60.1469 306.5156,61.4906 L306.5156,62.5844 Q306.5156,63.8656 307.4219,64.6313 Q308.3281,65.3813 309.8594,65.3813 Z " fill="#000000"/><text fill="#000000" font-family="sans-serif" font-size="12" font-style="italic" lengthAdjust="spacing" textLength="39" x="342.5" y="58.0001">«value»</text><text fill="#000000" font-family="sans-serif" font-size="14" lengthAdjust="spacing" textLength="75" x="324.5" y="74.4">LogicalType</text><line style="stroke:#181818;stroke-width:0.5;" x1="296.5" x2="401.5" y1="82.2" y2="82.2"/><ellipse cx="306.5" cy="93.2" fill="none" rx="3" ry="3" style="stroke:#038048;stroke-width:1.0;"/><text fill="#000000" font-family="sans-serif" font-size="14" lengthAdjust="spacing" textLength="26" x="315.5" y="100.2">type</text></g><!--MD5=[e7dba77a4199cef7594906a5928d38f6]
class Object\nSpecification--><g id="elem_Object\nSpecification"><rect codeLine="25" fill="#00FFFF" height="107.5998" id="Object\nSpecification" rx="2.5" ry="2.5" style="stroke:#181818;stroke-width:0.5;" width="177" x="94.5" y="167"/><ellipse cx="139.75" cy="196" fill="#ADD1B2" rx="11" ry="11" style="stroke:#181818;stroke-width:1.0;"/><path d="M139.1094,199.7812 Q139.9063,199.7812 140.4688,199.5937 Q141.0469,199.3906 141.2813,199.1719 Q141.5313,198.9375 141.7656,198.75 Q142.0156,198.5469 142.2344,198.5469 Q142.5781,198.5469 142.8281,198.8125 Q143.0938,199.0625 143.0938,199.3906 Q143.0938,200.125 141.9219,200.8125 Q140.7656,201.4844 139.0625,201.4844 Q136.9063,201.4844 135.4844,200.2187 Q134.0625,198.9531 134.0625,197.0156 L134.0625,195.8906 Q134.0625,193.8594 135.3906,192.4844 Q136.7188,191.0937 138.6875,191.0937 Q139.875,191.0937 141.0938,191.6719 L141.2656,191.75 Q141.5625,191.3437 141.9844,191.3437 Q142.4688,191.3437 142.6406,191.6406 Q142.8281,191.9219 142.8281,192.4687 L142.8281,193.8906 Q142.8281,195.0156 141.9844,195.0156 Q141.6719,195.0156 141.4688,194.8437 Q141.2813,194.6719 141.2344,194.5312 Q141.2031,194.375 141.1563,194.1094 Q141.0469,193.5937 140.5313,193.2812 Q140.0156,192.9687 139.5625,192.8906 Q139.125,192.7969 138.75,192.7969 Q137.4688,192.7969 136.6094,193.6719 Q135.7656,194.5469 135.7656,195.8906 L135.7656,196.9844 Q135.7656,198.2656 136.6719,199.0312 Q137.5781,199.7812 139.1094,199.7812 Z " fill="#000000"/><text fill="#000000" font-family="sans-serif" font-size="12" font-style="italic" lengthAdjust="spacing" textLength="36" x="181.25" y="184.0001">«desc»</text><text fill="#000000" font-family="sans-serif" font-size="14" lengthAdjust="spacing" textLength="40" x="179.25" y="200.4">Object</text><text fill="#000000" font-family="sans-serif" font-size="14" lengthAdjust="spacing" textLength="78" x="160.25" y="217.2">Specification</text><line style="stroke:#181818;stroke-width:0.5;" x1="95.5" x2="270.5" y1="225" y2="225"/><ellipse cx="105.5" cy="236" fill="none" rx="3" ry="3" style="stroke:#038048;stroke-width:1.0;"/><text fill="#000000" font-family="sans-serif" font-size="14" lengthAdjust="spacing" textLength="79" x="114.5" y="242.9999">objectSpecId</text><line style="stroke:#181818;stroke-width:1.0;stroke-dasharray:1.0,2.0;" x1="95.5" x2="270.5" y1="249.7999" y2="249.7999"/><rect fill="none" height="6" style="stroke:#C82930;stroke-width:1.0;" width="6" x="102.5" y="257.7999"/><text fill="#000000" font-family="sans-serif" font-size="14" lengthAdjust="spacing" textLength="151" x="114.5" y="267.7998">fullyQualifiedClassName</text></g><!--MD5=[1ca98e29750297c77ef424fb76881557]
class Object\nMember--><g id="elem_Object\nMember"><rect codeLine="31" fill="#00FFFF" height="58" id="Object\nMember" rx="2.5" ry="2.5" style="stroke:#181818;stroke-width:0.5;" width="82" x="147" y="396"/><ellipse cx="162" cy="425" fill="#ADD1B2" rx="11" ry="11" style="stroke:#181818;stroke-width:1.0;"/><path d="M161.3594,428.7812 Q162.1563,428.7812 162.7188,428.5937 Q163.2969,428.3906 163.5313,428.1719 Q163.7813,427.9375 164.0156,427.75 Q164.2656,427.5469 164.4844,427.5469 Q164.8281,427.5469 165.0781,427.8125 Q165.3438,428.0625 165.3438,428.3906 Q165.3438,429.125 164.1719,429.8125 Q163.0156,430.4844 161.3125,430.4844 Q159.1563,430.4844 157.7344,429.2187 Q156.3125,427.9531 156.3125,426.0156 L156.3125,424.8906 Q156.3125,422.8594 157.6406,421.4844 Q158.9688,420.0937 160.9375,420.0937 Q162.125,420.0937 163.3438,420.6719 L163.5156,420.75 Q163.8125,420.3437 164.2344,420.3437 Q164.7188,420.3437 164.8906,420.6406 Q165.0781,420.9219 165.0781,421.4687 L165.0781,422.8906 Q165.0781,424.0156 164.2344,424.0156 Q163.9219,424.0156 163.7188,423.8437 Q163.5313,423.6719 163.4844,423.5312 Q163.4531,423.375 163.4063,423.1094 Q163.2969,422.5937 162.7813,422.2812 Q162.2656,421.9687 161.8125,421.8906 Q161.375,421.7969 161,421.7969 Q159.7188,421.7969 158.8594,422.6719 Q158.0156,423.5469 158.0156,424.8906 L158.0156,425.9844 Q158.0156,427.2656 158.9219,428.0312 Q159.8281,428.7812 161.3594,428.7812 Z " fill="#000000"/><text fill="#000000" font-family="sans-serif" font-size="12" font-style="italic" lengthAdjust="spacing" textLength="36" x="183" y="413.0001">«desc»</text><text fill="#000000" font-family="sans-serif" font-size="14" lengthAdjust="spacing" textLength="40" x="181" y="429.4">Object</text><text fill="#000000" font-family="sans-serif" font-size="14" lengthAdjust="spacing" textLength="50" x="176" y="446.2">Member</text></g><!--MD5=[236dc35556468579b5ef30f394865326]
class Object\nAction--><g id="elem_Object\nAction"><rect codeLine="35" fill="#00FFFF" height="58" id="Object\nAction" rx="2.5" ry="2.5" style="stroke:#181818;stroke-width:0.5;" width="72" x="159" y="514"/><ellipse cx="174" cy="543" fill="#ADD1B2" rx="11" ry="11" style="stroke:#181818;stroke-width:1.0;"/><path d="M173.3594,546.7812 Q174.1563,546.7812 174.7188,546.5937 Q175.2969,546.3906 175.5313,546.1719 Q175.7813,545.9375 176.0156,545.75 Q176.2656,545.5469 176.4844,545.5469 Q176.8281,545.5469 177.0781,545.8125 Q177.3438,546.0625 177.3438,546.3906 Q177.3438,547.125 176.1719,547.8125 Q175.0156,548.4844 173.3125,548.4844 Q171.1563,548.4844 169.7344,547.2187 Q168.3125,545.9531 168.3125,544.0156 L168.3125,542.8906 Q168.3125,540.8594 169.6406,539.4844 Q170.9688,538.0937 172.9375,538.0937 Q174.125,538.0937 175.3438,538.6719 L175.5156,538.75 Q175.8125,538.3437 176.2344,538.3437 Q176.7188,538.3437 176.8906,538.6406 Q177.0781,538.9219 177.0781,539.4687 L177.0781,540.8906 Q177.0781,542.0156 176.2344,542.0156 Q175.9219,542.0156 175.7188,541.8437 Q175.5313,541.6719 175.4844,541.5312 Q175.4531,541.375 175.4063,541.1094 Q175.2969,540.5937 174.7813,540.2812 Q174.2656,539.9687 173.8125,539.8906 Q173.375,539.7969 173,539.7969 Q171.7188,539.7969 170.8594,540.6719 Q170.0156,541.5469 170.0156,542.8906 L170.0156,543.9844 Q170.0156,545.2656 170.9219,546.0312 Q171.8281,546.7812 173.3594,546.7812 Z " fill="#000000"/><text fill="#000000" font-family="sans-serif" font-size="12" font-style="italic" lengthAdjust="spacing" textLength="36" x="190" y="531.0001">«desc»</text><text fill="#000000" font-family="sans-serif" font-size="14" lengthAdjust="spacing" textLength="40" x="188" y="547.4">Object</text><text fill="#000000" font-family="sans-serif" font-size="14" lengthAdjust="spacing" textLength="38" x="189" y="564.2">Action</text></g><!--MD5=[cc44103bb19bcf3d3cadc52e845b3d92]
class Object\nAssociation--><g id="elem_Object\nAssociation"><rect codeLine="39" fill="#00FFFF" height="58" id="Object\nAssociation" rx="2.5" ry="2.5" style="stroke:#181818;stroke-width:0.5;" width="102" x="22" y="514"/><ellipse cx="37" cy="543" fill="#ADD1B2" rx="11" ry="11" style="stroke:#181818;stroke-width:1.0;"/><path d="M36.3594,546.7812 Q37.1563,546.7812 37.7188,546.5937 Q38.2969,546.3906 38.5313,546.1719 Q38.7813,545.9375 39.0156,545.75 Q39.2656,545.5469 39.4844,545.5469 Q39.8281,545.5469 40.0781,545.8125 Q40.3438,546.0625 40.3438,546.3906 Q40.3438,547.125 39.1719,547.8125 Q38.0156,548.4844 36.3125,548.4844 Q34.1563,548.4844 32.7344,547.2187 Q31.3125,545.9531 31.3125,544.0156 L31.3125,542.8906 Q31.3125,540.8594 32.6406,539.4844 Q33.9688,538.0937 35.9375,538.0937 Q37.125,538.0937 38.3438,538.6719 L38.5156,538.75 Q38.8125,538.3437 39.2344,538.3437 Q39.7188,538.3437 39.8906,538.6406 Q40.0781,538.9219 40.0781,539.4687 L40.0781,540.8906 Q40.0781,542.0156 39.2344,542.0156 Q38.9219,542.0156 38.7188,541.8437 Q38.5313,541.6719 38.4844,541.5312 Q38.4531,541.375 38.4063,541.1094 Q38.2969,540.5937 37.7813,540.2812 Q37.2656,539.9687 36.8125,539.8906 Q36.375,539.7969 36,539.7969 Q34.7188,539.7969 33.8594,540.6719 Q33.0156,541.5469 33.0156,542.8906 L33.0156,543.9844 Q33.0156,545.2656 33.9219,546.0312 Q34.8281,546.7812 36.3594,546.7812 Z " fill="#000000"/><text fill="#000000" font-family="sans-serif" font-size="12" font-style="italic" lengthAdjust="spacing" textLength="36" x="68" y="531.0001">«desc»</text><text fill="#000000" font-family="sans-serif" font-size="14" lengthAdjust="spacing" textLength="40" x="66" y="547.4">Object</text><text fill="#000000" font-family="sans-serif" font-size="14" lengthAdjust="spacing" textLength="70" x="51" y="564.2">Association</text></g><!--MD5=[ffd5e7ba3b20fcc13a678afb28e0866f]
class OneToOne\nAssociation--><g id="elem_OneToOne\nAssociation"><rect codeLine="43" fill="#00FFFF" height="58" id="OneToOne\nAssociation" rx="2.5" ry="2.5" style="stroke:#181818;stroke-width:0.5;" width="102" x="22" y="632"/><ellipse cx="37" cy="661" fill="#ADD1B2" rx="11" ry="11" style="stroke:#181818;stroke-width:1.0;"/><path d="M36.3594,664.7812 Q37.1563,664.7812 37.7188,664.5937 Q38.2969,664.3906 38.5313,664.1719 Q38.7813,663.9375 39.0156,663.75 Q39.2656,663.5469 39.4844,663.5469 Q39.8281,663.5469 40.0781,663.8125 Q40.3438,664.0625 40.3438,664.3906 Q40.3438,665.125 39.1719,665.8125 Q38.0156,666.4844 36.3125,666.4844 Q34.1563,666.4844 32.7344,665.2187 Q31.3125,663.9531 31.3125,662.0156 L31.3125,660.8906 Q31.3125,658.8594 32.6406,657.4844 Q33.9688,656.0937 35.9375,656.0937 Q37.125,656.0937 38.3438,656.6719 L38.5156,656.75 Q38.8125,656.3437 39.2344,656.3437 Q39.7188,656.3437 39.8906,656.6406 Q40.0781,656.9219 40.0781,657.4687 L40.0781,658.8906 Q40.0781,660.0156 39.2344,660.0156 Q38.9219,660.0156 38.7188,659.8437 Q38.5313,659.6719 38.4844,659.5312 Q38.4531,659.375 38.4063,659.1094 Q38.2969,658.5937 37.7813,658.2812 Q37.2656,657.9687 36.8125,657.8906 Q36.375,657.7969 36,657.7969 Q34.7188,657.7969 33.8594,658.6719 Q33.0156,659.5469 33.0156,660.8906 L33.0156,661.9844 Q33.0156,663.2656 33.9219,664.0312 Q34.8281,664.7812 36.3594,664.7812 Z " fill="#000000"/><text fill="#000000" font-family="sans-serif" font-size="12" font-style="italic" lengthAdjust="spacing" textLength="36" x="68" y="649.0001">«desc»</text><text fill="#000000" font-family="sans-serif" font-size="14" lengthAdjust="spacing" textLength="68" x="52" y="665.4">OneToOne</text><text fill="#000000" font-family="sans-serif" font-size="14" lengthAdjust="spacing" textLength="70" x="51" y="682.2">Association</text></g><!--MD5=[3885f9b3a6a68b2317d3b38f329e94da]
class OneToMany\nAssociation--><g id="elem_OneToMany\nAssociation"><rect codeLine="47" fill="#00FFFF" height="58" id="OneToMany\nAssociation" rx="2.5" ry="2.5" style="stroke:#181818;stroke-width:0.5;" width="109" x="159.5" y="632"/><ellipse cx="174.5" cy="661" fill="#ADD1B2" rx="11" ry="11" style="stroke:#181818;stroke-width:1.0;"/><path d="M173.8594,664.7812 Q174.6563,664.7812 175.2188,664.5937 Q175.7969,664.3906 176.0313,664.1719 Q176.2813,663.9375 176.5156,663.75 Q176.7656,663.5469 176.9844,663.5469 Q177.3281,663.5469 177.5781,663.8125 Q177.8438,664.0625 177.8438,664.3906 Q177.8438,665.125 176.6719,665.8125 Q175.5156,666.4844 173.8125,666.4844 Q171.6563,666.4844 170.2344,665.2187 Q168.8125,663.9531 168.8125,662.0156 L168.8125,660.8906 Q168.8125,658.8594 170.1406,657.4844 Q171.4688,656.0937 173.4375,656.0937 Q174.625,656.0937 175.8438,656.6719 L176.0156,656.75 Q176.3125,656.3437 176.7344,656.3437 Q177.2188,656.3437 177.3906,656.6406 Q177.5781,656.9219 177.5781,657.4687 L177.5781,658.8906 Q177.5781,660.0156 176.7344,660.0156 Q176.4219,660.0156 176.2188,659.8437 Q176.0313,659.6719 175.9844,659.5312 Q175.9531,659.375 175.9063,659.1094 Q175.7969,658.5937 175.2813,658.2812 Q174.7656,657.9687 174.3125,657.8906 Q173.875,657.7969 173.5,657.7969 Q172.2188,657.7969 171.3594,658.6719 Q170.5156,659.5469 170.5156,660.8906 L170.5156,661.9844 Q170.5156,663.2656 171.4219,664.0312 Q172.3281,664.7812 173.8594,664.7812 Z " fill="#000000"/><text fill="#000000" font-family="sans-serif" font-size="12" font-style="italic" lengthAdjust="spacing" textLength="36" x="209" y="649.0001">«desc»</text><text fill="#000000" font-family="sans-serif" font-size="14" lengthAdjust="spacing" textLength="77" x="188.5" y="665.4">OneToMany</text><text fill="#000000" font-family="sans-serif" font-size="14" lengthAdjust="spacing" textLength="70" x="192" y="682.2">Association</text></g><!--MD5=[3efd7acf70beb98497b74e1a8eca2471]
class FacetHolder--><g id="elem_FacetHolder"><rect codeLine="51" fill="#00FFFF" height="41.2" id="FacetHolder" rx="2.5" ry="2.5" style="stroke:#181818;stroke-width:0.5;" width="109" x="306.5" y="200.5"/><ellipse cx="321.5" cy="221.1" fill="#B4A7E5" rx="11" ry="11" style="stroke:#181818;stroke-width:1.0;"/><path d="M324.1719,224.3969 Q324.7188,224.3969 325,224.5844 Q325.2813,224.7563 325.2813,225.2563 Q325.2813,226.1 324.1719,226.1 L319.0313,226.1 Q317.9063,226.1 317.9063,225.2563 Q317.9063,224.7563 318.1875,224.5844 Q318.4844,224.3969 319.0313,224.3969 L320.75,224.3969 L320.75,217.8813 L319.0313,217.8813 Q317.9063,217.8813 317.9063,217.0375 Q317.9063,216.5531 318.1875,216.3813 Q318.4844,216.1938 319.0313,216.1938 L324.1719,216.1938 Q324.7188,216.1938 325,216.3813 Q325.2813,216.5531 325.2813,217.0375 Q325.2813,217.8813 324.1719,217.8813 L322.4531,217.8813 L322.4531,224.3969 L324.1719,224.3969 Z " fill="#000000"/><text fill="#000000" font-family="sans-serif" font-size="12" font-style="italic" lengthAdjust="spacing" textLength="36" x="356" y="217.5001">«desc»</text><text fill="#000000" font-family="sans-serif" font-size="14" font-style="italic" lengthAdjust="spacing" textLength="77" x="335.5" y="233.9">FacetHolder</text></g><!--MD5=[686c3c3db2e48a4996b4670260839994]
class Object\nActionParameter--><g id="elem_Object\nActionParameter"><rect codeLine="54" fill="#00FFFF" height="58" id="Object\nActionParameter" rx="2.5" ry="2.5" style="stroke:#181818;stroke-width:0.5;" width="134" x="273" y="396"/><ellipse cx="288" cy="425" fill="#ADD1B2" rx="11" ry="11" style="stroke:#181818;stroke-width:1.0;"/><path d="M287.3594,428.7812 Q288.1563,428.7812 288.7188,428.5937 Q289.2969,428.3906 289.5313,428.1719 Q289.7813,427.9375 290.0156,427.75 Q290.2656,427.5469 290.4844,427.5469 Q290.8281,427.5469 291.0781,427.8125 Q291.3438,428.0625 291.3438,428.3906 Q291.3438,429.125 290.1719,429.8125 Q289.0156,430.4844 287.3125,430.4844 Q285.1563,430.4844 283.7344,429.2187 Q282.3125,427.9531 282.3125,426.0156 L282.3125,424.8906 Q282.3125,422.8594 283.6406,421.4844 Q284.9688,420.0937 286.9375,420.0937 Q288.125,420.0937 289.3438,420.6719 L289.5156,420.75 Q289.8125,420.3437 290.2344,420.3437 Q290.7188,420.3437 290.8906,420.6406 Q291.0781,420.9219 291.0781,421.4687 L291.0781,422.8906 Q291.0781,424.0156 290.2344,424.0156 Q289.9219,424.0156 289.7188,423.8437 Q289.5313,423.6719 289.4844,423.5312 Q289.4531,423.375 289.4063,423.1094 Q289.2969,422.5937 288.7813,422.2812 Q288.2656,421.9687 287.8125,421.8906 Q287.375,421.7969 287,421.7969 Q285.7188,421.7969 284.8594,422.6719 Q284.0156,423.5469 284.0156,424.8906 L284.0156,425.9844 Q284.0156,427.2656 284.9219,428.0312 Q285.8281,428.7812 287.3594,428.7812 Z " fill="#000000"/><text fill="#000000" font-family="sans-serif" font-size="12" font-style="italic" lengthAdjust="spacing" textLength="36" x="335" y="413.0001">«desc»</text><text fill="#000000" font-family="sans-serif" font-size="14" lengthAdjust="spacing" textLength="40" x="333" y="429.4">Object</text><text fill="#000000" font-family="sans-serif" font-size="14" lengthAdjust="spacing" textLength="102" x="302" y="446.2">ActionParameter</text></g><!--MD5=[873294963b1ef1e6f684c01f03f3e5c3]
class OneToOne\nActionParameter--><g id="elem_OneToOne\nActionParameter"><rect codeLine="57" fill="#00FFFF" height="58" id="OneToOne\nActionParameter" rx="2.5" ry="2.5" style="stroke:#181818;stroke-width:0.5;" width="134" x="266" y="514"/><ellipse cx="281" cy="543" fill="#ADD1B2" rx="11" ry="11" style="stroke:#181818;stroke-width:1.0;"/><path d="M280.3594,546.7812 Q281.1563,546.7812 281.7188,546.5937 Q282.2969,546.3906 282.5313,546.1719 Q282.7813,545.9375 283.0156,545.75 Q283.2656,545.5469 283.4844,545.5469 Q283.8281,545.5469 284.0781,545.8125 Q284.3438,546.0625 284.3438,546.3906 Q284.3438,547.125 283.1719,547.8125 Q282.0156,548.4844 280.3125,548.4844 Q278.1563,548.4844 276.7344,547.2187 Q275.3125,545.9531 275.3125,544.0156 L275.3125,542.8906 Q275.3125,540.8594 276.6406,539.4844 Q277.9688,538.0937 279.9375,538.0937 Q281.125,538.0937 282.3438,538.6719 L282.5156,538.75 Q282.8125,538.3437 283.2344,538.3437 Q283.7188,538.3437 283.8906,538.6406 Q284.0781,538.9219 284.0781,539.4687 L284.0781,540.8906 Q284.0781,542.0156 283.2344,542.0156 Q282.9219,542.0156 282.7188,541.8437 Q282.5313,541.6719 282.4844,541.5312 Q282.4531,541.375 282.4063,541.1094 Q282.2969,540.5937 281.7813,540.2812 Q281.2656,539.9687 280.8125,539.8906 Q280.375,539.7969 280,539.7969 Q278.7188,539.7969 277.8594,540.6719 Q277.0156,541.5469 277.0156,542.8906 L277.0156,543.9844 Q277.0156,545.2656 277.9219,546.0312 Q278.8281,546.7812 280.3594,546.7812 Z " fill="#000000"/><text fill="#000000" font-family="sans-serif" font-size="12" font-style="italic" lengthAdjust="spacing" textLength="36" x="328" y="531.0001">«desc»</text><text fill="#000000" font-family="sans-serif" font-size="14" lengthAdjust="spacing" textLength="68" x="312" y="547.4">OneToOne</text><text fill="#000000" font-family="sans-serif" font-size="14" lengthAdjust="spacing" textLength="102" x="295" y="564.2">ActionParameter</text></g><!--MD5=[badba6705019ea2f9274326cbe645d80]
class Facet--><g id="elem_Facet"><rect codeLine="60" fill="#00FFFF" height="41.2" id="Facet" rx="2.5" ry="2.5" style="stroke:#181818;stroke-width:0.5;" width="67" x="450.5" y="200.5"/><ellipse cx="465.5" cy="221.1" fill="#B4A7E5" rx="11" ry="11" style="stroke:#181818;stroke-width:1.0;"/><path d="M468.1719,224.3969 Q468.7188,224.3969 469,224.5844 Q469.2813,224.7563 469.2813,225.2563 Q469.2813,226.1 468.1719,226.1 L463.0313,226.1 Q461.9063,226.1 461.9063,225.2563 Q461.9063,224.7563 462.1875,224.5844 Q462.4844,224.3969 463.0313,224.3969 L464.75,224.3969 L464.75,217.8813 L463.0313,217.8813 Q461.9063,217.8813 461.9063,217.0375 Q461.9063,216.5531 462.1875,216.3813 Q462.4844,216.1938 463.0313,216.1938 L468.1719,216.1938 Q468.7188,216.1938 469,216.3813 Q469.2813,216.5531 469.2813,217.0375 Q469.2813,217.8813 468.1719,217.8813 L466.4531,217.8813 L466.4531,224.3969 L468.1719,224.3969 Z " fill="#000000"/><text fill="#000000" font-family="sans-serif" font-size="12" font-style="italic" lengthAdjust="spacing" textLength="36" x="479" y="217.5001">«desc»</text><text fill="#000000" font-family="sans-serif" font-size="14" font-style="italic" lengthAdjust="spacing" textLength="35" x="479.5" y="233.9">Facet</text></g><!--MD5=[e4bd214989e251692ad5ab01beff51ac]
class OneToMany\nActionParameter--><g id="elem_OneToMany\nActionParameter"><rect codeLine="63" fill="#00FFFF" height="58" id="OneToMany\nActionParameter" rx="2.5" ry="2.5" style="stroke:#181818;stroke-width:0.5;" width="134" x="435" y="514"/><ellipse cx="450" cy="543" fill="#ADD1B2" rx="11" ry="11" style="stroke:#181818;stroke-width:1.0;"/><path d="M449.3594,546.7812 Q450.1563,546.7812 450.7188,546.5937 Q451.2969,546.3906 451.5313,546.1719 Q451.7813,545.9375 452.0156,545.75 Q452.2656,545.5469 452.4844,545.5469 Q452.8281,545.5469 453.0781,545.8125 Q453.3438,546.0625 453.3438,546.3906 Q453.3438,547.125 452.1719,547.8125 Q451.0156,548.4844 449.3125,548.4844 Q447.1563,548.4844 445.7344,547.2187 Q444.3125,545.9531 444.3125,544.0156 L444.3125,542.8906 Q444.3125,540.8594 445.6406,539.4844 Q446.9688,538.0937 448.9375,538.0937 Q450.125,538.0937 451.3438,538.6719 L451.5156,538.75 Q451.8125,538.3437 452.2344,538.3437 Q452.7188,538.3437 452.8906,538.6406 Q453.0781,538.9219 453.0781,539.4687 L453.0781,540.8906 Q453.0781,542.0156 452.2344,542.0156 Q451.9219,542.0156 451.7188,541.8437 Q451.5313,541.6719 451.4844,541.5312 Q451.4531,541.375 451.4063,541.1094 Q451.2969,540.5937 450.7813,540.2812 Q450.2656,539.9687 449.8125,539.8906 Q449.375,539.7969 449,539.7969 Q447.7188,539.7969 446.8594,540.6719 Q446.0156,541.5469 446.0156,542.8906 L446.0156,543.9844 Q446.0156,545.2656 446.9219,546.0312 Q447.8281,546.7812 449.3594,546.7812 Z " fill="#000000"/><text fill="#000000" font-family="sans-serif" font-size="12" font-style="italic" lengthAdjust="spacing" textLength="36" x="497" y="531.0001">«desc»</text><text fill="#000000" font-family="sans-serif" font-size="14" lengthAdjust="spacing" textLength="77" x="476.5" y="547.4">OneToMany</text><text fill="#000000" font-family="sans-serif" font-size="14" lengthAdjust="spacing" textLength="102" x="464" y="564.2">ActionParameter</text></g><!--MD5=[91cb98f639147649dcebb5c5e2aff3e2]
class ManagedObject--><g id="elem_ManagedObject"><rect codeLine="68" fill="#90EE90" height="82.7999" id="ManagedObject" rx="2.5" ry="2.5" style="stroke:#181818;stroke-width:0.5;" width="133" x="625.5" y="179.5"/><ellipse cx="641.4" cy="200.1" fill="#ADD1B2" rx="11" ry="11" style="stroke:#181818;stroke-width:1.0;"/><path d="M640.7594,203.8813 Q641.5563,203.8813 642.1188,203.6938 Q642.6969,203.4906 642.9313,203.2719 Q643.1813,203.0375 643.4156,202.85 Q643.6656,202.6469 643.8844,202.6469 Q644.2281,202.6469 644.4781,202.9125 Q644.7438,203.1625 644.7438,203.4906 Q644.7438,204.225 643.5719,204.9125 Q642.4156,205.5844 640.7125,205.5844 Q638.5563,205.5844 637.1344,204.3188 Q635.7125,203.0531 635.7125,201.1156 L635.7125,199.9906 Q635.7125,197.9594 637.0406,196.5844 Q638.3688,195.1938 640.3375,195.1938 Q641.525,195.1938 642.7438,195.7719 L642.9156,195.85 Q643.2125,195.4438 643.6344,195.4438 Q644.1188,195.4438 644.2906,195.7406 Q644.4781,196.0219 644.4781,196.5688 L644.4781,197.9906 Q644.4781,199.1156 643.6344,199.1156 Q643.3219,199.1156 643.1188,198.9438 Q642.9313,198.7719 642.8844,198.6313 Q642.8531,198.475 642.8063,198.2094 Q642.6969,197.6938 642.1813,197.3813 Q641.6656,197.0688 641.2125,196.9906 Q640.775,196.8969 640.4,196.8969 Q639.1188,196.8969 638.2594,197.7719 Q637.4156,198.6469 637.4156,199.9906 L637.4156,201.0844 Q637.4156,202.3656 638.3219,203.1313 Q639.2281,203.8813 640.7594,203.8813 Z " fill="#000000"/><text fill="#000000" font-family="sans-serif" font-size="12" font-style="italic" lengthAdjust="spacing" textLength="27" x="691.6" y="196.5001">«ppt»</text><text fill="#000000" font-family="sans-serif" font-size="14" lengthAdjust="spacing" textLength="99" x="655.6" y="212.9">ManagedObject</text><line style="stroke:#181818;stroke-width:0.5;" x1="626.5" x2="757.5" y1="220.7" y2="220.7"/><ellipse cx="636.5" cy="231.7" fill="#84BE84" rx="3" ry="3" style="stroke:#038048;stroke-width:1.0;"/><text fill="#000000" font-family="sans-serif" font-size="14" lengthAdjust="spacing" textLength="107" x="645.5" y="238.7">getSpecification()</text><ellipse cx="636.5" cy="248.5" fill="#84BE84" rx="3" ry="3" style="stroke:#038048;stroke-width:1.0;"/><text fill="#000000" font-family="sans-serif" font-size="14" lengthAdjust="spacing" textLength="55" x="645.5" y="255.4999">getPojo()</text></g><!--MD5=[3c1db82047404282ce9450ce0e4f5184]
class Bookmark--><g id="elem_Bookmark"><rect codeLine="72" fill="#FFFFFF" height="41.2" id="Bookmark" rx="2.5" ry="2.5" style="stroke:#181818;stroke-width:0.5;" width="93" x="634.5" y="53.5"/><ellipse cx="649.5" cy="74.1" fill="#ADD1B2" rx="11" ry="11" style="stroke:#181818;stroke-width:1.0;"/><path d="M648.8594,77.8813 Q649.6563,77.8813 650.2188,77.6938 Q650.7969,77.4906 651.0313,77.2719 Q651.2813,77.0375 651.5156,76.85 Q651.7656,76.6469 651.9844,76.6469 Q652.3281,76.6469 652.5781,76.9125 Q652.8438,77.1625 652.8438,77.4906 Q652.8438,78.225 651.6719,78.9125 Q650.5156,79.5844 648.8125,79.5844 Q646.6563,79.5844 645.2344,78.3188 Q643.8125,77.0531 643.8125,75.1156 L643.8125,73.9906 Q643.8125,71.9594 645.1406,70.5844 Q646.4688,69.1938 648.4375,69.1938 Q649.625,69.1938 650.8438,69.7719 L651.0156,69.85 Q651.3125,69.4438 651.7344,69.4438 Q652.2188,69.4438 652.3906,69.7406 Q652.5781,70.0219 652.5781,70.5688 L652.5781,71.9906 Q652.5781,73.1156 651.7344,73.1156 Q651.4219,73.1156 651.2188,72.9438 Q651.0313,72.7719 650.9844,72.6313 Q650.9531,72.475 650.9063,72.2094 Q650.7969,71.6938 650.2813,71.3813 Q649.7656,71.0688 649.3125,70.9906 Q648.875,70.8969 648.5,70.8969 Q647.2188,70.8969 646.3594,71.7719 Q645.5156,72.6469 645.5156,73.9906 L645.5156,75.0844 Q645.5156,76.3656 646.4219,77.1313 Q647.3281,77.8813 648.8594,77.8813 Z " fill="#000000"/><text fill="#000000" font-family="sans-serif" font-size="12" font-style="italic" lengthAdjust="spacing" textLength="39" x="674.5" y="70.5001">«value»</text><text fill="#000000" font-family="sans-serif" font-size="14" lengthAdjust="spacing" textLength="61" x="663.5" y="86.9">Bookmark</text></g><!--MD5=[86f349b7fc64c321ae8bad2e27d23414]
reverse link LogicalType to Object\nSpecification--><g id="link_LogicalType_Object\nSpecification"><path codeLine="79" d="M308.34,110.52 C288.94,127.46 265.34,148.08 243.86,166.84 " fill="none" id="LogicalType-backto-Object\nSpecification" style="stroke:#181818;stroke-width:1.0;"/><polygon fill="#181818" points="312.16,107.18,302.7465,110.076,308.39,110.4644,308.0016,116.1079,312.16,107.18" style="stroke:#181818;stroke-width:1.0;"/></g><!--MD5=[ed7878ac517ae046682c90f495e7c07d]
link Object\nSpecification to Object\nMember--><g id="link_Object\nSpecification_Object\nMember"><path codeLine="80" d="M184.31,275.07 C185.22,311.65 186.39,359.14 187.17,390.55 " fill="none" id="Object\nSpecification-to-Object\nMember" style="stroke:#181818;stroke-width:1.0;"/><polygon fill="#181818" points="187.3,395.83,191.0933,386.7409,187.1857,390.8313,183.0954,386.9238,187.3,395.83" style="stroke:#181818;stroke-width:1.0;"/><text fill="#000000" font-family="sans-serif" font-size="13" lengthAdjust="spacing" textLength="5" x="181.56" y="385.4195">*</text></g><!--MD5=[2bdd6bc466205d5f314f0051faa7f01c]
reverse link Object\nMember to Object\nAssociation--><g id="link_Object\nMember_Object\nAssociation"><path codeLine="81" d="M145.87,468.5 C130.92,483.58 114.46,500.18 100.98,513.78 " fill="none" id="Object\nMember-backto-Object\nAssociation" style="stroke:#181818;stroke-width:1.0;"/><polygon fill="none" points="141.11,463.36,160.16,454.08,151.05,473.21,141.11,463.36" style="stroke:#181818;stroke-width:1.0;"/></g><!--MD5=[241503ab21274031e0e27ca51ddcf3f4]
reverse link Object\nMember to Object\nAction--><g id="link_Object\nMember_Object\nAction"><path codeLine="82" d="M190.91,474.21 C191.72,487.68 192.58,501.88 193.3,513.78 " fill="none" id="Object\nMember-backto-Object\nAction" style="stroke:#181818;stroke-width:1.0;"/><polygon fill="none" points="183.91,474.47,189.69,454.08,197.89,473.62,183.91,474.47" style="stroke:#181818;stroke-width:1.0;"/></g><!--MD5=[7b1dd17f101192166ad8ece1c1058fee]
reverse link Object\nAssociation to OneToOne\nAssociation--><g id="link_Object\nAssociation_OneToOne\nAssociation"><path codeLine="83" d="M73,592.21 C73,605.68 73,619.88 73,631.78 " fill="none" id="Object\nAssociation-backto-OneToOne\nAssociation" style="stroke:#181818;stroke-width:1.0;"/><polygon fill="none" points="66,592.08,73,572.08,80,592.08,66,592.08" style="stroke:#181818;stroke-width:1.0;"/></g><!--MD5=[c4d38020f98201eb2fe41c2e8b25f5c7]
reverse link Object\nAssociation to OneToMany\nAssociation--><g id="link_Object\nAssociation_OneToMany\nAssociation"><path codeLine="84" d="M122.66,584.85 C141.52,600.37 162.56,617.68 179.69,631.78 " fill="none" id="Object\nAssociation-backto-OneToMany\nAssociation" style="stroke:#181818;stroke-width:1.0;"/><polygon fill="none" points="118.13,590.19,107.13,572.08,127.02,579.38,118.13,590.19" style="stroke:#181818;stroke-width:1.0;"/></g><!--MD5=[fed48b2c8a9a486fb23584c154f1ec15]
reverse link Object\nActionParameter to OneToOne\nActionParameter--><g id="link_Object\nActionParameter_OneToOne\nActionParameter"><path codeLine="85" d="M337.09,474.21 C336.28,487.68 335.42,501.88 334.7,513.78 " fill="none" id="Object\nActionParameter-backto-OneToOne\nActionParameter" style="stroke:#181818;stroke-width:1.0;"/><polygon fill="none" points="330.11,473.62,338.31,454.08,344.09,474.47,330.11,473.62" style="stroke:#181818;stroke-width:1.0;"/></g><!--MD5=[6af0f7e8de7c83f30bca28014b14a2cb]
reverse link Object\nActionParameter to OneToMany\nActionParameter--><g id="link_Object\nActionParameter_OneToMany\nActionParameter"><path codeLine="86" d="M395.49,465.73 C417.65,481.6 442.66,499.51 462.87,513.98 " fill="none" id="Object\nActionParameter-backto-OneToMany\nActionParameter" style="stroke:#181818;stroke-width:1.0;"/><polygon fill="none" points="391.4,471.42,379.22,454.08,399.55,460.03,391.4,471.42" style="stroke:#181818;stroke-width:1.0;"/></g><!--MD5=[b2b29efb307806de1bba54f1e5dc2be6]
reverse link Object\nActionParameter to Object\nAction--><g id="link_Object\nActionParameter_Object\nAction"><path codeLine="87" d="M300.84,457.33 C278.76,474.99 251.4,496.88 230.03,513.98 " fill="none" id="Object\nActionParameter-backto-Object\nAction" style="stroke:#181818;stroke-width:1.0;"/><polygon fill="#181818" points="304.9,454.08,295.3768,456.5915,300.9998,457.2087,300.3827,462.8318,304.9,454.08" style="stroke:#181818;stroke-width:1.0;"/><text fill="#000000" font-family="sans-serif" font-size="13" lengthAdjust="spacing" textLength="5" x="291.675" y="475.1475">*</text></g><!--MD5=[6386275b757e9a32ce38551d9fe44fc9]
link Object\nSpecification to FacetHolder--><g id="link_Object\nSpecification_FacetHolder"><path codeLine="89" d="M271.65,221 C276.42,221 281.19,221 285.96,221 " fill="none" id="Object\nSpecification-to-FacetHolder" style="stroke:#181818;stroke-width:1.0;stroke-dasharray:7.0,7.0;"/><polygon fill="none" points="286.2,214,306.2,221,286.2,228,286.2,214" style="stroke:#181818;stroke-width:1.0;"/></g><!--MD5=[7ed1b40c9d8e1ede63264d1d3150c096]
reverse link FacetHolder to Object\nMember--><g id="link_FacetHolder_Object\nMember"><path codeLine="90" d="M331.02,257 C297.31,296.36 243.23,359.52 212.12,395.83 " fill="none" id="FacetHolder-backto-Object\nMember" style="stroke:#181818;stroke-width:1.0;stroke-dasharray:7.0,7.0;"/><polygon fill="none" points="325.77,252.37,344.1,241.74,336.4,261.48,325.77,252.37" style="stroke:#181818;stroke-width:1.0;"/></g><!--MD5=[6d10f057513b3b6ea03cfbefdadc4b76]
reverse link FacetHolder to Object\nActionParameter--><g id="link_FacetHolder_Object\nActionParameter"><path codeLine="91" d="M356.86,261.86 C352.75,301.4 346.55,360.97 342.93,395.83 " fill="none" id="FacetHolder-backto-Object\nActionParameter" style="stroke:#181818;stroke-width:1.0;stroke-dasharray:7.0,7.0;"/><polygon fill="none" points="349.92,260.91,358.95,241.74,363.84,262.35,349.92,260.91" style="stroke:#181818;stroke-width:1.0;"/></g><!--MD5=[78d434f5ba83524917ac2512edcf96ee]
link FacetHolder to Facet--><g id="link_FacetHolder_Facet"><path codeLine="92" d="M415.77,221 C425.61,221 435.44,221 445.28,221 " fill="none" id="FacetHolder-to-Facet" style="stroke:#181818;stroke-width:1.0;"/><polygon fill="#181818" points="450.42,221,441.42,217,445.42,221,441.42,225,450.42,221" style="stroke:#181818;stroke-width:1.0;"/><text fill="#000000" font-family="sans-serif" font-size="13" lengthAdjust="spacing" textLength="5" x="437.5275" y="217.4031">*</text></g><!--MD5=[732c1aa04af94e97253dd1ea909fbb39]
reverse link Bookmark to ManagedObject--><g id="link_Bookmark_ManagedObject"><path codeLine="95" d="M682.87,99.59 C684.52,121.42 686.97,153.74 688.92,179.4 " fill="none" id="Bookmark-backto-ManagedObject" style="stroke:#181818;stroke-width:1.0;"/><polygon fill="#181818" points="682.48,94.56,679.1597,103.8323,682.8515,99.5462,687.1376,103.238,682.48,94.56" style="stroke:#181818;stroke-width:1.0;"/></g><!--MD5=[2bee260c0a48840c08d24c46f37f4d11]
link Bookmark to LogicalType--><g id="link_Bookmark_LogicalType"><path codeLine="97" d="M634.27,74 C558.93,74 483.59,74 408.25,74 " fill="none" id="Bookmark-to-LogicalType" style="stroke:#181818;stroke-width:1.0;"/><polygon fill="#181818" points="402.82,74,411.82,78,407.82,74,411.82,70,402.82,74" style="stroke:#181818;stroke-width:1.0;"/></g><!--MD5=[e3b280eea75072d83ea78215db2d7fdb]
@startuml
hide empty members

skinparam class {
    BackgroundColor<<desc>> Cyan
    BackgroundColor<<ppt>> LightGreen
    BackgroundColor<<mi>> LightPink
    BackgroundColor<<role>> LightYellow
    BackgroundColor<<strategy>> White
    BackgroundColor<<api>> White
    BackgroundColor<<spi>> White
    BackgroundColor<<internal>> LightGrey
    BackgroundColor<<value>> White

    BackgroundColor<<entity>> LightGreen
    BackgroundColor<<viewmodel>> LightPink
    BackgroundColor<<mixin>> LightYellow
}

package metamodel {

    class LogicalType<<value>> {
        +type
    }

    class Object\nSpecification<<desc>> {
        +objectSpecId
        ....
        -fullyQualifiedClassName
    }

    class Object\nMember<<desc>> {

    }

    class Object\nAction<<desc>> {

    }

    class Object\nAssociation<<desc>> {

    }

    class OneToOne\nAssociation<<desc>> {

    }

    class OneToMany\nAssociation<<desc>> {

    }

    interface FacetHolder<<desc>> {
    }

    class Object\nActionParameter<<desc>> {
    }

    class OneToOne\nActionParameter<<desc>> {
    }

    interface Facet<<desc>> {
    }

    class OneToMany\nActionParameter<<desc>> {
    }
}

package runtime {
    class ManagedObject<<ppt>> {
        +getSpecification()
        +getPojo()
    }
    class Bookmark<<value>> {

    }
}



Object\nSpecification -up-> LogicalType
Object\nSpecification -down-> "*" Object\nMember
Object\nMember ^-down- Object\nAssociation
Object\nMember ^-down- Object\nAction
Object\nAssociation ^-down- OneToOne\nAssociation
Object\nAssociation ^-down- OneToMany\nAssociation
Object\nActionParameter ^-down- OneToOne\nActionParameter
Object\nActionParameter ^-down- OneToMany\nActionParameter
Object\nAction -left-> "*" Object\nActionParameter

FacetHolder ^-.left- Object\nSpecification
FacetHolder ^-.down- Object\nMember
FacetHolder ^-.down- Object\nActionParameter
FacetHolder -right-> "*" Facet


ManagedObject  -up-> Bookmark

Bookmark -right-> LogicalType
@enduml

PlantUML version 1.2022.5(Sat Apr 30 10:55:52 GMT 2022)
(GPL source distribution)
Java Runtime: OpenJDK Runtime Environment
JVM: OpenJDK 64-Bit Server VM
Default Encoding: UTF-8
Language: en
Country: US
--></g></svg>