<svg xmlns="http://www.w3.org/2000/svg" xmlns:xlink="http://www.w3.org/1999/xlink" contentStyleType="text/css" data-diagram-type="DESCRIPTION" height="484px" preserveAspectRatio="none" style="width:1026px;height:484px;background:#FFFFFF;" version="1.1" viewBox="0 0 1026 484" width="1026px" zoomAndPan="magnify"><defs/><g><g class="entity" data-entity="EB" data-source-line="1" data-uid="ent0002" id="entity_EB"><ellipse cx="774.1248" cy="177.9273" fill="#F1F1F1" rx="39.8448" ry="26.0473" style="stroke:#181818;stroke-width:0.5;"/><text fill="#000000" font-family="sans-serif" font-size="14" lengthAdjust="spacing" textLength="40.1064" x="754.0716" y="172.6255">Event</text><text fill="#000000" font-family="sans-serif" font-size="14" lengthAdjust="spacing" textLength="25.7715" x="761.2391" y="188.9224">Bus</text></g><g class="entity" data-entity="SPRING" data-source-line="2" data-uid="ent0003" id="entity_SPRING"><ellipse cx="954.1185" cy="177.9325" fill="#F1F1F1" rx="43.7785" ry="14.6225" style="stroke:#181818;stroke-width:0.5;"/><text fill="#000000" font-family="sans-serif" font-size="14" lengthAdjust="spacing" textLength="45.1787" x="928.5292" y="181.6801">Spring</text></g><g class="entity" data-entity="EL" data-source-line="4" data-uid="ent0006" id="entity_EL"><ellipse cx="774.1153" cy="32.0473" fill="#F1F1F1" rx="51.3153" ry="26.0473" style="stroke:#181818;stroke-width:0.5;"/><text fill="#000000" font-family="sans-serif" font-size="14" lengthAdjust="spacing" textLength="40.1064" x="754.0621" y="26.7455">Event</text><text fill="#000000" font-family="sans-serif" font-size="14" lengthAdjust="spacing" textLength="56.3281" x="745.9512" y="43.0424">Listener</text></g><g class="entity" data-entity="LCE" data-source-line="7" data-uid="ent0008" id="entity_LCE"><ellipse cx="540.1183" cy="177.9273" fill="#F1F1F1" rx="77.8283" ry="26.0473" style="stroke:#181818;stroke-width:0.5;"/><text fill="#000000" font-family="sans-serif" font-size="14" font-style="italic" lengthAdjust="spacing" textLength="45.5957" x="517.3205" y="172.6255">Object</text><text fill="#000000" font-family="sans-serif" font-size="14" lengthAdjust="spacing" textLength="93.8232" x="493.2067" y="188.9224">LifecyleEvent</text></g><g class="entity" data-entity="C" data-source-line="9" data-uid="ent0010" id="entity_C"><ellipse cx="969.1202" cy="323.8073" fill="#F1F1F1" rx="50.8802" ry="26.0473" style="stroke:#181818;stroke-width:0.5;"/><text fill="#000000" font-family="sans-serif" font-size="14" lengthAdjust="spacing" textLength="55.7129" x="941.2638" y="318.5055">Created</text><text fill="#000000" font-family="sans-serif" font-size="14" lengthAdjust="spacing" textLength="40.1064" x="949.067" y="334.8024">Event</text></g><g class="entity" data-entity="L" data-source-line="11" data-uid="ent0013" id="entity_L"><ellipse cx="835.1218" cy="323.8073" fill="#F1F1F1" rx="47.7818" ry="26.0473" style="stroke:#181818;stroke-width:0.5;"/><text fill="#000000" font-family="sans-serif" font-size="14" lengthAdjust="spacing" textLength="51.3311" x="809.4563" y="318.5055">Loaded</text><text fill="#000000" font-family="sans-serif" font-size="14" lengthAdjust="spacing" textLength="40.1064" x="815.0686" y="334.8024">Event</text></g><g class="entity" data-entity="PNG" data-source-line="14" data-uid="ent0016" id="entity_PNG"><ellipse cx="692.121" cy="323.8073" fill="#F1F1F1" rx="59.871" ry="26.0473" style="stroke:#181818;stroke-width:0.5;"/><text fill="#000000" font-family="sans-serif" font-size="14" lengthAdjust="spacing" textLength="68.4277" x="657.9071" y="318.5055">Persisting</text><text fill="#000000" font-family="sans-serif" font-size="14" lengthAdjust="spacing" textLength="40.1064" x="672.0678" y="334.8024">Event</text></g><g class="entity" data-entity="PED" data-source-line="16" data-uid="ent0019" id="entity_PED"><ellipse cx="540.1169" cy="323.8073" fill="#F1F1F1" rx="56.9369" ry="26.0473" style="stroke:#181818;stroke-width:0.5;"/><text fill="#000000" font-family="sans-serif" font-size="14" lengthAdjust="spacing" textLength="64.2783" x="507.9778" y="318.5055">Persisted</text><text fill="#000000" font-family="sans-serif" font-size="14" lengthAdjust="spacing" textLength="40.1064" x="520.0637" y="334.8024">Event</text></g><g class="entity" data-entity="UNG" data-source-line="19" data-uid="ent0022" id="entity_UNG"><ellipse cx="392.1151" cy="323.8073" fill="#F1F1F1" rx="56.5551" ry="26.0473" style="stroke:#181818;stroke-width:0.5;"/><text fill="#000000" font-family="sans-serif" font-size="14" lengthAdjust="spacing" textLength="63.7383" x="360.2459" y="318.5055">Updating</text><text fill="#000000" font-family="sans-serif" font-size="14" lengthAdjust="spacing" textLength="40.1064" x="372.0618" y="334.8024">Event</text></g><g class="entity" data-entity="UED" data-source-line="21" data-uid="ent0025" id="entity_UED"><ellipse cx="247.121" cy="323.8073" fill="#F1F1F1" rx="53.621" ry="26.0473" style="stroke:#181818;stroke-width:0.5;"/><text fill="#000000" font-family="sans-serif" font-size="14" lengthAdjust="spacing" textLength="59.5889" x="217.3265" y="318.5055">Updated</text><text fill="#000000" font-family="sans-serif" font-size="14" lengthAdjust="spacing" textLength="40.1064" x="227.0678" y="334.8024">Event</text></g><g class="entity" data-entity="RNG" data-source-line="24" data-uid="ent0028" id="entity_RNG"><ellipse cx="97.1211" cy="323.8073" fill="#F1F1F1" rx="61.3211" ry="26.0473" style="stroke:#181818;stroke-width:0.5;"/><text fill="#000000" font-family="sans-serif" font-size="14" lengthAdjust="spacing" textLength="70.4785" x="61.8819" y="318.5055">Removing</text><text fill="#000000" font-family="sans-serif" font-size="14" lengthAdjust="spacing" textLength="40.1064" x="77.0679" y="334.8024">Event</text></g><g class="entity" data-entity="FS" data-source-line="27" data-uid="ent0031" id="entity_FS"><ellipse cx="969.1152" cy="452.8973" fill="#F1F1F1" rx="48.5552" ry="26.0473" style="stroke:#181818;stroke-width:0.5;"/><text fill="#000000" font-family="sans-serif" font-size="14" lengthAdjust="spacing" textLength="52.4248" x="942.9028" y="447.5955">Factory</text><text fill="#000000" font-family="sans-serif" font-size="14" lengthAdjust="spacing" textLength="51.7412" x="943.2446" y="463.8924">Service</text></g><g class="entity" data-entity="RS" data-source-line="29" data-uid="ent0034" id="entity_RS"><ellipse cx="431.1194" cy="452.8973" fill="#F1F1F1" rx="64.5694" ry="26.0473" style="stroke:#181818;stroke-width:0.5;"/><text fill="#000000" font-family="sans-serif" font-size="14" lengthAdjust="spacing" textLength="75.0723" x="393.5833" y="447.5955">Repository</text><text fill="#000000" font-family="sans-serif" font-size="14" lengthAdjust="spacing" textLength="51.7412" x="405.2488" y="463.8924">Service</text></g><g class="entity" data-entity="GMN47" data-source-line="38" data-uid="ent0048" id="entity_GMN47"><path d="M6,135.1 L6,220.7641 A0,0 0 0 0 6,220.7641 L93.12,220.7641 L97.12,297.67 L101.12,220.7641 L188.2305,220.7641 A0,0 0 0 0 188.2305,220.7641 L188.2305,145.1 L178.2305,135.1 L6,135.1 A0,0 0 0 0 6,135.1" fill="#FEFFDD" style="stroke:#181818;stroke-width:0.5;"/><path d="M178.2305,135.1 L178.2305,145.1 L188.2305,145.1 L178.2305,135.1" fill="#FEFFDD" style="stroke:#181818;stroke-width:0.5;"/><text fill="#000000" font-family="sans-serif" font-size="13" lengthAdjust="spacing" textLength="109.7446" x="12" y="152.1669">JDO/Datanucleus</text><text fill="#000000" font-family="sans-serif" font-size="13" lengthAdjust="spacing" textLength="110.4429" x="12" y="167.2997">does not support</text><text fill="#000000" font-family="sans-serif" font-size="13" lengthAdjust="spacing" textLength="107.8086" x="12" y="182.4325">something like a</text><text fill="#000000" font-family="sans-serif" font-size="13" lengthAdjust="spacing" textLength="119.0566" x="12" y="197.5653">"Removed Event".</text><text fill="#000000" font-family="sans-serif" font-size="13" lengthAdjust="spacing" textLength="161.2305" x="12" y="212.6981">Hence not implemented.</text></g><!--reverse link EB to SPRING--><g class="link" data-entity-1="EB" data-entity-2="SPRING" data-source-line="3" data-uid="lnk5" id="link_EB_SPRING"><path d="M820.06,177.93 C848.44,177.93 880.56,177.93 909.86,177.93" fill="none" id="EB-backto-SPRING" style="stroke:#181818;stroke-width:1;stroke-dasharray:7.0,7.0;"/><polygon fill="#181818" points="814.06,177.93,823.06,181.93,819.06,177.93,823.06,173.93,814.06,177.93" style="stroke:#181818;stroke-width:1;"/><text fill="#000000" font-family="sans-serif" font-size="13" lengthAdjust="spacing" textLength="60.2583" x="832.15" y="155.9969">provides/</text><text fill="#000000" font-family="sans-serif" font-size="13" lengthAdjust="spacing" textLength="59.8584" x="832.35" y="171.1297">manages</text></g><!--link EL to EB--><g class="link" data-entity-1="EL" data-entity-2="EB" data-source-line="5" data-uid="lnk7" id="link_EL_EB"><path d="M774.12,58.44 C774.12,84.74 774.12,119.59 774.12,145.79" fill="none" id="EL-to-EB" style="stroke:#181818;stroke-width:1;"/><polygon fill="#181818" points="774.12,151.79,778.12,142.79,774.12,146.79,770.12,142.79,774.12,151.79" style="stroke:#181818;stroke-width:1;"/><text fill="#000000" font-family="sans-serif" font-size="13" lengthAdjust="spacing" textLength="42.104" x="775.12" y="101.1669">listens</text></g><!--link LCE to EB--><g class="link" data-entity-1="LCE" data-entity-2="EB" data-source-line="8" data-uid="lnk9" id="link_LCE_EB"><path d="M618.36,177.93 C657.15,177.93 696.36,177.93 728.05,177.93" fill="none" id="LCE-to-EB" style="stroke:#181818;stroke-width:1;"/><polygon fill="#181818" points="734.05,177.93,725.05,173.93,729.05,177.93,725.05,181.93,734.05,177.93" style="stroke:#181818;stroke-width:1;"/><text fill="#000000" font-family="sans-serif" font-size="13" lengthAdjust="spacing" textLength="80.4121" x="636.11" y="170.9969">published to</text></g><!--reverse link LCE to C--><g class="link" data-entity-1="LCE" data-entity-2="C" data-source-line="10" data-uid="lnk12" id="link_LCE_C"><path d="M601.1916,198.4878 C672.0216,221.2778 792.68,260.54 900.12,297.76 C909.27,300.93 919.07,304.43 928.32,307.78" fill="none" id="LCE-backto-C" style="stroke:#181818;stroke-width:1;"/><polygon fill="#181818" points="595.48,196.65,602.8223,203.2144,600.2397,198.1815,605.2726,195.5989,595.48,196.65" style="stroke:#181818;stroke-width:1;"/><text fill="#000000" font-family="sans-serif" font-size="13" lengthAdjust="spacing" textLength="22.4834" x="812.12" y="263.8269">is a</text></g><!--reverse link LCE to L--><g class="link" data-entity-1="LCE" data-entity-2="L" data-source-line="12" data-uid="lnk15" id="link_LCE_L"><path d="M588.7226,202.6306 C647.4526,231.2806 745.96,279.33 800.1,305.73" fill="none" id="LCE-backto-L" style="stroke:#181818;stroke-width:1;"/><polygon fill="#181818" points="583.33,200,589.6651,207.541,587.8238,202.1922,593.1726,200.3509,583.33,200" style="stroke:#181818;stroke-width:1;"/><text fill="#000000" font-family="sans-serif" font-size="13" lengthAdjust="spacing" textLength="22.4834" x="714.12" y="263.8269">is a</text></g><!--reverse link LCE to PNG--><g class="link" data-entity-1="LCE" data-entity-2="PNG" data-source-line="15" data-uid="lnk18" id="link_LCE_PNG"><path d="M569.9169,207.1352 C598.3069,234.0152 639.58,273.08 667.6,299.6" fill="none" id="LCE-backto-PNG" style="stroke:#181818;stroke-width:1;"/><polygon fill="#181818" points="565.56,203.01,569.3453,212.1024,569.1908,206.4477,574.8455,206.2932,565.56,203.01" style="stroke:#181818;stroke-width:1;"/><text fill="#000000" font-family="sans-serif" font-size="13" lengthAdjust="spacing" textLength="22.4834" x="630.12" y="263.8269">is a</text></g><!--reverse link LCE to PED--><g class="link" data-entity-1="LCE" data-entity-2="PED" data-source-line="17" data-uid="lnk21" id="link_LCE_PED"><path d="M540.12,210.32 C540.12,236.62 540.12,271.46 540.12,297.67" fill="none" id="LCE-backto-PED" style="stroke:#181818;stroke-width:1;"/><polygon fill="#181818" points="540.12,204.32,536.12,213.32,540.12,209.32,544.12,213.32,540.12,204.32" style="stroke:#181818;stroke-width:1;"/><text fill="#000000" font-family="sans-serif" font-size="13" lengthAdjust="spacing" textLength="22.4834" x="541.12" y="263.8269">is a</text></g><!--reverse link LCE to UNG--><g class="link" data-entity-1="LCE" data-entity-2="UNG" data-source-line="20" data-uid="lnk24" id="link_LCE_UNG"><path d="M511.0382,207.1927 C483.2282,234.2327 442.74,273.6 415.5,300.07" fill="none" id="LCE-backto-UNG" style="stroke:#181818;stroke-width:1;"/><polygon fill="#181818" points="515.34,203.01,506.0989,206.4162,511.7552,206.4956,511.6758,212.1519,515.34,203.01" style="stroke:#181818;stroke-width:1;"/><text fill="#000000" font-family="sans-serif" font-size="13" lengthAdjust="spacing" textLength="22.4834" x="467.12" y="263.8269">is a</text></g><!--reverse link LCE to UED--><g class="link" data-entity-1="LCE" data-entity-2="UED" data-source-line="22" data-uid="lnk27" id="link_LCE_UED"><path d="M491.8145,202.645 C434.2745,230.905 338.47,277.95 284.12,304.64" fill="none" id="LCE-backto-UED" style="stroke:#181818;stroke-width:1;"/><polygon fill="#181818" points="497.2,200,487.3584,200.3772,492.7121,202.2042,490.8851,207.5579,497.2,200" style="stroke:#181818;stroke-width:1;"/><text fill="#000000" font-family="sans-serif" font-size="13" lengthAdjust="spacing" textLength="22.4834" x="395.12" y="263.8269">is a</text></g><!--reverse link LCE to RNG--><g class="link" data-entity-1="LCE" data-entity-2="RNG" data-source-line="25" data-uid="lnk30" id="link_LCE_RNG"><path d="M479.6435,198.5735 C392.1435,226.9935 227.94,280.32 144.99,307.26" fill="none" id="LCE-backto-RNG" style="stroke:#181818;stroke-width:1;"/><polygon fill="#181818" points="485.35,196.72,475.5545,195.6959,480.5946,198.2646,478.0258,203.3046,485.35,196.72" style="stroke:#181818;stroke-width:1;"/><text fill="#000000" font-family="sans-serif" font-size="13" lengthAdjust="spacing" textLength="22.4834" x="320.12" y="263.8269">is a</text></g><!--reverse link C to FS--><g class="link" data-entity-1="C" data-entity-2="FS" data-source-line="28" data-uid="lnk33" id="link_C_FS"><path d="M969.12,356.22 C969.12,378.39 969.12,404.38 969.12,426.53" fill="none" id="C-backto-FS" style="stroke:#181818;stroke-width:1;"/><polygon fill="#181818" points="969.12,350.22,965.12,359.22,969.12,355.22,973.12,359.22,969.12,350.22" style="stroke:#181818;stroke-width:1;"/><text fill="#000000" font-family="sans-serif" font-size="13" lengthAdjust="spacing" textLength="36.1436" x="970.12" y="392.9269">emits</text></g><!--reverse link L to RS--><g class="link" data-entity-1="L" data-entity-2="RS" data-source-line="30" data-uid="lnk36" id="link_L_RS"><path d="M791.2366,341.829 C782.1766,345.249 778.14,346.69 769.12,349.86 C669.47,384.78 550.9,418.9 483.98,437.5" fill="none" id="L-backto-RS" style="stroke:#181818;stroke-width:1;"/><polygon fill="#181818" points="796.85,339.71,787.0173,339.1462,792.1722,341.4758,789.8426,346.6307,796.85,339.71" style="stroke:#181818;stroke-width:1;"/><text fill="#000000" font-family="sans-serif" font-size="13" lengthAdjust="spacing" textLength="36.1436" x="677.12" y="392.9269">emits</text></g><!--reverse link PNG to RS--><g class="link" data-entity-1="PNG" data-entity-2="RS" data-source-line="31" data-uid="lnk38" id="link_PNG_RS"><path d="M647.6455,346.4667 C598.7255,370.2867 520.76,408.25 471.32,432.33" fill="none" id="PNG-backto-RS" style="stroke:#181818;stroke-width:1;"/><polygon fill="#181818" points="653.04,343.84,643.1971,344.1837,648.5446,346.0289,646.6994,351.3763,653.04,343.84" style="stroke:#181818;stroke-width:1;"/><text fill="#000000" font-family="sans-serif" font-size="13" lengthAdjust="spacing" textLength="36.1436" x="578.12" y="392.9269">emits</text></g><!--reverse link PED to RS--><g class="link" data-entity-1="PED" data-entity-2="RS" data-source-line="32" data-uid="lnk40" id="link_PED_RS"><path d="M515.9629,352.9736 C496.5029,375.6536 471.17,405.2 451.62,427.99" fill="none" id="PED-backto-RS" style="stroke:#181818;stroke-width:1;"/><polygon fill="#181818" points="519.87,348.42,510.9737,352.6456,516.6141,352.2146,517.0451,357.855,519.87,348.42" style="stroke:#181818;stroke-width:1;"/><text fill="#000000" font-family="sans-serif" font-size="13" lengthAdjust="spacing" textLength="36.1436" x="494.12" y="392.9269">emits</text></g><!--reverse link UNG to RS--><g class="link" data-entity-1="UNG" data-entity-2="RS" data-source-line="33" data-uid="lnk42" id="link_UNG_RS"><path d="M401.5809,355.6558 C408.4209,377.9358 416.59,404.58 423.43,426.85" fill="none" id="UNG-backto-RS" style="stroke:#181818;stroke-width:1;"/><polygon fill="#181818" points="399.82,349.92,398.6375,359.6976,401.2874,354.6998,406.2852,357.3497,399.82,349.92" style="stroke:#181818;stroke-width:1;"/><text fill="#000000" font-family="sans-serif" font-size="13" lengthAdjust="spacing" textLength="36.1436" x="415.12" y="392.9269">emits</text></g><!--reverse link UED to RS--><g class="link" data-entity-1="UED" data-entity-2="RS" data-source-line="34" data-uid="lnk44" id="link_UED_RS"><path d="M282.0267,348.9201 C315.6267,372.1301 364.96,406.21 399.3,429.93" fill="none" id="UED-backto-RS" style="stroke:#181818;stroke-width:1;"/><polygon fill="#181818" points="277.09,345.51,282.2216,353.9163,281.2039,348.3518,286.7685,347.3341,277.09,345.51" style="stroke:#181818;stroke-width:1;"/><text fill="#000000" font-family="sans-serif" font-size="13" lengthAdjust="spacing" textLength="36.1436" x="352.12" y="392.9269">emits</text></g><!--reverse link RNG to RS--><g class="link" data-entity-1="RNG" data-entity-2="RS" data-source-line="35" data-uid="lnk46" id="link_RNG_RS"><path d="M146.7232,344.3972 C184.1532,359.1272 233.78,378.52 282.12,396.86 C316.15,409.77 354.7,424 384.06,434.76" fill="none" id="RNG-backto-RS" style="stroke:#181818;stroke-width:1;"/><polygon fill="#181818" points="141.14,342.2,148.05,349.2179,145.7927,344.031,150.9796,341.7736,141.14,342.2" style="stroke:#181818;stroke-width:1;"/><text fill="#000000" font-family="sans-serif" font-size="13" lengthAdjust="spacing" textLength="36.1436" x="283.12" y="392.9269">emits</text></g><!--SRC=[RP9DZu8m48RlyoiQJ-n1l1lZGSJz25a9X1kNIaVjBhGDBIR- -nqgnaKyD8JfypxfJ1l45rIkL9lElZ5kMRo183UjL2V_cwVPv_Sxt3uihCCr4Mp9JAilKg1TbAhXYf_GGZ2O4caTAcnlkWJYXCtdGwpsUnOWMCdr_l23bLijvBeF7R6wrkWTFfb4CT1YzwZf3fG-es1EGn2ro1sAKZq24KHitX7UfvPCMiOXI3GNOoo1P891a69hwMpKzdysfTPfJRK3FZQdyHPelR0NHl1dTq7kufNRmsDpGURYfJd3XYvYRCx8dBqmGx3ZbTFjjLGvjXTPeSTtEUpo6non9JRIsTvhj9LJECiX6-3a3jyB_QIUItJefr8nfOefbJqeKDeXNRfX-kXx-zhk5rlkkEgg6ZiBGgDb137R6QDR1rOtwCuq5NfllqYTp_oOwEdu8Sr2-41LeS_8njJOK1L52AX4NyG_]--></g></svg>