<svg xmlns="http://www.w3.org/2000/svg" xmlns:xlink="http://www.w3.org/1999/xlink" contentStyleType="text/css" data-diagram-type="DESCRIPTION" height="479px" preserveAspectRatio="none" style="width:881px;height:479px;background:#FFFFFF;" version="1.1" viewBox="0 0 881 479" width="881px" zoomAndPan="magnify"><defs/><g><!--entity EB--><g class="entity" data-entity="EB" data-source-line="1" data-uid="ent0002" id="entity_EB"><ellipse cx="679.1182" cy="175.1685" fill="#F1F1F1" rx="29.5982" ry="24.2785" style="stroke:#181818;stroke-width:0.5;"/><text fill="#000000" font-family="sans-serif" font-size="14" lengthAdjust="spacing" textLength="40.1064" x="659.065" y="173.9864">Event</text><text fill="#000000" font-family="sans-serif" font-size="14" lengthAdjust="spacing" textLength="25.7715" x="666.2324" y="190.2833">Bus</text></g><!--entity SPRING--><g class="entity" data-entity="SPRING" data-source-line="2" data-uid="ent0003" id="entity_SPRING"><ellipse cx="840.1162" cy="175.1736" fill="#F1F1F1" rx="34.9462" ry="14.5236" style="stroke:#181818;stroke-width:0.5;"/><text fill="#000000" font-family="sans-serif" font-size="14" lengthAdjust="spacing" textLength="45.1787" x="817.5268" y="179.8221">Spring</text></g><!--entity EL--><g class="entity" data-entity="EL" data-source-line="4" data-uid="ent0006" id="entity_EL"><ellipse cx="679.1158" cy="30.6735" fill="#F1F1F1" rx="40.4558" ry="24.6735" style="stroke:#181818;stroke-width:0.5;"/><text fill="#000000" font-family="sans-serif" font-size="14" lengthAdjust="spacing" textLength="40.1064" x="659.0626" y="25.1647">Event</text><text fill="#000000" font-family="sans-serif" font-size="14" lengthAdjust="spacing" textLength="56.3281" x="650.9518" y="41.4616">Listener</text></g><!--entity LCE--><g class="entity" data-entity="LCE" data-source-line="7" data-uid="ent0008" id="entity_LCE"><ellipse cx="470.1221" cy="175.1726" fill="#F1F1F1" rx="63.3421" ry="23.9626" style="stroke:#181818;stroke-width:0.5;"/><text fill="#000000" font-family="sans-serif" font-size="14" font-style="italic" lengthAdjust="spacing" textLength="45.5957" x="447.3242" y="168.5606">Object</text><text fill="#000000" font-family="sans-serif" font-size="14" lengthAdjust="spacing" textLength="93.8232" x="423.2105" y="184.8574">LifecyleEvent</text></g><!--entity C--><g class="entity" data-entity="C" data-source-line="9" data-uid="ent0010" id="entity_C"><ellipse cx="831.1185" cy="319.9637" fill="#F1F1F1" rx="40.0985" ry="24.7037" style="stroke:#181818;stroke-width:0.5;"/><text fill="#000000" font-family="sans-serif" font-size="14" lengthAdjust="spacing" textLength="55.7129" x="803.262" y="318.4266">Created</text><text fill="#000000" font-family="sans-serif" font-size="14" lengthAdjust="spacing" textLength="40.1064" x="811.0652" y="334.7235">Event</text></g><!--entity L--><g class="entity" data-entity="L" data-source-line="11" data-uid="ent0013" id="entity_L"><ellipse cx="718.1244" cy="319.9638" fill="#F1F1F1" rx="37.5744" ry="24.9538" style="stroke:#181818;stroke-width:0.5;"/><text fill="#000000" font-family="sans-serif" font-size="14" lengthAdjust="spacing" textLength="51.3311" x="692.4589" y="318.0508">Loaded</text><text fill="#000000" font-family="sans-serif" font-size="14" lengthAdjust="spacing" textLength="40.1064" x="698.0712" y="334.3477">Event</text></g><!--entity PNG--><g class="entity" data-entity="PNG" data-source-line="14" data-uid="ent0016" id="entity_PNG"><ellipse cx="598.1224" cy="319.9604" fill="#F1F1F1" rx="47.5924" ry="24.2404" style="stroke:#181818;stroke-width:0.5;"/><text fill="#000000" font-family="sans-serif" font-size="14" lengthAdjust="spacing" textLength="68.4277" x="563.9085" y="319.135">Persisting</text><text fill="#000000" font-family="sans-serif" font-size="14" lengthAdjust="spacing" textLength="40.1064" x="578.0691" y="335.4319">Event</text></g><!--entity PED--><g class="entity" data-entity="PED" data-source-line="16" data-uid="ent0019" id="entity_PED"><ellipse cx="470.1152" cy="319.9605" fill="#F1F1F1" rx="45.1252" ry="24.3605" style="stroke:#181818;stroke-width:0.5;"/><text fill="#000000" font-family="sans-serif" font-size="14" lengthAdjust="spacing" textLength="64.2783" x="437.976" y="318.9486">Persisted</text><text fill="#000000" font-family="sans-serif" font-size="14" lengthAdjust="spacing" textLength="40.1064" x="450.062" y="335.2455">Event</text></g><!--entity UNG--><g class="entity" data-entity="UNG" data-source-line="19" data-uid="ent0022" id="entity_UNG"><ellipse cx="345.1154" cy="319.958" fill="#F1F1F1" rx="44.8054" ry="24.378" style="stroke:#181818;stroke-width:0.5;"/><text fill="#000000" font-family="sans-serif" font-size="14" lengthAdjust="spacing" textLength="63.7383" x="313.2463" y="318.919">Updating</text><text fill="#000000" font-family="sans-serif" font-size="14" lengthAdjust="spacing" textLength="40.1064" x="325.0622" y="335.2159">Event</text></g><!--entity UED--><g class="entity" data-entity="UED" data-source-line="21" data-uid="ent0025" id="entity_UED"><ellipse cx="223.1202" cy="319.9592" fill="#F1F1F1" rx="42.3602" ry="24.5292" style="stroke:#181818;stroke-width:0.5;"/><text fill="#000000" font-family="sans-serif" font-size="14" lengthAdjust="spacing" textLength="59.5889" x="193.3258" y="318.6878">Updated</text><text fill="#000000" font-family="sans-serif" font-size="14" lengthAdjust="spacing" textLength="40.1064" x="203.067" y="334.9846">Event</text></g><!--entity RNG--><g class="entity" data-entity="RNG" data-source-line="24" data-uid="ent0028" id="entity_RNG"><ellipse cx="97.1177" cy="319.959" fill="#F1F1F1" rx="48.8177" ry="24.189" style="stroke:#181818;stroke-width:0.5;"/><text fill="#000000" font-family="sans-serif" font-size="14" lengthAdjust="spacing" textLength="70.4785" x="61.8784" y="319.2139">Removing</text><text fill="#000000" font-family="sans-serif" font-size="14" lengthAdjust="spacing" textLength="40.1064" x="77.0644" y="335.5108">Event</text></g><!--entity FS--><g class="entity" data-entity="FS" data-source-line="27" data-uid="ent0031" id="entity_FS"><ellipse cx="831.1201" cy="447.8927" fill="#F1F1F1" rx="39.9501" ry="25.9727" style="stroke:#181818;stroke-width:0.5;"/><text fill="#000000" font-family="sans-serif" font-size="14" lengthAdjust="spacing" textLength="52.4248" x="804.9077" y="444.4983">Factory</text><text fill="#000000" font-family="sans-serif" font-size="14" lengthAdjust="spacing" textLength="51.7412" x="805.2495" y="460.7952">Service</text></g><!--entity RS--><g class="entity" data-entity="RS" data-source-line="29" data-uid="ent0034" id="entity_RS"><ellipse cx="385.1228" cy="447.8879" fill="#F1F1F1" rx="52.7228" ry="24.5879" style="stroke:#181818;stroke-width:0.5;"/><text fill="#000000" font-family="sans-serif" font-size="14" lengthAdjust="spacing" textLength="75.0723" x="347.5867" y="446.5268">Repository</text><text fill="#000000" font-family="sans-serif" font-size="14" lengthAdjust="spacing" textLength="51.7412" x="359.2522" y="462.8236">Service</text></g><g class="entity" data-entity="GMN47" data-source-line="38" data-uid="ent0048" id="entity_GMN47"><path d="M6,132.34 L6,218.0041 A0,0 0 0 0 6,218.0041 L93.12,218.0041 L97.12,295.39 L101.12,218.0041 L188.2305,218.0041 A0,0 0 0 0 188.2305,218.0041 L188.2305,142.34 L178.2305,132.34 L6,132.34 A0,0 0 0 0 6,132.34" fill="#FEFFDD" style="stroke:#181818;stroke-width:0.5;"/><path d="M178.2305,132.34 L178.2305,142.34 L188.2305,142.34 L178.2305,132.34" fill="#FEFFDD" style="stroke:#181818;stroke-width:0.5;"/><text fill="#000000" font-family="sans-serif" font-size="13" lengthAdjust="spacing" textLength="93.5454" x="12" y="149.4069">JPA/Eclipselink</text><text fill="#000000" font-family="sans-serif" font-size="13" lengthAdjust="spacing" textLength="110.4429" x="12" y="164.5397">does not support</text><text fill="#000000" font-family="sans-serif" font-size="13" lengthAdjust="spacing" textLength="107.8086" x="12" y="179.6725">something like a</text><text fill="#000000" font-family="sans-serif" font-size="13" lengthAdjust="spacing" textLength="119.0566" x="12" y="194.8053">"Removed Event".</text><text fill="#000000" font-family="sans-serif" font-size="13" lengthAdjust="spacing" textLength="161.2305" x="12" y="209.9381">Hence not implemented.</text></g><!--reverse link EB to SPRING--><g class="link" data-entity-1="EB" data-entity-2="SPRING" data-source-line="3" data-uid="lnk5" id="link_EB_SPRING"><path d="M715.02,175.17 C742.12,175.17 776.08,175.17 804.76,175.17" fill="none" id="EB-backto-SPRING" style="stroke:#181818;stroke-width:1;stroke-dasharray:7,7;"/><polygon fill="#181818" points="709.02,175.17,718.02,179.17,714.02,175.17,718.02,171.17,709.02,175.17" style="stroke:#181818;stroke-width:1;"/><text fill="#000000" font-family="sans-serif" font-size="13" lengthAdjust="spacing" textLength="60.2583" x="726.94" y="153.2369">provides/</text><text fill="#000000" font-family="sans-serif" font-size="13" lengthAdjust="spacing" textLength="59.8584" x="727.14" y="168.3697">manages</text></g><!--link EL to EB--><g class="link" data-entity-1="EL" data-entity-2="EB" data-source-line="5" data-uid="lnk7" id="link_EL_EB"><path d="M679.12,55.52 C679.12,81.99 679.12,118.42 679.12,144.72" fill="none" id="EL-to-EB" style="stroke:#181818;stroke-width:1;"/><polygon fill="#181818" points="679.12,150.72,683.12,141.72,679.12,145.72,675.12,141.72,679.12,150.72" style="stroke:#181818;stroke-width:1;"/><text fill="#000000" font-family="sans-serif" font-size="13" lengthAdjust="spacing" textLength="42.104" x="680.12" y="98.4069">listens</text></g><!--link LCE to EB--><g class="link" data-entity-1="LCE" data-entity-2="EB" data-source-line="8" data-uid="lnk9" id="link_LCE_EB"><path d="M533.67,175.17 C571.98,175.17 613.01,175.17 643.03,175.17" fill="none" id="LCE-to-EB" style="stroke:#181818;stroke-width:1;"/><polygon fill="#181818" points="649.03,175.17,640.03,171.17,644.03,175.17,640.03,179.17,649.03,175.17" style="stroke:#181818;stroke-width:1;"/><text fill="#000000" font-family="sans-serif" font-size="13" lengthAdjust="spacing" textLength="80.4121" x="551.49" y="168.2369">published to</text></g><!--reverse link LCE to C--><g class="link" data-entity-1="LCE" data-entity-2="C" data-source-line="10" data-uid="lnk12" id="link_LCE_C"><path d="M519.4988,195.1372 C578.5188,217.8772 681.22,257.73 773.12,295.01 C781.29,298.32 790.1,301.94 798.32,305.33" fill="none" id="LCE-backto-C" style="stroke:#181818;stroke-width:1;"/><polygon fill="#181818" points="513.9,192.98,520.8601,199.9483,518.5657,194.7776,523.7363,192.4832,513.9,192.98" style="stroke:#181818;stroke-width:1;"/><text fill="#000000" font-family="sans-serif" font-size="13" lengthAdjust="spacing" textLength="22.4834" x="691.12" y="261.0769">is a</text></g><!--reverse link LCE to L--><g class="link" data-entity-1="LCE" data-entity-2="L" data-source-line="12" data-uid="lnk15" id="link_LCE_L"><path d="M509.2797,198.7239 C558.7597,227.2139 644.54,276.6 690.3,302.94" fill="none" id="LCE-backto-L" style="stroke:#181818;stroke-width:1;"/><polygon fill="#181818" points="504.08,195.73,509.8836,203.6873,508.4131,198.2249,513.8754,196.7544,504.08,195.73" style="stroke:#181818;stroke-width:1;"/><text fill="#000000" font-family="sans-serif" font-size="13" lengthAdjust="spacing" textLength="22.4834" x="624.12" y="261.0769">is a</text></g><!--reverse link LCE to PNG--><g class="link" data-entity-1="LCE" data-entity-2="PNG" data-source-line="15" data-uid="lnk18" id="link_LCE_PNG"><path d="M493.8353,202.6374 C518.1053,229.7074 555.02,270.89 579,297.64" fill="none" id="LCE-backto-PNG" style="stroke:#181818;stroke-width:1;"/><polygon fill="#181818" points="489.83,198.17,492.8597,207.5413,493.1678,201.8928,498.8162,202.2009,489.83,198.17" style="stroke:#181818;stroke-width:1;"/><text fill="#000000" font-family="sans-serif" font-size="13" lengthAdjust="spacing" textLength="22.4834" x="550.12" y="261.0769">is a</text></g><!--reverse link LCE to PED--><g class="link" data-entity-1="LCE" data-entity-2="PED" data-source-line="17" data-uid="lnk21" id="link_LCE_PED"><path d="M470.12,205.43 C470.12,231.83 470.12,268.65 470.12,295.24" fill="none" id="LCE-backto-PED" style="stroke:#181818;stroke-width:1;"/><polygon fill="#181818" points="470.12,199.43,466.12,208.43,470.12,204.43,474.12,208.43,470.12,199.43" style="stroke:#181818;stroke-width:1;"/><text fill="#000000" font-family="sans-serif" font-size="13" lengthAdjust="spacing" textLength="22.4834" x="471.12" y="261.0769">is a</text></g><!--reverse link LCE to UNG--><g class="link" data-entity-1="LCE" data-entity-2="UNG" data-source-line="20" data-uid="lnk24" id="link_LCE_UNG"><path d="M446.9077,202.6843 C423.2077,229.7543 387.2,270.89 363.78,297.64" fill="none" id="LCE-backto-UNG" style="stroke:#181818;stroke-width:1;"/><polygon fill="#181818" points="450.86,198.17,441.922,202.3066,447.5664,201.9319,447.9411,207.5764,450.86,198.17" style="stroke:#181818;stroke-width:1;"/><text fill="#000000" font-family="sans-serif" font-size="13" lengthAdjust="spacing" textLength="22.4834" x="405.12" y="261.0769">is a</text></g><!--reverse link LCE to UED--><g class="link" data-entity-1="LCE" data-entity-2="UED" data-source-line="22" data-uid="lnk27" id="link_LCE_UED"><path d="M431.0957,198.7331 C382.4757,226.8431 298.81,275.2 252.68,301.87" fill="none" id="LCE-backto-UED" style="stroke:#181818;stroke-width:1;"/><polygon fill="#181818" points="436.29,195.73,426.4964,196.7718,431.9614,198.2326,430.5006,203.6976,436.29,195.73" style="stroke:#181818;stroke-width:1;"/><text fill="#000000" font-family="sans-serif" font-size="13" lengthAdjust="spacing" textLength="22.4834" x="341.12" y="261.0769">is a</text></g><!--reverse link LCE to RNG--><g class="link" data-entity-1="LCE" data-entity-2="RNG" data-source-line="25" data-uid="lnk30" id="link_LCE_RNG"><path d="M420.9966,194.9751 C347.3866,223.1551 205.14,277.61 135.31,304.34" fill="none" id="LCE-backto-RNG" style="stroke:#181818;stroke-width:1;"/><polygon fill="#181818" points="426.6,192.83,416.7648,192.3121,421.9305,194.6176,419.625,199.7833,426.6,192.83" style="stroke:#181818;stroke-width:1;"/><text fill="#000000" font-family="sans-serif" font-size="13" lengthAdjust="spacing" textLength="22.4834" x="274.12" y="261.0769">is a</text></g><!--reverse link C to FS--><g class="link" data-entity-1="C" data-entity-2="FS" data-source-line="28" data-uid="lnk33" id="link_C_FS"><path d="M831.12,350.94 C831.12,372.92 831.12,399.35 831.12,421.7" fill="none" id="C-backto-FS" style="stroke:#181818;stroke-width:1;"/><polygon fill="#181818" points="831.12,344.94,827.12,353.94,831.12,349.94,835.12,353.94,831.12,344.94" style="stroke:#181818;stroke-width:1;"/><text fill="#000000" font-family="sans-serif" font-size="13" lengthAdjust="spacing" textLength="36.1436" x="832.12" y="387.9769">emits</text></g><!--reverse link L to RS--><g class="link" data-entity-1="L" data-entity-2="RS" data-source-line="30" data-uid="lnk36" id="link_L_RS"><path d="M681.5184,336.9842 C673.7284,340.3742 670.87,341.6 663.12,344.91 C613.48,366.14 601.67,372.97 551.12,391.91 C509.89,407.36 462.11,422.95 428.43,433.56" fill="none" id="L-backto-RS" style="stroke:#181818;stroke-width:1;"/><polygon fill="#181818" points="687.02,334.59,677.1714,334.5135,682.4353,336.5851,680.3637,341.849,687.02,334.59" style="stroke:#181818;stroke-width:1;"/><text fill="#000000" font-family="sans-serif" font-size="13" lengthAdjust="spacing" textLength="36.1436" x="595.12" y="387.9769">emits</text></g><!--reverse link PNG to RS--><g class="link" data-entity-1="PNG" data-entity-2="RS" data-source-line="31" data-uid="lnk38" id="link_PNG_RS"><path d="M562.682,342.1919 C538.662,356.5719 509.35,374.06 479.12,391.91 C458.6,404.03 435.51,417.53 417.35,428.13" fill="none" id="PNG-backto-RS" style="stroke:#181818;stroke-width:1;"/><polygon fill="#181818" points="567.83,339.11,558.0534,340.3009,563.54,341.6783,562.1626,347.1649,567.83,339.11" style="stroke:#181818;stroke-width:1;"/><text fill="#000000" font-family="sans-serif" font-size="13" lengthAdjust="spacing" textLength="36.1436" x="506.12" y="387.9769">emits</text></g><!--reverse link PED to RS--><g class="link" data-entity-1="PED" data-entity-2="RS" data-source-line="32" data-uid="lnk40" id="link_PED_RS"><path d="M451.7546,348.1541 C436.4146,370.8941 416.04,401.08 400.54,424.04" fill="none" id="PED-backto-RS" style="stroke:#181818;stroke-width:1;"/><polygon fill="#181818" points="455.11,343.18,446.7608,348.4041,452.3138,347.325,453.3929,352.878,455.11,343.18" style="stroke:#181818;stroke-width:1;"/><text fill="#000000" font-family="sans-serif" font-size="13" lengthAdjust="spacing" textLength="36.1436" x="434.12" y="387.9769">emits</text></g><!--reverse link UNG to RS--><g class="link" data-entity-1="UNG" data-entity-2="RS" data-source-line="33" data-uid="lnk42" id="link_UNG_RS"><path d="M353.4226,350.135 C357.4226,364.005 361.06,376.13 366.12,391.91 C369.41,402.2 373.27,413.49 376.65,423.15" fill="none" id="UNG-backto-RS" style="stroke:#181818;stroke-width:1;"/><polygon fill="#181818" points="351.76,344.37,350.4105,354.126,353.1455,349.1742,358.0973,351.9092,351.76,344.37" style="stroke:#181818;stroke-width:1;"/><text fill="#000000" font-family="sans-serif" font-size="13" lengthAdjust="spacing" textLength="36.1436" x="367.12" y="387.9769">emits</text></g><!--reverse link UED to RS--><g class="link" data-entity-1="UED" data-entity-2="RS" data-source-line="34" data-uid="lnk44" id="link_UED_RS"><path d="M252.4577,343.7716 C282.3777,367.0216 327.93,402.44 358.66,426.32" fill="none" id="UED-backto-RS" style="stroke:#181818;stroke-width:1;"/><polygon fill="#181818" points="247.72,340.09,252.3722,348.7708,251.6681,343.158,257.281,342.4539,247.72,340.09" style="stroke:#181818;stroke-width:1;"/><text fill="#000000" font-family="sans-serif" font-size="13" lengthAdjust="spacing" textLength="36.1436" x="315.12" y="387.9769">emits</text></g><!--reverse link RNG to RS--><g class="link" data-entity-1="RNG" data-entity-2="RS" data-source-line="35" data-uid="lnk46" id="link_RNG_RS"><path d="M136.6989,340.1368 C167.3589,354.8568 208.26,374.14 249.12,391.91 C281.22,405.89 318.08,420.71 345.31,431.44" fill="none" id="RNG-backto-RS" style="stroke:#181818;stroke-width:1;"/><polygon fill="#181818" points="131.29,337.54,137.6721,345.0412,135.7974,339.704,141.1346,337.8293,131.29,337.54" style="stroke:#181818;stroke-width:1;"/><text fill="#000000" font-family="sans-serif" font-size="13" lengthAdjust="spacing" textLength="36.1436" x="250.12" y="387.9769">emits</text></g><!--SRC=[RP9DZu8m48RlyoiQJzs3UZV6P6LnFzBi4WWtBWYZTeMseSN4Vxz3nRW8XuOmVTuddMbvU47bChLjxGlBBGktm1FJI7NqlqaKVtw_m-t35jLYGmHRCTFeYopHBZDLvoe_eWNUcuIq3XKsDvs0KB3vl8zLViy2yBNS_En_iN3hfTnqeGCMrmgzmoT5408jTe-QTa_f4vRCQU11Wxd3CbEFG001cxU4TwaLavRbm8NEoo4cG8mmu14sbiv6RVzd8sgTrbZRuqDp5Bu1hGbxQihysPsIEvroUtXeJicSJffZhEaYXkQOpF646VWkBvnkhfbAiBd80Zs-Is2NtE20hR2MpdPUewqSmt42SG-BEtmlT9DwBj6Xdqhfc4h7LFoWG6c7TEc6wOFlxIjwNOP59Ot5Igepb1ej8uZPrXZTEB2wHdUYgT1xEoDrFlDZegVZXpHRm0Ug0dr6rgR2cgfOBW1LsHNn3m00]--></g></svg>