<svg xmlns="http://www.w3.org/2000/svg" xmlns:xlink="http://www.w3.org/1999/xlink" version="1.1" data-diagram-type="DESCRIPTION" style="width:889px;height:487px;background:#FFFFFF;" width="889px" height="487px" viewBox="0 0 889 487" zoomAndPan="magnify" preserveAspectRatio="none" contentStyleType="text/css"><?plantuml 1.2026.8?><defs/><g font-family="sans-serif" lengthAdjust="spacing"><!--entity EB--><g class="entity" data-qualified-name="EB" id="ent0001" data-source-line="1"><ellipse cx="679.118" cy="175.169" rx="29.598" ry="24.279" fill="#F1F1F1" style="stroke:#181818;stroke-width:0.5;"/><text x="659.065" y="173.986" fill="#000" font-size="14" textLength="40.106">Event</text><text x="666.232" y="190.283" fill="#000" font-size="14" textLength="25.771">Bus</text></g><!--entity SPRING--><g class="entity" data-qualified-name="SPRING" id="ent0002" data-source-line="2"><ellipse cx="840.116" cy="175.174" rx="34.946" ry="14.524" fill="#F1F1F1" style="stroke:#181818;stroke-width:0.5;"/><text x="817.527" y="179.822" fill="#000" font-size="14" textLength="45.179">Spring</text></g><!--entity EL--><g class="entity" data-qualified-name="EL" id="ent0005" data-source-line="4"><ellipse cx="679.116" cy="30.673" rx="40.456" ry="24.673" fill="#F1F1F1" style="stroke:#181818;stroke-width:0.5;"/><text x="659.063" y="25.165" fill="#000" font-size="14" textLength="40.106">Event</text><text x="650.952" y="41.462" fill="#000" font-size="14" textLength="56.328">Listener</text></g><!--entity LCE--><g class="entity" data-qualified-name="LCE" id="ent0007" data-source-line="7"><ellipse cx="470.122" cy="175.173" rx="63.342" ry="23.963" fill="#F1F1F1" style="stroke:#181818;stroke-width:0.5;"/><text x="447.324" y="168.561" fill="#000" font-size="14" textLength="45.596" font-style="italic">Object</text><text x="423.21" y="184.857" fill="#000" font-size="14" textLength="93.823">LifecyleEvent</text></g><!--entity C--><g class="entity" data-qualified-name="C" id="ent0009" data-source-line="9"><ellipse cx="831.118" cy="319.964" rx="40.098" ry="24.704" fill="#F1F1F1" style="stroke:#181818;stroke-width:0.5;"/><text x="803.262" y="318.427" fill="#000" font-size="14" textLength="55.713">Created</text><text x="811.065" y="334.723" fill="#000" font-size="14" textLength="40.106">Event</text></g><!--entity L--><g class="entity" data-qualified-name="L" id="ent0012" data-source-line="11"><ellipse cx="718.124" cy="319.964" rx="37.574" ry="24.954" fill="#F1F1F1" style="stroke:#181818;stroke-width:0.5;"/><text x="692.459" y="318.051" fill="#000" font-size="14" textLength="51.331">Loaded</text><text x="698.071" y="334.348" fill="#000" font-size="14" textLength="40.106">Event</text></g><!--entity PNG--><g class="entity" data-qualified-name="PNG" id="ent0015" data-source-line="14"><ellipse cx="598.122" cy="319.96" rx="47.592" ry="24.24" fill="#F1F1F1" style="stroke:#181818;stroke-width:0.5;"/><text x="563.908" y="319.135" fill="#000" font-size="14" textLength="68.428">Persisting</text><text x="578.069" y="335.432" fill="#000" font-size="14" textLength="40.106">Event</text></g><!--entity PED--><g class="entity" data-qualified-name="PED" id="ent0018" data-source-line="16"><ellipse cx="470.115" cy="319.961" rx="45.125" ry="24.361" fill="#F1F1F1" style="stroke:#181818;stroke-width:0.5;"/><text x="437.976" y="318.949" fill="#000" font-size="14" textLength="64.278">Persisted</text><text x="450.062" y="335.245" fill="#000" font-size="14" textLength="40.106">Event</text></g><!--entity UNG--><g class="entity" data-qualified-name="UNG" id="ent0021" data-source-line="19"><ellipse cx="345.115" cy="319.958" rx="44.805" ry="24.378" fill="#F1F1F1" style="stroke:#181818;stroke-width:0.5;"/><text x="313.246" y="318.919" fill="#000" font-size="14" textLength="63.738">Updating</text><text x="325.062" y="335.216" fill="#000" font-size="14" textLength="40.106">Event</text></g><!--entity UED--><g class="entity" data-qualified-name="UED" id="ent0024" data-source-line="21"><ellipse cx="223.12" cy="319.959" rx="42.36" ry="24.529" fill="#F1F1F1" style="stroke:#181818;stroke-width:0.5;"/><text x="193.326" y="318.688" fill="#000" font-size="14" textLength="59.589">Updated</text><text x="203.067" y="334.985" fill="#000" font-size="14" textLength="40.106">Event</text></g><!--entity RNG--><g class="entity" data-qualified-name="RNG" id="ent0027" data-source-line="24"><ellipse cx="97.118" cy="319.959" rx="48.818" ry="24.189" fill="#F1F1F1" style="stroke:#181818;stroke-width:0.5;"/><text x="61.878" y="319.214" fill="#000" font-size="14" textLength="70.479">Removing</text><text x="77.064" y="335.511" fill="#000" font-size="14" textLength="40.106">Event</text></g><!--entity FS--><g class="entity" data-qualified-name="FS" id="ent0030" data-source-line="27"><ellipse cx="831.12" cy="447.893" rx="39.95" ry="25.973" fill="#F1F1F1" style="stroke:#181818;stroke-width:0.5;"/><text x="804.908" y="444.498" fill="#000" font-size="14" textLength="52.425">Factory</text><text x="805.249" y="460.795" fill="#000" font-size="14" textLength="51.741">Service</text></g><!--entity RS--><g class="entity" data-qualified-name="RS" id="ent0033" data-source-line="29"><ellipse cx="385.123" cy="447.888" rx="52.723" ry="24.588" fill="#F1F1F1" style="stroke:#181818;stroke-width:0.5;"/><text x="347.587" y="446.527" fill="#000" font-size="14" textLength="75.072">Repository</text><text x="359.252" y="462.824" fill="#000" font-size="14" textLength="51.741">Service</text></g><g class="entity" data-qualified-name="GMN46" id="ent0047" data-source-line="38"><path d="M6,132.34 L6,218.004 A0,0 0 0 0 6,218.004 L93.12,218.004 L97.12,295.39 L101.12,218.004 L188.23,218.004 A0,0 0 0 0 188.23,218.004 L188.23,142.34 L178.23,132.34 L6,132.34 A0,0 0 0 0 6,132.34" style="stroke:#181818;stroke-width:0.5;" fill="#FEFFDD"/><path d="M178.23,132.34 L178.23,142.34 L188.23,142.34 L178.23,132.34" style="stroke:#181818;stroke-width:0.5;" fill="#FEFFDD"/><text x="12" y="149.407" fill="#000" font-size="13" textLength="93.545">JPA/Eclipselink</text><text x="12" y="164.54" fill="#000" font-size="13" textLength="110.443">does not support</text><text x="12" y="179.673" fill="#000" font-size="13" textLength="107.809">something like a</text><text x="12" y="194.805" fill="#000" font-size="13" textLength="119.057">"Removed Event".</text><text x="12" y="209.938" fill="#000" font-size="13" textLength="161.23">Hence not implemented.</text></g><!--reverse link EB to SPRING--><g class="link" data-entity-1="ent0001" data-entity-2="ent0002" id="lnk4" data-source-line="3" data-link-type="dependency"><path d="M714.02,175.17 C741.12,175.17 776.08,175.17 804.76,175.17" style="stroke:#181818;stroke-width:1;stroke-dasharray:7,7;" fill="none" id="EB-backto-SPRING"/><polygon points="709.02,175.17,718.02,179.17,714.02,175.17,718.02,171.17,709.02,175.17" fill="#181818" style="stroke:#181818;stroke-width:1;stroke-linejoin:miter;stroke-miterlimit:10;"/><text x="726.94" y="153.237" fill="#000" font-size="13" textLength="60.258">provides/</text><text x="727.14" y="168.37" fill="#000" font-size="13" textLength="59.858">manages</text></g><!--link EL to EB--><g class="link" data-entity-1="ent0005" data-entity-2="ent0001" id="lnk6" data-source-line="5" data-link-type="dependency"><path d="M679.12,55.52 C679.12,81.99 679.12,119.42 679.12,145.72" style="stroke:#181818;stroke-width:1;" fill="none" id="EL-to-EB"/><polygon points="679.12,150.72,683.12,141.72,679.12,145.72,675.12,141.72,679.12,150.72" fill="#181818" style="stroke:#181818;stroke-width:1;stroke-linejoin:miter;stroke-miterlimit:10;"/><text x="680.12" y="98.407" fill="#000" font-size="13" textLength="42.104">listens</text></g><!--link LCE to EB--><g class="link" data-entity-1="ent0007" data-entity-2="ent0001" id="lnk8" data-source-line="8" data-link-type="dependency"><path d="M533.67,175.17 C571.98,175.17 614.01,175.17 644.03,175.17" style="stroke:#181818;stroke-width:1;" fill="none" id="LCE-to-EB"/><polygon points="649.03,175.17,640.03,171.17,644.03,175.17,640.03,179.17,649.03,175.17" fill="#181818" style="stroke:#181818;stroke-width:1;stroke-linejoin:miter;stroke-miterlimit:10;"/><text x="551.49" y="168.237" fill="#000" font-size="13" textLength="80.412">published to</text></g><!--reverse link LCE to C--><g class="link" data-entity-1="ent0007" data-entity-2="ent0009" id="lnk11" data-source-line="10" data-link-type="dependency"><path d="M518.439,194.638 C556.179,209.088 607.48,228.85 656.12,248.01 C708.25,268.55 721.22,273.87 773.12,295.01 C781.29,298.34 790.1,301.96 798.32,305.35" style="stroke:#181818;stroke-width:1;" fill="none" id="LCE-backto-C"/><polygon points="513.77,192.85,520.745,199.804,518.439,194.638,523.605,192.333,513.77,192.85" fill="#181818" style="stroke:#181818;stroke-width:1;stroke-linejoin:miter;stroke-miterlimit:10;"/><text x="699.78" y="261.077" fill="#000" font-size="13" textLength="22.483">is a</text></g><!--reverse link LCE to L--><g class="link" data-entity-1="ent0007" data-entity-2="ent0012" id="lnk14" data-source-line="12" data-link-type="dependency"><path d="M508.413,198.225 C557.893,226.715 644.54,276.6 690.3,302.94" style="stroke:#181818;stroke-width:1;" fill="none" id="LCE-backto-L"/><polygon points="504.08,195.73,509.884,203.687,508.413,198.225,513.875,196.754,504.08,195.73" fill="#181818" style="stroke:#181818;stroke-width:1;stroke-linejoin:miter;stroke-miterlimit:10;"/><text x="624.62" y="261.077" fill="#000" font-size="13" textLength="22.483">is a</text></g><!--reverse link LCE to PNG--><g class="link" data-entity-1="ent0007" data-entity-2="ent0015" id="lnk17" data-source-line="15" data-link-type="dependency"><path d="M493.168,201.893 C517.438,228.963 555.02,270.89 579,297.64" style="stroke:#181818;stroke-width:1;" fill="none" id="LCE-backto-PNG"/><polygon points="489.83,198.17,492.86,207.541,493.168,201.893,498.816,202.201,489.83,198.17" fill="#181818" style="stroke:#181818;stroke-width:1;stroke-linejoin:miter;stroke-miterlimit:10;"/><text x="550.34" y="261.077" fill="#000" font-size="13" textLength="22.483">is a</text></g><!--reverse link LCE to PED--><g class="link" data-entity-1="ent0007" data-entity-2="ent0018" id="lnk20" data-source-line="17" data-link-type="dependency"><path d="M470.12,204.43 C470.12,230.83 470.12,268.65 470.12,295.24" style="stroke:#181818;stroke-width:1;" fill="none" id="LCE-backto-PED"/><polygon points="470.12,199.43,466.12,208.43,470.12,204.43,474.12,208.43,470.12,199.43" fill="#181818" style="stroke:#181818;stroke-width:1;stroke-linejoin:miter;stroke-miterlimit:10;"/><text x="471.12" y="261.077" fill="#000" font-size="13" textLength="22.483">is a</text></g><!--reverse link LCE to UNG--><g class="link" data-entity-1="ent0007" data-entity-2="ent0021" id="lnk23" data-source-line="20" data-link-type="dependency"><path d="M447.566,201.932 C423.866,229.002 387.2,270.89 363.78,297.64" style="stroke:#181818;stroke-width:1;" fill="none" id="LCE-backto-UNG"/><polygon points="450.86,198.17,441.922,202.307,447.566,201.932,447.941,207.576,450.86,198.17" fill="#181818" style="stroke:#181818;stroke-width:1;stroke-linejoin:miter;stroke-miterlimit:10;"/><text x="404.87" y="261.077" fill="#000" font-size="13" textLength="22.483">is a</text></g><!--reverse link LCE to UED--><g class="link" data-entity-1="ent0007" data-entity-2="ent0024" id="lnk26" data-source-line="22" data-link-type="dependency"><path d="M431.961,198.233 C383.341,226.343 298.81,275.2 252.68,301.87" style="stroke:#181818;stroke-width:1;" fill="none" id="LCE-backto-UED"/><polygon points="436.29,195.73,426.496,196.772,431.961,198.233,430.501,203.698,436.29,195.73" fill="#181818" style="stroke:#181818;stroke-width:1;stroke-linejoin:miter;stroke-miterlimit:10;"/><text x="340.21" y="261.077" fill="#000" font-size="13" textLength="22.483">is a</text></g><!--reverse link LCE to RNG--><g class="link" data-entity-1="ent0007" data-entity-2="ent0027" id="lnk29" data-source-line="25" data-link-type="dependency"><path d="M421.93,194.618 C348.32,222.798 205.14,277.61 135.31,304.34" style="stroke:#181818;stroke-width:1;" fill="none" id="LCE-backto-RNG"/><polygon points="426.6,192.83,416.765,192.312,421.93,194.618,419.625,199.783,426.6,192.83" fill="#181818" style="stroke:#181818;stroke-width:1;stroke-linejoin:miter;stroke-miterlimit:10;"/><text x="273.43" y="261.077" fill="#000" font-size="13" textLength="22.483">is a</text></g><!--reverse link C to FS--><g class="link" data-entity-1="ent0009" data-entity-2="ent0030" id="lnk32" data-source-line="28" data-link-type="dependency"><path d="M831.12,349.94 C831.12,371.92 831.12,399.35 831.12,421.7" style="stroke:#181818;stroke-width:1;" fill="none" id="C-backto-FS"/><polygon points="831.12,344.94,827.12,353.94,831.12,349.94,835.12,353.94,831.12,344.94" fill="#181818" style="stroke:#181818;stroke-width:1;stroke-linejoin:miter;stroke-miterlimit:10;"/><text x="832.12" y="387.977" fill="#000" font-size="13" textLength="36.144">emits</text></g><!--reverse link L to RS--><g class="link" data-entity-1="ent0012" data-entity-2="ent0033" id="lnk35" data-source-line="30" data-link-type="dependency"><path d="M682.435,336.585 C674.645,339.975 670.87,341.6 663.12,344.91 C613.48,366.14 601.67,372.97 551.12,391.91 C509.89,407.36 462.11,422.95 428.43,433.56" style="stroke:#181818;stroke-width:1;" fill="none" id="L-backto-RS"/><polygon points="687.02,334.59,677.171,334.513,682.435,336.585,680.364,341.849,687.02,334.59" fill="#181818" style="stroke:#181818;stroke-width:1;stroke-linejoin:miter;stroke-miterlimit:10;"/><text x="595.22" y="387.977" fill="#000" font-size="13" textLength="36.144">emits</text></g><!--reverse link PNG to RS--><g class="link" data-entity-1="ent0015" data-entity-2="ent0033" id="lnk37" data-source-line="31" data-link-type="dependency"><path d="M563.54,341.678 C539.52,356.058 509.35,374.06 479.12,391.91 C458.6,404.03 435.51,417.53 417.35,428.13" style="stroke:#181818;stroke-width:1;" fill="none" id="PNG-backto-RS"/><polygon points="567.83,339.11,558.053,340.301,563.54,341.678,562.163,347.165,567.83,339.11" fill="#181818" style="stroke:#181818;stroke-width:1;stroke-linejoin:miter;stroke-miterlimit:10;"/><text x="506.24" y="387.977" fill="#000" font-size="13" textLength="36.144">emits</text></g><!--reverse link PED to RS--><g class="link" data-entity-1="ent0018" data-entity-2="ent0033" id="lnk39" data-source-line="32" data-link-type="dependency"><path d="M452.314,347.325 C436.974,370.065 416.04,401.08 400.54,424.04" style="stroke:#181818;stroke-width:1;" fill="none" id="PED-backto-RS"/><polygon points="455.11,343.18,446.761,348.404,452.314,347.325,453.393,352.878,455.11,343.18" fill="#181818" style="stroke:#181818;stroke-width:1;stroke-linejoin:miter;stroke-miterlimit:10;"/><text x="433.7" y="387.977" fill="#000" font-size="13" textLength="36.144">emits</text></g><!--reverse link UNG to RS--><g class="link" data-entity-1="ent0021" data-entity-2="ent0033" id="lnk41" data-source-line="33" data-link-type="dependency"><path d="M353.145,349.174 C357.145,363.044 361.06,376.13 366.12,391.91 C369.41,402.2 373.27,413.49 376.65,423.15" style="stroke:#181818;stroke-width:1;" fill="none" id="UNG-backto-RS"/><polygon points="351.76,344.37,350.411,354.126,353.145,349.174,358.097,351.909,351.76,344.37" fill="#181818" style="stroke:#181818;stroke-width:1;stroke-linejoin:miter;stroke-miterlimit:10;"/><text x="367.12" y="387.977" fill="#000" font-size="13" textLength="36.144">emits</text></g><!--reverse link UED to RS--><g class="link" data-entity-1="ent0024" data-entity-2="ent0033" id="lnk43" data-source-line="34" data-link-type="dependency"><path d="M251.668,343.158 C281.588,366.408 327.93,402.44 358.66,426.32" style="stroke:#181818;stroke-width:1;" fill="none" id="UED-backto-RS"/><polygon points="247.72,340.09,252.372,348.771,251.668,343.158,257.281,342.454,247.72,340.09" fill="#181818" style="stroke:#181818;stroke-width:1;stroke-linejoin:miter;stroke-miterlimit:10;"/><text x="314.81" y="387.977" fill="#000" font-size="13" textLength="36.144">emits</text></g><!--reverse link RNG to RS--><g class="link" data-entity-1="ent0027" data-entity-2="ent0033" id="lnk45" data-source-line="35" data-link-type="dependency"><path d="M135.84,339.91 C166.28,354.66 207.61,374.29 248.12,391.91 C280.43,405.97 317.55,420.79 345,431.49" style="stroke:#181818;stroke-width:1;" fill="none" id="RNG-backto-RS"/><polygon points="131.34,337.73,137.695,345.254,135.84,339.91,141.183,338.055,131.34,337.73" fill="#181818" style="stroke:#181818;stroke-width:1;stroke-linejoin:miter;stroke-miterlimit:10;"/><text x="249.12" y="387.977" fill="#000" font-size="13" textLength="36.144">emits</text></g><?plantuml-src RP9DZu8m48RlyoiQJzs3UZV6P6LnFzBi4WWtBWYZTeMseSN4Vxz3nRW8XuOmVTuddMbvU47bChLjxGlBBGktm1FJI7NqlqaKVtw_m-t35jLYGmHRCTFeYopHBZDLvoe_eWNUcuIq3XKsDvs0KB3vl8zLViy2yBNS_En_iN3hfTnqeGCMrmgzmoT5408jTe-QTa_f4vRCQU11Wxd3CbEFG001cxU4TwaLavRbm8NEoo4cG8mmu14sbiv6RVzd8sgTrbZRuqDp5Bu1hGbxQihysPsIEvroUtXeJicSJffZhEaYXkQOpF646VWkBvnkhfbAiBd80Zs-Is2NtE20hR2MpdPUewqSmt42SG-BEtmlT9DwBj6Xdqhfc4h7LFoWG6c7TEc6wOFlxIjwNOP59Ot5Igepb1ej8uZPrXZTEB2wHdUYgT1xEoDrFlDZegVZXpHRm0Ug0dr6rgR2cgfOBW1LsHNn3m00?></g></svg>