<?xml version="1.0" encoding="us-ascii" standalone="no"?><svg xmlns="http://www.w3.org/2000/svg" xmlns:xlink="http://www.w3.org/1999/xlink" contentStyleType="text/css" height="342px" preserveAspectRatio="none" style="width:709px;height:342px;background:#FFFFFF;" version="1.1" viewBox="0 0 709 342" width="709px" zoomAndPan="magnify"><defs/><g><g id="elem_DO"><ellipse cx="461.3519" cy="132.2573" fill="#F1F1F1" rx="48.9619" ry="26.0473" style="stroke:#181818;stroke-width:0.5;"/><text fill="#000000" font-family="sans-serif" font-size="14" lengthAdjust="spacing" textLength="53" x="434.8519" y="126.9555">Domain</text><text fill="#000000" font-family="sans-serif" font-size="14" lengthAdjust="spacing" textLength="45" x="438.8519" y="143.2524">Object</text></g><g id="elem_E"><ellipse cx="598.3534" cy="225.3556" fill="#F1F1F1" rx="38.4534" ry="14.5556" style="stroke:#181818;stroke-width:0.5;"/><text fill="#000000" font-family="sans-serif" font-size="14" lengthAdjust="spacing" textLength="38" x="577.4903" y="228.8095">Entity</text></g><g id="elem_VM"><ellipse cx="461.3538" cy="225.3573" fill="#F1F1F1" rx="41.1838" ry="26.0473" style="stroke:#181818;stroke-width:0.5;"/><text fill="#000000" font-family="sans-serif" font-size="14" lengthAdjust="spacing" textLength="32" x="445.3538" y="220.0555">View</text><text fill="#000000" font-family="sans-serif" font-size="14" lengthAdjust="spacing" textLength="42" x="440.3538" y="236.3524">Model</text></g><g id="elem_FW"><ellipse cx="461.3479" cy="310.4476" fill="#F1F1F1" rx="83.1379" ry="19.0276" style="stroke:#181818;stroke-width:0.5;"/><text fill="#000000" font-family="sans-serif" font-size="14" font-style="italic" lengthAdjust="spacing" textLength="126" x="397.8014" y="313.4794">Apache Causeway</text></g><g id="elem_PL"><ellipse cx="634.348" cy="310.4473" fill="#F1F1F1" rx="69.468" ry="26.0473" style="stroke:#181818;stroke-width:0.5;"/><text fill="#000000" font-family="sans-serif" font-size="14" lengthAdjust="spacing" textLength="82" x="593.348" y="305.1455">Persistence</text><text fill="#000000" font-family="sans-serif" font-size="14" lengthAdjust="spacing" textLength="36" x="616.348" y="321.4424">Layer</text></g><g id="elem_M"><ellipse cx="143.3514" cy="132.2623" fill="#F1F1F1" rx="35.5514" ry="14.5323" style="stroke:#181818;stroke-width:0.5;"/><text fill="#000000" font-family="sans-serif" font-size="14" lengthAdjust="spacing" textLength="34" x="125.4581" y="135.4255">Mixin</text></g><g id="elem_ME"><ellipse cx="238.3537" cy="132.2619" fill="#F1F1F1" rx="39.9237" ry="14.5719" style="stroke:#181818;stroke-width:0.5;"/><text fill="#000000" font-family="sans-serif" font-size="14" lengthAdjust="spacing" textLength="40" x="215.9705" y="135.8555">Mixee</text></g><g id="elem_S"><ellipse cx="345.3461" cy="132.2644" fill="#F1F1F1" rx="47.3761" ry="14.6644" style="stroke:#181818;stroke-width:0.5;"/><text fill="#000000" font-family="sans-serif" font-size="14" lengthAdjust="spacing" textLength="50" x="317.3461" y="136.0119">Service</text></g><g id="elem_DS"><ellipse cx="324.3519" cy="225.3573" fill="#F1F1F1" rx="48.9619" ry="26.0473" style="stroke:#181818;stroke-width:0.5;"/><text fill="#000000" font-family="sans-serif" font-size="14" lengthAdjust="spacing" textLength="53" x="297.8519" y="220.0555">Domain</text><text fill="#000000" font-family="sans-serif" font-size="14" lengthAdjust="spacing" textLength="50" x="299.3519" y="236.3524">Service</text></g><g id="elem_SPRING"><ellipse cx="345.3491" cy="20.6113" fill="#F1F1F1" rx="42.8991" ry="14.6113" style="stroke:#181818;stroke-width:0.5;"/><text fill="#000000" font-family="sans-serif" font-size="14" font-style="italic" lengthAdjust="spacing" textLength="44" x="320.3491" y="24.3588">Spring</text></g><g id="elem_MB"><ellipse cx="193.3507" cy="225.355" fill="#F1F1F1" rx="52.6007" ry="14.715" style="stroke:#181818;stroke-width:0.5;"/><text fill="#000000" font-family="sans-serif" font-size="14" lengthAdjust="spacing" textLength="57" x="161.8507" y="229.1026">Member</text></g><g id="elem_P"><ellipse cx="59.3472" cy="310.4515" fill="#F1F1F1" rx="53.3472" ry="14.7215" style="stroke:#181818;stroke-width:0.5;"/><text fill="#000000" font-family="sans-serif" font-size="14" lengthAdjust="spacing" textLength="58" x="27.3472" y="314.199">Property</text></g><g id="elem_C"><ellipse cx="193.353" cy="310.4471" fill="#F1F1F1" rx="60.813" ry="14.7771" style="stroke:#181818;stroke-width:0.5;"/><text fill="#000000" font-family="sans-serif" font-size="14" lengthAdjust="spacing" textLength="68" x="156.353" y="314.1947">Collection</text></g><g id="elem_A"><ellipse cx="316.3531" cy="310.4513" fill="#F1F1F1" rx="42.1531" ry="14.6013" style="stroke:#181818;stroke-width:0.5;"/><text fill="#000000" font-family="sans-serif" font-size="14" lengthAdjust="spacing" textLength="43" x="291.8531" y="314.1989">Action</text></g><!--reverse link DO to VM--><g id="link_DO_VM"><path d="M461.35,164.42 C461.35,175.74 461.35,188.38 461.35,199.12 " fill="none" id="DO-backto-VM" style="stroke:#181818;stroke-width:1.0;"/><polygon fill="#181818" points="461.35,159.64,457.35,168.64,461.35,164.64,465.35,168.64,461.35,159.64" style="stroke:#181818;stroke-width:1.0;"/><text fill="#000000" font-family="sans-serif" font-size="13" lengthAdjust="spacing" textLength="22" x="436.8054" y="188.4005">is a</text></g><!--reverse link DO to E--><g id="link_DO_E"><path d="M496.29,156.5 C523.02,174.27 558.8,198.06 580.12,212.24 " fill="none" id="DO-backto-E" style="stroke:#181818;stroke-width:1.0;"/><polygon fill="#181818" points="492.42,153.25,497.6897,161.5705,496.5803,156.0235,502.1273,154.9141,492.42,153.25" style="stroke:#181818;stroke-width:1.0;"/><text fill="#000000" font-family="sans-serif" font-size="13" lengthAdjust="spacing" textLength="22" x="544.5996" y="199.8029">is a</text></g><!--reverse link VM to FW--><g id="link_VM_FW"><path d="M461.35,257.53 C461.35,268.84 461.35,281.23 461.35,291.08 " fill="none" id="VM-backto-FW" style="stroke:#181818;stroke-width:1.0;stroke-dasharray:7.0,7.0;"/><polygon fill="#181818" points="461.35,252.74,457.35,261.74,461.35,257.74,465.35,261.74,461.35,252.74" style="stroke:#181818;stroke-width:1.0;"/><text fill="#000000" font-family="sans-serif" font-size="13" lengthAdjust="spacing" textLength="60" x="462.35" y="272.4769">manages</text></g><!--reverse link E to PL--><g id="link_E_PL"><path d="M606.62,245.45 C611.62,256.98 618.04,271.81 623.45,284.29 " fill="none" id="E-backto-PL" style="stroke:#181818;stroke-width:1.0;stroke-dasharray:7.0,7.0;"/><polygon fill="#181818" points="604.29,241.08,604.1957,250.9284,606.2768,245.6683,611.5369,247.7495,604.29,241.08" style="stroke:#181818;stroke-width:1.0;"/><text fill="#000000" font-family="sans-serif" font-size="13" lengthAdjust="spacing" textLength="60" x="620.35" y="272.4769">manages</text></g><!--reverse link MB to P--><g id="link_MB_P"><path d="M167.81,242.2 C142.4,257.95 103.88,281.84 80.24,296.5 " fill="none" id="MB-backto-P" style="stroke:#181818;stroke-width:1.0;"/><polygon fill="#181818" points="171.71,239.16,161.9559,240.5232,167.466,241.8036,166.1857,247.3136,171.71,239.16" style="stroke:#181818;stroke-width:1.0;"/><text fill="#000000" font-family="sans-serif" font-size="13" lengthAdjust="spacing" textLength="22" x="62.3208" y="284.7456">is a</text></g><!--reverse link MB to C--><g id="link_MB_C"><path d="M193.35,246.17 C193.35,261.29 193.35,281.77 193.35,295.29 " fill="none" id="MB-backto-C" style="stroke:#181818;stroke-width:1.0;"/><polygon fill="#181818" points="193.35,241.45,189.35,250.45,193.35,246.45,197.35,250.45,193.35,241.45" style="stroke:#181818;stroke-width:1.0;"/><text fill="#000000" font-family="sans-serif" font-size="13" lengthAdjust="spacing" textLength="22" x="167.5677" y="284.5913">is a</text></g><!--reverse link MB to A--><g id="link_MB_A"><path d="M217.43,242.62 C241.08,258.6 276.65,282.63 298.07,297.1 " fill="none" id="MB-backto-A" style="stroke:#181818;stroke-width:1.0;"/><polygon fill="#181818" points="213.57,239.34,218.7868,247.6937,217.7126,242.1398,223.2665,241.0656,213.57,239.34" style="stroke:#181818;stroke-width:1.0;"/><text fill="#000000" font-family="sans-serif" font-size="13" lengthAdjust="spacing" textLength="22" x="262.5266" y="284.5539">is a</text></g><!--link DO to MB--><g id="link_DO_MB"><path d="M430.29,152.75 C421.49,157.69 411.75,162.63 402.35,166.31 C344.04,189.16 325.44,181.67 265.35,199.31 C253.56,202.77 240.86,207.02 229.45,211.02 " fill="none" id="DO-to-MB" style="stroke:#181818;stroke-width:1.0;"/><polygon fill="#181818" points="224.97,212.96,234.7872,213.749,229.6871,211.3019,232.1342,206.2017,224.97,212.96" style="stroke:#181818;stroke-width:1.0;"/><text fill="#000000" font-family="sans-serif" font-size="13" lengthAdjust="spacing" textLength="50" x="377.35" y="187.3769">has 1..*</text></g><!--link M to MB--><g id="link_M_MB"><path d="M150.73,146.71 C159.25,162.22 173.32,187.86 182.94,205.4 " fill="none" id="M-to-MB" style="stroke:#181818;stroke-width:1.0;stroke-dasharray:7.0,7.0;"/><polygon fill="#181818" points="185.78,209.56,184.9685,199.7446,183.3797,205.1738,177.9506,203.5851,185.78,209.56" style="stroke:#181818;stroke-width:1.0;"/><text fill="#000000" font-family="sans-serif" font-size="13" lengthAdjust="spacing" textLength="72" x="71.038" y="166.7267">contributes</text><text fill="#000000" font-family="sans-serif" font-size="13" lengthAdjust="spacing" textLength="8" x="105.038" y="181.8595">a</text></g><!--link M to ME--><g id="link_M_ME"><path d="M179.35,132.26 C183.68,132.26 188.01,132.26 192.34,132.26 " fill="none" id="M-to-ME" style="stroke:#181818;stroke-width:1.0;"/><polygon fill="#181818" points="197.25,132.26,188.25,128.26,192.25,132.26,188.25,136.26,197.25,132.26" style="stroke:#181818;stroke-width:1.0;"/><text fill="#000000" font-family="sans-serif" font-size="13" lengthAdjust="spacing" textLength="72" x="166.9118" y="91.8802">contributes</text><text fill="#000000" font-family="sans-serif" font-size="13" lengthAdjust="spacing" textLength="13" x="198.4118" y="107.013">to</text></g><!--link DO to ME--><g id="link_DO_ME"><path d="M432.21,110.93 C403.79,91.6 358.51,64.58 314.35,54.14 C301.37,51.07 295.93,47.52 284.35,54.14 C262.8,66.46 250.35,93.24 243.96,112 " fill="none" id="DO-to-ME" style="stroke:#181818;stroke-width:1.0;"/><polygon fill="#181818" points="242.17,116.54,248.7514,109.213,243.7125,111.7839,241.1417,106.745,242.17,116.54" style="stroke:#181818;stroke-width:1.0;"/><text fill="#000000" font-family="sans-serif" font-size="13" lengthAdjust="spacing" textLength="23" x="285.85" y="56.2869">can</text><text fill="#000000" font-family="sans-serif" font-size="13" lengthAdjust="spacing" textLength="20" x="289.35" y="71.4197">act</text><text fill="#000000" font-family="sans-serif" font-size="13" lengthAdjust="spacing" textLength="15" x="293.85" y="86.5525">as</text></g><!--link SPRING to S--><g id="link_SPRING_S"><path d="M345.35,35.49 C345.35,54.67 345.35,89.37 345.35,111.31 " fill="none" id="SPRING-to-S" style="stroke:#181818;stroke-width:1.0;stroke-dasharray:7.0,7.0;"/><polygon fill="#181818" points="345.35,116.14,349.35,107.14,345.35,111.14,341.35,107.14,345.35,116.14" style="stroke:#181818;stroke-width:1.0;"/><text fill="#000000" font-family="sans-serif" font-size="13" lengthAdjust="spacing" textLength="60" x="346.35" y="71.2869">manages</text></g><!--reverse link S to DS--><g id="link_S_DS"><path d="M340.9,152.58 C337.78,166.11 333.58,184.31 330.2,199 " fill="none" id="S-backto-DS" style="stroke:#181818;stroke-width:1.0;"/><polygon fill="#181818" points="342.16,148.1,336.2539,155.9815,341.0451,152.9741,344.0525,157.7653,342.16,148.1" style="stroke:#181818;stroke-width:1.0;"/><text fill="#000000" font-family="sans-serif" font-size="13" lengthAdjust="spacing" textLength="22" x="307.0086" y="188.2528">is a</text></g><!--link DS to A--><g id="link_DS_A"><path d="M321.91,251.74 C320.72,264.1 319.31,278.71 318.21,290.14 " fill="none" id="DS-to-A" style="stroke:#181818;stroke-width:1.0;"/><polygon fill="#181818" points="317.66,294.8,322.4895,286.2165,318.1307,289.8222,314.525,285.4634,317.66,294.8" style="stroke:#181818;stroke-width:1.0;"/><text fill="#000000" font-family="sans-serif" font-size="13" lengthAdjust="spacing" textLength="50" x="322.35" y="272.4769">has 1..*</text></g><!--SRC=[PP1HJy8m4CUVxQUux0bDDiL7GvRCRHWJ9ejDu6KlPLoWmjgbxKHY_Ews7S61J-l_TxkxNwjtNBHCiGQ4NAF65XuVY3v3nSJEmJ4XHcxGR571DxaPPR9XN5HYllh0sjm2qv3DBS-5uUReSsxZWkEX4eMTlFTiKP0VCfhmE6bPlKL8MQVnm8wJUnxx7wPBCYfHQQuDYXehCMD7LBvKpYuL2lx5XQyKVKBiK-vsK5IVlEu99MVV8SweLw6juc9pDg3b- -lRozKgR5OdY-BPvbB95jNfdgK5gTplxJjmsGkb5YL_CR5299l395o70TV00lSGbo0dqoL4NHJR4Zn1mmJRe2Rbh8VvW94I-gQm2sCdb5xbv2gxLQ4_sYbRApIEeZj22WXgAOpYgywWheJjY2BVyAzYPE3wSp_97UoWcWbmJRNn7-lLFnsu8NJWcz6X3tNPsIG3cLy0]--></g></svg>