<?xml version="1.0" encoding="UTF-8" standalone="no"?><svg xmlns="http://www.w3.org/2000/svg" xmlns:xlink="http://www.w3.org/1999/xlink" contentStyleType="text/css" height="380px" preserveAspectRatio="none" style="width:613px;height:380px;background:#FFFFFF;" version="1.1" viewBox="0 0 613 380" width="613px" zoomAndPan="magnify"><defs/><g><!--MD5=[e9839dd1b2a17272fb9cdfbaf0adb67e]
class RepresentationService--><g id="elem_RepresentationService"><rect codeLine="5" fill="#F1F1F1" height="32" id="RepresentationService" rx="2.5" ry="2.5" style="stroke:#181818;stroke-width:0.5;" width="170" x="22.5" y="341"/><ellipse cx="37.5" cy="357" fill="#ADD1B2" rx="11" ry="11" style="stroke:#181818;stroke-width:1.0;"/><path d="M36.8594,360.7813 Q37.6563,360.7813 38.2188,360.5938 Q38.7969,360.3906 39.0313,360.1719 Q39.2813,359.9375 39.5156,359.75 Q39.7656,359.5469 39.9844,359.5469 Q40.3281,359.5469 40.5781,359.8125 Q40.8438,360.0625 40.8438,360.3906 Q40.8438,361.125 39.6719,361.8125 Q38.5156,362.4844 36.8125,362.4844 Q34.6563,362.4844 33.2344,361.2188 Q31.8125,359.9531 31.8125,358.0156 L31.8125,356.8906 Q31.8125,354.8594 33.1406,353.4844 Q34.4688,352.0938 36.4375,352.0938 Q37.625,352.0938 38.8438,352.6719 L39.0156,352.75 Q39.3125,352.3438 39.7344,352.3438 Q40.2188,352.3438 40.3906,352.6406 Q40.5781,352.9219 40.5781,353.4688 L40.5781,354.8906 Q40.5781,356.0156 39.7344,356.0156 Q39.4219,356.0156 39.2188,355.8438 Q39.0313,355.6719 38.9844,355.5313 Q38.9531,355.375 38.9063,355.1094 Q38.7969,354.5938 38.2813,354.2813 Q37.7656,353.9688 37.3125,353.8906 Q36.875,353.7969 36.5,353.7969 Q35.2188,353.7969 34.3594,354.6719 Q33.5156,355.5469 33.5156,356.8906 L33.5156,357.9844 Q33.5156,359.2656 34.4219,360.0313 Q35.3281,360.7813 36.8594,360.7813 Z " fill="#000000"/><text fill="#000000" font-family="sans-serif" font-size="14" lengthAdjust="spacing" textLength="138" x="51.5" y="362.6">RepresentationService</text></g><!--MD5=[562f899a5549b4d5d6641959136186c6]
class ContentNegotiationService--><g id="elem_ContentNegotiationService"><rect codeLine="7" fill="#F1F1F1" height="32" id="ContentNegotiationService" rx="2.5" ry="2.5" style="stroke:#181818;stroke-width:0.5;" width="201" x="7" y="226"/><ellipse cx="22" cy="242" fill="#B4A7E5" rx="11" ry="11" style="stroke:#181818;stroke-width:1.0;"/><path d="M24.6719,245.2969 Q25.2188,245.2969 25.5,245.4844 Q25.7813,245.6563 25.7813,246.1563 Q25.7813,247 24.6719,247 L19.5313,247 Q18.4063,247 18.4063,246.1563 Q18.4063,245.6563 18.6875,245.4844 Q18.9844,245.2969 19.5313,245.2969 L21.25,245.2969 L21.25,238.7813 L19.5313,238.7813 Q18.4063,238.7813 18.4063,237.9375 Q18.4063,237.4531 18.6875,237.2813 Q18.9844,237.0938 19.5313,237.0938 L24.6719,237.0938 Q25.2188,237.0938 25.5,237.2813 Q25.7813,237.4531 25.7813,237.9375 Q25.7813,238.7813 24.6719,238.7813 L22.9531,238.7813 L22.9531,245.2969 L24.6719,245.2969 Z " fill="#000000"/><text fill="#000000" font-family="sans-serif" font-size="14" font-style="italic" lengthAdjust="spacing" textLength="169" x="36" y="247.6">ContentNegotiationService</text></g><!--MD5=[63b301f88cdc66483f67c9f76c6cc8b9]
class ContentNegotiationServiceSimplified--><g id="elem_ContentNegotiationServiceSimplified"><rect codeLine="9" fill="#F1F1F1" height="56.7999" id="ContentNegotiationServiceSimplified" rx="2.5" ry="2.5" style="stroke:#181818;stroke-width:0.5;" width="317" x="279" y="213.5"/><ellipse cx="322.8" cy="229.5" fill="#ADD1B2" rx="11" ry="11" style="stroke:#181818;stroke-width:1.0;"/><path d="M322.1594,233.2813 Q322.9563,233.2813 323.5188,233.0938 Q324.0969,232.8906 324.3313,232.6719 Q324.5813,232.4375 324.8156,232.25 Q325.0656,232.0469 325.2844,232.0469 Q325.6281,232.0469 325.8781,232.3125 Q326.1438,232.5625 326.1438,232.8906 Q326.1438,233.625 324.9719,234.3125 Q323.8156,234.9844 322.1125,234.9844 Q319.9563,234.9844 318.5344,233.7188 Q317.1125,232.4531 317.1125,230.5156 L317.1125,229.3906 Q317.1125,227.3594 318.4406,225.9844 Q319.7688,224.5938 321.7375,224.5938 Q322.925,224.5938 324.1438,225.1719 L324.3156,225.25 Q324.6125,224.8438 325.0344,224.8438 Q325.5188,224.8438 325.6906,225.1406 Q325.8781,225.4219 325.8781,225.9688 L325.8781,227.3906 Q325.8781,228.5156 325.0344,228.5156 Q324.7219,228.5156 324.5188,228.3438 Q324.3313,228.1719 324.2844,228.0313 Q324.2531,227.875 324.2063,227.6094 Q324.0969,227.0938 323.5813,226.7813 Q323.0656,226.4688 322.6125,226.3906 Q322.175,226.2969 321.8,226.2969 Q320.5188,226.2969 319.6594,227.1719 Q318.8156,228.0469 318.8156,229.3906 L318.8156,230.4844 Q318.8156,231.7656 319.7219,232.5313 Q320.6281,233.2813 322.1594,233.2813 Z " fill="#000000"/><text fill="#000000" font-family="sans-serif" font-size="14" lengthAdjust="spacing" textLength="221" x="343.2" y="235.1">ContentNegotiationServiceSimplified</text><line style="stroke:#181818;stroke-width:0.5;" x1="280" x2="595" y1="245.5" y2="245.5"/><text fill="#000000" font-family="sans-serif" font-size="14" lengthAdjust="spacing" textLength="305" x="285" y="263.4999">// application/json;profile="urn:org.apache.isis/v2"</text></g><!--MD5=[bd9cc58482063d070d8819bc19bf6eb3]
class ContentNegotiationServiceXRoDomainType--><g id="elem_ContentNegotiationServiceXRoDomainType"><rect codeLine="12" fill="#F1F1F1" height="56.7999" id="ContentNegotiationServiceXRoDomainType" rx="2.5" ry="2.5" style="stroke:#181818;stroke-width:0.5;" width="298" x="288.5" y="121.5"/><ellipse cx="303.5" cy="137.5" fill="#ADD1B2" rx="11" ry="11" style="stroke:#181818;stroke-width:1.0;"/><path d="M302.8594,141.2813 Q303.6563,141.2813 304.2188,141.0938 Q304.7969,140.8906 305.0313,140.6719 Q305.2813,140.4375 305.5156,140.25 Q305.7656,140.0469 305.9844,140.0469 Q306.3281,140.0469 306.5781,140.3125 Q306.8438,140.5625 306.8438,140.8906 Q306.8438,141.625 305.6719,142.3125 Q304.5156,142.9844 302.8125,142.9844 Q300.6563,142.9844 299.2344,141.7188 Q297.8125,140.4531 297.8125,138.5156 L297.8125,137.3906 Q297.8125,135.3594 299.1406,133.9844 Q300.4688,132.5938 302.4375,132.5938 Q303.625,132.5938 304.8438,133.1719 L305.0156,133.25 Q305.3125,132.8438 305.7344,132.8438 Q306.2188,132.8438 306.3906,133.1406 Q306.5781,133.4219 306.5781,133.9688 L306.5781,135.3906 Q306.5781,136.5156 305.7344,136.5156 Q305.4219,136.5156 305.2188,136.3438 Q305.0313,136.1719 304.9844,136.0313 Q304.9531,135.875 304.9063,135.6094 Q304.7969,135.0938 304.2813,134.7813 Q303.7656,134.4688 303.3125,134.3906 Q302.875,134.2969 302.5,134.2969 Q301.2188,134.2969 300.3594,135.1719 Q299.5156,136.0469 299.5156,137.3906 L299.5156,138.4844 Q299.5156,139.7656 300.4219,140.5313 Q301.3281,141.2813 302.8594,141.2813 Z " fill="#000000"/><text fill="#000000" font-family="sans-serif" font-size="14" lengthAdjust="spacing" textLength="266" x="317.5" y="143.1">ContentNegotiationServiceXRoDomainType</text><line style="stroke:#181818;stroke-width:0.5;" x1="289.5" x2="585.5" y1="153.5" y2="153.5"/><text fill="#000000" font-family="sans-serif" font-size="14" lengthAdjust="spacing" textLength="252" x="294.5" y="171.4999">// application/xml;x-ro-domain-type="xxx"</text></g><!--MD5=[bf64c5cb7d9a05909f94e79dfa50180a]
class ContentNegotiationServiceForRestfulObjectsV1_0--><g id="elem_ContentNegotiationServiceForRestfulObjectsV1_0"><rect codeLine="15" fill="#F1F1F1" height="56.7999" id="ContentNegotiationServiceForRestfulObjectsV1_0" rx="2.5" ry="2.5" style="stroke:#181818;stroke-width:0.5;" width="337" x="269" y="305.5"/><ellipse cx="284" cy="321.5" fill="#ADD1B2" rx="11" ry="11" style="stroke:#181818;stroke-width:1.0;"/><path d="M283.3594,325.2813 Q284.1563,325.2813 284.7188,325.0938 Q285.2969,324.8906 285.5313,324.6719 Q285.7813,324.4375 286.0156,324.25 Q286.2656,324.0469 286.4844,324.0469 Q286.8281,324.0469 287.0781,324.3125 Q287.3438,324.5625 287.3438,324.8906 Q287.3438,325.625 286.1719,326.3125 Q285.0156,326.9844 283.3125,326.9844 Q281.1563,326.9844 279.7344,325.7188 Q278.3125,324.4531 278.3125,322.5156 L278.3125,321.3906 Q278.3125,319.3594 279.6406,317.9844 Q280.9688,316.5938 282.9375,316.5938 Q284.125,316.5938 285.3438,317.1719 L285.5156,317.25 Q285.8125,316.8438 286.2344,316.8438 Q286.7188,316.8438 286.8906,317.1406 Q287.0781,317.4219 287.0781,317.9688 L287.0781,319.3906 Q287.0781,320.5156 286.2344,320.5156 Q285.9219,320.5156 285.7188,320.3438 Q285.5313,320.1719 285.4844,320.0313 Q285.4531,319.875 285.4063,319.6094 Q285.2969,319.0938 284.7813,318.7813 Q284.2656,318.4688 283.8125,318.3906 Q283.375,318.2969 283,318.2969 Q281.7188,318.2969 280.8594,319.1719 Q280.0156,320.0469 280.0156,321.3906 L280.0156,322.4844 Q280.0156,323.7656 280.9219,324.5313 Q281.8281,325.2813 283.3594,325.2813 Z " fill="#000000"/><text fill="#000000" font-family="sans-serif" font-size="14" lengthAdjust="spacing" textLength="305" x="298" y="327.1">ContentNegotiationServiceForRestfulObjectsV1_0</text><line style="stroke:#181818;stroke-width:0.5;" x1="270" x2="605" y1="337.5" y2="337.5"/><text fill="#000000" font-family="sans-serif" font-size="14" lengthAdjust="spacing" textLength="108" x="275" y="355.4999">// application/json</text></g><!--MD5=[126918a969bee8d30107f913d2d1b4cc]
class ContentMappingService--><g id="elem_ContentMappingService"><rect codeLine="18" fill="#F1F1F1" height="32" id="ContentMappingService" rx="2.5" ry="2.5" style="stroke:#181818;stroke-width:0.5;" width="184" x="345.5" y="7"/><ellipse cx="360.5" cy="23" fill="#B4A7E5" rx="11" ry="11" style="stroke:#181818;stroke-width:1.0;"/><path d="M363.1719,26.2969 Q363.7188,26.2969 364,26.4844 Q364.2813,26.6563 364.2813,27.1563 Q364.2813,28 363.1719,28 L358.0313,28 Q356.9063,28 356.9063,27.1563 Q356.9063,26.6563 357.1875,26.4844 Q357.4844,26.2969 358.0313,26.2969 L359.75,26.2969 L359.75,19.7813 L358.0313,19.7813 Q356.9063,19.7813 356.9063,18.9375 Q356.9063,18.4531 357.1875,18.2813 Q357.4844,18.0938 358.0313,18.0938 L363.1719,18.0938 Q363.7188,18.0938 364,18.2813 Q364.2813,18.4531 364.2813,18.9375 Q364.2813,19.7813 363.1719,19.7813 L361.4531,19.7813 L361.4531,26.2969 L363.1719,26.2969 Z " fill="#000000"/><text fill="#000000" font-family="sans-serif" font-size="14" font-style="italic" lengthAdjust="spacing" textLength="152" x="374.5" y="28.6">ContentMappingService</text></g><!--MD5=[017c0c1550d291b7da197d987bebbac9]
reverse link ContentMappingService to ContentNegotiationServiceXRoDomainType--><g id="link_ContentMappingService_ContentNegotiationServiceXRoDomainType"><path codeLine="20" d="M437.5,44.13 C437.5,65.31 437.5,98.04 437.5,121.5 " fill="none" id="ContentMappingService-backto-ContentNegotiationServiceXRoDomainType" style="stroke:#181818;stroke-width:1.0;"/><polygon fill="#181818" points="437.5,39.01,433.5,48.01,437.5,44.01,441.5,48.01,437.5,39.01" style="stroke:#181818;stroke-width:1.0;"/><text fill="#000000" font-family="sans-serif" font-size="13" lengthAdjust="spacing" textLength="69" x="376" y="70.25">delegates to</text><text fill="#000000" font-family="sans-serif" font-size="13" lengthAdjust="spacing" textLength="75" x="373" y="85.85">(if recognizes</text><text fill="#000000" font-family="sans-serif" font-size="13" lengthAdjust="spacing" textLength="99" x="361" y="101.45">x-ro-domain-type)</text></g><!--MD5=[2b8c896dac46f724cc2e853c726f27d1]
reverse link ContentNegotiationService to ContentNegotiationServiceForRestfulObjectsV1_0--><g id="link_ContentNegotiationService_ContentNegotiationServiceForRestfulObjectsV1_0"><path codeLine="21" d="M183.17,263.59 C210.19,271.35 240.95,280.13 269,288 C289.32,293.7 311.06,299.73 331.91,305.47 " fill="none" id="ContentNegotiationService-backto-ContentNegotiationServiceForRestfulObjectsV1_0" style="stroke:#181818;stroke-width:1.0;"/><polygon fill="none" points="181.08,270.27,163.8,258.01,184.95,256.82,181.08,270.27" style="stroke:#181818;stroke-width:1.0;"/></g><!--MD5=[fb679802bb41fbd3062a55db4fc669d0]
reverse link ContentNegotiationService to ContentNegotiationServiceXRoDomainType--><g id="link_ContentNegotiationService_ContentNegotiationServiceXRoDomainType"><path codeLine="22" d="M183.17,220.41 C210.19,212.65 240.95,203.87 269,196 C289.32,190.3 311.06,184.27 331.91,178.53 " fill="none" id="ContentNegotiationService-backto-ContentNegotiationServiceXRoDomainType" style="stroke:#181818;stroke-width:1.0;"/><polygon fill="none" points="184.95,227.18,163.8,225.99,181.08,213.73,184.95,227.18" style="stroke:#181818;stroke-width:1.0;"/></g><!--MD5=[6de5bf7a8a4eda8f7aa56862f2e175fd]
reverse link ContentNegotiationService to ContentNegotiationServiceSimplified--><g id="link_ContentNegotiationService_ContentNegotiationServiceSimplified"><path codeLine="23" d="M228.31,242 C244.76,242 261.85,242 278.84,242 " fill="none" id="ContentNegotiationService-backto-ContentNegotiationServiceSimplified" style="stroke:#181818;stroke-width:1.0;"/><polygon fill="none" points="228.25,249,208.25,242,228.25,235,228.25,249" style="stroke:#181818;stroke-width:1.0;"/></g><!--MD5=[433454d4d7ee23394687654d86c84147]
reverse link ContentNegotiationService to RepresentationService--><g id="link_ContentNegotiationService_RepresentationService"><path codeLine="25" d="M107.5,263.19 C107.5,285.51 107.5,320.17 107.5,340.52 " fill="none" id="ContentNegotiationService-backto-RepresentationService" style="stroke:#181818;stroke-width:1.0;"/><polygon fill="#181818" points="107.5,258.08,103.5,267.08,107.5,263.08,111.5,267.08,107.5,258.08" style="stroke:#181818;stroke-width:1.0;"/><text fill="#000000" font-family="sans-serif" font-size="13" lengthAdjust="spacing" textLength="69" x="46" y="289.5">delegates to</text><text fill="#000000" font-family="sans-serif" font-size="13" lengthAdjust="spacing" textLength="51" x="55" y="305.1">based on</text><text fill="#000000" font-family="sans-serif" font-size="13" lengthAdjust="spacing" textLength="94" x="33.5" y="320.7">ACCEPT header</text><text fill="#000000" font-family="sans-serif" font-size="13" lengthAdjust="spacing" textLength="18" x="86.5188" y="278.9903">1..*</text></g><!--MD5=[e1ee9e05aef53704935007a2f2413d4f]
@startuml
hide empty members
left to right direction
'skinparam linetype ortho

class RepresentationService {}

interface ContentNegotiationService {
}
class ContentNegotiationServiceSimplified {
    // application/json;profile="urn:org.apache.isis/v2"
}
class ContentNegotiationServiceXRoDomainType {
    // application/xml;x-ro-domain-type="xxx"
}
class ContentNegotiationServiceForRestfulObjectsV1_0 {
    // application/json
}
interface ContentMappingService {}

ContentNegotiationServiceXRoDomainType -l-> ContentMappingService : "delegates to\n(if recognizes\nx-ro-domain-type)"
ContentNegotiationService ^-d- ContentNegotiationServiceForRestfulObjectsV1_0
ContentNegotiationService ^-d- ContentNegotiationServiceXRoDomainType
ContentNegotiationService ^-d- ContentNegotiationServiceSimplified

RepresentationService -l-> "1..*" ContentNegotiationService : delegates to\nbased on\nACCEPT header
@enduml

@startuml
hide empty members
left to right direction

class RepresentationService {}

interface ContentNegotiationService {
}
class ContentNegotiationServiceSimplified {
    // application/json;profile="urn:org.apache.isis/v2"
}
class ContentNegotiationServiceXRoDomainType {
    // application/xml;x-ro-domain-type="xxx"
}
class ContentNegotiationServiceForRestfulObjectsV1_0 {
    // application/json
}
interface ContentMappingService {}

ContentNegotiationServiceXRoDomainType -l-> ContentMappingService : "delegates to\n(if recognizes\nx-ro-domain-type)"
ContentNegotiationService ^-d- ContentNegotiationServiceForRestfulObjectsV1_0
ContentNegotiationService ^-d- ContentNegotiationServiceXRoDomainType
ContentNegotiationService ^-d- ContentNegotiationServiceSimplified

RepresentationService -l-> "1..*" ContentNegotiationService : delegates to\nbased on\nACCEPT header
@enduml

PlantUML version 1.2022.3(Tue Mar 29 16:10:57 GMT 2022)
(GPL source distribution)
Java Runtime: OpenJDK Runtime Environment
JVM: OpenJDK 64-Bit Server VM
Default Encoding: UTF-8
Language: en
Country: US
--></g></svg>