<svg xmlns="http://www.w3.org/2000/svg" xmlns:xlink="http://www.w3.org/1999/xlink" contentStyleType="text/css" data-diagram-type="CLASS" height="376px" preserveAspectRatio="none" style="width:708px;height:376px;background:#FFFFFF;" version="1.1" viewBox="0 0 708 376" width="708px" zoomAndPan="magnify"><defs/><g><!--class RepresentationService--><g class="entity" data-entity="RepresentationService" data-source-line="5" data-uid="ent0002" id="entity_RepresentationService"><rect fill="#F1F1F1" height="32" rx="2.5" ry="2.5" style="stroke:#181818;stroke-width:0.5;" width="191.0039" x="21.86" y="337"/><ellipse cx="36.86" cy="353" fill="#ADD1B2" rx="11" ry="11" style="stroke:#181818;stroke-width:1;"/><path d="M39.8288,358.6406 Q39.2506,358.9375 38.61,359.0781 Q37.9694,359.2344 37.2663,359.2344 Q34.7663,359.2344 33.4381,357.5938 Q32.1256,355.9375 32.1256,352.8125 Q32.1256,349.6875 33.4381,348.0313 Q34.7663,346.375 37.2663,346.375 Q37.9694,346.375 38.61,346.5313 Q39.2663,346.6875 39.8288,346.9844 L39.8288,349.7031 Q39.2038,349.125 38.61,348.8594 Q38.0163,348.5781 37.3913,348.5781 Q36.0475,348.5781 35.36,349.6563 Q34.6725,350.7188 34.6725,352.8125 Q34.6725,354.9063 35.36,355.9844 Q36.0475,357.0469 37.3913,357.0469 Q38.0163,357.0469 38.61,356.7813 Q39.2038,356.5 39.8288,355.9219 L39.8288,358.6406 Z " fill="#000000"/><text fill="#000000" font-family="sans-serif" font-size="14" lengthAdjust="spacing" textLength="159.0039" x="50.86" y="357.8467">RepresentationService</text></g><!--class ContentNegotiationService--><g class="entity" data-entity="ContentNegotiationService" data-source-line="7" data-uid="ent0003" id="entity_ContentNegotiationService"><rect fill="#F1F1F1" height="32" rx="2.5" ry="2.5" style="stroke:#181818;stroke-width:0.5;" width="220.7334" x="7" y="224"/><ellipse cx="22" cy="240" fill="#B4A7E5" rx="11" ry="11" style="stroke:#181818;stroke-width:1;"/><path d="M17.9219,235.7656 L17.9219,233.6094 L25.3125,233.6094 L25.3125,235.7656 L22.8438,235.7656 L22.8438,243.8438 L25.3125,243.8438 L25.3125,246 L17.9219,246 L17.9219,243.8438 L20.3906,243.8438 L20.3906,235.7656 L17.9219,235.7656 Z " fill="#000000"/><text fill="#000000" font-family="sans-serif" font-size="14" font-style="italic" lengthAdjust="spacing" textLength="188.7334" x="36" y="244.8467">ContentNegotiationService</text></g><!--class ContentNegotiationServiceSimplified--><g class="entity" data-entity="ContentNegotiationServiceSimplified" data-source-line="9" data-uid="ent0004" id="entity_ContentNegotiationServiceSimplified"><rect fill="#F1F1F1" height="56.2969" rx="2.5" ry="2.5" style="stroke:#181818;stroke-width:0.5;" width="413.1396" x="288.73" y="211.85"/><ellipse cx="361.9839" cy="227.85" fill="#ADD1B2" rx="11" ry="11" style="stroke:#181818;stroke-width:1;"/><path d="M364.9527,233.4906 Q364.3745,233.7875 363.7339,233.9281 Q363.0933,234.0844 362.3902,234.0844 Q359.8902,234.0844 358.562,232.4438 Q357.2495,230.7875 357.2495,227.6625 Q357.2495,224.5375 358.562,222.8813 Q359.8902,221.225 362.3902,221.225 Q363.0933,221.225 363.7339,221.3813 Q364.3902,221.5375 364.9527,221.8344 L364.9527,224.5531 Q364.3277,223.975 363.7339,223.7094 Q363.1402,223.4281 362.5152,223.4281 Q361.1714,223.4281 360.4839,224.5063 Q359.7964,225.5688 359.7964,227.6625 Q359.7964,229.7563 360.4839,230.8344 Q361.1714,231.8969 362.5152,231.8969 Q363.1402,231.8969 363.7339,231.6313 Q364.3277,231.35 364.9527,230.7719 L364.9527,233.4906 Z " fill="#000000"/><text fill="#000000" font-family="sans-serif" font-size="14" lengthAdjust="spacing" textLength="258.1318" x="382.4839" y="232.6967">ContentNegotiationServiceSimplified</text><line style="stroke:#181818;stroke-width:0.5;" x1="289.73" x2="700.8696" y1="243.85" y2="243.85"/><text fill="#000000" font-family="sans-serif" font-size="14" lengthAdjust="spacing" textLength="401.1396" x="294.73" y="260.8451">// application/json;profile="urn:org.apache.causeway/v2"</text></g><!--class ContentNegotiationServiceXRoDomainType--><g class="entity" data-entity="ContentNegotiationServiceXRoDomainType" data-source-line="12" data-uid="ent0005" id="entity_ContentNegotiationServiceXRoDomainType"><rect fill="#F1F1F1" height="56.2969" rx="2.5" ry="2.5" style="stroke:#181818;stroke-width:0.5;" width="337.2793" x="326.66" y="120.85"/><ellipse cx="341.66" cy="136.85" fill="#ADD1B2" rx="11" ry="11" style="stroke:#181818;stroke-width:1;"/><path d="M344.6288,142.4906 Q344.0506,142.7875 343.41,142.9281 Q342.7694,143.0844 342.0663,143.0844 Q339.5663,143.0844 338.2381,141.4438 Q336.9256,139.7875 336.9256,136.6625 Q336.9256,133.5375 338.2381,131.8813 Q339.5663,130.225 342.0663,130.225 Q342.7694,130.225 343.41,130.3813 Q344.0663,130.5375 344.6288,130.8344 L344.6288,133.5531 Q344.0038,132.975 343.41,132.7094 Q342.8163,132.4281 342.1913,132.4281 Q340.8475,132.4281 340.16,133.5063 Q339.4725,134.5688 339.4725,136.6625 Q339.4725,138.7563 340.16,139.8344 Q340.8475,140.8969 342.1913,140.8969 Q342.8163,140.8969 343.41,140.6313 Q344.0038,140.35 344.6288,139.7719 L344.6288,142.4906 Z " fill="#000000"/><text fill="#000000" font-family="sans-serif" font-size="14" lengthAdjust="spacing" textLength="305.2793" x="355.66" y="141.6967">ContentNegotiationServiceXRoDomainType</text><line style="stroke:#181818;stroke-width:0.5;" x1="327.66" x2="662.9393" y1="152.85" y2="152.85"/><text fill="#000000" font-family="sans-serif" font-size="14" lengthAdjust="spacing" textLength="297.2881" x="332.66" y="169.8451">// application/xml;x-ro-domain-type="xxx"</text></g><!--class ContentNegotiationServiceForRestfulObjectsV1_0--><g class="entity" data-entity="ContentNegotiationServiceForRestfulObjectsV1_0" data-source-line="15" data-uid="ent0006" id="entity_ContentNegotiationServiceForRestfulObjectsV1_0"><rect fill="#F1F1F1" height="56.2969" rx="2.5" ry="2.5" style="stroke:#181818;stroke-width:0.5;" width="379.2041" x="305.7" y="302.85"/><ellipse cx="320.7" cy="318.85" fill="#ADD1B2" rx="11" ry="11" style="stroke:#181818;stroke-width:1;"/><path d="M323.6688,324.4906 Q323.0906,324.7875 322.45,324.9281 Q321.8094,325.0844 321.1063,325.0844 Q318.6063,325.0844 317.2781,323.4438 Q315.9656,321.7875 315.9656,318.6625 Q315.9656,315.5375 317.2781,313.8813 Q318.6063,312.225 321.1063,312.225 Q321.8094,312.225 322.45,312.3813 Q323.1063,312.5375 323.6688,312.8344 L323.6688,315.5531 Q323.0438,314.975 322.45,314.7094 Q321.8563,314.4281 321.2313,314.4281 Q319.8875,314.4281 319.2,315.5063 Q318.5125,316.5688 318.5125,318.6625 Q318.5125,320.7563 319.2,321.8344 Q319.8875,322.8969 321.2313,322.8969 Q321.8563,322.8969 322.45,322.6313 Q323.0438,322.35 323.6688,321.7719 L323.6688,324.4906 Z " fill="#000000"/><text fill="#000000" font-family="sans-serif" font-size="14" lengthAdjust="spacing" textLength="347.2041" x="334.7" y="323.6967">ContentNegotiationServiceForRestfulObjectsV1_0</text><line style="stroke:#181818;stroke-width:0.5;" x1="306.7" x2="683.9041" y1="334.85" y2="334.85"/><text fill="#000000" font-family="sans-serif" font-size="14" lengthAdjust="spacing" textLength="124.4482" x="311.7" y="351.8451">// application/json</text></g><!--class ContentMappingService--><g class="entity" data-entity="ContentMappingService" data-source-line="18" data-uid="ent0007" id="entity_ContentMappingService"><rect fill="#F1F1F1" height="32" rx="2.5" ry="2.5" style="stroke:#181818;stroke-width:0.5;" width="199.501" x="395.55" y="7"/><ellipse cx="410.55" cy="23" fill="#B4A7E5" rx="11" ry="11" style="stroke:#181818;stroke-width:1;"/><path d="M406.4719,18.7656 L406.4719,16.6094 L413.8625,16.6094 L413.8625,18.7656 L411.3938,18.7656 L411.3938,26.8438 L413.8625,26.8438 L413.8625,29 L406.4719,29 L406.4719,26.8438 L408.9406,26.8438 L408.9406,18.7656 L406.4719,18.7656 Z " fill="#000000"/><text fill="#000000" font-family="sans-serif" font-size="14" font-style="italic" lengthAdjust="spacing" textLength="167.501" x="424.55" y="27.8467">ContentMappingService</text></g><!--reverse link ContentMappingService to ContentNegotiationServiceXRoDomainType--><g class="link" data-entity-1="ContentMappingService" data-entity-2="ContentNegotiationServiceXRoDomainType" data-source-line="20" data-uid="lnk9" id="link_ContentMappingService_ContentNegotiationServiceXRoDomainType"><path codeLine="20" d="M495.3,45.16 C495.3,65.63 495.3,95.29 495.3,120.41" fill="none" id="ContentMappingService-backto-ContentNegotiationServiceXRoDomainType" style="stroke:#181818;stroke-width:1;"/><polygon fill="#181818" points="495.3,39.16,491.3,48.16,495.3,44.16,499.3,48.16,495.3,39.16" style="stroke:#181818;stroke-width:1;"/><text fill="#000000" font-family="sans-serif" font-size="13" lengthAdjust="spacing" textLength="81.1294" x="428.6669" y="69.4969">delegates to</text><text fill="#000000" font-family="sans-serif" font-size="13" lengthAdjust="spacing" textLength="87.5342" x="425.4646" y="84.6297">(if recognizes</text><text fill="#000000" font-family="sans-serif" font-size="13" lengthAdjust="spacing" textLength="117.8633" x="410.3" y="99.7625">x-ro-domain-type)</text></g><!--reverse link ContentNegotiationService to ContentNegotiationServiceForRestfulObjectsV1_0--><g class="link" data-entity-1="ContentNegotiationService" data-entity-2="ContentNegotiationServiceForRestfulObjectsV1_0" data-source-line="21" data-uid="lnk10" id="link_ContentNegotiationService_ContentNegotiationServiceForRestfulObjectsV1_0"><path codeLine="21" d="M193.8863,261.2567 C226.7263,270.3567 251.23,276.84 288.73,286 C311.45,291.55 335.65,297.14 359.18,302.4" fill="none" id="ContentNegotiationService-backto-ContentNegotiationServiceForRestfulObjectsV1_0" style="stroke:#181818;stroke-width:1;"/><polygon fill="none" points="176.54,256.45,192.2841,267.0388,195.4886,255.4746,176.54,256.45" style="stroke:#181818;stroke-width:1;"/></g><!--reverse link ContentNegotiationService to ContentNegotiationServiceXRoDomainType--><g class="link" data-entity-1="ContentNegotiationService" data-entity-2="ContentNegotiationServiceXRoDomainType" data-source-line="22" data-uid="lnk11" id="link_ContentNegotiationService_ContentNegotiationServiceXRoDomainType"><path codeLine="22" d="M193.8863,218.7433 C226.7263,209.6433 251.23,203.16 288.73,194 C311.45,188.45 335.65,182.86 359.18,177.6" fill="none" id="ContentNegotiationService-backto-ContentNegotiationServiceXRoDomainType" style="stroke:#181818;stroke-width:1;"/><polygon fill="none" points="176.54,223.55,195.4886,224.5254,192.2841,212.9612,176.54,223.55" style="stroke:#181818;stroke-width:1;"/></g><!--reverse link ContentNegotiationService to ContentNegotiationServiceSimplified--><g class="link" data-entity-1="ContentNegotiationService" data-entity-2="ContentNegotiationServiceSimplified" data-source-line="23" data-uid="lnk12" id="link_ContentNegotiationService_ContentNegotiationServiceSimplified"><path codeLine="23" d="M246.11,240 C265.19,240 267.56,240 288.24,240" fill="none" id="ContentNegotiationService-backto-ContentNegotiationServiceSimplified" style="stroke:#181818;stroke-width:1;"/><polygon fill="none" points="228.11,240,246.11,246,246.11,234,228.11,240" style="stroke:#181818;stroke-width:1;"/></g><!--reverse link ContentNegotiationService to RepresentationService--><g class="link" data-entity-1="ContentNegotiationService" data-entity-2="RepresentationService" data-source-line="25" data-uid="lnk14" id="link_ContentNegotiationService_RepresentationService"><path codeLine="25" d="M117.37,262.16 C117.37,283.63 117.37,315.33 117.37,336.81" fill="none" id="ContentNegotiationService-backto-RepresentationService" style="stroke:#181818;stroke-width:1;"/><polygon fill="#181818" points="117.37,256.16,113.37,265.16,117.37,261.16,121.37,265.16,117.37,256.16" style="stroke:#181818;stroke-width:1;"/><text fill="#000000" font-family="sans-serif" font-size="13" lengthAdjust="spacing" textLength="81.1294" x="50.7914" y="286.0669">delegates to</text><text fill="#000000" font-family="sans-serif" font-size="13" lengthAdjust="spacing" textLength="59.5664" x="61.5729" y="301.1997">based on</text><text fill="#000000" font-family="sans-serif" font-size="13" lengthAdjust="spacing" textLength="100.9722" x="40.87" y="316.3325">ACCEPT header</text><text fill="#000000" font-family="sans-serif" font-size="13" lengthAdjust="spacing" textLength="23.0356" x="90.5676" y="276.0863">1..*</text></g><!--SRC=[dP9BJm8n58Nt_HKti_6Hp8ouX61YK7S-0iIu89eoSsVcOkUsQGiE6lwxXPWe2efqrJOdv-HyEHNb25WRFuSQwp5Q9nGM7hm6IsNb8IUBcIVDui0z4njfPGsA6FtS86ZhAor4fgHpq4TZqI5xkTGFqCueGtXR247iqHOol7ewNDdVOAazhUl4uiDdgsP0jL5K4EP13U6aAKWJlhALAfqupHrZTK4Akz7KSblRCf56PXKccPmwV97pT7OQ_HtrqDSNkfR4msNDZMbDhJfDR7MShuJn4aWtQffc1_ihRVleV35Lj-D9uElkMqydsqi5mny8huE8kFoAUSSsiOhFjhYq8SfHOIazkh214HzI0M40kcHwHJVYxuMFeksfy1ZdyJyPxEssLd5lby-52R5vpYjuKIj9ZgDVnjo6TOnZwS9eDO_ulDUxl1j2XJ97-mu0]--></g></svg>