<?xml version="1.0" encoding="us-ascii" standalone="no"?><svg xmlns="http://www.w3.org/2000/svg" xmlns:xlink="http://www.w3.org/1999/xlink" contentStyleType="text/css" height="376px" preserveAspectRatio="none" style="width:694px;height:376px;background:#FFFFFF;" version="1.1" viewBox="0 0 694 376" width="694px" zoomAndPan="magnify"><defs/><g><!--class RepresentationService--><g id="elem_RepresentationService"><rect codeLine="5" fill="#F1F1F1" height="32" id="RepresentationService" rx="2.5" ry="2.5" style="stroke:#181818;stroke-width:0.5;" width="189" x="21" y="337"/><ellipse cx="36" cy="353" fill="#ADD1B2" rx="11" ry="11" style="stroke:#181818;stroke-width:1.0;"/><path d="M38.9688,358.6406 Q38.3906,358.9375 37.75,359.0781 Q37.1094,359.2344 36.4063,359.2344 Q33.9063,359.2344 32.5781,357.5938 Q31.2656,355.9375 31.2656,352.8125 Q31.2656,349.6875 32.5781,348.0313 Q33.9063,346.375 36.4063,346.375 Q37.1094,346.375 37.75,346.5313 Q38.4063,346.6875 38.9688,346.9844 L38.9688,349.7031 Q38.3438,349.125 37.75,348.8594 Q37.1563,348.5781 36.5313,348.5781 Q35.1875,348.5781 34.5,349.6563 Q33.8125,350.7188 33.8125,352.8125 Q33.8125,354.9063 34.5,355.9844 Q35.1875,357.0469 36.5313,357.0469 Q37.1563,357.0469 37.75,356.7813 Q38.3438,356.5 38.9688,355.9219 L38.9688,358.6406 Z " fill="#000000"/><text fill="#000000" font-family="sans-serif" font-size="14" lengthAdjust="spacing" textLength="157" x="50" y="357.8467">RepresentationService</text></g><!--class ContentNegotiationService--><g id="elem_ContentNegotiationService"><rect codeLine="7" fill="#F1F1F1" height="32" id="ContentNegotiationService" rx="2.5" ry="2.5" style="stroke:#181818;stroke-width:0.5;" width="217" x="7" y="224"/><ellipse cx="22" cy="240" fill="#B4A7E5" rx="11" ry="11" style="stroke:#181818;stroke-width:1.0;"/><path d="M17.9219,235.7656 L17.9219,233.6094 L25.3125,233.6094 L25.3125,235.7656 L22.8438,235.7656 L22.8438,243.8438 L25.3125,243.8438 L25.3125,246 L17.9219,246 L17.9219,243.8438 L20.3906,243.8438 L20.3906,235.7656 L17.9219,235.7656 Z " fill="#000000"/><text fill="#000000" font-family="sans-serif" font-size="14" font-style="italic" lengthAdjust="spacing" textLength="185" x="36" y="244.8467">ContentNegotiationService</text></g><!--class ContentNegotiationServiceSimplified--><g id="elem_ContentNegotiationServiceSimplified"><rect codeLine="9" fill="#F1F1F1" height="56.2969" id="ContentNegotiationServiceSimplified" rx="2.5" ry="2.5" style="stroke:#181818;stroke-width:0.5;" width="402" x="285" y="211.85"/><ellipse cx="356.75" cy="227.85" fill="#ADD1B2" rx="11" ry="11" style="stroke:#181818;stroke-width:1.0;"/><path d="M359.7188,233.4906 Q359.1406,233.7875 358.5,233.9281 Q357.8594,234.0844 357.1563,234.0844 Q354.6563,234.0844 353.3281,232.4438 Q352.0156,230.7875 352.0156,227.6625 Q352.0156,224.5375 353.3281,222.8813 Q354.6563,221.225 357.1563,221.225 Q357.8594,221.225 358.5,221.3813 Q359.1563,221.5375 359.7188,221.8344 L359.7188,224.5531 Q359.0938,223.975 358.5,223.7094 Q357.9063,223.4281 357.2813,223.4281 Q355.9375,223.4281 355.25,224.5063 Q354.5625,225.5688 354.5625,227.6625 Q354.5625,229.7563 355.25,230.8344 Q355.9375,231.8969 357.2813,231.8969 Q357.9063,231.8969 358.5,231.6313 Q359.0938,231.35 359.7188,230.7719 L359.7188,233.4906 Z " fill="#000000"/><text fill="#000000" font-family="sans-serif" font-size="14" lengthAdjust="spacing" textLength="250" x="377.25" y="232.6967">ContentNegotiationServiceSimplified</text><line style="stroke:#181818;stroke-width:0.5;" x1="286" x2="686" y1="243.85" y2="243.85"/><text fill="#000000" font-family="sans-serif" font-size="14" lengthAdjust="spacing" textLength="390" x="291" y="260.8451">// application/json;profile="urn:org.apache.causeway/v2"</text></g><!--class ContentNegotiationServiceXRoDomainType--><g id="elem_ContentNegotiationServiceXRoDomainType"><rect codeLine="12" fill="#F1F1F1" height="56.2969" id="ContentNegotiationServiceXRoDomainType" rx="2.5" ry="2.5" style="stroke:#181818;stroke-width:0.5;" width="332" x="320" y="120.85"/><ellipse cx="335" cy="136.85" fill="#ADD1B2" rx="11" ry="11" style="stroke:#181818;stroke-width:1.0;"/><path d="M337.9688,142.4906 Q337.3906,142.7875 336.75,142.9281 Q336.1094,143.0844 335.4063,143.0844 Q332.9063,143.0844 331.5781,141.4438 Q330.2656,139.7875 330.2656,136.6625 Q330.2656,133.5375 331.5781,131.8813 Q332.9063,130.225 335.4063,130.225 Q336.1094,130.225 336.75,130.3813 Q337.4063,130.5375 337.9688,130.8344 L337.9688,133.5531 Q337.3438,132.975 336.75,132.7094 Q336.1563,132.4281 335.5313,132.4281 Q334.1875,132.4281 333.5,133.5063 Q332.8125,134.5688 332.8125,136.6625 Q332.8125,138.7563 333.5,139.8344 Q334.1875,140.8969 335.5313,140.8969 Q336.1563,140.8969 336.75,140.6313 Q337.3438,140.35 337.9688,139.7719 L337.9688,142.4906 Z " fill="#000000"/><text fill="#000000" font-family="sans-serif" font-size="14" lengthAdjust="spacing" textLength="300" x="349" y="141.6967">ContentNegotiationServiceXRoDomainType</text><line style="stroke:#181818;stroke-width:0.5;" x1="321" x2="651" y1="152.85" y2="152.85"/><text fill="#000000" font-family="sans-serif" font-size="14" lengthAdjust="spacing" textLength="281" x="326" y="169.8451">// application/xml;x-ro-domain-type="xxx"</text></g><!--class ContentNegotiationServiceForRestfulObjectsV1_0--><g id="elem_ContentNegotiationServiceForRestfulObjectsV1_0"><rect codeLine="15" fill="#F1F1F1" height="56.2969" id="ContentNegotiationServiceForRestfulObjectsV1_0" rx="2.5" ry="2.5" style="stroke:#181818;stroke-width:0.5;" width="374" x="299" y="302.85"/><ellipse cx="314" cy="318.85" fill="#ADD1B2" rx="11" ry="11" style="stroke:#181818;stroke-width:1.0;"/><path d="M316.9688,324.4906 Q316.3906,324.7875 315.75,324.9281 Q315.1094,325.0844 314.4063,325.0844 Q311.9063,325.0844 310.5781,323.4438 Q309.2656,321.7875 309.2656,318.6625 Q309.2656,315.5375 310.5781,313.8813 Q311.9063,312.225 314.4063,312.225 Q315.1094,312.225 315.75,312.3813 Q316.4063,312.5375 316.9688,312.8344 L316.9688,315.5531 Q316.3438,314.975 315.75,314.7094 Q315.1563,314.4281 314.5313,314.4281 Q313.1875,314.4281 312.5,315.5063 Q311.8125,316.5688 311.8125,318.6625 Q311.8125,320.7563 312.5,321.8344 Q313.1875,322.8969 314.5313,322.8969 Q315.1563,322.8969 315.75,322.6313 Q316.3438,322.35 316.9688,321.7719 L316.9688,324.4906 Z " fill="#000000"/><text fill="#000000" font-family="sans-serif" font-size="14" lengthAdjust="spacing" textLength="342" x="328" y="323.6967">ContentNegotiationServiceForRestfulObjectsV1_0</text><line style="stroke:#181818;stroke-width:0.5;" x1="300" x2="672" y1="334.85" y2="334.85"/><text fill="#000000" font-family="sans-serif" font-size="14" lengthAdjust="spacing" textLength="122" x="305" y="351.8451">// application/json</text></g><!--class ContentMappingService--><g id="elem_ContentMappingService"><rect codeLine="18" fill="#F1F1F1" height="32" id="ContentMappingService" rx="2.5" ry="2.5" style="stroke:#181818;stroke-width:0.5;" width="197" x="387.5" y="7"/><ellipse cx="402.5" cy="23" fill="#B4A7E5" rx="11" ry="11" style="stroke:#181818;stroke-width:1.0;"/><path d="M398.4219,18.7656 L398.4219,16.6094 L405.8125,16.6094 L405.8125,18.7656 L403.3438,18.7656 L403.3438,26.8438 L405.8125,26.8438 L405.8125,29 L398.4219,29 L398.4219,26.8438 L400.8906,26.8438 L400.8906,18.7656 L398.4219,18.7656 Z " fill="#000000"/><text fill="#000000" font-family="sans-serif" font-size="14" font-style="italic" lengthAdjust="spacing" textLength="165" x="416.5" y="27.8467">ContentMappingService</text></g><!--reverse link ContentMappingService to ContentNegotiationServiceXRoDomainType--><g id="link_ContentMappingService_ContentNegotiationServiceXRoDomainType"><path codeLine="20" d="M486,45.16 C486,65.63 486,95.29 486,120.41 " fill="none" id="ContentMappingService-backto-ContentNegotiationServiceXRoDomainType" style="stroke:#181818;stroke-width:1.0;"/><polygon fill="#181818" points="486,39.16,482,48.16,486,44.16,490,48.16,486,39.16" style="stroke:#181818;stroke-width:1.0;"/><text fill="#000000" font-family="sans-serif" font-size="13" lengthAdjust="spacing" textLength="80" x="419.5" y="69.4969">delegates to</text><text fill="#000000" font-family="sans-serif" font-size="13" lengthAdjust="spacing" textLength="85" x="417" y="84.6297">(if recognizes</text><text fill="#000000" font-family="sans-serif" font-size="13" lengthAdjust="spacing" textLength="116" x="401.5" y="99.7625">x-ro-domain-type)</text></g><!--reverse link ContentNegotiationService to ContentNegotiationServiceForRestfulObjectsV1_0--><g id="link_ContentNegotiationService_ContentNegotiationServiceForRestfulObjectsV1_0"><path codeLine="21" d="M191.374,261.2512 C223.854,270.3412 247.92,276.77 285,286 C307.19,291.52 330.84,297.11 353.82,302.38 " fill="none" id="ContentNegotiationService-backto-ContentNegotiationServiceForRestfulObjectsV1_0" style="stroke:#181818;stroke-width:1.0;"/><polygon fill="none" points="174.04,256.4,189.7569,267.0291,192.991,255.4732,174.04,256.4" style="stroke:#181818;stroke-width:1.0;"/></g><!--reverse link ContentNegotiationService to ContentNegotiationServiceXRoDomainType--><g id="link_ContentNegotiationService_ContentNegotiationServiceXRoDomainType"><path codeLine="22" d="M191.374,218.7488 C223.854,209.6588 247.92,203.23 285,194 C307.19,188.48 330.84,182.89 353.82,177.62 " fill="none" id="ContentNegotiationService-backto-ContentNegotiationServiceXRoDomainType" style="stroke:#181818;stroke-width:1.0;"/><polygon fill="none" points="174.04,223.6,192.991,224.5268,189.7569,212.9709,174.04,223.6" style="stroke:#181818;stroke-width:1.0;"/></g><!--reverse link ContentNegotiationService to ContentNegotiationServiceSimplified--><g id="link_ContentNegotiationService_ContentNegotiationServiceSimplified"><path codeLine="23" d="M242.08,240 C261.3,240 263.88,240 284.74,240 " fill="none" id="ContentNegotiationService-backto-ContentNegotiationServiceSimplified" style="stroke:#181818;stroke-width:1.0;"/><polygon fill="none" points="224.08,240,242.08,246,242.08,234,224.08,240" style="stroke:#181818;stroke-width:1.0;"/></g><!--reverse link ContentNegotiationService to RepresentationService--><g id="link_ContentNegotiationService_RepresentationService"><path codeLine="25" d="M115.5,262.16 C115.5,283.63 115.5,315.33 115.5,336.81 " fill="none" id="ContentNegotiationService-backto-RepresentationService" style="stroke:#181818;stroke-width:1.0;"/><polygon fill="#181818" points="115.5,256.16,111.5,265.16,115.5,261.16,119.5,265.16,115.5,256.16" style="stroke:#181818;stroke-width:1.0;"/><text fill="#000000" font-family="sans-serif" font-size="13" lengthAdjust="spacing" textLength="80" x="49" y="286.0669">delegates to</text><text fill="#000000" font-family="sans-serif" font-size="13" lengthAdjust="spacing" textLength="59" x="59.5" y="301.1997">based on</text><text fill="#000000" font-family="sans-serif" font-size="13" lengthAdjust="spacing" textLength="99" x="39.5" y="316.3325">ACCEPT header</text><text fill="#000000" font-family="sans-serif" font-size="13" lengthAdjust="spacing" textLength="23" x="88.6906" y="276.0863">1..*</text></g><!--SRC=[dP9BJm8n58Nt_HKti_6Hp8ouX61YK7S-0iIu89eoSsVcOkUsQGiE6lwxXPWe2efqrJOdv-HyEHNb25WRFuSQwp5Q9nGM7hm6IsNb8IUBcIVDui0z4njfPGsA6FtS86ZhAor4fgHpq4TZqI5xkTGFqCueGtXR247iqHOol7ewNDdVOAazhUl4uiDdgsP0jL5K4EP13U6aAKWJlhALAfqupHrZTK4Akz7KSblRCf56PXKccPmwV97pT7OQ_HtrqDSNkfR4msNDZMbDhJfDR7MShuJn4aWtQffc1_ihRVleV35Lj-D9uElkMqydsqi5mny8huE8kFoAUSSsiOhFjhYq8SfHOIazkh214HzI0M40kcHwHJVYxuMFeksfy1ZdyJyPxEssLd5lby-52R5vpYjuKIj9ZgDVnjo6TOnZwS9eDO_ulDUxl1j2XJ97-mu0]--></g></svg>