<?xml version="1.0" encoding="UTF-8" standalone="no"?><svg xmlns="http://www.w3.org/2000/svg" xmlns:xlink="http://www.w3.org/1999/xlink" contentScriptType="application/ecmascript" contentStyleType="text/css" height="396px" preserveAspectRatio="none" style="width:532px;height:396px;" version="1.1" viewBox="0 0 532 396" width="532px" zoomAndPan="magnify"><defs><filter height="300%" id="f1jyokdlqr3ux9" width="300%" x="-1" y="-1"><feGaussianBlur result="blurOut" stdDeviation="2.0"/><feColorMatrix in="blurOut" result="blurOut2" type="matrix" values="0 0 0 0 0 0 0 0 0 0 0 0 0 0 0 0 0 0 .4 0"/><feOffset dx="4.0" dy="4.0" in="blurOut2" result="blurOut3"/><feBlend in="SourceGraphic" in2="blurOut3" mode="normal"/></filter></defs><g><!--MD5=[e9839dd1b2a17272fb9cdfbaf0adb67e]
class RepresentationService--><rect codeLine="5" fill="#FEFECE" filter="url(#f1jyokdlqr3ux9)" height="32" id="RepresentationService" style="stroke:#A80036;stroke-width:1.5;" width="145" x="17.5" y="350"/><ellipse cx="32.5" cy="366" fill="#ADD1B2" rx="11" ry="11" style="stroke:#A80036;stroke-width:1.0;"/><path d="M28.4375,366.1406 Q28.4375,362.6875 29.5313,361.0625 Q30.6406,359.4219 32.8594,359.4219 Q34.0625,359.4219 35.3281,360.0781 L35.3281,362.125 Q33.875,361.3438 32.9375,361.3438 Q30.4844,361.3438 30.4844,366.1406 Q30.4844,368.8438 31.1094,369.9063 Q31.75,370.9531 32.9375,370.9531 Q33.9063,370.9531 35.4063,370.0313 L35.4063,372.2344 Q34.1406,372.8594 32.8594,372.8594 Q30.5938,372.8594 29.5156,371.2813 Q28.4375,369.7031 28.4375,366.1406 Z " fill="#000000"/><text fill="#000000" font-family="sans-serif" font-size="12" lengthAdjust="spacing" textLength="113" x="46.5" y="370.5352">RepresentationService</text><!--MD5=[562f899a5549b4d5d6641959136186c6]
class ContentNegotiationService--><rect codeLine="7" fill="#FEFECE" filter="url(#f1jyokdlqr3ux9)" height="32" id="ContentNegotiationService" style="stroke:#A80036;stroke-width:1.5;" width="166" x="7" y="229"/><ellipse cx="22" cy="245" fill="#B4A7E5" rx="11" ry="11" style="stroke:#A80036;stroke-width:1.0;"/><path d="M24.6563,251.2031 L18.5313,251.2031 L18.5313,249.3125 L20.5313,249.3125 L20.5313,239.9844 L18.5313,239.9844 L18.5313,238.0938 L24.6563,238.0938 L24.6563,239.9844 L22.6563,239.9844 L22.6563,249.3125 L24.6563,249.3125 L24.6563,251.2031 Z " fill="#000000"/><text fill="#000000" font-family="sans-serif" font-size="12" font-style="italic" lengthAdjust="spacing" textLength="134" x="36" y="249.5352">ContentNegotiationService</text><!--MD5=[63b301f88cdc66483f67c9f76c6cc8b9]
class ContentNegotiationServiceSimplified--><rect codeLine="9" fill="#FEFECE" filter="url(#f1jyokdlqr3ux9)" height="54.8457" id="ContentNegotiationServiceSimplified" style="stroke:#A80036;stroke-width:1.5;" width="270" x="241" y="217.5"/><ellipse cx="279.85" cy="233.5" fill="#ADD1B2" rx="11" ry="11" style="stroke:#A80036;stroke-width:1.0;"/><path d="M275.7875,233.6406 Q275.7875,230.1875 276.8813,228.5625 Q277.9906,226.9219 280.2094,226.9219 Q281.4125,226.9219 282.6781,227.5781 L282.6781,229.625 Q281.225,228.8438 280.2875,228.8438 Q277.8344,228.8438 277.8344,233.6406 Q277.8344,236.3438 278.4594,237.4063 Q279.1,238.4531 280.2875,238.4531 Q281.2563,238.4531 282.7563,237.5313 L282.7563,239.7344 Q281.4906,240.3594 280.2094,240.3594 Q277.9438,240.3594 276.8656,238.7813 Q275.7875,237.2031 275.7875,233.6406 Z " fill="#000000"/><text fill="#000000" font-family="sans-serif" font-size="12" lengthAdjust="spacing" textLength="185" x="299.15" y="238.0352">ContentNegotiationServiceSimplified</text><line style="stroke:#A80036;stroke-width:1.5;" x1="242" x2="510" y1="249.5" y2="249.5"/><text fill="#000000" font-family="sans-serif" font-size="11" lengthAdjust="spacing" textLength="258" x="247" y="265.0801">// application/json;profile="urn:org.apache.isis/v1"</text><!--MD5=[bd9cc58482063d070d8819bc19bf6eb3]
class ContentNegotiationServiceXRoDomainType--><rect codeLine="12" fill="#FEFECE" filter="url(#f1jyokdlqr3ux9)" height="54.8457" id="ContentNegotiationServiceXRoDomainType" style="stroke:#A80036;stroke-width:1.5;" width="247" x="252.5" y="127.5"/><ellipse cx="267.5" cy="143.5" fill="#ADD1B2" rx="11" ry="11" style="stroke:#A80036;stroke-width:1.0;"/><path d="M263.4375,143.6406 Q263.4375,140.1875 264.5313,138.5625 Q265.6406,136.9219 267.8594,136.9219 Q269.0625,136.9219 270.3281,137.5781 L270.3281,139.625 Q268.875,138.8438 267.9375,138.8438 Q265.4844,138.8438 265.4844,143.6406 Q265.4844,146.3438 266.1094,147.4063 Q266.75,148.4531 267.9375,148.4531 Q268.9063,148.4531 270.4063,147.5313 L270.4063,149.7344 Q269.1406,150.3594 267.8594,150.3594 Q265.5938,150.3594 264.5156,148.7813 Q263.4375,147.2031 263.4375,143.6406 Z " fill="#000000"/><text fill="#000000" font-family="sans-serif" font-size="12" lengthAdjust="spacing" textLength="215" x="281.5" y="148.0352">ContentNegotiationServiceXRoDomainType</text><line style="stroke:#A80036;stroke-width:1.5;" x1="253.5" x2="498.5" y1="159.5" y2="159.5"/><text fill="#000000" font-family="sans-serif" font-size="11" lengthAdjust="spacing" textLength="208" x="258.5" y="175.0801">// application/xml;x-ro-domain-type="xxx"</text><!--MD5=[bf64c5cb7d9a05909f94e79dfa50180a]
class ContentNegotiationServiceForRestfulObjectsV1_0--><rect codeLine="15" fill="#FEFECE" filter="url(#f1jyokdlqr3ux9)" height="54.8457" id="ContentNegotiationServiceForRestfulObjectsV1_0" style="stroke:#A80036;stroke-width:1.5;" width="284" x="234" y="307.5"/><ellipse cx="249" cy="323.5" fill="#ADD1B2" rx="11" ry="11" style="stroke:#A80036;stroke-width:1.0;"/><path d="M244.9375,323.6406 Q244.9375,320.1875 246.0313,318.5625 Q247.1406,316.9219 249.3594,316.9219 Q250.5625,316.9219 251.8281,317.5781 L251.8281,319.625 Q250.375,318.8438 249.4375,318.8438 Q246.9844,318.8438 246.9844,323.6406 Q246.9844,326.3438 247.6094,327.4063 Q248.25,328.4531 249.4375,328.4531 Q250.4063,328.4531 251.9063,327.5313 L251.9063,329.7344 Q250.6406,330.3594 249.3594,330.3594 Q247.0938,330.3594 246.0156,328.7813 Q244.9375,327.2031 244.9375,323.6406 Z " fill="#000000"/><text fill="#000000" font-family="sans-serif" font-size="12" lengthAdjust="spacing" textLength="252" x="263" y="328.0352">ContentNegotiationServiceForRestfulObjectsV1_0</text><line style="stroke:#A80036;stroke-width:1.5;" x1="235" x2="517" y1="339.5" y2="339.5"/><text fill="#000000" font-family="sans-serif" font-size="11" lengthAdjust="spacing" textLength="95" x="240" y="355.0801">// application/json</text><!--MD5=[126918a969bee8d30107f913d2d1b4cc]
class ContentMappingService--><rect codeLine="18" fill="#FEFECE" filter="url(#f1jyokdlqr3ux9)" height="32" id="ContentMappingService" style="stroke:#A80036;stroke-width:1.5;" width="151" x="300.5" y="7"/><ellipse cx="315.5" cy="23" fill="#B4A7E5" rx="11" ry="11" style="stroke:#A80036;stroke-width:1.0;"/><path d="M318.1563,29.2031 L312.0313,29.2031 L312.0313,27.3125 L314.0313,27.3125 L314.0313,17.9844 L312.0313,17.9844 L312.0313,16.0938 L318.1563,16.0938 L318.1563,17.9844 L316.1563,17.9844 L316.1563,27.3125 L318.1563,27.3125 L318.1563,29.2031 Z " fill="#000000"/><text fill="#000000" font-family="sans-serif" font-size="12" font-style="italic" lengthAdjust="spacing" textLength="119" x="329.5" y="27.5352">ContentMappingService</text><!--MD5=[017c0c1550d291b7da197d987bebbac9]
reverse link ContentMappingService to ContentNegotiationServiceXRoDomainType--><path codeLine="20" d="M376,44.19 C376,66.75 376,102.55 376,127.33 " fill="none" id="ContentMappingService-backto-ContentNegotiationServiceXRoDomainType" style="stroke:#A80036;stroke-width:1.0;"/><polygon fill="#A80036" points="376,39.03,372,48.03,376,44.03,380,48.03,376,39.03" style="stroke:#A80036;stroke-width:1.0;"/><text fill="#000000" font-family="sans-serif" font-size="13" lengthAdjust="spacing" textLength="71" x="310.5" y="70.9355">delegates to</text><text fill="#000000" font-family="sans-serif" font-size="13" lengthAdjust="spacing" textLength="75" x="308.5" y="88.4805">(if recognizes</text><text fill="#000000" font-family="sans-serif" font-size="13" lengthAdjust="spacing" textLength="98" x="297" y="106.0254">x-ro-domain-type)</text><!--MD5=[2b8c896dac46f724cc2e853c726f27d1]
reverse link ContentNegotiationService to ContentNegotiationServiceForRestfulObjectsV1_0--><path codeLine="21" d="M160.91,267.15 C199.34,279.33 247.36,294.55 288.17,307.48 " fill="none" id="ContentNegotiationService-backto-ContentNegotiationServiceForRestfulObjectsV1_0" style="stroke:#A80036;stroke-width:1.0;"/><polygon fill="none" points="158.72,273.81,141.77,261.09,162.95,260.46,158.72,273.81" style="stroke:#A80036;stroke-width:1.0;"/><!--MD5=[fb679802bb41fbd3062a55db4fc669d0]
reverse link ContentNegotiationService to ContentNegotiationServiceXRoDomainType--><path codeLine="22" d="M160.91,222.85 C199.34,210.67 247.36,195.45 288.17,182.52 " fill="none" id="ContentNegotiationService-backto-ContentNegotiationServiceXRoDomainType" style="stroke:#A80036;stroke-width:1.0;"/><polygon fill="none" points="162.95,229.54,141.77,228.91,158.72,216.19,162.95,229.54" style="stroke:#A80036;stroke-width:1.0;"/><!--MD5=[6de5bf7a8a4eda8f7aa56862f2e175fd]
reverse link ContentNegotiationService to ContentNegotiationServiceSimplified--><path codeLine="23" d="M193.34,245 C208.77,245 224.89,245 240.87,245 " fill="none" id="ContentNegotiationService-backto-ContentNegotiationServiceSimplified" style="stroke:#A80036;stroke-width:1.0;"/><polygon fill="none" points="193.14,252,173.14,245,193.14,238,193.14,252" style="stroke:#A80036;stroke-width:1.0;"/><!--MD5=[433454d4d7ee23394687654d86c84147]
reverse link ContentNegotiationService to RepresentationService--><path codeLine="25" d="M90,266.2 C90,290 90,328.09 90,349.68 " fill="none" id="ContentNegotiationService-backto-RepresentationService" style="stroke:#A80036;stroke-width:1.0;"/><polygon fill="#A80036" points="90,261.06,86,270.06,90,266.06,94,270.06,90,261.06" style="stroke:#A80036;stroke-width:1.0;"/><text fill="#000000" font-family="sans-serif" font-size="13" lengthAdjust="spacing" textLength="71" x="24.5" y="293.1855">delegates to</text><text fill="#000000" font-family="sans-serif" font-size="13" lengthAdjust="spacing" textLength="53" x="33.5" y="310.7305">based on</text><text fill="#000000" font-family="sans-serif" font-size="13" lengthAdjust="spacing" textLength="87" x="16.5" y="328.2754">ACCEPT header</text><text fill="#000000" font-family="sans-serif" font-size="13" lengthAdjust="spacing" textLength="24" x="62.175" y="282.6609">1..*</text><!--MD5=[abe2cf5de68a31226cd10f4d93fbd355]
@startuml
hide empty members
left to right direction
'skinparam linetype ortho

class RepresentationService {}

interface ContentNegotiationService {
}
class ContentNegotiationServiceSimplified {
    // application/json;profile="urn:org.apache.isis/v1"
}
class ContentNegotiationServiceXRoDomainType {
    // application/xml;x-ro-domain-type="xxx"
}
class ContentNegotiationServiceForRestfulObjectsV1_0 {
    // application/json
}
interface ContentMappingService {}

ContentNegotiationServiceXRoDomainType -l-> ContentMappingService : "delegates to\n(if recognizes\nx-ro-domain-type)"
ContentNegotiationService ^-d- ContentNegotiationServiceForRestfulObjectsV1_0
ContentNegotiationService ^-d- ContentNegotiationServiceXRoDomainType
ContentNegotiationService ^-d- ContentNegotiationServiceSimplified

RepresentationService -l-> "1..*" ContentNegotiationService : delegates to\nbased on\nACCEPT header
@enduml

@startuml
hide empty members
left to right direction

class RepresentationService {}

interface ContentNegotiationService {
}
class ContentNegotiationServiceSimplified {
    // application/json;profile="urn:org.apache.isis/v1"
}
class ContentNegotiationServiceXRoDomainType {
    // application/xml;x-ro-domain-type="xxx"
}
class ContentNegotiationServiceForRestfulObjectsV1_0 {
    // application/json
}
interface ContentMappingService {}

ContentNegotiationServiceXRoDomainType -l-> ContentMappingService : "delegates to\n(if recognizes\nx-ro-domain-type)"
ContentNegotiationService ^-d- ContentNegotiationServiceForRestfulObjectsV1_0
ContentNegotiationService ^-d- ContentNegotiationServiceXRoDomainType
ContentNegotiationService ^-d- ContentNegotiationServiceSimplified

RepresentationService -l-> "1..*" ContentNegotiationService : delegates to\nbased on\nACCEPT header
@enduml

PlantUML version 1.2021.01(Tue Feb 02 07:55:08 GMT 2021)
(GPL source distribution)
Java Runtime: OpenJDK Runtime Environment
JVM: OpenJDK 64-Bit Server VM
Default Encoding: UTF-8
Language: en
Country: US
--></g></svg>