<?xml version="1.0" encoding="UTF-8" standalone="no"?><svg xmlns="http://www.w3.org/2000/svg" xmlns:xlink="http://www.w3.org/1999/xlink" contentScriptType="application/ecmascript" contentStyleType="text/css" height="381px" preserveAspectRatio="none" style="width:549px;height:381px;background:#FFFFFF;" version="1.1" viewBox="0 0 549 381" width="549px" zoomAndPan="magnify"><defs><filter height="300%" id="f3e4benwb0698" width="300%" x="-1" y="-1"><feGaussianBlur result="blurOut" stdDeviation="2.0"/><feColorMatrix in="blurOut" result="blurOut2" type="matrix" values="0 0 0 0 0 0 0 0 0 0 0 0 0 0 0 0 0 0 .4 0"/><feOffset dx="4.0" dy="4.0" in="blurOut2" result="blurOut3"/><feBlend in="SourceGraphic" in2="blurOut3" mode="normal"/></filter></defs><g><!--MD5=[e9839dd1b2a17272fb9cdfbaf0adb67e]
class RepresentationService--><rect codeLine="5" fill="#FEFECE" filter="url(#f3e4benwb0698)" height="32" id="RepresentationService" style="stroke:#A80036;stroke-width:1.5;" width="149" x="20.5" y="335"/><ellipse cx="35.5" cy="351" fill="#ADD1B2" rx="11" ry="11" style="stroke:#A80036;stroke-width:1.0;"/><path d="M34.8594,354.7813 Q35.6563,354.7813 36.2188,354.5938 Q36.7969,354.3906 37.0313,354.1719 Q37.2813,353.9375 37.5156,353.75 Q37.7656,353.5469 37.9844,353.5469 Q38.3281,353.5469 38.5781,353.8125 Q38.8438,354.0625 38.8438,354.3906 Q38.8438,355.125 37.6719,355.8125 Q36.5156,356.4844 34.8125,356.4844 Q32.6563,356.4844 31.2344,355.2188 Q29.8125,353.9531 29.8125,352.0156 L29.8125,350.8906 Q29.8125,348.8594 31.1406,347.4844 Q32.4688,346.0938 34.4375,346.0938 Q35.625,346.0938 36.8438,346.6719 L37.0156,346.75 Q37.3125,346.3438 37.7344,346.3438 Q38.2188,346.3438 38.3906,346.6406 Q38.5781,346.9219 38.5781,347.4688 L38.5781,348.8906 Q38.5781,350.0156 37.7344,350.0156 Q37.4219,350.0156 37.2188,349.8438 Q37.0313,349.6719 36.9844,349.5313 Q36.9531,349.375 36.9063,349.1094 Q36.7969,348.5938 36.2813,348.2813 Q35.7656,347.9688 35.3125,347.8906 Q34.875,347.7969 34.5,347.7969 Q33.2188,347.7969 32.3594,348.6719 Q31.5156,349.5469 31.5156,350.8906 L31.5156,351.9844 Q31.5156,353.2656 32.4219,354.0313 Q33.3281,354.7813 34.8594,354.7813 Z " fill="#000000"/><text fill="#000000" font-family="sans-serif" font-size="12" lengthAdjust="spacing" textLength="117" x="49.5" y="355.8">RepresentationService</text><!--MD5=[562f899a5549b4d5d6641959136186c6]
class ContentNegotiationService--><rect codeLine="7" fill="#FEFECE" filter="url(#f3e4benwb0698)" height="32" id="ContentNegotiationService" style="stroke:#A80036;stroke-width:1.5;" width="176" x="7" y="220"/><ellipse cx="22" cy="236" fill="#B4A7E5" rx="11" ry="11" style="stroke:#A80036;stroke-width:1.0;"/><path d="M24.6719,239.2969 Q25.2188,239.2969 25.5,239.4844 Q25.7813,239.6563 25.7813,240.1563 Q25.7813,241 24.6719,241 L19.5313,241 Q18.4063,241 18.4063,240.1563 Q18.4063,239.6563 18.6875,239.4844 Q18.9844,239.2969 19.5313,239.2969 L21.25,239.2969 L21.25,232.7813 L19.5313,232.7813 Q18.4063,232.7813 18.4063,231.9375 Q18.4063,231.4531 18.6875,231.2813 Q18.9844,231.0938 19.5313,231.0938 L24.6719,231.0938 Q25.2188,231.0938 25.5,231.2813 Q25.7813,231.4531 25.7813,231.9375 Q25.7813,232.7813 24.6719,232.7813 L22.9531,232.7813 L22.9531,239.2969 L24.6719,239.2969 Z " fill="#000000"/><text fill="#000000" font-family="sans-serif" font-size="12" font-style="italic" lengthAdjust="spacing" textLength="144" x="36" y="240.8">ContentNegotiationService</text><!--MD5=[63b301f88cdc66483f67c9f76c6cc8b9]
class ContentNegotiationServiceSimplified--><rect codeLine="9" fill="#FEFECE" filter="url(#f3e4benwb0698)" height="53.1999" id="ContentNegotiationServiceSimplified" style="stroke:#A80036;stroke-width:1.5;" width="246" x="266.5" y="209.5"/><ellipse cx="292.3" cy="225.5" fill="#ADD1B2" rx="11" ry="11" style="stroke:#A80036;stroke-width:1.0;"/><path d="M291.6594,229.2813 Q292.4563,229.2813 293.0188,229.0938 Q293.5969,228.8906 293.8313,228.6719 Q294.0813,228.4375 294.3156,228.25 Q294.5656,228.0469 294.7844,228.0469 Q295.1281,228.0469 295.3781,228.3125 Q295.6438,228.5625 295.6438,228.8906 Q295.6438,229.625 294.4719,230.3125 Q293.3156,230.9844 291.6125,230.9844 Q289.4563,230.9844 288.0344,229.7188 Q286.6125,228.4531 286.6125,226.5156 L286.6125,225.3906 Q286.6125,223.3594 287.9406,221.9844 Q289.2688,220.5938 291.2375,220.5938 Q292.425,220.5938 293.6438,221.1719 L293.8156,221.25 Q294.1125,220.8438 294.5344,220.8438 Q295.0188,220.8438 295.1906,221.1406 Q295.3781,221.4219 295.3781,221.9688 L295.3781,223.3906 Q295.3781,224.5156 294.5344,224.5156 Q294.2219,224.5156 294.0188,224.3438 Q293.8313,224.1719 293.7844,224.0313 Q293.7531,223.875 293.7063,223.6094 Q293.5969,223.0938 293.0813,222.7813 Q292.5656,222.4688 292.1125,222.3906 Q291.675,222.2969 291.3,222.2969 Q290.0188,222.2969 289.1594,223.1719 Q288.3156,224.0469 288.3156,225.3906 L288.3156,226.4844 Q288.3156,227.7656 289.2219,228.5313 Q290.1281,229.2813 291.6594,229.2813 Z " fill="#000000"/><text fill="#000000" font-family="sans-serif" font-size="12" lengthAdjust="spacing" textLength="190" x="308.7" y="230.3">ContentNegotiationServiceSimplified</text><line style="stroke:#A80036;stroke-width:1.5;" x1="267.5" x2="511.5" y1="241.5" y2="241.5"/><text fill="#000000" font-family="sans-serif" font-size="11" lengthAdjust="spacing" textLength="234" x="272.5" y="256.4999">// application/json;profile="urn:org.apache.isis/v2"</text><!--MD5=[bd9cc58482063d070d8819bc19bf6eb3]
class ContentNegotiationServiceXRoDomainType--><rect codeLine="12" fill="#FEFECE" filter="url(#f3e4benwb0698)" height="53.1999" id="ContentNegotiationServiceXRoDomainType" style="stroke:#A80036;stroke-width:1.5;" width="259" x="260" y="121.5"/><ellipse cx="275" cy="137.5" fill="#ADD1B2" rx="11" ry="11" style="stroke:#A80036;stroke-width:1.0;"/><path d="M274.3594,141.2813 Q275.1563,141.2813 275.7188,141.0938 Q276.2969,140.8906 276.5313,140.6719 Q276.7813,140.4375 277.0156,140.25 Q277.2656,140.0469 277.4844,140.0469 Q277.8281,140.0469 278.0781,140.3125 Q278.3438,140.5625 278.3438,140.8906 Q278.3438,141.625 277.1719,142.3125 Q276.0156,142.9844 274.3125,142.9844 Q272.1563,142.9844 270.7344,141.7188 Q269.3125,140.4531 269.3125,138.5156 L269.3125,137.3906 Q269.3125,135.3594 270.6406,133.9844 Q271.9688,132.5938 273.9375,132.5938 Q275.125,132.5938 276.3438,133.1719 L276.5156,133.25 Q276.8125,132.8438 277.2344,132.8438 Q277.7188,132.8438 277.8906,133.1406 Q278.0781,133.4219 278.0781,133.9688 L278.0781,135.3906 Q278.0781,136.5156 277.2344,136.5156 Q276.9219,136.5156 276.7188,136.3438 Q276.5313,136.1719 276.4844,136.0313 Q276.4531,135.875 276.4063,135.6094 Q276.2969,135.0938 275.7813,134.7813 Q275.2656,134.4688 274.8125,134.3906 Q274.375,134.2969 274,134.2969 Q272.7188,134.2969 271.8594,135.1719 Q271.0156,136.0469 271.0156,137.3906 L271.0156,138.4844 Q271.0156,139.7656 271.9219,140.5313 Q272.8281,141.2813 274.3594,141.2813 Z " fill="#000000"/><text fill="#000000" font-family="sans-serif" font-size="12" lengthAdjust="spacing" textLength="227" x="289" y="142.3">ContentNegotiationServiceXRoDomainType</text><line style="stroke:#A80036;stroke-width:1.5;" x1="261" x2="518" y1="153.5" y2="153.5"/><text fill="#000000" font-family="sans-serif" font-size="11" lengthAdjust="spacing" textLength="193" x="266" y="168.4999">// application/xml;x-ro-domain-type="xxx"</text><!--MD5=[bf64c5cb7d9a05909f94e79dfa50180a]
class ContentNegotiationServiceForRestfulObjectsV1_0--><rect codeLine="15" fill="#FEFECE" filter="url(#f3e4benwb0698)" height="53.1999" id="ContentNegotiationServiceForRestfulObjectsV1_0" style="stroke:#A80036;stroke-width:1.5;" width="291" x="244" y="297.5"/><ellipse cx="259" cy="313.5" fill="#ADD1B2" rx="11" ry="11" style="stroke:#A80036;stroke-width:1.0;"/><path d="M258.3594,317.2813 Q259.1563,317.2813 259.7188,317.0938 Q260.2969,316.8906 260.5313,316.6719 Q260.7813,316.4375 261.0156,316.25 Q261.2656,316.0469 261.4844,316.0469 Q261.8281,316.0469 262.0781,316.3125 Q262.3438,316.5625 262.3438,316.8906 Q262.3438,317.625 261.1719,318.3125 Q260.0156,318.9844 258.3125,318.9844 Q256.1563,318.9844 254.7344,317.7188 Q253.3125,316.4531 253.3125,314.5156 L253.3125,313.3906 Q253.3125,311.3594 254.6406,309.9844 Q255.9688,308.5938 257.9375,308.5938 Q259.125,308.5938 260.3438,309.1719 L260.5156,309.25 Q260.8125,308.8438 261.2344,308.8438 Q261.7188,308.8438 261.8906,309.1406 Q262.0781,309.4219 262.0781,309.9688 L262.0781,311.3906 Q262.0781,312.5156 261.2344,312.5156 Q260.9219,312.5156 260.7188,312.3438 Q260.5313,312.1719 260.4844,312.0313 Q260.4531,311.875 260.4063,311.6094 Q260.2969,311.0938 259.7813,310.7813 Q259.2656,310.4688 258.8125,310.3906 Q258.375,310.2969 258,310.2969 Q256.7188,310.2969 255.8594,311.1719 Q255.0156,312.0469 255.0156,313.3906 L255.0156,314.4844 Q255.0156,315.7656 255.9219,316.5313 Q256.8281,317.2813 258.3594,317.2813 Z " fill="#000000"/><text fill="#000000" font-family="sans-serif" font-size="12" lengthAdjust="spacing" textLength="259" x="273" y="318.3">ContentNegotiationServiceForRestfulObjectsV1_0</text><line style="stroke:#A80036;stroke-width:1.5;" x1="245" x2="534" y1="329.5" y2="329.5"/><text fill="#000000" font-family="sans-serif" font-size="11" lengthAdjust="spacing" textLength="83" x="250" y="344.4999">// application/json</text><!--MD5=[126918a969bee8d30107f913d2d1b4cc]
class ContentMappingService--><rect codeLine="18" fill="#FEFECE" filter="url(#f3e4benwb0698)" height="32" id="ContentMappingService" style="stroke:#A80036;stroke-width:1.5;" width="161" x="309" y="7"/><ellipse cx="324" cy="23" fill="#B4A7E5" rx="11" ry="11" style="stroke:#A80036;stroke-width:1.0;"/><path d="M326.6719,26.2969 Q327.2188,26.2969 327.5,26.4844 Q327.7813,26.6563 327.7813,27.1563 Q327.7813,28 326.6719,28 L321.5313,28 Q320.4063,28 320.4063,27.1563 Q320.4063,26.6563 320.6875,26.4844 Q320.9844,26.2969 321.5313,26.2969 L323.25,26.2969 L323.25,19.7813 L321.5313,19.7813 Q320.4063,19.7813 320.4063,18.9375 Q320.4063,18.4531 320.6875,18.2813 Q320.9844,18.0938 321.5313,18.0938 L326.6719,18.0938 Q327.2188,18.0938 327.5,18.2813 Q327.7813,18.4531 327.7813,18.9375 Q327.7813,19.7813 326.6719,19.7813 L324.9531,19.7813 L324.9531,26.2969 L326.6719,26.2969 Z " fill="#000000"/><text fill="#000000" font-family="sans-serif" font-size="12" font-style="italic" lengthAdjust="spacing" textLength="129" x="338" y="27.8">ContentMappingService</text><!--MD5=[017c0c1550d291b7da197d987bebbac9]
reverse link ContentMappingService to ContentNegotiationServiceXRoDomainType--><path codeLine="20" d="M389.5,44.33 C389.5,65.65 389.5,98.5 389.5,121.49 " fill="none" id="ContentMappingService-backto-ContentNegotiationServiceXRoDomainType" style="stroke:#A80036;stroke-width:1.0;"/><polygon fill="#A80036" points="389.5,39.17,385.5,48.17,389.5,44.17,393.5,48.17,389.5,39.17" style="stroke:#A80036;stroke-width:1.0;"/><text fill="#000000" font-family="sans-serif" font-size="13" lengthAdjust="spacing" textLength="69" x="328" y="70.25">delegates to</text><text fill="#000000" font-family="sans-serif" font-size="13" lengthAdjust="spacing" textLength="75" x="325" y="85.85">(if recognizes</text><text fill="#000000" font-family="sans-serif" font-size="13" lengthAdjust="spacing" textLength="99" x="313" y="101.45">x-ro-domain-type)</text><!--MD5=[2b8c896dac46f724cc2e853c726f27d1]
reverse link ContentNegotiationService to ContentNegotiationServiceForRestfulObjectsV1_0--><path codeLine="21" d="M168.58,257.84 C208.43,269.83 258.17,284.79 300.25,297.45 " fill="none" id="ContentNegotiationService-backto-ContentNegotiationServiceForRestfulObjectsV1_0" style="stroke:#A80036;stroke-width:1.0;"/><polygon fill="none" points="166.44,264.5,149.31,252.04,170.48,251.1,166.44,264.5" style="stroke:#A80036;stroke-width:1.0;"/><!--MD5=[fb679802bb41fbd3062a55db4fc669d0]
reverse link ContentNegotiationService to ContentNegotiationServiceXRoDomainType--><path codeLine="22" d="M168.58,214.16 C208.43,202.17 258.17,187.21 300.25,174.55 " fill="none" id="ContentNegotiationService-backto-ContentNegotiationServiceXRoDomainType" style="stroke:#A80036;stroke-width:1.0;"/><polygon fill="none" points="170.48,220.9,149.31,219.96,166.44,207.5,170.48,220.9" style="stroke:#A80036;stroke-width:1.0;"/><!--MD5=[6de5bf7a8a4eda8f7aa56862f2e175fd]
reverse link ContentNegotiationService to ContentNegotiationServiceSimplified--><path codeLine="23" d="M203.43,236 C223.93,236 245.52,236 266.44,236 " fill="none" id="ContentNegotiationService-backto-ContentNegotiationServiceSimplified" style="stroke:#A80036;stroke-width:1.0;"/><polygon fill="none" points="203.36,243,183.36,236,203.36,229,203.36,243" style="stroke:#A80036;stroke-width:1.0;"/><!--MD5=[433454d4d7ee23394687654d86c84147]
reverse link ContentNegotiationService to RepresentationService--><path codeLine="25" d="M95,257.19 C95,279.51 95,314.17 95,334.52 " fill="none" id="ContentNegotiationService-backto-RepresentationService" style="stroke:#A80036;stroke-width:1.0;"/><polygon fill="#A80036" points="95,252.08,91,261.08,95,257.08,99,261.08,95,252.08" style="stroke:#A80036;stroke-width:1.0;"/><text fill="#000000" font-family="sans-serif" font-size="13" lengthAdjust="spacing" textLength="69" x="33.5" y="283.5">delegates to</text><text fill="#000000" font-family="sans-serif" font-size="13" lengthAdjust="spacing" textLength="51" x="42.5" y="299.1">based on</text><text fill="#000000" font-family="sans-serif" font-size="13" lengthAdjust="spacing" textLength="94" x="21" y="314.7">ACCEPT header</text><text fill="#000000" font-family="sans-serif" font-size="13" lengthAdjust="spacing" textLength="18" x="74.0188" y="272.9903">1..*</text><!--MD5=[20578c0bdb97ac19cfcd5f4e86ba1a0d]
@startuml
hide empty members
left to right direction
'skinparam linetype ortho

class RepresentationService {}

interface ContentNegotiationService {
}
class ContentNegotiationServiceSimplified {
    // application/json;profile="urn:org.apache.isis/v2"
}
class ContentNegotiationServiceXRoDomainType {
    // application/xml;x-ro-domain-type="xxx"
}
class ContentNegotiationServiceForRestfulObjectsV1_0 {
    // application/json
}
interface ContentMappingService {}

ContentNegotiationServiceXRoDomainType -l-> ContentMappingService : "delegates to\n(if recognizes\nx-ro-domain-type)"
ContentNegotiationService ^-d- ContentNegotiationServiceForRestfulObjectsV1_0
ContentNegotiationService ^-d- ContentNegotiationServiceXRoDomainType
ContentNegotiationService ^-d- ContentNegotiationServiceSimplified

RepresentationService -l-> "1..*" ContentNegotiationService : delegates to\nbased on\nACCEPT header
@enduml

@startuml
hide empty members
left to right direction

class RepresentationService {}

interface ContentNegotiationService {
}
class ContentNegotiationServiceSimplified {
    // application/json;profile="urn:org.apache.isis/v2"
}
class ContentNegotiationServiceXRoDomainType {
    // application/xml;x-ro-domain-type="xxx"
}
class ContentNegotiationServiceForRestfulObjectsV1_0 {
    // application/json
}
interface ContentMappingService {}

ContentNegotiationServiceXRoDomainType -l-> ContentMappingService : "delegates to\n(if recognizes\nx-ro-domain-type)"
ContentNegotiationService ^-d- ContentNegotiationServiceForRestfulObjectsV1_0
ContentNegotiationService ^-d- ContentNegotiationServiceXRoDomainType
ContentNegotiationService ^-d- ContentNegotiationServiceSimplified

RepresentationService -l-> "1..*" ContentNegotiationService : delegates to\nbased on\nACCEPT header
@enduml

PlantUML version 1.2021.8(Sat Jun 26 08:20:59 GMT 2021)
(GPL source distribution)
Java Runtime: OpenJDK Runtime Environment
JVM: OpenJDK 64-Bit Server VM
Default Encoding: UTF-8
Language: en
Country: US
--></g></svg>