<?xml version="1.0" encoding="UTF-8" standalone="no"?><svg xmlns="http://www.w3.org/2000/svg" xmlns:xlink="http://www.w3.org/1999/xlink" contentStyleType="text/css" height="380px" preserveAspectRatio="none" style="width:635px;height:380px;background:#FFFFFF;" version="1.1" viewBox="0 0 635 380" width="635px" zoomAndPan="magnify"><defs/><g><!--MD5=[e9839dd1b2a17272fb9cdfbaf0adb67e]
class RepresentationService--><g id="elem_RepresentationService"><rect codeLine="5" fill="#F1F1F1" height="32" id="RepresentationService" rx="2.5" ry="2.5" style="stroke:#181818;stroke-width:0.5;" width="170" x="22.5" y="341"/><ellipse cx="37.5" cy="357" fill="#ADD1B2" rx="11" ry="11" style="stroke:#181818;stroke-width:1.0;"/><path d="M36.8594,360.7813 Q37.6563,360.7813 38.2188,360.5938 Q38.7969,360.3906 39.0313,360.1719 Q39.2813,359.9375 39.5156,359.75 Q39.7656,359.5469 39.9844,359.5469 Q40.3281,359.5469 40.5781,359.8125 Q40.8438,360.0625 40.8438,360.3906 Q40.8438,361.125 39.6719,361.8125 Q38.5156,362.4844 36.8125,362.4844 Q34.6563,362.4844 33.2344,361.2188 Q31.8125,359.9531 31.8125,358.0156 L31.8125,356.8906 Q31.8125,354.8594 33.1406,353.4844 Q34.4688,352.0938 36.4375,352.0938 Q37.625,352.0938 38.8438,352.6719 L39.0156,352.75 Q39.3125,352.3438 39.7344,352.3438 Q40.2188,352.3438 40.3906,352.6406 Q40.5781,352.9219 40.5781,353.4688 L40.5781,354.8906 Q40.5781,356.0156 39.7344,356.0156 Q39.4219,356.0156 39.2188,355.8438 Q39.0313,355.6719 38.9844,355.5313 Q38.9531,355.375 38.9063,355.1094 Q38.7969,354.5938 38.2813,354.2813 Q37.7656,353.9688 37.3125,353.8906 Q36.875,353.7969 36.5,353.7969 Q35.2188,353.7969 34.3594,354.6719 Q33.5156,355.5469 33.5156,356.8906 L33.5156,357.9844 Q33.5156,359.2656 34.4219,360.0313 Q35.3281,360.7813 36.8594,360.7813 Z " fill="#000000"/><text fill="#000000" font-family="sans-serif" font-size="14" lengthAdjust="spacing" textLength="138" x="51.5" y="362.6">RepresentationService</text></g><!--MD5=[562f899a5549b4d5d6641959136186c6]
class ContentNegotiationService--><g id="elem_ContentNegotiationService"><rect codeLine="7" fill="#F1F1F1" height="32" id="ContentNegotiationService" rx="2.5" ry="2.5" style="stroke:#181818;stroke-width:0.5;" width="201" x="7" y="226"/><ellipse cx="22" cy="242" fill="#B4A7E5" rx="11" ry="11" style="stroke:#181818;stroke-width:1.0;"/><path d="M24.6719,245.2969 Q25.2188,245.2969 25.5,245.4844 Q25.7813,245.6563 25.7813,246.1563 Q25.7813,247 24.6719,247 L19.5313,247 Q18.4063,247 18.4063,246.1563 Q18.4063,245.6563 18.6875,245.4844 Q18.9844,245.2969 19.5313,245.2969 L21.25,245.2969 L21.25,238.7813 L19.5313,238.7813 Q18.4063,238.7813 18.4063,237.9375 Q18.4063,237.4531 18.6875,237.2813 Q18.9844,237.0938 19.5313,237.0938 L24.6719,237.0938 Q25.2188,237.0938 25.5,237.2813 Q25.7813,237.4531 25.7813,237.9375 Q25.7813,238.7813 24.6719,238.7813 L22.9531,238.7813 L22.9531,245.2969 L24.6719,245.2969 Z " fill="#000000"/><text fill="#000000" font-family="sans-serif" font-size="14" font-style="italic" lengthAdjust="spacing" textLength="169" x="36" y="247.6">ContentNegotiationService</text></g><!--MD5=[63b301f88cdc66483f67c9f76c6cc8b9]
class ContentNegotiationServiceSimplified--><g id="elem_ContentNegotiationServiceSimplified"><rect codeLine="9" fill="#F1F1F1" height="56.7999" id="ContentNegotiationServiceSimplified" rx="2.5" ry="2.5" style="stroke:#181818;stroke-width:0.5;" width="359" x="269" y="213.5"/><ellipse cx="333.75" cy="229.5" fill="#ADD1B2" rx="11" ry="11" style="stroke:#181818;stroke-width:1.0;"/><path d="M333.1094,233.2813 Q333.9063,233.2813 334.4688,233.0938 Q335.0469,232.8906 335.2813,232.6719 Q335.5313,232.4375 335.7656,232.25 Q336.0156,232.0469 336.2344,232.0469 Q336.5781,232.0469 336.8281,232.3125 Q337.0938,232.5625 337.0938,232.8906 Q337.0938,233.625 335.9219,234.3125 Q334.7656,234.9844 333.0625,234.9844 Q330.9063,234.9844 329.4844,233.7188 Q328.0625,232.4531 328.0625,230.5156 L328.0625,229.3906 Q328.0625,227.3594 329.3906,225.9844 Q330.7188,224.5938 332.6875,224.5938 Q333.875,224.5938 335.0938,225.1719 L335.2656,225.25 Q335.5625,224.8438 335.9844,224.8438 Q336.4688,224.8438 336.6406,225.1406 Q336.8281,225.4219 336.8281,225.9688 L336.8281,227.3906 Q336.8281,228.5156 335.9844,228.5156 Q335.6719,228.5156 335.4688,228.3438 Q335.2813,228.1719 335.2344,228.0313 Q335.2031,227.875 335.1563,227.6094 Q335.0469,227.0938 334.5313,226.7813 Q334.0156,226.4688 333.5625,226.3906 Q333.125,226.2969 332.75,226.2969 Q331.4688,226.2969 330.6094,227.1719 Q329.7656,228.0469 329.7656,229.3906 L329.7656,230.4844 Q329.7656,231.7656 330.6719,232.5313 Q331.5781,233.2813 333.1094,233.2813 Z " fill="#000000"/><text fill="#000000" font-family="sans-serif" font-size="14" lengthAdjust="spacing" textLength="221" x="354.25" y="235.1">ContentNegotiationServiceSimplified</text><line style="stroke:#181818;stroke-width:0.5;" x1="270" x2="627" y1="245.5" y2="245.5"/><text fill="#000000" font-family="sans-serif" font-size="14" lengthAdjust="spacing" textLength="347" x="275" y="263.4999">// application/json;profile="urn:org.apache.causeway/v2"</text></g><!--MD5=[bd9cc58482063d070d8819bc19bf6eb3]
class ContentNegotiationServiceXRoDomainType--><g id="elem_ContentNegotiationServiceXRoDomainType"><rect codeLine="12" fill="#F1F1F1" height="56.7999" id="ContentNegotiationServiceXRoDomainType" rx="2.5" ry="2.5" style="stroke:#181818;stroke-width:0.5;" width="298" x="299.5" y="121.5"/><ellipse cx="314.5" cy="137.5" fill="#ADD1B2" rx="11" ry="11" style="stroke:#181818;stroke-width:1.0;"/><path d="M313.8594,141.2813 Q314.6563,141.2813 315.2188,141.0938 Q315.7969,140.8906 316.0313,140.6719 Q316.2813,140.4375 316.5156,140.25 Q316.7656,140.0469 316.9844,140.0469 Q317.3281,140.0469 317.5781,140.3125 Q317.8438,140.5625 317.8438,140.8906 Q317.8438,141.625 316.6719,142.3125 Q315.5156,142.9844 313.8125,142.9844 Q311.6563,142.9844 310.2344,141.7188 Q308.8125,140.4531 308.8125,138.5156 L308.8125,137.3906 Q308.8125,135.3594 310.1406,133.9844 Q311.4688,132.5938 313.4375,132.5938 Q314.625,132.5938 315.8438,133.1719 L316.0156,133.25 Q316.3125,132.8438 316.7344,132.8438 Q317.2188,132.8438 317.3906,133.1406 Q317.5781,133.4219 317.5781,133.9688 L317.5781,135.3906 Q317.5781,136.5156 316.7344,136.5156 Q316.4219,136.5156 316.2188,136.3438 Q316.0313,136.1719 315.9844,136.0313 Q315.9531,135.875 315.9063,135.6094 Q315.7969,135.0938 315.2813,134.7813 Q314.7656,134.4688 314.3125,134.3906 Q313.875,134.2969 313.5,134.2969 Q312.2188,134.2969 311.3594,135.1719 Q310.5156,136.0469 310.5156,137.3906 L310.5156,138.4844 Q310.5156,139.7656 311.4219,140.5313 Q312.3281,141.2813 313.8594,141.2813 Z " fill="#000000"/><text fill="#000000" font-family="sans-serif" font-size="14" lengthAdjust="spacing" textLength="266" x="328.5" y="143.1">ContentNegotiationServiceXRoDomainType</text><line style="stroke:#181818;stroke-width:0.5;" x1="300.5" x2="596.5" y1="153.5" y2="153.5"/><text fill="#000000" font-family="sans-serif" font-size="14" lengthAdjust="spacing" textLength="252" x="305.5" y="171.4999">// application/xml;x-ro-domain-type="xxx"</text></g><!--MD5=[bf64c5cb7d9a05909f94e79dfa50180a]
class ContentNegotiationServiceForRestfulObjectsV1_0--><g id="elem_ContentNegotiationServiceForRestfulObjectsV1_0"><rect codeLine="15" fill="#F1F1F1" height="56.7999" id="ContentNegotiationServiceForRestfulObjectsV1_0" rx="2.5" ry="2.5" style="stroke:#181818;stroke-width:0.5;" width="337" x="280" y="305.5"/><ellipse cx="295" cy="321.5" fill="#ADD1B2" rx="11" ry="11" style="stroke:#181818;stroke-width:1.0;"/><path d="M294.3594,325.2813 Q295.1563,325.2813 295.7188,325.0938 Q296.2969,324.8906 296.5313,324.6719 Q296.7813,324.4375 297.0156,324.25 Q297.2656,324.0469 297.4844,324.0469 Q297.8281,324.0469 298.0781,324.3125 Q298.3438,324.5625 298.3438,324.8906 Q298.3438,325.625 297.1719,326.3125 Q296.0156,326.9844 294.3125,326.9844 Q292.1563,326.9844 290.7344,325.7188 Q289.3125,324.4531 289.3125,322.5156 L289.3125,321.3906 Q289.3125,319.3594 290.6406,317.9844 Q291.9688,316.5938 293.9375,316.5938 Q295.125,316.5938 296.3438,317.1719 L296.5156,317.25 Q296.8125,316.8438 297.2344,316.8438 Q297.7188,316.8438 297.8906,317.1406 Q298.0781,317.4219 298.0781,317.9688 L298.0781,319.3906 Q298.0781,320.5156 297.2344,320.5156 Q296.9219,320.5156 296.7188,320.3438 Q296.5313,320.1719 296.4844,320.0313 Q296.4531,319.875 296.4063,319.6094 Q296.2969,319.0938 295.7813,318.7813 Q295.2656,318.4688 294.8125,318.3906 Q294.375,318.2969 294,318.2969 Q292.7188,318.2969 291.8594,319.1719 Q291.0156,320.0469 291.0156,321.3906 L291.0156,322.4844 Q291.0156,323.7656 291.9219,324.5313 Q292.8281,325.2813 294.3594,325.2813 Z " fill="#000000"/><text fill="#000000" font-family="sans-serif" font-size="14" lengthAdjust="spacing" textLength="305" x="309" y="327.1">ContentNegotiationServiceForRestfulObjectsV1_0</text><line style="stroke:#181818;stroke-width:0.5;" x1="281" x2="616" y1="337.5" y2="337.5"/><text fill="#000000" font-family="sans-serif" font-size="14" lengthAdjust="spacing" textLength="108" x="286" y="355.4999">// application/json</text></g><!--MD5=[126918a969bee8d30107f913d2d1b4cc]
class ContentMappingService--><g id="elem_ContentMappingService"><rect codeLine="18" fill="#F1F1F1" height="32" id="ContentMappingService" rx="2.5" ry="2.5" style="stroke:#181818;stroke-width:0.5;" width="184" x="356.5" y="7"/><ellipse cx="371.5" cy="23" fill="#B4A7E5" rx="11" ry="11" style="stroke:#181818;stroke-width:1.0;"/><path d="M374.1719,26.2969 Q374.7188,26.2969 375,26.4844 Q375.2813,26.6563 375.2813,27.1563 Q375.2813,28 374.1719,28 L369.0313,28 Q367.9063,28 367.9063,27.1563 Q367.9063,26.6563 368.1875,26.4844 Q368.4844,26.2969 369.0313,26.2969 L370.75,26.2969 L370.75,19.7813 L369.0313,19.7813 Q367.9063,19.7813 367.9063,18.9375 Q367.9063,18.4531 368.1875,18.2813 Q368.4844,18.0938 369.0313,18.0938 L374.1719,18.0938 Q374.7188,18.0938 375,18.2813 Q375.2813,18.4531 375.2813,18.9375 Q375.2813,19.7813 374.1719,19.7813 L372.4531,19.7813 L372.4531,26.2969 L374.1719,26.2969 Z " fill="#000000"/><text fill="#000000" font-family="sans-serif" font-size="14" font-style="italic" lengthAdjust="spacing" textLength="152" x="385.5" y="28.6">ContentMappingService</text></g><!--MD5=[017c0c1550d291b7da197d987bebbac9]
reverse link ContentMappingService to ContentNegotiationServiceXRoDomainType--><g id="link_ContentMappingService_ContentNegotiationServiceXRoDomainType"><path codeLine="20" d="M448.5,44.13 C448.5,65.31 448.5,98.04 448.5,121.5 " fill="none" id="ContentMappingService-backto-ContentNegotiationServiceXRoDomainType" style="stroke:#181818;stroke-width:1.0;"/><polygon fill="#181818" points="448.5,39.01,444.5,48.01,448.5,44.01,452.5,48.01,448.5,39.01" style="stroke:#181818;stroke-width:1.0;"/><text fill="#000000" font-family="sans-serif" font-size="13" lengthAdjust="spacing" textLength="69" x="387" y="70.25">delegates to</text><text fill="#000000" font-family="sans-serif" font-size="13" lengthAdjust="spacing" textLength="75" x="384" y="85.85">(if recognizes</text><text fill="#000000" font-family="sans-serif" font-size="13" lengthAdjust="spacing" textLength="99" x="372" y="101.45">x-ro-domain-type)</text></g><!--MD5=[2b8c896dac46f724cc2e853c726f27d1]
reverse link ContentNegotiationService to ContentNegotiationServiceForRestfulObjectsV1_0--><g id="link_ContentNegotiationService_ContentNegotiationServiceForRestfulObjectsV1_0"><path codeLine="21" d="M182.46,263.65 C209.63,271.48 240.67,280.29 269,288 C290.15,293.76 312.77,299.72 334.54,305.38 " fill="none" id="ContentNegotiationService-backto-ContentNegotiationServiceForRestfulObjectsV1_0" style="stroke:#181818;stroke-width:1.0;"/><polygon fill="none" points="180.26,270.3,163,258.01,184.16,256.85,180.26,270.3" style="stroke:#181818;stroke-width:1.0;"/></g><!--MD5=[fb679802bb41fbd3062a55db4fc669d0]
reverse link ContentNegotiationService to ContentNegotiationServiceXRoDomainType--><g id="link_ContentNegotiationService_ContentNegotiationServiceXRoDomainType"><path codeLine="22" d="M182.46,220.35 C209.63,212.52 240.67,203.71 269,196 C290.15,190.24 312.77,184.28 334.54,178.62 " fill="none" id="ContentNegotiationService-backto-ContentNegotiationServiceXRoDomainType" style="stroke:#181818;stroke-width:1.0;"/><polygon fill="none" points="184.16,227.15,163,225.99,180.26,213.7,184.16,227.15" style="stroke:#181818;stroke-width:1.0;"/></g><!--MD5=[6de5bf7a8a4eda8f7aa56862f2e175fd]
reverse link ContentNegotiationService to ContentNegotiationServiceSimplified--><g id="link_ContentNegotiationService_ContentNegotiationServiceSimplified"><path codeLine="23" d="M228.57,242 C241.68,242 255.23,242 268.85,242 " fill="none" id="ContentNegotiationService-backto-ContentNegotiationServiceSimplified" style="stroke:#181818;stroke-width:1.0;"/><polygon fill="none" points="228.38,249,208.38,242,228.38,235,228.38,249" style="stroke:#181818;stroke-width:1.0;"/></g><!--MD5=[433454d4d7ee23394687654d86c84147]
reverse link ContentNegotiationService to RepresentationService--><g id="link_ContentNegotiationService_RepresentationService"><path codeLine="25" d="M107.5,263.19 C107.5,285.51 107.5,320.17 107.5,340.52 " fill="none" id="ContentNegotiationService-backto-RepresentationService" style="stroke:#181818;stroke-width:1.0;"/><polygon fill="#181818" points="107.5,258.08,103.5,267.08,107.5,263.08,111.5,267.08,107.5,258.08" style="stroke:#181818;stroke-width:1.0;"/><text fill="#000000" font-family="sans-serif" font-size="13" lengthAdjust="spacing" textLength="69" x="46" y="289.5">delegates to</text><text fill="#000000" font-family="sans-serif" font-size="13" lengthAdjust="spacing" textLength="51" x="55" y="305.1">based on</text><text fill="#000000" font-family="sans-serif" font-size="13" lengthAdjust="spacing" textLength="94" x="33.5" y="320.7">ACCEPT header</text><text fill="#000000" font-family="sans-serif" font-size="13" lengthAdjust="spacing" textLength="18" x="86.5188" y="278.9903">1..*</text></g><!--MD5=[cbe3e5be198706e6dd841c4d92502ca5]
@startuml
hide empty members
left to right direction
'skinparam linetype ortho

class RepresentationService {}

interface ContentNegotiationService {
}
class ContentNegotiationServiceSimplified {
    // application/json;profile="urn:org.apache.causeway/v2"
}
class ContentNegotiationServiceXRoDomainType {
    // application/xml;x-ro-domain-type="xxx"
}
class ContentNegotiationServiceForRestfulObjectsV1_0 {
    // application/json
}
interface ContentMappingService {}

ContentNegotiationServiceXRoDomainType -l-> ContentMappingService : "delegates to\n(if recognizes\nx-ro-domain-type)"
ContentNegotiationService ^-d- ContentNegotiationServiceForRestfulObjectsV1_0
ContentNegotiationService ^-d- ContentNegotiationServiceXRoDomainType
ContentNegotiationService ^-d- ContentNegotiationServiceSimplified

RepresentationService -l-> "1..*" ContentNegotiationService : delegates to\nbased on\nACCEPT header
@enduml

@startuml
hide empty members
left to right direction

class RepresentationService {}

interface ContentNegotiationService {
}
class ContentNegotiationServiceSimplified {
    // application/json;profile="urn:org.apache.causeway/v2"
}
class ContentNegotiationServiceXRoDomainType {
    // application/xml;x-ro-domain-type="xxx"
}
class ContentNegotiationServiceForRestfulObjectsV1_0 {
    // application/json
}
interface ContentMappingService {}

ContentNegotiationServiceXRoDomainType -l-> ContentMappingService : "delegates to\n(if recognizes\nx-ro-domain-type)"
ContentNegotiationService ^-d- ContentNegotiationServiceForRestfulObjectsV1_0
ContentNegotiationService ^-d- ContentNegotiationServiceXRoDomainType
ContentNegotiationService ^-d- ContentNegotiationServiceSimplified

RepresentationService -l-> "1..*" ContentNegotiationService : delegates to\nbased on\nACCEPT header
@enduml

PlantUML version 1.2022.5(Sat Apr 30 10:55:52 GMT 2022)
(GPL source distribution)
Java Runtime: OpenJDK Runtime Environment
JVM: OpenJDK 64-Bit Server VM
Default Encoding: UTF-8
Language: en
Country: US
--></g></svg>