<?xml version="1.0" encoding="UTF-8" standalone="no"?><svg xmlns="http://www.w3.org/2000/svg" xmlns:xlink="http://www.w3.org/1999/xlink" contentStyleType="text/css" height="225px" preserveAspectRatio="none" style="width:398px;height:225px;background:#FFFFFF;" version="1.1" viewBox="0 0 398 225" width="398px" zoomAndPan="magnify"><defs/><g><!--MD5=[33bc894a5efa2d147589402b88218fdd]
cluster invoice--><g id="cluster_invoice"><path d="M8.5,6 L59.5,6 A3.75,3.75 0 0 1 62,8.5 L69,28.7999 L183.5,28.7999 A2.5,2.5 0 0 1 186,31.2999 L186,215.5 A2.5,2.5 0 0 1 183.5,218 L8.5,218 A2.5,2.5 0 0 1 6,215.5 L6,8.5 A2.5,2.5 0 0 1 8.5,6 " style="stroke:#000000;stroke-width:1.5;fill:none;"/><line style="stroke:#000000;stroke-width:1.5;fill:none;" x1="6" x2="69" y1="28.7999" y2="28.7999"/><text fill="#000000" font-family="sans-serif" font-size="14" font-weight="bold" lengthAdjust="spacing" textLength="50" x="10" y="21.9999">invoice</text></g><!--MD5=[55c1321e5e660f70fb77e9cf74eefc72]
cluster customers--><g id="cluster_customers"><path d="M269.5,6 L343.5,6 A3.75,3.75 0 0 1 346,8.5 L353,28.7999 L388.5,28.7999 A2.5,2.5 0 0 1 391,31.2999 L391,95.5 A2.5,2.5 0 0 1 388.5,98 L269.5,98 A2.5,2.5 0 0 1 267,95.5 L267,8.5 A2.5,2.5 0 0 1 269.5,6 " style="stroke:#000000;stroke-width:1.5;fill:none;"/><line style="stroke:#000000;stroke-width:1.5;fill:none;" x1="267" x2="353" y1="28.7999" y2="28.7999"/><text fill="#000000" font-family="sans-serif" font-size="14" font-weight="bold" lengthAdjust="spacing" textLength="73" x="271" y="21.9999">customers</text></g><!--MD5=[166711b09ef651fc2667dc79f8abbf96]
class Customer_invoices--><g id="elem_Customer_invoices"><rect codeLine="20" fill="#FFFFE0" height="41.2" id="Customer_invoices" rx="2.5" ry="2.5" style="stroke:#181818;stroke-width:0.5;" width="148" x="22" y="41"/><ellipse cx="37" cy="61.6" fill="#ADD1B2" rx="11" ry="11" style="stroke:#181818;stroke-width:1.0;"/><path d="M36.3594,65.3813 Q37.1563,65.3813 37.7188,65.1938 Q38.2969,64.9906 38.5313,64.7719 Q38.7813,64.5375 39.0156,64.35 Q39.2656,64.1469 39.4844,64.1469 Q39.8281,64.1469 40.0781,64.4125 Q40.3438,64.6625 40.3438,64.9906 Q40.3438,65.725 39.1719,66.4125 Q38.0156,67.0844 36.3125,67.0844 Q34.1563,67.0844 32.7344,65.8188 Q31.3125,64.5531 31.3125,62.6156 L31.3125,61.4906 Q31.3125,59.4594 32.6406,58.0844 Q33.9688,56.6938 35.9375,56.6938 Q37.125,56.6938 38.3438,57.2719 L38.5156,57.35 Q38.8125,56.9438 39.2344,56.9438 Q39.7188,56.9438 39.8906,57.2406 Q40.0781,57.5219 40.0781,58.0688 L40.0781,59.4906 Q40.0781,60.6156 39.2344,60.6156 Q38.9219,60.6156 38.7188,60.4438 Q38.5313,60.2719 38.4844,60.1313 Q38.4531,59.975 38.4063,59.7094 Q38.2969,59.1938 37.7813,58.8813 Q37.2656,58.5688 36.8125,58.4906 Q36.375,58.3969 36,58.3969 Q34.7188,58.3969 33.8594,59.2719 Q33.0156,60.1469 33.0156,61.4906 L33.0156,62.5844 Q33.0156,63.8656 33.9219,64.6313 Q34.8281,65.3813 36.3594,65.3813 Z " fill="#000000"/><text fill="#000000" font-family="sans-serif" font-size="12" font-style="italic" lengthAdjust="spacing" textLength="38" x="90" y="58.0001">«mixin»</text><text fill="#000000" font-family="sans-serif" font-size="14" lengthAdjust="spacing" textLength="116" x="51" y="74.4">Customer_invoices</text></g><!--MD5=[894442645724153f40a9f7a43026dbfc]
class Invoice--><g id="elem_Invoice"><rect codeLine="21" fill="#FFB6C1" height="41.2" id="Invoice" rx="2.5" ry="2.5" style="stroke:#181818;stroke-width:0.5;" width="75" x="58.5" y="161"/><ellipse cx="73.5" cy="181.6" fill="#ADD1B2" rx="11" ry="11" style="stroke:#181818;stroke-width:1.0;"/><path d="M72.8594,185.3813 Q73.6563,185.3813 74.2188,185.1938 Q74.7969,184.9906 75.0313,184.7719 Q75.2813,184.5375 75.5156,184.35 Q75.7656,184.1469 75.9844,184.1469 Q76.3281,184.1469 76.5781,184.4125 Q76.8438,184.6625 76.8438,184.9906 Q76.8438,185.725 75.6719,186.4125 Q74.5156,187.0844 72.8125,187.0844 Q70.6563,187.0844 69.2344,185.8188 Q67.8125,184.5531 67.8125,182.6156 L67.8125,181.4906 Q67.8125,179.4594 69.1406,178.0844 Q70.4688,176.6938 72.4375,176.6938 Q73.625,176.6938 74.8438,177.2719 L75.0156,177.35 Q75.3125,176.9438 75.7344,176.9438 Q76.2188,176.9438 76.3906,177.2406 Q76.5781,177.5219 76.5781,178.0688 L76.5781,179.4906 Q76.5781,180.6156 75.7344,180.6156 Q75.4219,180.6156 75.2188,180.4438 Q75.0313,180.2719 74.9844,180.1313 Q74.9531,179.975 74.9063,179.7094 Q74.7969,179.1938 74.2813,178.8813 Q73.7656,178.5688 73.3125,178.4906 Q72.875,178.3969 72.5,178.3969 Q71.2188,178.3969 70.3594,179.2719 Q69.5156,180.1469 69.5156,181.4906 L69.5156,182.5844 Q69.5156,183.8656 70.4219,184.6313 Q71.3281,185.3813 72.8594,185.3813 Z " fill="#000000"/><text fill="#000000" font-family="sans-serif" font-size="12" font-style="italic" lengthAdjust="spacing" textLength="23" x="97.5" y="178.0001">«mi»</text><text fill="#000000" font-family="sans-serif" font-size="14" lengthAdjust="spacing" textLength="43" x="87.5" y="194.4">Invoice</text></g><!--MD5=[2ce0c9fb7f55b1e256ab28a8ea6b25ec]
class Customer--><g id="elem_Customer"><rect codeLine="26" fill="#90EE90" height="41.2" id="Customer" rx="2.5" ry="2.5" style="stroke:#181818;stroke-width:0.5;" width="91" x="283.5" y="41"/><ellipse cx="298.5" cy="61.6" fill="#ADD1B2" rx="11" ry="11" style="stroke:#181818;stroke-width:1.0;"/><path d="M297.8594,65.3813 Q298.6563,65.3813 299.2188,65.1938 Q299.7969,64.9906 300.0313,64.7719 Q300.2813,64.5375 300.5156,64.35 Q300.7656,64.1469 300.9844,64.1469 Q301.3281,64.1469 301.5781,64.4125 Q301.8438,64.6625 301.8438,64.9906 Q301.8438,65.725 300.6719,66.4125 Q299.5156,67.0844 297.8125,67.0844 Q295.6563,67.0844 294.2344,65.8188 Q292.8125,64.5531 292.8125,62.6156 L292.8125,61.4906 Q292.8125,59.4594 294.1406,58.0844 Q295.4688,56.6938 297.4375,56.6938 Q298.625,56.6938 299.8438,57.2719 L300.0156,57.35 Q300.3125,56.9438 300.7344,56.9438 Q301.2188,56.9438 301.3906,57.2406 Q301.5781,57.5219 301.5781,58.0688 L301.5781,59.4906 Q301.5781,60.6156 300.7344,60.6156 Q300.4219,60.6156 300.2188,60.4438 Q300.0313,60.2719 299.9844,60.1313 Q299.9531,59.975 299.9063,59.7094 Q299.7969,59.1938 299.2813,58.8813 Q298.7656,58.5688 298.3125,58.4906 Q297.875,58.3969 297.5,58.3969 Q296.2188,58.3969 295.3594,59.2719 Q294.5156,60.1469 294.5156,61.4906 L294.5156,62.5844 Q294.5156,63.8656 295.4219,64.6313 Q296.3281,65.3813 297.8594,65.3813 Z " fill="#000000"/><text fill="#000000" font-family="sans-serif" font-size="12" font-style="italic" lengthAdjust="spacing" textLength="27" x="328.5" y="58.0001">«ppt»</text><text fill="#000000" font-family="sans-serif" font-size="14" lengthAdjust="spacing" textLength="59" x="312.5" y="74.4">Customer</text></g><!--MD5=[c38fb4e0b1062c689707cc5bfe05b3ce]
link Customer_invoices to Invoice--><g id="link_Customer_invoices_Invoice"><path codeLine="23" d="M96,82.25 C96,102.42 96,133.78 96,155.62 " fill="none" id="Customer_invoices-to-Invoice" style="stroke:#181818;stroke-width:1.0;"/><polygon fill="#181818" points="96,160.69,100.0257,151.7015,96.0143,155.69,92.0257,151.6786,96,160.69" style="stroke:#181818;stroke-width:1.0;"/><text fill="#000000" font-family="sans-serif" font-size="13" lengthAdjust="spacing" textLength="46" x="97" y="128">invoices</text><text fill="#000000" font-family="sans-serif" font-size="13" lengthAdjust="spacing" textLength="15" x="78.7969" y="150.4327">0.*</text></g><!--MD5=[8e22998ddb87c33b83a916134bcc7748]
link Customer_invoices to Customer--><g id="link_Customer_invoices_Customer"><path codeLine="28" d="M170.04,61.5 C205.19,61.5 246.3,61.5 277.91,61.5 " fill="none" id="Customer_invoices-to-Customer" style="stroke:#181818;stroke-width:1.0;stroke-dasharray:7.0,7.0;"/><polygon fill="#181818" points="283.3,61.5,274.3,57.5,278.3,61.5,274.3,65.5,283.3,61.5" style="stroke:#181818;stroke-width:1.0;"/><text fill="#000000" font-family="sans-serif" font-size="13" lengthAdjust="spacing" textLength="77" x="188.25" y="55.5">contributes to</text></g><!--MD5=[29d0f497929b03cb3bbd88795c3f6e13]
@startuml
hide empty members

skinparam class {
    BackgroundColor<<desc>> Cyan
    BackgroundColor<<ppt>> LightGreen
    BackgroundColor<<mi>> LightPink
    BackgroundColor<<role>> LightYellow
    BackgroundColor<<strategy>> White
    BackgroundColor<<api>> White
    BackgroundColor<<spi>> White
    BackgroundColor<<internal>> LightGrey
    BackgroundColor<<value>> White

    BackgroundColor<<entity>> LightGreen
    BackgroundColor<<viewmodel>> LightPink
    BackgroundColor<<mixin>> LightYellow
}

package invoice {
    class Customer_invoices <<mixin>>
    class Invoice <<mi>>
}
Customer_invoices - -> "0.*" Invoice: invoices

package customers {
    class Customer <<ppt>>
}
Customer_invoices -.r-> Customer: "contributes to"
@enduml

PlantUML version 1.2022.5(Sat Apr 30 10:55:52 GMT 2022)
(GPL source distribution)
Java Runtime: OpenJDK Runtime Environment
JVM: OpenJDK 64-Bit Server VM
Default Encoding: UTF-8
Language: en
Country: US
--></g></svg>