<?xml version="1.0" encoding="UTF-8" standalone="no"?><svg xmlns="http://www.w3.org/2000/svg" xmlns:xlink="http://www.w3.org/1999/xlink" contentScriptType="application/ecmascript" contentStyleType="text/css" height="221px" preserveAspectRatio="none" style="width:392px;height:221px;background:#FFFFFF;" version="1.1" viewBox="0 0 392 221" width="392px" zoomAndPan="magnify"><defs><filter height="300%" id="f7n0kujea76kv" width="300%" x="-1" y="-1"><feGaussianBlur result="blurOut" stdDeviation="2.0"/><feColorMatrix in="blurOut" result="blurOut2" type="matrix" values="0 0 0 0 0 0 0 0 0 0 0 0 0 0 0 0 0 0 .4 0"/><feOffset dx="4.0" dy="4.0" in="blurOut2" result="blurOut3"/><feBlend in="SourceGraphic" in2="blurOut3" mode="normal"/></filter></defs><g><!--MD5=[33bc894a5efa2d147589402b88218fdd]
cluster invoice--><polygon fill="#FFFFFF" filter="url(#f7n0kujea76kv)" points="16,6,72,6,79,28.7999,180,28.7999,180,214,16,214,16,6" style="stroke:#000000;stroke-width:1.5;"/><line style="stroke:#000000;stroke-width:1.5;" x1="16" x2="79" y1="28.7999" y2="28.7999"/><text fill="#000000" font-family="sans-serif" font-size="14" font-weight="bold" lengthAdjust="spacing" textLength="50" x="20" y="21.9999">invoice</text><!--MD5=[55c1321e5e660f70fb77e9cf74eefc72]
cluster customers--><polygon fill="#FFFFFF" filter="url(#f7n0kujea76kv)" points="261,6,340,6,347,28.7999,375,28.7999,375,96,261,96,261,6" style="stroke:#000000;stroke-width:1.5;"/><line style="stroke:#000000;stroke-width:1.5;" x1="261" x2="347" y1="28.7999" y2="28.7999"/><text fill="#000000" font-family="sans-serif" font-size="14" font-weight="bold" lengthAdjust="spacing" textLength="73" x="265" y="21.9999">customers</text><!--MD5=[166711b09ef651fc2667dc79f8abbf96]
class Customer_invoices--><rect codeLine="20" fill="#FFFFE0" filter="url(#f7n0kujea76kv)" height="38.8002" id="Customer_invoices" style="stroke:#A80036;stroke-width:1.5;" width="131" x="32.5" y="41"/><ellipse cx="47.5" cy="60.4001" fill="#ADD1B2" rx="11" ry="11" style="stroke:#A80036;stroke-width:1.0;"/><path d="M46.8594,64.1814 Q47.6563,64.1814 48.2188,63.9939 Q48.7969,63.7907 49.0313,63.572 Q49.2813,63.3376 49.5156,63.1501 Q49.7656,62.947 49.9844,62.947 Q50.3281,62.947 50.5781,63.2126 Q50.8438,63.4626 50.8438,63.7907 Q50.8438,64.5251 49.6719,65.2126 Q48.5156,65.8845 46.8125,65.8845 Q44.6563,65.8845 43.2344,64.6189 Q41.8125,63.3532 41.8125,61.4157 L41.8125,60.2907 Q41.8125,58.2595 43.1406,56.8845 Q44.4688,55.4939 46.4375,55.4939 Q47.625,55.4939 48.8438,56.072 L49.0156,56.1501 Q49.3125,55.7439 49.7344,55.7439 Q50.2188,55.7439 50.3906,56.0407 Q50.5781,56.322 50.5781,56.8689 L50.5781,58.2907 Q50.5781,59.4157 49.7344,59.4157 Q49.4219,59.4157 49.2188,59.2439 Q49.0313,59.072 48.9844,58.9314 Q48.9531,58.7751 48.9063,58.5095 Q48.7969,57.9939 48.2813,57.6814 Q47.7656,57.3689 47.3125,57.2907 Q46.875,57.197 46.5,57.197 Q45.2188,57.197 44.3594,58.072 Q43.5156,58.947 43.5156,60.2907 L43.5156,61.3845 Q43.5156,62.6657 44.4219,63.4314 Q45.3281,64.1814 46.8594,64.1814 Z " fill="#000000"/><text fill="#000000" font-family="sans-serif" font-size="12" font-style="italic" lengthAdjust="spacing" textLength="38" x="92" y="58.0001">«mixin»</text><text fill="#000000" font-family="sans-serif" font-size="12" lengthAdjust="spacing" textLength="99" x="61.5" y="72.4002">Customer_invoices</text><!--MD5=[894442645724153f40a9f7a43026dbfc]
class Invoice--><rect codeLine="21" fill="#FFB6C1" filter="url(#f7n0kujea76kv)" height="38.8002" id="Invoice" style="stroke:#A80036;stroke-width:1.5;" width="68" x="64" y="159"/><ellipse cx="79" cy="178.4001" fill="#ADD1B2" rx="11" ry="11" style="stroke:#A80036;stroke-width:1.0;"/><path d="M78.3594,182.1814 Q79.1563,182.1814 79.7188,181.9939 Q80.2969,181.7907 80.5313,181.572 Q80.7813,181.3376 81.0156,181.1501 Q81.2656,180.947 81.4844,180.947 Q81.8281,180.947 82.0781,181.2126 Q82.3438,181.4626 82.3438,181.7907 Q82.3438,182.5251 81.1719,183.2126 Q80.0156,183.8845 78.3125,183.8845 Q76.1563,183.8845 74.7344,182.6189 Q73.3125,181.3532 73.3125,179.4157 L73.3125,178.2907 Q73.3125,176.2595 74.6406,174.8845 Q75.9688,173.4939 77.9375,173.4939 Q79.125,173.4939 80.3438,174.072 L80.5156,174.1501 Q80.8125,173.7439 81.2344,173.7439 Q81.7188,173.7439 81.8906,174.0407 Q82.0781,174.322 82.0781,174.8689 L82.0781,176.2907 Q82.0781,177.4157 81.2344,177.4157 Q80.9219,177.4157 80.7188,177.2439 Q80.5313,177.072 80.4844,176.9314 Q80.4531,176.7751 80.4063,176.5095 Q80.2969,175.9939 79.7813,175.6814 Q79.2656,175.3689 78.8125,175.2907 Q78.375,175.197 78,175.197 Q76.7188,175.197 75.8594,176.072 Q75.0156,176.947 75.0156,178.2907 L75.0156,179.3845 Q75.0156,180.6657 75.9219,181.4314 Q76.8281,182.1814 78.3594,182.1814 Z " fill="#000000"/><text fill="#000000" font-family="sans-serif" font-size="12" font-style="italic" lengthAdjust="spacing" textLength="23" x="99.5" y="176.0001">«mi»</text><text fill="#000000" font-family="sans-serif" font-size="12" lengthAdjust="spacing" textLength="36" x="93" y="190.4002">Invoice</text><!--MD5=[2ce0c9fb7f55b1e256ab28a8ea6b25ec]
class Customer--><rect codeLine="26" fill="#90EE90" filter="url(#f7n0kujea76kv)" height="38.8002" id="Customer" style="stroke:#A80036;stroke-width:1.5;" width="82" x="277" y="41"/><ellipse cx="292" cy="60.4001" fill="#ADD1B2" rx="11" ry="11" style="stroke:#A80036;stroke-width:1.0;"/><path d="M291.3594,64.1814 Q292.1563,64.1814 292.7188,63.9939 Q293.2969,63.7907 293.5313,63.572 Q293.7813,63.3376 294.0156,63.1501 Q294.2656,62.947 294.4844,62.947 Q294.8281,62.947 295.0781,63.2126 Q295.3438,63.4626 295.3438,63.7907 Q295.3438,64.5251 294.1719,65.2126 Q293.0156,65.8845 291.3125,65.8845 Q289.1563,65.8845 287.7344,64.6189 Q286.3125,63.3532 286.3125,61.4157 L286.3125,60.2907 Q286.3125,58.2595 287.6406,56.8845 Q288.9688,55.4939 290.9375,55.4939 Q292.125,55.4939 293.3438,56.072 L293.5156,56.1501 Q293.8125,55.7439 294.2344,55.7439 Q294.7188,55.7439 294.8906,56.0407 Q295.0781,56.322 295.0781,56.8689 L295.0781,58.2907 Q295.0781,59.4157 294.2344,59.4157 Q293.9219,59.4157 293.7188,59.2439 Q293.5313,59.072 293.4844,58.9314 Q293.4531,58.7751 293.4063,58.5095 Q293.2969,57.9939 292.7813,57.6814 Q292.2656,57.3689 291.8125,57.2907 Q291.375,57.197 291,57.197 Q289.7188,57.197 288.8594,58.072 Q288.0156,58.947 288.0156,60.2907 L288.0156,61.3845 Q288.0156,62.6657 288.9219,63.4314 Q289.8281,64.1814 291.3594,64.1814 Z " fill="#000000"/><text fill="#000000" font-family="sans-serif" font-size="12" font-style="italic" lengthAdjust="spacing" textLength="27" x="317.5" y="58.0001">«ppt»</text><text fill="#000000" font-family="sans-serif" font-size="12" lengthAdjust="spacing" textLength="50" x="306" y="72.4002">Customer</text><!--MD5=[c38fb4e0b1062c689707cc5bfe05b3ce]
link Customer_invoices to Invoice--><path codeLine="23" d="M98,80.14 C98,100.18 98,132.09 98,153.88 " fill="none" id="Customer_invoices-to-Invoice" style="stroke:#A80036;stroke-width:1.0;"/><polygon fill="#A80036" points="98,158.91,102,149.91,98,153.91,94,149.91,98,158.91" style="stroke:#A80036;stroke-width:1.0;"/><text fill="#000000" font-family="sans-serif" font-size="13" lengthAdjust="spacing" textLength="46" x="99" y="126">invoices</text><text fill="#000000" font-family="sans-serif" font-size="13" lengthAdjust="spacing" textLength="15" x="80.6094" y="148.4025">0.*</text><!--MD5=[8e22998ddb87c33b83a916134bcc7748]
link Customer_invoices to Customer--><path codeLine="28" d="M163.71,60.5 C198.42,60.5 240.19,60.5 271.51,60.5 " fill="none" id="Customer_invoices-to-Customer" style="stroke:#A80036;stroke-width:1.0;stroke-dasharray:7.0,7.0;"/><polygon fill="#A80036" points="276.84,60.5,267.84,56.5,271.84,60.5,267.84,64.5,276.84,60.5" style="stroke:#A80036;stroke-width:1.0;"/><text fill="#000000" font-family="sans-serif" font-size="13" lengthAdjust="spacing" textLength="77" x="181.75" y="54.5">contributes to</text><!--MD5=[ba2148ec458044ba79e466ffdc7ba2d2]
@startuml
hide empty members

skinparam class {
    BackgroundColor<<desc>> Cyan
    BackgroundColor<<ppt>> LightGreen
    BackgroundColor<<mi>> LightPink
    BackgroundColor<<role>> LightYellow
    BackgroundColor<<strategy>> White
    BackgroundColor<<api>> White
    BackgroundColor<<spi>> White
    BackgroundColor<<internal>> LightGrey
    BackgroundColor<<value>> White

    BackgroundColor<<entity>> LightGreen
    BackgroundColor<<viewmodel>> LightPink
    BackgroundColor<<mixin>> LightYellow
}

package invoice {
    class Customer_invoices <<mixin>>
    class Invoice <<mi>>
}
Customer_invoices - -> "0.*" Invoice: invoices

package customers {
    class Customer <<ppt>>
}
Customer_invoices -.r-> Customer: "contributes to"
@enduml

PlantUML version 1.2021.8(Sat Jun 26 08:20:59 GMT 2021)
(GPL source distribution)
Java Runtime: OpenJDK Runtime Environment
JVM: OpenJDK 64-Bit Server VM
Default Encoding: UTF-8
Language: en
Country: US
--></g></svg>