<?xml version="1.0" encoding="UTF-8" standalone="no"?><svg xmlns="http://www.w3.org/2000/svg" xmlns:xlink="http://www.w3.org/1999/xlink" contentScriptType="application/ecmascript" contentStyleType="text/css" height="121px" preserveAspectRatio="none" style="width:277px;height:121px;background:#FFFFFF;" version="1.1" viewBox="0 0 277 121" width="277px" zoomAndPan="magnify"><defs><filter height="300%" id="f1ozdumjim4ow9" width="300%" x="-1" y="-1"><feGaussianBlur result="blurOut" stdDeviation="2.0"/><feColorMatrix in="blurOut" result="blurOut2" type="matrix" values="0 0 0 0 0 0 0 0 0 0 0 0 0 0 0 0 0 0 .4 0"/><feOffset dx="4.0" dy="4.0" in="blurOut2" result="blurOut3"/><feBlend in="SourceGraphic" in2="blurOut3" mode="normal"/></filter></defs><g><!--MD5=[2ce0c9fb7f55b1e256ab28a8ea6b25ec]
class Customer--><rect fill="#FEFECE" filter="url(#f1ozdumjim4ow9)" height="48" id="Customer" style="stroke:#A80036;stroke-width:1.5;" width="82" x="7" y="33.5"/><ellipse cx="22" cy="49.5" fill="#ADD1B2" rx="11" ry="11" style="stroke:#A80036;stroke-width:1.0;"/><path d="M21.3594,53.2813 Q22.1563,53.2813 22.7188,53.0938 Q23.2969,52.8906 23.5313,52.6719 Q23.7813,52.4375 24.0156,52.25 Q24.2656,52.0469 24.4844,52.0469 Q24.8281,52.0469 25.0781,52.3125 Q25.3438,52.5625 25.3438,52.8906 Q25.3438,53.625 24.1719,54.3125 Q23.0156,54.9844 21.3125,54.9844 Q19.1563,54.9844 17.7344,53.7188 Q16.3125,52.4531 16.3125,50.5156 L16.3125,49.3906 Q16.3125,47.3594 17.6406,45.9844 Q18.9688,44.5938 20.9375,44.5938 Q22.125,44.5938 23.3438,45.1719 L23.5156,45.25 Q23.8125,44.8438 24.2344,44.8438 Q24.7188,44.8438 24.8906,45.1406 Q25.0781,45.4219 25.0781,45.9688 L25.0781,47.3906 Q25.0781,48.5156 24.2344,48.5156 Q23.9219,48.5156 23.7188,48.3438 Q23.5313,48.1719 23.4844,48.0313 Q23.4531,47.875 23.4063,47.6094 Q23.2969,47.0938 22.7813,46.7813 Q22.2656,46.4688 21.8125,46.3906 Q21.375,46.2969 21,46.2969 Q19.7188,46.2969 18.8594,47.1719 Q18.0156,48.0469 18.0156,49.3906 L18.0156,50.4844 Q18.0156,51.7656 18.9219,52.5313 Q19.8281,53.2813 21.3594,53.2813 Z " fill="#000000"/><text fill="#000000" font-family="sans-serif" font-size="12" lengthAdjust="spacing" textLength="50" x="36" y="54.3">Customer</text><line style="stroke:#A80036;stroke-width:1.5;" x1="8" x2="88" y1="65.5" y2="65.5"/><line style="stroke:#A80036;stroke-width:1.5;" x1="8" x2="88" y1="73.5" y2="73.5"/><!--MD5=[cf4d6237fcae255cd2e1656cf84a30e2]
class Order--><rect codeLine="3" fill="#FEFECE" filter="url(#f1ozdumjim4ow9)" height="100.7996" id="Order" style="stroke:#A80036;stroke-width:1.5;" width="90" x="173" y="7"/><ellipse cx="200.6" cy="23" fill="#ADD1B2" rx="11" ry="11" style="stroke:#A80036;stroke-width:1.0;"/><path d="M199.9594,26.7813 Q200.7563,26.7813 201.3188,26.5938 Q201.8969,26.3906 202.1313,26.1719 Q202.3813,25.9375 202.6156,25.75 Q202.8656,25.5469 203.0844,25.5469 Q203.4281,25.5469 203.6781,25.8125 Q203.9438,26.0625 203.9438,26.3906 Q203.9438,27.125 202.7719,27.8125 Q201.6156,28.4844 199.9125,28.4844 Q197.7563,28.4844 196.3344,27.2188 Q194.9125,25.9531 194.9125,24.0156 L194.9125,22.8906 Q194.9125,20.8594 196.2406,19.4844 Q197.5688,18.0938 199.5375,18.0938 Q200.725,18.0938 201.9438,18.6719 L202.1156,18.75 Q202.4125,18.3438 202.8344,18.3438 Q203.3188,18.3438 203.4906,18.6406 Q203.6781,18.9219 203.6781,19.4688 L203.6781,20.8906 Q203.6781,22.0156 202.8344,22.0156 Q202.5219,22.0156 202.3188,21.8438 Q202.1313,21.6719 202.0844,21.5313 Q202.0531,21.375 202.0063,21.1094 Q201.8969,20.5938 201.3813,20.2813 Q200.8656,19.9688 200.4125,19.8906 Q199.975,19.7969 199.6,19.7969 Q198.3188,19.7969 197.4594,20.6719 Q196.6156,21.5469 196.6156,22.8906 L196.6156,23.9844 Q196.6156,25.2656 197.5219,26.0313 Q198.4281,26.7813 199.9594,26.7813 Z " fill="#000000"/><text fill="#000000" font-family="sans-serif" font-size="12" lengthAdjust="spacing" textLength="30" x="217.4" y="27.8">Order</text><line style="stroke:#A80036;stroke-width:1.5;" x1="174" x2="262" y1="39" y2="39"/><text fill="#000000" font-family="sans-serif" font-size="11" lengthAdjust="spacing" textLength="35" x="179" y="53.9999">int num</text><text fill="#000000" font-family="sans-serif" font-size="11" lengthAdjust="spacing" textLength="73" x="179" y="67.1998">Date placedOn</text><text fill="#000000" font-family="sans-serif" font-size="11" lengthAdjust="spacing" textLength="78" x="179" y="80.3997">Date shippedOn</text><text fill="#000000" font-family="sans-serif" font-size="11" lengthAdjust="spacing" textLength="51" x="179" y="93.5996">State state</text><line style="stroke:#A80036;stroke-width:1.5;" x1="174" x2="262" y1="99.7996" y2="99.7996"/><!--MD5=[135794f54b59c9e5883929d048383f81]
link Customer to Order--><path codeLine="1" d="M101.15,57.5 C101.15,57.5 141.09,57.5 159.64,57.5 " fill="none" id="Customer-Order" style="stroke:#A80036;stroke-width:1.0;"/><polygon fill="#A80036" points="172.75,57.5,163.75,53.5,167.75,57.5,163.75,61.5,172.75,57.5" style="stroke:#A80036;stroke-width:1.0;"/><line style="stroke:#A80036;stroke-width:1.0;" x1="167.75" x2="159.75" y1="57.5" y2="57.5"/><polygon fill="#A80036" points="89.15,57.5,95.15,61.5,101.15,57.5,95.15,53.5,89.15,57.5" style="stroke:#A80036;stroke-width:1.0;"/><text fill="#000000" font-family="sans-serif" font-size="13" lengthAdjust="spacing" textLength="35" x="119.5" y="51.5">orders</text><text fill="#000000" font-family="sans-serif" font-size="13" lengthAdjust="spacing" textLength="7" x="97.1033" y="54.2175">1</text><text fill="#000000" font-family="sans-serif" font-size="13" lengthAdjust="spacing" textLength="18" x="147.1211" y="71.611">0..*</text><!--MD5=[c19b04ec44a75ee231301b4aae16bbca]
@startuml
Customer "1" *-r-> "0..*" Order : "    orders"

class Order {
    int num
    Date placedOn
    Date shippedOn
    State state
}
@enduml

PlantUML version 1.2021.8(Sat Jun 26 08:20:59 GMT 2021)
(GPL source distribution)
Java Runtime: OpenJDK Runtime Environment
JVM: OpenJDK 64-Bit Server VM
Default Encoding: UTF-8
Language: en
Country: US
--></g></svg>