<?xml version="1.0" encoding="UTF-8" standalone="no"?><svg xmlns="http://www.w3.org/2000/svg" xmlns:xlink="http://www.w3.org/1999/xlink" contentScriptType="application/ecmascript" contentStyleType="text/css" height="145px" preserveAspectRatio="none" style="width:121px;height:145px;background:#FFFFFF;" version="1.1" viewBox="0 0 121 145" width="121px" zoomAndPan="magnify"><defs><filter height="300%" id="f1pvvdm31rmwtd" width="300%" x="-1" y="-1"><feGaussianBlur result="blurOut" stdDeviation="2.0"/><feColorMatrix in="blurOut" result="blurOut2" type="matrix" values="0 0 0 0 0 0 0 0 0 0 0 0 0 0 0 0 0 0 .4 0"/><feOffset dx="4.0" dy="4.0" in="blurOut2" result="blurOut3"/><feBlend in="SourceGraphic" in2="blurOut3" mode="normal"/></filter></defs><g><!--MD5=[47ee8de3858708181d3d6ad89cb541dc]
class ParentObject--><rect codeLine="19" fill="#FEFECE" filter="url(#f1pvvdm31rmwtd)" height="32" id="ParentObject" style="stroke:#A80036;stroke-width:1.5;" width="100" x="7" y="7"/><ellipse cx="22" cy="23" fill="#ADD1B2" rx="11" ry="11" style="stroke:#A80036;stroke-width:1.0;"/><path d="M21.3594,26.7813 Q22.1563,26.7813 22.7188,26.5938 Q23.2969,26.3906 23.5313,26.1719 Q23.7813,25.9375 24.0156,25.75 Q24.2656,25.5469 24.4844,25.5469 Q24.8281,25.5469 25.0781,25.8125 Q25.3438,26.0625 25.3438,26.3906 Q25.3438,27.125 24.1719,27.8125 Q23.0156,28.4844 21.3125,28.4844 Q19.1563,28.4844 17.7344,27.2188 Q16.3125,25.9531 16.3125,24.0156 L16.3125,22.8906 Q16.3125,20.8594 17.6406,19.4844 Q18.9688,18.0938 20.9375,18.0938 Q22.125,18.0938 23.3438,18.6719 L23.5156,18.75 Q23.8125,18.3438 24.2344,18.3438 Q24.7188,18.3438 24.8906,18.6406 Q25.0781,18.9219 25.0781,19.4688 L25.0781,20.8906 Q25.0781,22.0156 24.2344,22.0156 Q23.9219,22.0156 23.7188,21.8438 Q23.5313,21.6719 23.4844,21.5313 Q23.4531,21.375 23.4063,21.1094 Q23.2969,20.5938 22.7813,20.2813 Q22.2656,19.9688 21.8125,19.8906 Q21.375,19.7969 21,19.7969 Q19.7188,19.7969 18.8594,20.6719 Q18.0156,21.5469 18.0156,22.8906 L18.0156,23.9844 Q18.0156,25.2656 18.9219,26.0313 Q19.8281,26.7813 21.3594,26.7813 Z " fill="#000000"/><text fill="#000000" font-family="sans-serif" font-size="12" lengthAdjust="spacing" textLength="68" x="36" y="27.8">ParentObject</text><!--MD5=[cdc7a3df78f1a91c764e7a994f7c16cc]
class ChildObject--><rect codeLine="20" fill="#FEFECE" filter="url(#f1pvvdm31rmwtd)" height="32" id="ChildObject" style="stroke:#A80036;stroke-width:1.5;" width="94" x="10" y="99"/><ellipse cx="25" cy="115" fill="#ADD1B2" rx="11" ry="11" style="stroke:#A80036;stroke-width:1.0;"/><path d="M24.3594,118.7813 Q25.1563,118.7813 25.7188,118.5938 Q26.2969,118.3906 26.5313,118.1719 Q26.7813,117.9375 27.0156,117.75 Q27.2656,117.5469 27.4844,117.5469 Q27.8281,117.5469 28.0781,117.8125 Q28.3438,118.0625 28.3438,118.3906 Q28.3438,119.125 27.1719,119.8125 Q26.0156,120.4844 24.3125,120.4844 Q22.1563,120.4844 20.7344,119.2188 Q19.3125,117.9531 19.3125,116.0156 L19.3125,114.8906 Q19.3125,112.8594 20.6406,111.4844 Q21.9688,110.0938 23.9375,110.0938 Q25.125,110.0938 26.3438,110.6719 L26.5156,110.75 Q26.8125,110.3438 27.2344,110.3438 Q27.7188,110.3438 27.8906,110.6406 Q28.0781,110.9219 28.0781,111.4688 L28.0781,112.8906 Q28.0781,114.0156 27.2344,114.0156 Q26.9219,114.0156 26.7188,113.8438 Q26.5313,113.6719 26.4844,113.5313 Q26.4531,113.375 26.4063,113.1094 Q26.2969,112.5938 25.7813,112.2813 Q25.2656,111.9688 24.8125,111.8906 Q24.375,111.7969 24,111.7969 Q22.7188,111.7969 21.8594,112.6719 Q21.0156,113.5469 21.0156,114.8906 L21.0156,115.9844 Q21.0156,117.2656 21.9219,118.0313 Q22.8281,118.7813 24.3594,118.7813 Z " fill="#000000"/><text fill="#000000" font-family="sans-serif" font-size="12" lengthAdjust="spacing" textLength="62" x="39" y="119.8">ChildObject</text><!--MD5=[efdbd210ada12e3ce81bbc1533562b5c]
link ParentObject to ChildObject--><path codeLine="22" d="M57,44.62 C57,59.38 57,79.15 57,93.81 " fill="none" id="ParentObject-ChildObject" style="stroke:#A80036;stroke-width:1.0;"/><polygon fill="#A80036" points="57,98.96,61,89.96,57,93.96,53,89.96,57,98.96" style="stroke:#A80036;stroke-width:1.0;"/><polygon fill="#A80036" points="57,39.27,53,48.27,57,44.27,61,48.27,57,39.27" style="stroke:#A80036;stroke-width:1.0;"/><text fill="#000000" font-family="sans-serif" font-size="13" lengthAdjust="spacing" textLength="7" x="48.8844" y="59.9423">1</text><text fill="#000000" font-family="sans-serif" font-size="13" lengthAdjust="spacing" textLength="15" x="39.2344" y="88.3903">0.*</text><!--MD5=[7bebecb49b7f959e3509e11a2b92fbe0]
@startuml
hide empty members

skinparam class {
    BackgroundColor<<desc>> Cyan
    BackgroundColor<<ppt>> LightGreen
    BackgroundColor<<mi>> LightPink
    BackgroundColor<<role>> LightYellow
    BackgroundColor<<strategy>> White
    BackgroundColor<<api>> White
    BackgroundColor<<spi>> White
    BackgroundColor<<internal>> LightGrey
    BackgroundColor<<value>> White

    BackgroundColor<<entity>> LightGreen
    BackgroundColor<<viewmodel>> LightPink
    BackgroundColor<<mixin>> LightYellow
}

class ParentObject
class ChildObject

ParentObject "1" <-d-> "0.*" ChildObject
@enduml

PlantUML version 1.2021.8(Sat Jun 26 08:20:59 GMT 2021)
(GPL source distribution)
Java Runtime: OpenJDK Runtime Environment
JVM: OpenJDK 64-Bit Server VM
Default Encoding: UTF-8
Language: en
Country: US
--></g></svg>