<?xml version="1.0" encoding="UTF-8" standalone="no"?><svg xmlns="http://www.w3.org/2000/svg" xmlns:xlink="http://www.w3.org/1999/xlink" contentScriptType="application/ecmascript" contentStyleType="text/css" height="231px" preserveAspectRatio="none" style="width:389px;height:231px;" version="1.1" viewBox="0 0 389 231" width="389px" zoomAndPan="magnify"><defs><filter height="300%" id="f7n0kujea76kv" width="300%" x="-1" y="-1"><feGaussianBlur result="blurOut" stdDeviation="2.0"/><feColorMatrix in="blurOut" result="blurOut2" type="matrix" values="0 0 0 0 0 0 0 0 0 0 0 0 0 0 0 0 0 0 .4 0"/><feOffset dx="4.0" dy="4.0" in="blurOut2" result="blurOut3"/><feBlend in="SourceGraphic" in2="blurOut3" mode="normal"/></filter></defs><g><!--MD5=[33bc894a5efa2d147589402b88218fdd]
cluster invoice--><polygon fill="#FFFFFF" filter="url(#f7n0kujea76kv)" points="16,6.6563,65,6.6563,72,31.5508,176,31.5508,176,224.6563,16,224.6563,16,6.6563" style="stroke:#000000;stroke-width:1.5;"/><line style="stroke:#000000;stroke-width:1.5;" x1="16" x2="72" y1="31.5508" y2="31.5508"/><text fill="#000000" font-family="sans-serif" font-size="14" font-weight="bold" lengthAdjust="spacing" textLength="43" x="20" y="23.3945">invoice</text><!--MD5=[55c1321e5e660f70fb77e9cf74eefc72]
cluster customers--><polygon fill="#FFFFFF" filter="url(#f7n0kujea76kv)" points="258,6.6563,328,6.6563,335,31.5508,372,31.5508,372,101.6563,258,101.6563,258,6.6563" style="stroke:#000000;stroke-width:1.5;"/><line style="stroke:#000000;stroke-width:1.5;" x1="258" x2="335" y1="31.5508" y2="31.5508"/><text fill="#000000" font-family="sans-serif" font-size="14" font-weight="bold" lengthAdjust="spacing" textLength="64" x="262" y="23.3945">customers</text><!--MD5=[166711b09ef651fc2667dc79f8abbf96]
class Customer_invoices--><rect codeLine="20" fill="#FFFFE0" filter="url(#f7n0kujea76kv)" height="42.3906" id="Customer_invoices" style="stroke:#A80036;stroke-width:1.5;" width="128" x="32" y="43.6563"/><ellipse cx="47" cy="64.8516" fill="#ADD1B2" rx="11" ry="11" style="stroke:#A80036;stroke-width:1.0;"/><path d="M42.9375,64.9922 Q42.9375,61.5391 44.0313,59.9141 Q45.1406,58.2734 47.3594,58.2734 Q48.5625,58.2734 49.8281,58.9297 L49.8281,60.9766 Q48.375,60.1953 47.4375,60.1953 Q44.9844,60.1953 44.9844,64.9922 Q44.9844,67.6953 45.6094,68.7578 Q46.25,69.8047 47.4375,69.8047 Q48.4063,69.8047 49.9063,68.8828 L49.9063,71.0859 Q48.6406,71.7109 47.3594,71.7109 Q45.0938,71.7109 44.0156,70.1328 Q42.9375,68.5547 42.9375,64.9922 Z " fill="#000000"/><text fill="#000000" font-family="sans-serif" font-size="12" font-style="italic" lengthAdjust="spacing" textLength="37" x="90.5" y="61.2891">«mixin»</text><text fill="#000000" font-family="sans-serif" font-size="12" lengthAdjust="spacing" textLength="96" x="61" y="77.4844">Customer_invoices</text><!--MD5=[894442645724153f40a9f7a43026dbfc]
class Invoice--><rect codeLine="21" fill="#FFB6C1" filter="url(#f7n0kujea76kv)" height="42.3906" id="Invoice" style="stroke:#A80036;stroke-width:1.5;" width="67" x="62.5" y="166.6563"/><ellipse cx="77.5" cy="187.8516" fill="#ADD1B2" rx="11" ry="11" style="stroke:#A80036;stroke-width:1.0;"/><path d="M73.4375,187.9922 Q73.4375,184.5391 74.5313,182.9141 Q75.6406,181.2734 77.8594,181.2734 Q79.0625,181.2734 80.3281,181.9297 L80.3281,183.9766 Q78.875,183.1953 77.9375,183.1953 Q75.4844,183.1953 75.4844,187.9922 Q75.4844,190.6953 76.1094,191.7578 Q76.75,192.8047 77.9375,192.8047 Q78.9063,192.8047 80.4063,191.8828 L80.4063,194.0859 Q79.1406,194.7109 77.8594,194.7109 Q75.5938,194.7109 74.5156,193.1328 Q73.4375,191.5547 73.4375,187.9922 Z " fill="#000000"/><text fill="#000000" font-family="sans-serif" font-size="12" font-style="italic" lengthAdjust="spacing" textLength="23" x="97.5" y="184.2891">«mi»</text><text fill="#000000" font-family="sans-serif" font-size="12" lengthAdjust="spacing" textLength="35" x="91.5" y="200.4844">Invoice</text><!--MD5=[2ce0c9fb7f55b1e256ab28a8ea6b25ec]
class Customer--><rect codeLine="26" fill="#90EE90" filter="url(#f7n0kujea76kv)" height="42.3906" id="Customer" style="stroke:#A80036;stroke-width:1.5;" width="81" x="274.5" y="43.6563"/><ellipse cx="289.5" cy="64.8516" fill="#ADD1B2" rx="11" ry="11" style="stroke:#A80036;stroke-width:1.0;"/><path d="M285.4375,64.9922 Q285.4375,61.5391 286.5313,59.9141 Q287.6406,58.2734 289.8594,58.2734 Q291.0625,58.2734 292.3281,58.9297 L292.3281,60.9766 Q290.875,60.1953 289.9375,60.1953 Q287.4844,60.1953 287.4844,64.9922 Q287.4844,67.6953 288.1094,68.7578 Q288.75,69.8047 289.9375,69.8047 Q290.9063,69.8047 292.4063,68.8828 L292.4063,71.0859 Q291.1406,71.7109 289.8594,71.7109 Q287.5938,71.7109 286.5156,70.1328 Q285.4375,68.5547 285.4375,64.9922 Z " fill="#000000"/><text fill="#000000" font-family="sans-serif" font-size="12" font-style="italic" lengthAdjust="spacing" textLength="26" x="315" y="61.2891">«ppt»</text><text fill="#000000" font-family="sans-serif" font-size="12" lengthAdjust="spacing" textLength="49" x="303.5" y="77.4844">Customer</text><!--MD5=[c38fb4e0b1062c689707cc5bfe05b3ce]
link Customer_invoices to Invoice--><path codeLine="23" d="M96,85.9063 C96,106.5863 96,138.7463 96,161.1463 " fill="none" id="Customer_invoices-to-Invoice" style="stroke:#A80036;stroke-width:1.0;"/><polygon fill="#A80036" points="96,166.3363,100,157.3363,96,161.3363,92,157.3363,96,166.3363" style="stroke:#A80036;stroke-width:1.0;"/><text fill="#000000" font-family="sans-serif" font-size="13" lengthAdjust="spacing" textLength="46" x="97" y="132.3418">invoices</text><text fill="#000000" font-family="sans-serif" font-size="13" lengthAdjust="spacing" textLength="20" x="73.1875" y="154.6566">0.*</text><!--MD5=[8e22998ddb87c33b83a916134bcc7748]
link Customer_invoices to Customer--><path codeLine="28" d="M160.23,64.6563 C195.07,64.6563 237.33,64.6563 268.88,64.6563 " fill="none" id="Customer_invoices-to-Customer" style="stroke:#A80036;stroke-width:1.0;stroke-dasharray:7.0,7.0;"/><polygon fill="#A80036" points="274.24,64.6563,265.24,60.6563,269.24,64.6563,265.24,68.6563,274.24,64.6563" style="stroke:#A80036;stroke-width:1.0;"/><text fill="#000000" font-family="sans-serif" font-size="13" lengthAdjust="spacing" textLength="78" x="178.25" y="57.3418">contributes to</text><!--MD5=[a7cc5575695012f9c64884bd00eee848]
@startuml
hide empty members

skinparam class {
    BackgroundColor<<desc>> Cyan
    BackgroundColor<<ppt>> LightGreen
    BackgroundColor<<mi>> LightPink
    BackgroundColor<<role>> LightYellow
    BackgroundColor<<strategy>> White
    BackgroundColor<<api>> White
    BackgroundColor<<spi>> White
    BackgroundColor<<internal>> LightGrey
    BackgroundColor<<value>> White

    BackgroundColor<<entity>> LightGreen
    BackgroundColor<<viewmodel>> LightPink
    BackgroundColor<<mixin>> LightYellow
}

package invoice {
    class Customer_invoices <<mixin>>
    class Invoice <<mi>>
}
Customer_invoices - -> "0.*" Invoice: invoices

package customers {
    class Customer <<ppt>>
}
Customer_invoices -.r-> Customer: "contributes to"
@enduml

PlantUML version 1.2021.01(Tue Feb 02 07:55:08 GMT 2021)
(GPL source distribution)
Java Runtime: OpenJDK Runtime Environment
JVM: OpenJDK 64-Bit Server VM
Default Encoding: UTF-8
Language: en
Country: US
--></g></svg>