<?xml version="1.0" encoding="UTF-8" standalone="no"?><svg xmlns="http://www.w3.org/2000/svg" xmlns:xlink="http://www.w3.org/1999/xlink" contentStyleType="text/css" height="180px" preserveAspectRatio="none" style="width:110px;height:180px;background:#FFFFFF;" version="1.1" viewBox="0 0 110 180" width="110px" zoomAndPan="magnify"><defs/><g><path d="M10,6 L85,6 A3.75,3.75 0 0 1 87.5,8.5 L94.5,28.7999 L99,28.7999 A2.5,2.5 0 0 1 101.5,31.2999 L101.5,57.0999 A2.5,2.5 0 0 1 99,59.5999 L10,59.5999 A2.5,2.5 0 0 1 7.5,57.0999 L7.5,8.5 A2.5,2.5 0 0 1 10,6 " fill="#F1F1F1" style="stroke:#181818;stroke-width:0.5;"/><line style="stroke:#181818;stroke-width:0.5;" x1="7.5" x2="94.5" y1="28.7999" y2="28.7999"/><text fill="#000000" font-family="sans-serif" font-size="14" lengthAdjust="spacing" textLength="74" x="11.5" y="21.9999">excel-applib</text><path d="M8.5,120 L86.5,120 A3.75,3.75 0 0 1 89,122.5 L96,142.7999 L100.5,142.7999 A2.5,2.5 0 0 1 103,145.2999 L103,171.0999 A2.5,2.5 0 0 1 100.5,173.5999 L8.5,173.5999 A2.5,2.5 0 0 1 6,171.0999 L6,122.5 A2.5,2.5 0 0 1 8.5,120 " fill="#F1F1F1" style="stroke:#181818;stroke-width:0.5;"/><line style="stroke:#181818;stroke-width:0.5;" x1="6" x2="96" y1="142.7999" y2="142.7999"/><text fill="#000000" font-family="sans-serif" font-size="14" lengthAdjust="spacing" textLength="77" x="10" y="135.9999">excel-testing</text><!--MD5=[46daa11d8aff99627bc74f8b64b315e9]
reverse link excel-applib to excel-testing--><g id="link_excel-applib_excel-testing"><path d="M54.5,65.46 C54.5,82.63 54.5,103.65 54.5,119.91 " fill="none" id="excel-applib-backto-excel-testing" style="stroke:#181818;stroke-width:1.0;stroke-dasharray:7.0,7.0;"/><polygon fill="#181818" points="54.5,60.26,50.5,69.26,54.5,65.26,58.5,69.26,54.5,60.26" style="stroke:#181818;stroke-width:1.0;"/></g><!--MD5=[8676588c935af90411bf6eb1fbcf6b41]
@startuml
hide empty members

skinparam class {
    BackgroundColor<<desc>> Cyan
    BackgroundColor<<ppt>> LightGreen
    BackgroundColor<<mi>> LightPink
    BackgroundColor<<role>> LightYellow
    BackgroundColor<<strategy>> White
    BackgroundColor<<api>> White
    BackgroundColor<<spi>> White
    BackgroundColor<<internal>> LightGrey
    BackgroundColor<<value>> White

    BackgroundColor<<entity>> LightGreen
    BackgroundColor<<viewmodel>> LightPink
    BackgroundColor<<mixin>> LightYellow
}

package excel-applib {
}
package excel-testing {
}

"excel-applib" <.- "excel-testing"
@enduml

PlantUML version 1.2022.5(Sat Apr 30 10:55:52 GMT 2022)
(GPL source distribution)
Java Runtime: OpenJDK Runtime Environment
JVM: OpenJDK 64-Bit Server VM
Default Encoding: UTF-8
Language: en
Country: US
--></g></svg>