<?xml version="1.0" encoding="UTF-8" standalone="no"?><svg xmlns="http://www.w3.org/2000/svg" xmlns:xlink="http://www.w3.org/1999/xlink" contentStyleType="text/css" height="137px" preserveAspectRatio="none" style="width:324px;height:137px;background:#FFFFFF;" version="1.1" viewBox="0 0 324 137" width="324px" zoomAndPan="magnify"><defs/><g><!--MD5=[2ce0c9fb7f55b1e256ab28a8ea6b25ec]
class Customer--><g id="elem_Customer"><rect fill="#F1F1F1" height="32" id="Customer" rx="2.5" ry="2.5" style="stroke:#181818;stroke-width:0.5;" width="91" x="7" y="53"/><ellipse cx="22" cy="69" fill="#ADD1B2" rx="11" ry="11" style="stroke:#181818;stroke-width:1.0;"/><path d="M21.3594,72.7813 Q22.1563,72.7813 22.7188,72.5938 Q23.2969,72.3906 23.5313,72.1719 Q23.7813,71.9375 24.0156,71.75 Q24.2656,71.5469 24.4844,71.5469 Q24.8281,71.5469 25.0781,71.8125 Q25.3438,72.0625 25.3438,72.3906 Q25.3438,73.125 24.1719,73.8125 Q23.0156,74.4844 21.3125,74.4844 Q19.1563,74.4844 17.7344,73.2188 Q16.3125,71.9531 16.3125,70.0156 L16.3125,68.8906 Q16.3125,66.8594 17.6406,65.4844 Q18.9688,64.0938 20.9375,64.0938 Q22.125,64.0938 23.3438,64.6719 L23.5156,64.75 Q23.8125,64.3438 24.2344,64.3438 Q24.7188,64.3438 24.8906,64.6406 Q25.0781,64.9219 25.0781,65.4688 L25.0781,66.8906 Q25.0781,68.0156 24.2344,68.0156 Q23.9219,68.0156 23.7188,67.8438 Q23.5313,67.6719 23.4844,67.5313 Q23.4531,67.375 23.4063,67.1094 Q23.2969,66.5938 22.7813,66.2813 Q22.2656,65.9688 21.8125,65.8906 Q21.375,65.7969 21,65.7969 Q19.7188,65.7969 18.8594,66.6719 Q18.0156,67.5469 18.0156,68.8906 L18.0156,69.9844 Q18.0156,71.2656 18.9219,72.0313 Q19.8281,72.7813 21.3594,72.7813 Z " fill="#000000"/><text fill="#000000" font-family="sans-serif" font-size="14" lengthAdjust="spacing" textLength="59" x="36" y="74.6">Customer</text></g><!--MD5=[cf4d6237fcae255cd2e1656cf84a30e2]
class Order--><g id="elem_Order"><rect codeLine="5" fill="#F1F1F1" height="123.9996" id="Order" rx="2.5" ry="2.5" style="stroke:#181818;stroke-width:0.5;" width="135" x="182" y="7"/><ellipse cx="227.25" cy="23" fill="#ADD1B2" rx="11" ry="11" style="stroke:#181818;stroke-width:1.0;"/><path d="M226.6094,26.7813 Q227.4063,26.7813 227.9688,26.5938 Q228.5469,26.3906 228.7813,26.1719 Q229.0313,25.9375 229.2656,25.75 Q229.5156,25.5469 229.7344,25.5469 Q230.0781,25.5469 230.3281,25.8125 Q230.5938,26.0625 230.5938,26.3906 Q230.5938,27.125 229.4219,27.8125 Q228.2656,28.4844 226.5625,28.4844 Q224.4063,28.4844 222.9844,27.2188 Q221.5625,25.9531 221.5625,24.0156 L221.5625,22.8906 Q221.5625,20.8594 222.8906,19.4844 Q224.2188,18.0938 226.1875,18.0938 Q227.375,18.0938 228.5938,18.6719 L228.7656,18.75 Q229.0625,18.3438 229.4844,18.3438 Q229.9688,18.3438 230.1406,18.6406 Q230.3281,18.9219 230.3281,19.4688 L230.3281,20.8906 Q230.3281,22.0156 229.4844,22.0156 Q229.1719,22.0156 228.9688,21.8438 Q228.7813,21.6719 228.7344,21.5313 Q228.7031,21.375 228.6563,21.1094 Q228.5469,20.5938 228.0313,20.2813 Q227.5156,19.9688 227.0625,19.8906 Q226.625,19.7969 226.25,19.7969 Q224.9688,19.7969 224.1094,20.6719 Q223.2656,21.5469 223.2656,22.8906 L223.2656,23.9844 Q223.2656,25.2656 224.1719,26.0313 Q225.0781,26.7813 226.6094,26.7813 Z " fill="#000000"/><text fill="#000000" font-family="sans-serif" font-size="14" lengthAdjust="spacing" textLength="36" x="247.75" y="28.6">Order</text><line style="stroke:#181818;stroke-width:0.5;" x1="183" x2="316" y1="39" y2="39"/><text fill="#000000" font-family="sans-serif" font-size="14" lengthAdjust="spacing" textLength="50" x="188" y="56.9999">num: int</text><text fill="#000000" font-family="sans-serif" font-size="14" lengthAdjust="spacing" textLength="97" x="188" y="73.7999">placedOn: Date</text><text fill="#000000" font-family="sans-serif" font-size="14" lengthAdjust="spacing" textLength="105" x="188" y="90.5998">shippedOn: Date</text><text fill="#000000" font-family="sans-serif" font-size="14" lengthAdjust="spacing" textLength="70" x="188" y="107.3997">state: State</text><text fill="#000000" font-family="sans-serif" font-size="14" lengthAdjust="spacing" textLength="123" x="188" y="124.1996">amount: BigDecimal</text></g><!--MD5=[135794f54b59c9e5883929d048383f81]
link Customer to Order--><g id="link_Customer_Order"><path codeLine="3" d="M110.19,69 C110.19,69 149.46,69 168.58,69 " fill="none" id="Customer-Order" style="stroke:#181818;stroke-width:1.0;"/><polygon fill="#181818" points="181.63,69,172.63,65,176.63,69,172.63,73,181.63,69" style="stroke:#181818;stroke-width:1.0;"/><line style="stroke:#181818;stroke-width:1.0;" x1="176.63" x2="168.63" y1="69" y2="69"/><polygon fill="#181818" points="98.19,69,104.19,73,110.19,69,104.19,65,98.19,69" style="stroke:#181818;stroke-width:1.0;"/><text fill="#000000" font-family="sans-serif" font-size="13" lengthAdjust="spacing" textLength="35" x="128.5" y="63">orders</text><text fill="#000000" font-family="sans-serif" font-size="13" lengthAdjust="spacing" textLength="7" x="106.0297" y="65.8525">1</text><text fill="#000000" font-family="sans-serif" font-size="13" lengthAdjust="spacing" textLength="18" x="156.0631" y="82.7678">0..*</text></g><!--MD5=[2f01b900f329b029de7d8a652c5c0bd0]
@startuml
hide empty members

Customer "1" *-r-> "0..*" Order : "    orders"

class Order {
    num: int
    placedOn: Date
    shippedOn: Date
    state: State
    amount: BigDecimal
}
@enduml

PlantUML version 1.2022.5(Sat Apr 30 10:55:52 GMT 2022)
(GPL source distribution)
Java Runtime: OpenJDK Runtime Environment
JVM: OpenJDK 64-Bit Server VM
Default Encoding: UTF-8
Language: en
Country: US
--></g></svg>