<?xml version="1.0" encoding="UTF-8" standalone="no"?><svg xmlns="http://www.w3.org/2000/svg" xmlns:xlink="http://www.w3.org/1999/xlink" contentScriptType="application/ecmascript" contentStyleType="text/css" height="357px" preserveAspectRatio="none" style="width:799px;height:357px;" version="1.1" viewBox="0 0 799 357" width="799px" zoomAndPan="magnify"><defs><filter height="300%" id="f1ak48ec7ueion" width="300%" x="-1" y="-1"><feGaussianBlur result="blurOut" stdDeviation="2.0"/><feColorMatrix in="blurOut" result="blurOut2" type="matrix" values="0 0 0 0 0 0 0 0 0 0 0 0 0 0 0 0 0 0 .4 0"/><feOffset dx="4.0" dy="4.0" in="blurOut2" result="blurOut3"/><feBlend in="SourceGraphic" in2="blurOut3" mode="normal"/></filter></defs><g><!--MD5=[34858fd43d95e92b9fa80c296381e186]
cluster documents--><polygon fill="#FFFFFF" filter="url(#f1ak48ec7ueion)" points="16,6.6563,91,6.6563,98,31.5508,782,31.5508,782,222.6563,16,222.6563,16,6.6563" style="stroke:#000000;stroke-width:1.5;"/><line style="stroke:#000000;stroke-width:1.5;" x1="16" x2="98" y1="31.5508" y2="31.5508"/><text fill="#000000" font-family="sans-serif" font-size="14" font-weight="bold" lengthAdjust="spacing" textLength="69" x="20" y="23.3945">documents</text><!--MD5=[55c1321e5e660f70fb77e9cf74eefc72]
cluster customers--><polygon fill="#FFFFFF" filter="url(#f1ak48ec7ueion)" points="328,255.6563,398,255.6563,405,280.5508,442,280.5508,442,350.6563,328,350.6563,328,255.6563" style="stroke:#000000;stroke-width:1.5;"/><line style="stroke:#000000;stroke-width:1.5;" x1="328" x2="405" y1="280.5508" y2="280.5508"/><text fill="#000000" font-family="sans-serif" font-size="14" font-weight="bold" lengthAdjust="spacing" textLength="64" x="332" y="272.3945">customers</text><!--MD5=[e9488f6d277e231b9446aa19d7c97d87]
class DocumentHolder--><rect codeLine="20" fill="#FFFFE0" filter="url(#f1ak48ec7ueion)" height="42.3906" id="DocumentHolder" style="stroke:#A80036;stroke-width:1.5;" width="117" x="326.5" y="43.6563"/><ellipse cx="341.5" cy="64.8516" fill="#B4A7E5" rx="11" ry="11" style="stroke:#A80036;stroke-width:1.0;"/><path d="M344.1563,71.0547 L338.0313,71.0547 L338.0313,69.1641 L340.0313,69.1641 L340.0313,59.8359 L338.0313,59.8359 L338.0313,57.9453 L344.1563,57.9453 L344.1563,59.8359 L342.1563,59.8359 L342.1563,69.1641 L344.1563,69.1641 L344.1563,71.0547 Z " fill="#000000"/><text fill="#000000" font-family="sans-serif" font-size="12" font-style="italic" lengthAdjust="spacing" textLength="29" x="383.5" y="61.2891">«role»</text><text fill="#000000" font-family="sans-serif" font-size="12" font-style="italic" lengthAdjust="spacing" textLength="85" x="355.5" y="77.4844">DocumentHolder</text><!--MD5=[19a6f2433930319ed8d88e36d7e2e675]
class DocumentHolder_documents--><rect codeLine="21" fill="#FFFFE0" filter="url(#f1ak48ec7ueion)" height="42.3906" id="DocumentHolder_documents" style="stroke:#A80036;stroke-width:1.5;" width="179" x="32.5" y="43.6563"/><ellipse cx="47.5" cy="64.8516" fill="#ADD1B2" rx="11" ry="11" style="stroke:#A80036;stroke-width:1.0;"/><path d="M43.4375,64.9922 Q43.4375,61.5391 44.5313,59.9141 Q45.6406,58.2734 47.8594,58.2734 Q49.0625,58.2734 50.3281,58.9297 L50.3281,60.9766 Q48.875,60.1953 47.9375,60.1953 Q45.4844,60.1953 45.4844,64.9922 Q45.4844,67.6953 46.1094,68.7578 Q46.75,69.8047 47.9375,69.8047 Q48.9063,69.8047 50.4063,68.8828 L50.4063,71.0859 Q49.1406,71.7109 47.8594,71.7109 Q45.5938,71.7109 44.5156,70.1328 Q43.4375,68.5547 43.4375,64.9922 Z " fill="#000000"/><text fill="#000000" font-family="sans-serif" font-size="12" font-style="italic" lengthAdjust="spacing" textLength="37" x="116.5" y="61.2891">«mixin»</text><text fill="#000000" font-family="sans-serif" font-size="12" lengthAdjust="spacing" textLength="147" x="61.5" y="77.4844">DocumentHolder_documents</text><!--MD5=[aaefda37f268a242f159fa4f96ae602c]
class DocumentHolder_attachDocument--><rect codeLine="22" fill="#FFFFE0" filter="url(#f1ak48ec7ueion)" height="42.3906" id="DocumentHolder_attachDocument" style="stroke:#A80036;stroke-width:1.5;" width="207" x="558.5" y="43.6563"/><ellipse cx="573.5" cy="64.8516" fill="#ADD1B2" rx="11" ry="11" style="stroke:#A80036;stroke-width:1.0;"/><path d="M569.4375,64.9922 Q569.4375,61.5391 570.5313,59.9141 Q571.6406,58.2734 573.8594,58.2734 Q575.0625,58.2734 576.3281,58.9297 L576.3281,60.9766 Q574.875,60.1953 573.9375,60.1953 Q571.4844,60.1953 571.4844,64.9922 Q571.4844,67.6953 572.1094,68.7578 Q572.75,69.8047 573.9375,69.8047 Q574.9063,69.8047 576.4063,68.8828 L576.4063,71.0859 Q575.1406,71.7109 573.8594,71.7109 Q571.5938,71.7109 570.5156,70.1328 Q569.4375,68.5547 569.4375,64.9922 Z " fill="#000000"/><text fill="#000000" font-family="sans-serif" font-size="12" font-style="italic" lengthAdjust="spacing" textLength="37" x="656.5" y="61.2891">«mixin»</text><text fill="#000000" font-family="sans-serif" font-size="12" lengthAdjust="spacing" textLength="175" x="587.5" y="77.4844">DocumentHolder_attachDocument</text><!--MD5=[59b530d44ae785dc18db921986a9c15c]
class Document--><rect codeLine="23" fill="#90EE90" filter="url(#f1ak48ec7ueion)" height="42.3906" id="Document" style="stroke:#A80036;stroke-width:1.5;" width="84" x="80" y="164.6563"/><ellipse cx="95" cy="185.8516" fill="#ADD1B2" rx="11" ry="11" style="stroke:#A80036;stroke-width:1.0;"/><path d="M90.9375,185.9922 Q90.9375,182.5391 92.0313,180.9141 Q93.1406,179.2734 95.3594,179.2734 Q96.5625,179.2734 97.8281,179.9297 L97.8281,181.9766 Q96.375,181.1953 95.4375,181.1953 Q92.9844,181.1953 92.9844,185.9922 Q92.9844,188.6953 93.6094,189.7578 Q94.25,190.8047 95.4375,190.8047 Q96.4063,190.8047 97.9063,189.8828 L97.9063,192.0859 Q96.6406,192.7109 95.3594,192.7109 Q93.0938,192.7109 92.0156,191.1328 Q90.9375,189.5547 90.9375,185.9922 Z " fill="#000000"/><text fill="#000000" font-family="sans-serif" font-size="12" font-style="italic" lengthAdjust="spacing" textLength="26" x="122" y="182.2891">«ppt»</text><text fill="#000000" font-family="sans-serif" font-size="12" lengthAdjust="spacing" textLength="52" x="109" y="198.4844">Document</text><!--MD5=[2ce0c9fb7f55b1e256ab28a8ea6b25ec]
class Customer--><rect codeLine="30" fill="#90EE90" filter="url(#f1ak48ec7ueion)" height="42.3906" id="Customer" style="stroke:#A80036;stroke-width:1.5;" width="81" x="344.5" y="292.6563"/><ellipse cx="359.5" cy="313.8516" fill="#ADD1B2" rx="11" ry="11" style="stroke:#A80036;stroke-width:1.0;"/><path d="M355.4375,313.9922 Q355.4375,310.5391 356.5313,308.9141 Q357.6406,307.2734 359.8594,307.2734 Q361.0625,307.2734 362.3281,307.9297 L362.3281,309.9766 Q360.875,309.1953 359.9375,309.1953 Q357.4844,309.1953 357.4844,313.9922 Q357.4844,316.6953 358.1094,317.7578 Q358.75,318.8047 359.9375,318.8047 Q360.9063,318.8047 362.4063,317.8828 L362.4063,320.0859 Q361.1406,320.7109 359.8594,320.7109 Q357.5938,320.7109 356.5156,319.1328 Q355.4375,317.5547 355.4375,313.9922 Z " fill="#000000"/><text fill="#000000" font-family="sans-serif" font-size="12" font-style="italic" lengthAdjust="spacing" textLength="26" x="385" y="310.2891">«ppt»</text><text fill="#000000" font-family="sans-serif" font-size="12" lengthAdjust="spacing" textLength="49" x="373.5" y="326.4844">Customer</text><!--MD5=[d7f4709b13f7dedb24b5ca6fc57d298b]
link DocumentHolder_documents to Document--><path codeLine="25" d="M122,85.8463 C122,106.1062 122,137.3663 122,159.2863 " fill="none" id="DocumentHolder_documents-to-Document" style="stroke:#A80036;stroke-width:1.0;"/><polygon fill="#A80036" points="122,164.3663,126,155.3663,122,159.3663,118,155.3663,122,164.3663" style="stroke:#A80036;stroke-width:1.0;"/><text fill="#000000" font-family="sans-serif" font-size="13" lengthAdjust="spacing" textLength="63" x="123" y="130.3418">documents</text><text fill="#000000" font-family="sans-serif" font-size="13" lengthAdjust="spacing" textLength="24" x="94.625" y="152.6951">0..*</text><!--MD5=[667214b920eff343bfee98d77050a0e1]
reverse link DocumentHolder to DocumentHolder_documents--><path codeLine="26" d="M320.97,64.6563 C288.15,64.6563 247.65,64.6563 211.77,64.6563 " fill="none" id="DocumentHolder-backto-DocumentHolder_documents" style="stroke:#A80036;stroke-width:1.0;stroke-dasharray:7.0,7.0;"/><polygon fill="#A80036" points="326.16,64.6563,317.16,60.6563,321.16,64.6563,317.16,68.6563,326.16,64.6563" style="stroke:#A80036;stroke-width:1.0;"/><text fill="#000000" font-family="sans-serif" font-size="13" lengthAdjust="spacing" textLength="78" x="230" y="57.3418">contributes to</text><!--MD5=[545f724373ba39e3f6aa3425db4bd540]
reverse link DocumentHolder to DocumentHolder_attachDocument--><path codeLine="27" d="M448.88,64.6563 C481.33,64.6563 521.57,64.6563 558.31,64.6563 " fill="none" id="DocumentHolder-backto-DocumentHolder_attachDocument" style="stroke:#A80036;stroke-width:1.0;stroke-dasharray:7.0,7.0;"/><polygon fill="#A80036" points="443.74,64.6563,452.74,68.6563,448.74,64.6563,452.74,60.6563,443.74,64.6563" style="stroke:#A80036;stroke-width:1.0;"/><text fill="#000000" font-family="sans-serif" font-size="13" lengthAdjust="spacing" textLength="78" x="462" y="57.3418">contributes to</text><!--MD5=[c1cfca1bb3d45a9c29dfc751b7b39763]
reverse link DocumentHolder to Customer--><path codeLine="32" d="M385,106.1762 C385,159.7063 385,251.9362 385,292.5063 " fill="none" id="DocumentHolder-backto-Customer" style="stroke:#A80036;stroke-width:1.0;stroke-dasharray:7.0,7.0;"/><polygon fill="none" points="378,105.8662,385,85.8662,392,105.8662,378,105.8662" style="stroke:#A80036;stroke-width:1.0;"/><!--MD5=[cde3d63b5781daff670d7af39ccdc28a]
@startuml
hide empty members

skinparam class {
    BackgroundColor<<desc>> Cyan
    BackgroundColor<<ppt>> LightGreen
    BackgroundColor<<mi>> LightPink
    BackgroundColor<<role>> LightYellow
    BackgroundColor<<strategy>> White
    BackgroundColor<<api>> White
    BackgroundColor<<spi>> White
    BackgroundColor<<internal>> LightGrey
    BackgroundColor<<value>> White

    BackgroundColor<<entity>> LightGreen
    BackgroundColor<<viewmodel>> LightPink
    BackgroundColor<<mixin>> LightYellow
}

package documents {
    interface DocumentHolder <<role>>
    class DocumentHolder_documents <<mixin>>
    class DocumentHolder_attachDocument <<mixin>>
    class Document <<ppt>>
}
DocumentHolder_documents -d-> "0..*" Document: documents
DocumentHolder_documents -.l-> DocumentHolder: "contributes to"
DocumentHolder_attachDocument -.l-> DocumentHolder: "contributes to"

package customers {
    class Customer <<ppt>>
}
Customer -u.-^ DocumentHolder
@enduml

PlantUML version 1.2021.01(Tue Feb 02 07:55:08 GMT 2021)
(GPL source distribution)
Java Runtime: OpenJDK Runtime Environment
JVM: OpenJDK 64-Bit Server VM
Default Encoding: UTF-8
Language: en
Country: US
--></g></svg>