<?xml version="1.0" encoding="UTF-8" standalone="no"?><svg xmlns="http://www.w3.org/2000/svg" xmlns:xlink="http://www.w3.org/1999/xlink" contentStyleType="text/css" height="138px" preserveAspectRatio="none" style="width:127px;height:138px;background:#FFFFFF;" version="1.1" viewBox="0 0 127 138" width="127px" zoomAndPan="magnify"><defs/><g><!--MD5=[47ee8de3858708181d3d6ad89cb541dc]
class ParentObject--><g id="elem_ParentObject"><rect codeLine="19" fill="#F1F1F1" height="32" id="ParentObject" rx="2.5" ry="2.5" style="stroke:#181818;stroke-width:0.5;" width="113" x="7" y="7"/><ellipse cx="22" cy="23" fill="#ADD1B2" rx="11" ry="11" style="stroke:#181818;stroke-width:1.0;"/><path d="M21.3594,26.7813 Q22.1563,26.7813 22.7188,26.5938 Q23.2969,26.3906 23.5313,26.1719 Q23.7813,25.9375 24.0156,25.75 Q24.2656,25.5469 24.4844,25.5469 Q24.8281,25.5469 25.0781,25.8125 Q25.3438,26.0625 25.3438,26.3906 Q25.3438,27.125 24.1719,27.8125 Q23.0156,28.4844 21.3125,28.4844 Q19.1563,28.4844 17.7344,27.2188 Q16.3125,25.9531 16.3125,24.0156 L16.3125,22.8906 Q16.3125,20.8594 17.6406,19.4844 Q18.9688,18.0938 20.9375,18.0938 Q22.125,18.0938 23.3438,18.6719 L23.5156,18.75 Q23.8125,18.3438 24.2344,18.3438 Q24.7188,18.3438 24.8906,18.6406 Q25.0781,18.9219 25.0781,19.4688 L25.0781,20.8906 Q25.0781,22.0156 24.2344,22.0156 Q23.9219,22.0156 23.7188,21.8438 Q23.5313,21.6719 23.4844,21.5313 Q23.4531,21.375 23.4063,21.1094 Q23.2969,20.5938 22.7813,20.2813 Q22.2656,19.9688 21.8125,19.8906 Q21.375,19.7969 21,19.7969 Q19.7188,19.7969 18.8594,20.6719 Q18.0156,21.5469 18.0156,22.8906 L18.0156,23.9844 Q18.0156,25.2656 18.9219,26.0313 Q19.8281,26.7813 21.3594,26.7813 Z " fill="#000000"/><text fill="#000000" font-family="sans-serif" font-size="14" lengthAdjust="spacing" textLength="81" x="36" y="28.6">ParentObject</text></g><!--MD5=[cdc7a3df78f1a91c764e7a994f7c16cc]
class ChildObject--><g id="elem_ChildObject"><rect codeLine="20" fill="#F1F1F1" height="32" id="ChildObject" rx="2.5" ry="2.5" style="stroke:#181818;stroke-width:0.5;" width="104" x="11.5" y="99"/><ellipse cx="26.5" cy="115" fill="#ADD1B2" rx="11" ry="11" style="stroke:#181818;stroke-width:1.0;"/><path d="M25.8594,118.7813 Q26.6563,118.7813 27.2188,118.5938 Q27.7969,118.3906 28.0313,118.1719 Q28.2813,117.9375 28.5156,117.75 Q28.7656,117.5469 28.9844,117.5469 Q29.3281,117.5469 29.5781,117.8125 Q29.8438,118.0625 29.8438,118.3906 Q29.8438,119.125 28.6719,119.8125 Q27.5156,120.4844 25.8125,120.4844 Q23.6563,120.4844 22.2344,119.2188 Q20.8125,117.9531 20.8125,116.0156 L20.8125,114.8906 Q20.8125,112.8594 22.1406,111.4844 Q23.4688,110.0938 25.4375,110.0938 Q26.625,110.0938 27.8438,110.6719 L28.0156,110.75 Q28.3125,110.3438 28.7344,110.3438 Q29.2188,110.3438 29.3906,110.6406 Q29.5781,110.9219 29.5781,111.4688 L29.5781,112.8906 Q29.5781,114.0156 28.7344,114.0156 Q28.4219,114.0156 28.2188,113.8438 Q28.0313,113.6719 27.9844,113.5313 Q27.9531,113.375 27.9063,113.1094 Q27.7969,112.5938 27.2813,112.2813 Q26.7656,111.9688 26.3125,111.8906 Q25.875,111.7969 25.5,111.7969 Q24.2188,111.7969 23.3594,112.6719 Q22.5156,113.5469 22.5156,114.8906 L22.5156,115.9844 Q22.5156,117.2656 23.4219,118.0313 Q24.3281,118.7813 25.8594,118.7813 Z " fill="#000000"/><text fill="#000000" font-family="sans-serif" font-size="14" lengthAdjust="spacing" textLength="72" x="40.5" y="120.6">ChildObject</text></g><!--MD5=[efdbd210ada12e3ce81bbc1533562b5c]
link ParentObject to ChildObject--><g id="link_ParentObject_ChildObject"><path codeLine="22" d="M63.5,44.62 C63.5,59.38 63.5,79.15 63.5,93.81 " fill="none" id="ParentObject-ChildObject" style="stroke:#181818;stroke-width:1.0;"/><polygon fill="#181818" points="63.5,98.96,67.5,89.96,63.5,93.96,59.5,89.96,63.5,98.96" style="stroke:#181818;stroke-width:1.0;"/><polygon fill="#181818" points="63.5,39.27,59.5,48.27,63.5,44.27,67.5,48.27,63.5,39.27" style="stroke:#181818;stroke-width:1.0;"/><text fill="#000000" font-family="sans-serif" font-size="13" lengthAdjust="spacing" textLength="7" x="55.3844" y="59.9423">1</text><text fill="#000000" font-family="sans-serif" font-size="13" lengthAdjust="spacing" textLength="15" x="45.7344" y="88.3903">0.*</text></g><!--MD5=[a95f425ae28f779c3f210f09dc100a91]
@startuml
hide empty members

skinparam class {
    BackgroundColor<<desc>> Cyan
    BackgroundColor<<ppt>> LightGreen
    BackgroundColor<<mi>> LightPink
    BackgroundColor<<role>> LightYellow
    BackgroundColor<<strategy>> White
    BackgroundColor<<api>> White
    BackgroundColor<<spi>> White
    BackgroundColor<<internal>> LightGrey
    BackgroundColor<<value>> White

    BackgroundColor<<entity>> LightGreen
    BackgroundColor<<viewmodel>> LightPink
    BackgroundColor<<mixin>> LightYellow
}

class ParentObject
class ChildObject

ParentObject "1" <-d-> "0.*" ChildObject
@enduml

PlantUML version 1.2022.5(Sat Apr 30 10:55:52 GMT 2022)
(GPL source distribution)
Java Runtime: OpenJDK Runtime Environment
JVM: OpenJDK 64-Bit Server VM
Default Encoding: UTF-8
Language: en
Country: US
--></g></svg>