<?xml version="1.0" encoding="UTF-8" standalone="no"?><svg xmlns="http://www.w3.org/2000/svg" xmlns:xlink="http://www.w3.org/1999/xlink" contentScriptType="application/ecmascript" contentStyleType="text/css" height="145px" preserveAspectRatio="none" style="width:119px;height:145px;" version="1.1" viewBox="0 0 119 145" width="119px" zoomAndPan="magnify"><defs><filter height="300%" id="f1pvvdm31rmwtd" width="300%" x="-1" y="-1"><feGaussianBlur result="blurOut" stdDeviation="2.0"/><feColorMatrix in="blurOut" result="blurOut2" type="matrix" values="0 0 0 0 0 0 0 0 0 0 0 0 0 0 0 0 0 0 .4 0"/><feOffset dx="4.0" dy="4.0" in="blurOut2" result="blurOut3"/><feBlend in="SourceGraphic" in2="blurOut3" mode="normal"/></filter></defs><g><!--MD5=[47ee8de3858708181d3d6ad89cb541dc]
class ParentObject--><rect codeLine="19" fill="#FEFECE" filter="url(#f1pvvdm31rmwtd)" height="32" id="ParentObject" style="stroke:#A80036;stroke-width:1.5;" width="98" x="7" y="7"/><ellipse cx="22" cy="23" fill="#ADD1B2" rx="11" ry="11" style="stroke:#A80036;stroke-width:1.0;"/><path d="M17.9375,23.1406 Q17.9375,19.6875 19.0313,18.0625 Q20.1406,16.4219 22.3594,16.4219 Q23.5625,16.4219 24.8281,17.0781 L24.8281,19.125 Q23.375,18.3438 22.4375,18.3438 Q19.9844,18.3438 19.9844,23.1406 Q19.9844,25.8438 20.6094,26.9063 Q21.25,27.9531 22.4375,27.9531 Q23.4063,27.9531 24.9063,27.0313 L24.9063,29.2344 Q23.6406,29.8594 22.3594,29.8594 Q20.0938,29.8594 19.0156,28.2813 Q17.9375,26.7031 17.9375,23.1406 Z " fill="#000000"/><text fill="#000000" font-family="sans-serif" font-size="12" lengthAdjust="spacing" textLength="66" x="36" y="27.5352">ParentObject</text><!--MD5=[cdc7a3df78f1a91c764e7a994f7c16cc]
class ChildObject--><rect codeLine="20" fill="#FEFECE" filter="url(#f1pvvdm31rmwtd)" height="32" id="ChildObject" style="stroke:#A80036;stroke-width:1.5;" width="90" x="11" y="99"/><ellipse cx="26" cy="115" fill="#ADD1B2" rx="11" ry="11" style="stroke:#A80036;stroke-width:1.0;"/><path d="M21.9375,115.1406 Q21.9375,111.6875 23.0313,110.0625 Q24.1406,108.4219 26.3594,108.4219 Q27.5625,108.4219 28.8281,109.0781 L28.8281,111.125 Q27.375,110.3438 26.4375,110.3438 Q23.9844,110.3438 23.9844,115.1406 Q23.9844,117.8438 24.6094,118.9063 Q25.25,119.9531 26.4375,119.9531 Q27.4063,119.9531 28.9063,119.0313 L28.9063,121.2344 Q27.6406,121.8594 26.3594,121.8594 Q24.0938,121.8594 23.0156,120.2813 Q21.9375,118.7031 21.9375,115.1406 Z " fill="#000000"/><text fill="#000000" font-family="sans-serif" font-size="12" lengthAdjust="spacing" textLength="58" x="40" y="119.5352">ChildObject</text><!--MD5=[efdbd210ada12e3ce81bbc1533562b5c]
link ParentObject to ChildObject--><path codeLine="22" d="M56,44.62 C56,59.38 56,79.15 56,93.81 " fill="none" id="ParentObject-ChildObject" style="stroke:#A80036;stroke-width:1.0;"/><polygon fill="#A80036" points="56,98.96,60,89.96,56,93.96,52,89.96,56,98.96" style="stroke:#A80036;stroke-width:1.0;"/><polygon fill="#A80036" points="56,39.27,52,48.27,56,44.27,60,48.27,56,39.27" style="stroke:#A80036;stroke-width:1.0;"/><text fill="#000000" font-family="sans-serif" font-size="13" lengthAdjust="spacing" textLength="8" x="46.775" y="60.6248">1</text><text fill="#000000" font-family="sans-serif" font-size="13" lengthAdjust="spacing" textLength="20" x="32.4375" y="87.0002">0.*</text><!--MD5=[ae79a32f468d8e2ff4e296cd1e6511a7]
@startuml
hide empty members

skinparam class {
    BackgroundColor<<desc>> Cyan
    BackgroundColor<<ppt>> LightGreen
    BackgroundColor<<mi>> LightPink
    BackgroundColor<<role>> LightYellow
    BackgroundColor<<strategy>> White
    BackgroundColor<<api>> White
    BackgroundColor<<spi>> White
    BackgroundColor<<internal>> LightGrey
    BackgroundColor<<value>> White

    BackgroundColor<<entity>> LightGreen
    BackgroundColor<<viewmodel>> LightPink
    BackgroundColor<<mixin>> LightYellow
}

class ParentObject
class ChildObject

ParentObject "1" <-d-> "0.*" ChildObject
@enduml

PlantUML version 1.2021.01(Tue Feb 02 07:55:08 GMT 2021)
(GPL source distribution)
Java Runtime: OpenJDK Runtime Environment
JVM: OpenJDK 64-Bit Server VM
Default Encoding: UTF-8
Language: en
Country: US
--></g></svg>