<?xml version="1.0" encoding="UTF-8" standalone="no"?><svg xmlns="http://www.w3.org/2000/svg" xmlns:xlink="http://www.w3.org/1999/xlink" contentStyleType="text/css" height="348px" preserveAspectRatio="none" style="width:863px;height:348px;background:#FFFFFF;" version="1.1" viewBox="0 0 863 348" width="863px" zoomAndPan="magnify"><defs/><g><!--MD5=[34858fd43d95e92b9fa80c296381e186]
cluster documents--><g id="cluster_documents"><path d="M8.5,6 L87.5,6 A3.75,3.75 0 0 1 90,8.5 L97,28.7999 L853.5,28.7999 A2.5,2.5 0 0 1 856,31.2999 L856,213.5 A2.5,2.5 0 0 1 853.5,216 L8.5,216 A2.5,2.5 0 0 1 6,213.5 L6,8.5 A2.5,2.5 0 0 1 8.5,6 " style="stroke:#000000;stroke-width:1.5;fill:none;"/><line style="stroke:#000000;stroke-width:1.5;fill:none;" x1="6" x2="97" y1="28.7999" y2="28.7999"/><text fill="#000000" font-family="sans-serif" font-size="14" font-weight="bold" lengthAdjust="spacing" textLength="78" x="10" y="21.9999">documents</text></g><!--MD5=[55c1321e5e660f70fb77e9cf74eefc72]
cluster customers--><g id="cluster_customers"><path d="M354.5,249 L428.5,249 A3.75,3.75 0 0 1 431,251.5 L438,271.7999 L473.5,271.7999 A2.5,2.5 0 0 1 476,274.2999 L476,338.5 A2.5,2.5 0 0 1 473.5,341 L354.5,341 A2.5,2.5 0 0 1 352,338.5 L352,251.5 A2.5,2.5 0 0 1 354.5,249 " style="stroke:#000000;stroke-width:1.5;fill:none;"/><line style="stroke:#000000;stroke-width:1.5;fill:none;" x1="352" x2="438" y1="271.7999" y2="271.7999"/><text fill="#000000" font-family="sans-serif" font-size="14" font-weight="bold" lengthAdjust="spacing" textLength="73" x="356" y="264.9999">customers</text></g><!--MD5=[e9488f6d277e231b9446aa19d7c97d87]
class DocumentHolder--><g id="elem_DocumentHolder"><rect codeLine="20" fill="#FFFFE0" height="41.2" id="DocumentHolder" rx="2.5" ry="2.5" style="stroke:#181818;stroke-width:0.5;" width="138" x="345" y="41"/><ellipse cx="360" cy="61.6" fill="#B4A7E5" rx="11" ry="11" style="stroke:#181818;stroke-width:1.0;"/><path d="M362.6719,64.8969 Q363.2188,64.8969 363.5,65.0844 Q363.7813,65.2563 363.7813,65.7563 Q363.7813,66.6 362.6719,66.6 L357.5313,66.6 Q356.4063,66.6 356.4063,65.7563 Q356.4063,65.2563 356.6875,65.0844 Q356.9844,64.8969 357.5313,64.8969 L359.25,64.8969 L359.25,58.3813 L357.5313,58.3813 Q356.4063,58.3813 356.4063,57.5375 Q356.4063,57.0531 356.6875,56.8813 Q356.9844,56.6938 357.5313,56.6938 L362.6719,56.6938 Q363.2188,56.6938 363.5,56.8813 Q363.7813,57.0531 363.7813,57.5375 Q363.7813,58.3813 362.6719,58.3813 L360.9531,58.3813 L360.9531,64.8969 L362.6719,64.8969 Z " fill="#000000"/><text fill="#000000" font-family="sans-serif" font-size="12" font-style="italic" lengthAdjust="spacing" textLength="31" x="411.5" y="58.0001">«role»</text><text fill="#000000" font-family="sans-serif" font-size="14" font-style="italic" lengthAdjust="spacing" textLength="106" x="374" y="74.4">DocumentHolder</text></g><!--MD5=[19a6f2433930319ed8d88e36d7e2e675]
class DocumentHolder_documents--><g id="elem_DocumentHolder_documents"><rect codeLine="21" fill="#FFFFE0" height="41.2" id="DocumentHolder_documents" rx="2.5" ry="2.5" style="stroke:#181818;stroke-width:0.5;" width="209" x="22.5" y="41"/><ellipse cx="37.5" cy="61.6" fill="#ADD1B2" rx="11" ry="11" style="stroke:#181818;stroke-width:1.0;"/><path d="M36.8594,65.3813 Q37.6563,65.3813 38.2188,65.1938 Q38.7969,64.9906 39.0313,64.7719 Q39.2813,64.5375 39.5156,64.35 Q39.7656,64.1469 39.9844,64.1469 Q40.3281,64.1469 40.5781,64.4125 Q40.8438,64.6625 40.8438,64.9906 Q40.8438,65.725 39.6719,66.4125 Q38.5156,67.0844 36.8125,67.0844 Q34.6563,67.0844 33.2344,65.8188 Q31.8125,64.5531 31.8125,62.6156 L31.8125,61.4906 Q31.8125,59.4594 33.1406,58.0844 Q34.4688,56.6938 36.4375,56.6938 Q37.625,56.6938 38.8438,57.2719 L39.0156,57.35 Q39.3125,56.9438 39.7344,56.9438 Q40.2188,56.9438 40.3906,57.2406 Q40.5781,57.5219 40.5781,58.0688 L40.5781,59.4906 Q40.5781,60.6156 39.7344,60.6156 Q39.4219,60.6156 39.2188,60.4438 Q39.0313,60.2719 38.9844,60.1313 Q38.9531,59.975 38.9063,59.7094 Q38.7969,59.1938 38.2813,58.8813 Q37.7656,58.5688 37.3125,58.4906 Q36.875,58.3969 36.5,58.3969 Q35.2188,58.3969 34.3594,59.2719 Q33.5156,60.1469 33.5156,61.4906 L33.5156,62.5844 Q33.5156,63.8656 34.4219,64.6313 Q35.3281,65.3813 36.8594,65.3813 Z " fill="#000000"/><text fill="#000000" font-family="sans-serif" font-size="12" font-style="italic" lengthAdjust="spacing" textLength="38" x="121" y="58.0001">«mixin»</text><text fill="#000000" font-family="sans-serif" font-size="14" lengthAdjust="spacing" textLength="177" x="51.5" y="74.4">DocumentHolder_documents</text></g><!--MD5=[aaefda37f268a242f159fa4f96ae602c]
class DocumentHolder_attachDocument--><g id="elem_DocumentHolder_attachDocument"><rect codeLine="22" fill="#FFFFE0" height="41.2" id="DocumentHolder_attachDocument" rx="2.5" ry="2.5" style="stroke:#181818;stroke-width:0.5;" width="243" x="596.5" y="41"/><ellipse cx="611.5" cy="61.6" fill="#ADD1B2" rx="11" ry="11" style="stroke:#181818;stroke-width:1.0;"/><path d="M610.8594,65.3813 Q611.6563,65.3813 612.2188,65.1938 Q612.7969,64.9906 613.0313,64.7719 Q613.2813,64.5375 613.5156,64.35 Q613.7656,64.1469 613.9844,64.1469 Q614.3281,64.1469 614.5781,64.4125 Q614.8438,64.6625 614.8438,64.9906 Q614.8438,65.725 613.6719,66.4125 Q612.5156,67.0844 610.8125,67.0844 Q608.6563,67.0844 607.2344,65.8188 Q605.8125,64.5531 605.8125,62.6156 L605.8125,61.4906 Q605.8125,59.4594 607.1406,58.0844 Q608.4688,56.6938 610.4375,56.6938 Q611.625,56.6938 612.8438,57.2719 L613.0156,57.35 Q613.3125,56.9438 613.7344,56.9438 Q614.2188,56.9438 614.3906,57.2406 Q614.5781,57.5219 614.5781,58.0688 L614.5781,59.4906 Q614.5781,60.6156 613.7344,60.6156 Q613.4219,60.6156 613.2188,60.4438 Q613.0313,60.2719 612.9844,60.1313 Q612.9531,59.975 612.9063,59.7094 Q612.7969,59.1938 612.2813,58.8813 Q611.7656,58.5688 611.3125,58.4906 Q610.875,58.3969 610.5,58.3969 Q609.2188,58.3969 608.3594,59.2719 Q607.5156,60.1469 607.5156,61.4906 L607.5156,62.5844 Q607.5156,63.8656 608.4219,64.6313 Q609.3281,65.3813 610.8594,65.3813 Z " fill="#000000"/><text fill="#000000" font-family="sans-serif" font-size="12" font-style="italic" lengthAdjust="spacing" textLength="38" x="712" y="58.0001">«mixin»</text><text fill="#000000" font-family="sans-serif" font-size="14" lengthAdjust="spacing" textLength="211" x="625.5" y="74.4">DocumentHolder_attachDocument</text></g><!--MD5=[59b530d44ae785dc18db921986a9c15c]
class Document--><g id="elem_Document"><rect codeLine="23" fill="#90EE90" height="41.2" id="Document" rx="2.5" ry="2.5" style="stroke:#181818;stroke-width:0.5;" width="94" x="80" y="159"/><ellipse cx="95" cy="179.6" fill="#ADD1B2" rx="11" ry="11" style="stroke:#181818;stroke-width:1.0;"/><path d="M94.3594,183.3813 Q95.1563,183.3813 95.7188,183.1938 Q96.2969,182.9906 96.5313,182.7719 Q96.7813,182.5375 97.0156,182.35 Q97.2656,182.1469 97.4844,182.1469 Q97.8281,182.1469 98.0781,182.4125 Q98.3438,182.6625 98.3438,182.9906 Q98.3438,183.725 97.1719,184.4125 Q96.0156,185.0844 94.3125,185.0844 Q92.1563,185.0844 90.7344,183.8188 Q89.3125,182.5531 89.3125,180.6156 L89.3125,179.4906 Q89.3125,177.4594 90.6406,176.0844 Q91.9688,174.6938 93.9375,174.6938 Q95.125,174.6938 96.3438,175.2719 L96.5156,175.35 Q96.8125,174.9438 97.2344,174.9438 Q97.7188,174.9438 97.8906,175.2406 Q98.0781,175.5219 98.0781,176.0688 L98.0781,177.4906 Q98.0781,178.6156 97.2344,178.6156 Q96.9219,178.6156 96.7188,178.4438 Q96.5313,178.2719 96.4844,178.1313 Q96.4531,177.975 96.4063,177.7094 Q96.2969,177.1938 95.7813,176.8813 Q95.2656,176.5688 94.8125,176.4906 Q94.375,176.3969 94,176.3969 Q92.7188,176.3969 91.8594,177.2719 Q91.0156,178.1469 91.0156,179.4906 L91.0156,180.5844 Q91.0156,181.8656 91.9219,182.6313 Q92.8281,183.3813 94.3594,183.3813 Z " fill="#000000"/><text fill="#000000" font-family="sans-serif" font-size="12" font-style="italic" lengthAdjust="spacing" textLength="27" x="126.5" y="176.0001">«ppt»</text><text fill="#000000" font-family="sans-serif" font-size="14" lengthAdjust="spacing" textLength="62" x="109" y="192.4">Document</text></g><!--MD5=[2ce0c9fb7f55b1e256ab28a8ea6b25ec]
class Customer--><g id="elem_Customer"><rect codeLine="30" fill="#90EE90" height="41.2" id="Customer" rx="2.5" ry="2.5" style="stroke:#181818;stroke-width:0.5;" width="91" x="368.5" y="284"/><ellipse cx="383.5" cy="304.6" fill="#ADD1B2" rx="11" ry="11" style="stroke:#181818;stroke-width:1.0;"/><path d="M382.8594,308.3813 Q383.6563,308.3813 384.2188,308.1938 Q384.7969,307.9906 385.0313,307.7719 Q385.2813,307.5375 385.5156,307.35 Q385.7656,307.1469 385.9844,307.1469 Q386.3281,307.1469 386.5781,307.4125 Q386.8438,307.6625 386.8438,307.9906 Q386.8438,308.725 385.6719,309.4125 Q384.5156,310.0844 382.8125,310.0844 Q380.6563,310.0844 379.2344,308.8188 Q377.8125,307.5531 377.8125,305.6156 L377.8125,304.4906 Q377.8125,302.4594 379.1406,301.0844 Q380.4688,299.6938 382.4375,299.6938 Q383.625,299.6938 384.8438,300.2719 L385.0156,300.35 Q385.3125,299.9438 385.7344,299.9438 Q386.2188,299.9438 386.3906,300.2406 Q386.5781,300.5219 386.5781,301.0688 L386.5781,302.4906 Q386.5781,303.6156 385.7344,303.6156 Q385.4219,303.6156 385.2188,303.4438 Q385.0313,303.2719 384.9844,303.1313 Q384.9531,302.975 384.9063,302.7094 Q384.7969,302.1938 384.2813,301.8813 Q383.7656,301.5688 383.3125,301.4906 Q382.875,301.3969 382.5,301.3969 Q381.2188,301.3969 380.3594,302.2719 Q379.5156,303.1469 379.5156,304.4906 L379.5156,305.5844 Q379.5156,306.8656 380.4219,307.6313 Q381.3281,308.3813 382.8594,308.3813 Z " fill="#000000"/><text fill="#000000" font-family="sans-serif" font-size="12" font-style="italic" lengthAdjust="spacing" textLength="27" x="413.5" y="301.0001">«ppt»</text><text fill="#000000" font-family="sans-serif" font-size="14" lengthAdjust="spacing" textLength="59" x="397.5" y="317.4">Customer</text></g><!--MD5=[d7f4709b13f7dedb24b5ca6fc57d298b]
link DocumentHolder_documents to Document--><g id="link_DocumentHolder_documents_Document"><path codeLine="25" d="M127,82.18 C127,101.84 127,132.14 127,153.5 " fill="none" id="DocumentHolder_documents-to-Document" style="stroke:#181818;stroke-width:1.0;"/><polygon fill="#181818" points="127,158.73,131,149.73,127,153.73,123,149.73,127,158.73" style="stroke:#181818;stroke-width:1.0;"/><text fill="#000000" font-family="sans-serif" font-size="13" lengthAdjust="spacing" textLength="63" x="128" y="126">documents</text><text fill="#000000" font-family="sans-serif" font-size="13" lengthAdjust="spacing" textLength="18" x="106.3563" y="148.4844">0..*</text></g><!--MD5=[667214b920eff343bfee98d77050a0e1]
reverse link DocumentHolder to DocumentHolder_documents--><g id="link_DocumentHolder_DocumentHolder_documents"><path codeLine="26" d="M339.56,61.5 C306.72,61.5 267.55,61.5 231.83,61.5 " fill="none" id="DocumentHolder-backto-DocumentHolder_documents" style="stroke:#181818;stroke-width:1.0;stroke-dasharray:7.0,7.0;"/><polygon fill="#181818" points="344.78,61.5,335.78,57.5,339.78,61.5,335.78,65.5,344.78,61.5" style="stroke:#181818;stroke-width:1.0;"/><text fill="#000000" font-family="sans-serif" font-size="13" lengthAdjust="spacing" textLength="77" x="249.75" y="55.5">contributes to</text></g><!--MD5=[545f724373ba39e3f6aa3425db4bd540]
reverse link DocumentHolder to DocumentHolder_attachDocument--><g id="link_DocumentHolder_DocumentHolder_attachDocument"><path codeLine="27" d="M488.52,61.5 C521.01,61.5 559.94,61.5 596.43,61.5 " fill="none" id="DocumentHolder-backto-DocumentHolder_attachDocument" style="stroke:#181818;stroke-width:1.0;stroke-dasharray:7.0,7.0;"/><polygon fill="#181818" points="483.36,61.5,492.36,65.5,488.36,61.5,492.36,57.5,483.36,61.5" style="stroke:#181818;stroke-width:1.0;"/><text fill="#000000" font-family="sans-serif" font-size="13" lengthAdjust="spacing" textLength="77" x="501.25" y="55.5">contributes to</text></g><!--MD5=[c1cfca1bb3d45a9c29dfc751b7b39763]
reverse link DocumentHolder to Customer--><g id="link_DocumentHolder_Customer"><path codeLine="32" d="M414,102.39 C414,154.67 414,244.35 414,283.84 " fill="none" id="DocumentHolder-backto-Customer" style="stroke:#181818;stroke-width:1.0;stroke-dasharray:7.0,7.0;"/><polygon fill="none" points="407,102.22,414,82.22,421,102.22,407,102.22" style="stroke:#181818;stroke-width:1.0;"/></g><!--MD5=[01e2aae3eee369abdaa0aadfb5a871d3]
@startuml
hide empty members

skinparam class {
    BackgroundColor<<desc>> Cyan
    BackgroundColor<<ppt>> LightGreen
    BackgroundColor<<mi>> LightPink
    BackgroundColor<<role>> LightYellow
    BackgroundColor<<strategy>> White
    BackgroundColor<<api>> White
    BackgroundColor<<spi>> White
    BackgroundColor<<internal>> LightGrey
    BackgroundColor<<value>> White

    BackgroundColor<<entity>> LightGreen
    BackgroundColor<<viewmodel>> LightPink
    BackgroundColor<<mixin>> LightYellow
}

package documents {
    interface DocumentHolder <<role>>
    class DocumentHolder_documents <<mixin>>
    class DocumentHolder_attachDocument <<mixin>>
    class Document <<ppt>>
}
DocumentHolder_documents -d-> "0..*" Document: documents
DocumentHolder_documents -.l-> DocumentHolder: "contributes to"
DocumentHolder_attachDocument -.l-> DocumentHolder: "contributes to"

package customers {
    class Customer <<ppt>>
}
Customer -u.-^ DocumentHolder
@enduml

PlantUML version 1.2022.5(Sat Apr 30 10:55:52 GMT 2022)
(GPL source distribution)
Java Runtime: OpenJDK Runtime Environment
JVM: OpenJDK 64-Bit Server VM
Default Encoding: UTF-8
Language: en
Country: US
--></g></svg>