<?xml version="1.0" encoding="UTF-8" standalone="no"?><svg xmlns="http://www.w3.org/2000/svg" xmlns:xlink="http://www.w3.org/1999/xlink" contentScriptType="application/ecmascript" contentStyleType="text/css" height="126px" preserveAspectRatio="none" style="width:295px;height:126px;background:#FFFFFF;" version="1.1" viewBox="0 0 295 126" width="295px" zoomAndPan="magnify"><defs><filter height="300%" id="f1x6k2aelsqr7f" width="300%" x="-1" y="-1"><feGaussianBlur result="blurOut" stdDeviation="2.0"/><feColorMatrix in="blurOut" result="blurOut2" type="matrix" values="0 0 0 0 0 0 0 0 0 0 0 0 0 0 0 0 0 0 .4 0"/><feOffset dx="4.0" dy="4.0" in="blurOut2" result="blurOut3"/><feBlend in="SourceGraphic" in2="blurOut3" mode="normal"/></filter></defs><g><!--MD5=[2ce0c9fb7f55b1e256ab28a8ea6b25ec]
class Customer--><rect fill="#FEFECE" filter="url(#f1x6k2aelsqr7f)" height="32" id="Customer" style="stroke:#A80036;stroke-width:1.5;" width="82" x="7" y="44"/><ellipse cx="22" cy="60" fill="#ADD1B2" rx="11" ry="11" style="stroke:#A80036;stroke-width:1.0;"/><path d="M21.3594,63.7813 Q22.1563,63.7813 22.7188,63.5938 Q23.2969,63.3906 23.5313,63.1719 Q23.7813,62.9375 24.0156,62.75 Q24.2656,62.5469 24.4844,62.5469 Q24.8281,62.5469 25.0781,62.8125 Q25.3438,63.0625 25.3438,63.3906 Q25.3438,64.125 24.1719,64.8125 Q23.0156,65.4844 21.3125,65.4844 Q19.1563,65.4844 17.7344,64.2188 Q16.3125,62.9531 16.3125,61.0156 L16.3125,59.8906 Q16.3125,57.8594 17.6406,56.4844 Q18.9688,55.0938 20.9375,55.0938 Q22.125,55.0938 23.3438,55.6719 L23.5156,55.75 Q23.8125,55.3438 24.2344,55.3438 Q24.7188,55.3438 24.8906,55.6406 Q25.0781,55.9219 25.0781,56.4688 L25.0781,57.8906 Q25.0781,59.0156 24.2344,59.0156 Q23.9219,59.0156 23.7188,58.8438 Q23.5313,58.6719 23.4844,58.5313 Q23.4531,58.375 23.4063,58.1094 Q23.2969,57.5938 22.7813,57.2813 Q22.2656,56.9688 21.8125,56.8906 Q21.375,56.7969 21,56.7969 Q19.7188,56.7969 18.8594,57.6719 Q18.0156,58.5469 18.0156,59.8906 L18.0156,60.9844 Q18.0156,62.2656 18.9219,63.0313 Q19.8281,63.7813 21.3594,63.7813 Z " fill="#000000"/><text fill="#000000" font-family="sans-serif" font-size="12" lengthAdjust="spacing" textLength="50" x="36" y="64.8">Customer</text><!--MD5=[cf4d6237fcae255cd2e1656cf84a30e2]
class Order--><rect codeLine="5" fill="#FEFECE" filter="url(#f1x6k2aelsqr7f)" height="105.9995" id="Order" style="stroke:#A80036;stroke-width:1.5;" width="108" x="173" y="7"/><ellipse cx="208.7" cy="23" fill="#ADD1B2" rx="11" ry="11" style="stroke:#A80036;stroke-width:1.0;"/><path d="M208.0594,26.7813 Q208.8563,26.7813 209.4188,26.5938 Q209.9969,26.3906 210.2313,26.1719 Q210.4813,25.9375 210.7156,25.75 Q210.9656,25.5469 211.1844,25.5469 Q211.5281,25.5469 211.7781,25.8125 Q212.0438,26.0625 212.0438,26.3906 Q212.0438,27.125 210.8719,27.8125 Q209.7156,28.4844 208.0125,28.4844 Q205.8563,28.4844 204.4344,27.2188 Q203.0125,25.9531 203.0125,24.0156 L203.0125,22.8906 Q203.0125,20.8594 204.3406,19.4844 Q205.6688,18.0938 207.6375,18.0938 Q208.825,18.0938 210.0438,18.6719 L210.2156,18.75 Q210.5125,18.3438 210.9344,18.3438 Q211.4188,18.3438 211.5906,18.6406 Q211.7781,18.9219 211.7781,19.4688 L211.7781,20.8906 Q211.7781,22.0156 210.9344,22.0156 Q210.6219,22.0156 210.4188,21.8438 Q210.2313,21.6719 210.1844,21.5313 Q210.1531,21.375 210.1063,21.1094 Q209.9969,20.5938 209.4813,20.2813 Q208.9656,19.9688 208.5125,19.8906 Q208.075,19.7969 207.7,19.7969 Q206.4188,19.7969 205.5594,20.6719 Q204.7156,21.5469 204.7156,22.8906 L204.7156,23.9844 Q204.7156,25.2656 205.6219,26.0313 Q206.5281,26.7813 208.0594,26.7813 Z " fill="#000000"/><text fill="#000000" font-family="sans-serif" font-size="12" lengthAdjust="spacing" textLength="30" x="227.3" y="27.8">Order</text><line style="stroke:#A80036;stroke-width:1.5;" x1="174" x2="280" y1="39" y2="39"/><text fill="#000000" font-family="sans-serif" font-size="11" lengthAdjust="spacing" textLength="38" x="179" y="53.9999">num: int</text><text fill="#000000" font-family="sans-serif" font-size="11" lengthAdjust="spacing" textLength="76" x="179" y="67.1998">placedOn: Date</text><text fill="#000000" font-family="sans-serif" font-size="11" lengthAdjust="spacing" textLength="81" x="179" y="80.3997">shippedOn: Date</text><text fill="#000000" font-family="sans-serif" font-size="11" lengthAdjust="spacing" textLength="54" x="179" y="93.5996">state: State</text><text fill="#000000" font-family="sans-serif" font-size="11" lengthAdjust="spacing" textLength="96" x="179" y="106.7995">amount: BigDecimal</text><!--MD5=[135794f54b59c9e5883929d048383f81]
link Customer to Order--><path codeLine="3" d="M101.07,60 C101.07,60 140.69,60 159.68,60 " fill="none" id="Customer-Order" style="stroke:#A80036;stroke-width:1.0;"/><polygon fill="#A80036" points="172.89,60,163.89,56,167.89,60,163.89,64,172.89,60" style="stroke:#A80036;stroke-width:1.0;"/><line style="stroke:#A80036;stroke-width:1.0;" x1="167.89" x2="159.89" y1="60" y2="60"/><polygon fill="#A80036" points="89.07,60,95.07,64,101.07,60,95.07,56,89.07,60" style="stroke:#A80036;stroke-width:1.0;"/><text fill="#000000" font-family="sans-serif" font-size="13" lengthAdjust="spacing" textLength="35" x="119.5" y="54">orders</text><text fill="#000000" font-family="sans-serif" font-size="13" lengthAdjust="spacing" textLength="7" x="97.009" y="56.7175">1</text><text fill="#000000" font-family="sans-serif" font-size="13" lengthAdjust="spacing" textLength="18" x="146.804" y="73.9994">0..*</text><!--MD5=[b54f8559a701e91a9130fe86ad85f7bb]
@startuml
hide empty members

Customer "1" *-r-> "0..*" Order : "    orders"

class Order {
    num: int
    placedOn: Date
    shippedOn: Date
    state: State
    amount: BigDecimal
}
@enduml

PlantUML version 1.2021.8(Sat Jun 26 08:20:59 GMT 2021)
(GPL source distribution)
Java Runtime: OpenJDK Runtime Environment
JVM: OpenJDK 64-Bit Server VM
Default Encoding: UTF-8
Language: en
Country: US
--></g></svg>