<?xml version="1.0" encoding="UTF-8" standalone="no"?><svg xmlns="http://www.w3.org/2000/svg" xmlns:xlink="http://www.w3.org/1999/xlink" contentScriptType="application/ecmascript" contentStyleType="text/css" height="342px" preserveAspectRatio="none" style="width:804px;height:342px;background:#FFFFFF;" version="1.1" viewBox="0 0 804 342" width="804px" zoomAndPan="magnify"><defs><filter height="300%" id="f1ak48ec7ueion" width="300%" x="-1" y="-1"><feGaussianBlur result="blurOut" stdDeviation="2.0"/><feColorMatrix in="blurOut" result="blurOut2" type="matrix" values="0 0 0 0 0 0 0 0 0 0 0 0 0 0 0 0 0 0 .4 0"/><feOffset dx="4.0" dy="4.0" in="blurOut2" result="blurOut3"/><feBlend in="SourceGraphic" in2="blurOut3" mode="normal"/></filter></defs><g><!--MD5=[34858fd43d95e92b9fa80c296381e186]
cluster documents--><polygon fill="#FFFFFF" filter="url(#f1ak48ec7ueion)" points="16,6,100,6,107,28.7999,787,28.7999,787,212,16,212,16,6" style="stroke:#000000;stroke-width:1.5;"/><line style="stroke:#000000;stroke-width:1.5;" x1="16" x2="107" y1="28.7999" y2="28.7999"/><text fill="#000000" font-family="sans-serif" font-size="14" font-weight="bold" lengthAdjust="spacing" textLength="78" x="20" y="21.9999">documents</text><!--MD5=[55c1321e5e660f70fb77e9cf74eefc72]
cluster customers--><polygon fill="#FFFFFF" filter="url(#f1ak48ec7ueion)" points="331,245,410,245,417,267.7999,445,267.7999,445,335,331,335,331,245" style="stroke:#000000;stroke-width:1.5;"/><line style="stroke:#000000;stroke-width:1.5;" x1="331" x2="417" y1="267.7999" y2="267.7999"/><text fill="#000000" font-family="sans-serif" font-size="14" font-weight="bold" lengthAdjust="spacing" textLength="73" x="335" y="260.9999">customers</text><!--MD5=[e9488f6d277e231b9446aa19d7c97d87]
class DocumentHolder--><rect codeLine="20" fill="#FFFFE0" filter="url(#f1ak48ec7ueion)" height="38.8002" id="DocumentHolder" style="stroke:#A80036;stroke-width:1.5;" width="122" x="327" y="41"/><ellipse cx="342" cy="60.4001" fill="#B4A7E5" rx="11" ry="11" style="stroke:#A80036;stroke-width:1.0;"/><path d="M344.6719,63.697 Q345.2188,63.697 345.5,63.8845 Q345.7813,64.0564 345.7813,64.5564 Q345.7813,65.4001 344.6719,65.4001 L339.5313,65.4001 Q338.4063,65.4001 338.4063,64.5564 Q338.4063,64.0564 338.6875,63.8845 Q338.9844,63.697 339.5313,63.697 L341.25,63.697 L341.25,57.1814 L339.5313,57.1814 Q338.4063,57.1814 338.4063,56.3376 Q338.4063,55.8532 338.6875,55.6814 Q338.9844,55.4939 339.5313,55.4939 L344.6719,55.4939 Q345.2188,55.4939 345.5,55.6814 Q345.7813,55.8532 345.7813,56.3376 Q345.7813,57.1814 344.6719,57.1814 L342.9531,57.1814 L342.9531,63.697 L344.6719,63.697 Z " fill="#000000"/><text fill="#000000" font-family="sans-serif" font-size="12" font-style="italic" lengthAdjust="spacing" textLength="31" x="385.5" y="58.0001">«role»</text><text fill="#000000" font-family="sans-serif" font-size="12" font-style="italic" lengthAdjust="spacing" textLength="90" x="356" y="72.4002">DocumentHolder</text><!--MD5=[19a6f2433930319ed8d88e36d7e2e675]
class DocumentHolder_documents--><rect codeLine="21" fill="#FFFFE0" filter="url(#f1ak48ec7ueion)" height="38.8002" id="DocumentHolder_documents" style="stroke:#A80036;stroke-width:1.5;" width="181" x="32.5" y="41"/><ellipse cx="47.5" cy="60.4001" fill="#ADD1B2" rx="11" ry="11" style="stroke:#A80036;stroke-width:1.0;"/><path d="M46.8594,64.1814 Q47.6563,64.1814 48.2188,63.9939 Q48.7969,63.7907 49.0313,63.572 Q49.2813,63.3376 49.5156,63.1501 Q49.7656,62.947 49.9844,62.947 Q50.3281,62.947 50.5781,63.2126 Q50.8438,63.4626 50.8438,63.7907 Q50.8438,64.5251 49.6719,65.2126 Q48.5156,65.8845 46.8125,65.8845 Q44.6563,65.8845 43.2344,64.6189 Q41.8125,63.3532 41.8125,61.4157 L41.8125,60.2907 Q41.8125,58.2595 43.1406,56.8845 Q44.4688,55.4939 46.4375,55.4939 Q47.625,55.4939 48.8438,56.072 L49.0156,56.1501 Q49.3125,55.7439 49.7344,55.7439 Q50.2188,55.7439 50.3906,56.0407 Q50.5781,56.322 50.5781,56.8689 L50.5781,58.2907 Q50.5781,59.4157 49.7344,59.4157 Q49.4219,59.4157 49.2188,59.2439 Q49.0313,59.072 48.9844,58.9314 Q48.9531,58.7751 48.9063,58.5095 Q48.7969,57.9939 48.2813,57.6814 Q47.7656,57.3689 47.3125,57.2907 Q46.875,57.197 46.5,57.197 Q45.2188,57.197 44.3594,58.072 Q43.5156,58.947 43.5156,60.2907 L43.5156,61.3845 Q43.5156,62.6657 44.4219,63.4314 Q45.3281,64.1814 46.8594,64.1814 Z " fill="#000000"/><text fill="#000000" font-family="sans-serif" font-size="12" font-style="italic" lengthAdjust="spacing" textLength="38" x="117" y="58.0001">«mixin»</text><text fill="#000000" font-family="sans-serif" font-size="12" lengthAdjust="spacing" textLength="149" x="61.5" y="72.4002">DocumentHolder_documents</text><!--MD5=[aaefda37f268a242f159fa4f96ae602c]
class DocumentHolder_attachDocument--><rect codeLine="22" fill="#FFFFE0" filter="url(#f1ak48ec7ueion)" height="38.8002" id="DocumentHolder_attachDocument" style="stroke:#A80036;stroke-width:1.5;" width="208" x="563" y="41"/><ellipse cx="578" cy="60.4001" fill="#ADD1B2" rx="11" ry="11" style="stroke:#A80036;stroke-width:1.0;"/><path d="M577.3594,64.1814 Q578.1563,64.1814 578.7188,63.9939 Q579.2969,63.7907 579.5313,63.572 Q579.7813,63.3376 580.0156,63.1501 Q580.2656,62.947 580.4844,62.947 Q580.8281,62.947 581.0781,63.2126 Q581.3438,63.4626 581.3438,63.7907 Q581.3438,64.5251 580.1719,65.2126 Q579.0156,65.8845 577.3125,65.8845 Q575.1563,65.8845 573.7344,64.6189 Q572.3125,63.3532 572.3125,61.4157 L572.3125,60.2907 Q572.3125,58.2595 573.6406,56.8845 Q574.9688,55.4939 576.9375,55.4939 Q578.125,55.4939 579.3438,56.072 L579.5156,56.1501 Q579.8125,55.7439 580.2344,55.7439 Q580.7188,55.7439 580.8906,56.0407 Q581.0781,56.322 581.0781,56.8689 L581.0781,58.2907 Q581.0781,59.4157 580.2344,59.4157 Q579.9219,59.4157 579.7188,59.2439 Q579.5313,59.072 579.4844,58.9314 Q579.4531,58.7751 579.4063,58.5095 Q579.2969,57.9939 578.7813,57.6814 Q578.2656,57.3689 577.8125,57.2907 Q577.375,57.197 577,57.197 Q575.7188,57.197 574.8594,58.072 Q574.0156,58.947 574.0156,60.2907 L574.0156,61.3845 Q574.0156,62.6657 574.9219,63.4314 Q575.8281,64.1814 577.3594,64.1814 Z " fill="#000000"/><text fill="#000000" font-family="sans-serif" font-size="12" font-style="italic" lengthAdjust="spacing" textLength="38" x="661" y="58.0001">«mixin»</text><text fill="#000000" font-family="sans-serif" font-size="12" lengthAdjust="spacing" textLength="176" x="592" y="72.4002">DocumentHolder_attachDocument</text><!--MD5=[59b530d44ae785dc18db921986a9c15c]
class Document--><rect codeLine="23" fill="#90EE90" filter="url(#f1ak48ec7ueion)" height="38.8002" id="Document" style="stroke:#A80036;stroke-width:1.5;" width="83" x="81.5" y="157"/><ellipse cx="96.5" cy="176.4001" fill="#ADD1B2" rx="11" ry="11" style="stroke:#A80036;stroke-width:1.0;"/><path d="M95.8594,180.1814 Q96.6563,180.1814 97.2188,179.9939 Q97.7969,179.7907 98.0313,179.572 Q98.2813,179.3376 98.5156,179.1501 Q98.7656,178.947 98.9844,178.947 Q99.3281,178.947 99.5781,179.2126 Q99.8438,179.4626 99.8438,179.7907 Q99.8438,180.5251 98.6719,181.2126 Q97.5156,181.8845 95.8125,181.8845 Q93.6563,181.8845 92.2344,180.6189 Q90.8125,179.3532 90.8125,177.4157 L90.8125,176.2907 Q90.8125,174.2595 92.1406,172.8845 Q93.4688,171.4939 95.4375,171.4939 Q96.625,171.4939 97.8438,172.072 L98.0156,172.1501 Q98.3125,171.7439 98.7344,171.7439 Q99.2188,171.7439 99.3906,172.0407 Q99.5781,172.322 99.5781,172.8689 L99.5781,174.2907 Q99.5781,175.4157 98.7344,175.4157 Q98.4219,175.4157 98.2188,175.2439 Q98.0313,175.072 97.9844,174.9314 Q97.9531,174.7751 97.9063,174.5095 Q97.7969,173.9939 97.2813,173.6814 Q96.7656,173.3689 96.3125,173.2907 Q95.875,173.197 95.5,173.197 Q94.2188,173.197 93.3594,174.072 Q92.5156,174.947 92.5156,176.2907 L92.5156,177.3845 Q92.5156,178.6657 93.4219,179.4314 Q94.3281,180.1814 95.8594,180.1814 Z " fill="#000000"/><text fill="#000000" font-family="sans-serif" font-size="12" font-style="italic" lengthAdjust="spacing" textLength="27" x="122.5" y="174.0001">«ppt»</text><text fill="#000000" font-family="sans-serif" font-size="12" lengthAdjust="spacing" textLength="51" x="110.5" y="188.4002">Document</text><!--MD5=[2ce0c9fb7f55b1e256ab28a8ea6b25ec]
class Customer--><rect codeLine="30" fill="#90EE90" filter="url(#f1ak48ec7ueion)" height="38.8002" id="Customer" style="stroke:#A80036;stroke-width:1.5;" width="82" x="347" y="280"/><ellipse cx="362" cy="299.4001" fill="#ADD1B2" rx="11" ry="11" style="stroke:#A80036;stroke-width:1.0;"/><path d="M361.3594,303.1814 Q362.1563,303.1814 362.7188,302.9939 Q363.2969,302.7907 363.5313,302.572 Q363.7813,302.3376 364.0156,302.1501 Q364.2656,301.947 364.4844,301.947 Q364.8281,301.947 365.0781,302.2126 Q365.3438,302.4626 365.3438,302.7907 Q365.3438,303.5251 364.1719,304.2126 Q363.0156,304.8845 361.3125,304.8845 Q359.1563,304.8845 357.7344,303.6189 Q356.3125,302.3532 356.3125,300.4157 L356.3125,299.2907 Q356.3125,297.2595 357.6406,295.8845 Q358.9688,294.4939 360.9375,294.4939 Q362.125,294.4939 363.3438,295.072 L363.5156,295.1501 Q363.8125,294.7439 364.2344,294.7439 Q364.7188,294.7439 364.8906,295.0407 Q365.0781,295.322 365.0781,295.8689 L365.0781,297.2907 Q365.0781,298.4157 364.2344,298.4157 Q363.9219,298.4157 363.7188,298.2439 Q363.5313,298.072 363.4844,297.9314 Q363.4531,297.7751 363.4063,297.5095 Q363.2969,296.9939 362.7813,296.6814 Q362.2656,296.3689 361.8125,296.2907 Q361.375,296.197 361,296.197 Q359.7188,296.197 358.8594,297.072 Q358.0156,297.947 358.0156,299.2907 L358.0156,300.3845 Q358.0156,301.6657 358.9219,302.4314 Q359.8281,303.1814 361.3594,303.1814 Z " fill="#000000"/><text fill="#000000" font-family="sans-serif" font-size="12" font-style="italic" lengthAdjust="spacing" textLength="27" x="387.5" y="297.0001">«ppt»</text><text fill="#000000" font-family="sans-serif" font-size="12" lengthAdjust="spacing" textLength="50" x="376" y="311.4002">Customer</text><!--MD5=[d7f4709b13f7dedb24b5ca6fc57d298b]
link DocumentHolder_documents to Document--><path codeLine="25" d="M123,80.07 C123,99.61 123,130.44 123,151.74 " fill="none" id="DocumentHolder_documents-to-Document" style="stroke:#A80036;stroke-width:1.0;"/><polygon fill="#A80036" points="123,156.94,127,147.94,123,151.94,119,147.94,123,156.94" style="stroke:#A80036;stroke-width:1.0;"/><text fill="#000000" font-family="sans-serif" font-size="13" lengthAdjust="spacing" textLength="63" x="124" y="124">documents</text><text fill="#000000" font-family="sans-serif" font-size="13" lengthAdjust="spacing" textLength="18" x="102.1313" y="146.4421">0..*</text><!--MD5=[667214b920eff343bfee98d77050a0e1]
reverse link DocumentHolder to DocumentHolder_documents--><path codeLine="26" d="M321.7,60.5 C289.07,60.5 249.24,60.5 213.83,60.5 " fill="none" id="DocumentHolder-backto-DocumentHolder_documents" style="stroke:#A80036;stroke-width:1.0;stroke-dasharray:7.0,7.0;"/><polygon fill="#A80036" points="326.87,60.5,317.87,56.5,321.87,60.5,317.87,64.5,326.87,60.5" style="stroke:#A80036;stroke-width:1.0;"/><text fill="#000000" font-family="sans-serif" font-size="13" lengthAdjust="spacing" textLength="77" x="231.75" y="54.5">contributes to</text><!--MD5=[545f724373ba39e3f6aa3425db4bd540]
reverse link DocumentHolder to DocumentHolder_attachDocument--><path codeLine="27" d="M454.36,60.5 C486.78,60.5 526.53,60.5 562.86,60.5 " fill="none" id="DocumentHolder-backto-DocumentHolder_attachDocument" style="stroke:#A80036;stroke-width:1.0;stroke-dasharray:7.0,7.0;"/><polygon fill="#A80036" points="449.23,60.5,458.23,64.5,454.23,60.5,458.23,56.5,449.23,60.5" style="stroke:#A80036;stroke-width:1.0;"/><text fill="#000000" font-family="sans-serif" font-size="13" lengthAdjust="spacing" textLength="77" x="467.5" y="54.5">contributes to</text><!--MD5=[c1cfca1bb3d45a9c29dfc751b7b39763]
reverse link DocumentHolder to Customer--><path codeLine="32" d="M388,100.29 C388,152 388,241.47 388,279.99 " fill="none" id="DocumentHolder-backto-Customer" style="stroke:#A80036;stroke-width:1.0;stroke-dasharray:7.0,7.0;"/><polygon fill="none" points="381,100.1,388,80.1,395,100.1,381,100.1" style="stroke:#A80036;stroke-width:1.0;"/><!--MD5=[0748f7dff1584b06ece0fe2c409b8aad]
@startuml
hide empty members

skinparam class {
    BackgroundColor<<desc>> Cyan
    BackgroundColor<<ppt>> LightGreen
    BackgroundColor<<mi>> LightPink
    BackgroundColor<<role>> LightYellow
    BackgroundColor<<strategy>> White
    BackgroundColor<<api>> White
    BackgroundColor<<spi>> White
    BackgroundColor<<internal>> LightGrey
    BackgroundColor<<value>> White

    BackgroundColor<<entity>> LightGreen
    BackgroundColor<<viewmodel>> LightPink
    BackgroundColor<<mixin>> LightYellow
}

package documents {
    interface DocumentHolder <<role>>
    class DocumentHolder_documents <<mixin>>
    class DocumentHolder_attachDocument <<mixin>>
    class Document <<ppt>>
}
DocumentHolder_documents -d-> "0..*" Document: documents
DocumentHolder_documents -.l-> DocumentHolder: "contributes to"
DocumentHolder_attachDocument -.l-> DocumentHolder: "contributes to"

package customers {
    class Customer <<ppt>>
}
Customer -u.-^ DocumentHolder
@enduml

PlantUML version 1.2021.8(Sat Jun 26 08:20:59 GMT 2021)
(GPL source distribution)
Java Runtime: OpenJDK Runtime Environment
JVM: OpenJDK 64-Bit Server VM
Default Encoding: UTF-8
Language: en
Country: US
--></g></svg>