<?xml version="1.0" encoding="UTF-8" standalone="no"?><svg xmlns="http://www.w3.org/2000/svg" xmlns:xlink="http://www.w3.org/1999/xlink" contentScriptType="application/ecmascript" contentStyleType="text/css" height="128px" preserveAspectRatio="none" style="width:280px;height:128px;" version="1.1" viewBox="0 0 280 128" width="280px" zoomAndPan="magnify"><defs><filter height="300%" id="f1ozdumjim4ow9" width="300%" x="-1" y="-1"><feGaussianBlur result="blurOut" stdDeviation="2.0"/><feColorMatrix in="blurOut" result="blurOut2" type="matrix" values="0 0 0 0 0 0 0 0 0 0 0 0 0 0 0 0 0 0 .4 0"/><feOffset dx="4.0" dy="4.0" in="blurOut2" result="blurOut3"/><feBlend in="SourceGraphic" in2="blurOut3" mode="normal"/></filter></defs><g><!--MD5=[2ce0c9fb7f55b1e256ab28a8ea6b25ec]
class Customer--><rect fill="#FEFECE" filter="url(#f1ozdumjim4ow9)" height="48" id="Customer" style="stroke:#A80036;stroke-width:1.5;" width="81" x="7" y="36.5"/><ellipse cx="22" cy="52.5" fill="#ADD1B2" rx="11" ry="11" style="stroke:#A80036;stroke-width:1.0;"/><path d="M17.9375,52.6406 Q17.9375,49.1875 19.0313,47.5625 Q20.1406,45.9219 22.3594,45.9219 Q23.5625,45.9219 24.8281,46.5781 L24.8281,48.625 Q23.375,47.8438 22.4375,47.8438 Q19.9844,47.8438 19.9844,52.6406 Q19.9844,55.3438 20.6094,56.4063 Q21.25,57.4531 22.4375,57.4531 Q23.4063,57.4531 24.9063,56.5313 L24.9063,58.7344 Q23.6406,59.3594 22.3594,59.3594 Q20.0938,59.3594 19.0156,57.7813 Q17.9375,56.2031 17.9375,52.6406 Z " fill="#000000"/><text fill="#000000" font-family="sans-serif" font-size="12" lengthAdjust="spacing" textLength="49" x="36" y="57.0352">Customer</text><line style="stroke:#A80036;stroke-width:1.5;" x1="8" x2="87" y1="68.5" y2="68.5"/><line style="stroke:#A80036;stroke-width:1.5;" x1="8" x2="87" y1="76.5" y2="76.5"/><!--MD5=[cf4d6237fcae255cd2e1656cf84a30e2]
class Order--><rect codeLine="3" fill="#FEFECE" filter="url(#f1ozdumjim4ow9)" height="107.3828" id="Order" style="stroke:#A80036;stroke-width:1.5;" width="90" x="176.5" y="7"/><ellipse cx="205" cy="23" fill="#ADD1B2" rx="11" ry="11" style="stroke:#A80036;stroke-width:1.0;"/><path d="M200.9375,23.1406 Q200.9375,19.6875 202.0313,18.0625 Q203.1406,16.4219 205.3594,16.4219 Q206.5625,16.4219 207.8281,17.0781 L207.8281,19.125 Q206.375,18.3438 205.4375,18.3438 Q202.9844,18.3438 202.9844,23.1406 Q202.9844,25.8438 203.6094,26.9063 Q204.25,27.9531 205.4375,27.9531 Q206.4063,27.9531 207.9063,27.0313 L207.9063,29.2344 Q206.6406,29.8594 205.3594,29.8594 Q203.0938,29.8594 202.0156,28.2813 Q200.9375,26.7031 200.9375,23.1406 Z " fill="#000000"/><text fill="#000000" font-family="sans-serif" font-size="12" lengthAdjust="spacing" textLength="28" x="222" y="27.5352">Order</text><line style="stroke:#A80036;stroke-width:1.5;" x1="177.5" x2="265.5" y1="39" y2="39"/><text fill="#000000" font-family="sans-serif" font-size="11" lengthAdjust="spacing" textLength="37" x="182.5" y="54.5801">int num</text><text fill="#000000" font-family="sans-serif" font-size="11" lengthAdjust="spacing" textLength="71" x="182.5" y="69.4258">Date placedOn</text><text fill="#000000" font-family="sans-serif" font-size="11" lengthAdjust="spacing" textLength="78" x="182.5" y="84.2715">Date shippedOn</text><text fill="#000000" font-family="sans-serif" font-size="11" lengthAdjust="spacing" textLength="56" x="182.5" y="99.1172">State state</text><line style="stroke:#A80036;stroke-width:1.5;" x1="177.5" x2="265.5" y1="106.3828" y2="106.3828"/><!--MD5=[135794f54b59c9e5883929d048383f81]
link Customer to Order--><path codeLine="1" d="M100.3,60.5 C100.3,60.5 143.37,60.5 163.32,60.5 " fill="none" id="Customer-Order" style="stroke:#A80036;stroke-width:1.0;"/><polygon fill="#A80036" points="176.37,60.5,167.37,56.5,171.37,60.5,167.37,64.5,176.37,60.5" style="stroke:#A80036;stroke-width:1.0;"/><line style="stroke:#A80036;stroke-width:1.0;" x1="171.37" x2="163.37" y1="60.5" y2="60.5"/><polygon fill="#A80036" points="88.3,60.5,94.3,64.5,100.3,60.5,94.3,56.5,88.3,60.5" style="stroke:#A80036;stroke-width:1.0;"/><text fill="#000000" font-family="sans-serif" font-size="13" lengthAdjust="spacing" textLength="36" x="122.25" y="53.1855">orders</text><text fill="#000000" font-family="sans-serif" font-size="13" lengthAdjust="spacing" textLength="8" x="96" y="55.7714">1</text><text fill="#000000" font-family="sans-serif" font-size="13" lengthAdjust="spacing" textLength="24" x="144.3361" y="75.3923">0..*</text><!--MD5=[c3eeed01cc99cd30666d569f1c8f41ae]
@startuml
Customer "1" *-r-> "0..*" Order : "    orders"

class Order {
    int num
    Date placedOn
    Date shippedOn
    State state
}
@enduml

PlantUML version 1.2021.01(Tue Feb 02 07:55:08 GMT 2021)
(GPL source distribution)
Java Runtime: OpenJDK Runtime Environment
JVM: OpenJDK 64-Bit Server VM
Default Encoding: UTF-8
Language: en
Country: US
--></g></svg>