<?xml version="1.0" encoding="UTF-8" standalone="no"?><svg xmlns="http://www.w3.org/2000/svg" xmlns:xlink="http://www.w3.org/1999/xlink" contentScriptType="application/ecmascript" contentStyleType="text/css" height="53px" preserveAspectRatio="none" style="width:351px;height:53px;background:#FFFFFF;" version="1.1" viewBox="0 0 351 53" width="351px" zoomAndPan="magnify"><defs><filter height="300%" id="f1kwq0jmnpvosg" width="300%" x="-1" y="-1"><feGaussianBlur result="blurOut" stdDeviation="2.0"/><feColorMatrix in="blurOut" result="blurOut2" type="matrix" values="0 0 0 0 0 0 0 0 0 0 0 0 0 0 0 0 0 0 .4 0"/><feOffset dx="4.0" dy="4.0" in="blurOut2" result="blurOut3"/><feBlend in="SourceGraphic" in2="blurOut3" mode="normal"/></filter></defs><g><!--MD5=[7a74536e74c0348ee9b5d107614986e9]
class Party--><rect codeLine="3" fill="#FEFECE" filter="url(#f1kwq0jmnpvosg)" height="32" id="Party" style="stroke:#A80036;stroke-width:1.5;" width="60" x="7" y="7.0225"/><ellipse cx="22" cy="23.0225" fill="#ADD1B2" rx="11" ry="11" style="stroke:#A80036;stroke-width:1.0;"/><path d="M21.3594,26.8038 Q22.1563,26.8038 22.7188,26.6163 Q23.2969,26.4131 23.5313,26.1944 Q23.7813,25.96 24.0156,25.7725 Q24.2656,25.5694 24.4844,25.5694 Q24.8281,25.5694 25.0781,25.835 Q25.3438,26.085 25.3438,26.4131 Q25.3438,27.1475 24.1719,27.835 Q23.0156,28.5069 21.3125,28.5069 Q19.1563,28.5069 17.7344,27.2413 Q16.3125,25.9756 16.3125,24.0381 L16.3125,22.9131 Q16.3125,20.8819 17.6406,19.5069 Q18.9688,18.1163 20.9375,18.1163 Q22.125,18.1163 23.3438,18.6944 L23.5156,18.7725 Q23.8125,18.3663 24.2344,18.3663 Q24.7188,18.3663 24.8906,18.6631 Q25.0781,18.9444 25.0781,19.4913 L25.0781,20.9131 Q25.0781,22.0381 24.2344,22.0381 Q23.9219,22.0381 23.7188,21.8663 Q23.5313,21.6944 23.4844,21.5538 Q23.4531,21.3975 23.4063,21.1319 Q23.2969,20.6163 22.7813,20.3038 Q22.2656,19.9913 21.8125,19.9131 Q21.375,19.8194 21,19.8194 Q19.7188,19.8194 18.8594,20.6944 Q18.0156,21.5694 18.0156,22.9131 L18.0156,24.0069 Q18.0156,25.2881 18.9219,26.0538 Q19.8281,26.8038 21.3594,26.8038 Z " fill="#000000"/><text fill="#000000" font-family="sans-serif" font-size="12" lengthAdjust="spacing" textLength="28" x="36" y="27.8225">Party</text><!--MD5=[faf5f45784ac6a63bd504b609d3a313d]
class AgreementRole--><rect codeLine="4" fill="#FEFECE" filter="url(#f1kwq0jmnpvosg)" height="32" id="AgreementRole" style="stroke:#A80036;stroke-width:1.5;" width="112" x="102" y="7.0225"/><ellipse cx="117" cy="23.0225" fill="#ADD1B2" rx="11" ry="11" style="stroke:#A80036;stroke-width:1.0;"/><path d="M116.3594,26.8038 Q117.1563,26.8038 117.7188,26.6163 Q118.2969,26.4131 118.5313,26.1944 Q118.7813,25.96 119.0156,25.7725 Q119.2656,25.5694 119.4844,25.5694 Q119.8281,25.5694 120.0781,25.835 Q120.3438,26.085 120.3438,26.4131 Q120.3438,27.1475 119.1719,27.835 Q118.0156,28.5069 116.3125,28.5069 Q114.1563,28.5069 112.7344,27.2413 Q111.3125,25.9756 111.3125,24.0381 L111.3125,22.9131 Q111.3125,20.8819 112.6406,19.5069 Q113.9688,18.1163 115.9375,18.1163 Q117.125,18.1163 118.3438,18.6944 L118.5156,18.7725 Q118.8125,18.3663 119.2344,18.3663 Q119.7188,18.3663 119.8906,18.6631 Q120.0781,18.9444 120.0781,19.4913 L120.0781,20.9131 Q120.0781,22.0381 119.2344,22.0381 Q118.9219,22.0381 118.7188,21.8663 Q118.5313,21.6944 118.4844,21.5538 Q118.4531,21.3975 118.4063,21.1319 Q118.2969,20.6163 117.7813,20.3038 Q117.2656,19.9913 116.8125,19.9131 Q116.375,19.8194 116,19.8194 Q114.7188,19.8194 113.8594,20.6944 Q113.0156,21.5694 113.0156,22.9131 L113.0156,24.0069 Q113.0156,25.2881 113.9219,26.0538 Q114.8281,26.8038 116.3594,26.8038 Z " fill="#000000"/><text fill="#000000" font-family="sans-serif" font-size="12" lengthAdjust="spacing" textLength="80" x="131" y="27.8225">AgreementRole</text><!--MD5=[758cfb5a0a70ee9b6e31bb519890fa2a]
class Agreement--><rect codeLine="5" fill="#FEFECE" filter="url(#f1kwq0jmnpvosg)" height="32" id="Agreement" style="stroke:#A80036;stroke-width:1.5;" width="88" x="249" y="7.0225"/><ellipse cx="264" cy="23.0225" fill="#ADD1B2" rx="11" ry="11" style="stroke:#A80036;stroke-width:1.0;"/><path d="M263.3594,26.8038 Q264.1563,26.8038 264.7188,26.6163 Q265.2969,26.4131 265.5313,26.1944 Q265.7813,25.96 266.0156,25.7725 Q266.2656,25.5694 266.4844,25.5694 Q266.8281,25.5694 267.0781,25.835 Q267.3438,26.085 267.3438,26.4131 Q267.3438,27.1475 266.1719,27.835 Q265.0156,28.5069 263.3125,28.5069 Q261.1563,28.5069 259.7344,27.2413 Q258.3125,25.9756 258.3125,24.0381 L258.3125,22.9131 Q258.3125,20.8819 259.6406,19.5069 Q260.9688,18.1163 262.9375,18.1163 Q264.125,18.1163 265.3438,18.6944 L265.5156,18.7725 Q265.8125,18.3663 266.2344,18.3663 Q266.7188,18.3663 266.8906,18.6631 Q267.0781,18.9444 267.0781,19.4913 L267.0781,20.9131 Q267.0781,22.0381 266.2344,22.0381 Q265.9219,22.0381 265.7188,21.8663 Q265.5313,21.6944 265.4844,21.5538 Q265.4531,21.3975 265.4063,21.1319 Q265.2969,20.6163 264.7813,20.3038 Q264.2656,19.9913 263.8125,19.9131 Q263.375,19.8194 263,19.8194 Q261.7188,19.8194 260.8594,20.6944 Q260.0156,21.5694 260.0156,22.9131 L260.0156,24.0069 Q260.0156,25.2881 260.9219,26.0538 Q261.8281,26.8038 263.3594,26.8038 Z " fill="#000000"/><text fill="#000000" font-family="sans-serif" font-size="12" lengthAdjust="spacing" textLength="56" x="278" y="27.8225">Agreement</text><!--MD5=[1507aa0b1ee2d41004cd16f66b5e5b5c]
link Party to AgreementRole--><path codeLine="7" d="M72.41,23.0225 C80.57,23.0225 88.74,23.0225 96.91,23.0225 " fill="none" id="Party-AgreementRole" style="stroke:#A80036;stroke-width:1.0;"/><polygon fill="#A80036" points="101.99,23.0225,92.99,19.0225,96.99,23.0225,92.99,27.0225,101.99,23.0225" style="stroke:#A80036;stroke-width:1.0;"/><polygon fill="#A80036" points="67.25,23.0225,76.25,27.0225,72.25,23.0225,76.25,19.0225,67.25,23.0225" style="stroke:#A80036;stroke-width:1.0;"/><text fill="#000000" font-family="sans-serif" font-size="13" lengthAdjust="spacing" textLength="15" x="78.8528" y="20.1">0.*</text><!--MD5=[a51f9f23a342daff9c7a779e110ce52f]
link AgreementRole to Agreement--><path codeLine="8" d="M219.33,23.0225 C227.51,23.0225 235.69,23.0225 243.87,23.0225 " fill="none" id="AgreementRole-Agreement" style="stroke:#A80036;stroke-width:1.0;"/><polygon fill="#A80036" points="248.96,23.0225,239.96,19.0225,243.96,23.0225,239.96,27.0225,248.96,23.0225" style="stroke:#A80036;stroke-width:1.0;"/><polygon fill="#A80036" points="214.16,23.0225,223.16,27.0225,219.16,23.0225,223.16,19.0225,214.16,23.0225" style="stroke:#A80036;stroke-width:1.0;"/><text fill="#000000" font-family="sans-serif" font-size="13" lengthAdjust="spacing" textLength="18" x="222.1014" y="20.145">0..*</text><!--MD5=[e35a69eb8fa64863ec4e8fccb51e0657]
@startuml
hide empty members

class Party
class AgreementRole
class Agreement

Party <-r-> "0.*" AgreementRole
AgreementRole "0..*" <-r-> Agreement
@enduml

PlantUML version 1.2021.8(Sat Jun 26 08:20:59 GMT 2021)
(GPL source distribution)
Java Runtime: OpenJDK Runtime Environment
JVM: OpenJDK 64-Bit Server VM
Default Encoding: UTF-8
Language: en
Country: US
--></g></svg>