<?xml version="1.0" encoding="UTF-8" standalone="no"?><svg xmlns="http://www.w3.org/2000/svg" xmlns:xlink="http://www.w3.org/1999/xlink" contentStyleType="text/css" height="46px" preserveAspectRatio="none" style="width:372px;height:46px;background:#FFFFFF;" version="1.1" viewBox="0 0 372 46" width="372px" zoomAndPan="magnify"><defs/><g><!--MD5=[7a74536e74c0348ee9b5d107614986e9]
class Party--><g id="elem_Party"><rect codeLine="3" fill="#F1F1F1" height="32" id="Party" rx="2.5" ry="2.5" style="stroke:#181818;stroke-width:0.5;" width="65" x="7" y="7"/><ellipse cx="22" cy="23" fill="#ADD1B2" rx="11" ry="11" style="stroke:#181818;stroke-width:1.0;"/><path d="M21.3594,26.7813 Q22.1563,26.7813 22.7188,26.5938 Q23.2969,26.3906 23.5313,26.1719 Q23.7813,25.9375 24.0156,25.75 Q24.2656,25.5469 24.4844,25.5469 Q24.8281,25.5469 25.0781,25.8125 Q25.3438,26.0625 25.3438,26.3906 Q25.3438,27.125 24.1719,27.8125 Q23.0156,28.4844 21.3125,28.4844 Q19.1563,28.4844 17.7344,27.2188 Q16.3125,25.9531 16.3125,24.0156 L16.3125,22.8906 Q16.3125,20.8594 17.6406,19.4844 Q18.9688,18.0938 20.9375,18.0938 Q22.125,18.0938 23.3438,18.6719 L23.5156,18.75 Q23.8125,18.3438 24.2344,18.3438 Q24.7188,18.3438 24.8906,18.6406 Q25.0781,18.9219 25.0781,19.4688 L25.0781,20.8906 Q25.0781,22.0156 24.2344,22.0156 Q23.9219,22.0156 23.7188,21.8438 Q23.5313,21.6719 23.4844,21.5313 Q23.4531,21.375 23.4063,21.1094 Q23.2969,20.5938 22.7813,20.2813 Q22.2656,19.9688 21.8125,19.8906 Q21.375,19.7969 21,19.7969 Q19.7188,19.7969 18.8594,20.6719 Q18.0156,21.5469 18.0156,22.8906 L18.0156,23.9844 Q18.0156,25.2656 18.9219,26.0313 Q19.8281,26.7813 21.3594,26.7813 Z " fill="#000000"/><text fill="#000000" font-family="sans-serif" font-size="14" lengthAdjust="spacing" textLength="33" x="36" y="28.6">Party</text></g><!--MD5=[faf5f45784ac6a63bd504b609d3a313d]
class AgreementRole--><g id="elem_AgreementRole"><rect codeLine="4" fill="#F1F1F1" height="32" id="AgreementRole" rx="2.5" ry="2.5" style="stroke:#181818;stroke-width:0.5;" width="125" x="107" y="7"/><ellipse cx="122" cy="23" fill="#ADD1B2" rx="11" ry="11" style="stroke:#181818;stroke-width:1.0;"/><path d="M121.3594,26.7813 Q122.1563,26.7813 122.7188,26.5938 Q123.2969,26.3906 123.5313,26.1719 Q123.7813,25.9375 124.0156,25.75 Q124.2656,25.5469 124.4844,25.5469 Q124.8281,25.5469 125.0781,25.8125 Q125.3438,26.0625 125.3438,26.3906 Q125.3438,27.125 124.1719,27.8125 Q123.0156,28.4844 121.3125,28.4844 Q119.1563,28.4844 117.7344,27.2188 Q116.3125,25.9531 116.3125,24.0156 L116.3125,22.8906 Q116.3125,20.8594 117.6406,19.4844 Q118.9688,18.0938 120.9375,18.0938 Q122.125,18.0938 123.3438,18.6719 L123.5156,18.75 Q123.8125,18.3438 124.2344,18.3438 Q124.7188,18.3438 124.8906,18.6406 Q125.0781,18.9219 125.0781,19.4688 L125.0781,20.8906 Q125.0781,22.0156 124.2344,22.0156 Q123.9219,22.0156 123.7188,21.8438 Q123.5313,21.6719 123.4844,21.5313 Q123.4531,21.375 123.4063,21.1094 Q123.2969,20.5938 122.7813,20.2813 Q122.2656,19.9688 121.8125,19.8906 Q121.375,19.7969 121,19.7969 Q119.7188,19.7969 118.8594,20.6719 Q118.0156,21.5469 118.0156,22.8906 L118.0156,23.9844 Q118.0156,25.2656 118.9219,26.0313 Q119.8281,26.7813 121.3594,26.7813 Z " fill="#000000"/><text fill="#000000" font-family="sans-serif" font-size="14" lengthAdjust="spacing" textLength="93" x="136" y="28.6">AgreementRole</text></g><!--MD5=[758cfb5a0a70ee9b6e31bb519890fa2a]
class Agreement--><g id="elem_Agreement"><rect codeLine="5" fill="#F1F1F1" height="32" id="Agreement" rx="2.5" ry="2.5" style="stroke:#181818;stroke-width:0.5;" width="98" x="267.5" y="7"/><ellipse cx="282.5" cy="23" fill="#ADD1B2" rx="11" ry="11" style="stroke:#181818;stroke-width:1.0;"/><path d="M281.8594,26.7813 Q282.6563,26.7813 283.2188,26.5938 Q283.7969,26.3906 284.0313,26.1719 Q284.2813,25.9375 284.5156,25.75 Q284.7656,25.5469 284.9844,25.5469 Q285.3281,25.5469 285.5781,25.8125 Q285.8438,26.0625 285.8438,26.3906 Q285.8438,27.125 284.6719,27.8125 Q283.5156,28.4844 281.8125,28.4844 Q279.6563,28.4844 278.2344,27.2188 Q276.8125,25.9531 276.8125,24.0156 L276.8125,22.8906 Q276.8125,20.8594 278.1406,19.4844 Q279.4688,18.0938 281.4375,18.0938 Q282.625,18.0938 283.8438,18.6719 L284.0156,18.75 Q284.3125,18.3438 284.7344,18.3438 Q285.2188,18.3438 285.3906,18.6406 Q285.5781,18.9219 285.5781,19.4688 L285.5781,20.8906 Q285.5781,22.0156 284.7344,22.0156 Q284.4219,22.0156 284.2188,21.8438 Q284.0313,21.6719 283.9844,21.5313 Q283.9531,21.375 283.9063,21.1094 Q283.7969,20.5938 283.2813,20.2813 Q282.7656,19.9688 282.3125,19.8906 Q281.875,19.7969 281.5,19.7969 Q280.2188,19.7969 279.3594,20.6719 Q278.5156,21.5469 278.5156,22.8906 L278.5156,23.9844 Q278.5156,25.2656 279.4219,26.0313 Q280.3281,26.7813 281.8594,26.7813 Z " fill="#000000"/><text fill="#000000" font-family="sans-serif" font-size="14" lengthAdjust="spacing" textLength="66" x="296.5" y="28.6">Agreement</text></g><!--MD5=[1507aa0b1ee2d41004cd16f66b5e5b5c]
link Party to AgreementRole--><g id="link_Party_AgreementRole"><path codeLine="7" d="M77.39,23 C85.51,23 93.64,23 101.76,23 " fill="none" id="Party-AgreementRole" style="stroke:#181818;stroke-width:1.0;"/><polygon fill="#181818" points="106.82,23,97.82,19,101.82,23,97.82,27,106.82,23" style="stroke:#181818;stroke-width:1.0;"/><polygon fill="#181818" points="72.25,23,81.25,27,77.25,23,81.25,19,72.25,23" style="stroke:#181818;stroke-width:1.0;"/><text fill="#000000" font-family="sans-serif" font-size="13" lengthAdjust="spacing" textLength="15" x="84.1441" y="20.2125">0.*</text></g><!--MD5=[a51f9f23a342daff9c7a779e110ce52f]
link AgreementRole to Agreement--><g id="link_AgreementRole_Agreement"><path codeLine="8" d="M237.33,23 C245.62,23 253.91,23 262.21,23 " fill="none" id="AgreementRole-Agreement" style="stroke:#181818;stroke-width:1.0;"/><polygon fill="#181818" points="267.37,23,258.37,19,262.37,23,258.37,27,267.37,23" style="stroke:#181818;stroke-width:1.0;"/><polygon fill="#181818" points="232.09,23,241.09,27,237.09,23,241.09,19,232.09,23" style="stroke:#181818;stroke-width:1.0;"/><text fill="#000000" font-family="sans-serif" font-size="13" lengthAdjust="spacing" textLength="18" x="239.9202" y="20.2125">0..*</text></g><!--MD5=[df2664ea4d96ec5908c8b60b7cf785dc]
@startuml
hide empty members

class Party
class AgreementRole
class Agreement

Party <-r-> "0.*" AgreementRole
AgreementRole "0..*" <-r-> Agreement
@enduml

PlantUML version 1.2022.5(Sat Apr 30 10:55:52 GMT 2022)
(GPL source distribution)
Java Runtime: OpenJDK Runtime Environment
JVM: OpenJDK 64-Bit Server VM
Default Encoding: UTF-8
Language: en
Country: US
--></g></svg>