<svg xmlns="http://www.w3.org/2000/svg" xmlns:xlink="http://www.w3.org/1999/xlink" contentStyleType="text/css" data-diagram-type="CLASS" height="46px" preserveAspectRatio="none" style="width:403px;height:46px;background:#FFFFFF;" version="1.1" viewBox="0 0 403 46" width="403px" zoomAndPan="magnify"><defs/><g><!--class Party--><g class="entity" data-entity="Party" data-source-line="3" data-uid="ent0002" id="entity_Party"><rect fill="#F1F1F1" height="32" rx="2.5" ry="2.5" style="stroke:#181818;stroke-width:0.5;" width="68.5518" x="7" y="7.796"/><ellipse cx="22" cy="23.796" fill="#ADD1B2" rx="11" ry="11" style="stroke:#181818;stroke-width:1;"/><path d="M24.9688,29.4367 Q24.3906,29.7335 23.75,29.8742 Q23.1094,30.0304 22.4063,30.0304 Q19.9063,30.0304 18.5781,28.3898 Q17.2656,26.7335 17.2656,23.6085 Q17.2656,20.4835 18.5781,18.8273 Q19.9063,17.171 22.4063,17.171 Q23.1094,17.171 23.75,17.3273 Q24.4063,17.4835 24.9688,17.7804 L24.9688,20.4992 Q24.3438,19.921 23.75,19.6554 Q23.1563,19.3742 22.5313,19.3742 Q21.1875,19.3742 20.5,20.4523 Q19.8125,21.5148 19.8125,23.6085 Q19.8125,25.7023 20.5,26.7804 Q21.1875,27.8429 22.5313,27.8429 Q23.1563,27.8429 23.75,27.5773 Q24.3438,27.296 24.9688,26.7179 L24.9688,29.4367 Z " fill="#000000"/><text fill="#000000" font-family="sans-serif" font-size="14" lengthAdjust="spacing" textLength="36.5518" x="36" y="28.6427">Party</text></g><!--class AgreementRole--><g class="entity" data-entity="AgreementRole" data-source-line="4" data-uid="ent0003" id="entity_AgreementRole"><rect fill="#F1F1F1" height="32" rx="2.5" ry="2.5" style="stroke:#181818;stroke-width:0.5;" width="140.8555" x="110.85" y="7.796"/><ellipse cx="125.85" cy="23.796" fill="#ADD1B2" rx="11" ry="11" style="stroke:#181818;stroke-width:1;"/><path d="M128.8188,29.4367 Q128.2406,29.7335 127.6,29.8742 Q126.9594,30.0304 126.2563,30.0304 Q123.7563,30.0304 122.4281,28.3898 Q121.1156,26.7335 121.1156,23.6085 Q121.1156,20.4835 122.4281,18.8273 Q123.7563,17.171 126.2563,17.171 Q126.9594,17.171 127.6,17.3273 Q128.2563,17.4835 128.8188,17.7804 L128.8188,20.4992 Q128.1938,19.921 127.6,19.6554 Q127.0063,19.3742 126.3813,19.3742 Q125.0375,19.3742 124.35,20.4523 Q123.6625,21.5148 123.6625,23.6085 Q123.6625,25.7023 124.35,26.7804 Q125.0375,27.8429 126.3813,27.8429 Q127.0063,27.8429 127.6,27.5773 Q128.1938,27.296 128.8188,26.7179 L128.8188,29.4367 Z " fill="#000000"/><text fill="#000000" font-family="sans-serif" font-size="14" lengthAdjust="spacing" textLength="108.8555" x="139.85" y="28.6427">AgreementRole</text></g><!--class Agreement--><g class="entity" data-entity="Agreement" data-source-line="5" data-uid="ent0004" id="entity_Agreement"><rect fill="#F1F1F1" height="32" rx="2.5" ry="2.5" style="stroke:#181818;stroke-width:0.5;" width="110.0596" x="286.25" y="7.796"/><ellipse cx="301.25" cy="23.796" fill="#ADD1B2" rx="11" ry="11" style="stroke:#181818;stroke-width:1;"/><path d="M304.2188,29.4367 Q303.6406,29.7335 303,29.8742 Q302.3594,30.0304 301.6563,30.0304 Q299.1563,30.0304 297.8281,28.3898 Q296.5156,26.7335 296.5156,23.6085 Q296.5156,20.4835 297.8281,18.8273 Q299.1563,17.171 301.6563,17.171 Q302.3594,17.171 303,17.3273 Q303.6563,17.4835 304.2188,17.7804 L304.2188,20.4992 Q303.5938,19.921 303,19.6554 Q302.4063,19.3742 301.7813,19.3742 Q300.4375,19.3742 299.75,20.4523 Q299.0625,21.5148 299.0625,23.6085 Q299.0625,25.7023 299.75,26.7804 Q300.4375,27.8429 301.7813,27.8429 Q302.4063,27.8429 303,27.5773 Q303.5938,27.296 304.2188,26.7179 L304.2188,29.4367 Z " fill="#000000"/><text fill="#000000" font-family="sans-serif" font-size="14" lengthAdjust="spacing" textLength="78.0596" x="315.25" y="28.6427">Agreement</text></g><!--link Party to AgreementRole--><g class="link" data-entity-1="Party" data-entity-2="AgreementRole" data-source-line="7" data-uid="lnk5" id="link_Party_AgreementRole"><path codeLine="7" d="M82,23.796 C93.52,23.796 93.03,23.796 104.55,23.796" fill="none" id="Party-AgreementRole" style="stroke:#181818;stroke-width:1;"/><polygon fill="#181818" points="76,23.796,85,27.796,81,23.796,85,19.796,76,23.796" style="stroke:#181818;stroke-width:1;"/><polygon fill="#181818" points="110.55,23.796,101.55,19.796,105.55,23.796,101.55,27.796,110.55,23.796" style="stroke:#181818;stroke-width:1;"/><text fill="#000000" font-family="sans-serif" font-size="13" lengthAdjust="spacing" textLength="18.9033" x="83.8792" y="20.0499">0.*</text></g><!--link AgreementRole to Agreement--><g class="link" data-entity-1="AgreementRole" data-entity-2="Agreement" data-source-line="8" data-uid="lnk6" id="link_AgreementRole_Agreement"><path codeLine="8" d="M257.9,23.796 C269.19,23.796 268.48,23.796 279.77,23.796" fill="none" id="AgreementRole-Agreement" style="stroke:#181818;stroke-width:1;"/><polygon fill="#181818" points="251.9,23.796,260.9,27.796,256.9,23.796,260.9,19.796,251.9,23.796" style="stroke:#181818;stroke-width:1;"/><polygon fill="#181818" points="285.77,23.796,276.77,19.796,280.77,23.796,276.77,27.796,285.77,23.796" style="stroke:#181818;stroke-width:1;"/><text fill="#000000" font-family="sans-serif" font-size="13" lengthAdjust="spacing" textLength="23.0356" x="255.2425" y="19.6328">0..*</text></g><!--SRC=[oyXCILL8pIqegLJ8JSrDIYqgvk9ApaaiBbO8I2mggOIo7TEBKbDpK_DAWl9pKj75kBZ0IXLiT8jqxHIK3FIqbD0qeF10Aa1A8ChXKW00]--></g></svg>