<?xml version="1.0" encoding="us-ascii" standalone="no"?><svg xmlns="http://www.w3.org/2000/svg" xmlns:xlink="http://www.w3.org/1999/xlink" contentStyleType="text/css" height="46px" preserveAspectRatio="none" style="width:398px;height:46px;background:#FFFFFF;" version="1.1" viewBox="0 0 398 46" width="398px" zoomAndPan="magnify"><defs/><g><!--class Party--><g id="elem_Party"><rect codeLine="3" fill="#F1F1F1" height="32" id="Party" rx="2.5" ry="2.5" style="stroke:#181818;stroke-width:0.5;" width="66" x="7" y="7.7713"/><ellipse cx="22" cy="23.7713" fill="#ADD1B2" rx="11" ry="11" style="stroke:#181818;stroke-width:1.0;"/><path d="M24.9688,29.4119 Q24.3906,29.7088 23.75,29.8494 Q23.1094,30.0057 22.4063,30.0057 Q19.9063,30.0057 18.5781,28.3651 Q17.2656,26.7088 17.2656,23.5838 Q17.2656,20.4588 18.5781,18.8026 Q19.9063,17.1463 22.4063,17.1463 Q23.1094,17.1463 23.75,17.3026 Q24.4063,17.4588 24.9688,17.7557 L24.9688,20.4744 Q24.3438,19.8963 23.75,19.6307 Q23.1563,19.3494 22.5313,19.3494 Q21.1875,19.3494 20.5,20.4276 Q19.8125,21.4901 19.8125,23.5838 Q19.8125,25.6776 20.5,26.7557 Q21.1875,27.8182 22.5313,27.8182 Q23.1563,27.8182 23.75,27.5526 Q24.3438,27.2713 24.9688,26.6932 L24.9688,29.4119 Z " fill="#000000"/><text fill="#000000" font-family="sans-serif" font-size="14" lengthAdjust="spacing" textLength="34" x="36" y="28.618">Party</text></g><!--class AgreementRole--><g id="elem_AgreementRole"><rect codeLine="4" fill="#F1F1F1" height="32" id="AgreementRole" rx="2.5" ry="2.5" style="stroke:#181818;stroke-width:0.5;" width="140" x="108" y="7.7713"/><ellipse cx="123" cy="23.7713" fill="#ADD1B2" rx="11" ry="11" style="stroke:#181818;stroke-width:1.0;"/><path d="M125.9688,29.4119 Q125.3906,29.7088 124.75,29.8494 Q124.1094,30.0057 123.4063,30.0057 Q120.9063,30.0057 119.5781,28.3651 Q118.2656,26.7088 118.2656,23.5838 Q118.2656,20.4588 119.5781,18.8026 Q120.9063,17.1463 123.4063,17.1463 Q124.1094,17.1463 124.75,17.3026 Q125.4063,17.4588 125.9688,17.7557 L125.9688,20.4744 Q125.3438,19.8963 124.75,19.6307 Q124.1563,19.3494 123.5313,19.3494 Q122.1875,19.3494 121.5,20.4276 Q120.8125,21.4901 120.8125,23.5838 Q120.8125,25.6776 121.5,26.7557 Q122.1875,27.8182 123.5313,27.8182 Q124.1563,27.8182 124.75,27.5526 Q125.3438,27.2713 125.9688,26.6932 L125.9688,29.4119 Z " fill="#000000"/><text fill="#000000" font-family="sans-serif" font-size="14" lengthAdjust="spacing" textLength="108" x="137" y="28.618">AgreementRole</text></g><!--class Agreement--><g id="elem_Agreement"><rect codeLine="5" fill="#F1F1F1" height="32" id="Agreement" rx="2.5" ry="2.5" style="stroke:#181818;stroke-width:0.5;" width="109" x="282.5" y="7.7713"/><ellipse cx="297.5" cy="23.7713" fill="#ADD1B2" rx="11" ry="11" style="stroke:#181818;stroke-width:1.0;"/><path d="M300.4688,29.4119 Q299.8906,29.7088 299.25,29.8494 Q298.6094,30.0057 297.9063,30.0057 Q295.4063,30.0057 294.0781,28.3651 Q292.7656,26.7088 292.7656,23.5838 Q292.7656,20.4588 294.0781,18.8026 Q295.4063,17.1463 297.9063,17.1463 Q298.6094,17.1463 299.25,17.3026 Q299.9063,17.4588 300.4688,17.7557 L300.4688,20.4744 Q299.8438,19.8963 299.25,19.6307 Q298.6563,19.3494 298.0313,19.3494 Q296.6875,19.3494 296,20.4276 Q295.3125,21.4901 295.3125,23.5838 Q295.3125,25.6776 296,26.7557 Q296.6875,27.8182 298.0313,27.8182 Q298.6563,27.8182 299.25,27.5526 Q299.8438,27.2713 300.4688,26.6932 L300.4688,29.4119 Z " fill="#000000"/><text fill="#000000" font-family="sans-serif" font-size="14" lengthAdjust="spacing" textLength="77" x="311.5" y="28.618">Agreement</text></g><!--link Party to AgreementRole--><g id="link_Party_AgreementRole"><path codeLine="7" d="M79.32,23.7713 C86.87,23.7713 94.42,23.7713 101.96,23.7713 " fill="none" id="Party-AgreementRole" style="stroke:#181818;stroke-width:1.0;"/><polygon fill="#181818" points="74.42,23.7713,83.42,27.7713,79.42,23.7713,83.42,19.7713,74.42,23.7713" style="stroke:#181818;stroke-width:1.0;"/><polygon fill="#181818" points="106.74,23.7713,97.74,19.7713,101.74,23.7713,97.74,27.7713,106.74,23.7713" style="stroke:#181818;stroke-width:1.0;"/><text fill="#000000" font-family="sans-serif" font-size="13" lengthAdjust="spacing" textLength="19" x="80.8886" y="20.1065">0.*</text></g><!--link AgreementRole to Agreement--><g id="link_AgreementRole_Agreement"><path codeLine="8" d="M254.26,23.7713 C261.63,23.7713 269.01,23.7713 276.39,23.7713 " fill="none" id="AgreementRole-Agreement" style="stroke:#181818;stroke-width:1.0;"/><polygon fill="#181818" points="249.49,23.7713,258.49,27.7713,254.49,23.7713,258.49,19.7713,249.49,23.7713" style="stroke:#181818;stroke-width:1.0;"/><polygon fill="#181818" points="281.03,23.7713,272.03,19.7713,276.03,23.7713,272.03,27.7713,281.03,23.7713" style="stroke:#181818;stroke-width:1.0;"/><text fill="#000000" font-family="sans-serif" font-size="13" lengthAdjust="spacing" textLength="23" x="251.5992" y="19.6328">0..*</text></g><!--SRC=[oyXCILL8pIqegLJ8JSrDIYqgvk9ApaaiBbO8I2mggOIo7TEBKbDpK_DAWl9pKj75kBZ0IXLiT8jqxHIK3FIqbD0qeF10Aa1A8ChXKW00]--></g></svg>