<?xml version="1.0" encoding="UTF-8" standalone="no"?><svg xmlns="http://www.w3.org/2000/svg" xmlns:xlink="http://www.w3.org/1999/xlink" contentScriptType="application/ecmascript" contentStyleType="text/css" height="145px" preserveAspectRatio="none" style="width:210px;height:145px;background:#FFFFFF;" version="1.1" viewBox="0 0 210 145" width="210px" zoomAndPan="magnify"><defs><filter height="300%" id="f7ijlx4mdmlli" width="300%" x="-1" y="-1"><feGaussianBlur result="blurOut" stdDeviation="2.0"/><feColorMatrix in="blurOut" result="blurOut2" type="matrix" values="0 0 0 0 0 0 0 0 0 0 0 0 0 0 0 0 0 0 .4 0"/><feOffset dx="4.0" dy="4.0" in="blurOut2" result="blurOut3"/><feBlend in="SourceGraphic" in2="blurOut3" mode="normal"/></filter></defs><g><!--MD5=[2ce0c9fb7f55b1e256ab28a8ea6b25ec]
class Customer--><rect codeLine="2" fill="#FEFECE" filter="url(#f7ijlx4mdmlli)" height="32" id="Customer" style="stroke:#A80036;stroke-width:1.5;" width="82" x="7" y="7"/><ellipse cx="22" cy="23" fill="#ADD1B2" rx="11" ry="11" style="stroke:#A80036;stroke-width:1.0;"/><path d="M21.3594,26.7813 Q22.1563,26.7813 22.7188,26.5938 Q23.2969,26.3906 23.5313,26.1719 Q23.7813,25.9375 24.0156,25.75 Q24.2656,25.5469 24.4844,25.5469 Q24.8281,25.5469 25.0781,25.8125 Q25.3438,26.0625 25.3438,26.3906 Q25.3438,27.125 24.1719,27.8125 Q23.0156,28.4844 21.3125,28.4844 Q19.1563,28.4844 17.7344,27.2188 Q16.3125,25.9531 16.3125,24.0156 L16.3125,22.8906 Q16.3125,20.8594 17.6406,19.4844 Q18.9688,18.0938 20.9375,18.0938 Q22.125,18.0938 23.3438,18.6719 L23.5156,18.75 Q23.8125,18.3438 24.2344,18.3438 Q24.7188,18.3438 24.8906,18.6406 Q25.0781,18.9219 25.0781,19.4688 L25.0781,20.8906 Q25.0781,22.0156 24.2344,22.0156 Q23.9219,22.0156 23.7188,21.8438 Q23.5313,21.6719 23.4844,21.5313 Q23.4531,21.375 23.4063,21.1094 Q23.2969,20.5938 22.7813,20.2813 Q22.2656,19.9688 21.8125,19.8906 Q21.375,19.7969 21,19.7969 Q19.7188,19.7969 18.8594,20.6719 Q18.0156,21.5469 18.0156,22.8906 L18.0156,23.9844 Q18.0156,25.2656 18.9219,26.0313 Q19.8281,26.7813 21.3594,26.7813 Z " fill="#000000"/><text fill="#000000" font-family="sans-serif" font-size="12" lengthAdjust="spacing" textLength="50" x="36" y="27.8">Customer</text><!--MD5=[cf4d6237fcae255cd2e1656cf84a30e2]
class Order--><rect codeLine="3" fill="#FEFECE" filter="url(#f7ijlx4mdmlli)" height="32" id="Order" style="stroke:#A80036;stroke-width:1.5;" width="62" x="17" y="99"/><ellipse cx="32" cy="115" fill="#ADD1B2" rx="11" ry="11" style="stroke:#A80036;stroke-width:1.0;"/><path d="M31.3594,118.7813 Q32.1563,118.7813 32.7188,118.5938 Q33.2969,118.3906 33.5313,118.1719 Q33.7813,117.9375 34.0156,117.75 Q34.2656,117.5469 34.4844,117.5469 Q34.8281,117.5469 35.0781,117.8125 Q35.3438,118.0625 35.3438,118.3906 Q35.3438,119.125 34.1719,119.8125 Q33.0156,120.4844 31.3125,120.4844 Q29.1563,120.4844 27.7344,119.2188 Q26.3125,117.9531 26.3125,116.0156 L26.3125,114.8906 Q26.3125,112.8594 27.6406,111.4844 Q28.9688,110.0938 30.9375,110.0938 Q32.125,110.0938 33.3438,110.6719 L33.5156,110.75 Q33.8125,110.3438 34.2344,110.3438 Q34.7188,110.3438 34.8906,110.6406 Q35.0781,110.9219 35.0781,111.4688 L35.0781,112.8906 Q35.0781,114.0156 34.2344,114.0156 Q33.9219,114.0156 33.7188,113.8438 Q33.5313,113.6719 33.4844,113.5313 Q33.4531,113.375 33.4063,113.1094 Q33.2969,112.5938 32.7813,112.2813 Q32.2656,111.9688 31.8125,111.8906 Q31.375,111.7969 31,111.7969 Q29.7188,111.7969 28.8594,112.6719 Q28.0156,113.5469 28.0156,114.8906 L28.0156,115.9844 Q28.0156,117.2656 28.9219,118.0313 Q29.8281,118.7813 31.3594,118.7813 Z " fill="#000000"/><text fill="#000000" font-family="sans-serif" font-size="12" lengthAdjust="spacing" textLength="30" x="46" y="119.8">Order</text><!--MD5=[72136138052d025cffdce3c22fbd185f]
class Product--><rect codeLine="4" fill="#FEFECE" filter="url(#f7ijlx4mdmlli)" height="32" id="Product" style="stroke:#A80036;stroke-width:1.5;" width="72" x="124" y="7"/><ellipse cx="139" cy="23" fill="#ADD1B2" rx="11" ry="11" style="stroke:#A80036;stroke-width:1.0;"/><path d="M138.3594,26.7813 Q139.1563,26.7813 139.7188,26.5938 Q140.2969,26.3906 140.5313,26.1719 Q140.7813,25.9375 141.0156,25.75 Q141.2656,25.5469 141.4844,25.5469 Q141.8281,25.5469 142.0781,25.8125 Q142.3438,26.0625 142.3438,26.3906 Q142.3438,27.125 141.1719,27.8125 Q140.0156,28.4844 138.3125,28.4844 Q136.1563,28.4844 134.7344,27.2188 Q133.3125,25.9531 133.3125,24.0156 L133.3125,22.8906 Q133.3125,20.8594 134.6406,19.4844 Q135.9688,18.0938 137.9375,18.0938 Q139.125,18.0938 140.3438,18.6719 L140.5156,18.75 Q140.8125,18.3438 141.2344,18.3438 Q141.7188,18.3438 141.8906,18.6406 Q142.0781,18.9219 142.0781,19.4688 L142.0781,20.8906 Q142.0781,22.0156 141.2344,22.0156 Q140.9219,22.0156 140.7188,21.8438 Q140.5313,21.6719 140.4844,21.5313 Q140.4531,21.375 140.4063,21.1094 Q140.2969,20.5938 139.7813,20.2813 Q139.2656,19.9688 138.8125,19.8906 Q138.375,19.7969 138,19.7969 Q136.7188,19.7969 135.8594,20.6719 Q135.0156,21.5469 135.0156,22.8906 L135.0156,23.9844 Q135.0156,25.2656 135.9219,26.0313 Q136.8281,26.7813 138.3594,26.7813 Z " fill="#000000"/><text fill="#000000" font-family="sans-serif" font-size="12" lengthAdjust="spacing" textLength="40" x="153" y="27.8">Product</text><!--MD5=[135794f54b59c9e5883929d048383f81]
link Customer to Order--><path codeLine="6" d="M48,44.62 C48,59.38 48,79.15 48,93.81 " fill="none" id="Customer-Order" style="stroke:#A80036;stroke-width:1.0;"/><polygon fill="#A80036" points="48,98.96,52,89.96,48,93.96,44,89.96,48,98.96" style="stroke:#A80036;stroke-width:1.0;"/><polygon fill="#A80036" points="48,39.27,44,48.27,48,44.27,52,48.27,48,39.27" style="stroke:#A80036;stroke-width:1.0;"/><text fill="#000000" font-family="sans-serif" font-size="13" lengthAdjust="spacing" textLength="18" x="26.6813" y="88.3903">0..*</text><!--MD5=[6e489335d8a0a0176bf12d16fb839ddd]
link Product to Order--><path codeLine="7" d="M137.24,42.29 C117.95,57.79 90.42,79.91 71.05,95.47 " fill="none" id="Product-Order" style="stroke:#A80036;stroke-width:1.0;"/><polygon fill="#A80036" points="66.81,98.89,76.3332,96.3785,70.7102,95.7613,71.3273,90.1382,66.81,98.89" style="stroke:#A80036;stroke-width:1.0;"/><polygon fill="#A80036" points="141.25,39.06,131.7268,41.5715,137.3498,42.1887,136.7327,47.8118,141.25,39.06" style="stroke:#A80036;stroke-width:1.0;"/><text fill="#000000" font-family="sans-serif" font-size="13" lengthAdjust="spacing" textLength="18" x="52.4274" y="88.2945">0..*</text><!--MD5=[cd6474545351f26fab77f770103a66d7]
@startuml
hide empty members
class Customer {}
class Order {}
class Product {}

Customer <-d-> "0..*" Order
Product <-d[norank]-> "0..*" Order
@enduml

PlantUML version 1.2021.8(Sat Jun 26 08:20:59 GMT 2021)
(GPL source distribution)
Java Runtime: OpenJDK Runtime Environment
JVM: OpenJDK 64-Bit Server VM
Default Encoding: UTF-8
Language: en
Country: US
--></g></svg>