<?xml version="1.0" encoding="us-ascii" standalone="no"?><svg xmlns="http://www.w3.org/2000/svg" xmlns:xlink="http://www.w3.org/1999/xlink" contentStyleType="text/css" height="138px" preserveAspectRatio="none" style="width:235px;height:138px;background:#FFFFFF;" version="1.1" viewBox="0 0 235 138" width="235px" zoomAndPan="magnify"><defs/><g><!--class Customer--><g id="elem_Customer"><rect codeLine="2" fill="#F1F1F1" height="32" id="Customer" rx="2.5" ry="2.5" style="stroke:#181818;stroke-width:0.5;" width="100" x="7" y="7"/><ellipse cx="22" cy="23" fill="#ADD1B2" rx="11" ry="11" style="stroke:#181818;stroke-width:1.0;"/><path d="M24.9688,28.6406 Q24.3906,28.9375 23.75,29.0781 Q23.1094,29.2344 22.4063,29.2344 Q19.9063,29.2344 18.5781,27.5938 Q17.2656,25.9375 17.2656,22.8125 Q17.2656,19.6875 18.5781,18.0313 Q19.9063,16.375 22.4063,16.375 Q23.1094,16.375 23.75,16.5313 Q24.4063,16.6875 24.9688,16.9844 L24.9688,19.7031 Q24.3438,19.125 23.75,18.8594 Q23.1563,18.5781 22.5313,18.5781 Q21.1875,18.5781 20.5,19.6563 Q19.8125,20.7188 19.8125,22.8125 Q19.8125,24.9063 20.5,25.9844 Q21.1875,27.0469 22.5313,27.0469 Q23.1563,27.0469 23.75,26.7813 Q24.3438,26.5 24.9688,25.9219 L24.9688,28.6406 Z " fill="#000000"/><text fill="#000000" font-family="sans-serif" font-size="14" lengthAdjust="spacing" textLength="68" x="36" y="27.8467">Customer</text></g><!--class Order--><g id="elem_Order"><rect codeLine="3" fill="#F1F1F1" height="32" id="Order" rx="2.5" ry="2.5" style="stroke:#181818;stroke-width:0.5;" width="71" x="21.5" y="99"/><ellipse cx="36.5" cy="115" fill="#ADD1B2" rx="11" ry="11" style="stroke:#181818;stroke-width:1.0;"/><path d="M39.4688,120.6406 Q38.8906,120.9375 38.25,121.0781 Q37.6094,121.2344 36.9063,121.2344 Q34.4063,121.2344 33.0781,119.5938 Q31.7656,117.9375 31.7656,114.8125 Q31.7656,111.6875 33.0781,110.0313 Q34.4063,108.375 36.9063,108.375 Q37.6094,108.375 38.25,108.5313 Q38.9063,108.6875 39.4688,108.9844 L39.4688,111.7031 Q38.8438,111.125 38.25,110.8594 Q37.6563,110.5781 37.0313,110.5781 Q35.6875,110.5781 35,111.6563 Q34.3125,112.7188 34.3125,114.8125 Q34.3125,116.9063 35,117.9844 Q35.6875,119.0469 37.0313,119.0469 Q37.6563,119.0469 38.25,118.7813 Q38.8438,118.5 39.4688,117.9219 L39.4688,120.6406 Z " fill="#000000"/><text fill="#000000" font-family="sans-serif" font-size="14" lengthAdjust="spacing" textLength="39" x="50.5" y="119.8467">Order</text></g><!--class Product--><g id="elem_Product"><rect codeLine="4" fill="#F1F1F1" height="32" id="Product" rx="2.5" ry="2.5" style="stroke:#181818;stroke-width:0.5;" width="86" x="142" y="7"/><ellipse cx="157" cy="23" fill="#ADD1B2" rx="11" ry="11" style="stroke:#181818;stroke-width:1.0;"/><path d="M159.9688,28.6406 Q159.3906,28.9375 158.75,29.0781 Q158.1094,29.2344 157.4063,29.2344 Q154.9063,29.2344 153.5781,27.5938 Q152.2656,25.9375 152.2656,22.8125 Q152.2656,19.6875 153.5781,18.0313 Q154.9063,16.375 157.4063,16.375 Q158.1094,16.375 158.75,16.5313 Q159.4063,16.6875 159.9688,16.9844 L159.9688,19.7031 Q159.3438,19.125 158.75,18.8594 Q158.1563,18.5781 157.5313,18.5781 Q156.1875,18.5781 155.5,19.6563 Q154.8125,20.7188 154.8125,22.8125 Q154.8125,24.9063 155.5,25.9844 Q156.1875,27.0469 157.5313,27.0469 Q158.1563,27.0469 158.75,26.7813 Q159.3438,26.5 159.9688,25.9219 L159.9688,28.6406 Z " fill="#000000"/><text fill="#000000" font-family="sans-serif" font-size="14" lengthAdjust="spacing" textLength="54" x="171" y="27.8467">Product</text></g><!--link Customer to Order--><g id="link_Customer_Order"><path codeLine="6" d="M57,45.27 C57,61.82 57,76.08 57,92.66 " fill="none" id="Customer-Order" style="stroke:#181818;stroke-width:1.0;"/><polygon fill="#181818" points="57,39.27,53,48.27,57,44.27,61,48.27,57,39.27" style="stroke:#181818;stroke-width:1.0;"/><polygon fill="#181818" points="57,98.66,61,89.66,57,93.66,53,89.66,57,98.66" style="stroke:#181818;stroke-width:1.0;"/><text fill="#000000" font-family="sans-serif" font-size="13" lengthAdjust="spacing" textLength="23" x="30.1906" y="87.8519">0..*</text></g><!--link Product to Order--><g id="link_Product_Order"><path codeLine="7" d="M158.0921,42.9215 C134.5021,59.5115 107.0974,78.7679 83.6274,95.2779 " fill="none" id="Product-Order" style="stroke:#181818;stroke-width:1.0;"/><polygon fill="#181818" points="163,39.47,153.3372,41.3754,158.9101,42.3463,157.9392,47.9192,163,39.47" style="stroke:#181818;stroke-width:1.0;"/><polygon fill="#181818" points="78.72,98.73,88.3826,96.8234,82.8095,95.8532,83.7797,90.2802,78.72,98.73" style="stroke:#181818;stroke-width:1.0;"/><text fill="#000000" font-family="sans-serif" font-size="13" lengthAdjust="spacing" textLength="23" x="89.7241" y="87.9451">0..*</text></g><!--SRC=[oyXCILL8pIqegLJ8JSrDIYqgvahEIImkLd0kBIx9pqqjKgYkXOhu5wKWSmEAybDAaqj00bnmnJQwARfs2ae6UdfQIX0DN31rGAdelFoYnBpiM3Gb0000]--></g></svg>