<?xml version="1.0" encoding="UTF-8" standalone="no"?><svg xmlns="http://www.w3.org/2000/svg" xmlns:xlink="http://www.w3.org/1999/xlink" contentStyleType="text/css" height="138px" preserveAspectRatio="none" style="width:220px;height:138px;background:#FFFFFF;" version="1.1" viewBox="0 0 220 138" width="220px" zoomAndPan="magnify"><defs/><g><!--MD5=[2ce0c9fb7f55b1e256ab28a8ea6b25ec]
class Customer--><g id="elem_Customer"><rect codeLine="2" fill="#F1F1F1" height="32" id="Customer" rx="2.5" ry="2.5" style="stroke:#181818;stroke-width:0.5;" width="91" x="7" y="7"/><ellipse cx="22" cy="23" fill="#ADD1B2" rx="11" ry="11" style="stroke:#181818;stroke-width:1.0;"/><path d="M21.3594,26.7813 Q22.1563,26.7813 22.7188,26.5938 Q23.2969,26.3906 23.5313,26.1719 Q23.7813,25.9375 24.0156,25.75 Q24.2656,25.5469 24.4844,25.5469 Q24.8281,25.5469 25.0781,25.8125 Q25.3438,26.0625 25.3438,26.3906 Q25.3438,27.125 24.1719,27.8125 Q23.0156,28.4844 21.3125,28.4844 Q19.1563,28.4844 17.7344,27.2188 Q16.3125,25.9531 16.3125,24.0156 L16.3125,22.8906 Q16.3125,20.8594 17.6406,19.4844 Q18.9688,18.0938 20.9375,18.0938 Q22.125,18.0938 23.3438,18.6719 L23.5156,18.75 Q23.8125,18.3438 24.2344,18.3438 Q24.7188,18.3438 24.8906,18.6406 Q25.0781,18.9219 25.0781,19.4688 L25.0781,20.8906 Q25.0781,22.0156 24.2344,22.0156 Q23.9219,22.0156 23.7188,21.8438 Q23.5313,21.6719 23.4844,21.5313 Q23.4531,21.375 23.4063,21.1094 Q23.2969,20.5938 22.7813,20.2813 Q22.2656,19.9688 21.8125,19.8906 Q21.375,19.7969 21,19.7969 Q19.7188,19.7969 18.8594,20.6719 Q18.0156,21.5469 18.0156,22.8906 L18.0156,23.9844 Q18.0156,25.2656 18.9219,26.0313 Q19.8281,26.7813 21.3594,26.7813 Z " fill="#000000"/><text fill="#000000" font-family="sans-serif" font-size="14" lengthAdjust="spacing" textLength="59" x="36" y="28.6">Customer</text></g><!--MD5=[cf4d6237fcae255cd2e1656cf84a30e2]
class Order--><g id="elem_Order"><rect codeLine="3" fill="#F1F1F1" height="32" id="Order" rx="2.5" ry="2.5" style="stroke:#181818;stroke-width:0.5;" width="68" x="18.5" y="99"/><ellipse cx="33.5" cy="115" fill="#ADD1B2" rx="11" ry="11" style="stroke:#181818;stroke-width:1.0;"/><path d="M32.8594,118.7813 Q33.6563,118.7813 34.2188,118.5938 Q34.7969,118.3906 35.0313,118.1719 Q35.2813,117.9375 35.5156,117.75 Q35.7656,117.5469 35.9844,117.5469 Q36.3281,117.5469 36.5781,117.8125 Q36.8438,118.0625 36.8438,118.3906 Q36.8438,119.125 35.6719,119.8125 Q34.5156,120.4844 32.8125,120.4844 Q30.6563,120.4844 29.2344,119.2188 Q27.8125,117.9531 27.8125,116.0156 L27.8125,114.8906 Q27.8125,112.8594 29.1406,111.4844 Q30.4688,110.0938 32.4375,110.0938 Q33.625,110.0938 34.8438,110.6719 L35.0156,110.75 Q35.3125,110.3438 35.7344,110.3438 Q36.2188,110.3438 36.3906,110.6406 Q36.5781,110.9219 36.5781,111.4688 L36.5781,112.8906 Q36.5781,114.0156 35.7344,114.0156 Q35.4219,114.0156 35.2188,113.8438 Q35.0313,113.6719 34.9844,113.5313 Q34.9531,113.375 34.9063,113.1094 Q34.7969,112.5938 34.2813,112.2813 Q33.7656,111.9688 33.3125,111.8906 Q32.875,111.7969 32.5,111.7969 Q31.2188,111.7969 30.3594,112.6719 Q29.5156,113.5469 29.5156,114.8906 L29.5156,115.9844 Q29.5156,117.2656 30.4219,118.0313 Q31.3281,118.7813 32.8594,118.7813 Z " fill="#000000"/><text fill="#000000" font-family="sans-serif" font-size="14" lengthAdjust="spacing" textLength="36" x="47.5" y="120.6">Order</text></g><!--MD5=[72136138052d025cffdce3c22fbd185f]
class Product--><g id="elem_Product"><rect codeLine="4" fill="#F1F1F1" height="32" id="Product" rx="2.5" ry="2.5" style="stroke:#181818;stroke-width:0.5;" width="80" x="133.5" y="7"/><ellipse cx="148.5" cy="23" fill="#ADD1B2" rx="11" ry="11" style="stroke:#181818;stroke-width:1.0;"/><path d="M147.8594,26.7813 Q148.6563,26.7813 149.2188,26.5938 Q149.7969,26.3906 150.0313,26.1719 Q150.2813,25.9375 150.5156,25.75 Q150.7656,25.5469 150.9844,25.5469 Q151.3281,25.5469 151.5781,25.8125 Q151.8438,26.0625 151.8438,26.3906 Q151.8438,27.125 150.6719,27.8125 Q149.5156,28.4844 147.8125,28.4844 Q145.6563,28.4844 144.2344,27.2188 Q142.8125,25.9531 142.8125,24.0156 L142.8125,22.8906 Q142.8125,20.8594 144.1406,19.4844 Q145.4688,18.0938 147.4375,18.0938 Q148.625,18.0938 149.8438,18.6719 L150.0156,18.75 Q150.3125,18.3438 150.7344,18.3438 Q151.2188,18.3438 151.3906,18.6406 Q151.5781,18.9219 151.5781,19.4688 L151.5781,20.8906 Q151.5781,22.0156 150.7344,22.0156 Q150.4219,22.0156 150.2188,21.8438 Q150.0313,21.6719 149.9844,21.5313 Q149.9531,21.375 149.9063,21.1094 Q149.7969,20.5938 149.2813,20.2813 Q148.7656,19.9688 148.3125,19.8906 Q147.875,19.7969 147.5,19.7969 Q146.2188,19.7969 145.3594,20.6719 Q144.5156,21.5469 144.5156,22.8906 L144.5156,23.9844 Q144.5156,25.2656 145.4219,26.0313 Q146.3281,26.7813 147.8594,26.7813 Z " fill="#000000"/><text fill="#000000" font-family="sans-serif" font-size="14" lengthAdjust="spacing" textLength="48" x="162.5" y="28.6">Product</text></g><!--MD5=[135794f54b59c9e5883929d048383f81]
link Customer to Order--><g id="link_Customer_Order"><path codeLine="6" d="M52.5,44.62 C52.5,59.38 52.5,79.15 52.5,93.81 " fill="none" id="Customer-Order" style="stroke:#181818;stroke-width:1.0;"/><polygon fill="#181818" points="52.5,98.96,56.5,89.96,52.5,93.96,48.5,89.96,52.5,98.96" style="stroke:#181818;stroke-width:1.0;"/><polygon fill="#181818" points="52.5,39.27,48.5,48.27,52.5,44.27,56.5,48.27,52.5,39.27" style="stroke:#181818;stroke-width:1.0;"/><text fill="#000000" font-family="sans-serif" font-size="13" lengthAdjust="spacing" textLength="18" x="31.1813" y="88.3903">0..*</text></g><!--MD5=[6e489335d8a0a0176bf12d16fb839ddd]
link Product to Order--><g id="link_Product_Order"><path codeLine="7" d="M149.19,42.08 C128.17,57.72 97.94,80.2 76.9,95.85 " fill="none" id="Product-Order" style="stroke:#181818;stroke-width:1.0;"/><polygon fill="#181818" points="72.82,98.89,82.4287,96.7284,76.832,95.906,77.6543,90.3093,72.82,98.89" style="stroke:#181818;stroke-width:1.0;"/><polygon fill="#181818" points="153.25,39.06,143.6413,41.2216,149.238,42.044,148.4157,47.6407,153.25,39.06" style="stroke:#181818;stroke-width:1.0;"/><text fill="#000000" font-family="sans-serif" font-size="13" lengthAdjust="spacing" textLength="18" x="58.9943" y="88.2945">0..*</text></g><!--MD5=[1d1bac39fb8ddc025ed093a238d14072]
@startuml
hide empty members
class Customer {}
class Order {}
class Product {}

Customer <-d-> "0..*" Order
Product <-d[norank]-> "0..*" Order
@enduml

PlantUML version 1.2022.5(Sat Apr 30 10:55:52 GMT 2022)
(GPL source distribution)
Java Runtime: OpenJDK Runtime Environment
JVM: OpenJDK 64-Bit Server VM
Default Encoding: UTF-8
Language: en
Country: US
--></g></svg>