<svg xmlns="http://www.w3.org/2000/svg" xmlns:xlink="http://www.w3.org/1999/xlink" contentStyleType="text/css" data-diagram-type="CLASS" height="138px" preserveAspectRatio="none" style="width:234px;height:138px;background:#FFFFFF;" version="1.1" viewBox="0 0 234 138" width="234px" zoomAndPan="magnify"><defs/><g><!--class Customer--><g class="entity" data-entity="Customer" data-source-line="2" data-uid="ent0002" id="entity_Customer"><rect fill="#F1F1F1" height="32" rx="2.5" ry="2.5" style="stroke:#181818;stroke-width:0.5;" width="100.0039" x="7" y="7"/><ellipse cx="22" cy="23" fill="#ADD1B2" rx="11" ry="11" style="stroke:#181818;stroke-width:1;"/><path d="M24.9688,28.6406 Q24.3906,28.9375 23.75,29.0781 Q23.1094,29.2344 22.4063,29.2344 Q19.9063,29.2344 18.5781,27.5938 Q17.2656,25.9375 17.2656,22.8125 Q17.2656,19.6875 18.5781,18.0313 Q19.9063,16.375 22.4063,16.375 Q23.1094,16.375 23.75,16.5313 Q24.4063,16.6875 24.9688,16.9844 L24.9688,19.7031 Q24.3438,19.125 23.75,18.8594 Q23.1563,18.5781 22.5313,18.5781 Q21.1875,18.5781 20.5,19.6563 Q19.8125,20.7188 19.8125,22.8125 Q19.8125,24.9063 20.5,25.9844 Q21.1875,27.0469 22.5313,27.0469 Q23.1563,27.0469 23.75,26.7813 Q24.3438,26.5 24.9688,25.9219 L24.9688,28.6406 Z " fill="#000000"/><text fill="#000000" font-family="sans-serif" font-size="14" lengthAdjust="spacing" textLength="68.0039" x="36" y="27.8467">Customer</text></g><!--class Order--><g class="entity" data-entity="Order" data-source-line="3" data-uid="ent0003" id="entity_Order"><rect fill="#F1F1F1" height="32" rx="2.5" ry="2.5" style="stroke:#181818;stroke-width:0.5;" width="72.0313" x="20.99" y="99"/><ellipse cx="35.99" cy="115" fill="#ADD1B2" rx="11" ry="11" style="stroke:#181818;stroke-width:1;"/><path d="M38.9588,120.6406 Q38.3806,120.9375 37.74,121.0781 Q37.0994,121.2344 36.3963,121.2344 Q33.8963,121.2344 32.5681,119.5938 Q31.2556,117.9375 31.2556,114.8125 Q31.2556,111.6875 32.5681,110.0313 Q33.8963,108.375 36.3963,108.375 Q37.0994,108.375 37.74,108.5313 Q38.3963,108.6875 38.9588,108.9844 L38.9588,111.7031 Q38.3338,111.125 37.74,110.8594 Q37.1463,110.5781 36.5213,110.5781 Q35.1775,110.5781 34.49,111.6563 Q33.8025,112.7188 33.8025,114.8125 Q33.8025,116.9063 34.49,117.9844 Q35.1775,119.0469 36.5213,119.0469 Q37.1463,119.0469 37.74,118.7813 Q38.3338,118.5 38.9588,117.9219 L38.9588,120.6406 Z " fill="#000000"/><text fill="#000000" font-family="sans-serif" font-size="14" lengthAdjust="spacing" textLength="40.0313" x="49.99" y="119.8467">Order</text></g><!--class Product--><g class="entity" data-entity="Product" data-source-line="4" data-uid="ent0004" id="entity_Product"><rect fill="#F1F1F1" height="32" rx="2.5" ry="2.5" style="stroke:#181818;stroke-width:0.5;" width="85.71" x="142.15" y="7"/><ellipse cx="157.15" cy="23" fill="#ADD1B2" rx="11" ry="11" style="stroke:#181818;stroke-width:1;"/><path d="M160.1188,28.6406 Q159.5406,28.9375 158.9,29.0781 Q158.2594,29.2344 157.5563,29.2344 Q155.0563,29.2344 153.7281,27.5938 Q152.4156,25.9375 152.4156,22.8125 Q152.4156,19.6875 153.7281,18.0313 Q155.0563,16.375 157.5563,16.375 Q158.2594,16.375 158.9,16.5313 Q159.5563,16.6875 160.1188,16.9844 L160.1188,19.7031 Q159.4938,19.125 158.9,18.8594 Q158.3063,18.5781 157.6813,18.5781 Q156.3375,18.5781 155.65,19.6563 Q154.9625,20.7188 154.9625,22.8125 Q154.9625,24.9063 155.65,25.9844 Q156.3375,27.0469 157.6813,27.0469 Q158.3063,27.0469 158.9,26.7813 Q159.4938,26.5 160.1188,25.9219 L160.1188,28.6406 Z " fill="#000000"/><text fill="#000000" font-family="sans-serif" font-size="14" lengthAdjust="spacing" textLength="53.71" x="171.15" y="27.8467">Product</text></g><!--link Customer to Order--><g class="link" data-entity-1="Customer" data-entity-2="Order" data-source-line="6" data-uid="lnk5" id="link_Customer_Order"><path codeLine="6" d="M57,45.27 C57,61.82 57,76.08 57,92.66" fill="none" id="Customer-Order" style="stroke:#181818;stroke-width:1;"/><polygon fill="#181818" points="57,39.27,53,48.27,57,44.27,61,48.27,57,39.27" style="stroke:#181818;stroke-width:1;"/><polygon fill="#181818" points="57,98.66,61,89.66,57,93.66,53,89.66,57,98.66" style="stroke:#181818;stroke-width:1;"/><text fill="#000000" font-family="sans-serif" font-size="13" lengthAdjust="spacing" textLength="23.0356" x="30.1947" y="87.8519">0..*</text></g><!--link Product to Order--><g class="link" data-entity-1="Product" data-entity-2="Order" data-source-line="7" data-uid="lnk6" id="link_Product_Order"><path codeLine="7" d="M158.0921,42.9215 C134.5021,59.5115 107.1081,78.7689 83.6281,95.2789" fill="none" id="Product-Order" style="stroke:#181818;stroke-width:1;"/><polygon fill="#181818" points="163,39.47,153.3372,41.3754,158.9101,42.3463,157.9392,47.9192,163,39.47" style="stroke:#181818;stroke-width:1;"/><polygon fill="#181818" points="78.72,98.73,88.3829,96.8254,82.8101,95.854,83.7814,90.2812,78.72,98.73" style="stroke:#181818;stroke-width:1;"/><text fill="#000000" font-family="sans-serif" font-size="13" lengthAdjust="spacing" textLength="23.0356" x="89.7282" y="87.9451">0..*</text></g><!--SRC=[oyXCILL8pIqegLJ8JSrDIYqgvahEIImkLd0kBIx9pqqjKgYkXOhu5wKWSmEAybDAaqj00bnmnJQwARfs2ae6UdfQIX0DN31rGAdelFoYnBpiM3Gb0000]--></g></svg>