<?xml version="1.0" encoding="UTF-8" standalone="no"?><svg xmlns="http://www.w3.org/2000/svg" xmlns:xlink="http://www.w3.org/1999/xlink" contentScriptType="application/ecmascript" contentStyleType="text/css" height="57px" preserveAspectRatio="none" style="width:345px;height:57px;" version="1.1" viewBox="0 0 345 57" width="345px" zoomAndPan="magnify"><defs><filter height="300%" id="f1kwq0jmnpvosg" width="300%" x="-1" y="-1"><feGaussianBlur result="blurOut" stdDeviation="2.0"/><feColorMatrix in="blurOut" result="blurOut2" type="matrix" values="0 0 0 0 0 0 0 0 0 0 0 0 0 0 0 0 0 0 .4 0"/><feOffset dx="4.0" dy="4.0" in="blurOut2" result="blurOut3"/><feBlend in="SourceGraphic" in2="blurOut3" mode="normal"/></filter></defs><g><!--MD5=[7a74536e74c0348ee9b5d107614986e9]
class Party--><rect codeLine="3" fill="#FEFECE" filter="url(#f1kwq0jmnpvosg)" height="32" id="Party" style="stroke:#A80036;stroke-width:1.5;" width="58" x="7" y="11.1842"/><ellipse cx="22" cy="27.1842" fill="#ADD1B2" rx="11" ry="11" style="stroke:#A80036;stroke-width:1.0;"/><path d="M17.9375,27.3248 Q17.9375,23.8717 19.0313,22.2467 Q20.1406,20.6061 22.3594,20.6061 Q23.5625,20.6061 24.8281,21.2623 L24.8281,23.3092 Q23.375,22.5279 22.4375,22.5279 Q19.9844,22.5279 19.9844,27.3248 Q19.9844,30.0279 20.6094,31.0904 Q21.25,32.1373 22.4375,32.1373 Q23.4063,32.1373 24.9063,31.2154 L24.9063,33.4186 Q23.6406,34.0436 22.3594,34.0436 Q20.0938,34.0436 19.0156,32.4654 Q17.9375,30.8873 17.9375,27.3248 Z " fill="#000000"/><text fill="#000000" font-family="sans-serif" font-size="12" lengthAdjust="spacing" textLength="26" x="36" y="31.7193">Party</text><!--MD5=[faf5f45784ac6a63bd504b609d3a313d]
class AgreementRole--><rect codeLine="4" fill="#FEFECE" filter="url(#f1kwq0jmnpvosg)" height="32" id="AgreementRole" style="stroke:#A80036;stroke-width:1.5;" width="109" x="100.5" y="11.1842"/><ellipse cx="115.5" cy="27.1842" fill="#ADD1B2" rx="11" ry="11" style="stroke:#A80036;stroke-width:1.0;"/><path d="M111.4375,27.3248 Q111.4375,23.8717 112.5313,22.2467 Q113.6406,20.6061 115.8594,20.6061 Q117.0625,20.6061 118.3281,21.2623 L118.3281,23.3092 Q116.875,22.5279 115.9375,22.5279 Q113.4844,22.5279 113.4844,27.3248 Q113.4844,30.0279 114.1094,31.0904 Q114.75,32.1373 115.9375,32.1373 Q116.9063,32.1373 118.4063,31.2154 L118.4063,33.4186 Q117.1406,34.0436 115.8594,34.0436 Q113.5938,34.0436 112.5156,32.4654 Q111.4375,30.8873 111.4375,27.3248 Z " fill="#000000"/><text fill="#000000" font-family="sans-serif" font-size="12" lengthAdjust="spacing" textLength="77" x="129.5" y="31.7193">AgreementRole</text><!--MD5=[758cfb5a0a70ee9b6e31bb519890fa2a]
class Agreement--><rect codeLine="5" fill="#FEFECE" filter="url(#f1kwq0jmnpvosg)" height="32" id="Agreement" style="stroke:#A80036;stroke-width:1.5;" width="87" x="244.5" y="11.1842"/><ellipse cx="259.5" cy="27.1842" fill="#ADD1B2" rx="11" ry="11" style="stroke:#A80036;stroke-width:1.0;"/><path d="M255.4375,27.3248 Q255.4375,23.8717 256.5313,22.2467 Q257.6406,20.6061 259.8594,20.6061 Q261.0625,20.6061 262.3281,21.2623 L262.3281,23.3092 Q260.875,22.5279 259.9375,22.5279 Q257.4844,22.5279 257.4844,27.3248 Q257.4844,30.0279 258.1094,31.0904 Q258.75,32.1373 259.9375,32.1373 Q260.9063,32.1373 262.4063,31.2154 L262.4063,33.4186 Q261.1406,34.0436 259.8594,34.0436 Q257.5938,34.0436 256.5156,32.4654 Q255.4375,30.8873 255.4375,27.3248 Z " fill="#000000"/><text fill="#000000" font-family="sans-serif" font-size="12" lengthAdjust="spacing" textLength="55" x="273.5" y="31.7193">Agreement</text><!--MD5=[1507aa0b1ee2d41004cd16f66b5e5b5c]
link Party to AgreementRole--><path codeLine="7" d="M70.49,27.1842 C78.73,27.1842 86.96,27.1842 95.2,27.1842 " fill="none" id="Party-AgreementRole" style="stroke:#A80036;stroke-width:1.0;"/><polygon fill="#A80036" points="100.33,27.1842,91.33,23.1842,95.33,27.1842,91.33,31.1842,100.33,27.1842" style="stroke:#A80036;stroke-width:1.0;"/><polygon fill="#A80036" points="65.29,27.1842,74.29,31.1842,70.29,27.1842,74.29,23.1842,65.29,27.1842" style="stroke:#A80036;stroke-width:1.0;"/><text fill="#000000" font-family="sans-serif" font-size="13" lengthAdjust="spacing" textLength="20" x="72.4483" y="22.867">0.*</text><!--MD5=[a51f9f23a342daff9c7a779e110ce52f]
link AgreementRole to Agreement--><path codeLine="8" d="M214.74,27.1842 C222.95,27.1842 231.16,27.1842 239.37,27.1842 " fill="none" id="AgreementRole-Agreement" style="stroke:#A80036;stroke-width:1.0;"/><polygon fill="#A80036" points="244.49,27.1842,235.49,23.1842,239.49,27.1842,235.49,31.1842,244.49,27.1842" style="stroke:#A80036;stroke-width:1.0;"/><polygon fill="#A80036" points="209.55,27.1842,218.55,31.1842,214.55,27.1842,218.55,23.1842,209.55,27.1842" style="stroke:#A80036;stroke-width:1.0;"/><text fill="#000000" font-family="sans-serif" font-size="13" lengthAdjust="spacing" textLength="24" x="212.4649" y="22.0449">0..*</text><!--MD5=[51f659a3c3e9efbba929321ef2fed5b7]
@startuml
hide empty members

class Party
class AgreementRole
class Agreement

Party <-r-> "0.*" AgreementRole
AgreementRole "0..*" <-r-> Agreement
@enduml

PlantUML version 1.2021.01(Tue Feb 02 07:55:08 GMT 2021)
(GPL source distribution)
Java Runtime: OpenJDK Runtime Environment
JVM: OpenJDK 64-Bit Server VM
Default Encoding: UTF-8
Language: en
Country: US
--></g></svg>