<?xml version="1.0" encoding="UTF-8" standalone="no"?><svg xmlns="http://www.w3.org/2000/svg" xmlns:xlink="http://www.w3.org/1999/xlink" contentScriptType="application/ecmascript" contentStyleType="text/css" height="381px" preserveAspectRatio="none" style="width:802px;height:381px;" version="1.1" viewBox="0 0 802 381" width="802px" zoomAndPan="magnify"><defs><filter height="300%" id="fzrsvj10i35du" width="300%" x="-1" y="-1"><feGaussianBlur result="blurOut" stdDeviation="2.0"/><feColorMatrix in="blurOut" result="blurOut2" type="matrix" values="0 0 0 0 0 0 0 0 0 0 0 0 0 0 0 0 0 0 .4 0"/><feOffset dx="4.0" dy="4.0" in="blurOut2" result="blurOut3"/><feBlend in="SourceGraphic" in2="blurOut3" mode="normal"/></filter></defs><g><!--MD5=[38d6738ede9bb2a15aaf77a6e9238a8e]
class ProgrammingModel--><rect codeLine="3" fill="#FEFECE" filter="url(#fzrsvj10i35du)" height="99.3828" id="ProgrammingModel" style="stroke:#A80036;stroke-width:1.5;" width="170" x="572" y="7"/><ellipse cx="604.55" cy="23" fill="#B4A7E5" rx="11" ry="11" style="stroke:#A80036;stroke-width:1.0;"/><path d="M607.2063,29.2031 L601.0813,29.2031 L601.0813,27.3125 L603.0813,27.3125 L603.0813,17.9844 L601.0813,17.9844 L601.0813,16.0938 L607.2063,16.0938 L607.2063,17.9844 L605.2063,17.9844 L605.2063,27.3125 L607.2063,27.3125 L607.2063,29.2031 Z " fill="#000000"/><text fill="#000000" font-family="sans-serif" font-size="12" font-style="italic" lengthAdjust="spacing" textLength="99" x="622.45" y="27.5352">ProgrammingModel</text><line style="stroke:#A80036;stroke-width:1.5;" x1="573" x2="741" y1="39" y2="39"/><text fill="#000000" font-family="sans-serif" font-size="11" lengthAdjust="spacing" textLength="158" x="578" y="54.5801">init(ProgrammingModelInitFilter)</text><text fill="#000000" font-family="sans-serif" font-size="11" lengthAdjust="spacing" textLength="68" x="578" y="69.4258">addFactory(...)</text><text fill="#000000" font-family="sans-serif" font-size="11" lengthAdjust="spacing" textLength="77" x="578" y="84.2715">addValidator(...)</text><text fill="#000000" font-family="sans-serif" font-size="11" lengthAdjust="spacing" textLength="104" x="578" y="99.1172">addPostProcessor(...)</text><!--MD5=[096c9e4936e6d7620496877d5fbdcbab]
class ProgrammingModelFacetsJava8--><rect codeLine="9" fill="#FEFECE" filter="url(#fzrsvj10i35du)" height="32" id="ProgrammingModelFacetsJava8" style="stroke:#A80036;stroke-width:1.5;" width="194" x="560" y="193.5"/><ellipse cx="575" cy="209.5" fill="#ADD1B2" rx="11" ry="11" style="stroke:#A80036;stroke-width:1.0;"/><path d="M570.9375,209.6406 Q570.9375,206.1875 572.0313,204.5625 Q573.1406,202.9219 575.3594,202.9219 Q576.5625,202.9219 577.8281,203.5781 L577.8281,205.625 Q576.375,204.8438 575.4375,204.8438 Q572.9844,204.8438 572.9844,209.6406 Q572.9844,212.3438 573.6094,213.4063 Q574.25,214.4531 575.4375,214.4531 Q576.4063,214.4531 577.9063,213.5313 L577.9063,215.7344 Q576.6406,216.3594 575.3594,216.3594 Q573.0938,216.3594 572.0156,214.7813 Q570.9375,213.2031 570.9375,209.6406 Z " fill="#000000"/><text fill="#000000" font-family="sans-serif" font-size="12" lengthAdjust="spacing" textLength="162" x="589" y="214.0352">ProgrammingModelFacetsJava8</text><!--MD5=[a0b877c9e7bb7e2c48782e28dce99117]
class ProgrammingModelService--><rect codeLine="11" fill="#FEFECE" filter="url(#fzrsvj10i35du)" height="54.8457" id="ProgrammingModelService" style="stroke:#A80036;stroke-width:1.5;" width="230" x="246" y="29"/><ellipse cx="288.9" cy="45" fill="#B4A7E5" rx="11" ry="11" style="stroke:#A80036;stroke-width:1.0;"/><path d="M291.5563,51.2031 L285.4313,51.2031 L285.4313,49.3125 L287.4313,49.3125 L287.4313,39.9844 L285.4313,39.9844 L285.4313,38.0938 L291.5563,38.0938 L291.5563,39.9844 L289.5563,39.9844 L289.5563,49.3125 L291.5563,49.3125 L291.5563,51.2031 Z " fill="#000000"/><text fill="#000000" font-family="sans-serif" font-size="12" font-style="italic" lengthAdjust="spacing" textLength="136" x="309.1" y="49.5352">ProgrammingModelService</text><line style="stroke:#A80036;stroke-width:1.5;" x1="247" x2="475" y1="61" y2="61"/><text fill="#000000" font-family="sans-serif" font-size="11" lengthAdjust="spacing" textLength="218" x="252" y="76.5801">getProgrammingModel(): ProgrammingModel</text><!--MD5=[3545f6548698a49c4881a15df820a457]
class ProgrammingModelServiceDefault--><rect codeLine="14" fill="#FEFECE" filter="url(#fzrsvj10i35du)" height="32" id="ProgrammingModelServiceDefault" style="stroke:#A80036;stroke-width:1.5;" width="205" x="258.5" y="193.5"/><ellipse cx="273.5" cy="209.5" fill="#ADD1B2" rx="11" ry="11" style="stroke:#A80036;stroke-width:1.0;"/><path d="M269.4375,209.6406 Q269.4375,206.1875 270.5313,204.5625 Q271.6406,202.9219 273.8594,202.9219 Q275.0625,202.9219 276.3281,203.5781 L276.3281,205.625 Q274.875,204.8438 273.9375,204.8438 Q271.4844,204.8438 271.4844,209.6406 Q271.4844,212.3438 272.1094,213.4063 Q272.75,214.4531 273.9375,214.4531 Q274.9063,214.4531 276.4063,213.5313 L276.4063,215.7344 Q275.1406,216.3594 273.8594,216.3594 Q271.5938,216.3594 270.5156,214.7813 Q269.4375,213.2031 269.4375,209.6406 Z " fill="#000000"/><text fill="#000000" font-family="sans-serif" font-size="12" lengthAdjust="spacing" textLength="173" x="287.5" y="214.0352">ProgrammingModelServiceDefault</text><!--MD5=[36f14e065da8200f218be258912770bf]
class ProgrammingModelInitFilter--><rect codeLine="16" fill="#FEFECE" filter="url(#fzrsvj10i35du)" height="84.5371" id="ProgrammingModelInitFilter" style="stroke:#A80036;stroke-width:1.5;" width="175" x="40.5" y="167"/><ellipse cx="56.4" cy="183" fill="#B4A7E5" rx="11" ry="11" style="stroke:#A80036;stroke-width:1.0;"/><path d="M59.0563,189.2031 L52.9313,189.2031 L52.9313,187.3125 L54.9313,187.3125 L54.9313,177.9844 L52.9313,177.9844 L52.9313,176.0938 L59.0563,176.0938 L59.0563,177.9844 L57.0563,177.9844 L57.0563,187.3125 L59.0563,187.3125 L59.0563,189.2031 Z " fill="#000000"/><text fill="#000000" font-family="sans-serif" font-size="12" font-style="italic" lengthAdjust="spacing" textLength="141" x="70.6" y="187.5352">ProgrammingModelInitFilter</text><line style="stroke:#A80036;stroke-width:1.5;" x1="41.5" x2="214.5" y1="199" y2="199"/><text fill="#000000" font-family="sans-serif" font-size="11" lengthAdjust="spacing" textLength="150" x="46.5" y="214.5801">boolean acceptFactoryType(...);</text><text fill="#000000" font-family="sans-serif" font-size="11" lengthAdjust="spacing" textLength="136" x="46.5" y="229.4258">boolean acceptValidator(...);</text><text fill="#000000" font-family="sans-serif" font-size="11" lengthAdjust="spacing" textLength="163" x="46.5" y="244.2715">boolean acceptPostProcessor(...);</text><!--MD5=[575427756d21eef766f04eee52c773c8]
class ProgrammingModelInitFilterDefault--><rect codeLine="21" fill="#FEFECE" filter="url(#fzrsvj10i35du)" height="32" id="ProgrammingModelInitFilterDefault" style="stroke:#A80036;stroke-width:1.5;" width="210" x="7" y="324.5"/><ellipse cx="22" cy="340.5" fill="#ADD1B2" rx="11" ry="11" style="stroke:#A80036;stroke-width:1.0;"/><path d="M17.9375,340.6406 Q17.9375,337.1875 19.0313,335.5625 Q20.1406,333.9219 22.3594,333.9219 Q23.5625,333.9219 24.8281,334.5781 L24.8281,336.625 Q23.375,335.8438 22.4375,335.8438 Q19.9844,335.8438 19.9844,340.6406 Q19.9844,343.3438 20.6094,344.4063 Q21.25,345.4531 22.4375,345.4531 Q23.4063,345.4531 24.9063,344.5313 L24.9063,346.7344 Q23.6406,347.3594 22.3594,347.3594 Q20.0938,347.3594 19.0156,345.7813 Q17.9375,344.2031 17.9375,340.6406 Z " fill="#000000"/><text fill="#000000" font-family="sans-serif" font-size="12" lengthAdjust="spacing" textLength="178" x="36" y="345.0352">ProgrammingModelInitFilterDefault</text><!--MD5=[231bb3eda1eda48c926d29adf75ba578]
class MetaModelRefiner--><rect codeLine="24" fill="#FEFECE" filter="url(#fzrsvj10i35du)" height="54.8457" id="MetaModelRefiner" style="stroke:#A80036;stroke-width:1.5;" width="236" x="252" y="313"/><ellipse cx="319.25" cy="329" fill="#B4A7E5" rx="11" ry="11" style="stroke:#A80036;stroke-width:1.0;"/><path d="M321.9063,335.2031 L315.7813,335.2031 L315.7813,333.3125 L317.7813,333.3125 L317.7813,323.9844 L315.7813,323.9844 L315.7813,322.0938 L321.9063,322.0938 L321.9063,323.9844 L319.9063,323.9844 L319.9063,333.3125 L321.9063,333.3125 L321.9063,335.2031 Z " fill="#000000"/><text fill="#000000" font-family="sans-serif" font-size="12" font-style="italic" lengthAdjust="spacing" textLength="93" x="339.75" y="333.5352">MetaModelRefiner</text><line style="stroke:#A80036;stroke-width:1.5;" x1="253" x2="487" y1="345" y2="345"/><text fill="#000000" font-family="sans-serif" font-size="11" lengthAdjust="spacing" textLength="224" x="258" y="360.5801">refineProgrammingModel(ProgrammingModel)</text><!--MD5=[ce0afb130fdeee45ed487ce64805b411]
link MetaModelRefiner to ProgrammingModel--><path codeLine="28" d="M488.08,329.95 C593.59,318.68 736.82,295.66 772,252 C795.7,222.58 786.88,201.72 772,167 C762.71,145.33 746.79,125.91 729.71,109.67 " fill="none" id="MetaModelRefiner-to-ProgrammingModel" style="stroke:#A80036;stroke-width:1.0;stroke-dasharray:7.0,7.0;"/><polygon fill="#A80036" points="725.82,106.04,729.669,115.1056,729.4748,109.4521,735.1283,109.2579,725.82,106.04" style="stroke:#A80036;stroke-width:1.0;"/><!--MD5=[6c2b2ea675b299f77338a2317f64c9af]
link ProgrammingModelService to ProgrammingModel--><path codeLine="29" d="M476.05,56.5 C506.23,56.5 536.41,56.5 566.59,56.5 " fill="none" id="ProgrammingModelService-to-ProgrammingModel" style="stroke:#A80036;stroke-width:1.0;stroke-dasharray:7.0,7.0;"/><polygon fill="#A80036" points="571.82,56.5,562.82,52.5,566.82,56.5,562.82,60.5,571.82,56.5" style="stroke:#A80036;stroke-width:1.0;"/><!--MD5=[60aee48f12e41f7206e720f7f56eb015]
link ProgrammingModelServiceDefault to ProgrammingModelFacetsJava8--><path codeLine="31" d="M463.7,209.5 C493.21,209.5 525.39,209.5 554.87,209.5 " fill="none" id="ProgrammingModelServiceDefault-to-ProgrammingModelFacetsJava8" style="stroke:#A80036;stroke-width:1.0;"/><polygon fill="#A80036" points="559.96,209.5,550.96,205.5,554.96,209.5,550.96,213.5,559.96,209.5" style="stroke:#A80036;stroke-width:1.0;"/><text fill="#000000" font-family="sans-serif" font-size="13" lengthAdjust="spacing" textLength="60" x="481.75" y="202.1855">instantiate</text><!--MD5=[c24b65672d1b1ef47e3ef0dbb9fcc387]
reverse link ProgrammingModelInitFilter to ProgrammingModelServiceDefault--><path codeLine="32" d="M221.15,209.5 C233.55,209.5 245.96,209.5 258.36,209.5 " fill="none" id="ProgrammingModelInitFilter-backto-ProgrammingModelServiceDefault" style="stroke:#A80036;stroke-width:1.0;"/><polygon fill="#A80036" points="215.83,209.5,224.83,213.5,220.83,209.5,224.83,205.5,215.83,209.5" style="stroke:#A80036;stroke-width:1.0;"/><!--MD5=[c5352f78f2b28b2f0ea651ca42611fe8]
link ProgrammingModelServiceDefault to MetaModelRefiner--><path codeLine="33" d="M362.05,225.55 C363.45,245.61 365.96,281.63 367.79,307.81 " fill="none" id="ProgrammingModelServiceDefault-to-MetaModelRefiner" style="stroke:#A80036;stroke-width:1.0;"/><polygon fill="#A80036" points="368.14,312.91,371.4867,303.6472,367.7827,307.9228,363.5072,304.2188,368.14,312.91" style="stroke:#A80036;stroke-width:1.0;"/><text fill="#000000" font-family="sans-serif" font-size="13" lengthAdjust="spacing" textLength="24" x="340.9349" y="301.3306">0..*</text><!--MD5=[bbcd0e9d29db4589902cd649aa6e1d37]
reverse link ProgrammingModel to ProgrammingModelFacetsJava8--><path codeLine="35" d="M657,126.24 C657,151.32 657,177.4 657,193.3 " fill="none" id="ProgrammingModel-backto-ProgrammingModelFacetsJava8" style="stroke:#A80036;stroke-width:1.0;"/><polygon fill="none" points="650,126.11,657,106.11,664,126.11,650,126.11" style="stroke:#A80036;stroke-width:1.0;"/><!--MD5=[371aab221b6bfdcc38a736851a62a624]
reverse link ProgrammingModelService to ProgrammingModelServiceDefault--><path codeLine="36" d="M361,104.21 C361,134.67 361,172.47 361,193.17 " fill="none" id="ProgrammingModelService-backto-ProgrammingModelServiceDefault" style="stroke:#A80036;stroke-width:1.0;"/><polygon fill="none" points="354,104.15,361,84.15,368,104.15,354,104.15" style="stroke:#A80036;stroke-width:1.0;"/><!--MD5=[3a32fcefc14db8d2503a8a85909c2161]
reverse link ProgrammingModelInitFilter to ProgrammingModelInitFilterDefault--><path codeLine="37" d="M120.38,271.9 C117.97,291.39 115.5,311.26 113.88,324.37 " fill="none" id="ProgrammingModelInitFilter-backto-ProgrammingModelInitFilterDefault" style="stroke:#A80036;stroke-width:1.0;"/><polygon fill="none" points="113.44,271.01,122.85,252.03,127.33,272.74,113.44,271.01" style="stroke:#A80036;stroke-width:1.0;"/><!--MD5=[8f02d40038cfdfa210436f0e8cb6197a]
@startuml
hide empty members

interface ProgrammingModel {
    init(ProgrammingModelInitFilter)
    addFactory(...)
    addValidator(...)
    addPostProcessor(...)
}
class ProgrammingModelFacetsJava8 {}

interface ProgrammingModelService {
    getProgrammingModel(): ProgrammingModel
}
class ProgrammingModelServiceDefault {}

interface ProgrammingModelInitFilter {
    boolean acceptFactoryType(...);
    boolean acceptValidator(...);
    boolean acceptPostProcessor(...);
}
class ProgrammingModelInitFilterDefault {
}

interface MetaModelRefiner {
    refineProgrammingModel(ProgrammingModel)
}

MetaModelRefiner -.[norank]r> ProgrammingModel
ProgrammingModelService -.[norank]r> ProgrammingModel

ProgrammingModelServiceDefault -> ProgrammingModelFacetsJava8 : instantiate
ProgrammingModelServiceDefault -l-> ProgrammingModelInitFilter
ProgrammingModelServiceDefault -d-> "0..*" MetaModelRefiner

ProgrammingModel ^-d- ProgrammingModelFacetsJava8
ProgrammingModelService ^-d- ProgrammingModelServiceDefault
ProgrammingModelInitFilter ^-d- ProgrammingModelInitFilterDefault
@enduml

PlantUML version 1.2021.01(Tue Feb 02 07:55:08 GMT 2021)
(GPL source distribution)
Java Runtime: OpenJDK Runtime Environment
JVM: OpenJDK 64-Bit Server VM
Default Encoding: UTF-8
Language: en
Country: US
--></g></svg>