<?xml version="1.0" encoding="us-ascii" standalone="no"?><svg xmlns="http://www.w3.org/2000/svg" xmlns:xlink="http://www.w3.org/1999/xlink" contentStyleType="text/css" height="386px" preserveAspectRatio="none" style="width:997px;height:386px;background:#FFFFFF;" version="1.1" viewBox="0 0 997 386" width="997px" zoomAndPan="magnify"><defs/><g><!--class ProgrammingModel--><g id="elem_ProgrammingModel"><rect codeLine="3" fill="#F1F1F1" height="105.1875" id="ProgrammingModel" rx="2.5" ry="2.5" style="stroke:#181818;stroke-width:0.5;" width="229" x="709.5" y="7"/><ellipse cx="752.85" cy="23" fill="#B4A7E5" rx="11" ry="11" style="stroke:#181818;stroke-width:1.0;"/><path d="M748.7719,18.7656 L748.7719,16.6094 L756.1625,16.6094 L756.1625,18.7656 L753.6938,18.7656 L753.6938,26.8438 L756.1625,26.8438 L756.1625,29 L748.7719,29 L748.7719,26.8438 L751.2406,26.8438 L751.2406,18.7656 L748.7719,18.7656 Z " fill="#000000"/><text fill="#000000" font-family="sans-serif" font-size="14" font-style="italic" lengthAdjust="spacing" textLength="134" x="773.15" y="27.8467">ProgrammingModel</text><line style="stroke:#181818;stroke-width:0.5;" x1="710.5" x2="937.5" y1="39" y2="39"/><text fill="#000000" font-family="sans-serif" font-size="14" lengthAdjust="spacing" textLength="217" x="715.5" y="55.9951">init(ProgrammingModelInitFilter)</text><text fill="#000000" font-family="sans-serif" font-size="14" lengthAdjust="spacing" textLength="98" x="715.5" y="72.292">addFactory(...)</text><text fill="#000000" font-family="sans-serif" font-size="14" lengthAdjust="spacing" textLength="107" x="715.5" y="88.5889">addValidator(...)</text><text fill="#000000" font-family="sans-serif" font-size="14" lengthAdjust="spacing" textLength="149" x="715.5" y="104.8857">addPostProcessor(...)</text></g><!--class ProgrammingModelFacetsJava8--><g id="elem_ProgrammingModelFacetsJava8"><rect codeLine="9" fill="#F1F1F1" height="32" id="ProgrammingModelFacetsJava8" rx="2.5" ry="2.5" style="stroke:#181818;stroke-width:0.5;" width="247" x="700.5" y="201.64"/><ellipse cx="715.5" cy="217.64" fill="#ADD1B2" rx="11" ry="11" style="stroke:#181818;stroke-width:1.0;"/><path d="M718.4688,223.2806 Q717.8906,223.5775 717.25,223.7181 Q716.6094,223.8744 715.9063,223.8744 Q713.4063,223.8744 712.0781,222.2338 Q710.7656,220.5775 710.7656,217.4525 Q710.7656,214.3275 712.0781,212.6713 Q713.4063,211.015 715.9063,211.015 Q716.6094,211.015 717.25,211.1713 Q717.9063,211.3275 718.4688,211.6244 L718.4688,214.3431 Q717.8438,213.765 717.25,213.4994 Q716.6563,213.2181 716.0313,213.2181 Q714.6875,213.2181 714,214.2963 Q713.3125,215.3588 713.3125,217.4525 Q713.3125,219.5463 714,220.6244 Q714.6875,221.6869 716.0313,221.6869 Q716.6563,221.6869 717.25,221.4213 Q717.8438,221.14 718.4688,220.5619 L718.4688,223.2806 Z " fill="#000000"/><text fill="#000000" font-family="sans-serif" font-size="14" lengthAdjust="spacing" textLength="215" x="729.5" y="222.4867">ProgrammingModelFacetsJava8</text></g><!--class ProgrammingModelService--><g id="elem_ProgrammingModelService"><rect codeLine="11" fill="#F1F1F1" height="56.2969" id="ProgrammingModelService" rx="2.5" ry="2.5" style="stroke:#181818;stroke-width:0.5;" width="322" x="302" y="31.45"/><ellipse cx="366.75" cy="47.45" fill="#B4A7E5" rx="11" ry="11" style="stroke:#181818;stroke-width:1.0;"/><path d="M362.6719,43.2156 L362.6719,41.0594 L370.0625,41.0594 L370.0625,43.2156 L367.5938,43.2156 L367.5938,51.2937 L370.0625,51.2937 L370.0625,53.45 L362.6719,53.45 L362.6719,51.2937 L365.1406,51.2937 L365.1406,43.2156 L362.6719,43.2156 Z " fill="#000000"/><text fill="#000000" font-family="sans-serif" font-size="14" font-style="italic" lengthAdjust="spacing" textLength="184" x="387.25" y="52.2967">ProgrammingModelService</text><line style="stroke:#181818;stroke-width:0.5;" x1="303" x2="623" y1="63.45" y2="63.45"/><text fill="#000000" font-family="sans-serif" font-size="14" lengthAdjust="spacing" textLength="310" x="308" y="80.4451">getProgrammingModel(): ProgrammingModel</text></g><!--class ProgrammingModelServiceDefault--><g id="elem_ProgrammingModelServiceDefault"><rect codeLine="14" fill="#F1F1F1" height="32" id="ProgrammingModelServiceDefault" rx="2.5" ry="2.5" style="stroke:#181818;stroke-width:0.5;" width="265" x="330.5" y="201.64"/><ellipse cx="345.5" cy="217.64" fill="#ADD1B2" rx="11" ry="11" style="stroke:#181818;stroke-width:1.0;"/><path d="M348.4688,223.2806 Q347.8906,223.5775 347.25,223.7181 Q346.6094,223.8744 345.9063,223.8744 Q343.4063,223.8744 342.0781,222.2338 Q340.7656,220.5775 340.7656,217.4525 Q340.7656,214.3275 342.0781,212.6713 Q343.4063,211.015 345.9063,211.015 Q346.6094,211.015 347.25,211.1713 Q347.9063,211.3275 348.4688,211.6244 L348.4688,214.3431 Q347.8438,213.765 347.25,213.4994 Q346.6563,213.2181 346.0313,213.2181 Q344.6875,213.2181 344,214.2963 Q343.3125,215.3588 343.3125,217.4525 Q343.3125,219.5463 344,220.6244 Q344.6875,221.6869 346.0313,221.6869 Q346.6563,221.6869 347.25,221.4213 Q347.8438,221.14 348.4688,220.5619 L348.4688,223.2806 Z " fill="#000000"/><text fill="#000000" font-family="sans-serif" font-size="14" lengthAdjust="spacing" textLength="233" x="359.5" y="222.4867">ProgrammingModelServiceDefault</text></g><!--class ProgrammingModelInitFilter--><g id="elem_ProgrammingModelInitFilter"><rect codeLine="16" fill="#F1F1F1" height="88.8906" id="ProgrammingModelInitFilter" rx="2.5" ry="2.5" style="stroke:#181818;stroke-width:0.5;" width="247" x="38.5" y="173.19"/><ellipse cx="66.1" cy="189.19" fill="#B4A7E5" rx="11" ry="11" style="stroke:#181818;stroke-width:1.0;"/><path d="M62.0219,184.9556 L62.0219,182.7994 L69.4125,182.7994 L69.4125,184.9556 L66.9438,184.9556 L66.9438,193.0338 L69.4125,193.0338 L69.4125,195.19 L62.0219,195.19 L62.0219,193.0338 L64.4906,193.0338 L64.4906,184.9556 L62.0219,184.9556 Z " fill="#000000"/><text fill="#000000" font-family="sans-serif" font-size="14" font-style="italic" lengthAdjust="spacing" textLength="187" x="82.9" y="194.0367">ProgrammingModelInitFilter</text><line style="stroke:#181818;stroke-width:0.5;" x1="39.5" x2="284.5" y1="205.19" y2="205.19"/><text fill="#000000" font-family="sans-serif" font-size="14" lengthAdjust="spacing" textLength="218" x="44.5" y="222.1851">boolean acceptFactoryType(...);</text><text fill="#000000" font-family="sans-serif" font-size="14" lengthAdjust="spacing" textLength="193" x="44.5" y="238.482">boolean acceptValidator(...);</text><text fill="#000000" font-family="sans-serif" font-size="14" lengthAdjust="spacing" textLength="235" x="44.5" y="254.7789">boolean acceptPostProcessor(...);</text></g><!--class ProgrammingModelInitFilterDefault--><g id="elem_ProgrammingModelInitFilterDefault"><rect codeLine="21" fill="#F1F1F1" height="32" id="ProgrammingModelInitFilterDefault" rx="2.5" ry="2.5" style="stroke:#181818;stroke-width:0.5;" width="268" x="7" y="335.23"/><ellipse cx="22" cy="351.23" fill="#ADD1B2" rx="11" ry="11" style="stroke:#181818;stroke-width:1.0;"/><path d="M24.9688,356.8706 Q24.3906,357.1675 23.75,357.3081 Q23.1094,357.4644 22.4063,357.4644 Q19.9063,357.4644 18.5781,355.8238 Q17.2656,354.1675 17.2656,351.0425 Q17.2656,347.9175 18.5781,346.2613 Q19.9063,344.605 22.4063,344.605 Q23.1094,344.605 23.75,344.7613 Q24.4063,344.9175 24.9688,345.2144 L24.9688,347.9331 Q24.3438,347.355 23.75,347.0894 Q23.1563,346.8081 22.5313,346.8081 Q21.1875,346.8081 20.5,347.8863 Q19.8125,348.9488 19.8125,351.0425 Q19.8125,353.1363 20.5,354.2144 Q21.1875,355.2769 22.5313,355.2769 Q23.1563,355.2769 23.75,355.0113 Q24.3438,354.73 24.9688,354.1519 L24.9688,356.8706 Z " fill="#000000"/><text fill="#000000" font-family="sans-serif" font-size="14" lengthAdjust="spacing" textLength="236" x="36" y="356.0767">ProgrammingModelInitFilterDefault</text></g><!--class MetaModelRefiner--><g id="elem_MetaModelRefiner"><rect codeLine="24" fill="#F1F1F1" height="56.2969" id="MetaModelRefiner" rx="2.5" ry="2.5" style="stroke:#181818;stroke-width:0.5;" width="329" x="309.5" y="323.08"/><ellipse cx="407.25" cy="339.08" fill="#B4A7E5" rx="11" ry="11" style="stroke:#181818;stroke-width:1.0;"/><path d="M403.1719,334.8456 L403.1719,332.6894 L410.5625,332.6894 L410.5625,334.8456 L408.0938,334.8456 L408.0938,342.9238 L410.5625,342.9238 L410.5625,345.08 L403.1719,345.08 L403.1719,342.9238 L405.6406,342.9238 L405.6406,334.8456 L403.1719,334.8456 Z " fill="#000000"/><text fill="#000000" font-family="sans-serif" font-size="14" font-style="italic" lengthAdjust="spacing" textLength="125" x="427.75" y="343.9267">MetaModelRefiner</text><line style="stroke:#181818;stroke-width:0.5;" x1="310.5" x2="637.5" y1="355.08" y2="355.08"/><text fill="#000000" font-family="sans-serif" font-size="14" lengthAdjust="spacing" textLength="317" x="315.5" y="372.0751">refineProgrammingModel(ProgrammingModel)</text></g><!--link MetaModelRefiner to ProgrammingModel--><g id="link_MetaModelRefiner_ProgrammingModel"><path codeLine="28" d="M638.88,342.77 C764.87,333.21 923.71,311.45 965,262.08 C990.35,231.78 982.13,208.79 965,173.19 C953.59,149.48 939.1614,132.9754 918.6414,116.4354 " fill="none" id="MetaModelRefiner-to-ProgrammingModel" style="stroke:#181818;stroke-width:1.0;stroke-dasharray:7.0,7.0;"/><polygon fill="#181818" points="913.97,112.67,918.4669,121.4323,917.8628,115.8078,923.4874,115.2038,913.97,112.67" style="stroke:#181818;stroke-width:1.0;"/></g><!--link ProgrammingModelService to ProgrammingModel--><g id="link_ProgrammingModelService_ProgrammingModel"><path codeLine="29" d="M624.46,59.6 C652.65,59.6 674.84,59.6 703.03,59.6 " fill="none" id="ProgrammingModelService-to-ProgrammingModel" style="stroke:#181818;stroke-width:1.0;stroke-dasharray:7.0,7.0;"/><polygon fill="#181818" points="709.03,59.6,700.03,55.6,704.03,59.6,700.03,63.6,709.03,59.6" style="stroke:#181818;stroke-width:1.0;"/></g><!--link ProgrammingModelServiceDefault to ProgrammingModelFacetsJava8--><g id="link_ProgrammingModelServiceDefault_ProgrammingModelFacetsJava8"><path codeLine="31" d="M595.89,217.64 C629.96,217.64 660.48,217.64 694.08,217.64 " fill="none" id="ProgrammingModelServiceDefault-to-ProgrammingModelFacetsJava8" style="stroke:#181818;stroke-width:1.0;"/><polygon fill="#181818" points="700.08,217.64,691.08,213.64,695.08,217.64,691.08,221.64,700.08,217.64" style="stroke:#181818;stroke-width:1.0;"/><text fill="#000000" font-family="sans-serif" font-size="13" lengthAdjust="spacing" textLength="68" x="614" y="210.7069">instantiate</text></g><!--reverse link ProgrammingModelInitFilter to ProgrammingModelServiceDefault--><g id="link_ProgrammingModelInitFilter_ProgrammingModelServiceDefault"><path codeLine="32" d="M291.75,217.64 C306.52,217.64 315.29,217.64 330.06,217.64 " fill="none" id="ProgrammingModelInitFilter-backto-ProgrammingModelServiceDefault" style="stroke:#181818;stroke-width:1.0;"/><polygon fill="#181818" points="285.75,217.64,294.75,221.64,290.75,217.64,294.75,213.64,285.75,217.64" style="stroke:#181818;stroke-width:1.0;"/></g><!--link ProgrammingModelServiceDefault to MetaModelRefiner--><g id="link_ProgrammingModelServiceDefault_MetaModelRefiner"><path codeLine="33" d="M464.28,233.99 C466.1,255.69 468.9406,289.6908 471.1906,316.6308 " fill="none" id="ProgrammingModelServiceDefault-to-MetaModelRefiner" style="stroke:#181818;stroke-width:1.0;"/><polygon fill="#181818" points="471.69,322.61,474.9271,313.3083,471.2739,317.6273,466.9548,313.9741,471.69,322.61" style="stroke:#181818;stroke-width:1.0;"/><text fill="#000000" font-family="sans-serif" font-size="13" lengthAdjust="spacing" textLength="23" x="445.6691" y="311.7905">0..*</text></g><!--reverse link ProgrammingModel to ProgrammingModelFacetsJava8--><g id="link_ProgrammingModel_ProgrammingModelFacetsJava8"><path codeLine="35" d="M824,130.56 C824,161.59 824,180.83 824,201.29 " fill="none" id="ProgrammingModel-backto-ProgrammingModelFacetsJava8" style="stroke:#181818;stroke-width:1.0;"/><polygon fill="none" points="824,112.56,818,130.56,830,130.56,824,112.56" style="stroke:#181818;stroke-width:1.0;"/></g><!--reverse link ProgrammingModelService to ProgrammingModelServiceDefault--><g id="link_ProgrammingModelService_ProgrammingModelServiceDefault"><path codeLine="36" d="M463,106.14 C463,139.03 463,174.91 463,201.22 " fill="none" id="ProgrammingModelService-backto-ProgrammingModelServiceDefault" style="stroke:#181818;stroke-width:1.0;"/><polygon fill="none" points="463,88.14,457,106.14,469,106.14,463,88.14" style="stroke:#181818;stroke-width:1.0;"/></g><!--reverse link ProgrammingModelInitFilter to ProgrammingModelInitFilterDefault--><g id="link_ProgrammingModelInitFilter_ProgrammingModelInitFilterDefault"><path codeLine="37" d="M152.1698,280.2345 C148.1798,305.2045 146.28,317.17 143.46,334.84 " fill="none" id="ProgrammingModelInitFilter-backto-ProgrammingModelInitFilterDefault" style="stroke:#181818;stroke-width:1.0;"/><polygon fill="none" points="155.01,262.46,146.2449,279.2878,158.0946,281.1812,155.01,262.46" style="stroke:#181818;stroke-width:1.0;"/></g><!--SRC=[XLBBQiCm4BphAqHEJY6Ynv90JYNGGY2qfPVImaPUkwAoPAHjm8JyUrNNjN7aXsyUpUpEpkwdIf5ZKLB52ooEw3nZoX2w32JoWxEvWw9G9j_R53K_Cnu-PHGbrsyF0Tmf7QJBcWHfkWD9rbM94AB5Na6h50BSGm_MKoWeqVl_bmkJ6hoFF8IYIFuHJd37pvSfjy_eJYhWVwPpf6j2ibn7ej6-JRLxpE1RqqphBeoc-z5QZM0uI8abDS6yL2NMmsu6EFsWXXXnQ9jHzvsXTW3Mcs2F13Np2JDbMj-k_ek2kmP-ryMY4YlnPgm3y_Nkjd7GO-kQLh6PlQosanUp3iVh2Gmf89ojfGUgTKdEojCWNzmASRE8uetdu1-1F-LzDB11OTyBcpZGGNbqBpy0]--></g></svg>