<?xml version="1.0" encoding="UTF-8" standalone="no"?><svg xmlns="http://www.w3.org/2000/svg" xmlns:xlink="http://www.w3.org/1999/xlink" contentStyleType="text/css" height="389px" preserveAspectRatio="none" style="width:921px;height:389px;background:#FFFFFF;" version="1.1" viewBox="0 0 921 389" width="921px" zoomAndPan="magnify"><defs/><g><!--MD5=[38d6738ede9bb2a15aaf77a6e9238a8e]
class ProgrammingModel--><g id="elem_ProgrammingModel"><rect codeLine="3" fill="#F1F1F1" height="107.1997" id="ProgrammingModel" rx="2.5" ry="2.5" style="stroke:#181818;stroke-width:0.5;" width="209" x="652" y="7"/><ellipse cx="691.3" cy="23" fill="#B4A7E5" rx="11" ry="11" style="stroke:#181818;stroke-width:1.0;"/><path d="M693.9719,26.2969 Q694.5188,26.2969 694.8,26.4844 Q695.0813,26.6563 695.0813,27.1563 Q695.0813,28 693.9719,28 L688.8313,28 Q687.7063,28 687.7063,27.1563 Q687.7063,26.6563 687.9875,26.4844 Q688.2844,26.2969 688.8313,26.2969 L690.55,26.2969 L690.55,19.7813 L688.8313,19.7813 Q687.7063,19.7813 687.7063,18.9375 Q687.7063,18.4531 687.9875,18.2813 Q688.2844,18.0938 688.8313,18.0938 L693.9719,18.0938 Q694.5188,18.0938 694.8,18.2813 Q695.0813,18.4531 695.0813,18.9375 Q695.0813,19.7813 693.9719,19.7813 L692.2531,19.7813 L692.2531,26.2969 L693.9719,26.2969 Z " fill="#000000"/><text fill="#000000" font-family="sans-serif" font-size="14" font-style="italic" lengthAdjust="spacing" textLength="123" x="710.7" y="28.6">ProgrammingModel</text><line style="stroke:#181818;stroke-width:0.5;" x1="653" x2="860" y1="39" y2="39"/><text fill="#000000" font-family="sans-serif" font-size="14" lengthAdjust="spacing" textLength="197" x="658" y="56.9999">init(ProgrammingModelInitFilter)</text><text fill="#000000" font-family="sans-serif" font-size="14" lengthAdjust="spacing" textLength="92" x="658" y="73.7999">addFactory(...)</text><text fill="#000000" font-family="sans-serif" font-size="14" lengthAdjust="spacing" textLength="101" x="658" y="90.5998">addValidator(...)</text><text fill="#000000" font-family="sans-serif" font-size="14" lengthAdjust="spacing" textLength="134" x="658" y="107.3997">addPostProcessor(...)</text></g><!--MD5=[096c9e4936e6d7620496877d5fbdcbab]
class ProgrammingModelFacetsJava8--><g id="elem_ProgrammingModelFacetsJava8"><rect codeLine="9" fill="#F1F1F1" height="32" id="ProgrammingModelFacetsJava8" rx="2.5" ry="2.5" style="stroke:#181818;stroke-width:0.5;" width="231" x="641" y="204"/><ellipse cx="656" cy="220" fill="#ADD1B2" rx="11" ry="11" style="stroke:#181818;stroke-width:1.0;"/><path d="M655.3594,223.7813 Q656.1563,223.7813 656.7188,223.5938 Q657.2969,223.3906 657.5313,223.1719 Q657.7813,222.9375 658.0156,222.75 Q658.2656,222.5469 658.4844,222.5469 Q658.8281,222.5469 659.0781,222.8125 Q659.3438,223.0625 659.3438,223.3906 Q659.3438,224.125 658.1719,224.8125 Q657.0156,225.4844 655.3125,225.4844 Q653.1563,225.4844 651.7344,224.2188 Q650.3125,222.9531 650.3125,221.0156 L650.3125,219.8906 Q650.3125,217.8594 651.6406,216.4844 Q652.9688,215.0938 654.9375,215.0938 Q656.125,215.0938 657.3438,215.6719 L657.5156,215.75 Q657.8125,215.3438 658.2344,215.3438 Q658.7188,215.3438 658.8906,215.6406 Q659.0781,215.9219 659.0781,216.4688 L659.0781,217.8906 Q659.0781,219.0156 658.2344,219.0156 Q657.9219,219.0156 657.7188,218.8438 Q657.5313,218.6719 657.4844,218.5313 Q657.4531,218.375 657.4063,218.1094 Q657.2969,217.5938 656.7813,217.2813 Q656.2656,216.9688 655.8125,216.8906 Q655.375,216.7969 655,216.7969 Q653.7188,216.7969 652.8594,217.6719 Q652.0156,218.5469 652.0156,219.8906 L652.0156,220.9844 Q652.0156,222.2656 652.9219,223.0313 Q653.8281,223.7813 655.3594,223.7813 Z " fill="#000000"/><text fill="#000000" font-family="sans-serif" font-size="14" lengthAdjust="spacing" textLength="199" x="670" y="225.6">ProgrammingModelFacetsJava8</text></g><!--MD5=[a0b877c9e7bb7e2c48782e28dce99117]
class ProgrammingModelService--><g id="elem_ProgrammingModelService"><rect codeLine="11" fill="#F1F1F1" height="56.7999" id="ProgrammingModelService" rx="2.5" ry="2.5" style="stroke:#181818;stroke-width:0.5;" width="289" x="280" y="32"/><ellipse cx="335.25" cy="48" fill="#B4A7E5" rx="11" ry="11" style="stroke:#181818;stroke-width:1.0;"/><path d="M337.9219,51.2969 Q338.4688,51.2969 338.75,51.4844 Q339.0313,51.6563 339.0313,52.1563 Q339.0313,53 337.9219,53 L332.7813,53 Q331.6563,53 331.6563,52.1563 Q331.6563,51.6563 331.9375,51.4844 Q332.2344,51.2969 332.7813,51.2969 L334.5,51.2969 L334.5,44.7813 L332.7813,44.7813 Q331.6563,44.7813 331.6563,43.9375 Q331.6563,43.4531 331.9375,43.2813 Q332.2344,43.0938 332.7813,43.0938 L337.9219,43.0938 Q338.4688,43.0938 338.75,43.2813 Q339.0313,43.4531 339.0313,43.9375 Q339.0313,44.7813 337.9219,44.7813 L336.2031,44.7813 L336.2031,51.2969 L337.9219,51.2969 Z " fill="#000000"/><text fill="#000000" font-family="sans-serif" font-size="14" font-style="italic" lengthAdjust="spacing" textLength="170" x="355.75" y="53.6">ProgrammingModelService</text><line style="stroke:#181818;stroke-width:0.5;" x1="281" x2="568" y1="64" y2="64"/><text fill="#000000" font-family="sans-serif" font-size="14" lengthAdjust="spacing" textLength="277" x="286" y="81.9999">getProgrammingModel(): ProgrammingModel</text></g><!--MD5=[3545f6548698a49c4881a15df820a457]
class ProgrammingModelServiceDefault--><g id="elem_ProgrammingModelServiceDefault"><rect codeLine="14" fill="#F1F1F1" height="32" id="ProgrammingModelServiceDefault" rx="2.5" ry="2.5" style="stroke:#181818;stroke-width:0.5;" width="241" x="304" y="204"/><ellipse cx="319" cy="220" fill="#ADD1B2" rx="11" ry="11" style="stroke:#181818;stroke-width:1.0;"/><path d="M318.3594,223.7813 Q319.1563,223.7813 319.7188,223.5938 Q320.2969,223.3906 320.5313,223.1719 Q320.7813,222.9375 321.0156,222.75 Q321.2656,222.5469 321.4844,222.5469 Q321.8281,222.5469 322.0781,222.8125 Q322.3438,223.0625 322.3438,223.3906 Q322.3438,224.125 321.1719,224.8125 Q320.0156,225.4844 318.3125,225.4844 Q316.1563,225.4844 314.7344,224.2188 Q313.3125,222.9531 313.3125,221.0156 L313.3125,219.8906 Q313.3125,217.8594 314.6406,216.4844 Q315.9688,215.0938 317.9375,215.0938 Q319.125,215.0938 320.3438,215.6719 L320.5156,215.75 Q320.8125,215.3438 321.2344,215.3438 Q321.7188,215.3438 321.8906,215.6406 Q322.0781,215.9219 322.0781,216.4688 L322.0781,217.8906 Q322.0781,219.0156 321.2344,219.0156 Q320.9219,219.0156 320.7188,218.8438 Q320.5313,218.6719 320.4844,218.5313 Q320.4531,218.375 320.4063,218.1094 Q320.2969,217.5938 319.7813,217.2813 Q319.2656,216.9688 318.8125,216.8906 Q318.375,216.7969 318,216.7969 Q316.7188,216.7969 315.8594,217.6719 Q315.0156,218.5469 315.0156,219.8906 L315.0156,220.9844 Q315.0156,222.2656 315.9219,223.0313 Q316.8281,223.7813 318.3594,223.7813 Z " fill="#000000"/><text fill="#000000" font-family="sans-serif" font-size="14" lengthAdjust="spacing" textLength="209" x="333" y="225.6">ProgrammingModelServiceDefault</text></g><!--MD5=[36f14e065da8200f218be258912770bf]
class ProgrammingModelInitFilter--><g id="elem_ProgrammingModelInitFilter"><rect codeLine="16" fill="#F1F1F1" height="90.3998" id="ProgrammingModelInitFilter" rx="2.5" ry="2.5" style="stroke:#181818;stroke-width:0.5;" width="219" x="40" y="175"/><ellipse cx="61.3" cy="191" fill="#B4A7E5" rx="11" ry="11" style="stroke:#181818;stroke-width:1.0;"/><path d="M63.9719,194.2969 Q64.5188,194.2969 64.8,194.4844 Q65.0813,194.6563 65.0813,195.1563 Q65.0813,196 63.9719,196 L58.8313,196 Q57.7063,196 57.7063,195.1563 Q57.7063,194.6563 57.9875,194.4844 Q58.2844,194.2969 58.8313,194.2969 L60.55,194.2969 L60.55,187.7813 L58.8313,187.7813 Q57.7063,187.7813 57.7063,186.9375 Q57.7063,186.4531 57.9875,186.2813 Q58.2844,186.0938 58.8313,186.0938 L63.9719,186.0938 Q64.5188,186.0938 64.8,186.2813 Q65.0813,186.4531 65.0813,186.9375 Q65.0813,187.7813 63.9719,187.7813 L62.2531,187.7813 L62.2531,194.2969 L63.9719,194.2969 Z " fill="#000000"/><text fill="#000000" font-family="sans-serif" font-size="14" font-style="italic" lengthAdjust="spacing" textLength="173" x="76.7" y="196.6">ProgrammingModelInitFilter</text><line style="stroke:#181818;stroke-width:0.5;" x1="41" x2="258" y1="207" y2="207"/><text fill="#000000" font-family="sans-serif" font-size="14" lengthAdjust="spacing" textLength="196" x="46" y="224.9999">boolean acceptFactoryType(...);</text><text fill="#000000" font-family="sans-serif" font-size="14" lengthAdjust="spacing" textLength="174" x="46" y="241.7999">boolean acceptValidator(...);</text><text fill="#000000" font-family="sans-serif" font-size="14" lengthAdjust="spacing" textLength="207" x="46" y="258.5998">boolean acceptPostProcessor(...);</text></g><!--MD5=[575427756d21eef766f04eee52c773c8]
class ProgrammingModelInitFilterDefault--><g id="elem_ProgrammingModelInitFilterDefault"><rect codeLine="21" fill="#F1F1F1" height="32" id="ProgrammingModelInitFilterDefault" rx="2.5" ry="2.5" style="stroke:#181818;stroke-width:0.5;" width="245" x="7" y="338.5"/><ellipse cx="22" cy="354.5" fill="#ADD1B2" rx="11" ry="11" style="stroke:#181818;stroke-width:1.0;"/><path d="M21.3594,358.2813 Q22.1563,358.2813 22.7188,358.0938 Q23.2969,357.8906 23.5313,357.6719 Q23.7813,357.4375 24.0156,357.25 Q24.2656,357.0469 24.4844,357.0469 Q24.8281,357.0469 25.0781,357.3125 Q25.3438,357.5625 25.3438,357.8906 Q25.3438,358.625 24.1719,359.3125 Q23.0156,359.9844 21.3125,359.9844 Q19.1563,359.9844 17.7344,358.7188 Q16.3125,357.4531 16.3125,355.5156 L16.3125,354.3906 Q16.3125,352.3594 17.6406,350.9844 Q18.9688,349.5938 20.9375,349.5938 Q22.125,349.5938 23.3438,350.1719 L23.5156,350.25 Q23.8125,349.8438 24.2344,349.8438 Q24.7188,349.8438 24.8906,350.1406 Q25.0781,350.4219 25.0781,350.9688 L25.0781,352.3906 Q25.0781,353.5156 24.2344,353.5156 Q23.9219,353.5156 23.7188,353.3438 Q23.5313,353.1719 23.4844,353.0313 Q23.4531,352.875 23.4063,352.6094 Q23.2969,352.0938 22.7813,351.7813 Q22.2656,351.4688 21.8125,351.3906 Q21.375,351.2969 21,351.2969 Q19.7188,351.2969 18.8594,352.1719 Q18.0156,353.0469 18.0156,354.3906 L18.0156,355.4844 Q18.0156,356.7656 18.9219,357.5313 Q19.8281,358.2813 21.3594,358.2813 Z " fill="#000000"/><text fill="#000000" font-family="sans-serif" font-size="14" lengthAdjust="spacing" textLength="213" x="36" y="360.1">ProgrammingModelInitFilterDefault</text></g><!--MD5=[231bb3eda1eda48c926d29adf75ba578]
class MetaModelRefiner--><g id="elem_MetaModelRefiner"><rect codeLine="24" fill="#F1F1F1" height="56.7999" id="MetaModelRefiner" rx="2.5" ry="2.5" style="stroke:#181818;stroke-width:0.5;" width="296" x="287.5" y="326"/><ellipse cx="372.75" cy="342" fill="#B4A7E5" rx="11" ry="11" style="stroke:#181818;stroke-width:1.0;"/><path d="M375.4219,345.2969 Q375.9688,345.2969 376.25,345.4844 Q376.5313,345.6563 376.5313,346.1563 Q376.5313,347 375.4219,347 L370.2813,347 Q369.1563,347 369.1563,346.1563 Q369.1563,345.6563 369.4375,345.4844 Q369.7344,345.2969 370.2813,345.2969 L372,345.2969 L372,338.7813 L370.2813,338.7813 Q369.1563,338.7813 369.1563,337.9375 Q369.1563,337.4531 369.4375,337.2813 Q369.7344,337.0938 370.2813,337.0938 L375.4219,337.0938 Q375.9688,337.0938 376.25,337.2813 Q376.5313,337.4531 376.5313,337.9375 Q376.5313,338.7813 375.4219,338.7813 L373.7031,338.7813 L373.7031,345.2969 L375.4219,345.2969 Z " fill="#000000"/><text fill="#000000" font-family="sans-serif" font-size="14" font-style="italic" lengthAdjust="spacing" textLength="117" x="393.25" y="347.6">MetaModelRefiner</text><line style="stroke:#181818;stroke-width:0.5;" x1="288.5" x2="582.5" y1="358" y2="358"/><text fill="#000000" font-family="sans-serif" font-size="14" lengthAdjust="spacing" textLength="284" x="293.5" y="375.9999">refineProgrammingModel(ProgrammingModel)</text></g><!--MD5=[ce0afb130fdeee45ed487ce64805b411]
link MetaModelRefiner to ProgrammingModel--><g id="link_MetaModelRefiner_ProgrammingModel"><path codeLine="28" d="M583.69,344.56 C700.92,334.03 851.08,311.64 889.5,265 C914.93,234.13 906.25,211.32 889.5,175 C879.39,153.09 862.74,133.84 844.58,117.72 " fill="none" id="MetaModelRefiner-to-ProgrammingModel" style="stroke:#181818;stroke-width:1.0;stroke-dasharray:7.0,7.0;"/><polygon fill="#181818" points="840.44,114.11,844.6151,123.0301,844.2161,117.3874,849.8589,116.9884,840.44,114.11" style="stroke:#181818;stroke-width:1.0;"/></g><!--MD5=[6c2b2ea675b299f77338a2317f64c9af]
link ProgrammingModelService to ProgrammingModel--><g id="link_ProgrammingModelService_ProgrammingModel"><path codeLine="29" d="M569.1,60.5 C594.95,60.5 620.8,60.5 646.65,60.5 " fill="none" id="ProgrammingModelService-to-ProgrammingModel" style="stroke:#181818;stroke-width:1.0;stroke-dasharray:7.0,7.0;"/><polygon fill="#181818" points="651.82,60.5,642.82,56.5,646.82,60.5,642.82,64.5,651.82,60.5" style="stroke:#181818;stroke-width:1.0;"/></g><!--MD5=[60aee48f12e41f7206e720f7f56eb015]
link ProgrammingModelServiceDefault to ProgrammingModelFacetsJava8--><g id="link_ProgrammingModelServiceDefault_ProgrammingModelFacetsJava8"><path codeLine="31" d="M545.3,220 C574.74,220 606.24,220 635.69,220 " fill="none" id="ProgrammingModelServiceDefault-to-ProgrammingModelFacetsJava8" style="stroke:#181818;stroke-width:1.0;"/><polygon fill="#181818" points="640.78,220,631.78,216,635.78,220,631.78,224,640.78,220" style="stroke:#181818;stroke-width:1.0;"/><text fill="#000000" font-family="sans-serif" font-size="13" lengthAdjust="spacing" textLength="59" x="563.5" y="214">instantiate</text></g><!--MD5=[c24b65672d1b1ef47e3ef0dbb9fcc387]
reverse link ProgrammingModelInitFilter to ProgrammingModelServiceDefault--><g id="link_ProgrammingModelInitFilter_ProgrammingModelServiceDefault"><path codeLine="32" d="M264.33,220 C277.55,220 290.77,220 303.98,220 " fill="none" id="ProgrammingModelInitFilter-backto-ProgrammingModelServiceDefault" style="stroke:#181818;stroke-width:1.0;"/><polygon fill="#181818" points="259.07,220,268.07,224,264.07,220,268.07,216,259.07,220" style="stroke:#181818;stroke-width:1.0;"/></g><!--MD5=[c5352f78f2b28b2f0ea651ca42611fe8]
link ProgrammingModelServiceDefault to MetaModelRefiner--><g id="link_ProgrammingModelServiceDefault_MetaModelRefiner"><path codeLine="33" d="M425.76,236.2 C427.46,256.66 430.53,293.59 432.77,320.56 " fill="none" id="ProgrammingModelServiceDefault-to-MetaModelRefiner" style="stroke:#181818;stroke-width:1.0;"/><polygon fill="#181818" points="433.2,325.82,436.441,316.5197,432.786,320.8372,428.4685,317.1821,433.2,325.82" style="stroke:#181818;stroke-width:1.0;"/><text fill="#000000" font-family="sans-serif" font-size="13" lengthAdjust="spacing" textLength="18" x="412.5869" y="315.5459">0..*</text></g><!--MD5=[bbcd0e9d29db4589902cd649aa6e1d37]
reverse link ProgrammingModel to ProgrammingModelFacetsJava8--><g id="link_ProgrammingModel_ProgrammingModelFacetsJava8"><path codeLine="35" d="M756.5,134.51 C756.5,160.69 756.5,187.73 756.5,203.95 " fill="none" id="ProgrammingModel-backto-ProgrammingModelFacetsJava8" style="stroke:#181818;stroke-width:1.0;"/><polygon fill="none" points="749.5,134.38,756.5,114.38,763.5,134.38,749.5,134.38" style="stroke:#181818;stroke-width:1.0;"/></g><!--MD5=[371aab221b6bfdcc38a736851a62a624]
reverse link ProgrammingModelService to ProgrammingModelServiceDefault--><g id="link_ProgrammingModelService_ProgrammingModelServiceDefault"><path codeLine="36" d="M424.5,109.54 C424.5,141.84 424.5,182.31 424.5,203.86 " fill="none" id="ProgrammingModelService-backto-ProgrammingModelServiceDefault" style="stroke:#181818;stroke-width:1.0;"/><polygon fill="none" points="417.5,109.3,424.5,89.3,431.5,109.3,417.5,109.3" style="stroke:#181818;stroke-width:1.0;"/></g><!--MD5=[3a32fcefc14db8d2503a8a85909c2161]
reverse link ProgrammingModelInitFilter to ProgrammingModelInitFilterDefault--><g id="link_ProgrammingModelInitFilter_ProgrammingModelInitFilterDefault"><path codeLine="37" d="M139.83,285.05 C136.83,304.93 133.79,325.08 131.79,338.32 " fill="none" id="ProgrammingModelInitFilter-backto-ProgrammingModelInitFilterDefault" style="stroke:#181818;stroke-width:1.0;"/><polygon fill="none" points="132.93,283.85,142.84,265.12,146.78,285.94,132.93,283.85" style="stroke:#181818;stroke-width:1.0;"/></g><!--MD5=[80b85d662ecc91ebf4c3d6586b5557e6]
@startuml
hide empty members

interface ProgrammingModel {
    init(ProgrammingModelInitFilter)
    addFactory(...)
    addValidator(...)
    addPostProcessor(...)
}
class ProgrammingModelFacetsJava8 {}

interface ProgrammingModelService {
    getProgrammingModel(): ProgrammingModel
}
class ProgrammingModelServiceDefault {}

interface ProgrammingModelInitFilter {
    boolean acceptFactoryType(...);
    boolean acceptValidator(...);
    boolean acceptPostProcessor(...);
}
class ProgrammingModelInitFilterDefault {
}

interface MetaModelRefiner {
    refineProgrammingModel(ProgrammingModel)
}

MetaModelRefiner -.[norank]r> ProgrammingModel
ProgrammingModelService -.[norank]r> ProgrammingModel

ProgrammingModelServiceDefault -> ProgrammingModelFacetsJava8 : instantiate
ProgrammingModelServiceDefault -l-> ProgrammingModelInitFilter
ProgrammingModelServiceDefault -d-> "0..*" MetaModelRefiner

ProgrammingModel ^-d- ProgrammingModelFacetsJava8
ProgrammingModelService ^-d- ProgrammingModelServiceDefault
ProgrammingModelInitFilter ^-d- ProgrammingModelInitFilterDefault
@enduml

PlantUML version 1.2022.5(Sat Apr 30 10:55:52 GMT 2022)
(GPL source distribution)
Java Runtime: OpenJDK Runtime Environment
JVM: OpenJDK 64-Bit Server VM
Default Encoding: UTF-8
Language: en
Country: US
--></g></svg>