<?xml version="1.0" encoding="UTF-8" standalone="no"?><svg xmlns="http://www.w3.org/2000/svg" xmlns:xlink="http://www.w3.org/1999/xlink" contentScriptType="application/ecmascript" contentStyleType="text/css" height="369px" preserveAspectRatio="none" style="width:817px;height:369px;background:#FFFFFF;" version="1.1" viewBox="0 0 817 369" width="817px" zoomAndPan="magnify"><defs><filter height="300%" id="fzrsvj10i35du" width="300%" x="-1" y="-1"><feGaussianBlur result="blurOut" stdDeviation="2.0"/><feColorMatrix in="blurOut" result="blurOut2" type="matrix" values="0 0 0 0 0 0 0 0 0 0 0 0 0 0 0 0 0 0 .4 0"/><feOffset dx="4.0" dy="4.0" in="blurOut2" result="blurOut3"/><feBlend in="SourceGraphic" in2="blurOut3" mode="normal"/></filter></defs><g><!--MD5=[38d6738ede9bb2a15aaf77a6e9238a8e]
class ProgrammingModel--><rect codeLine="3" fill="#FEFECE" filter="url(#fzrsvj10i35du)" height="92.7996" id="ProgrammingModel" style="stroke:#A80036;stroke-width:1.5;" width="165" x="586" y="7"/><ellipse cx="612.7" cy="23" fill="#B4A7E5" rx="11" ry="11" style="stroke:#A80036;stroke-width:1.0;"/><path d="M615.3719,26.2969 Q615.9188,26.2969 616.2,26.4844 Q616.4813,26.6563 616.4813,27.1563 Q616.4813,28 615.3719,28 L610.2313,28 Q609.1063,28 609.1063,27.1563 Q609.1063,26.6563 609.3875,26.4844 Q609.6844,26.2969 610.2313,26.2969 L611.95,26.2969 L611.95,19.7813 L610.2313,19.7813 Q609.1063,19.7813 609.1063,18.9375 Q609.1063,18.4531 609.3875,18.2813 Q609.6844,18.0938 610.2313,18.0938 L615.3719,18.0938 Q615.9188,18.0938 616.2,18.2813 Q616.4813,18.4531 616.4813,18.9375 Q616.4813,19.7813 615.3719,19.7813 L613.6531,19.7813 L613.6531,26.2969 L615.3719,26.2969 Z " fill="#000000"/><text fill="#000000" font-family="sans-serif" font-size="12" font-style="italic" lengthAdjust="spacing" textLength="107" x="629.3" y="27.8">ProgrammingModel</text><line style="stroke:#A80036;stroke-width:1.5;" x1="587" x2="750" y1="39" y2="39"/><text fill="#000000" font-family="sans-serif" font-size="11" lengthAdjust="spacing" textLength="153" x="592" y="53.9999">init(ProgrammingModelInitFilter)</text><text fill="#000000" font-family="sans-serif" font-size="11" lengthAdjust="spacing" textLength="72" x="592" y="67.1998">addFactory(...)</text><text fill="#000000" font-family="sans-serif" font-size="11" lengthAdjust="spacing" textLength="77" x="592" y="80.3997">addValidator(...)</text><text fill="#000000" font-family="sans-serif" font-size="11" lengthAdjust="spacing" textLength="105" x="592" y="93.5996">addPostProcessor(...)</text><!--MD5=[096c9e4936e6d7620496877d5fbdcbab]
class ProgrammingModelFacetsJava8--><rect codeLine="9" fill="#FEFECE" filter="url(#fzrsvj10i35du)" height="32" id="ProgrammingModelFacetsJava8" style="stroke:#A80036;stroke-width:1.5;" width="204" x="566.5" y="185"/><ellipse cx="581.5" cy="201" fill="#ADD1B2" rx="11" ry="11" style="stroke:#A80036;stroke-width:1.0;"/><path d="M580.8594,204.7813 Q581.6563,204.7813 582.2188,204.5938 Q582.7969,204.3906 583.0313,204.1719 Q583.2813,203.9375 583.5156,203.75 Q583.7656,203.5469 583.9844,203.5469 Q584.3281,203.5469 584.5781,203.8125 Q584.8438,204.0625 584.8438,204.3906 Q584.8438,205.125 583.6719,205.8125 Q582.5156,206.4844 580.8125,206.4844 Q578.6563,206.4844 577.2344,205.2188 Q575.8125,203.9531 575.8125,202.0156 L575.8125,200.8906 Q575.8125,198.8594 577.1406,197.4844 Q578.4688,196.0938 580.4375,196.0938 Q581.625,196.0938 582.8438,196.6719 L583.0156,196.75 Q583.3125,196.3438 583.7344,196.3438 Q584.2188,196.3438 584.3906,196.6406 Q584.5781,196.9219 584.5781,197.4688 L584.5781,198.8906 Q584.5781,200.0156 583.7344,200.0156 Q583.4219,200.0156 583.2188,199.8438 Q583.0313,199.6719 582.9844,199.5313 Q582.9531,199.375 582.9063,199.1094 Q582.7969,198.5938 582.2813,198.2813 Q581.7656,197.9688 581.3125,197.8906 Q580.875,197.7969 580.5,197.7969 Q579.2188,197.7969 578.3594,198.6719 Q577.5156,199.5469 577.5156,200.8906 L577.5156,201.9844 Q577.5156,203.2656 578.4219,204.0313 Q579.3281,204.7813 580.8594,204.7813 Z " fill="#000000"/><text fill="#000000" font-family="sans-serif" font-size="12" lengthAdjust="spacing" textLength="172" x="595.5" y="205.8">ProgrammingModelFacetsJava8</text><!--MD5=[a0b877c9e7bb7e2c48782e28dce99117]
class ProgrammingModelService--><rect codeLine="11" fill="#FEFECE" filter="url(#fzrsvj10i35du)" height="53.1999" id="ProgrammingModelService" style="stroke:#A80036;stroke-width:1.5;" width="229" x="251" y="27"/><ellipse cx="288.05" cy="43" fill="#B4A7E5" rx="11" ry="11" style="stroke:#A80036;stroke-width:1.0;"/><path d="M290.7219,46.2969 Q291.2688,46.2969 291.55,46.4844 Q291.8313,46.6563 291.8313,47.1563 Q291.8313,48 290.7219,48 L285.5813,48 Q284.4563,48 284.4563,47.1563 Q284.4563,46.6563 284.7375,46.4844 Q285.0344,46.2969 285.5813,46.2969 L287.3,46.2969 L287.3,39.7813 L285.5813,39.7813 Q284.4563,39.7813 284.4563,38.9375 Q284.4563,38.4531 284.7375,38.2813 Q285.0344,38.0938 285.5813,38.0938 L290.7219,38.0938 Q291.2688,38.0938 291.55,38.2813 Q291.8313,38.4531 291.8313,38.9375 Q291.8313,39.7813 290.7219,39.7813 L289.0031,39.7813 L289.0031,46.2969 L290.7219,46.2969 Z " fill="#000000"/><text fill="#000000" font-family="sans-serif" font-size="12" font-style="italic" lengthAdjust="spacing" textLength="148" x="306.95" y="47.8">ProgrammingModelService</text><line style="stroke:#A80036;stroke-width:1.5;" x1="252" x2="479" y1="59" y2="59"/><text fill="#000000" font-family="sans-serif" font-size="11" lengthAdjust="spacing" textLength="217" x="257" y="73.9999">getProgrammingModel(): ProgrammingModel</text><!--MD5=[3545f6548698a49c4881a15df820a457]
class ProgrammingModelServiceDefault--><rect codeLine="14" fill="#FEFECE" filter="url(#fzrsvj10i35du)" height="32" id="ProgrammingModelServiceDefault" style="stroke:#A80036;stroke-width:1.5;" width="211" x="260" y="185"/><ellipse cx="275" cy="201" fill="#ADD1B2" rx="11" ry="11" style="stroke:#A80036;stroke-width:1.0;"/><path d="M274.3594,204.7813 Q275.1563,204.7813 275.7188,204.5938 Q276.2969,204.3906 276.5313,204.1719 Q276.7813,203.9375 277.0156,203.75 Q277.2656,203.5469 277.4844,203.5469 Q277.8281,203.5469 278.0781,203.8125 Q278.3438,204.0625 278.3438,204.3906 Q278.3438,205.125 277.1719,205.8125 Q276.0156,206.4844 274.3125,206.4844 Q272.1563,206.4844 270.7344,205.2188 Q269.3125,203.9531 269.3125,202.0156 L269.3125,200.8906 Q269.3125,198.8594 270.6406,197.4844 Q271.9688,196.0938 273.9375,196.0938 Q275.125,196.0938 276.3438,196.6719 L276.5156,196.75 Q276.8125,196.3438 277.2344,196.3438 Q277.7188,196.3438 277.8906,196.6406 Q278.0781,196.9219 278.0781,197.4688 L278.0781,198.8906 Q278.0781,200.0156 277.2344,200.0156 Q276.9219,200.0156 276.7188,199.8438 Q276.5313,199.6719 276.4844,199.5313 Q276.4531,199.375 276.4063,199.1094 Q276.2969,198.5938 275.7813,198.2813 Q275.2656,197.9688 274.8125,197.8906 Q274.375,197.7969 274,197.7969 Q272.7188,197.7969 271.8594,198.6719 Q271.0156,199.5469 271.0156,200.8906 L271.0156,201.9844 Q271.0156,203.2656 271.9219,204.0313 Q272.8281,204.7813 274.3594,204.7813 Z " fill="#000000"/><text fill="#000000" font-family="sans-serif" font-size="12" lengthAdjust="spacing" textLength="179" x="289" y="205.8">ProgrammingModelServiceDefault</text><!--MD5=[36f14e065da8200f218be258912770bf]
class ProgrammingModelInitFilter--><rect codeLine="16" fill="#FEFECE" filter="url(#fzrsvj10i35du)" height="79.5997" id="ProgrammingModelInitFilter" style="stroke:#A80036;stroke-width:1.5;" width="181" x="37" y="161"/><ellipse cx="52" cy="177" fill="#B4A7E5" rx="11" ry="11" style="stroke:#A80036;stroke-width:1.0;"/><path d="M54.6719,180.2969 Q55.2188,180.2969 55.5,180.4844 Q55.7813,180.6563 55.7813,181.1563 Q55.7813,182 54.6719,182 L49.5313,182 Q48.4063,182 48.4063,181.1563 Q48.4063,180.6563 48.6875,180.4844 Q48.9844,180.2969 49.5313,180.2969 L51.25,180.2969 L51.25,173.7813 L49.5313,173.7813 Q48.4063,173.7813 48.4063,172.9375 Q48.4063,172.4531 48.6875,172.2813 Q48.9844,172.0938 49.5313,172.0938 L54.6719,172.0938 Q55.2188,172.0938 55.5,172.2813 Q55.7813,172.4531 55.7813,172.9375 Q55.7813,173.7813 54.6719,173.7813 L52.9531,173.7813 L52.9531,180.2969 L54.6719,180.2969 Z " fill="#000000"/><text fill="#000000" font-family="sans-serif" font-size="12" font-style="italic" lengthAdjust="spacing" textLength="149" x="66" y="181.8">ProgrammingModelInitFilter</text><line style="stroke:#A80036;stroke-width:1.5;" x1="38" x2="217" y1="193" y2="193"/><text fill="#000000" font-family="sans-serif" font-size="11" lengthAdjust="spacing" textLength="155" x="43" y="207.9999">boolean acceptFactoryType(...);</text><text fill="#000000" font-family="sans-serif" font-size="11" lengthAdjust="spacing" textLength="136" x="43" y="221.1998">boolean acceptValidator(...);</text><text fill="#000000" font-family="sans-serif" font-size="11" lengthAdjust="spacing" textLength="164" x="43" y="234.3997">boolean acceptPostProcessor(...);</text><!--MD5=[575427756d21eef766f04eee52c773c8]
class ProgrammingModelInitFilterDefault--><rect codeLine="21" fill="#FEFECE" filter="url(#fzrsvj10i35du)" height="32" id="ProgrammingModelInitFilterDefault" style="stroke:#A80036;stroke-width:1.5;" width="213" x="7" y="312.5"/><ellipse cx="22" cy="328.5" fill="#ADD1B2" rx="11" ry="11" style="stroke:#A80036;stroke-width:1.0;"/><path d="M21.3594,332.2813 Q22.1563,332.2813 22.7188,332.0938 Q23.2969,331.8906 23.5313,331.6719 Q23.7813,331.4375 24.0156,331.25 Q24.2656,331.0469 24.4844,331.0469 Q24.8281,331.0469 25.0781,331.3125 Q25.3438,331.5625 25.3438,331.8906 Q25.3438,332.625 24.1719,333.3125 Q23.0156,333.9844 21.3125,333.9844 Q19.1563,333.9844 17.7344,332.7188 Q16.3125,331.4531 16.3125,329.5156 L16.3125,328.3906 Q16.3125,326.3594 17.6406,324.9844 Q18.9688,323.5938 20.9375,323.5938 Q22.125,323.5938 23.3438,324.1719 L23.5156,324.25 Q23.8125,323.8438 24.2344,323.8438 Q24.7188,323.8438 24.8906,324.1406 Q25.0781,324.4219 25.0781,324.9688 L25.0781,326.3906 Q25.0781,327.5156 24.2344,327.5156 Q23.9219,327.5156 23.7188,327.3438 Q23.5313,327.1719 23.4844,327.0313 Q23.4531,326.875 23.4063,326.6094 Q23.2969,326.0938 22.7813,325.7813 Q22.2656,325.4688 21.8125,325.3906 Q21.375,325.2969 21,325.2969 Q19.7188,325.2969 18.8594,326.1719 Q18.0156,327.0469 18.0156,328.3906 L18.0156,329.4844 Q18.0156,330.7656 18.9219,331.5313 Q19.8281,332.2813 21.3594,332.2813 Z " fill="#000000"/><text fill="#000000" font-family="sans-serif" font-size="12" lengthAdjust="spacing" textLength="181" x="36" y="333.3">ProgrammingModelInitFilterDefault</text><!--MD5=[231bb3eda1eda48c926d29adf75ba578]
class MetaModelRefiner--><rect codeLine="24" fill="#FEFECE" filter="url(#fzrsvj10i35du)" height="53.1999" id="MetaModelRefiner" style="stroke:#A80036;stroke-width:1.5;" width="235" x="255" y="302"/><ellipse cx="318.25" cy="318" fill="#B4A7E5" rx="11" ry="11" style="stroke:#A80036;stroke-width:1.0;"/><path d="M320.9219,321.2969 Q321.4688,321.2969 321.75,321.4844 Q322.0313,321.6563 322.0313,322.1563 Q322.0313,323 320.9219,323 L315.7813,323 Q314.6563,323 314.6563,322.1563 Q314.6563,321.6563 314.9375,321.4844 Q315.2344,321.2969 315.7813,321.2969 L317.5,321.2969 L317.5,314.7813 L315.7813,314.7813 Q314.6563,314.7813 314.6563,313.9375 Q314.6563,313.4531 314.9375,313.2813 Q315.2344,313.0938 315.7813,313.0938 L320.9219,313.0938 Q321.4688,313.0938 321.75,313.2813 Q322.0313,313.4531 322.0313,313.9375 Q322.0313,314.7813 320.9219,314.7813 L319.2031,314.7813 L319.2031,321.2969 L320.9219,321.2969 Z " fill="#000000"/><text fill="#000000" font-family="sans-serif" font-size="12" font-style="italic" lengthAdjust="spacing" textLength="100" x="338.75" y="322.8">MetaModelRefiner</text><line style="stroke:#A80036;stroke-width:1.5;" x1="256" x2="489" y1="334" y2="334"/><text fill="#000000" font-family="sans-serif" font-size="11" lengthAdjust="spacing" textLength="223" x="261" y="348.9999">refineProgrammingModel(ProgrammingModel)</text><!--MD5=[ce0afb130fdeee45ed487ce64805b411]
link MetaModelRefiner to ProgrammingModel--><path codeLine="28" d="M490.22,319.27 C599.74,308.88 751.46,286.53 788.5,241 C810.94,213.42 803.08,193.43 788.5,161 C778.57,138.92 761.55,119.55 743.4,103.6 " fill="none" id="MetaModelRefiner-to-ProgrammingModel" style="stroke:#A80036;stroke-width:1.0;stroke-dasharray:7.0,7.0;"/><polygon fill="#A80036" points="739.26,100.04,743.4736,108.942,743.0502,103.301,748.6912,102.8777,739.26,100.04" style="stroke:#A80036;stroke-width:1.0;"/><!--MD5=[6c2b2ea675b299f77338a2317f64c9af]
link ProgrammingModelService to ProgrammingModel--><path codeLine="29" d="M480.01,53.5 C513.44,53.5 546.87,53.5 580.3,53.5 " fill="none" id="ProgrammingModelService-to-ProgrammingModel" style="stroke:#A80036;stroke-width:1.0;stroke-dasharray:7.0,7.0;"/><polygon fill="#A80036" points="585.67,53.5,576.67,49.5,580.67,53.5,576.67,57.5,585.67,53.5" style="stroke:#A80036;stroke-width:1.0;"/><!--MD5=[60aee48f12e41f7206e720f7f56eb015]
link ProgrammingModelServiceDefault to ProgrammingModelFacetsJava8--><path codeLine="31" d="M471.05,201 C500.27,201 532.01,201 561.33,201 " fill="none" id="ProgrammingModelServiceDefault-to-ProgrammingModelFacetsJava8" style="stroke:#A80036;stroke-width:1.0;"/><polygon fill="#A80036" points="566.39,201,557.39,197,561.39,201,557.39,205,566.39,201" style="stroke:#A80036;stroke-width:1.0;"/><text fill="#000000" font-family="sans-serif" font-size="13" lengthAdjust="spacing" textLength="59" x="489.25" y="195">instantiate</text><!--MD5=[c24b65672d1b1ef47e3ef0dbb9fcc387]
reverse link ProgrammingModelInitFilter to ProgrammingModelServiceDefault--><path codeLine="32" d="M223.36,201 C235.53,201 247.7,201 259.88,201 " fill="none" id="ProgrammingModelInitFilter-backto-ProgrammingModelServiceDefault" style="stroke:#A80036;stroke-width:1.0;"/><polygon fill="#A80036" points="218.14,201,227.14,205,223.14,201,227.14,197,218.14,201" style="stroke:#A80036;stroke-width:1.0;"/><!--MD5=[c5352f78f2b28b2f0ea651ca42611fe8]
link ProgrammingModelServiceDefault to MetaModelRefiner--><path codeLine="33" d="M366.36,217.39 C367.46,237.07 369.38,271.6 370.79,296.75 " fill="none" id="ProgrammingModelServiceDefault-to-MetaModelRefiner" style="stroke:#A80036;stroke-width:1.0;"/><polygon fill="#A80036" points="371.08,301.97,374.5585,292.7559,370.7939,296.9782,366.5716,293.2136,371.08,301.97" style="stroke:#A80036;stroke-width:1.0;"/><text fill="#000000" font-family="sans-serif" font-size="13" lengthAdjust="spacing" textLength="18" x="350.4099" y="291.3011">0..*</text><!--MD5=[bbcd0e9d29db4589902cd649aa6e1d37]
reverse link ProgrammingModel to ProgrammingModelFacetsJava8--><path codeLine="35" d="M668.5,120.26 C668.5,144.26 668.5,169.28 668.5,184.75 " fill="none" id="ProgrammingModel-backto-ProgrammingModelFacetsJava8" style="stroke:#A80036;stroke-width:1.0;"/><polygon fill="none" points="661.5,120.14,668.5,100.14,675.5,120.14,661.5,120.14" style="stroke:#A80036;stroke-width:1.0;"/><!--MD5=[371aab221b6bfdcc38a736851a62a624]
reverse link ProgrammingModelService to ProgrammingModelServiceDefault--><path codeLine="36" d="M365.5,100.25 C365.5,129.27 365.5,164.97 365.5,184.83 " fill="none" id="ProgrammingModelService-backto-ProgrammingModelServiceDefault" style="stroke:#A80036;stroke-width:1.0;"/><polygon fill="none" points="358.5,100.18,365.5,80.18,372.5,100.18,358.5,100.18" style="stroke:#A80036;stroke-width:1.0;"/><!--MD5=[3a32fcefc14db8d2503a8a85909c2161]
reverse link ProgrammingModelInitFilter to ProgrammingModelInitFilterDefault--><path codeLine="37" d="M120.9,261.12 C118.79,280.11 116.62,299.55 115.18,312.44 " fill="none" id="ProgrammingModelInitFilter-backto-ProgrammingModelInitFilterDefault" style="stroke:#A80036;stroke-width:1.0;"/><polygon fill="none" points="113.97,260.12,123.15,241.02,127.89,261.67,113.97,260.12" style="stroke:#A80036;stroke-width:1.0;"/><!--MD5=[f38ad4076e1f54091eef18f3a2ba1722]
@startuml
hide empty members

interface ProgrammingModel {
    init(ProgrammingModelInitFilter)
    addFactory(...)
    addValidator(...)
    addPostProcessor(...)
}
class ProgrammingModelFacetsJava8 {}

interface ProgrammingModelService {
    getProgrammingModel(): ProgrammingModel
}
class ProgrammingModelServiceDefault {}

interface ProgrammingModelInitFilter {
    boolean acceptFactoryType(...);
    boolean acceptValidator(...);
    boolean acceptPostProcessor(...);
}
class ProgrammingModelInitFilterDefault {
}

interface MetaModelRefiner {
    refineProgrammingModel(ProgrammingModel)
}

MetaModelRefiner -.[norank]r> ProgrammingModel
ProgrammingModelService -.[norank]r> ProgrammingModel

ProgrammingModelServiceDefault -> ProgrammingModelFacetsJava8 : instantiate
ProgrammingModelServiceDefault -l-> ProgrammingModelInitFilter
ProgrammingModelServiceDefault -d-> "0..*" MetaModelRefiner

ProgrammingModel ^-d- ProgrammingModelFacetsJava8
ProgrammingModelService ^-d- ProgrammingModelServiceDefault
ProgrammingModelInitFilter ^-d- ProgrammingModelInitFilterDefault
@enduml

PlantUML version 1.2021.8(Sat Jun 26 08:20:59 GMT 2021)
(GPL source distribution)
Java Runtime: OpenJDK Runtime Environment
JVM: OpenJDK 64-Bit Server VM
Default Encoding: UTF-8
Language: en
Country: US
--></g></svg>