<svg xmlns="http://www.w3.org/2000/svg" xmlns:xlink="http://www.w3.org/1999/xlink" contentStyleType="text/css" data-diagram-type="CLASS" height="386px" preserveAspectRatio="none" style="width:1020px;height:386px;background:#FFFFFF;" version="1.1" viewBox="0 0 1020 386" width="1020px" zoomAndPan="magnify"><defs/><g><!--class ProgrammingModel--><g class="entity" data-entity="ProgrammingModel" data-source-line="3" data-uid="ent0002" id="entity_ProgrammingModel"><rect fill="#F1F1F1" height="105.1875" rx="2.5" ry="2.5" style="stroke:#181818;stroke-width:0.5;" width="240.0811" x="724.04" y="7"/><ellipse cx="771.3584" cy="23" fill="#B4A7E5" rx="11" ry="11" style="stroke:#181818;stroke-width:1;"/><path d="M767.2802,18.7656 L767.2802,16.6094 L774.6709,16.6094 L774.6709,18.7656 L772.2021,18.7656 L772.2021,26.8438 L774.6709,26.8438 L774.6709,29 L767.2802,29 L767.2802,26.8438 L769.749,26.8438 L769.749,18.7656 L767.2802,18.7656 Z " fill="#000000"/><text fill="#000000" font-family="sans-serif" font-size="14" font-style="italic" lengthAdjust="spacing" textLength="136.9443" x="791.8584" y="27.8467">ProgrammingModel</text><line style="stroke:#181818;stroke-width:0.5;" x1="725.04" x2="963.1211" y1="39" y2="39"/><text fill="#000000" font-family="sans-serif" font-size="14" lengthAdjust="spacing" textLength="228.0811" x="730.04" y="55.9951">init(ProgrammingModelInitFilter)</text><text fill="#000000" font-family="sans-serif" font-size="14" lengthAdjust="spacing" textLength="103.0518" x="730.04" y="72.292">addFactory(...)</text><text fill="#000000" font-family="sans-serif" font-size="14" lengthAdjust="spacing" textLength="113.8389" x="730.04" y="88.5889">addValidator(...)</text><text fill="#000000" font-family="sans-serif" font-size="14" lengthAdjust="spacing" textLength="148.4014" x="730.04" y="104.8857">addPostProcessor(...)</text></g><!--class ProgrammingModelFacetsJava8--><g class="entity" data-entity="ProgrammingModelFacetsJava8" data-source-line="9" data-uid="ent0003" id="entity_ProgrammingModelFacetsJava8"><rect fill="#F1F1F1" height="32" rx="2.5" ry="2.5" style="stroke:#181818;stroke-width:0.5;" width="253.1494" x="717.51" y="201.64"/><ellipse cx="732.51" cy="217.64" fill="#ADD1B2" rx="11" ry="11" style="stroke:#181818;stroke-width:1;"/><path d="M735.4788,223.2806 Q734.9006,223.5775 734.26,223.7181 Q733.6194,223.8744 732.9163,223.8744 Q730.4163,223.8744 729.0881,222.2338 Q727.7756,220.5775 727.7756,217.4525 Q727.7756,214.3275 729.0881,212.6713 Q730.4163,211.015 732.9163,211.015 Q733.6194,211.015 734.26,211.1713 Q734.9163,211.3275 735.4788,211.6244 L735.4788,214.3431 Q734.8538,213.765 734.26,213.4994 Q733.6663,213.2181 733.0413,213.2181 Q731.6975,213.2181 731.01,214.2963 Q730.3225,215.3588 730.3225,217.4525 Q730.3225,219.5463 731.01,220.6244 Q731.6975,221.6869 733.0413,221.6869 Q733.6663,221.6869 734.26,221.4213 Q734.8538,221.14 735.4788,220.5619 L735.4788,223.2806 Z " fill="#000000"/><text fill="#000000" font-family="sans-serif" font-size="14" lengthAdjust="spacing" textLength="221.1494" x="746.51" y="222.4867">ProgrammingModelFacetsJava8</text></g><!--class ProgrammingModelService--><g class="entity" data-entity="ProgrammingModelService" data-source-line="11" data-uid="ent0004" id="entity_ProgrammingModelService"><rect fill="#F1F1F1" height="56.2969" rx="2.5" ry="2.5" style="stroke:#181818;stroke-width:0.5;" width="328.9688" x="311.6" y="31.45"/><ellipse cx="377.4916" cy="47.45" fill="#B4A7E5" rx="11" ry="11" style="stroke:#181818;stroke-width:1;"/><path d="M373.4135,43.2156 L373.4135,41.0594 L380.8041,41.0594 L380.8041,43.2156 L378.3354,43.2156 L378.3354,51.2937 L380.8041,51.2937 L380.8041,53.45 L373.4135,53.45 L373.4135,51.2937 L375.8822,51.2937 L375.8822,43.2156 L373.4135,43.2156 Z " fill="#000000"/><text fill="#000000" font-family="sans-serif" font-size="14" font-style="italic" lengthAdjust="spacing" textLength="188.6855" x="397.9916" y="52.2967">ProgrammingModelService</text><line style="stroke:#181818;stroke-width:0.5;" x1="312.6" x2="639.5688" y1="63.45" y2="63.45"/><text fill="#000000" font-family="sans-serif" font-size="14" lengthAdjust="spacing" textLength="316.9688" x="317.6" y="80.4451">getProgrammingModel(): ProgrammingModel</text></g><!--class ProgrammingModelServiceDefault--><g class="entity" data-entity="ProgrammingModelServiceDefault" data-source-line="14" data-uid="ent0005" id="entity_ProgrammingModelServiceDefault"><rect fill="#F1F1F1" height="32" rx="2.5" ry="2.5" style="stroke:#181818;stroke-width:0.5;" width="271.8389" x="340.17" y="201.64"/><ellipse cx="355.17" cy="217.64" fill="#ADD1B2" rx="11" ry="11" style="stroke:#181818;stroke-width:1;"/><path d="M358.1388,223.2806 Q357.5606,223.5775 356.92,223.7181 Q356.2794,223.8744 355.5763,223.8744 Q353.0763,223.8744 351.7481,222.2338 Q350.4356,220.5775 350.4356,217.4525 Q350.4356,214.3275 351.7481,212.6713 Q353.0763,211.015 355.5763,211.015 Q356.2794,211.015 356.92,211.1713 Q357.5763,211.3275 358.1388,211.6244 L358.1388,214.3431 Q357.5138,213.765 356.92,213.4994 Q356.3263,213.2181 355.7013,213.2181 Q354.3575,213.2181 353.67,214.2963 Q352.9825,215.3588 352.9825,217.4525 Q352.9825,219.5463 353.67,220.6244 Q354.3575,221.6869 355.7013,221.6869 Q356.3263,221.6869 356.92,221.4213 Q357.5138,221.14 358.1388,220.5619 L358.1388,223.2806 Z " fill="#000000"/><text fill="#000000" font-family="sans-serif" font-size="14" lengthAdjust="spacing" textLength="239.8389" x="369.17" y="222.4867">ProgrammingModelServiceDefault</text></g><!--class ProgrammingModelInitFilter--><g class="entity" data-entity="ProgrammingModelInitFilter" data-source-line="16" data-uid="ent0006" id="entity_ProgrammingModelInitFilter"><rect fill="#F1F1F1" height="88.8906" rx="2.5" ry="2.5" style="stroke:#181818;stroke-width:0.5;" width="246.1514" x="47.01" y="173.19"/><ellipse cx="70.6211" cy="189.19" fill="#B4A7E5" rx="11" ry="11" style="stroke:#181818;stroke-width:1;"/><path d="M66.543,184.9556 L66.543,182.7994 L73.9336,182.7994 L73.9336,184.9556 L71.4648,184.9556 L71.4648,193.0338 L73.9336,193.0338 L73.9336,195.19 L66.543,195.19 L66.543,193.0338 L69.0117,193.0338 L69.0117,184.9556 L66.543,184.9556 Z " fill="#000000"/><text fill="#000000" font-family="sans-serif" font-size="14" font-style="italic" lengthAdjust="spacing" textLength="195.0156" x="86.5347" y="194.0367">ProgrammingModelInitFilter</text><line style="stroke:#181818;stroke-width:0.5;" x1="48.01" x2="292.1614" y1="205.19" y2="205.19"/><text fill="#000000" font-family="sans-serif" font-size="14" lengthAdjust="spacing" textLength="223.1387" x="53.01" y="222.1851">boolean acceptFactoryType(...);</text><text fill="#000000" font-family="sans-serif" font-size="14" lengthAdjust="spacing" textLength="199.5889" x="53.01" y="238.482">boolean acceptValidator(...);</text><text fill="#000000" font-family="sans-serif" font-size="14" lengthAdjust="spacing" textLength="234.1514" x="53.01" y="254.7789">boolean acceptPostProcessor(...);</text></g><!--class ProgrammingModelInitFilterDefault--><g class="entity" data-entity="ProgrammingModelInitFilterDefault" data-source-line="21" data-uid="ent0007" id="entity_ProgrammingModelInitFilterDefault"><rect fill="#F1F1F1" height="32" rx="2.5" ry="2.5" style="stroke:#181818;stroke-width:0.5;" width="278.1689" x="7" y="335.23"/><ellipse cx="22" cy="351.23" fill="#ADD1B2" rx="11" ry="11" style="stroke:#181818;stroke-width:1;"/><path d="M24.9688,356.8706 Q24.3906,357.1675 23.75,357.3081 Q23.1094,357.4644 22.4063,357.4644 Q19.9063,357.4644 18.5781,355.8238 Q17.2656,354.1675 17.2656,351.0425 Q17.2656,347.9175 18.5781,346.2613 Q19.9063,344.605 22.4063,344.605 Q23.1094,344.605 23.75,344.7613 Q24.4063,344.9175 24.9688,345.2144 L24.9688,347.9331 Q24.3438,347.355 23.75,347.0894 Q23.1563,346.8081 22.5313,346.8081 Q21.1875,346.8081 20.5,347.8863 Q19.8125,348.9488 19.8125,351.0425 Q19.8125,353.1363 20.5,354.2144 Q21.1875,355.2769 22.5313,355.2769 Q23.1563,355.2769 23.75,355.0113 Q24.3438,354.73 24.9688,354.1519 L24.9688,356.8706 Z " fill="#000000"/><text fill="#000000" font-family="sans-serif" font-size="14" lengthAdjust="spacing" textLength="246.1689" x="36" y="356.0767">ProgrammingModelInitFilterDefault</text></g><!--class MetaModelRefiner--><g class="entity" data-entity="MetaModelRefiner" data-source-line="24" data-uid="ent0008" id="entity_MetaModelRefiner"><rect fill="#F1F1F1" height="56.2969" rx="2.5" ry="2.5" style="stroke:#181818;stroke-width:0.5;" width="337.4863" x="320.34" y="323.08"/><ellipse cx="421.235" cy="339.08" fill="#B4A7E5" rx="11" ry="11" style="stroke:#181818;stroke-width:1;"/><path d="M417.1569,334.8456 L417.1569,332.6894 L424.5475,332.6894 L424.5475,334.8456 L422.0788,334.8456 L422.0788,342.9238 L424.5475,342.9238 L424.5475,345.08 L417.1569,345.08 L417.1569,342.9238 L419.6256,342.9238 L419.6256,334.8456 L417.1569,334.8456 Z " fill="#000000"/><text fill="#000000" font-family="sans-serif" font-size="14" font-style="italic" lengthAdjust="spacing" textLength="127.1963" x="441.735" y="343.9267">MetaModelRefiner</text><line style="stroke:#181818;stroke-width:0.5;" x1="321.34" x2="656.8263" y1="355.08" y2="355.08"/><text fill="#000000" font-family="sans-serif" font-size="14" lengthAdjust="spacing" textLength="325.4863" x="326.34" y="372.0751">refineProgrammingModel(ProgrammingModel)</text></g><!--link MetaModelRefiner to ProgrammingModel--><g class="link" data-entity-1="MetaModelRefiner" data-entity-2="ProgrammingModel" data-source-line="28" data-uid="lnk9" id="link_MetaModelRefiner_ProgrammingModel"><path codeLine="28" d="M658.25,343.03 C786,333.63 946.25,311.96 988.08,262.08 C1013.47,231.82 1005.4,208.7 988.08,173.19 C976.47,149.37 961.8245,132.8339 941.0045,116.3539" fill="none" id="MetaModelRefiner-to-ProgrammingModel" style="stroke:#181818;stroke-width:1;stroke-dasharray:7.0,7.0;"/><polygon fill="#181818" points="936.3,112.63,940.8742,121.3522,940.2205,115.7332,945.8394,115.0794,936.3,112.63" style="stroke:#181818;stroke-width:1;"/></g><!--link ProgrammingModelService to ProgrammingModel--><g class="link" data-entity-1="ProgrammingModelService" data-entity-2="ProgrammingModel" data-source-line="29" data-uid="lnk10" id="link_ProgrammingModelService_ProgrammingModel"><path codeLine="29" d="M641.04,59.6 C668.67,59.6 690.29,59.6 717.92,59.6" fill="none" id="ProgrammingModelService-to-ProgrammingModel" style="stroke:#181818;stroke-width:1;stroke-dasharray:7.0,7.0;"/><polygon fill="#181818" points="723.92,59.6,714.92,55.6,718.92,59.6,714.92,63.6,723.92,59.6" style="stroke:#181818;stroke-width:1;"/></g><!--link ProgrammingModelServiceDefault to ProgrammingModelFacetsJava8--><g class="link" data-entity-1="ProgrammingModelServiceDefault" data-entity-2="ProgrammingModelFacetsJava8" data-source-line="31" data-uid="lnk11" id="link_ProgrammingModelServiceDefault_ProgrammingModelFacetsJava8"><path codeLine="31" d="M612.33,217.64 C646.61,217.64 677.26,217.64 711.07,217.64" fill="none" id="ProgrammingModelServiceDefault-to-ProgrammingModelFacetsJava8" style="stroke:#181818;stroke-width:1;"/><polygon fill="#181818" points="717.07,217.64,708.07,213.64,712.07,217.64,708.07,221.64,717.07,217.64" style="stroke:#181818;stroke-width:1;"/><text fill="#000000" font-family="sans-serif" font-size="13" lengthAdjust="spacing" textLength="69.6973" x="630.26" y="210.7069">instantiate</text></g><!--reverse link ProgrammingModelInitFilter to ProgrammingModelServiceDefault--><g class="link" data-entity-1="ProgrammingModelInitFilter" data-entity-2="ProgrammingModelServiceDefault" data-source-line="32" data-uid="lnk13" id="link_ProgrammingModelInitFilter_ProgrammingModelServiceDefault"><path codeLine="32" d="M299.5,217.64 C314.95,217.64 324.41,217.64 339.86,217.64" fill="none" id="ProgrammingModelInitFilter-backto-ProgrammingModelServiceDefault" style="stroke:#181818;stroke-width:1;"/><polygon fill="#181818" points="293.5,217.64,302.5,221.64,298.5,217.64,302.5,213.64,293.5,217.64" style="stroke:#181818;stroke-width:1;"/></g><!--link ProgrammingModelServiceDefault to MetaModelRefiner--><g class="link" data-entity-1="ProgrammingModelServiceDefault" data-entity-2="MetaModelRefiner" data-source-line="33" data-uid="lnk14" id="link_ProgrammingModelServiceDefault_MetaModelRefiner"><path codeLine="33" d="M477.6,233.99 C479.74,255.69 483.0982,289.6993 485.7682,316.6393" fill="none" id="ProgrammingModelServiceDefault-to-MetaModelRefiner" style="stroke:#181818;stroke-width:1;"/><polygon fill="#181818" points="486.36,322.61,489.4529,313.2594,485.8669,317.6344,481.4919,314.0484,486.36,322.61" style="stroke:#181818;stroke-width:1;"/><text fill="#000000" font-family="sans-serif" font-size="13" lengthAdjust="spacing" textLength="23.0356" x="460.2526" y="311.7905">0..*</text></g><!--reverse link ProgrammingModel to ProgrammingModelFacetsJava8--><g class="link" data-entity-1="ProgrammingModel" data-entity-2="ProgrammingModelFacetsJava8" data-source-line="35" data-uid="lnk15" id="link_ProgrammingModel_ProgrammingModelFacetsJava8"><path codeLine="35" d="M844.08,130.56 C844.08,161.59 844.08,180.83 844.08,201.29" fill="none" id="ProgrammingModel-backto-ProgrammingModelFacetsJava8" style="stroke:#181818;stroke-width:1;"/><polygon fill="none" points="844.08,112.56,838.08,130.56,850.08,130.56,844.08,112.56" style="stroke:#181818;stroke-width:1;"/></g><!--reverse link ProgrammingModelService to ProgrammingModelServiceDefault--><g class="link" data-entity-1="ProgrammingModelService" data-entity-2="ProgrammingModelServiceDefault" data-source-line="36" data-uid="lnk16" id="link_ProgrammingModelService_ProgrammingModelServiceDefault"><path codeLine="36" d="M476.08,106.14 C476.08,139.03 476.08,174.91 476.08,201.22" fill="none" id="ProgrammingModelService-backto-ProgrammingModelServiceDefault" style="stroke:#181818;stroke-width:1;"/><polygon fill="none" points="476.08,88.14,470.08,106.14,482.08,106.14,476.08,88.14" style="stroke:#181818;stroke-width:1;"/></g><!--reverse link ProgrammingModelInitFilter to ProgrammingModelInitFilterDefault--><g class="link" data-entity-1="ProgrammingModelInitFilter" data-entity-2="ProgrammingModelInitFilterDefault" data-source-line="37" data-uid="lnk17" id="link_ProgrammingModelInitFilter_ProgrammingModelInitFilterDefault"><path codeLine="37" d="M158.8632,280.1684 C154.3132,305.1384 152.11,317.17 148.89,334.84" fill="none" id="ProgrammingModelInitFilter-backto-ProgrammingModelInitFilterDefault" style="stroke:#181818;stroke-width:1;"/><polygon fill="none" points="162.09,262.46,152.9604,279.0928,164.766,281.244,162.09,262.46" style="stroke:#181818;stroke-width:1;"/></g><!--SRC=[XLBBQiCm4BphAqHEJY6Ynv90JYNGGY2qfPVImaPUkwAoPAHjm8JyUrNNjN7aXsyUpUpEpkwdIf5ZKLB52ooEw3nZoX2w32JoWxEvWw9G9j_R53K_Cnu-PHGbrsyF0Tmf7QJBcWHfkWD9rbM94AB5Na6h50BSGm_MKoWeqVl_bmkJ6hoFF8IYIFuHJd37pvSfjy_eJYhWVwPpf6j2ibn7ej6-JRLxpE1RqqphBeoc-z5QZM0uI8abDS6yL2NMmsu6EFsWXXXnQ9jHzvsXTW3Mcs2F13Np2JDbMj-k_ek2kmP-ryMY4YlnPgm3y_Nkjd7GO-kQLh6PlQosanUp3iVh2Gmf89ojfGUgTKdEojCWNzmASRE8uetdu1-1F-LzDB11OTyBcpZGGNbqBpy0]--></g></svg>