<?xml version="1.0" encoding="us-ascii" standalone="no"?><svg xmlns="http://www.w3.org/2000/svg" xmlns:xlink="http://www.w3.org/1999/xlink" contentStyleType="text/css" height="228px" preserveAspectRatio="none" style="width:465px;height:228px;background:#FFFFFF;" version="1.1" viewBox="0 0 465 228" width="465px" zoomAndPan="magnify"><defs/><g><!--cluster mailmerge--><g id="cluster_mailmerge"><path d="M8.5,6 L91.5,6 A3.75,3.75 0 0 1 94,8.5 L101,28.2969 L215.5,28.2969 A2.5,2.5 0 0 1 218,30.7969 L218,94.76 A2.5,2.5 0 0 1 215.5,97.26 L8.5,97.26 A2.5,2.5 0 0 1 6,94.76 L6,8.5 A2.5,2.5 0 0 1 8.5,6 " fill="none" style="stroke:#000000;stroke-width:1.5;"/><line style="stroke:#000000;stroke-width:1.5;" x1="6" x2="101" y1="28.2969" y2="28.2969"/><text fill="#000000" font-family="sans-serif" font-size="14" font-weight="bold" lengthAdjust="spacing" textLength="82" x="10" y="20.9951">mailmerge</text></g><!--cluster address--><g id="cluster_address"><path d="M314.5,10.13 L379.5,10.13 A3.75,3.75 0 0 1 382,12.63 L389,32.4269 L455.5,32.4269 A2.5,2.5 0 0 1 458,34.9269 L458,90.63 A2.5,2.5 0 0 1 455.5,93.13 L314.5,93.13 A2.5,2.5 0 0 1 312,90.63 L312,12.63 A2.5,2.5 0 0 1 314.5,10.13 " fill="none" style="stroke:#000000;stroke-width:1.5;"/><line style="stroke:#000000;stroke-width:1.5;" x1="312" x2="389" y1="32.4269" y2="32.4269"/><text fill="#000000" font-family="sans-serif" font-size="14" font-weight="bold" lengthAdjust="spacing" textLength="64" x="316" y="25.1251">address</text></g><!--cluster customers--><g id="cluster_customers"><path d="M321.5,130.26 L406.5,130.26 A3.75,3.75 0 0 1 409,132.76 L416,152.5569 L448.5,152.5569 A2.5,2.5 0 0 1 451,155.0569 L451,219.03 A2.5,2.5 0 0 1 448.5,221.53 L321.5,221.53 A2.5,2.5 0 0 1 319,219.03 L319,132.76 A2.5,2.5 0 0 1 321.5,130.26 " fill="none" style="stroke:#000000;stroke-width:1.5;"/><line style="stroke:#000000;stroke-width:1.5;" x1="319" x2="416" y1="152.5569" y2="152.5569"/><text fill="#000000" font-family="sans-serif" font-size="14" font-weight="bold" lengthAdjust="spacing" textLength="84" x="323" y="145.2551">customers</text></g><!--class HasAddress_mailshot--><g id="elem_HasAddress_mailshot"><rect codeLine="20" fill="#FFFFE0" height="40.2656" id="HasAddress_mailshot" rx="2.5" ry="2.5" style="stroke:#181818;stroke-width:0.5;" width="180" x="22" y="41"/><ellipse cx="37" cy="61.1328" fill="#ADD1B2" rx="11" ry="11" style="stroke:#181818;stroke-width:1.0;"/><path d="M39.9688,66.7734 Q39.3906,67.0703 38.75,67.2109 Q38.1094,67.3672 37.4063,67.3672 Q34.9063,67.3672 33.5781,65.7266 Q32.2656,64.0703 32.2656,60.9453 Q32.2656,57.8203 33.5781,56.1641 Q34.9063,54.5078 37.4063,54.5078 Q38.1094,54.5078 38.75,54.6641 Q39.4063,54.8203 39.9688,55.1172 L39.9688,57.8359 Q39.3438,57.2578 38.75,56.9922 Q38.1563,56.7109 37.5313,56.7109 Q36.1875,56.7109 35.5,57.7891 Q34.8125,58.8516 34.8125,60.9453 Q34.8125,63.0391 35.5,64.1172 Q36.1875,65.1797 37.5313,65.1797 Q38.1563,65.1797 38.75,64.9141 Q39.3438,64.6328 39.9688,64.0547 L39.9688,66.7734 Z " fill="#000000"/><text fill="#000000" font-family="sans-serif" font-size="12" font-style="italic" lengthAdjust="spacing" textLength="45" x="102.5" y="57.1387">&#171;mixin&#187;</text><text fill="#000000" font-family="sans-serif" font-size="14" lengthAdjust="spacing" textLength="148" x="51" y="72.9639">HasAddress_mailshot</text></g><!--class HasAddress--><g id="elem_HasAddress"><rect codeLine="24" fill="#F1F1F1" height="32" id="HasAddress" rx="2.5" ry="2.5" style="stroke:#181818;stroke-width:0.5;" width="115" x="327.5" y="45.13"/><ellipse cx="342.5" cy="61.13" fill="#B4A7E5" rx="11" ry="11" style="stroke:#181818;stroke-width:1.0;"/><path d="M338.4219,56.8956 L338.4219,54.7394 L345.8125,54.7394 L345.8125,56.8956 L343.3438,56.8956 L343.3438,64.9738 L345.8125,64.9738 L345.8125,67.13 L338.4219,67.13 L338.4219,64.9738 L340.8906,64.9738 L340.8906,56.8956 L338.4219,56.8956 Z " fill="#000000"/><text fill="#000000" font-family="sans-serif" font-size="14" font-style="italic" lengthAdjust="spacing" textLength="83" x="356.5" y="65.9767">HasAddress</text></g><!--class Customer--><g id="elem_Customer"><rect codeLine="28" fill="#90EE90" height="40.2656" id="Customer" rx="2.5" ry="2.5" style="stroke:#181818;stroke-width:0.5;" width="100" x="335" y="165.26"/><ellipse cx="350" cy="185.3928" fill="#ADD1B2" rx="11" ry="11" style="stroke:#181818;stroke-width:1.0;"/><path d="M352.9688,191.0334 Q352.3906,191.3303 351.75,191.4709 Q351.1094,191.6272 350.4063,191.6272 Q347.9063,191.6272 346.5781,189.9866 Q345.2656,188.3303 345.2656,185.2053 Q345.2656,182.0803 346.5781,180.4241 Q347.9063,178.7678 350.4063,178.7678 Q351.1094,178.7678 351.75,178.9241 Q352.4063,179.0803 352.9688,179.3772 L352.9688,182.0959 Q352.3438,181.5178 351.75,181.2522 Q351.1563,180.9709 350.5313,180.9709 Q349.1875,180.9709 348.5,182.0491 Q347.8125,183.1116 347.8125,185.2053 Q347.8125,187.2991 348.5,188.3772 Q349.1875,189.4397 350.5313,189.4397 Q351.1563,189.4397 351.75,189.1741 Q352.3438,188.8928 352.9688,188.3147 L352.9688,191.0334 Z " fill="#000000"/><text fill="#000000" font-family="sans-serif" font-size="12" font-style="italic" lengthAdjust="spacing" textLength="35" x="380.5" y="181.3987">&#171;ppt&#187;</text><text fill="#000000" font-family="sans-serif" font-size="14" lengthAdjust="spacing" textLength="68" x="364" y="197.2239">Customer</text></g><!--link HasAddress_mailshot to HasAddress--><g id="link_HasAddress_mailshot_HasAddress"><path codeLine="30" d="M202.15,61.13 C241.21,61.13 286.03,61.13 321.52,61.13 " fill="none" id="HasAddress_mailshot-to-HasAddress" style="stroke:#181818;stroke-width:1.0;stroke-dasharray:7.0,7.0;"/><polygon fill="#181818" points="326.13,61.13,317.13,57.13,321.13,61.13,317.13,65.13,326.13,61.13" style="stroke:#181818;stroke-width:1.0;"/><text fill="#000000" font-family="sans-serif" font-size="13" lengthAdjust="spacing" textLength="89" x="220.25" y="54.1969">contributes to</text></g><!--reverse link HasAddress to Customer--><g id="link_HasAddress_Customer"><path codeLine="31" d="M385,98.28 C385,120.14 385,147.14 385,165.01 " fill="none" id="HasAddress-backto-Customer" style="stroke:#181818;stroke-width:1.0;"/><polygon fill="none" points="378,98.62,385,78.62,392,98.62,378,98.62" style="stroke:#181818;stroke-width:1.0;"/></g><!--SRC=[ZTAzJiGm30VmlKyHtLuU09qgGGSO6DWG2yZNcDPglXIxTrI8ToVGtYcWm96fId_-MxKxa4Q5DiYiBDeTHgug7ia5Y61LPu1PlLKgdMlenZxwoUdM6n-tMutSDOrgPt1b48AaztVK3t8J4NzHbexedjnODj4RFAf7DCOVoeubWc0_9_ima61PGQ2_0Py3v0IZ0vDztboMUp0JdiBA1fsGpFyOrPxmOBr6StvYbbx9_HZPUrM5vA17PO6CnPYUbkKkYxu5lj8w8lFp9-31Ypf5vUMmgBNuQnelq64MaEjkOl6f6tzhrgwtQlrHKaMfVtqHwoOBlbIRpZk9j9i4MOdVLAUaUggVCle1]--></g></svg>