<svg xmlns="http://www.w3.org/2000/svg" xmlns:xlink="http://www.w3.org/1999/xlink" contentStyleType="text/css" data-diagram-type="CLASS" height="228px" preserveAspectRatio="none" style="width:558px;height:228px;background:#FFFFFF;" version="1.1" viewBox="0 0 558 228" width="558px" zoomAndPan="magnify"><defs/><g><!--cluster docmgmt--><g class="cluster" data-entity="docmgmt" data-source-line="19" data-uid="ent0002" id="cluster_docmgmt"><path d="M8.5,6 L83.3281,6 A3.75,3.75 0 0 1 85.8281,8.5 L92.8281,28.2969 L548.5,28.2969 A2.5,2.5 0 0 1 551,30.7969 L551,94.76 A2.5,2.5 0 0 1 548.5,97.26 L8.5,97.26 A2.5,2.5 0 0 1 6,94.76 L6,8.5 A2.5,2.5 0 0 1 8.5,6" fill="none" style="stroke:#000000;stroke-width:1.5;"/><line style="stroke:#000000;stroke-width:1.5;" x1="6" x2="92.8281" y1="28.2969" y2="28.2969"/><text fill="#000000" font-family="sans-serif" font-size="14" font-weight="bold" lengthAdjust="spacing" textLength="73.8281" x="10" y="20.9951">docmgmt</text></g><!--cluster customers--><g class="cluster" data-entity="customers" data-source-line="24" data-uid="ent0005" id="cluster_customers"><path d="M396.5,130.26 L479.7295,130.26 A3.75,3.75 0 0 1 482.2295,132.76 L489.2295,152.5569 L523.5,152.5569 A2.5,2.5 0 0 1 526,155.0569 L526,219.03 A2.5,2.5 0 0 1 523.5,221.53 L396.5,221.53 A2.5,2.5 0 0 1 394,219.03 L394,132.76 A2.5,2.5 0 0 1 396.5,130.26" fill="none" style="stroke:#000000;stroke-width:1.5;"/><line style="stroke:#000000;stroke-width:1.5;" x1="394" x2="489.2295" y1="152.5569" y2="152.5569"/><text fill="#000000" font-family="sans-serif" font-size="14" font-weight="bold" lengthAdjust="spacing" textLength="82.2295" x="398" y="145.2551">customers</text></g><!--class DocumentHolder_documents--><g class="entity" data-entity="DocumentHolder_documents" data-source-line="20" data-uid="ent0003" id="entity_DocumentHolder_documents"><rect fill="#FFFFE0" height="40.2656" rx="2.5" ry="2.5" style="stroke:#181818;stroke-width:0.5;" width="235.6973" x="22.15" y="41"/><ellipse cx="37.15" cy="61.1328" fill="#ADD1B2" rx="11" ry="11" style="stroke:#181818;stroke-width:1;"/><path d="M40.1188,66.7734 Q39.5406,67.0703 38.9,67.2109 Q38.2594,67.3672 37.5563,67.3672 Q35.0563,67.3672 33.7281,65.7266 Q32.4156,64.0703 32.4156,60.9453 Q32.4156,57.8203 33.7281,56.1641 Q35.0563,54.5078 37.5563,54.5078 Q38.2594,54.5078 38.9,54.6641 Q39.5563,54.8203 40.1188,55.1172 L40.1188,57.8359 Q39.4938,57.2578 38.9,56.9922 Q38.3063,56.7109 37.6813,56.7109 Q36.3375,56.7109 35.65,57.7891 Q34.9625,58.8516 34.9625,60.9453 Q34.9625,63.0391 35.65,64.1172 Q36.3375,65.1797 37.6813,65.1797 Q38.3063,65.1797 38.9,64.9141 Q39.4938,64.6328 40.1188,64.0547 L40.1188,66.7734 Z " fill="#000000"/><text fill="#000000" font-family="sans-serif" font-size="12" font-style="italic" lengthAdjust="spacing" textLength="47.748" x="129.1246" y="57.1387">&#171;mixin&#187;</text><text fill="#000000" font-family="sans-serif" font-size="14" lengthAdjust="spacing" textLength="203.6973" x="51.15" y="72.9639">DocumentHolder_documents</text></g><!--class DocumentHolder--><g class="entity" data-entity="DocumentHolder" data-source-line="21" data-uid="ent0004" id="entity_DocumentHolder"><rect fill="#F1F1F1" height="32" rx="2.5" ry="2.5" style="stroke:#181818;stroke-width:0.5;" width="150.7676" x="384.62" y="45.13"/><ellipse cx="399.62" cy="61.13" fill="#B4A7E5" rx="11" ry="11" style="stroke:#181818;stroke-width:1;"/><path d="M395.5419,56.8956 L395.5419,54.7394 L402.9325,54.7394 L402.9325,56.8956 L400.4638,56.8956 L400.4638,64.9738 L402.9325,64.9738 L402.9325,67.13 L395.5419,67.13 L395.5419,64.9738 L398.0106,64.9738 L398.0106,56.8956 L395.5419,56.8956 Z " fill="#000000"/><text fill="#000000" font-family="sans-serif" font-size="14" font-style="italic" lengthAdjust="spacing" textLength="118.7676" x="413.62" y="65.9767">DocumentHolder</text></g><!--class Customer--><g class="entity" data-entity="Customer" data-source-line="25" data-uid="ent0006" id="entity_Customer"><rect fill="#90EE90" height="40.2656" rx="2.5" ry="2.5" style="stroke:#181818;stroke-width:0.5;" width="100.0039" x="410" y="165.26"/><ellipse cx="425" cy="185.3928" fill="#ADD1B2" rx="11" ry="11" style="stroke:#181818;stroke-width:1;"/><path d="M427.9688,191.0334 Q427.3906,191.3303 426.75,191.4709 Q426.1094,191.6272 425.4063,191.6272 Q422.9063,191.6272 421.5781,189.9866 Q420.2656,188.3303 420.2656,185.2053 Q420.2656,182.0803 421.5781,180.4241 Q422.9063,178.7678 425.4063,178.7678 Q426.1094,178.7678 426.75,178.9241 Q427.4063,179.0803 427.9688,179.3772 L427.9688,182.0959 Q427.3438,181.5178 426.75,181.2522 Q426.1563,180.9709 425.5313,180.9709 Q424.1875,180.9709 423.5,182.0491 Q422.8125,183.1116 422.8125,185.2053 Q422.8125,187.2991 423.5,188.3772 Q424.1875,189.4397 425.5313,189.4397 Q426.1563,189.4397 426.75,189.1741 Q427.3438,188.8928 427.9688,188.3147 L427.9688,191.0334 Z " fill="#000000"/><text fill="#000000" font-family="sans-serif" font-size="12" font-style="italic" lengthAdjust="spacing" textLength="34.623" x="455.6904" y="181.3987">&#171;ppt&#187;</text><text fill="#000000" font-family="sans-serif" font-size="14" lengthAdjust="spacing" textLength="68.0039" x="439" y="197.2239">Customer</text></g><!--link DocumentHolder_documents to DocumentHolder--><g class="link" data-entity-1="DocumentHolder_documents" data-entity-2="DocumentHolder" data-source-line="27" data-uid="lnk7" id="link_DocumentHolder_documents_DocumentHolder"><path codeLine="27" d="M258.25,61.13 C300.44,61.13 340.8,61.13 378.43,61.13" fill="none" id="DocumentHolder_documents-to-DocumentHolder" style="stroke:#181818;stroke-width:1;stroke-dasharray:7,7;"/><polygon fill="#181818" points="384.43,61.13,375.43,57.13,379.43,61.13,375.43,65.13,384.43,61.13" style="stroke:#181818;stroke-width:1;"/><text fill="#000000" font-family="sans-serif" font-size="13" lengthAdjust="spacing" textLength="90.9365" x="276.23" y="54.1969">contributes to</text></g><!--reverse link DocumentHolder to Customer--><g class="link" data-entity-1="DocumentHolder" data-entity-2="Customer" data-source-line="28" data-uid="lnk9" id="link_DocumentHolder_Customer"><path codeLine="28" d="M460,95.62 C460,117.85 460,140.8 460,165.01" fill="none" id="DocumentHolder-backto-Customer" style="stroke:#181818;stroke-width:1;"/><polygon fill="none" points="460,77.62,454,95.62,466,95.62,460,77.62" style="stroke:#181818;stroke-width:1;"/></g><!--SRC=[ZTB1JWCX403GErz1Uby_m3HxS4tquC5RuqL3OTnE5XW2G-l6-E-IkjtK3RLo0nupCCCE3KXmWKVfm6qX9Y7IW3weg9pKLgKaFuKiuqxfeO-KlUd8Kbol3IJTjh8RbQ-34BZiFs6_uuS8S44vFA5dz4FTHB9mKYzWBHtgBd5K3FrOx6Q737Mb0luDqZM0dY5wPS-UDzRbNjaCSx2w0S_8upzAjKSuE39WhrVCuGVwHSc-X0Z5gHwa8UrwnrDhVzfyJpgxSfT7iWRYcvccISxHZlZuzdUbON7WFBpEYScLp_GhGJUjokbhb1CNSpOtiMaN6MxbIfFdYDlCa2JJIimXczoyBlWt]--></g></svg>