<svg xmlns="http://www.w3.org/2000/svg" xmlns:xlink="http://www.w3.org/1999/xlink" contentStyleType="text/css" data-diagram-type="CLASS" height="581px" preserveAspectRatio="none" style="width:432px;height:581px;background:#FFFFFF;" version="1.1" viewBox="0 0 432 581" width="432px" zoomAndPan="magnify"><defs/><g><!--cluster warehouse--><g class="cluster" data-entity="warehouse" data-source-line="19" data-uid="ent0002" id="cluster_warehouse"><path d="M58.5,471.38 L145.6602,471.38 A3.75,3.75 0 0 1 148.1602,473.88 L155.1602,493.6769 L163.5,493.6769 A2.5,2.5 0 0 1 166,496.1769 L166,572.47 A2.5,2.5 0 0 1 163.5,574.97 L58.5,574.97 A2.5,2.5 0 0 1 56,572.47 L56,473.88 A2.5,2.5 0 0 1 58.5,471.38" fill="none" style="stroke:#000000;stroke-width:1.5;"/><line style="stroke:#000000;stroke-width:1.5;" x1="56" x2="155.1602" y1="493.6769" y2="493.6769"/><text fill="#000000" font-family="sans-serif" font-size="14" font-weight="bold" lengthAdjust="spacing" textLength="86.1602" x="60" y="486.3751">warehouse</text></g><!--cluster shipping--><g class="cluster" data-entity="shipping" data-source-line="23" data-uid="ent0004" id="cluster_shipping"><path d="M341.5,6 L410.4287,6 A3.75,3.75 0 0 1 412.9287,8.5 L419.9287,28.2969 L422.5,28.2969 A2.5,2.5 0 0 1 425,30.7969 L425,107.09 A2.5,2.5 0 0 1 422.5,109.59 L341.5,109.59 A2.5,2.5 0 0 1 339,107.09 L339,8.5 A2.5,2.5 0 0 1 341.5,6" fill="none" style="stroke:#000000;stroke-width:1.5;"/><line style="stroke:#000000;stroke-width:1.5;" x1="339" x2="419.9287" y1="28.2969" y2="28.2969"/><text fill="#000000" font-family="sans-serif" font-size="14" font-weight="bold" lengthAdjust="spacing" textLength="67.9287" x="343" y="20.9951">shipping</text></g><!--cluster customer--><g class="cluster" data-entity="customer" data-source-line="27" data-uid="ent0006" id="cluster_customer"><path d="M192.5,471.38 L267.3965,471.38 A3.75,3.75 0 0 1 269.8965,473.88 L276.8965,493.6769 L289.5,493.6769 A2.5,2.5 0 0 1 292,496.1769 L292,572.47 A2.5,2.5 0 0 1 289.5,574.97 L192.5,574.97 A2.5,2.5 0 0 1 190,572.47 L190,473.88 A2.5,2.5 0 0 1 192.5,471.38" fill="none" style="stroke:#000000;stroke-width:1.5;"/><line style="stroke:#000000;stroke-width:1.5;" x1="190" x2="276.8965" y1="493.6769" y2="493.6769"/><text fill="#000000" font-family="sans-serif" font-size="14" font-weight="bold" lengthAdjust="spacing" textLength="73.8965" x="194" y="486.3751">customer</text></g><!--cluster ordermgmt--><g class="cluster" data-entity="ordermgmt" data-source-line="31" data-uid="ent0008" id="cluster_ordermgmt"><path d="M8.5,6 L98.333,6 A3.75,3.75 0 0 1 100.833,8.5 L107.833,28.2969 L312.5,28.2969 A2.5,2.5 0 0 1 315,30.7969 L315,444.88 A2.5,2.5 0 0 1 312.5,447.38 L8.5,447.38 A2.5,2.5 0 0 1 6,444.88 L6,8.5 A2.5,2.5 0 0 1 8.5,6" fill="none" style="stroke:#000000;stroke-width:1.5;"/><line style="stroke:#000000;stroke-width:1.5;" x1="6" x2="107.833" y1="28.2969" y2="28.2969"/><text fill="#000000" font-family="sans-serif" font-size="14" font-weight="bold" lengthAdjust="spacing" textLength="88.833" x="10" y="20.9951">ordermgmt</text></g><path d="M74.82,506.38 L133.1804,506.38 A3.75,3.75 0 0 1 135.6804,508.88 L142.6804,528.6769 L147.1804,528.6769 A2.5,2.5 0 0 1 149.6804,531.1769 L149.6804,556.4738 A2.5,2.5 0 0 1 147.1804,558.9738 L74.82,558.9738 A2.5,2.5 0 0 1 72.32,556.4738 L72.32,508.88 A2.5,2.5 0 0 1 74.82,506.38" fill="#F1F1F1" style="stroke:#181818;stroke-width:0.5;"/><line style="stroke:#181818;stroke-width:0.5;" x1="72.32" x2="142.6804" y1="528.6769" y2="528.6769"/><text fill="#000000" font-family="sans-serif" font-size="14" font-weight="bold" lengthAdjust="spacing" textLength="57.3604" x="76.32" y="521.3751">spiimpl</text><path d="M357.39,41 L392.6175,41 A3.75,3.75 0 0 1 395.1175,43.5 L402.1175,63.2969 L406.6175,63.2969 A2.5,2.5 0 0 1 409.1175,65.7969 L409.1175,91.0938 A2.5,2.5 0 0 1 406.6175,93.5938 L357.39,93.5938 A2.5,2.5 0 0 1 354.89,91.0938 L354.89,43.5 A2.5,2.5 0 0 1 357.39,41" fill="#F1F1F1" style="stroke:#181818;stroke-width:0.5;"/><line style="stroke:#181818;stroke-width:0.5;" x1="354.89" x2="402.1175" y1="63.2969" y2="63.2969"/><text fill="#000000" font-family="sans-serif" font-size="14" font-weight="bold" lengthAdjust="spacing" textLength="34.2275" x="358.89" y="55.9951">dom</text><path d="M208.95,506.38 L259.0594,506.38 A3.75,3.75 0 0 1 261.5594,508.88 L268.5594,528.6769 L273.0594,528.6769 A2.5,2.5 0 0 1 275.5594,531.1769 L275.5594,556.4738 A2.5,2.5 0 0 1 273.0594,558.9738 L208.95,558.9738 A2.5,2.5 0 0 1 206.45,556.4738 L206.45,508.88 A2.5,2.5 0 0 1 208.95,506.38" fill="#F1F1F1" style="stroke:#181818;stroke-width:0.5;"/><line style="stroke:#181818;stroke-width:0.5;" x1="206.45" x2="268.5594" y1="528.6769" y2="528.6769"/><text fill="#000000" font-family="sans-serif" font-size="14" font-weight="bold" lengthAdjust="spacing" textLength="49.1094" x="210.45" y="521.3751">applib</text><path d="M257.37,153.59 L282.6376,153.59 A3.75,3.75 0 0 1 285.1376,156.09 L292.1376,175.8869 L296.6376,175.8869 A2.5,2.5 0 0 1 299.1376,178.3869 L299.1376,203.6838 A2.5,2.5 0 0 1 296.6376,206.1838 L257.37,206.1838 A2.5,2.5 0 0 1 254.87,203.6838 L254.87,156.09 A2.5,2.5 0 0 1 257.37,153.59" fill="#F1F1F1" style="stroke:#181818;stroke-width:0.5;"/><line style="stroke:#181818;stroke-width:0.5;" x1="254.87" x2="292.1376" y1="175.8869" y2="175.8869"/><text fill="#000000" font-family="sans-serif" font-size="14" font-weight="bold" lengthAdjust="spacing" textLength="24.2676" x="258.87" y="168.5851">api</text><path d="M231.95,266.19 L282.0594,266.19 A3.75,3.75 0 0 1 284.5594,268.69 L291.5594,288.4869 L296.0594,288.4869 A2.5,2.5 0 0 1 298.5594,290.9869 L298.5594,316.2838 A2.5,2.5 0 0 1 296.0594,318.7838 L231.95,318.7838 A2.5,2.5 0 0 1 229.45,316.2838 L229.45,268.69 A2.5,2.5 0 0 1 231.95,266.19" fill="#F1F1F1" style="stroke:#181818;stroke-width:0.5;"/><line style="stroke:#181818;stroke-width:0.5;" x1="229.45" x2="291.5594" y1="288.4869" y2="288.4869"/><text fill="#000000" font-family="sans-serif" font-size="14" font-weight="bold" lengthAdjust="spacing" textLength="49.1094" x="233.45" y="281.1851">applib</text><path d="M146.65,153.59 L203.3424,153.59 A3.75,3.75 0 0 1 205.8424,156.09 L212.8424,175.8869 L217.3424,175.8869 A2.5,2.5 0 0 1 219.8424,178.3869 L219.8424,203.6838 A2.5,2.5 0 0 1 217.3424,206.1838 L146.65,206.1838 A2.5,2.5 0 0 1 144.15,203.6838 L144.15,156.09 A2.5,2.5 0 0 1 146.65,153.59" fill="#F1F1F1" style="stroke:#181818;stroke-width:0.5;"/><line style="stroke:#181818;stroke-width:0.5;" x1="144.15" x2="212.8424" y1="175.8869" y2="175.8869"/><text fill="#000000" font-family="sans-serif" font-size="14" font-weight="bold" lengthAdjust="spacing" textLength="55.6924" x="148.15" y="168.5851">restapi</text><path d="M39.49,41 L84.5066,41 A3.75,3.75 0 0 1 87.0066,43.5 L94.0066,63.2969 L98.5066,63.2969 A2.5,2.5 0 0 1 101.0066,65.7969 L101.0066,91.0938 A2.5,2.5 0 0 1 98.5066,93.5938 L39.49,93.5938 A2.5,2.5 0 0 1 36.99,91.0938 L36.99,43.5 A2.5,2.5 0 0 1 39.49,41" fill="#F1F1F1" style="stroke:#181818;stroke-width:0.5;"/><line style="stroke:#181818;stroke-width:0.5;" x1="36.99" x2="94.0066" y1="63.2969" y2="63.2969"/><text fill="#000000" font-family="sans-serif" font-size="14" font-weight="bold" lengthAdjust="spacing" textLength="44.0166" x="40.99" y="55.9951">menu</text><path d="M61.75,153.59 L92.2402,153.59 A3.75,3.75 0 0 1 94.7402,156.09 L101.7402,175.8869 L106.2402,175.8869 A2.5,2.5 0 0 1 108.7402,178.3869 L108.7402,203.6838 A2.5,2.5 0 0 1 106.2402,206.1838 L61.75,206.1838 A2.5,2.5 0 0 1 59.25,203.6838 L59.25,156.09 A2.5,2.5 0 0 1 61.75,153.59" fill="#F1F1F1" style="stroke:#181818;stroke-width:0.5;"/><line style="stroke:#181818;stroke-width:0.5;" x1="59.25" x2="101.7402" y1="175.8869" y2="175.8869"/><text fill="#000000" font-family="sans-serif" font-size="14" font-weight="bold" lengthAdjust="spacing" textLength="29.4902" x="63.25" y="168.5851">app</text><path d="M142.39,266.19 L177.6175,266.19 A3.75,3.75 0 0 1 180.1175,268.69 L187.1175,288.4869 L191.6175,288.4869 A2.5,2.5 0 0 1 194.1175,290.9869 L194.1175,316.2838 A2.5,2.5 0 0 1 191.6175,318.7838 L142.39,318.7838 A2.5,2.5 0 0 1 139.89,316.2838 L139.89,268.69 A2.5,2.5 0 0 1 142.39,266.19" fill="#F1F1F1" style="stroke:#181818;stroke-width:0.5;"/><line style="stroke:#181818;stroke-width:0.5;" x1="139.89" x2="187.1175" y1="288.4869" y2="288.4869"/><text fill="#000000" font-family="sans-serif" font-size="14" font-weight="bold" lengthAdjust="spacing" textLength="34.2275" x="143.89" y="281.1851">dom</text><path d="M178.35,378.78 L235.6508,378.78 A3.75,3.75 0 0 1 238.1508,381.28 L245.1508,401.0769 L249.6508,401.0769 A2.5,2.5 0 0 1 252.1508,403.5769 L252.1508,428.8738 A2.5,2.5 0 0 1 249.6508,431.3738 L178.35,431.3738 A2.5,2.5 0 0 1 175.85,428.8738 L175.85,381.28 A2.5,2.5 0 0 1 178.35,378.78" fill="#F1F1F1" style="stroke:#181818;stroke-width:0.5;"/><line style="stroke:#181818;stroke-width:0.5;" x1="175.85" x2="245.1508" y1="401.0769" y2="401.0769"/><text fill="#000000" font-family="sans-serif" font-size="14" font-weight="bold" lengthAdjust="spacing" textLength="56.3008" x="179.85" y="393.7751">contrib</text><path d="M94.92,378.78 L119.0733,378.78 A3.75,3.75 0 0 1 121.5733,381.28 L128.5733,401.0769 L133.0733,401.0769 A2.5,2.5 0 0 1 135.5733,403.5769 L135.5733,428.8738 A2.5,2.5 0 0 1 133.0733,431.3738 L94.92,431.3738 A2.5,2.5 0 0 1 92.42,428.8738 L92.42,381.28 A2.5,2.5 0 0 1 94.92,378.78" fill="#F1F1F1" style="stroke:#181818;stroke-width:0.5;"/><line style="stroke:#181818;stroke-width:0.5;" x1="92.42" x2="128.5733" y1="401.0769" y2="401.0769"/><text fill="#000000" font-family="sans-serif" font-size="14" font-weight="bold" lengthAdjust="spacing" textLength="23.1533" x="96.42" y="393.7751">spi</text><path d="M29.82,266.19 L88.1804,266.19 A3.75,3.75 0 0 1 90.6804,268.69 L97.6804,288.4869 L102.1804,288.4869 A2.5,2.5 0 0 1 104.6804,290.9869 L104.6804,316.2838 A2.5,2.5 0 0 1 102.1804,318.7838 L29.82,318.7838 A2.5,2.5 0 0 1 27.32,316.2838 L27.32,268.69 A2.5,2.5 0 0 1 29.82,266.19" fill="#F1F1F1" style="stroke:#181818;stroke-width:0.5;"/><line style="stroke:#181818;stroke-width:0.5;" x1="27.32" x2="97.6804" y1="288.4869" y2="288.4869"/><text fill="#000000" font-family="sans-serif" font-size="14" font-weight="bold" lengthAdjust="spacing" textLength="57.3604" x="31.32" y="281.1851">spiimpl</text><!--link api to dom--><g class="link" data-entity-1="api" data-entity-2="dom" data-source-line="43" data-uid="lnk18" id="link_api_dom"><path codeLine="43" d="M254.47,203.54 C236.5,221.61 215.5413,242.6861 196.8113,261.5161" fill="none" id="api-to-dom" style="stroke:#181818;stroke-width:1;"/><polygon fill="#181818" points="192.58,265.77,201.7629,262.21,196.1061,262.2251,196.091,256.5682,192.58,265.77" style="stroke:#181818;stroke-width:1;"/></g><!--link api to applib--><g class="link" data-entity-1="api" data-entity-2="applib" data-source-line="44" data-uid="lnk19" id="link_api_applib"><path codeLine="44" d="M273.98,206.54 C271.88,224.41 269.8018,242.1812 267.7018,260.0112" fill="none" id="api-to-applib" style="stroke:#181818;stroke-width:1;"/><polygon fill="#181818" points="267,265.97,272.0253,257.4997,267.5849,261.0043,264.0802,256.5639,267,265.97" style="stroke:#181818;stroke-width:1;"/></g><!--link restapi to dom--><g class="link" data-entity-1="restapi" data-entity-2="dom" data-source-line="45" data-uid="lnk20" id="link_restapi_dom"><path codeLine="45" d="M178.52,206.54 C176.1,224.41 173.687,242.1945 171.267,260.0245" fill="none" id="restapi-to-dom" style="stroke:#181818;stroke-width:1;"/><polygon fill="#181818" points="170.46,265.97,175.6341,257.5897,171.1325,261.0154,167.7068,256.5138,170.46,265.97" style="stroke:#181818;stroke-width:1;"/></g><!--link menu to dom--><g class="link" data-entity-1="menu" data-entity-2="dom" data-source-line="46" data-uid="lnk21" id="link_menu_dom"><path codeLine="46" d="M54.45,93.91 C40.16,122.75 23.03,170.28 42,206.19 C47.4,216.41 99.3625,249.7253 134.4925,271.5353" fill="none" id="menu-to-dom" style="stroke:#181818;stroke-width:1;"/><polygon fill="#181818" points="139.59,274.7,134.0536,266.5546,135.3421,272.0627,129.8339,273.3513,139.59,274.7" style="stroke:#181818;stroke-width:1;"/></g><!--link menu to app--><g class="link" data-entity-1="menu" data-entity-2="app" data-source-line="47" data-uid="lnk22" id="link_menu_app"><path codeLine="47" d="M72.48,93.95 C74.9,111.82 77.3135,129.5945 79.7335,147.4345" fill="none" id="menu-to-app" style="stroke:#181818;stroke-width:1;"/><polygon fill="#181818" points="80.54,153.38,83.2939,143.924,79.8679,148.4254,75.3665,144.9994,80.54,153.38" style="stroke:#181818;stroke-width:1;"/></g><!--link app to dom--><g class="link" data-entity-1="app" data-entity-2="dom" data-source-line="48" data-uid="lnk23" id="link_app_dom"><path codeLine="48" d="M103.25,206.54 C116.66,224.41 130.8687,243.341 144.2487,261.171" fill="none" id="app-to-dom" style="stroke:#181818;stroke-width:1;"/><polygon fill="#181818" points="147.85,265.97,145.6474,256.3706,144.8489,261.9708,139.2487,261.1723,147.85,265.97" style="stroke:#181818;stroke-width:1;"/></g><!--reverse link dom to contrib--><g class="link" data-entity-1="dom" data-entity-2="contrib" data-source-line="49" data-uid="lnk25" id="link_dom_contrib"><path codeLine="49" d="M180.2467,324.662 C187.8367,342.522 195.58,360.73 203.16,378.57" fill="none" id="dom-backto-contrib" style="stroke:#181818;stroke-width:1;"/><polygon fill="#181818" points="177.9,319.14,177.7387,328.9875,179.8556,323.7417,185.1014,325.8586,177.9,319.14" style="stroke:#181818;stroke-width:1;"/></g><!--link spiimpl to dom--><g class="link" data-entity-1="spiimpl" data-entity-2="dom" data-source-line="50" data-uid="lnk26" id="link_spiimpl_dom"><path codeLine="50" d="M105.06,292.49 C116.51,292.49 121.96,292.49 133.42,292.49" fill="none" id="spiimpl-to-dom" style="stroke:#181818;stroke-width:1;"/><polygon fill="#181818" points="139.42,292.49,130.42,288.49,134.42,292.49,130.42,296.49,139.42,292.49" style="stroke:#181818;stroke-width:1;"/></g><!--link dom to spi--><g class="link" data-entity-1="dom" data-entity-2="spi" data-source-line="52" data-uid="lnk27" id="link_dom_spi"><path codeLine="52" d="M154.71,319.14 C146.15,337 137.3607,355.3181 128.8207,373.1581" fill="none" id="dom-to-spi" style="stroke:#181818;stroke-width:1;"/><polygon fill="#181818" points="126.23,378.57,133.7239,372.1793,128.3889,374.0601,126.5081,368.7251,126.23,378.57" style="stroke:#181818;stroke-width:1;"/></g><!--link dom to applib--><g class="link" data-entity-1="dom" data-entity-2="applib" data-source-line="53" data-uid="lnk28" id="link_dom_applib"><path codeLine="53" d="M194.28,292.49 C205.9,292.49 199.52,292.49 211.14,292.49" fill="none" id="dom-to-applib" style="stroke:#181818;stroke-width:1;"/><polygon fill="none" points="229.14,292.49,211.14,286.49,211.14,298.49,229.14,292.49" style="stroke:#181818;stroke-width:1;"/></g><!--reverse link spi to spiimpl--><g class="link" data-entity-1="spi" data-entity-2="spiimpl" data-source-line="54" data-uid="lnk30" id="link_spi_spiimpl"><path codeLine="54" d="M112.9582,449.7948 C112.4382,471.4648 112.13,484.33 111.61,505.99" fill="none" id="spi-backto-spiimpl" style="stroke:#181818;stroke-width:1;"/><polygon fill="none" points="113.39,431.8,106.9599,449.6509,118.9565,449.9388,113.39,431.8" style="stroke:#181818;stroke-width:1;"/></g><!--link contrib to applib--><g class="link" data-entity-1="contrib" data-entity-2="applib" data-source-line="56" data-uid="lnk31" id="link_contrib_applib"><path codeLine="56" d="M219.53,431.8 C224.19,453.47 229.558,478.4642 234.218,500.1242" fill="none" id="contrib-to-applib" style="stroke:#181818;stroke-width:1;"/><polygon fill="#181818" points="235.48,505.99,237.4975,496.35,234.4283,501.1018,229.6765,498.0326,235.48,505.99" style="stroke:#181818;stroke-width:1;"/></g><!--link dom to api--><g class="link" data-entity-1="dom" data-entity-2="api" data-source-line="57" data-uid="lnk32" id="link_dom_api"><path codeLine="57" d="M357.65,93.95 C340.08,112.45 320.6714,132.8989 303.5614,150.9189" fill="none" id="dom-to-api" style="stroke:#181818;stroke-width:1;"/><polygon fill="#181818" points="299.43,155.27,308.5278,151.4976,302.8728,151.6441,302.7263,145.9891,299.43,155.27" style="stroke:#181818;stroke-width:1;"/></g><!--SRC=[dPDDJiCm48NtFeKla9oWwe8ksB1WXzWWkSae6TL_ifsMgEhTCOGfzGyfmikPByzltiGZzi11sJ1p1MeFpZFc3wYjS4BnJWhl-PdnU1v4TnYScNI_CzAupQO7tsstV3SBNGUi3R7_XCCO7Xt0BvH2WfvH7-gCCnA8UWKfpQdE-U14W66ExCk80UgKiBWE-7i0wW1E2taptbmdZq9ES1MhCw03XlaFKHqHJihq8Eydfl0TTHRPXJ4REJ40Fma7evayV2-Nwd5oL5RovGZ_0xPfwtovbVCZMejwoDHwe_ZFYMh4jMddp1ErRlB1A72Pch1Mulv6ZRWsxMHgnlNWrA128OSaT4LQAiRnQbTdx5BCM0S-VCeaB1KpLe6U2WzKB3tK_DgQNuetOQcOiPtHmSKv4fQA6UjhcVbwPlI_vEnNSVbzojoRPijJo_UXPG-i37jLZ5B-3nHlPEKELfKeq6PQeoYUnaKgXLYvo2Q1uhSrvgqILVceewq8Pcer-_7AxDcnub6dlk8cFW00]--></g></svg>