<?xml version="1.0" encoding="us-ascii" standalone="no"?><svg xmlns="http://www.w3.org/2000/svg" xmlns:xlink="http://www.w3.org/1999/xlink" contentStyleType="text/css" height="337px" preserveAspectRatio="none" style="width:341px;height:337px;background:#FFFFFF;" version="1.1" viewBox="0 0 341 337" width="341px" zoomAndPan="magnify"><defs/><g><!--cluster customers--><g id="cluster_customers"><path d="M204.5,6 L289.5,6 A3.75,3.75 0 0 1 292,8.5 L299,28.2969 L331.5,28.2969 A2.5,2.5 0 0 1 334,30.7969 L334,211.33 A2.5,2.5 0 0 1 331.5,213.83 L204.5,213.83 A2.5,2.5 0 0 1 202,211.33 L202,8.5 A2.5,2.5 0 0 1 204.5,6 " fill="none" style="stroke:#000000;stroke-width:1.5;"/><line style="stroke:#000000;stroke-width:1.5;" x1="202" x2="299" y1="28.2969" y2="28.2969"/><text fill="#000000" font-family="sans-serif" font-size="14" font-weight="bold" lengthAdjust="spacing" textLength="84" x="206" y="20.9951">customers</text></g><!--cluster communications--><g id="cluster_communications"><path d="M8.5,114.41 L137.5,114.41 A3.75,3.75 0 0 1 140,116.91 L147,136.7069 L175.5,136.7069 A2.5,2.5 0 0 1 178,139.2069 L178,327.89 A2.5,2.5 0 0 1 175.5,330.39 L8.5,330.39 A2.5,2.5 0 0 1 6,327.89 L6,116.91 A2.5,2.5 0 0 1 8.5,114.41 " fill="none" style="stroke:#000000;stroke-width:1.5;"/><line style="stroke:#000000;stroke-width:1.5;" x1="6" x2="147" y1="136.7069" y2="136.7069"/><text fill="#000000" font-family="sans-serif" font-size="14" font-weight="bold" lengthAdjust="spacing" textLength="128" x="10" y="129.4051">communications</text></g><!--class Customer--><g id="elem_Customer"><rect codeLine="20" fill="#90EE90" height="40.2656" id="Customer" rx="2.5" ry="2.5" style="stroke:#181818;stroke-width:0.5;" width="100" x="218" y="41"/><ellipse cx="233" cy="61.1328" fill="#ADD1B2" rx="11" ry="11" style="stroke:#181818;stroke-width:1.0;"/><path d="M235.9688,66.7734 Q235.3906,67.0703 234.75,67.2109 Q234.1094,67.3672 233.4063,67.3672 Q230.9063,67.3672 229.5781,65.7266 Q228.2656,64.0703 228.2656,60.9453 Q228.2656,57.8203 229.5781,56.1641 Q230.9063,54.5078 233.4063,54.5078 Q234.1094,54.5078 234.75,54.6641 Q235.4063,54.8203 235.9688,55.1172 L235.9688,57.8359 Q235.3438,57.2578 234.75,56.9922 Q234.1563,56.7109 233.5313,56.7109 Q232.1875,56.7109 231.5,57.7891 Q230.8125,58.8516 230.8125,60.9453 Q230.8125,63.0391 231.5,64.1172 Q232.1875,65.1797 233.5313,65.1797 Q234.1563,65.1797 234.75,64.9141 Q235.3438,64.6328 235.9688,64.0547 L235.9688,66.7734 Z " fill="#000000"/><text fill="#000000" font-family="sans-serif" font-size="12" font-style="italic" lengthAdjust="spacing" textLength="35" x="263.5" y="57.1387">&#171;ppt&#187;</text><text fill="#000000" font-family="sans-serif" font-size="14" lengthAdjust="spacing" textLength="68" x="247" y="72.9639">Customer</text></g><!--class Email\nAddress--><g id="elem_Email\nAddress"><rect codeLine="21" fill="#90EE90" height="56.5625" id="Email\nAddress" rx="2.5" ry="2.5" style="stroke:#181818;stroke-width:0.5;" width="89" x="217.5" y="141.27"/><ellipse cx="232.5" cy="169.5512" fill="#ADD1B2" rx="11" ry="11" style="stroke:#181818;stroke-width:1.0;"/><path d="M235.4688,175.1919 Q234.8906,175.4887 234.25,175.6294 Q233.6094,175.7856 232.9063,175.7856 Q230.4063,175.7856 229.0781,174.145 Q227.7656,172.4887 227.7656,169.3637 Q227.7656,166.2387 229.0781,164.5825 Q230.4063,162.9262 232.9063,162.9262 Q233.6094,162.9262 234.25,163.0825 Q234.9063,163.2387 235.4688,163.5356 L235.4688,166.2544 Q234.8438,165.6762 234.25,165.4106 Q233.6563,165.1294 233.0313,165.1294 Q231.6875,165.1294 231,166.2075 Q230.3125,167.27 230.3125,169.3637 Q230.3125,171.4575 231,172.5356 Q231.6875,173.5981 233.0313,173.5981 Q233.6563,173.5981 234.25,173.3325 Q234.8438,173.0512 235.4688,172.4731 L235.4688,175.1919 Z " fill="#000000"/><text fill="#000000" font-family="sans-serif" font-size="12" font-style="italic" lengthAdjust="spacing" textLength="35" x="257.5" y="157.4087">&#171;ppt&#187;</text><text fill="#000000" font-family="sans-serif" font-size="14" lengthAdjust="spacing" textLength="36" x="257" y="173.2339">Email</text><text fill="#000000" font-family="sans-serif" font-size="14" lengthAdjust="spacing" textLength="57" x="246.5" y="189.5307">Address</text></g><!--class Email\nCommunication--><g id="elem_Email\nCommunication"><rect codeLine="25" fill="#FFB6C1" height="56.5625" id="Email\nCommunication" rx="2.5" ry="2.5" style="stroke:#181818;stroke-width:0.5;" width="140" x="22" y="257.83"/><ellipse cx="37" cy="286.1113" fill="#ADD1B2" rx="11" ry="11" style="stroke:#181818;stroke-width:1.0;"/><path d="M39.9688,291.7519 Q39.3906,292.0488 38.75,292.1894 Q38.1094,292.3456 37.4063,292.3456 Q34.9063,292.3456 33.5781,290.705 Q32.2656,289.0488 32.2656,285.9238 Q32.2656,282.7988 33.5781,281.1425 Q34.9063,279.4863 37.4063,279.4863 Q38.1094,279.4863 38.75,279.6425 Q39.4063,279.7988 39.9688,280.0956 L39.9688,282.8144 Q39.3438,282.2363 38.75,281.9706 Q38.1563,281.6894 37.5313,281.6894 Q36.1875,281.6894 35.5,282.7675 Q34.8125,283.83 34.8125,285.9238 Q34.8125,288.0175 35.5,289.0956 Q36.1875,290.1581 37.5313,290.1581 Q38.1563,290.1581 38.75,289.8925 Q39.3438,289.6113 39.9688,289.0331 L39.9688,291.7519 Z " fill="#000000"/><text fill="#000000" font-family="sans-serif" font-size="12" font-style="italic" lengthAdjust="spacing" textLength="28" x="91" y="273.9687">&#171;mi&#187;</text><text fill="#000000" font-family="sans-serif" font-size="14" lengthAdjust="spacing" textLength="36" x="87" y="289.7939">Email</text><text fill="#000000" font-family="sans-serif" font-size="14" lengthAdjust="spacing" textLength="108" x="51" y="306.0907">Communication</text></g><!--class Sender--><g id="elem_Sender"><rect codeLine="26" fill="#F1F1F1" height="40.2656" id="Sender" rx="2.5" ry="2.5" style="stroke:#181818;stroke-width:0.5;" width="86" x="62" y="149.41"/><ellipse cx="77" cy="169.5428" fill="#ADD1B2" rx="11" ry="11" style="stroke:#181818;stroke-width:1.0;"/><path d="M79.9688,175.1834 Q79.3906,175.4803 78.75,175.6209 Q78.1094,175.7772 77.4063,175.7772 Q74.9063,175.7772 73.5781,174.1366 Q72.2656,172.4803 72.2656,169.3553 Q72.2656,166.2303 73.5781,164.5741 Q74.9063,162.9178 77.4063,162.9178 Q78.1094,162.9178 78.75,163.0741 Q79.4063,163.2303 79.9688,163.5272 L79.9688,166.2459 Q79.3438,165.6678 78.75,165.4022 Q78.1563,165.1209 77.5313,165.1209 Q76.1875,165.1209 75.5,166.1991 Q74.8125,167.2616 74.8125,169.3553 Q74.8125,171.4491 75.5,172.5272 Q76.1875,173.5897 77.5313,173.5897 Q78.1563,173.5897 78.75,173.3241 Q79.3438,173.0428 79.9688,172.4647 L79.9688,175.1834 Z " fill="#000000"/><text fill="#000000" font-family="sans-serif" font-size="12" font-style="italic" lengthAdjust="spacing" textLength="58" x="89" y="165.5487">&#171;service&#187;</text><text fill="#000000" font-family="sans-serif" font-size="14" lengthAdjust="spacing" textLength="50" x="93" y="181.3739">Sender</text></g><!--link Customer to Email\nAddress--><g id="link_Customer_Email\nAddress"><path codeLine="29" d="M266.9,81.65 C266.05,96.64 264.87,117.68 263.87,135.31 " fill="none" id="Customer-to-Email\nAddress" style="stroke:#181818;stroke-width:1.0;"/><polygon fill="#181818" points="263.55,140.14,268.0333,131.3708,263.8218,135.1474,260.0452,130.9359,263.55,140.14" style="stroke:#181818;stroke-width:1.0;"/><text fill="#000000" font-family="sans-serif" font-size="13" lengthAdjust="spacing" textLength="23" x="238.3734" y="130.3658">0..*</text></g><!--reverse link Email\nAddress to Sender--><g id="link_Email\nAddress_Sender"><path codeLine="30" d="M211.2,169.55 C190.21,169.55 169.22,169.55 148.24,169.55 " fill="none" id="Email\nAddress-backto-Sender" style="stroke:#181818;stroke-width:1.0;stroke-dasharray:7.0,7.0;"/><polygon fill="#181818" points="216.12,169.55,207.12,165.55,211.12,169.55,207.12,173.55,216.12,169.55" style="stroke:#181818;stroke-width:1.0;"/><text fill="#000000" font-family="sans-serif" font-size="13" lengthAdjust="spacing" textLength="36" x="173.4565" y="149.8048">reads</text><text fill="#000000" font-family="sans-serif" font-size="13" lengthAdjust="spacing" textLength="4" x="189.4565" y="164.9376">&#160;</text></g><!--link Sender to Email\nCommunication--><g id="link_Sender_Email\nCommunication"><path codeLine="31" d="M102.79,189.98 C100.88,206.83 98.07,231.59 95.8,251.62 " fill="none" id="Sender-to-Email\nCommunication" style="stroke:#181818;stroke-width:1.0;stroke-dasharray:7.0,7.0;"/><polygon fill="#181818" points="95.14,256.41,100.1416,247.9256,95.711,251.4427,92.1939,247.0121,95.14,256.41" style="stroke:#181818;stroke-width:1.0;"/><text fill="#000000" font-family="sans-serif" font-size="13" lengthAdjust="spacing" textLength="48" x="42.5769" y="246.5724">creates</text></g><!--link Email\nCommunication to Email\nAddress--><g id="link_Email\nCommunication_Email\nAddress"><path codeLine="32" d="M133.07,257.43 C158.12,240.55 190.2,218.93 216.09,201.49 " fill="none" id="Email\nCommunication-to-Email\nAddress" style="stroke:#181818;stroke-width:1.0;"/><polygon fill="#181818" points="219.85,198.28,210.1535,200.0056,215.7074,201.0798,214.6332,206.6337,219.85,198.28" style="stroke:#181818;stroke-width:1.0;"/></g><!--SRC=[ZT71QiCm30RWkv_2z3X8s0EKmXR6BZiKTXY3NZHRfAAsR6mdNHXxzxbBMjBYhlCjzkVVYhGbZHAjJuEqQ3ymH27YZjX302kLWHZbbv1vFOBQjS5rh1jdN5WkDKQrMibc02u3xrC-Vw5scvu3uXLbwOZMnBko2SxWKRsZCMvVTZ45IDWEsRvjAM5PWQU_GRm5Y1C61ZFxlQ4iUp0TdiBA1ZbH6lxHgfvmRvr6SxjZbZw9BrhsBOJF3bgKgel9sJpjQRZZe9jfLqwpcnqzMI2puGUj0-RF8vX7Ecix9WM979_dJfURkP3Zv6TAlYBhtySZXfuKZlcdegfg9HVtTNstkAX6J1UhsXn8GD1nmzTLDYgZX75HB4qKwpqyVvxu0m00]--></g></svg>