<svg xmlns="http://www.w3.org/2000/svg" xmlns:xlink="http://www.w3.org/1999/xlink" contentStyleType="text/css" data-diagram-type="CLASS" height="345px" preserveAspectRatio="none" style="width:960px;height:345px;background:#FFFFFF;" version="1.1" viewBox="0 0 960 345" width="960px" zoomAndPan="magnify"><defs/><g><!--cluster documents--><g class="cluster" data-entity="documents" data-source-line="19" data-uid="ent0002" id="cluster_documents"><path d="M8.5,6 L96.4805,6 A3.75,3.75 0 0 1 98.9805,8.5 L105.9805,28.2969 L950.5,28.2969 A2.5,2.5 0 0 1 953,30.7969 L953,212.03 A2.5,2.5 0 0 1 950.5,214.53 L8.5,214.53 A2.5,2.5 0 0 1 6,212.03 L6,8.5 A2.5,2.5 0 0 1 8.5,6" fill="none" style="stroke:#000000;stroke-width:1.5;"/><line style="stroke:#000000;stroke-width:1.5;" x1="6" x2="105.9805" y1="28.2969" y2="28.2969"/><text fill="#000000" font-family="sans-serif" font-size="14" font-weight="bold" lengthAdjust="spacing" textLength="86.9805" x="10" y="20.9951">documents</text></g><!--cluster customers--><g class="cluster" data-entity="customers" data-source-line="29" data-uid="ent0012" id="cluster_customers"><path d="M396.5,247.53 L479.7295,247.53 A3.75,3.75 0 0 1 482.2295,250.03 L489.2295,269.8269 L523.5,269.8269 A2.5,2.5 0 0 1 526,272.3269 L526,336.3 A2.5,2.5 0 0 1 523.5,338.8 L396.5,338.8 A2.5,2.5 0 0 1 394,336.3 L394,250.03 A2.5,2.5 0 0 1 396.5,247.53" fill="none" style="stroke:#000000;stroke-width:1.5;"/><line style="stroke:#000000;stroke-width:1.5;" x1="394" x2="489.2295" y1="269.8269" y2="269.8269"/><text fill="#000000" font-family="sans-serif" font-size="14" font-weight="bold" lengthAdjust="spacing" textLength="82.2295" x="398" y="262.5251">customers</text></g><!--class DocumentHolder--><g class="entity" data-entity="DocumentHolder" data-source-line="20" data-uid="ent0003" id="entity_DocumentHolder"><rect fill="#FFFFE0" height="40.2656" rx="2.5" ry="2.5" style="stroke:#181818;stroke-width:0.5;" width="150.7676" x="384.62" y="41"/><ellipse cx="399.62" cy="61.1328" fill="#B4A7E5" rx="11" ry="11" style="stroke:#181818;stroke-width:1;"/><path d="M395.5419,56.8984 L395.5419,54.7422 L402.9325,54.7422 L402.9325,56.8984 L400.4638,56.8984 L400.4638,64.9766 L402.9325,64.9766 L402.9325,67.1328 L395.5419,67.1328 L395.5419,64.9766 L398.0106,64.9766 L398.0106,56.8984 L395.5419,56.8984 Z " fill="#000000"/><text fill="#000000" font-family="sans-serif" font-size="12" font-style="italic" lengthAdjust="spacing" textLength="37.6758" x="454.1659" y="57.1387">&#171;role&#187;</text><text fill="#000000" font-family="sans-serif" font-size="14" font-style="italic" lengthAdjust="spacing" textLength="118.7676" x="413.62" y="72.9639">DocumentHolder</text></g><!--class DocumentHolder_documents--><g class="entity" data-entity="DocumentHolder_documents" data-source-line="21" data-uid="ent0004" id="entity_DocumentHolder_documents"><rect fill="#FFFFE0" height="40.2656" rx="2.5" ry="2.5" style="stroke:#181818;stroke-width:0.5;" width="235.6973" x="22.15" y="41"/><ellipse cx="37.15" cy="61.1328" fill="#ADD1B2" rx="11" ry="11" style="stroke:#181818;stroke-width:1;"/><path d="M40.1188,66.7734 Q39.5406,67.0703 38.9,67.2109 Q38.2594,67.3672 37.5563,67.3672 Q35.0563,67.3672 33.7281,65.7266 Q32.4156,64.0703 32.4156,60.9453 Q32.4156,57.8203 33.7281,56.1641 Q35.0563,54.5078 37.5563,54.5078 Q38.2594,54.5078 38.9,54.6641 Q39.5563,54.8203 40.1188,55.1172 L40.1188,57.8359 Q39.4938,57.2578 38.9,56.9922 Q38.3063,56.7109 37.6813,56.7109 Q36.3375,56.7109 35.65,57.7891 Q34.9625,58.8516 34.9625,60.9453 Q34.9625,63.0391 35.65,64.1172 Q36.3375,65.1797 37.6813,65.1797 Q38.3063,65.1797 38.9,64.9141 Q39.4938,64.6328 40.1188,64.0547 L40.1188,66.7734 Z " fill="#000000"/><text fill="#000000" font-family="sans-serif" font-size="12" font-style="italic" lengthAdjust="spacing" textLength="47.748" x="129.1246" y="57.1387">&#171;mixin&#187;</text><text fill="#000000" font-family="sans-serif" font-size="14" lengthAdjust="spacing" textLength="203.6973" x="51.15" y="72.9639">DocumentHolder_documents</text></g><!--class DocumentHolder_attachDocument--><g class="entity" data-entity="DocumentHolder_attachDocument" data-source-line="22" data-uid="ent0005" id="entity_DocumentHolder_attachDocument"><rect fill="#FFFFE0" height="40.2656" rx="2.5" ry="2.5" style="stroke:#181818;stroke-width:0.5;" width="275.0039" x="661.5" y="41"/><ellipse cx="676.5" cy="61.1328" fill="#ADD1B2" rx="11" ry="11" style="stroke:#181818;stroke-width:1;"/><path d="M679.4688,66.7734 Q678.8906,67.0703 678.25,67.2109 Q677.6094,67.3672 676.9063,67.3672 Q674.4063,67.3672 673.0781,65.7266 Q671.7656,64.0703 671.7656,60.9453 Q671.7656,57.8203 673.0781,56.1641 Q674.4063,54.5078 676.9063,54.5078 Q677.6094,54.5078 678.25,54.6641 Q678.9063,54.8203 679.4688,55.1172 L679.4688,57.8359 Q678.8438,57.2578 678.25,56.9922 Q677.6563,56.7109 677.0313,56.7109 Q675.6875,56.7109 675,57.7891 Q674.3125,58.8516 674.3125,60.9453 Q674.3125,63.0391 675,64.1172 Q675.6875,65.1797 677.0313,65.1797 Q677.6563,65.1797 678.25,64.9141 Q678.8438,64.6328 679.4688,64.0547 L679.4688,66.7734 Z " fill="#000000"/><text fill="#000000" font-family="sans-serif" font-size="12" font-style="italic" lengthAdjust="spacing" textLength="47.748" x="788.1279" y="57.1387">&#171;mixin&#187;</text><text fill="#000000" font-family="sans-serif" font-size="14" lengthAdjust="spacing" textLength="243.0039" x="690.5" y="72.9639">DocumentHolder_attachDocument</text></g><!--class Document--><g class="entity" data-entity="Document" data-source-line="23" data-uid="ent0006" id="entity_Document"><rect fill="#90EE90" height="40.2656" rx="2.5" ry="2.5" style="stroke:#181818;stroke-width:0.5;" width="104.5293" x="87.74" y="158.27"/><ellipse cx="102.74" cy="178.4028" fill="#ADD1B2" rx="11" ry="11" style="stroke:#181818;stroke-width:1;"/><path d="M105.7088,184.0434 Q105.1306,184.3403 104.49,184.4809 Q103.8494,184.6372 103.1463,184.6372 Q100.6463,184.6372 99.3181,182.9966 Q98.0056,181.3403 98.0056,178.2153 Q98.0056,175.0903 99.3181,173.4341 Q100.6463,171.7778 103.1463,171.7778 Q103.8494,171.7778 104.49,171.9341 Q105.1463,172.0903 105.7088,172.3872 L105.7088,175.1059 Q105.0838,174.5278 104.49,174.2622 Q103.8963,173.9809 103.2713,173.9809 Q101.9275,173.9809 101.24,175.0591 Q100.5525,176.1216 100.5525,178.2153 Q100.5525,180.3091 101.24,181.3872 Q101.9275,182.4497 103.2713,182.4497 Q103.8963,182.4497 104.49,182.1841 Q105.0838,181.9028 105.7088,181.3247 L105.7088,184.0434 Z " fill="#000000"/><text fill="#000000" font-family="sans-serif" font-size="12" font-style="italic" lengthAdjust="spacing" textLength="34.623" x="135.6931" y="174.4087">&#171;ppt&#187;</text><text fill="#000000" font-family="sans-serif" font-size="14" lengthAdjust="spacing" textLength="72.5293" x="116.74" y="190.2339">Document</text></g><!--class Customer--><g class="entity" data-entity="Customer" data-source-line="30" data-uid="ent0013" id="entity_Customer"><rect fill="#90EE90" height="40.2656" rx="2.5" ry="2.5" style="stroke:#181818;stroke-width:0.5;" width="100.0039" x="410" y="282.53"/><ellipse cx="425" cy="302.6628" fill="#ADD1B2" rx="11" ry="11" style="stroke:#181818;stroke-width:1;"/><path d="M427.9688,308.3034 Q427.3906,308.6003 426.75,308.7409 Q426.1094,308.8972 425.4063,308.8972 Q422.9063,308.8972 421.5781,307.2566 Q420.2656,305.6003 420.2656,302.4753 Q420.2656,299.3503 421.5781,297.6941 Q422.9063,296.0378 425.4063,296.0378 Q426.1094,296.0378 426.75,296.1941 Q427.4063,296.3503 427.9688,296.6472 L427.9688,299.3659 Q427.3438,298.7878 426.75,298.5222 Q426.1563,298.2409 425.5313,298.2409 Q424.1875,298.2409 423.5,299.3191 Q422.8125,300.3816 422.8125,302.4753 Q422.8125,304.5691 423.5,305.6472 Q424.1875,306.7097 425.5313,306.7097 Q426.1563,306.7097 426.75,306.4441 Q427.3438,306.1628 427.9688,305.5847 L427.9688,308.3034 Z " fill="#000000"/><text fill="#000000" font-family="sans-serif" font-size="12" font-style="italic" lengthAdjust="spacing" textLength="34.623" x="455.6904" y="298.6687">&#171;ppt&#187;</text><text fill="#000000" font-family="sans-serif" font-size="14" lengthAdjust="spacing" textLength="68.0039" x="439" y="314.4939">Customer</text></g><!--link DocumentHolder_documents to Document--><g class="link" data-entity-1="DocumentHolder_documents" data-entity-2="Document" data-source-line="25" data-uid="lnk7" id="link_DocumentHolder_documents_Document"><path codeLine="25" d="M140,81.69 C140,103.01 140,130.93 140,152.14" fill="none" id="DocumentHolder_documents-to-Document" style="stroke:#181818;stroke-width:1;"/><polygon fill="#181818" points="140,158.14,144,149.14,140,153.14,136,149.14,140,158.14" style="stroke:#181818;stroke-width:1;"/><text fill="#000000" font-family="sans-serif" font-size="13" lengthAdjust="spacing" textLength="72.3633" x="141" y="124.3369">documents</text><text fill="#000000" font-family="sans-serif" font-size="13" lengthAdjust="spacing" textLength="23.0356" x="113.6257" y="147.0711">0..*</text></g><!--reverse link DocumentHolder to DocumentHolder_documents--><g class="link" data-entity-1="DocumentHolder" data-entity-2="DocumentHolder_documents" data-source-line="26" data-uid="lnk9" id="link_DocumentHolder_DocumentHolder_documents"><path codeLine="26" d="M378.43,61.14 C340.8,61.14 300.44,61.14 258.25,61.14" fill="none" id="DocumentHolder-backto-DocumentHolder_documents" style="stroke:#181818;stroke-width:1;stroke-dasharray:7,7;"/><polygon fill="#181818" points="384.43,61.14,375.43,57.14,379.43,61.14,375.43,65.14,384.43,61.14" style="stroke:#181818;stroke-width:1;"/><text fill="#000000" font-family="sans-serif" font-size="13" lengthAdjust="spacing" textLength="90.9365" x="276.23" y="54.2069">contributes to</text></g><!--reverse link DocumentHolder to DocumentHolder_attachDocument--><g class="link" data-entity-1="DocumentHolder" data-entity-2="DocumentHolder_attachDocument" data-source-line="27" data-uid="lnk11" id="link_DocumentHolder_DocumentHolder_attachDocument"><path codeLine="27" d="M541.66,61.14 C578.64,61.14 618.32,61.14 661.19,61.14" fill="none" id="DocumentHolder-backto-DocumentHolder_attachDocument" style="stroke:#181818;stroke-width:1;stroke-dasharray:7,7;"/><polygon fill="#181818" points="535.66,61.14,544.66,65.14,540.66,61.14,544.66,57.14,535.66,61.14" style="stroke:#181818;stroke-width:1;"/><text fill="#000000" font-family="sans-serif" font-size="13" lengthAdjust="spacing" textLength="90.9365" x="553.44" y="54.2069">contributes to</text></g><!--reverse link DocumentHolder to Customer--><g class="link" data-entity-1="DocumentHolder" data-entity-2="Customer" data-source-line="32" data-uid="lnk15" id="link_DocumentHolder_Customer"><path codeLine="32" d="M460,99.74 C460,144.77 460,237.17 460,282.13" fill="none" id="DocumentHolder-backto-Customer" style="stroke:#181818;stroke-width:1;stroke-dasharray:7,7;"/><polygon fill="none" points="460,81.74,454,99.74,466,99.74,460,81.74" style="stroke:#181818;stroke-width:1;"/></g><!--SRC=[ZPCzQyCm48Pt_uh3Oy6cSmWPca8xPEXMkhHSfAijh0yZdPEQqlzUaTZE1xOJZNVFVRolf5990Z8rjs38RCc790cLiZLwD20qXW2_2SJpXA8gl6kiN3lj_78fAOZL2jOjsd6WhZdcDwee-SKJJL16zT2RijKuuvscdleWhTr-d0liaQbe8_jUAgPn2cir3uHRWB9Ctg8-azUEaplK3GtDnXcohBYzmwgTehrnalHjnupwKVRAihyagIE71O5qeZ5nRd-v1q7VA0YUkyohqv8yzDuVgEDpk2I-Jgs6gTCmCgCe- -1i1NGFAAuzEJ6JsGhInpn_I8UwnKdSJ66kO-LbUW6fS9QzsZPC0TYboVpsTpOPJ1TDO6VY5-jCF-fTTz4plKCeQ_Biysh2Fm00]--></g></svg>