<svg xmlns="http://www.w3.org/2000/svg" xmlns:xlink="http://www.w3.org/1999/xlink" contentStyleType="text/css" data-diagram-type="CLASS" height="337px" preserveAspectRatio="none" style="width:343px;height:337px;background:#FFFFFF;" version="1.1" viewBox="0 0 343 337" width="343px" zoomAndPan="magnify"><defs/><g><!--cluster customers--><g class="cluster" data-entity="customers" data-source-line="19" data-uid="ent0002" id="cluster_customers"><path d="M206.5,6 L289.7295,6 A3.75,3.75 0 0 1 292.2295,8.5 L299.2295,28.2969 L333.5,28.2969 A2.5,2.5 0 0 1 336,30.7969 L336,211.33 A2.5,2.5 0 0 1 333.5,213.83 L206.5,213.83 A2.5,2.5 0 0 1 204,211.33 L204,8.5 A2.5,2.5 0 0 1 206.5,6" fill="none" style="stroke:#000000;stroke-width:1.5;"/><line style="stroke:#000000;stroke-width:1.5;" x1="204" x2="299.2295" y1="28.2969" y2="28.2969"/><text fill="#000000" font-family="sans-serif" font-size="14" font-weight="bold" lengthAdjust="spacing" textLength="82.2295" x="208" y="20.9951">customers</text></g><!--cluster communications--><g class="cluster" data-entity="communications" data-source-line="24" data-uid="ent0005" id="cluster_communications"><path d="M8.5,114.41 L138.4805,114.41 A3.75,3.75 0 0 1 140.9805,116.91 L147.9805,136.7069 L177.5,136.7069 A2.5,2.5 0 0 1 180,139.2069 L180,327.89 A2.5,2.5 0 0 1 177.5,330.39 L8.5,330.39 A2.5,2.5 0 0 1 6,327.89 L6,116.91 A2.5,2.5 0 0 1 8.5,114.41" fill="none" style="stroke:#000000;stroke-width:1.5;"/><line style="stroke:#000000;stroke-width:1.5;" x1="6" x2="147.9805" y1="136.7069" y2="136.7069"/><text fill="#000000" font-family="sans-serif" font-size="14" font-weight="bold" lengthAdjust="spacing" textLength="128.9805" x="10" y="129.4051">communications</text></g><!--class Customer--><g class="entity" data-entity="Customer" data-source-line="20" data-uid="ent0003" id="entity_Customer"><rect fill="#90EE90" height="40.2656" rx="2.5" ry="2.5" style="stroke:#181818;stroke-width:0.5;" width="100.0039" x="220" y="41"/><ellipse cx="235" cy="61.1328" fill="#ADD1B2" rx="11" ry="11" style="stroke:#181818;stroke-width:1;"/><path d="M237.9688,66.7734 Q237.3906,67.0703 236.75,67.2109 Q236.1094,67.3672 235.4063,67.3672 Q232.9063,67.3672 231.5781,65.7266 Q230.2656,64.0703 230.2656,60.9453 Q230.2656,57.8203 231.5781,56.1641 Q232.9063,54.5078 235.4063,54.5078 Q236.1094,54.5078 236.75,54.6641 Q237.4063,54.8203 237.9688,55.1172 L237.9688,57.8359 Q237.3438,57.2578 236.75,56.9922 Q236.1563,56.7109 235.5313,56.7109 Q234.1875,56.7109 233.5,57.7891 Q232.8125,58.8516 232.8125,60.9453 Q232.8125,63.0391 233.5,64.1172 Q234.1875,65.1797 235.5313,65.1797 Q236.1563,65.1797 236.75,64.9141 Q237.3438,64.6328 237.9688,64.0547 L237.9688,66.7734 Z " fill="#000000"/><text fill="#000000" font-family="sans-serif" font-size="12" font-style="italic" lengthAdjust="spacing" textLength="34.623" x="265.6904" y="57.1387">&#171;ppt&#187;</text><text fill="#000000" font-family="sans-serif" font-size="14" lengthAdjust="spacing" textLength="68.0039" x="249" y="72.9639">Customer</text></g><!--class Email\nAddress--><g class="entity" data-entity="Email\nAddress" data-source-line="21" data-uid="ent0004" id="entity_Email\nAddress"><rect fill="#90EE90" height="56.5625" rx="2.5" ry="2.5" style="stroke:#181818;stroke-width:0.5;" width="88.3076" x="219.85" y="141.27"/><ellipse cx="234.85" cy="169.5512" fill="#ADD1B2" rx="11" ry="11" style="stroke:#181818;stroke-width:1;"/><path d="M237.8188,175.1919 Q237.2406,175.4887 236.6,175.6294 Q235.9594,175.7856 235.2563,175.7856 Q232.7563,175.7856 231.4281,174.145 Q230.1156,172.4887 230.1156,169.3637 Q230.1156,166.2387 231.4281,164.5825 Q232.7563,162.9262 235.2563,162.9262 Q235.9594,162.9262 236.6,163.0825 Q237.2563,163.2387 237.8188,163.5356 L237.8188,166.2544 Q237.1938,165.6762 236.6,165.4106 Q236.0063,165.1294 235.3813,165.1294 Q234.0375,165.1294 233.35,166.2075 Q232.6625,167.27 232.6625,169.3637 Q232.6625,171.4575 233.35,172.5356 Q234.0375,173.5981 235.3813,173.5981 Q236.0063,173.5981 236.6,173.3325 Q237.1938,173.0512 237.8188,172.4731 L237.8188,175.1919 Z " fill="#000000"/><text fill="#000000" font-family="sans-serif" font-size="12" font-style="italic" lengthAdjust="spacing" textLength="34.623" x="259.6923" y="157.4087">&#171;ppt&#187;</text><text fill="#000000" font-family="sans-serif" font-size="14" lengthAdjust="spacing" textLength="38.8418" x="257.5829" y="173.2339">Email</text><text fill="#000000" font-family="sans-serif" font-size="14" lengthAdjust="spacing" textLength="56.3076" x="248.85" y="189.5307">Address</text></g><!--class Email\nCommunication--><g class="entity" data-entity="Email\nCommunication" data-source-line="25" data-uid="ent0006" id="entity_Email\nCommunication"><rect fill="#FFB6C1" height="56.5625" rx="2.5" ry="2.5" style="stroke:#181818;stroke-width:0.5;" width="142.3457" x="21.83" y="257.83"/><ellipse cx="36.83" cy="286.1113" fill="#ADD1B2" rx="11" ry="11" style="stroke:#181818;stroke-width:1;"/><path d="M39.7988,291.7519 Q39.2206,292.0488 38.58,292.1894 Q37.9394,292.3456 37.2363,292.3456 Q34.7363,292.3456 33.4081,290.705 Q32.0956,289.0488 32.0956,285.9238 Q32.0956,282.7988 33.4081,281.1425 Q34.7363,279.4863 37.2363,279.4863 Q37.9394,279.4863 38.58,279.6425 Q39.2363,279.7988 39.7988,280.0956 L39.7988,282.8144 Q39.1738,282.2363 38.58,281.9706 Q37.9863,281.6894 37.3613,281.6894 Q36.0175,281.6894 35.33,282.7675 Q34.6425,283.83 34.6425,285.9238 Q34.6425,288.0175 35.33,289.0956 Q36.0175,290.1581 37.3613,290.1581 Q37.9863,290.1581 38.58,289.8925 Q39.1738,289.6113 39.7988,289.0331 L39.7988,291.7519 Z " fill="#000000"/><text fill="#000000" font-family="sans-serif" font-size="12" font-style="italic" lengthAdjust="spacing" textLength="29.707" x="91.1493" y="273.9687">&#171;mi&#187;</text><text fill="#000000" font-family="sans-serif" font-size="14" lengthAdjust="spacing" textLength="38.8418" x="86.582" y="289.7939">Email</text><text fill="#000000" font-family="sans-serif" font-size="14" lengthAdjust="spacing" textLength="110.3457" x="50.83" y="306.0907">Communication</text></g><!--class Sender--><g class="entity" data-entity="Sender" data-source-line="26" data-uid="ent0007" id="entity_Sender"><rect fill="#F1F1F1" height="40.2656" rx="2.5" ry="2.5" style="stroke:#181818;stroke-width:0.5;" width="85.668" x="64.17" y="149.41"/><ellipse cx="79.17" cy="169.5428" fill="#ADD1B2" rx="11" ry="11" style="stroke:#181818;stroke-width:1;"/><path d="M82.1388,175.1834 Q81.5606,175.4803 80.92,175.6209 Q80.2794,175.7772 79.5763,175.7772 Q77.0763,175.7772 75.7481,174.1366 Q74.4356,172.4803 74.4356,169.3553 Q74.4356,166.2303 75.7481,164.5741 Q77.0763,162.9178 79.5763,162.9178 Q80.2794,162.9178 80.92,163.0741 Q81.5763,163.2303 82.1388,163.5272 L82.1388,166.2459 Q81.5138,165.6678 80.92,165.4022 Q80.3263,165.1209 79.7013,165.1209 Q78.3575,165.1209 77.67,166.1991 Q76.9825,167.2616 76.9825,169.3553 Q76.9825,171.4491 77.67,172.5272 Q78.3575,173.5897 79.7013,173.5897 Q80.3263,173.5897 80.92,173.3241 Q81.5138,173.0428 82.1388,172.4647 L82.1388,175.1834 Z " fill="#000000"/><text fill="#000000" font-family="sans-serif" font-size="12" font-style="italic" lengthAdjust="spacing" textLength="57.668" x="91.17" y="165.5487">&#171;service&#187;</text><text fill="#000000" font-family="sans-serif" font-size="14" lengthAdjust="spacing" textLength="49.6289" x="95.1895" y="181.3739">Sender</text></g><!--link Customer to Email\nAddress--><g class="link" data-entity-1="Customer" data-entity-2="Email\nAddress" data-source-line="29" data-uid="lnk8" id="link_Customer_Email\nAddress"><path codeLine="29" d="M268.9,81.65 C267.96,98.33 266.9378,116.5295 265.8878,135.1495" fill="none" id="Customer-to-Email\nAddress" style="stroke:#181818;stroke-width:1;"/><polygon fill="#181818" points="265.55,141.14,270.0504,132.3795,265.8315,136.1479,262.0631,131.9291,265.55,141.14" style="stroke:#181818;stroke-width:1;"/><text fill="#000000" font-family="sans-serif" font-size="13" lengthAdjust="spacing" textLength="23.0356" x="240.3765" y="130.3658">0..*</text></g><!--reverse link Email\nAddress to Sender--><g class="link" data-entity-1="Email\nAddress" data-entity-2="Sender" data-source-line="30" data-uid="lnk10" id="link_Email\nAddress_Sender"><path codeLine="30" d="M213.56,169.55 C190.45,169.55 173.34,169.55 150.24,169.55" fill="none" id="Email\nAddress-backto-Sender" style="stroke:#181818;stroke-width:1;stroke-dasharray:7.0,7.0;"/><polygon fill="#181818" points="219.56,169.55,210.56,165.55,214.56,169.55,210.56,173.55,219.56,169.55" style="stroke:#181818;stroke-width:1;"/><text fill="#000000" font-family="sans-serif" font-size="13" lengthAdjust="spacing" textLength="36.334" x="175.5808" y="149.7119">reads</text><text fill="#000000" font-family="sans-serif" font-size="13" lengthAdjust="spacing" textLength="4.1323" x="191.6816" y="164.8447">&#160;</text></g><!--link Sender to Email\nCommunication--><g class="link" data-entity-1="Sender" data-entity-2="Email\nCommunication" data-source-line="31" data-uid="lnk11" id="link_Sender_Email\nCommunication"><path codeLine="31" d="M104.63,189.98 C102.36,208.49 99.6552,230.594 97.1152,251.454" fill="none" id="Sender-to-Email\nCommunication" style="stroke:#181818;stroke-width:1;stroke-dasharray:7.0,7.0;"/><polygon fill="#181818" points="96.39,257.41,101.4485,248.9595,96.9944,252.4467,93.5072,247.9925,96.39,257.41" style="stroke:#181818;stroke-width:1;"/><text fill="#000000" font-family="sans-serif" font-size="13" lengthAdjust="spacing" textLength="48.3247" x="43.9165" y="246.5724">creates</text></g><!--link Email\nCommunication to Email\nAddress--><g class="link" data-entity-1="Email\nCommunication" data-entity-2="Email\nAddress" data-source-line="32" data-uid="lnk12" id="link_Email\nCommunication_Email\nAddress"><path codeLine="32" d="M134.31,257.43 C161.08,239.5 190.8346,219.5585 217.6246,201.6185" fill="none" id="Email\nCommunication-to-Email\nAddress" style="stroke:#181818;stroke-width:1;"/><polygon fill="#181818" points="222.61,198.28,212.9062,199.9641,218.4555,201.0621,217.3575,206.6114,222.61,198.28" style="stroke:#181818;stroke-width:1;"/></g><!--SRC=[ZT71QiCm30RWkv_2z3X8s0EKmXR6BZiKTXY3NZHRfAAsR6mdNHXxzxbBMjBYhlCjzkVVYhGbZHAjJuEqQ3ymH27YZjX302kLWHZbbv1vFOBQjS5rh1jdN5WkDKQrMibc02u3xrC-Vw5scvu3uXLbwOZMnBko2SxWKRsZCMvVTZ45IDWEsRvjAM5PWQU_GRm5Y1C61ZFxlQ4iUp0TdiBA1ZbH6lxHgfvmRvr6SxjZbZw9BrhsBOJF3bgKgel9sJpjQRZZe9jfLqwpcnqzMI2puGUj0-RF8vX7Ecix9WM979_dJfURkP3Zv6TAlYBhtySZXfuKZlcdegfg9HVtTNstkAX6J1UhsXn8GD1nmzTLDYgZX75HB4qKwpqyVvxu0m00]--></g></svg>