<?xml version="1.0" encoding="us-ascii" standalone="no"?><svg xmlns="http://www.w3.org/2000/svg" xmlns:xlink="http://www.w3.org/1999/xlink" contentStyleType="text/css" height="454px" preserveAspectRatio="none" style="width:431px;height:454px;background:#FFFFFF;" version="1.1" viewBox="0 0 431 454" width="431px" zoomAndPan="magnify"><defs/><g><!--cluster ordermgmt--><g id="cluster_ordermgmt"><path d="M8.5,6 L97.5,6 A3.75,3.75 0 0 1 100,8.5 L107,28.2969 L421.5,28.2969 A2.5,2.5 0 0 1 424,30.7969 L424,444.88 A2.5,2.5 0 0 1 421.5,447.38 L8.5,447.38 A2.5,2.5 0 0 1 6,444.88 L6,8.5 A2.5,2.5 0 0 1 8.5,6 " fill="none" style="stroke:#000000;stroke-width:1.5;"/><line style="stroke:#000000;stroke-width:1.5;" x1="6" x2="107" y1="28.2969" y2="28.2969"/><text fill="#000000" font-family="sans-serif" font-size="14" font-weight="bold" lengthAdjust="spacing" textLength="88" x="10" y="20.9951">ordermgmt</text></g><path d="M368,153.6 L392,153.6 A3.75,3.75 0 0 1 394.5,156.1 L401.5,175.8969 L406,175.8969 A2.5,2.5 0 0 1 408.5,178.3969 L408.5,203.6938 A2.5,2.5 0 0 1 406,206.1938 L368,206.1938 A2.5,2.5 0 0 1 365.5,203.6938 L365.5,156.1 A2.5,2.5 0 0 1 368,153.6 " fill="#F1F1F1" style="stroke:#181818;stroke-width:0.5;"/><line style="stroke:#181818;stroke-width:0.5;" x1="365.5" x2="401.5" y1="175.8969" y2="175.8969"/><text fill="#000000" font-family="sans-serif" font-size="14" font-weight="bold" lengthAdjust="spacing" textLength="23" x="369.5" y="168.5951">api</text><path d="M334,266.19 L382,266.19 A3.75,3.75 0 0 1 384.5,268.69 L391.5,288.4869 L396,288.4869 A2.5,2.5 0 0 1 398.5,290.9869 L398.5,316.2838 A2.5,2.5 0 0 1 396,318.7838 L334,318.7838 A2.5,2.5 0 0 1 331.5,316.2838 L331.5,268.69 A2.5,2.5 0 0 1 334,266.19 " fill="#F1F1F1" style="stroke:#181818;stroke-width:0.5;"/><line style="stroke:#181818;stroke-width:0.5;" x1="331.5" x2="391.5" y1="288.4869" y2="288.4869"/><text fill="#000000" font-family="sans-serif" font-size="14" font-weight="bold" lengthAdjust="spacing" textLength="47" x="335.5" y="281.1851">applib</text><path d="M245.5,41 L290.5,41 A3.75,3.75 0 0 1 293,43.5 L300,63.2969 L304.5,63.2969 A2.5,2.5 0 0 1 307,65.7969 L307,91.0938 A2.5,2.5 0 0 1 304.5,93.5938 L245.5,93.5938 A2.5,2.5 0 0 1 243,91.0938 L243,43.5 A2.5,2.5 0 0 1 245.5,41 " fill="#F1F1F1" style="stroke:#181818;stroke-width:0.5;"/><line style="stroke:#181818;stroke-width:0.5;" x1="243" x2="300" y1="63.2969" y2="63.2969"/><text fill="#000000" font-family="sans-serif" font-size="14" font-weight="bold" lengthAdjust="spacing" textLength="44" x="247" y="55.9951">menu</text><path d="M136,153.6 L192,153.6 A3.75,3.75 0 0 1 194.5,156.1 L201.5,175.8969 L206,175.8969 A2.5,2.5 0 0 1 208.5,178.3969 L208.5,203.6938 A2.5,2.5 0 0 1 206,206.1938 L136,206.1938 A2.5,2.5 0 0 1 133.5,203.6938 L133.5,156.1 A2.5,2.5 0 0 1 136,153.6 " fill="#F1F1F1" style="stroke:#181818;stroke-width:0.5;"/><line style="stroke:#181818;stroke-width:0.5;" x1="133.5" x2="201.5" y1="175.8969" y2="175.8969"/><text fill="#000000" font-family="sans-serif" font-size="14" font-weight="bold" lengthAdjust="spacing" textLength="55" x="137.5" y="168.5951">restapi</text><path d="M284,153.6 L314,153.6 A3.75,3.75 0 0 1 316.5,156.1 L323.5,175.8969 L328,175.8969 A2.5,2.5 0 0 1 330.5,178.3969 L330.5,203.6938 A2.5,2.5 0 0 1 328,206.1938 L284,206.1938 A2.5,2.5 0 0 1 281.5,203.6938 L281.5,156.1 A2.5,2.5 0 0 1 284,153.6 " fill="#F1F1F1" style="stroke:#181818;stroke-width:0.5;"/><line style="stroke:#181818;stroke-width:0.5;" x1="281.5" x2="323.5" y1="175.8969" y2="175.8969"/><text fill="#000000" font-family="sans-serif" font-size="14" font-weight="bold" lengthAdjust="spacing" textLength="29" x="285.5" y="168.5951">app</text><path d="M228.5,266.19 L263.5,266.19 A3.75,3.75 0 0 1 266,268.69 L273,288.4869 L277.5,288.4869 A2.5,2.5 0 0 1 280,290.9869 L280,316.2838 A2.5,2.5 0 0 1 277.5,318.7838 L228.5,318.7838 A2.5,2.5 0 0 1 226,316.2838 L226,268.69 A2.5,2.5 0 0 1 228.5,266.19 " fill="#F1F1F1" style="stroke:#181818;stroke-width:0.5;"/><line style="stroke:#181818;stroke-width:0.5;" x1="226" x2="273" y1="288.4869" y2="288.4869"/><text fill="#000000" font-family="sans-serif" font-size="14" font-weight="bold" lengthAdjust="spacing" textLength="34" x="230" y="281.1851">dom</text><path d="M234,378.79 L258,378.79 A3.75,3.75 0 0 1 260.5,381.29 L267.5,401.0869 L272,401.0869 A2.5,2.5 0 0 1 274.5,403.5869 L274.5,428.8837 A2.5,2.5 0 0 1 272,431.3837 L234,431.3837 A2.5,2.5 0 0 1 231.5,428.8837 L231.5,381.29 A2.5,2.5 0 0 1 234,378.79 " fill="#F1F1F1" style="stroke:#181818;stroke-width:0.5;"/><line style="stroke:#181818;stroke-width:0.5;" x1="231.5" x2="267.5" y1="401.0869" y2="401.0869"/><text fill="#000000" font-family="sans-serif" font-size="14" font-weight="bold" lengthAdjust="spacing" textLength="23" x="235.5" y="393.7851">spi</text><path d="M118,266.19 L174,266.19 A3.75,3.75 0 0 1 176.5,268.69 L183.5,288.4869 L188,288.4869 A2.5,2.5 0 0 1 190.5,290.9869 L190.5,316.2838 A2.5,2.5 0 0 1 188,318.7838 L118,318.7838 A2.5,2.5 0 0 1 115.5,316.2838 L115.5,268.69 A2.5,2.5 0 0 1 118,266.19 " fill="#F1F1F1" style="stroke:#181818;stroke-width:0.5;"/><line style="stroke:#181818;stroke-width:0.5;" x1="115.5" x2="183.5" y1="288.4869" y2="288.4869"/><text fill="#000000" font-family="sans-serif" font-size="14" font-weight="bold" lengthAdjust="spacing" textLength="55" x="119.5" y="281.1851">spiimpl</text><path d="M24.5,153.6 L81.5,153.6 A3.75,3.75 0 0 1 84,156.1 L91,175.8969 L95.5,175.8969 A2.5,2.5 0 0 1 98,178.3969 L98,203.6938 A2.5,2.5 0 0 1 95.5,206.1938 L24.5,206.1938 A2.5,2.5 0 0 1 22,203.6938 L22,156.1 A2.5,2.5 0 0 1 24.5,153.6 " fill="#F1F1F1" style="stroke:#181818;stroke-width:0.5;"/><line style="stroke:#181818;stroke-width:0.5;" x1="22" x2="91" y1="175.8969" y2="175.8969"/><text fill="#000000" font-family="sans-serif" font-size="14" font-weight="bold" lengthAdjust="spacing" textLength="56" x="26" y="168.5951">contrib</text><!--link api to dom--><g id="link_api_dom"><path codeLine="32" d="M365.17,198.91 C342.03,218.01 310.0677,244.3911 285.0077,265.0711 " fill="none" id="api-to-dom" style="stroke:#181818;stroke-width:1.0;"/><polygon fill="#181818" points="280.38,268.89,289.8675,266.2468,284.2365,265.7076,284.7757,260.0765,280.38,268.89" style="stroke:#181818;stroke-width:1.0;"/></g><!--link api to applib--><g id="link_api_applib"><path codeLine="33" d="M381.9,206.55 C378.34,224.41 374.791,242.2554 371.241,260.0954 " fill="none" id="api-to-applib" style="stroke:#181818;stroke-width:1.0;"/><polygon fill="#181818" points="370.07,265.98,375.7496,257.9337,371.0458,261.0761,367.9034,256.3724,370.07,265.98" style="stroke:#181818;stroke-width:1.0;"/></g><!--link restapi to dom--><g id="link_restapi_dom"><path codeLine="34" d="M190.02,206.55 C203.27,224.41 217.2877,243.3193 230.5077,261.1593 " fill="none" id="restapi-to-dom" style="stroke:#181818;stroke-width:1.0;"/><polygon fill="#181818" points="234.08,265.98,231.9354,256.3675,231.1031,261.9628,225.5078,261.1305,234.08,265.98" style="stroke:#181818;stroke-width:1.0;"/></g><!--link menu to dom--><g id="link_menu_dom"><path codeLine="35" d="M271.35,94.02 C269.04,110.93 266.09,133.55 264,153.6 C259.93,192.65 256.9781,232.0839 255.0881,259.8039 " fill="none" id="menu-to-dom" style="stroke:#181818;stroke-width:1.0;"/><polygon fill="#181818" points="254.68,265.79,259.2829,257.0829,255.0201,260.8016,251.3015,256.5388,254.68,265.79" style="stroke:#181818;stroke-width:1.0;"/></g><!--link menu to app--><g id="link_menu_app"><path codeLine="36" d="M282.19,93.95 C287.2,111.82 292.2299,129.7729 297.2299,147.6029 " fill="none" id="menu-to-app" style="stroke:#181818;stroke-width:1.0;"/><polygon fill="#181818" points="298.85,153.38,300.2713,143.6342,297.4999,148.5657,292.5685,145.7943,298.85,153.38" style="stroke:#181818;stroke-width:1.0;"/></g><!--link app to dom--><g id="link_app_dom"><path codeLine="37" d="M293.71,206.55 C285.15,224.41 276.3607,242.7281 267.8207,260.5681 " fill="none" id="app-to-dom" style="stroke:#181818;stroke-width:1.0;"/><polygon fill="#181818" points="265.23,265.98,272.7239,259.5893,267.3889,261.4701,265.5081,256.1351,265.23,265.98" style="stroke:#181818;stroke-width:1.0;"/></g><!--link contrib to dom--><g id="link_contrib_dom"><path codeLine="38" d="M98.13,202.75 C135.7,224.27 186.9744,253.6564 220.3344,272.7764 " fill="none" id="contrib-to-dom" style="stroke:#181818;stroke-width:1.0;"/><polygon fill="#181818" points="225.54,275.76,219.7206,267.8143,221.202,273.2737,215.7425,274.7551,225.54,275.76" style="stroke:#181818;stroke-width:1.0;"/></g><!--link spiimpl to dom--><g id="link_spiimpl_dom"><path codeLine="39" d="M190.89,292.49 C202.54,292.49 208.18,292.49 219.83,292.49 " fill="none" id="spiimpl-to-dom" style="stroke:#181818;stroke-width:1.0;"/><polygon fill="#181818" points="225.83,292.49,216.83,288.49,220.83,292.49,216.83,296.49,225.83,292.49" style="stroke:#181818;stroke-width:1.0;"/></g><!--link dom to spi--><g id="link_dom_spi"><path codeLine="41" d="M253,319.14 C253,337.01 253,354.74 253,372.57 " fill="none" id="dom-to-spi" style="stroke:#181818;stroke-width:1.0;"/><polygon fill="#181818" points="253,378.57,257,369.57,253,373.57,249,369.57,253,378.57" style="stroke:#181818;stroke-width:1.0;"/></g><!--link dom to applib--><g id="link_dom_applib"><path codeLine="42" d="M280.12,292.49 C297.14,292.49 296.16,292.49 313.18,292.49 " fill="none" id="dom-to-applib" style="stroke:#181818;stroke-width:1.0;"/><polygon fill="none" points="331.18,292.49,313.18,286.49,313.18,298.49,331.18,292.49" style="stroke:#181818;stroke-width:1.0;"/></g><!--SRC=[dT5BJiCm40RWlK_X2uGJL5dG1HiMx10R93SU9QFufR7J4bMzEox5G6oJ8BBBdoz-_3EW10xQXPbhq0SWpvWVqJX1GlDE2U_vcV7ut8jkxCbEHkwjihJRIV1Ts_BzB4mTE1VYzqViX_100ByeZGazeHdhXgo2f5v0ANkgEnz81EZdQ9y7351Nmk4wy5i0JG0oGlsutboNHw4c-5giRi043FCVgZeYdBILeBORq_Y69glimXXp4OeUk2K9f7iTFgURyjZDzPKB_qtkKdY-PDOfF1Js5cPMWvcATLEOMG8VhbikR0hBCzJEwshdbLQNDeMPzRKUVBs76ADsgh0VOMOxQmB5VXOsXT766PMzDqtBbqVUHhSviBB0rSNIHFw3uewidC7gIkdYgoWrsL1KIyJAEJPoeUBFLVHQTlKE]--></g></svg>