<?xml version="1.0" encoding="us-ascii" standalone="no"?><svg xmlns="http://www.w3.org/2000/svg" xmlns:xlink="http://www.w3.org/1999/xlink" contentStyleType="text/css" height="223px" preserveAspectRatio="none" style="width:434px;height:223px;background:#FFFFFF;" version="1.1" viewBox="0 0 434 223" width="434px" zoomAndPan="magnify"><defs/><g><!--cluster invoice--><g id="cluster_invoice"><path d="M8.5,6 L65.5,6 A3.75,3.75 0 0 1 68,8.5 L75,28.2969 L199.5,28.2969 A2.5,2.5 0 0 1 202,30.7969 L202,214.03 A2.5,2.5 0 0 1 199.5,216.53 L8.5,216.53 A2.5,2.5 0 0 1 6,214.03 L6,8.5 A2.5,2.5 0 0 1 8.5,6 " fill="none" style="stroke:#000000;stroke-width:1.5;"/><line style="stroke:#000000;stroke-width:1.5;" x1="6" x2="75" y1="28.2969" y2="28.2969"/><text fill="#000000" font-family="sans-serif" font-size="14" font-weight="bold" lengthAdjust="spacing" textLength="56" x="10" y="20.9951">invoice</text></g><!--cluster customers--><g id="cluster_customers"><path d="M297.5,6 L382.5,6 A3.75,3.75 0 0 1 385,8.5 L392,28.2969 L424.5,28.2969 A2.5,2.5 0 0 1 427,30.7969 L427,94.76 A2.5,2.5 0 0 1 424.5,97.26 L297.5,97.26 A2.5,2.5 0 0 1 295,94.76 L295,8.5 A2.5,2.5 0 0 1 297.5,6 " fill="none" style="stroke:#000000;stroke-width:1.5;"/><line style="stroke:#000000;stroke-width:1.5;" x1="295" x2="392" y1="28.2969" y2="28.2969"/><text fill="#000000" font-family="sans-serif" font-size="14" font-weight="bold" lengthAdjust="spacing" textLength="84" x="299" y="20.9951">customers</text></g><!--class Customer_invoices--><g id="elem_Customer_invoices"><rect codeLine="20" fill="#FFFFE0" height="40.2656" id="Customer_invoices" rx="2.5" ry="2.5" style="stroke:#181818;stroke-width:0.5;" width="163" x="22.5" y="41"/><ellipse cx="37.5" cy="61.1328" fill="#ADD1B2" rx="11" ry="11" style="stroke:#181818;stroke-width:1.0;"/><path d="M40.4688,66.7734 Q39.8906,67.0703 39.25,67.2109 Q38.6094,67.3672 37.9063,67.3672 Q35.4063,67.3672 34.0781,65.7266 Q32.7656,64.0703 32.7656,60.9453 Q32.7656,57.8203 34.0781,56.1641 Q35.4063,54.5078 37.9063,54.5078 Q38.6094,54.5078 39.25,54.6641 Q39.9063,54.8203 40.4688,55.1172 L40.4688,57.8359 Q39.8438,57.2578 39.25,56.9922 Q38.6563,56.7109 38.0313,56.7109 Q36.6875,56.7109 36,57.7891 Q35.3125,58.8516 35.3125,60.9453 Q35.3125,63.0391 36,64.1172 Q36.6875,65.1797 38.0313,65.1797 Q38.6563,65.1797 39.25,64.9141 Q39.8438,64.6328 40.4688,64.0547 L40.4688,66.7734 Z " fill="#000000"/><text fill="#000000" font-family="sans-serif" font-size="12" font-style="italic" lengthAdjust="spacing" textLength="45" x="94.5" y="57.1387">&#171;mixin&#187;</text><text fill="#000000" font-family="sans-serif" font-size="14" lengthAdjust="spacing" textLength="131" x="51.5" y="72.9639">Customer_invoices</text></g><!--class Invoice--><g id="elem_Invoice"><rect codeLine="21" fill="#FFB6C1" height="40.2656" id="Invoice" rx="2.5" ry="2.5" style="stroke:#181818;stroke-width:0.5;" width="80" x="64" y="160.26"/><ellipse cx="79" cy="180.3928" fill="#ADD1B2" rx="11" ry="11" style="stroke:#181818;stroke-width:1.0;"/><path d="M81.9688,186.0334 Q81.3906,186.3303 80.75,186.4709 Q80.1094,186.6272 79.4063,186.6272 Q76.9063,186.6272 75.5781,184.9866 Q74.2656,183.3303 74.2656,180.2053 Q74.2656,177.0803 75.5781,175.4241 Q76.9063,173.7678 79.4063,173.7678 Q80.1094,173.7678 80.75,173.9241 Q81.4063,174.0803 81.9688,174.3772 L81.9688,177.0959 Q81.3438,176.5178 80.75,176.2522 Q80.1563,175.9709 79.5313,175.9709 Q78.1875,175.9709 77.5,177.0491 Q76.8125,178.1116 76.8125,180.2053 Q76.8125,182.2991 77.5,183.3772 Q78.1875,184.4397 79.5313,184.4397 Q80.1563,184.4397 80.75,184.1741 Q81.3438,183.8928 81.9688,183.3147 L81.9688,186.0334 Z " fill="#000000"/><text fill="#000000" font-family="sans-serif" font-size="12" font-style="italic" lengthAdjust="spacing" textLength="28" x="103" y="176.3987">&#171;mi&#187;</text><text fill="#000000" font-family="sans-serif" font-size="14" lengthAdjust="spacing" textLength="48" x="93" y="192.2239">Invoice</text></g><!--class Customer--><g id="elem_Customer"><rect codeLine="26" fill="#90EE90" height="40.2656" id="Customer" rx="2.5" ry="2.5" style="stroke:#181818;stroke-width:0.5;" width="100" x="311" y="41"/><ellipse cx="326" cy="61.1328" fill="#ADD1B2" rx="11" ry="11" style="stroke:#181818;stroke-width:1.0;"/><path d="M328.9688,66.7734 Q328.3906,67.0703 327.75,67.2109 Q327.1094,67.3672 326.4063,67.3672 Q323.9063,67.3672 322.5781,65.7266 Q321.2656,64.0703 321.2656,60.9453 Q321.2656,57.8203 322.5781,56.1641 Q323.9063,54.5078 326.4063,54.5078 Q327.1094,54.5078 327.75,54.6641 Q328.4063,54.8203 328.9688,55.1172 L328.9688,57.8359 Q328.3438,57.2578 327.75,56.9922 Q327.1563,56.7109 326.5313,56.7109 Q325.1875,56.7109 324.5,57.7891 Q323.8125,58.8516 323.8125,60.9453 Q323.8125,63.0391 324.5,64.1172 Q325.1875,65.1797 326.5313,65.1797 Q327.1563,65.1797 327.75,64.9141 Q328.3438,64.6328 328.9688,64.0547 L328.9688,66.7734 Z " fill="#000000"/><text fill="#000000" font-family="sans-serif" font-size="12" font-style="italic" lengthAdjust="spacing" textLength="35" x="356.5" y="57.1387">&#171;ppt&#187;</text><text fill="#000000" font-family="sans-serif" font-size="14" lengthAdjust="spacing" textLength="68" x="340" y="72.9639">Customer</text></g><!--link Customer_invoices to Invoice--><g id="link_Customer_invoices_Invoice"><path codeLine="23" d="M104,81.76 C104,103.54 104,132.45 104,154.1 " fill="none" id="Customer_invoices-to-Invoice" style="stroke:#181818;stroke-width:1.0;"/><polygon fill="#181818" points="104,160.1,108,151.1,104,155.1,100,151.1,104,160.1" style="stroke:#181818;stroke-width:1.0;"/><text fill="#000000" font-family="sans-serif" font-size="13" lengthAdjust="spacing" textLength="51" x="105" y="126.3269">invoices</text><text fill="#000000" font-family="sans-serif" font-size="13" lengthAdjust="spacing" textLength="19" x="82.2094" y="149.0223">0.*</text></g><!--link Customer_invoices to Customer--><g id="link_Customer_invoices_Customer"><path codeLine="28" d="M185.67,61.13 C226.68,61.13 269.06,61.13 304.59,61.13 " fill="none" id="Customer_invoices-to-Customer" style="stroke:#181818;stroke-width:1.0;stroke-dasharray:7.0,7.0;"/><polygon fill="#181818" points="310.59,61.13,301.59,57.13,305.59,61.13,301.59,65.13,310.59,61.13" style="stroke:#181818;stroke-width:1.0;"/><text fill="#000000" font-family="sans-serif" font-size="13" lengthAdjust="spacing" textLength="89" x="203.75" y="54.1969">contributes to</text></g><!--SRC=[ZTBDJiCm303WUv_2wX5f4-Tfwe4U4187ReWJobAhjPe_nMv7X7Xt8gqT4mH6Zl5d9x4pK8U0DaW2Y_Q0aQkAHt91HML16yKCxnNaTQVqs4S_kQxrniVzlaFMJGDjKguCGf0SVwH-aFk8-8kojA8dScFPH6zmLIzeZ3-M7KjKWdtAzdaWmR9IWVu6V0sG4unEcOldfRASbPdmNAniq0b9-aUhPiAZzHsQwnspz4RkMyi-gYfafte4ShCdZSjeJsDk9nPlCRukGOPpcGlri6IU1fTh_apRR1geRxStzOftwtdyTGEzf77n3h3yddBzRSmdhFixgBLt4kamIGwAhpy1]--></g></svg>