<?xml version="1.0" encoding="us-ascii" standalone="no"?><svg xmlns="http://www.w3.org/2000/svg" xmlns:xlink="http://www.w3.org/1999/xlink" contentStyleType="text/css" height="135px" preserveAspectRatio="none" style="width:358px;height:135px;background:#FFFFFF;" version="1.1" viewBox="0 0 358 135" width="358px" zoomAndPan="magnify"><defs/><g><!--class Customer--><g id="elem_Customer"><rect fill="#F1F1F1" height="32" id="Customer" rx="2.5" ry="2.5" style="stroke:#181818;stroke-width:0.5;" width="100" x="7" y="51.74"/><ellipse cx="22" cy="67.74" fill="#ADD1B2" rx="11" ry="11" style="stroke:#181818;stroke-width:1.0;"/><path d="M24.9688,73.3806 Q24.3906,73.6775 23.75,73.8181 Q23.1094,73.9744 22.4063,73.9744 Q19.9063,73.9744 18.5781,72.3338 Q17.2656,70.6775 17.2656,67.5525 Q17.2656,64.4275 18.5781,62.7713 Q19.9063,61.115 22.4063,61.115 Q23.1094,61.115 23.75,61.2713 Q24.4063,61.4275 24.9688,61.7244 L24.9688,64.4431 Q24.3438,63.865 23.75,63.5994 Q23.1563,63.3181 22.5313,63.3181 Q21.1875,63.3181 20.5,64.3963 Q19.8125,65.4588 19.8125,67.5525 Q19.8125,69.6463 20.5,70.7244 Q21.1875,71.7869 22.5313,71.7869 Q23.1563,71.7869 23.75,71.5213 Q24.3438,71.24 24.9688,70.6619 L24.9688,73.3806 Z " fill="#000000"/><text fill="#000000" font-family="sans-serif" font-size="14" lengthAdjust="spacing" textLength="68" x="36" y="72.5867">Customer</text></g><!--class Order--><g id="elem_Order"><rect codeLine="5" fill="#F1F1F1" height="121.4844" id="Order" rx="2.5" ry="2.5" style="stroke:#181818;stroke-width:0.5;" width="151" x="200.5" y="7"/><ellipse cx="252.25" cy="23" fill="#ADD1B2" rx="11" ry="11" style="stroke:#181818;stroke-width:1.0;"/><path d="M255.2188,28.6406 Q254.6406,28.9375 254,29.0781 Q253.3594,29.2344 252.6563,29.2344 Q250.1563,29.2344 248.8281,27.5938 Q247.5156,25.9375 247.5156,22.8125 Q247.5156,19.6875 248.8281,18.0313 Q250.1563,16.375 252.6563,16.375 Q253.3594,16.375 254,16.5313 Q254.6563,16.6875 255.2188,16.9844 L255.2188,19.7031 Q254.5938,19.125 254,18.8594 Q253.4063,18.5781 252.7813,18.5781 Q251.4375,18.5781 250.75,19.6563 Q250.0625,20.7188 250.0625,22.8125 Q250.0625,24.9063 250.75,25.9844 Q251.4375,27.0469 252.7813,27.0469 Q253.4063,27.0469 254,26.7813 Q254.5938,26.5 255.2188,25.9219 L255.2188,28.6406 Z " fill="#000000"/><text fill="#000000" font-family="sans-serif" font-size="14" lengthAdjust="spacing" textLength="39" x="272.75" y="27.8467">Order</text><line style="stroke:#181818;stroke-width:0.5;" x1="201.5" x2="350.5" y1="39" y2="39"/><text fill="#000000" font-family="sans-serif" font-size="14" lengthAdjust="spacing" textLength="57" x="206.5" y="55.9951">num: int</text><text fill="#000000" font-family="sans-serif" font-size="14" lengthAdjust="spacing" textLength="108" x="206.5" y="72.292">placedOn: Date</text><text fill="#000000" font-family="sans-serif" font-size="14" lengthAdjust="spacing" textLength="118" x="206.5" y="88.5889">shippedOn: Date</text><text fill="#000000" font-family="sans-serif" font-size="14" lengthAdjust="spacing" textLength="80" x="206.5" y="104.8857">state: State</text><text fill="#000000" font-family="sans-serif" font-size="14" lengthAdjust="spacing" textLength="139" x="206.5" y="121.1826">amount: BigDecimal</text></g><!--link Customer to Order--><g id="link_Customer_Order"><path codeLine="3" d="M120.97,67.74 C141.42,67.74 164.44,67.74 186.36,67.74 " fill="none" id="Customer-Order" style="stroke:#181818;stroke-width:1.0;"/><polygon fill="#181818" points="108.24,67.74,114.24,71.74,120.24,67.74,114.24,63.74,108.24,67.74" style="stroke:#181818;stroke-width:1.0;"/><polygon fill="#181818" points="199.2,67.74,190.2,63.74,194.2,67.74,190.2,71.74,199.2,67.74" style="stroke:#181818;stroke-width:1.0;"/><line style="stroke:#181818;stroke-width:1.0;" x1="194.2" x2="186.2" y1="67.74" y2="67.74"/><text fill="#000000" font-family="sans-serif" font-size="13" lengthAdjust="spacing" textLength="41" x="141.25" y="60.8069">orders</text><text fill="#000000" font-family="sans-serif" font-size="13" lengthAdjust="spacing" textLength="8" x="114.8675" y="63.7615">1</text><text fill="#000000" font-family="sans-serif" font-size="13" lengthAdjust="spacing" textLength="23" x="169.4248" y="80.4806">0..*</text></g><!--SRC=[NOcn3i8W54NtznKlZ4tQwChWeDqx-0K8BvQ41mGUGsFyTscZYtUwvvpLEqBYB1ioyODA1RYrAecfe3eh7COoNb2TfcbGk1JNjKQ5VMc7gW1iCBL-smls51jhz54EoC5OSalKE1kXGzNLv_plf3-DT_a9mwb5qNZrpvciPnFW_G40]--></g></svg>