<svg xmlns="http://www.w3.org/2000/svg" xmlns:xlink="http://www.w3.org/1999/xlink" contentStyleType="text/css" data-diagram-type="CLASS" height="223px" preserveAspectRatio="none" style="width:436px;height:223px;background:#FFFFFF;" version="1.1" viewBox="0 0 436 223" width="436px" zoomAndPan="magnify"><defs/><g><!--cluster invoice--><g class="cluster" data-entity="invoice" data-source-line="19" data-uid="ent0002" id="cluster_invoice"><path d="M8.5,6 L65.6025,6 A3.75,3.75 0 0 1 68.1025,8.5 L75.1025,28.2969 L199.5,28.2969 A2.5,2.5 0 0 1 202,30.7969 L202,214.03 A2.5,2.5 0 0 1 199.5,216.53 L8.5,216.53 A2.5,2.5 0 0 1 6,214.03 L6,8.5 A2.5,2.5 0 0 1 8.5,6" fill="none" style="stroke:#000000;stroke-width:1.5;"/><line style="stroke:#000000;stroke-width:1.5;" x1="6" x2="75.1025" y1="28.2969" y2="28.2969"/><text fill="#000000" font-family="sans-serif" font-size="14" font-weight="bold" lengthAdjust="spacing" textLength="56.1025" x="10" y="20.9951">invoice</text></g><!--cluster customers--><g class="cluster" data-entity="customers" data-source-line="25" data-uid="ent0006" id="cluster_customers"><path d="M299.5,6 L382.7295,6 A3.75,3.75 0 0 1 385.2295,8.5 L392.2295,28.2969 L426.5,28.2969 A2.5,2.5 0 0 1 429,30.7969 L429,94.76 A2.5,2.5 0 0 1 426.5,97.26 L299.5,97.26 A2.5,2.5 0 0 1 297,94.76 L297,8.5 A2.5,2.5 0 0 1 299.5,6" fill="none" style="stroke:#000000;stroke-width:1.5;"/><line style="stroke:#000000;stroke-width:1.5;" x1="297" x2="392.2295" y1="28.2969" y2="28.2969"/><text fill="#000000" font-family="sans-serif" font-size="14" font-weight="bold" lengthAdjust="spacing" textLength="82.2295" x="301" y="20.9951">customers</text></g><!--class Customer_invoices--><g class="entity" data-entity="Customer_invoices" data-source-line="20" data-uid="ent0003" id="entity_Customer_invoices"><rect fill="#FFFFE0" height="40.2656" rx="2.5" ry="2.5" style="stroke:#181818;stroke-width:0.5;" width="164.1113" x="21.94" y="41"/><ellipse cx="36.94" cy="61.1328" fill="#ADD1B2" rx="11" ry="11" style="stroke:#181818;stroke-width:1;"/><path d="M39.9088,66.7734 Q39.3306,67.0703 38.69,67.2109 Q38.0494,67.3672 37.3463,67.3672 Q34.8463,67.3672 33.5181,65.7266 Q32.2056,64.0703 32.2056,60.9453 Q32.2056,57.8203 33.5181,56.1641 Q34.8463,54.5078 37.3463,54.5078 Q38.0494,54.5078 38.69,54.6641 Q39.3463,54.8203 39.9088,55.1172 L39.9088,57.8359 Q39.2838,57.2578 38.69,56.9922 Q38.0963,56.7109 37.4713,56.7109 Q36.1275,56.7109 35.44,57.7891 Q34.7525,58.8516 34.7525,60.9453 Q34.7525,63.0391 35.44,64.1172 Q36.1275,65.1797 37.4713,65.1797 Q38.0963,65.1797 38.69,64.9141 Q39.2838,64.6328 39.9088,64.0547 L39.9088,66.7734 Z " fill="#000000"/><text fill="#000000" font-family="sans-serif" font-size="12" font-style="italic" lengthAdjust="spacing" textLength="47.748" x="93.1216" y="57.1387">&#171;mixin&#187;</text><text fill="#000000" font-family="sans-serif" font-size="14" lengthAdjust="spacing" textLength="132.1113" x="50.94" y="72.9639">Customer_invoices</text></g><!--class Invoice--><g class="entity" data-entity="Invoice" data-source-line="21" data-uid="ent0004" id="entity_Invoice"><rect fill="#FFB6C1" height="40.2656" rx="2.5" ry="2.5" style="stroke:#181818;stroke-width:0.5;" width="82.0527" x="62.97" y="160.26"/><ellipse cx="77.97" cy="180.3928" fill="#ADD1B2" rx="11" ry="11" style="stroke:#181818;stroke-width:1;"/><path d="M80.9388,186.0334 Q80.3606,186.3303 79.72,186.4709 Q79.0794,186.6272 78.3763,186.6272 Q75.8763,186.6272 74.5481,184.9866 Q73.2356,183.3303 73.2356,180.2053 Q73.2356,177.0803 74.5481,175.4241 Q75.8763,173.7678 78.3763,173.7678 Q79.0794,173.7678 79.72,173.9241 Q80.3763,174.0803 80.9388,174.3772 L80.9388,177.0959 Q80.3138,176.5178 79.72,176.2522 Q79.1263,175.9709 78.5013,175.9709 Q77.1575,175.9709 76.47,177.0491 Q75.7825,178.1116 75.7825,180.2053 Q75.7825,182.2991 76.47,183.3772 Q77.1575,184.4397 78.5013,184.4397 Q79.1263,184.4397 79.72,184.1741 Q80.3138,183.8928 80.9388,183.3147 L80.9388,186.0334 Z " fill="#000000"/><text fill="#000000" font-family="sans-serif" font-size="12" font-style="italic" lengthAdjust="spacing" textLength="29.707" x="102.1429" y="176.3987">&#171;mi&#187;</text><text fill="#000000" font-family="sans-serif" font-size="14" lengthAdjust="spacing" textLength="50.0527" x="91.97" y="192.2239">Invoice</text></g><!--class Customer--><g class="entity" data-entity="Customer" data-source-line="26" data-uid="ent0007" id="entity_Customer"><rect fill="#90EE90" height="40.2656" rx="2.5" ry="2.5" style="stroke:#181818;stroke-width:0.5;" width="100.0039" x="313" y="41"/><ellipse cx="328" cy="61.1328" fill="#ADD1B2" rx="11" ry="11" style="stroke:#181818;stroke-width:1;"/><path d="M330.9688,66.7734 Q330.3906,67.0703 329.75,67.2109 Q329.1094,67.3672 328.4063,67.3672 Q325.9063,67.3672 324.5781,65.7266 Q323.2656,64.0703 323.2656,60.9453 Q323.2656,57.8203 324.5781,56.1641 Q325.9063,54.5078 328.4063,54.5078 Q329.1094,54.5078 329.75,54.6641 Q330.4063,54.8203 330.9688,55.1172 L330.9688,57.8359 Q330.3438,57.2578 329.75,56.9922 Q329.1563,56.7109 328.5313,56.7109 Q327.1875,56.7109 326.5,57.7891 Q325.8125,58.8516 325.8125,60.9453 Q325.8125,63.0391 326.5,64.1172 Q327.1875,65.1797 328.5313,65.1797 Q329.1563,65.1797 329.75,64.9141 Q330.3438,64.6328 330.9688,64.0547 L330.9688,66.7734 Z " fill="#000000"/><text fill="#000000" font-family="sans-serif" font-size="12" font-style="italic" lengthAdjust="spacing" textLength="34.623" x="358.6904" y="57.1387">&#171;ppt&#187;</text><text fill="#000000" font-family="sans-serif" font-size="14" lengthAdjust="spacing" textLength="68.0039" x="342" y="72.9639">Customer</text></g><!--link Customer_invoices to Invoice--><g class="link" data-entity-1="Customer_invoices" data-entity-2="Invoice" data-source-line="23" data-uid="lnk5" id="link_Customer_invoices_Invoice"><path codeLine="23" d="M104,81.76 C104,103.54 104,132.45 104,154.1" fill="none" id="Customer_invoices-to-Invoice" style="stroke:#181818;stroke-width:1;"/><polygon fill="#181818" points="104,160.1,108,151.1,104,155.1,100,151.1,104,160.1" style="stroke:#181818;stroke-width:1;"/><text fill="#000000" font-family="sans-serif" font-size="13" lengthAdjust="spacing" textLength="53.0283" x="105" y="126.3269">invoices</text><text fill="#000000" font-family="sans-serif" font-size="13" lengthAdjust="spacing" textLength="18.9033" x="83.49" y="149.0223">0.*</text></g><!--link Customer_invoices to Customer--><g class="link" data-entity-1="Customer_invoices" data-entity-2="Customer" data-source-line="28" data-uid="lnk8" id="link_Customer_invoices_Customer"><path codeLine="28" d="M186.31,61.13 C227.78,61.13 270.74,61.13 306.59,61.13" fill="none" id="Customer_invoices-to-Customer" style="stroke:#181818;stroke-width:1;stroke-dasharray:7.0,7.0;"/><polygon fill="#181818" points="312.59,61.13,303.59,57.13,307.59,61.13,303.59,65.13,312.59,61.13" style="stroke:#181818;stroke-width:1;"/><text fill="#000000" font-family="sans-serif" font-size="13" lengthAdjust="spacing" textLength="90.9365" x="204.53" y="54.1969">contributes to</text></g><!--SRC=[ZTBDJiCm303WUv_2wX5f4-Tfwe4U4187ReWJobAhjPe_nMv7X7Xt8gqT4mH6Zl5d9x4pK8U0DaW2Y_Q0aQkAHt91HML16yKCxnNaTQVqs4S_kQxrniVzlaFMJGDjKguCGf0SVwH-aFk8-8kojA8dScFPH6zmLIzeZ3-M7KjKWdtAzdaWmR9IWVu6V0sG4unEcOldfRASbPdmNAniq0b9-aUhPiAZzHsQwnspz4RkMyi-gYfafte4ShCdZSjeJsDk9nPlCRukGOPpcGlri6IU1fTh_apRR1geRxStzOftwtdyTGEzf77n3h3yddBzRSmdhFixgBLt4kamIGwAhpy1]--></g></svg>