<?xml version="1.0" encoding="us-ascii" standalone="no"?><svg xmlns="http://www.w3.org/2000/svg" xmlns:xlink="http://www.w3.org/1999/xlink" contentStyleType="text/css" height="581px" preserveAspectRatio="none" style="width:429px;height:581px;background:#FFFFFF;" version="1.1" viewBox="0 0 429 581" width="429px" zoomAndPan="magnify"><defs/><g><!--cluster warehouse--><g id="cluster_warehouse"><path d="M57.5,471.38 L147.5,471.38 A3.75,3.75 0 0 1 150,473.88 L157,493.6769 L160.5,493.6769 A2.5,2.5 0 0 1 163,496.1769 L163,572.47 A2.5,2.5 0 0 1 160.5,574.97 L57.5,574.97 A2.5,2.5 0 0 1 55,572.47 L55,473.88 A2.5,2.5 0 0 1 57.5,471.38 " fill="none" style="stroke:#000000;stroke-width:1.5;"/><line style="stroke:#000000;stroke-width:1.5;" x1="55" x2="157" y1="493.6769" y2="493.6769"/><text fill="#000000" font-family="sans-serif" font-size="14" font-weight="bold" lengthAdjust="spacing" textLength="89" x="59" y="486.3751">warehouse</text></g><!--cluster shipping--><g id="cluster_shipping"><path d="M338.5,6 L406.5,6 A3.75,3.75 0 0 1 409,8.5 L416,28.2969 L419.5,28.2969 A2.5,2.5 0 0 1 422,30.7969 L422,107.09 A2.5,2.5 0 0 1 419.5,109.59 L338.5,109.59 A2.5,2.5 0 0 1 336,107.09 L336,8.5 A2.5,2.5 0 0 1 338.5,6 " fill="none" style="stroke:#000000;stroke-width:1.5;"/><line style="stroke:#000000;stroke-width:1.5;" x1="336" x2="416" y1="28.2969" y2="28.2969"/><text fill="#000000" font-family="sans-serif" font-size="14" font-weight="bold" lengthAdjust="spacing" textLength="67" x="340" y="20.9951">shipping</text></g><!--cluster customer--><g id="cluster_customer"><path d="M189.5,471.38 L265.5,471.38 A3.75,3.75 0 0 1 268,473.88 L275,493.6769 L284.5,493.6769 A2.5,2.5 0 0 1 287,496.1769 L287,572.47 A2.5,2.5 0 0 1 284.5,574.97 L189.5,574.97 A2.5,2.5 0 0 1 187,572.47 L187,473.88 A2.5,2.5 0 0 1 189.5,471.38 " fill="none" style="stroke:#000000;stroke-width:1.5;"/><line style="stroke:#000000;stroke-width:1.5;" x1="187" x2="275" y1="493.6769" y2="493.6769"/><text fill="#000000" font-family="sans-serif" font-size="14" font-weight="bold" lengthAdjust="spacing" textLength="75" x="191" y="486.3751">customer</text></g><!--cluster ordermgmt--><g id="cluster_ordermgmt"><path d="M8.5,6 L97.5,6 A3.75,3.75 0 0 1 100,8.5 L107,28.2969 L309.5,28.2969 A2.5,2.5 0 0 1 312,30.7969 L312,444.88 A2.5,2.5 0 0 1 309.5,447.38 L8.5,447.38 A2.5,2.5 0 0 1 6,444.88 L6,8.5 A2.5,2.5 0 0 1 8.5,6 " fill="none" style="stroke:#000000;stroke-width:1.5;"/><line style="stroke:#000000;stroke-width:1.5;" x1="6" x2="107" y1="28.2969" y2="28.2969"/><text fill="#000000" font-family="sans-serif" font-size="14" font-weight="bold" lengthAdjust="spacing" textLength="88" x="10" y="20.9951">ordermgmt</text></g><path d="M74,506.38 L130,506.38 A3.75,3.75 0 0 1 132.5,508.88 L139.5,528.6769 L144,528.6769 A2.5,2.5 0 0 1 146.5,531.1769 L146.5,556.4738 A2.5,2.5 0 0 1 144,558.9738 L74,558.9738 A2.5,2.5 0 0 1 71.5,556.4738 L71.5,508.88 A2.5,2.5 0 0 1 74,506.38 " fill="#F1F1F1" style="stroke:#181818;stroke-width:0.5;"/><line style="stroke:#181818;stroke-width:0.5;" x1="71.5" x2="139.5" y1="528.6769" y2="528.6769"/><text fill="#000000" font-family="sans-serif" font-size="14" font-weight="bold" lengthAdjust="spacing" textLength="55" x="75.5" y="521.3751">spiimpl</text><path d="M354.5,41 L389.5,41 A3.75,3.75 0 0 1 392,43.5 L399,63.2969 L403.5,63.2969 A2.5,2.5 0 0 1 406,65.7969 L406,91.0938 A2.5,2.5 0 0 1 403.5,93.5938 L354.5,93.5938 A2.5,2.5 0 0 1 352,91.0938 L352,43.5 A2.5,2.5 0 0 1 354.5,41 " fill="#F1F1F1" style="stroke:#181818;stroke-width:0.5;"/><line style="stroke:#181818;stroke-width:0.5;" x1="352" x2="399" y1="63.2969" y2="63.2969"/><text fill="#000000" font-family="sans-serif" font-size="14" font-weight="bold" lengthAdjust="spacing" textLength="34" x="356" y="55.9951">dom</text><path d="M206,506.38 L254,506.38 A3.75,3.75 0 0 1 256.5,508.88 L263.5,528.6769 L268,528.6769 A2.5,2.5 0 0 1 270.5,531.1769 L270.5,556.4738 A2.5,2.5 0 0 1 268,558.9738 L206,558.9738 A2.5,2.5 0 0 1 203.5,556.4738 L203.5,508.88 A2.5,2.5 0 0 1 206,506.38 " fill="#F1F1F1" style="stroke:#181818;stroke-width:0.5;"/><line style="stroke:#181818;stroke-width:0.5;" x1="203.5" x2="263.5" y1="528.6769" y2="528.6769"/><text fill="#000000" font-family="sans-serif" font-size="14" font-weight="bold" lengthAdjust="spacing" textLength="47" x="207.5" y="521.3751">applib</text><path d="M256,153.59 L280,153.59 A3.75,3.75 0 0 1 282.5,156.09 L289.5,175.8869 L294,175.8869 A2.5,2.5 0 0 1 296.5,178.3869 L296.5,203.6838 A2.5,2.5 0 0 1 294,206.1838 L256,206.1838 A2.5,2.5 0 0 1 253.5,203.6838 L253.5,156.09 A2.5,2.5 0 0 1 256,153.59 " fill="#F1F1F1" style="stroke:#181818;stroke-width:0.5;"/><line style="stroke:#181818;stroke-width:0.5;" x1="253.5" x2="289.5" y1="175.8869" y2="175.8869"/><text fill="#000000" font-family="sans-serif" font-size="14" font-weight="bold" lengthAdjust="spacing" textLength="23" x="257.5" y="168.5851">api</text><path d="M231,266.19 L279,266.19 A3.75,3.75 0 0 1 281.5,268.69 L288.5,288.4869 L293,288.4869 A2.5,2.5 0 0 1 295.5,290.9869 L295.5,316.2838 A2.5,2.5 0 0 1 293,318.7838 L231,318.7838 A2.5,2.5 0 0 1 228.5,316.2838 L228.5,268.69 A2.5,2.5 0 0 1 231,266.19 " fill="#F1F1F1" style="stroke:#181818;stroke-width:0.5;"/><line style="stroke:#181818;stroke-width:0.5;" x1="228.5" x2="288.5" y1="288.4869" y2="288.4869"/><text fill="#000000" font-family="sans-serif" font-size="14" font-weight="bold" lengthAdjust="spacing" textLength="47" x="232.5" y="281.1851">applib</text><path d="M146,153.59 L202,153.59 A3.75,3.75 0 0 1 204.5,156.09 L211.5,175.8869 L216,175.8869 A2.5,2.5 0 0 1 218.5,178.3869 L218.5,203.6838 A2.5,2.5 0 0 1 216,206.1838 L146,206.1838 A2.5,2.5 0 0 1 143.5,203.6838 L143.5,156.09 A2.5,2.5 0 0 1 146,153.59 " fill="#F1F1F1" style="stroke:#181818;stroke-width:0.5;"/><line style="stroke:#181818;stroke-width:0.5;" x1="143.5" x2="211.5" y1="175.8869" y2="175.8869"/><text fill="#000000" font-family="sans-serif" font-size="14" font-weight="bold" lengthAdjust="spacing" textLength="55" x="147.5" y="168.5851">restapi</text><path d="M39.5,41 L84.5,41 A3.75,3.75 0 0 1 87,43.5 L94,63.2969 L98.5,63.2969 A2.5,2.5 0 0 1 101,65.7969 L101,91.0938 A2.5,2.5 0 0 1 98.5,93.5938 L39.5,93.5938 A2.5,2.5 0 0 1 37,91.0938 L37,43.5 A2.5,2.5 0 0 1 39.5,41 " fill="#F1F1F1" style="stroke:#181818;stroke-width:0.5;"/><line style="stroke:#181818;stroke-width:0.5;" x1="37" x2="94" y1="63.2969" y2="63.2969"/><text fill="#000000" font-family="sans-serif" font-size="14" font-weight="bold" lengthAdjust="spacing" textLength="44" x="41" y="55.9951">menu</text><path d="M62,153.59 L92,153.59 A3.75,3.75 0 0 1 94.5,156.09 L101.5,175.8869 L106,175.8869 A2.5,2.5 0 0 1 108.5,178.3869 L108.5,203.6838 A2.5,2.5 0 0 1 106,206.1838 L62,206.1838 A2.5,2.5 0 0 1 59.5,203.6838 L59.5,156.09 A2.5,2.5 0 0 1 62,153.59 " fill="#F1F1F1" style="stroke:#181818;stroke-width:0.5;"/><line style="stroke:#181818;stroke-width:0.5;" x1="59.5" x2="101.5" y1="175.8869" y2="175.8869"/><text fill="#000000" font-family="sans-serif" font-size="14" font-weight="bold" lengthAdjust="spacing" textLength="29" x="63.5" y="168.5851">app</text><path d="M141.5,266.19 L176.5,266.19 A3.75,3.75 0 0 1 179,268.69 L186,288.4869 L190.5,288.4869 A2.5,2.5 0 0 1 193,290.9869 L193,316.2838 A2.5,2.5 0 0 1 190.5,318.7838 L141.5,318.7838 A2.5,2.5 0 0 1 139,316.2838 L139,268.69 A2.5,2.5 0 0 1 141.5,266.19 " fill="#F1F1F1" style="stroke:#181818;stroke-width:0.5;"/><line style="stroke:#181818;stroke-width:0.5;" x1="139" x2="186" y1="288.4869" y2="288.4869"/><text fill="#000000" font-family="sans-serif" font-size="14" font-weight="bold" lengthAdjust="spacing" textLength="34" x="143" y="281.1851">dom</text><path d="M176.5,378.78 L233.5,378.78 A3.75,3.75 0 0 1 236,381.28 L243,401.0769 L247.5,401.0769 A2.5,2.5 0 0 1 250,403.5769 L250,428.8738 A2.5,2.5 0 0 1 247.5,431.3738 L176.5,431.3738 A2.5,2.5 0 0 1 174,428.8738 L174,381.28 A2.5,2.5 0 0 1 176.5,378.78 " fill="#F1F1F1" style="stroke:#181818;stroke-width:0.5;"/><line style="stroke:#181818;stroke-width:0.5;" x1="174" x2="243" y1="401.0769" y2="401.0769"/><text fill="#000000" font-family="sans-serif" font-size="14" font-weight="bold" lengthAdjust="spacing" textLength="56" x="178" y="393.7751">contrib</text><path d="M93,378.78 L117,378.78 A3.75,3.75 0 0 1 119.5,381.28 L126.5,401.0769 L131,401.0769 A2.5,2.5 0 0 1 133.5,403.5769 L133.5,428.8738 A2.5,2.5 0 0 1 131,431.3738 L93,431.3738 A2.5,2.5 0 0 1 90.5,428.8738 L90.5,381.28 A2.5,2.5 0 0 1 93,378.78 " fill="#F1F1F1" style="stroke:#181818;stroke-width:0.5;"/><line style="stroke:#181818;stroke-width:0.5;" x1="90.5" x2="126.5" y1="401.0769" y2="401.0769"/><text fill="#000000" font-family="sans-serif" font-size="14" font-weight="bold" lengthAdjust="spacing" textLength="23" x="94.5" y="393.7751">spi</text><path d="M31,266.19 L87,266.19 A3.75,3.75 0 0 1 89.5,268.69 L96.5,288.4869 L101,288.4869 A2.5,2.5 0 0 1 103.5,290.9869 L103.5,316.2838 A2.5,2.5 0 0 1 101,318.7838 L31,318.7838 A2.5,2.5 0 0 1 28.5,316.2838 L28.5,268.69 A2.5,2.5 0 0 1 31,266.19 " fill="#F1F1F1" style="stroke:#181818;stroke-width:0.5;"/><line style="stroke:#181818;stroke-width:0.5;" x1="28.5" x2="96.5" y1="288.4869" y2="288.4869"/><text fill="#000000" font-family="sans-serif" font-size="14" font-weight="bold" lengthAdjust="spacing" textLength="55" x="32.5" y="281.1851">spiimpl</text><!--link api to dom--><g id="link_api_dom"><path codeLine="43" d="M253.2,203.01 C236.57,219.88 213.48,243.31 195.25,261.81 " fill="none" id="api-to-dom" style="stroke:#181818;stroke-width:1.0;"/><polygon fill="#181818" points="192.2,264.92,201.3708,261.3288,195.714,261.3631,195.6798,255.7064,192.2,264.92" style="stroke:#181818;stroke-width:1.0;"/></g><!--link api to applib--><g id="link_api_applib"><path codeLine="44" d="M271.98,206.54 C270.1,222.59 267.65,243.38 265.66,260.37 " fill="none" id="api-to-applib" style="stroke:#181818;stroke-width:1.0;"/><polygon fill="#181818" points="265,264.97,270.0256,256.4998,265.585,260.0043,262.0805,255.5638,265,264.97" style="stroke:#181818;stroke-width:1.0;"/></g><!--link restapi to dom--><g id="link_restapi_dom"><path codeLine="45" d="M177.52,206.54 C175.34,222.59 172.52,243.38 170.22,260.37 " fill="none" id="restapi-to-dom" style="stroke:#181818;stroke-width:1.0;"/><polygon fill="#181818" points="169.46,264.97,174.6318,256.5883,170.1311,260.0152,166.7042,255.5146,169.46,264.97" style="stroke:#181818;stroke-width:1.0;"/></g><!--link menu to dom--><g id="link_menu_dom"><path codeLine="46" d="M54.48,93.89 C40.2,122.72 23.1,170.24 42,206.19 C47.09,215.86 98.47,249.31 133.47,271.33 " fill="none" id="menu-to-dom" style="stroke:#181818;stroke-width:1.0;"/><polygon fill="#181818" points="137.51,274.5,132.0178,266.3247,133.2764,271.8397,127.7614,273.0984,137.51,274.5" style="stroke:#181818;stroke-width:1.0;"/></g><!--link menu to app--><g id="link_menu_app"><path codeLine="47" d="M72.48,93.95 C74.66,110 77.48,130.78 79.78,147.78 " fill="none" id="menu-to-app" style="stroke:#181818;stroke-width:1.0;"/><polygon fill="#181818" points="80.54,152.38,83.2958,142.9246,79.8689,147.4252,75.3682,143.9983,80.54,152.38" style="stroke:#181818;stroke-width:1.0;"/></g><!--link app to dom--><g id="link_app_dom"><path codeLine="48" d="M103.02,206.54 C115.13,222.87 130.87,244.1 143.58,261.25 " fill="none" id="app-to-dom" style="stroke:#181818;stroke-width:1.0;"/><polygon fill="#181818" points="147.08,264.97,144.9405,255.3563,144.1052,260.9512,138.5104,260.116,147.08,264.97" style="stroke:#181818;stroke-width:1.0;"/></g><!--reverse link dom to contrib--><g id="link_dom_contrib"><path codeLine="49" d="M178.82,324.31 C185.93,341.4 194.67,362.4 201.39,378.57 " fill="none" id="dom-backto-contrib" style="stroke:#181818;stroke-width:1.0;"/><polygon fill="#181818" points="176.67,320.14,176.4133,329.9855,178.5809,324.7604,183.806,326.928,176.67,320.14" style="stroke:#181818;stroke-width:1.0;"/></g><!--link spiimpl to dom--><g id="link_spiimpl_dom"><path codeLine="50" d="M103.89,292.49 C113.63,292.49 123.36,292.49 133.1,292.49 " fill="none" id="spiimpl-to-dom" style="stroke:#181818;stroke-width:1.0;"/><polygon fill="#181818" points="137.83,292.49,128.83,288.49,132.83,292.49,128.83,296.49,137.83,292.49" style="stroke:#181818;stroke-width:1.0;"/></g><!--link dom to spi--><g id="link_dom_spi"><path codeLine="52" d="M153.48,319.14 C145.57,335.33 135.31,356.33 126.98,373.41 " fill="none" id="dom-to-spi" style="stroke:#181818;stroke-width:1.0;"/><polygon fill="#181818" points="124.46,377.57,131.9981,371.2315,126.6501,373.0752,124.8064,367.7272,124.46,377.57" style="stroke:#181818;stroke-width:1.0;"/></g><!--link dom to applib--><g id="link_dom_applib"><path codeLine="53" d="M193.38,292.49 C198,292.49 202.63,292.49 207.26,292.49 " fill="none" id="dom-to-applib" style="stroke:#181818;stroke-width:1.0;"/><polygon fill="none" points="207.22,285.49,227.22,292.49,207.22,299.49,207.22,285.49" style="stroke:#181818;stroke-width:1.0;"/></g><!--reverse link spi to spiimpl--><g id="link_spi_spiimpl"><path codeLine="54" d="M110.89,452.75 C110.45,470.76 109.98,490.67 109.61,505.99 " fill="none" id="spi-backto-spiimpl" style="stroke:#181818;stroke-width:1.0;"/><polygon fill="none" points="103.91,452.63,111.39,432.8,117.91,452.96,103.91,452.63" style="stroke:#181818;stroke-width:1.0;"/></g><!--link contrib to applib--><g id="link_contrib_applib"><path codeLine="56" d="M217.12,431.8 C221.06,451.61 226.53,479.09 230.74,500.21 " fill="none" id="contrib-to-applib" style="stroke:#181818;stroke-width:1.0;"/><polygon fill="#181818" points="231.89,504.99,234.0419,495.3791,230.9067,500.0876,226.1981,496.9524,231.89,504.99" style="stroke:#181818;stroke-width:1.0;"/></g><!--link dom to api--><g id="link_dom_api"><path codeLine="57" d="M354.88,93.95 C338.73,111.13 317.48,133.72 300.96,151.29 " fill="none" id="dom-to-api" style="stroke:#181818;stroke-width:1.0;"/><polygon fill="#181818" points="297.87,154.64,306.9511,150.8277,301.2968,150.999,301.1255,145.3447,297.87,154.64" style="stroke:#181818;stroke-width:1.0;"/></g><!--SRC=[dPDDJiCm48NtFeKla9oWwe8ksB1WXzWWkSae6TL_ifsMgEhTCOGfzGyfmikPByzltiGZzi11sJ1p1MeFpZFc3wYjS4BnJWhl-PdnU1v4TnYScNI_CzAupQO7tsstV3SBNGUi3R7_XCCO7Xt0BvH2WfvH7-gCCnA8UWKfpQdE-U14W66ExCk80UgKiBWE-7i0wW1E2taptbmdZq9ES1MhCw03XlaFKHqHJihq8Eydfl0TTHRPXJ4REJ40Fma7evayV2-Nwd5oL5RovGZ_0xPfwtovbVCZMejwoDHwe_ZFYMh4jMddp1ErRlB1A72Pch1Mulv6ZRWsxMHgnlNWrA128OSaT4LQAiRnQbTdx5BCM0S-VCeaB1KpLe6U2WzKB3tK_DgQNuetOQcOiPtHmSKv4fQA6UjhcVbwPlI_vEnNSVbzojoRPijJo_UXPG-i37jLZ5B-3nHlPEKELfKeq6PQeoYUnaKgXLYvo2Q1uhSrvgqILVceewq8Pcer-_7AxDcnub6dlk8cFW00]--></g></svg>