<?xml version="1.0" encoding="us-ascii" standalone="no"?><svg xmlns="http://www.w3.org/2000/svg" xmlns:xlink="http://www.w3.org/1999/xlink" contentStyleType="text/css" height="244px" preserveAspectRatio="none" style="width:256px;height:244px;background:#FFFFFF;" version="1.1" viewBox="0 0 256 244" width="256px" zoomAndPan="magnify"><defs/><g><!--class Customer--><g id="elem_Customer"><rect fill="#F1F1F1" height="32" id="Customer" rx="2.5" ry="2.5" style="stroke:#181818;stroke-width:0.5;" width="100" x="47.4792" y="7"/><ellipse cx="62.4792" cy="23" fill="#ADD1B2" rx="11" ry="11" style="stroke:#181818;stroke-width:1.0;"/><path d="M65.4479,28.6406 Q64.8698,28.9375 64.2292,29.0781 Q63.5885,29.2344 62.8854,29.2344 Q60.3854,29.2344 59.0573,27.5938 Q57.7448,25.9375 57.7448,22.8125 Q57.7448,19.6875 59.0573,18.0313 Q60.3854,16.375 62.8854,16.375 Q63.5885,16.375 64.2292,16.5313 Q64.8854,16.6875 65.4479,16.9844 L65.4479,19.7031 Q64.8229,19.125 64.2292,18.8594 Q63.6354,18.5781 63.0104,18.5781 Q61.6667,18.5781 60.9792,19.6563 Q60.2917,20.7188 60.2917,22.8125 Q60.2917,24.9063 60.9792,25.9844 Q61.6667,27.0469 63.0104,27.0469 Q63.6354,27.0469 64.2292,26.7813 Q64.8229,26.5 65.4479,25.9219 L65.4479,28.6406 Z " fill="#000000"/><text fill="#000000" font-family="sans-serif" font-size="14" lengthAdjust="spacing" textLength="68" x="76.4792" y="27.8467">Customer</text></g><!--class Order--><g id="elem_Order"><rect codeLine="6" fill="#F1F1F1" height="121.4844" id="Order" rx="2.5" ry="2.5" style="stroke:#181818;stroke-width:0.5;" width="151" x="21.9792" y="116"/><ellipse cx="73.7292" cy="132" fill="#ADD1B2" rx="11" ry="11" style="stroke:#181818;stroke-width:1.0;"/><path d="M76.6979,137.6406 Q76.1198,137.9375 75.4792,138.0781 Q74.8385,138.2344 74.1354,138.2344 Q71.6354,138.2344 70.3073,136.5938 Q68.9948,134.9375 68.9948,131.8125 Q68.9948,128.6875 70.3073,127.0313 Q71.6354,125.375 74.1354,125.375 Q74.8385,125.375 75.4792,125.5313 Q76.1354,125.6875 76.6979,125.9844 L76.6979,128.7031 Q76.0729,128.125 75.4792,127.8594 Q74.8854,127.5781 74.2604,127.5781 Q72.9167,127.5781 72.2292,128.6563 Q71.5417,129.7188 71.5417,131.8125 Q71.5417,133.9063 72.2292,134.9844 Q72.9167,136.0469 74.2604,136.0469 Q74.8854,136.0469 75.4792,135.7813 Q76.0729,135.5 76.6979,134.9219 L76.6979,137.6406 Z " fill="#000000"/><text fill="#000000" font-family="sans-serif" font-size="14" lengthAdjust="spacing" textLength="39" x="94.2292" y="136.8467">Order</text><line style="stroke:#181818;stroke-width:0.5;" x1="22.9792" x2="171.9792" y1="148" y2="148"/><text fill="#000000" font-family="sans-serif" font-size="14" lengthAdjust="spacing" textLength="57" x="27.9792" y="164.9951">num: int</text><text fill="#000000" font-family="sans-serif" font-size="14" lengthAdjust="spacing" textLength="108" x="27.9792" y="181.292">placedOn: Date</text><text fill="#000000" font-family="sans-serif" font-size="14" lengthAdjust="spacing" textLength="118" x="27.9792" y="197.5889">shippedOn: Date</text><text fill="#000000" font-family="sans-serif" font-size="14" lengthAdjust="spacing" textLength="80" x="27.9792" y="213.8857">state: State</text><text fill="#000000" font-family="sans-serif" font-size="14" lengthAdjust="spacing" textLength="139" x="27.9792" y="230.1826">amount: BigDecimal</text></g><!--link Customer to Order--><g id="link_Customer_Order"><path codeLine="3" d="M43.5866,44.7072 C22.5166,55.0972 13.9192,65.37 21.4792,86 C25.2792,96.35 27.4358,101.3855 33.8758,110.6955 " fill="none" id="Customer-Order" style="stroke:#181818;stroke-width:1.0;"/><polygon fill="#181818" points="54.3492,39.4,47.1988,38.4661,43.5866,44.7072,50.7369,45.6411,54.3492,39.4" style="stroke:#181818;stroke-width:1.0;"/><polygon fill="#181818" points="37.2892,115.63,35.4588,105.9527,34.4447,111.5179,28.8795,110.5038,37.2892,115.63" style="stroke:#181818;stroke-width:1.0;"/><text fill="#000000" font-family="sans-serif" font-size="13" lengthAdjust="spacing" textLength="89" x="38.4792" y="82.0669">currentOrders</text><text fill="#000000" font-family="sans-serif" font-size="13" lengthAdjust="spacing" textLength="8" x="31.3265" y="59.1062">1</text><text fill="#000000" font-family="sans-serif" font-size="13" lengthAdjust="spacing" textLength="23" x="6" y="104.7713">0..*</text></g><!--link Customer to Order--><g id="link_Customer_Order"><path codeLine="4" d="M121.4279,47.9723 C128.7679,56.0523 128.6292,57.76 132.4792,69 C137.6392,84.03 137.7337,94.5753 133.0537,109.7853 " fill="none" id="Customer-Order-1" style="stroke:#181818;stroke-width:1.0;"/><polygon fill="#181818" points="113.3592,39.09,114.4328,46.2207,121.4279,47.9723,120.3543,40.8415,113.3592,39.09" style="stroke:#181818;stroke-width:1.0;"/><polygon fill="#181818" points="131.2892,115.52,137.759,108.0943,132.7596,110.7411,130.1128,105.7416,131.2892,115.52" style="stroke:#181818;stroke-width:1.0;"/><text fill="#000000" font-family="sans-serif" font-size="13" lengthAdjust="spacing" textLength="97" x="151.4792" y="82.0669">archivedOrders</text><text fill="#000000" font-family="sans-serif" font-size="13" lengthAdjust="spacing" textLength="8" x="109.2944" y="58.9931">1</text><text fill="#000000" font-family="sans-serif" font-size="13" lengthAdjust="spacing" textLength="23" x="110.7293" y="105.0777">0..*</text></g><!--SRC=[ZOkn2W8n44JxVCMIyk0ERLDOwFKMVa5C5XEupONiHX3ntut1QwoSQkRn9aIFW9Jb0OHqnS9AdIhBIbX0xpKCenyFe7VJD6Wu5z-m0GqjhfQ2IJfZ_U_B5XVY7VrsKswnp5_dgJvAgcGW9kaZBzOrEncOhM1776BElqnQCt2H3LXQQn83ntYRqKMoYtgz0G00]--></g></svg>