<svg xmlns="http://www.w3.org/2000/svg" xmlns:xlink="http://www.w3.org/1999/xlink" contentStyleType="text/css" data-diagram-type="CLASS" height="244px" preserveAspectRatio="none" style="width:275px;height:244px;background:#FFFFFF;" version="1.1" viewBox="0 0 275 244" width="275px" zoomAndPan="magnify"><defs/><g><!--class Customer--><g class="entity" data-entity="Customer" data-source-line="3" data-uid="ent0002" id="entity_Customer"><rect fill="#F1F1F1" height="32" rx="2.5" ry="2.5" style="stroke:#181818;stroke-width:0.5;" width="100.0039" x="61.1107" y="7"/><ellipse cx="76.1107" cy="23" fill="#ADD1B2" rx="11" ry="11" style="stroke:#181818;stroke-width:1;"/><path d="M79.0795,28.6406 Q78.5014,28.9375 77.8607,29.0781 Q77.2201,29.2344 76.517,29.2344 Q74.017,29.2344 72.6889,27.5938 Q71.3764,25.9375 71.3764,22.8125 Q71.3764,19.6875 72.6889,18.0313 Q74.017,16.375 76.517,16.375 Q77.2201,16.375 77.8607,16.5313 Q78.517,16.6875 79.0795,16.9844 L79.0795,19.7031 Q78.4545,19.125 77.8607,18.8594 Q77.267,18.5781 76.642,18.5781 Q75.2982,18.5781 74.6107,19.6563 Q73.9232,20.7188 73.9232,22.8125 Q73.9232,24.9063 74.6107,25.9844 Q75.2982,27.0469 76.642,27.0469 Q77.267,27.0469 77.8607,26.7813 Q78.4545,26.5 79.0795,25.9219 L79.0795,28.6406 Z " fill="#000000"/><text fill="#000000" font-family="sans-serif" font-size="14" lengthAdjust="spacing" textLength="68.0039" x="90.1107" y="27.8467">Customer</text></g><!--class Order--><g class="entity" data-entity="Order" data-source-line="3" data-uid="ent0003" id="entity_Order"><rect fill="#F1F1F1" height="121.4844" rx="2.5" ry="2.5" style="stroke:#181818;stroke-width:0.5;" width="154.6523" x="33.7907" y="116"/><ellipse cx="86.8513" cy="132" fill="#ADD1B2" rx="11" ry="11" style="stroke:#181818;stroke-width:1;"/><path d="M89.82,137.6406 Q89.2419,137.9375 88.6013,138.0781 Q87.9607,138.2344 87.2575,138.2344 Q84.7575,138.2344 83.4294,136.5938 Q82.1169,134.9375 82.1169,131.8125 Q82.1169,128.6875 83.4294,127.0313 Q84.7575,125.375 87.2575,125.375 Q87.9607,125.375 88.6013,125.5313 Q89.2575,125.6875 89.82,125.9844 L89.82,128.7031 Q89.195,128.125 88.6013,127.8594 Q88.0075,127.5781 87.3825,127.5781 Q86.0388,127.5781 85.3513,128.6563 Q84.6638,129.7188 84.6638,131.8125 Q84.6638,133.9063 85.3513,134.9844 Q86.0388,136.0469 87.3825,136.0469 Q88.0075,136.0469 88.6013,135.7813 Q89.195,135.5 89.82,134.9219 L89.82,137.6406 Z " fill="#000000"/><text fill="#000000" font-family="sans-serif" font-size="14" lengthAdjust="spacing" textLength="40.0313" x="107.3513" y="136.8467">Order</text><line style="stroke:#181818;stroke-width:0.5;" x1="34.7907" x2="187.4431" y1="148" y2="148"/><text fill="#000000" font-family="sans-serif" font-size="14" lengthAdjust="spacing" textLength="58.8027" x="39.7907" y="164.9951">num: int</text><text fill="#000000" font-family="sans-serif" font-size="14" lengthAdjust="spacing" textLength="109.0742" x="39.7907" y="181.292">placedOn: Date</text><text fill="#000000" font-family="sans-serif" font-size="14" lengthAdjust="spacing" textLength="117.8516" x="39.7907" y="197.5889">shippedOn: Date</text><text fill="#000000" font-family="sans-serif" font-size="14" lengthAdjust="spacing" textLength="81.6895" x="39.7907" y="213.8857">state: State</text><text fill="#000000" font-family="sans-serif" font-size="14" lengthAdjust="spacing" textLength="142.6523" x="39.7907" y="230.1826">amount: BigDecimal</text></g><!--link Customer to Order--><g class="link" data-entity-1="Customer" data-entity-2="Order" data-source-line="3" data-uid="lnk4" id="link_Customer_Order"><path codeLine="3" d="M56.9402,45.035 C43.8402,51.955 41.5907,55.97 34.1107,69 C25.1307,84.65 25.7458,95.7826 35.4258,110.6426" fill="none" id="Customer-Order" style="stroke:#181818;stroke-width:1;"/><polygon fill="#181818" points="67.5507,39.43,60.3771,38.6956,56.9402,45.035,64.1138,45.7693,67.5507,39.43" style="stroke:#181818;stroke-width:1;"/><polygon fill="#181818" points="38.7007,115.67,37.14,105.9456,35.9716,111.4805,30.4368,110.3122,38.7007,115.67" style="stroke:#181818;stroke-width:1;"/><text fill="#000000" font-family="sans-serif" font-size="13" lengthAdjust="spacing" textLength="91.3555" x="51.64" y="82.0669">currentOrders</text><text fill="#000000" font-family="sans-serif" font-size="13" lengthAdjust="spacing" textLength="8.271" x="45.0264" y="58.8458">1</text><text fill="#000000" font-family="sans-serif" font-size="13" lengthAdjust="spacing" textLength="23.0356" x="6" y="104.8159">0..*</text></g><!--link Customer to Order--><g class="link" data-entity-1="Customer" data-entity-2="Order" data-source-line="4" data-uid="lnk5" id="link_Customer_Order"><path codeLine="4" d="M135.9829,48.2073 C143.4229,56.2073 143.2007,57.86 147.1107,69 C152.3907,84.04 152.4733,94.6003 147.6533,109.8103" fill="none" id="Customer-Order-1" style="stroke:#181818;stroke-width:1;"/><polygon fill="#181818" points="127.8107,39.42,128.9677,46.5377,135.9829,48.2073,134.8259,41.0896,127.8107,39.42" style="stroke:#181818;stroke-width:1;"/><polygon fill="#181818" points="145.8407,115.53,152.3727,108.1589,147.3512,110.7636,144.7464,105.7421,145.8407,115.53" style="stroke:#181818;stroke-width:1;"/><text fill="#000000" font-family="sans-serif" font-size="13" lengthAdjust="spacing" textLength="100.1978" x="167.64" y="82.0669">archivedOrders</text><text fill="#000000" font-family="sans-serif" font-size="13" lengthAdjust="spacing" textLength="8.271" x="123.9014" y="59.1326">1</text><text fill="#000000" font-family="sans-serif" font-size="13" lengthAdjust="spacing" textLength="23.0356" x="125.3828" y="105.0888">0..*</text></g><!--SRC=[ZOkn2W8n44JxVCMIyk0ERLDOwFKMVa5C5XEupONiHX3ntut1QwoSQkRn9aIFW9Jb0OHqnS9AdIhBIbX0xpKCenyFe7VJD6Wu5z-m0GqjhfQ2IJfZ_U_B5XVY7VrsKswnp5_dgJvAgcGW9kaZBzOrEncOhM1776BElqnQCt2H3LXQQn83ntYRqKMoYtgz0G00]--></g></svg>