<?xml version="1.0" encoding="us-ascii" standalone="no"?><svg xmlns="http://www.w3.org/2000/svg" xmlns:xlink="http://www.w3.org/1999/xlink" contentStyleType="text/css" height="345px" preserveAspectRatio="none" style="width:955px;height:345px;background:#FFFFFF;" version="1.1" viewBox="0 0 955 345" width="955px" zoomAndPan="magnify"><defs/><g><!--cluster documents--><g id="cluster_documents"><path d="M8.5,6 L97.5,6 A3.75,3.75 0 0 1 100,8.5 L107,28.2969 L945.5,28.2969 A2.5,2.5 0 0 1 948,30.7969 L948,212.03 A2.5,2.5 0 0 1 945.5,214.53 L8.5,214.53 A2.5,2.5 0 0 1 6,212.03 L6,8.5 A2.5,2.5 0 0 1 8.5,6 " fill="none" style="stroke:#000000;stroke-width:1.5;"/><line style="stroke:#000000;stroke-width:1.5;" x1="6" x2="107" y1="28.2969" y2="28.2969"/><text fill="#000000" font-family="sans-serif" font-size="14" font-weight="bold" lengthAdjust="spacing" textLength="88" x="10" y="20.9951">documents</text></g><!--cluster customers--><g id="cluster_customers"><path d="M394.5,247.53 L479.5,247.53 A3.75,3.75 0 0 1 482,250.03 L489,269.8269 L521.5,269.8269 A2.5,2.5 0 0 1 524,272.3269 L524,336.3 A2.5,2.5 0 0 1 521.5,338.8 L394.5,338.8 A2.5,2.5 0 0 1 392,336.3 L392,250.03 A2.5,2.5 0 0 1 394.5,247.53 " fill="none" style="stroke:#000000;stroke-width:1.5;"/><line style="stroke:#000000;stroke-width:1.5;" x1="392" x2="489" y1="269.8269" y2="269.8269"/><text fill="#000000" font-family="sans-serif" font-size="14" font-weight="bold" lengthAdjust="spacing" textLength="84" x="396" y="262.5251">customers</text></g><!--class DocumentHolder--><g id="elem_DocumentHolder"><rect codeLine="20" fill="#FFFFE0" height="40.2656" id="DocumentHolder" rx="2.5" ry="2.5" style="stroke:#181818;stroke-width:0.5;" width="150" x="383" y="41"/><ellipse cx="398" cy="61.1328" fill="#B4A7E5" rx="11" ry="11" style="stroke:#181818;stroke-width:1.0;"/><path d="M393.9219,56.8984 L393.9219,54.7422 L401.3125,54.7422 L401.3125,56.8984 L398.8438,56.8984 L398.8438,64.9766 L401.3125,64.9766 L401.3125,67.1328 L393.9219,67.1328 L393.9219,64.9766 L396.3906,64.9766 L396.3906,56.8984 L393.9219,56.8984 Z " fill="#000000"/><text fill="#000000" font-family="sans-serif" font-size="12" font-style="italic" lengthAdjust="spacing" textLength="38" x="452" y="57.1387">&#171;role&#187;</text><text fill="#000000" font-family="sans-serif" font-size="14" font-style="italic" lengthAdjust="spacing" textLength="118" x="412" y="72.9639">DocumentHolder</text></g><!--class DocumentHolder_documents--><g id="elem_DocumentHolder_documents"><rect codeLine="21" fill="#FFFFE0" height="40.2656" id="DocumentHolder_documents" rx="2.5" ry="2.5" style="stroke:#181818;stroke-width:0.5;" width="236" x="22" y="41"/><ellipse cx="37" cy="61.1328" fill="#ADD1B2" rx="11" ry="11" style="stroke:#181818;stroke-width:1.0;"/><path d="M39.9688,66.7734 Q39.3906,67.0703 38.75,67.2109 Q38.1094,67.3672 37.4063,67.3672 Q34.9063,67.3672 33.5781,65.7266 Q32.2656,64.0703 32.2656,60.9453 Q32.2656,57.8203 33.5781,56.1641 Q34.9063,54.5078 37.4063,54.5078 Q38.1094,54.5078 38.75,54.6641 Q39.4063,54.8203 39.9688,55.1172 L39.9688,57.8359 Q39.3438,57.2578 38.75,56.9922 Q38.1563,56.7109 37.5313,56.7109 Q36.1875,56.7109 35.5,57.7891 Q34.8125,58.8516 34.8125,60.9453 Q34.8125,63.0391 35.5,64.1172 Q36.1875,65.1797 37.5313,65.1797 Q38.1563,65.1797 38.75,64.9141 Q39.3438,64.6328 39.9688,64.0547 L39.9688,66.7734 Z " fill="#000000"/><text fill="#000000" font-family="sans-serif" font-size="12" font-style="italic" lengthAdjust="spacing" textLength="45" x="130.5" y="57.1387">&#171;mixin&#187;</text><text fill="#000000" font-family="sans-serif" font-size="14" lengthAdjust="spacing" textLength="204" x="51" y="72.9639">DocumentHolder_documents</text></g><!--class DocumentHolder_attachDocument--><g id="elem_DocumentHolder_attachDocument"><rect codeLine="22" fill="#FFFFE0" height="40.2656" id="DocumentHolder_attachDocument" rx="2.5" ry="2.5" style="stroke:#181818;stroke-width:0.5;" width="273" x="658.5" y="41"/><ellipse cx="673.5" cy="61.1328" fill="#ADD1B2" rx="11" ry="11" style="stroke:#181818;stroke-width:1.0;"/><path d="M676.4688,66.7734 Q675.8906,67.0703 675.25,67.2109 Q674.6094,67.3672 673.9063,67.3672 Q671.4063,67.3672 670.0781,65.7266 Q668.7656,64.0703 668.7656,60.9453 Q668.7656,57.8203 670.0781,56.1641 Q671.4063,54.5078 673.9063,54.5078 Q674.6094,54.5078 675.25,54.6641 Q675.9063,54.8203 676.4688,55.1172 L676.4688,57.8359 Q675.8438,57.2578 675.25,56.9922 Q674.6563,56.7109 674.0313,56.7109 Q672.6875,56.7109 672,57.7891 Q671.3125,58.8516 671.3125,60.9453 Q671.3125,63.0391 672,64.1172 Q672.6875,65.1797 674.0313,65.1797 Q674.6563,65.1797 675.25,64.9141 Q675.8438,64.6328 676.4688,64.0547 L676.4688,66.7734 Z " fill="#000000"/><text fill="#000000" font-family="sans-serif" font-size="12" font-style="italic" lengthAdjust="spacing" textLength="45" x="785.5" y="57.1387">&#171;mixin&#187;</text><text fill="#000000" font-family="sans-serif" font-size="14" lengthAdjust="spacing" textLength="241" x="687.5" y="72.9639">DocumentHolder_attachDocument</text></g><!--class Document--><g id="elem_Document"><rect codeLine="23" fill="#90EE90" height="40.2656" id="Document" rx="2.5" ry="2.5" style="stroke:#181818;stroke-width:0.5;" width="105" x="87.5" y="158.27"/><ellipse cx="102.5" cy="178.4028" fill="#ADD1B2" rx="11" ry="11" style="stroke:#181818;stroke-width:1.0;"/><path d="M105.4688,184.0434 Q104.8906,184.3403 104.25,184.4809 Q103.6094,184.6372 102.9063,184.6372 Q100.4063,184.6372 99.0781,182.9966 Q97.7656,181.3403 97.7656,178.2153 Q97.7656,175.0903 99.0781,173.4341 Q100.4063,171.7778 102.9063,171.7778 Q103.6094,171.7778 104.25,171.9341 Q104.9063,172.0903 105.4688,172.3872 L105.4688,175.1059 Q104.8438,174.5278 104.25,174.2622 Q103.6563,173.9809 103.0313,173.9809 Q101.6875,173.9809 101,175.0591 Q100.3125,176.1216 100.3125,178.2153 Q100.3125,180.3091 101,181.3872 Q101.6875,182.4497 103.0313,182.4497 Q103.6563,182.4497 104.25,182.1841 Q104.8438,181.9028 105.4688,181.3247 L105.4688,184.0434 Z " fill="#000000"/><text fill="#000000" font-family="sans-serif" font-size="12" font-style="italic" lengthAdjust="spacing" textLength="35" x="135.5" y="174.4087">&#171;ppt&#187;</text><text fill="#000000" font-family="sans-serif" font-size="14" lengthAdjust="spacing" textLength="73" x="116.5" y="190.2339">Document</text></g><!--class Customer--><g id="elem_Customer"><rect codeLine="30" fill="#90EE90" height="40.2656" id="Customer" rx="2.5" ry="2.5" style="stroke:#181818;stroke-width:0.5;" width="100" x="408" y="282.53"/><ellipse cx="423" cy="302.6628" fill="#ADD1B2" rx="11" ry="11" style="stroke:#181818;stroke-width:1.0;"/><path d="M425.9688,308.3034 Q425.3906,308.6003 424.75,308.7409 Q424.1094,308.8972 423.4063,308.8972 Q420.9063,308.8972 419.5781,307.2566 Q418.2656,305.6003 418.2656,302.4753 Q418.2656,299.3503 419.5781,297.6941 Q420.9063,296.0378 423.4063,296.0378 Q424.1094,296.0378 424.75,296.1941 Q425.4063,296.3503 425.9688,296.6472 L425.9688,299.3659 Q425.3438,298.7878 424.75,298.5222 Q424.1563,298.2409 423.5313,298.2409 Q422.1875,298.2409 421.5,299.3191 Q420.8125,300.3816 420.8125,302.4753 Q420.8125,304.5691 421.5,305.6472 Q422.1875,306.7097 423.5313,306.7097 Q424.1563,306.7097 424.75,306.4441 Q425.3438,306.1628 425.9688,305.5847 L425.9688,308.3034 Z " fill="#000000"/><text fill="#000000" font-family="sans-serif" font-size="12" font-style="italic" lengthAdjust="spacing" textLength="35" x="453.5" y="298.6687">&#171;ppt&#187;</text><text fill="#000000" font-family="sans-serif" font-size="14" lengthAdjust="spacing" textLength="68" x="437" y="314.4939">Customer</text></g><!--link DocumentHolder_documents to Document--><g id="link_DocumentHolder_documents_Document"><path codeLine="25" d="M140,81.69 C140,101.18 140,131.19 140,152.4 " fill="none" id="DocumentHolder_documents-to-Document" style="stroke:#181818;stroke-width:1.0;"/><polygon fill="#181818" points="140,157.14,144,148.14,140,152.14,136,148.14,140,157.14" style="stroke:#181818;stroke-width:1.0;"/><text fill="#000000" font-family="sans-serif" font-size="13" lengthAdjust="spacing" textLength="72" x="141" y="124.3369">documents</text><text fill="#000000" font-family="sans-serif" font-size="13" lengthAdjust="spacing" textLength="23" x="113.6219" y="147.0711">0..*</text></g><!--reverse link DocumentHolder to DocumentHolder_documents--><g id="link_DocumentHolder_DocumentHolder_documents"><path codeLine="26" d="M377.15,61.14 C341.12,61.14 297.97,61.14 258.41,61.14 " fill="none" id="DocumentHolder-backto-DocumentHolder_documents" style="stroke:#181818;stroke-width:1.0;stroke-dasharray:7.0,7.0;"/><polygon fill="#181818" points="381.87,61.14,372.8815,57.1143,376.87,61.1257,372.8586,65.1143,381.87,61.14" style="stroke:#181818;stroke-width:1.0;"/><text fill="#000000" font-family="sans-serif" font-size="13" lengthAdjust="spacing" textLength="89" x="276" y="54.2069">contributes to</text></g><!--reverse link DocumentHolder to DocumentHolder_attachDocument--><g id="link_DocumentHolder_DocumentHolder_attachDocument"><path codeLine="27" d="M538.88,61.14 C574.58,61.14 617.55,61.14 658,61.14 " fill="none" id="DocumentHolder-backto-DocumentHolder_attachDocument" style="stroke:#181818;stroke-width:1.0;stroke-dasharray:7.0,7.0;"/><polygon fill="#181818" points="534.21,61.14,543.21,65.14,539.21,61.14,543.21,57.14,534.21,61.14" style="stroke:#181818;stroke-width:1.0;"/><text fill="#000000" font-family="sans-serif" font-size="13" lengthAdjust="spacing" textLength="89" x="551.25" y="54.2069">contributes to</text></g><!--reverse link DocumentHolder to Customer--><g id="link_DocumentHolder_Customer"><path codeLine="32" d="M458,102.48 C458,154.54 458,243.05 458,282.13 " fill="none" id="DocumentHolder-backto-Customer" style="stroke:#181818;stroke-width:1.0;stroke-dasharray:7.0,7.0;"/><polygon fill="none" points="451,102.74,458,82.74,465,102.74,451,102.74" style="stroke:#181818;stroke-width:1.0;"/></g><!--SRC=[ZPCzQyCm48Pt_uh3Oy6cSmWPca8xPEXMkhHSfAijh0yZdPEQqlzUaTZE1xOJZNVFVRolf5990Z8rjs38RCc790cLiZLwD20qXW2_2SJpXA8gl6kiN3lj_78fAOZL2jOjsd6WhZdcDwee-SKJJL16zT2RijKuuvscdleWhTr-d0liaQbe8_jUAgPn2cir3uHRWB9Ctg8-azUEaplK3GtDnXcohBYzmwgTehrnalHjnupwKVRAihyagIE71O5qeZ5nRd-v1q7VA0YUkyohqv8yzDuVgEDpk2I-Jgs6gTCmCgCe- -1i1NGFAAuzEJ6JsGhInpn_I8UwnKdSJ66kO-LbUW6fS9QzsZPC0TYboVpsTpOPJ1TDO6VY5-jCF-fTTz4plKCeQ_Biysh2Fm00]--></g></svg>