<svg xmlns="http://www.w3.org/2000/svg" xmlns:xlink="http://www.w3.org/1999/xlink" contentStyleType="text/css" data-diagram-type="CLASS" height="454px" preserveAspectRatio="none" style="width:433px;height:454px;background:#FFFFFF;" version="1.1" viewBox="0 0 433 454" width="433px" zoomAndPan="magnify"><defs/><g><!--cluster ordermgmt--><g class="cluster" data-entity="ordermgmt" data-source-line="20" data-uid="ent0002" id="cluster_ordermgmt"><path d="M8.5,6 L98.333,6 A3.75,3.75 0 0 1 100.833,8.5 L107.833,28.2969 L423.5,28.2969 A2.5,2.5 0 0 1 426,30.7969 L426,444.88 A2.5,2.5 0 0 1 423.5,447.38 L8.5,447.38 A2.5,2.5 0 0 1 6,444.88 L6,8.5 A2.5,2.5 0 0 1 8.5,6" fill="none" style="stroke:#000000;stroke-width:1.5;"/><line style="stroke:#000000;stroke-width:1.5;" x1="6" x2="107.833" y1="28.2969" y2="28.2969"/><text fill="#000000" font-family="sans-serif" font-size="14" font-weight="bold" lengthAdjust="spacing" textLength="88.833" x="10" y="20.9951">ordermgmt</text></g><path d="M368.37,153.6 L393.6376,153.6 A3.75,3.75 0 0 1 396.1376,156.1 L403.1376,175.8969 L407.6376,175.8969 A2.5,2.5 0 0 1 410.1376,178.3969 L410.1376,203.6938 A2.5,2.5 0 0 1 407.6376,206.1938 L368.37,206.1938 A2.5,2.5 0 0 1 365.87,203.6938 L365.87,156.1 A2.5,2.5 0 0 1 368.37,153.6" fill="#F1F1F1" style="stroke:#181818;stroke-width:0.5;"/><line style="stroke:#181818;stroke-width:0.5;" x1="365.87" x2="403.1376" y1="175.8969" y2="175.8969"/><text fill="#000000" font-family="sans-serif" font-size="14" font-weight="bold" lengthAdjust="spacing" textLength="24.2676" x="369.87" y="168.5951">api</text><path d="M333.95,266.19 L384.0594,266.19 A3.75,3.75 0 0 1 386.5594,268.69 L393.5594,288.4869 L398.0594,288.4869 A2.5,2.5 0 0 1 400.5594,290.9869 L400.5594,316.2838 A2.5,2.5 0 0 1 398.0594,318.7838 L333.95,318.7838 A2.5,2.5 0 0 1 331.45,316.2838 L331.45,268.69 A2.5,2.5 0 0 1 333.95,266.19" fill="#F1F1F1" style="stroke:#181818;stroke-width:0.5;"/><line style="stroke:#181818;stroke-width:0.5;" x1="331.45" x2="393.5594" y1="288.4869" y2="288.4869"/><text fill="#000000" font-family="sans-serif" font-size="14" font-weight="bold" lengthAdjust="spacing" textLength="49.1094" x="335.45" y="281.1851">applib</text><path d="M245.49,41 L290.5066,41 A3.75,3.75 0 0 1 293.0066,43.5 L300.0066,63.2969 L304.5066,63.2969 A2.5,2.5 0 0 1 307.0066,65.7969 L307.0066,91.0938 A2.5,2.5 0 0 1 304.5066,93.5938 L245.49,93.5938 A2.5,2.5 0 0 1 242.99,91.0938 L242.99,43.5 A2.5,2.5 0 0 1 245.49,41" fill="#F1F1F1" style="stroke:#181818;stroke-width:0.5;"/><line style="stroke:#181818;stroke-width:0.5;" x1="242.99" x2="300.0066" y1="63.2969" y2="63.2969"/><text fill="#000000" font-family="sans-serif" font-size="14" font-weight="bold" lengthAdjust="spacing" textLength="44.0166" x="246.99" y="55.9951">menu</text><path d="M135.65,153.6 L192.3424,153.6 A3.75,3.75 0 0 1 194.8424,156.1 L201.8424,175.8969 L206.3424,175.8969 A2.5,2.5 0 0 1 208.8424,178.3969 L208.8424,203.6938 A2.5,2.5 0 0 1 206.3424,206.1938 L135.65,206.1938 A2.5,2.5 0 0 1 133.15,203.6938 L133.15,156.1 A2.5,2.5 0 0 1 135.65,153.6" fill="#F1F1F1" style="stroke:#181818;stroke-width:0.5;"/><line style="stroke:#181818;stroke-width:0.5;" x1="133.15" x2="201.8424" y1="175.8969" y2="175.8969"/><text fill="#000000" font-family="sans-serif" font-size="14" font-weight="bold" lengthAdjust="spacing" textLength="55.6924" x="137.15" y="168.5951">restapi</text><path d="M283.75,153.6 L314.2402,153.6 A3.75,3.75 0 0 1 316.7402,156.1 L323.7402,175.8969 L328.2402,175.8969 A2.5,2.5 0 0 1 330.7402,178.3969 L330.7402,203.6938 A2.5,2.5 0 0 1 328.2402,206.1938 L283.75,206.1938 A2.5,2.5 0 0 1 281.25,203.6938 L281.25,156.1 A2.5,2.5 0 0 1 283.75,153.6" fill="#F1F1F1" style="stroke:#181818;stroke-width:0.5;"/><line style="stroke:#181818;stroke-width:0.5;" x1="281.25" x2="323.7402" y1="175.8969" y2="175.8969"/><text fill="#000000" font-family="sans-serif" font-size="14" font-weight="bold" lengthAdjust="spacing" textLength="29.4902" x="285.25" y="168.5951">app</text><path d="M228.39,266.19 L263.6175,266.19 A3.75,3.75 0 0 1 266.1175,268.69 L273.1175,288.4869 L277.6175,288.4869 A2.5,2.5 0 0 1 280.1175,290.9869 L280.1175,316.2838 A2.5,2.5 0 0 1 277.6175,318.7838 L228.39,318.7838 A2.5,2.5 0 0 1 225.89,316.2838 L225.89,268.69 A2.5,2.5 0 0 1 228.39,266.19" fill="#F1F1F1" style="stroke:#181818;stroke-width:0.5;"/><line style="stroke:#181818;stroke-width:0.5;" x1="225.89" x2="273.1175" y1="288.4869" y2="288.4869"/><text fill="#000000" font-family="sans-serif" font-size="14" font-weight="bold" lengthAdjust="spacing" textLength="34.2275" x="229.89" y="281.1851">dom</text><path d="M233.92,378.79 L258.0733,378.79 A3.75,3.75 0 0 1 260.5733,381.29 L267.5733,401.0869 L272.0733,401.0869 A2.5,2.5 0 0 1 274.5733,403.5869 L274.5733,428.8837 A2.5,2.5 0 0 1 272.0733,431.3837 L233.92,431.3837 A2.5,2.5 0 0 1 231.42,428.8837 L231.42,381.29 A2.5,2.5 0 0 1 233.92,378.79" fill="#F1F1F1" style="stroke:#181818;stroke-width:0.5;"/><line style="stroke:#181818;stroke-width:0.5;" x1="231.42" x2="267.5733" y1="401.0869" y2="401.0869"/><text fill="#000000" font-family="sans-serif" font-size="14" font-weight="bold" lengthAdjust="spacing" textLength="23.1533" x="235.42" y="393.7851">spi</text><path d="M115.82,266.19 L174.1804,266.19 A3.75,3.75 0 0 1 176.6804,268.69 L183.6804,288.4869 L188.1804,288.4869 A2.5,2.5 0 0 1 190.6804,290.9869 L190.6804,316.2838 A2.5,2.5 0 0 1 188.1804,318.7838 L115.82,318.7838 A2.5,2.5 0 0 1 113.32,316.2838 L113.32,268.69 A2.5,2.5 0 0 1 115.82,266.19" fill="#F1F1F1" style="stroke:#181818;stroke-width:0.5;"/><line style="stroke:#181818;stroke-width:0.5;" x1="113.32" x2="183.6804" y1="288.4869" y2="288.4869"/><text fill="#000000" font-family="sans-serif" font-size="14" font-weight="bold" lengthAdjust="spacing" textLength="57.3604" x="117.32" y="281.1851">spiimpl</text><path d="M24.35,153.6 L81.6508,153.6 A3.75,3.75 0 0 1 84.1508,156.1 L91.1508,175.8969 L95.6508,175.8969 A2.5,2.5 0 0 1 98.1508,178.3969 L98.1508,203.6938 A2.5,2.5 0 0 1 95.6508,206.1938 L24.35,206.1938 A2.5,2.5 0 0 1 21.85,203.6938 L21.85,156.1 A2.5,2.5 0 0 1 24.35,153.6" fill="#F1F1F1" style="stroke:#181818;stroke-width:0.5;"/><line style="stroke:#181818;stroke-width:0.5;" x1="21.85" x2="91.1508" y1="175.8969" y2="175.8969"/><text fill="#000000" font-family="sans-serif" font-size="14" font-weight="bold" lengthAdjust="spacing" textLength="56.3008" x="25.85" y="168.5951">contrib</text><!--link api to dom--><g class="link" data-entity-1="api" data-entity-2="dom" data-source-line="32" data-uid="lnk12" id="link_api_dom"><path codeLine="32" d="M365.4,199.41 C341.99,218.59 310.0117,244.7881 284.9717,265.2981" fill="none" id="api-to-dom" style="stroke:#181818;stroke-width:1;"/><polygon fill="#181818" points="280.33,269.1,289.8272,266.4915,284.1981,265.9317,284.7579,260.3026,280.33,269.1" style="stroke:#181818;stroke-width:1;"/></g><!--link api to applib--><g class="link" data-entity-1="api" data-entity-2="applib" data-source-line="33" data-uid="lnk13" id="link_api_applib"><path codeLine="33" d="M382.9,206.55 C379.34,224.41 375.791,242.2554 372.241,260.0954" fill="none" id="api-to-applib" style="stroke:#181818;stroke-width:1;"/><polygon fill="#181818" points="371.07,265.98,376.7496,257.9337,372.0458,261.0761,368.9034,256.3724,371.07,265.98" style="stroke:#181818;stroke-width:1;"/></g><!--link restapi to dom--><g class="link" data-entity-1="restapi" data-entity-2="dom" data-source-line="34" data-uid="lnk14" id="link_restapi_dom"><path codeLine="34" d="M190.02,206.55 C203.27,224.41 217.2877,243.3193 230.5077,261.1593" fill="none" id="restapi-to-dom" style="stroke:#181818;stroke-width:1;"/><polygon fill="#181818" points="234.08,265.98,231.9354,256.3675,231.1031,261.9628,225.5078,261.1305,234.08,265.98" style="stroke:#181818;stroke-width:1;"/></g><!--link menu to dom--><g class="link" data-entity-1="menu" data-entity-2="dom" data-source-line="35" data-uid="lnk15" id="link_menu_dom"><path codeLine="35" d="M271.35,94.02 C269.04,110.93 266.09,133.55 264,153.6 C259.93,192.65 256.9781,232.0839 255.0881,259.8039" fill="none" id="menu-to-dom" style="stroke:#181818;stroke-width:1;"/><polygon fill="#181818" points="254.68,265.79,259.2829,257.0829,255.0201,260.8016,251.3015,256.5388,254.68,265.79" style="stroke:#181818;stroke-width:1;"/></g><!--link menu to app--><g class="link" data-entity-1="menu" data-entity-2="app" data-source-line="36" data-uid="lnk16" id="link_menu_app"><path codeLine="36" d="M282.19,93.95 C287.2,111.82 292.2299,129.7729 297.2299,147.6029" fill="none" id="menu-to-app" style="stroke:#181818;stroke-width:1;"/><polygon fill="#181818" points="298.85,153.38,300.2713,143.6342,297.4999,148.5657,292.5685,145.7943,298.85,153.38" style="stroke:#181818;stroke-width:1;"/></g><!--link app to dom--><g class="link" data-entity-1="app" data-entity-2="dom" data-source-line="37" data-uid="lnk17" id="link_app_dom"><path codeLine="37" d="M293.71,206.55 C285.15,224.41 276.3607,242.7281 267.8207,260.5681" fill="none" id="app-to-dom" style="stroke:#181818;stroke-width:1;"/><polygon fill="#181818" points="265.23,265.98,272.7239,259.5893,267.3889,261.4701,265.5081,256.1351,265.23,265.98" style="stroke:#181818;stroke-width:1;"/></g><!--link contrib to dom--><g class="link" data-entity-1="contrib" data-entity-2="dom" data-source-line="38" data-uid="lnk18" id="link_contrib_dom"><path codeLine="38" d="M98.59,203.01 C136.1,224.51 186.9339,253.6373 220.1839,272.6873" fill="none" id="contrib-to-dom" style="stroke:#181818;stroke-width:1;"/><polygon fill="#181818" points="225.39,275.67,219.5694,267.7252,221.0516,273.1844,215.5924,274.6666,225.39,275.67" style="stroke:#181818;stroke-width:1;"/></g><!--link spiimpl to dom--><g class="link" data-entity-1="spiimpl" data-entity-2="dom" data-source-line="39" data-uid="lnk19" id="link_spiimpl_dom"><path codeLine="39" d="M191.06,292.49 C202.51,292.49 207.96,292.49 219.42,292.49" fill="none" id="spiimpl-to-dom" style="stroke:#181818;stroke-width:1;"/><polygon fill="#181818" points="225.42,292.49,216.42,288.49,220.42,292.49,216.42,296.49,225.42,292.49" style="stroke:#181818;stroke-width:1;"/></g><!--link dom to spi--><g class="link" data-entity-1="dom" data-entity-2="spi" data-source-line="41" data-uid="lnk20" id="link_dom_spi"><path codeLine="41" d="M253,319.14 C253,337.01 253,354.74 253,372.57" fill="none" id="dom-to-spi" style="stroke:#181818;stroke-width:1;"/><polygon fill="#181818" points="253,378.57,257,369.57,253,373.57,249,369.57,253,378.57" style="stroke:#181818;stroke-width:1;"/></g><!--link dom to applib--><g class="link" data-entity-1="dom" data-entity-2="applib" data-source-line="42" data-uid="lnk21" id="link_dom_applib"><path codeLine="42" d="M280.37,292.49 C297.32,292.49 296.26,292.49 313.21,292.49" fill="none" id="dom-to-applib" style="stroke:#181818;stroke-width:1;"/><polygon fill="none" points="331.21,292.49,313.21,286.49,313.21,298.49,331.21,292.49" style="stroke:#181818;stroke-width:1;"/></g><!--SRC=[dT5BJiCm40RWlK_X2uGJL5dG1HiMx10R93SU9QFufR7J4bMzEox5G6oJ8BBBdoz-_3EW10xQXPbhq0SWpvWVqJX1GlDE2U_vcV7ut8jkxCbEHkwjihJRIV1Ts_BzB4mTE1VYzqViX_100ByeZGazeHdhXgo2f5v0ANkgEnz81EZdQ9y7351Nmk4wy5i0JG0oGlsutboNHw4c-5giRi043FCVgZeYdBILeBORq_Y69glimXXp4OeUk2K9f7iTFgURyjZDzPKB_qtkKdY-PDOfF1Js5cPMWvcATLEOMG8VhbikR0hBCzJEwshdbLQNDeMPzRKUVBs76ADsgh0VOMOxQmB5VXOsXT766PMzDqtBbqVUHhSviBB0rSNIHFw3uewidC7gIkdYgoWrsL1KIyJAEJPoeUBFLVHQTlKE]--></g></svg>