<?xml version="1.0" encoding="us-ascii" standalone="no"?><svg xmlns="http://www.w3.org/2000/svg" xmlns:xlink="http://www.w3.org/1999/xlink" contentStyleType="text/css" height="454px" preserveAspectRatio="none" style="width:431px;height:454px;background:#FFFFFF;" version="1.1" viewBox="0 0 431 454" width="431px" zoomAndPan="magnify"><defs/><g><!--cluster ordermgmt--><g id="cluster_ordermgmt"><path d="M8.5,6 L97.5,6 A3.75,3.75 0 0 1 100,8.5 L107,28.2969 L421.5,28.2969 A2.5,2.5 0 0 1 424,30.7969 L424,444.88 A2.5,2.5 0 0 1 421.5,447.38 L8.5,447.38 A2.5,2.5 0 0 1 6,444.88 L6,8.5 A2.5,2.5 0 0 1 8.5,6 " fill="none" style="stroke:#000000;stroke-width:1.5;"/><line style="stroke:#000000;stroke-width:1.5;" x1="6" x2="107" y1="28.2969" y2="28.2969"/><text fill="#000000" font-family="sans-serif" font-size="14" font-weight="bold" lengthAdjust="spacing" textLength="88" x="10" y="20.9951">ordermgmt</text></g><path d="M368,153.6 L392,153.6 A3.75,3.75 0 0 1 394.5,156.1 L401.5,175.8969 L406,175.8969 A2.5,2.5 0 0 1 408.5,178.3969 L408.5,203.6938 A2.5,2.5 0 0 1 406,206.1938 L368,206.1938 A2.5,2.5 0 0 1 365.5,203.6938 L365.5,156.1 A2.5,2.5 0 0 1 368,153.6 " fill="#F1F1F1" style="stroke:#181818;stroke-width:0.5;"/><line style="stroke:#181818;stroke-width:0.5;" x1="365.5" x2="401.5" y1="175.8969" y2="175.8969"/><text fill="#000000" font-family="sans-serif" font-size="14" font-weight="bold" lengthAdjust="spacing" textLength="23" x="369.5" y="168.5951">api</text><path d="M334,266.19 L382,266.19 A3.75,3.75 0 0 1 384.5,268.69 L391.5,288.4869 L396,288.4869 A2.5,2.5 0 0 1 398.5,290.9869 L398.5,316.2838 A2.5,2.5 0 0 1 396,318.7838 L334,318.7838 A2.5,2.5 0 0 1 331.5,316.2838 L331.5,268.69 A2.5,2.5 0 0 1 334,266.19 " fill="#F1F1F1" style="stroke:#181818;stroke-width:0.5;"/><line style="stroke:#181818;stroke-width:0.5;" x1="331.5" x2="391.5" y1="288.4869" y2="288.4869"/><text fill="#000000" font-family="sans-serif" font-size="14" font-weight="bold" lengthAdjust="spacing" textLength="47" x="335.5" y="281.1851">applib</text><path d="M245.5,41 L290.5,41 A3.75,3.75 0 0 1 293,43.5 L300,63.2969 L304.5,63.2969 A2.5,2.5 0 0 1 307,65.7969 L307,91.0938 A2.5,2.5 0 0 1 304.5,93.5938 L245.5,93.5938 A2.5,2.5 0 0 1 243,91.0938 L243,43.5 A2.5,2.5 0 0 1 245.5,41 " fill="#F1F1F1" style="stroke:#181818;stroke-width:0.5;"/><line style="stroke:#181818;stroke-width:0.5;" x1="243" x2="300" y1="63.2969" y2="63.2969"/><text fill="#000000" font-family="sans-serif" font-size="14" font-weight="bold" lengthAdjust="spacing" textLength="44" x="247" y="55.9951">menu</text><path d="M136,153.6 L192,153.6 A3.75,3.75 0 0 1 194.5,156.1 L201.5,175.8969 L206,175.8969 A2.5,2.5 0 0 1 208.5,178.3969 L208.5,203.6938 A2.5,2.5 0 0 1 206,206.1938 L136,206.1938 A2.5,2.5 0 0 1 133.5,203.6938 L133.5,156.1 A2.5,2.5 0 0 1 136,153.6 " fill="#F1F1F1" style="stroke:#181818;stroke-width:0.5;"/><line style="stroke:#181818;stroke-width:0.5;" x1="133.5" x2="201.5" y1="175.8969" y2="175.8969"/><text fill="#000000" font-family="sans-serif" font-size="14" font-weight="bold" lengthAdjust="spacing" textLength="55" x="137.5" y="168.5951">restapi</text><path d="M284,153.6 L314,153.6 A3.75,3.75 0 0 1 316.5,156.1 L323.5,175.8969 L328,175.8969 A2.5,2.5 0 0 1 330.5,178.3969 L330.5,203.6938 A2.5,2.5 0 0 1 328,206.1938 L284,206.1938 A2.5,2.5 0 0 1 281.5,203.6938 L281.5,156.1 A2.5,2.5 0 0 1 284,153.6 " fill="#F1F1F1" style="stroke:#181818;stroke-width:0.5;"/><line style="stroke:#181818;stroke-width:0.5;" x1="281.5" x2="323.5" y1="175.8969" y2="175.8969"/><text fill="#000000" font-family="sans-serif" font-size="14" font-weight="bold" lengthAdjust="spacing" textLength="29" x="285.5" y="168.5951">app</text><path d="M228.5,266.19 L263.5,266.19 A3.75,3.75 0 0 1 266,268.69 L273,288.4869 L277.5,288.4869 A2.5,2.5 0 0 1 280,290.9869 L280,316.2838 A2.5,2.5 0 0 1 277.5,318.7838 L228.5,318.7838 A2.5,2.5 0 0 1 226,316.2838 L226,268.69 A2.5,2.5 0 0 1 228.5,266.19 " fill="#F1F1F1" style="stroke:#181818;stroke-width:0.5;"/><line style="stroke:#181818;stroke-width:0.5;" x1="226" x2="273" y1="288.4869" y2="288.4869"/><text fill="#000000" font-family="sans-serif" font-size="14" font-weight="bold" lengthAdjust="spacing" textLength="34" x="230" y="281.1851">dom</text><path d="M234,378.79 L258,378.79 A3.75,3.75 0 0 1 260.5,381.29 L267.5,401.0869 L272,401.0869 A2.5,2.5 0 0 1 274.5,403.5869 L274.5,428.8837 A2.5,2.5 0 0 1 272,431.3837 L234,431.3837 A2.5,2.5 0 0 1 231.5,428.8837 L231.5,381.29 A2.5,2.5 0 0 1 234,378.79 " fill="#F1F1F1" style="stroke:#181818;stroke-width:0.5;"/><line style="stroke:#181818;stroke-width:0.5;" x1="231.5" x2="267.5" y1="401.0869" y2="401.0869"/><text fill="#000000" font-family="sans-serif" font-size="14" font-weight="bold" lengthAdjust="spacing" textLength="23" x="235.5" y="393.7851">spi</text><path d="M118,266.19 L174,266.19 A3.75,3.75 0 0 1 176.5,268.69 L183.5,288.4869 L188,288.4869 A2.5,2.5 0 0 1 190.5,290.9869 L190.5,316.2838 A2.5,2.5 0 0 1 188,318.7838 L118,318.7838 A2.5,2.5 0 0 1 115.5,316.2838 L115.5,268.69 A2.5,2.5 0 0 1 118,266.19 " fill="#F1F1F1" style="stroke:#181818;stroke-width:0.5;"/><line style="stroke:#181818;stroke-width:0.5;" x1="115.5" x2="183.5" y1="288.4869" y2="288.4869"/><text fill="#000000" font-family="sans-serif" font-size="14" font-weight="bold" lengthAdjust="spacing" textLength="55" x="119.5" y="281.1851">spiimpl</text><path d="M24.5,153.6 L81.5,153.6 A3.75,3.75 0 0 1 84,156.1 L91,175.8969 L95.5,175.8969 A2.5,2.5 0 0 1 98,178.3969 L98,203.6938 A2.5,2.5 0 0 1 95.5,206.1938 L24.5,206.1938 A2.5,2.5 0 0 1 22,203.6938 L22,156.1 A2.5,2.5 0 0 1 24.5,153.6 " fill="#F1F1F1" style="stroke:#181818;stroke-width:0.5;"/><line style="stroke:#181818;stroke-width:0.5;" x1="22" x2="91" y1="175.8969" y2="175.8969"/><text fill="#000000" font-family="sans-serif" font-size="14" font-weight="bold" lengthAdjust="spacing" textLength="56" x="26" y="168.5951">contrib</text><!--link api to dom--><g id="link_api_dom"><path codeLine="32" d="M365.17,198.91 C343.39,216.89 309.68,244.71 284.9,265.16 " fill="none" id="api-to-dom" style="stroke:#181818;stroke-width:1.0;"/><polygon fill="#181818" points="281.38,268.89,290.8723,266.2638,285.2421,265.7145,285.7914,260.0843,281.38,268.89" style="stroke:#181818;stroke-width:1.0;"/></g><!--link api to applib--><g id="link_api_applib"><path codeLine="33" d="M381.9,206.55 C378.7,222.6 374.57,243.38 371.19,260.37 " fill="none" id="api-to-applib" style="stroke:#181818;stroke-width:1.0;"/><polygon fill="#181818" points="370.07,264.98,375.7619,256.9424,371.0533,260.0776,367.9181,255.3691,370.07,264.98" style="stroke:#181818;stroke-width:1.0;"/></g><!--link restapi to dom--><g id="link_restapi_dom"><path codeLine="34" d="M190.02,206.55 C202.13,222.88 217.87,244.11 230.58,261.26 " fill="none" id="restapi-to-dom" style="stroke:#181818;stroke-width:1.0;"/><polygon fill="#181818" points="234.08,264.98,231.9405,255.3663,231.1052,260.9612,225.5104,260.126,234.08,264.98" style="stroke:#181818;stroke-width:1.0;"/></g><!--link menu to dom--><g id="link_menu_dom"><path codeLine="35" d="M271.35,94.02 C269.04,110.93 266.09,133.55 264,153.6 C260.2,190.06 257.02,232.06 255.07,260.04 " fill="none" id="menu-to-dom" style="stroke:#181818;stroke-width:1.0;"/><polygon fill="#181818" points="254.68,264.79,259.2863,256.0847,255.0221,259.8017,251.3051,255.5374,254.68,264.79" style="stroke:#181818;stroke-width:1.0;"/></g><!--link menu to app--><g id="link_menu_app"><path codeLine="36" d="M282.19,93.95 C286.69,110 292.52,130.79 297.28,147.78 " fill="none" id="menu-to-app" style="stroke:#181818;stroke-width:1.0;"/><polygon fill="#181818" points="298.85,152.38,300.2848,142.6362,297.5066,147.5638,292.579,144.7856,298.85,152.38" style="stroke:#181818;stroke-width:1.0;"/></g><!--link app to dom--><g id="link_app_dom"><path codeLine="37" d="M293.71,206.55 C285.95,222.74 275.88,243.74 267.7,260.82 " fill="none" id="app-to-dom" style="stroke:#181818;stroke-width:1.0;"/><polygon fill="#181818" points="265.23,264.98,272.7438,258.6127,267.4029,260.4769,265.5388,255.136,265.23,264.98" style="stroke:#181818;stroke-width:1.0;"/></g><!--link contrib to dom--><g id="link_contrib_dom"><path codeLine="38" d="M98.13,202.75 C133.94,223.27 186.93,253.63 220.7,272.98 " fill="none" id="contrib-to-dom" style="stroke:#181818;stroke-width:1.0;"/><polygon fill="#181818" points="224.54,275.76,218.7357,267.8033,220.2067,273.2655,214.7445,274.7365,224.54,275.76" style="stroke:#181818;stroke-width:1.0;"/></g><!--link spiimpl to dom--><g id="link_spiimpl_dom"><path codeLine="39" d="M190.89,292.49 C200.63,292.49 210.36,292.49 220.1,292.49 " fill="none" id="spiimpl-to-dom" style="stroke:#181818;stroke-width:1.0;"/><polygon fill="#181818" points="224.83,292.49,215.83,288.49,219.83,292.49,215.83,296.49,224.83,292.49" style="stroke:#181818;stroke-width:1.0;"/></g><!--link dom to spi--><g id="link_dom_spi"><path codeLine="41" d="M253,319.14 C253,335.19 253,355.98 253,372.97 " fill="none" id="dom-to-spi" style="stroke:#181818;stroke-width:1.0;"/><polygon fill="#181818" points="253,377.57,257,368.57,253,372.57,249,368.57,253,377.57" style="stroke:#181818;stroke-width:1.0;"/></g><!--link dom to applib--><g id="link_dom_applib"><path codeLine="42" d="M280.12,292.49 C290.23,292.49 300.34,292.49 310.44,292.49 " fill="none" id="dom-to-applib" style="stroke:#181818;stroke-width:1.0;"/><polygon fill="none" points="310.18,285.49,330.18,292.49,310.18,299.49,310.18,285.49" style="stroke:#181818;stroke-width:1.0;"/></g><!--SRC=[dT5BJiCm40RWlK_X2uGJL5dG1HiMx10R93SU9QFufR7J4bMzEox5G6oJ8BBBdoz-_3EW10xQXPbhq0SWpvWVqJX1GlDE2U_vcV7ut8jkxCbEHkwjihJRIV1Ts_BzB4mTE1VYzqViX_100ByeZGazeHdhXgo2f5v0ANkgEnz81EZdQ9y7351Nmk4wy5i0JG0oGlsutboNHw4c-5giRi043FCVgZeYdBILeBORq_Y69glimXXp4OeUk2K9f7iTFgURyjZDzPKB_qtkKdY-PDOfF1Js5cPMWvcATLEOMG8VhbikR0hBCzJEwshdbLQNDeMPzRKUVBs76ADsgh0VOMOxQmB5VXOsXT766PMzDqtBbqVUHhSviBB0rSNIHFw3uewidC7gIkdYgoWrsL1KIyJAEJPoeUBFLVHQTlKE]--></g></svg>