<?xml version="1.0" encoding="us-ascii" standalone="no"?><svg xmlns="http://www.w3.org/2000/svg" xmlns:xlink="http://www.w3.org/1999/xlink" contentStyleType="text/css" height="581px" preserveAspectRatio="none" style="width:429px;height:581px;background:#FFFFFF;" version="1.1" viewBox="0 0 429 581" width="429px" zoomAndPan="magnify"><defs/><g><!--cluster warehouse--><g id="cluster_warehouse"><path d="M57.5,471.38 L147.5,471.38 A3.75,3.75 0 0 1 150,473.88 L157,493.6769 L160.5,493.6769 A2.5,2.5 0 0 1 163,496.1769 L163,572.47 A2.5,2.5 0 0 1 160.5,574.97 L57.5,574.97 A2.5,2.5 0 0 1 55,572.47 L55,473.88 A2.5,2.5 0 0 1 57.5,471.38 " fill="none" style="stroke:#000000;stroke-width:1.5;"/><line style="stroke:#000000;stroke-width:1.5;" x1="55" x2="157" y1="493.6769" y2="493.6769"/><text fill="#000000" font-family="sans-serif" font-size="14" font-weight="bold" lengthAdjust="spacing" textLength="89" x="59" y="486.3751">warehouse</text></g><!--cluster shipping--><g id="cluster_shipping"><path d="M338.5,6 L406.5,6 A3.75,3.75 0 0 1 409,8.5 L416,28.2969 L419.5,28.2969 A2.5,2.5 0 0 1 422,30.7969 L422,107.09 A2.5,2.5 0 0 1 419.5,109.59 L338.5,109.59 A2.5,2.5 0 0 1 336,107.09 L336,8.5 A2.5,2.5 0 0 1 338.5,6 " fill="none" style="stroke:#000000;stroke-width:1.5;"/><line style="stroke:#000000;stroke-width:1.5;" x1="336" x2="416" y1="28.2969" y2="28.2969"/><text fill="#000000" font-family="sans-serif" font-size="14" font-weight="bold" lengthAdjust="spacing" textLength="67" x="340" y="20.9951">shipping</text></g><!--cluster customer--><g id="cluster_customer"><path d="M189.5,471.38 L265.5,471.38 A3.75,3.75 0 0 1 268,473.88 L275,493.6769 L284.5,493.6769 A2.5,2.5 0 0 1 287,496.1769 L287,572.47 A2.5,2.5 0 0 1 284.5,574.97 L189.5,574.97 A2.5,2.5 0 0 1 187,572.47 L187,473.88 A2.5,2.5 0 0 1 189.5,471.38 " fill="none" style="stroke:#000000;stroke-width:1.5;"/><line style="stroke:#000000;stroke-width:1.5;" x1="187" x2="275" y1="493.6769" y2="493.6769"/><text fill="#000000" font-family="sans-serif" font-size="14" font-weight="bold" lengthAdjust="spacing" textLength="75" x="191" y="486.3751">customer</text></g><!--cluster ordermgmt--><g id="cluster_ordermgmt"><path d="M8.5,6 L97.5,6 A3.75,3.75 0 0 1 100,8.5 L107,28.2969 L309.5,28.2969 A2.5,2.5 0 0 1 312,30.7969 L312,444.88 A2.5,2.5 0 0 1 309.5,447.38 L8.5,447.38 A2.5,2.5 0 0 1 6,444.88 L6,8.5 A2.5,2.5 0 0 1 8.5,6 " fill="none" style="stroke:#000000;stroke-width:1.5;"/><line style="stroke:#000000;stroke-width:1.5;" x1="6" x2="107" y1="28.2969" y2="28.2969"/><text fill="#000000" font-family="sans-serif" font-size="14" font-weight="bold" lengthAdjust="spacing" textLength="88" x="10" y="20.9951">ordermgmt</text></g><path d="M74,506.38 L130,506.38 A3.75,3.75 0 0 1 132.5,508.88 L139.5,528.6769 L144,528.6769 A2.5,2.5 0 0 1 146.5,531.1769 L146.5,556.4738 A2.5,2.5 0 0 1 144,558.9738 L74,558.9738 A2.5,2.5 0 0 1 71.5,556.4738 L71.5,508.88 A2.5,2.5 0 0 1 74,506.38 " fill="#F1F1F1" style="stroke:#181818;stroke-width:0.5;"/><line style="stroke:#181818;stroke-width:0.5;" x1="71.5" x2="139.5" y1="528.6769" y2="528.6769"/><text fill="#000000" font-family="sans-serif" font-size="14" font-weight="bold" lengthAdjust="spacing" textLength="55" x="75.5" y="521.3751">spiimpl</text><path d="M354.5,41 L389.5,41 A3.75,3.75 0 0 1 392,43.5 L399,63.2969 L403.5,63.2969 A2.5,2.5 0 0 1 406,65.7969 L406,91.0938 A2.5,2.5 0 0 1 403.5,93.5938 L354.5,93.5938 A2.5,2.5 0 0 1 352,91.0938 L352,43.5 A2.5,2.5 0 0 1 354.5,41 " fill="#F1F1F1" style="stroke:#181818;stroke-width:0.5;"/><line style="stroke:#181818;stroke-width:0.5;" x1="352" x2="399" y1="63.2969" y2="63.2969"/><text fill="#000000" font-family="sans-serif" font-size="14" font-weight="bold" lengthAdjust="spacing" textLength="34" x="356" y="55.9951">dom</text><path d="M206,506.38 L254,506.38 A3.75,3.75 0 0 1 256.5,508.88 L263.5,528.6769 L268,528.6769 A2.5,2.5 0 0 1 270.5,531.1769 L270.5,556.4738 A2.5,2.5 0 0 1 268,558.9738 L206,558.9738 A2.5,2.5 0 0 1 203.5,556.4738 L203.5,508.88 A2.5,2.5 0 0 1 206,506.38 " fill="#F1F1F1" style="stroke:#181818;stroke-width:0.5;"/><line style="stroke:#181818;stroke-width:0.5;" x1="203.5" x2="263.5" y1="528.6769" y2="528.6769"/><text fill="#000000" font-family="sans-serif" font-size="14" font-weight="bold" lengthAdjust="spacing" textLength="47" x="207.5" y="521.3751">applib</text><path d="M256,153.59 L280,153.59 A3.75,3.75 0 0 1 282.5,156.09 L289.5,175.8869 L294,175.8869 A2.5,2.5 0 0 1 296.5,178.3869 L296.5,203.6838 A2.5,2.5 0 0 1 294,206.1838 L256,206.1838 A2.5,2.5 0 0 1 253.5,203.6838 L253.5,156.09 A2.5,2.5 0 0 1 256,153.59 " fill="#F1F1F1" style="stroke:#181818;stroke-width:0.5;"/><line style="stroke:#181818;stroke-width:0.5;" x1="253.5" x2="289.5" y1="175.8869" y2="175.8869"/><text fill="#000000" font-family="sans-serif" font-size="14" font-weight="bold" lengthAdjust="spacing" textLength="23" x="257.5" y="168.5851">api</text><path d="M231,266.19 L279,266.19 A3.75,3.75 0 0 1 281.5,268.69 L288.5,288.4869 L293,288.4869 A2.5,2.5 0 0 1 295.5,290.9869 L295.5,316.2838 A2.5,2.5 0 0 1 293,318.7838 L231,318.7838 A2.5,2.5 0 0 1 228.5,316.2838 L228.5,268.69 A2.5,2.5 0 0 1 231,266.19 " fill="#F1F1F1" style="stroke:#181818;stroke-width:0.5;"/><line style="stroke:#181818;stroke-width:0.5;" x1="228.5" x2="288.5" y1="288.4869" y2="288.4869"/><text fill="#000000" font-family="sans-serif" font-size="14" font-weight="bold" lengthAdjust="spacing" textLength="47" x="232.5" y="281.1851">applib</text><path d="M146,153.59 L202,153.59 A3.75,3.75 0 0 1 204.5,156.09 L211.5,175.8869 L216,175.8869 A2.5,2.5 0 0 1 218.5,178.3869 L218.5,203.6838 A2.5,2.5 0 0 1 216,206.1838 L146,206.1838 A2.5,2.5 0 0 1 143.5,203.6838 L143.5,156.09 A2.5,2.5 0 0 1 146,153.59 " fill="#F1F1F1" style="stroke:#181818;stroke-width:0.5;"/><line style="stroke:#181818;stroke-width:0.5;" x1="143.5" x2="211.5" y1="175.8869" y2="175.8869"/><text fill="#000000" font-family="sans-serif" font-size="14" font-weight="bold" lengthAdjust="spacing" textLength="55" x="147.5" y="168.5851">restapi</text><path d="M39.5,41 L84.5,41 A3.75,3.75 0 0 1 87,43.5 L94,63.2969 L98.5,63.2969 A2.5,2.5 0 0 1 101,65.7969 L101,91.0938 A2.5,2.5 0 0 1 98.5,93.5938 L39.5,93.5938 A2.5,2.5 0 0 1 37,91.0938 L37,43.5 A2.5,2.5 0 0 1 39.5,41 " fill="#F1F1F1" style="stroke:#181818;stroke-width:0.5;"/><line style="stroke:#181818;stroke-width:0.5;" x1="37" x2="94" y1="63.2969" y2="63.2969"/><text fill="#000000" font-family="sans-serif" font-size="14" font-weight="bold" lengthAdjust="spacing" textLength="44" x="41" y="55.9951">menu</text><path d="M62,153.59 L92,153.59 A3.75,3.75 0 0 1 94.5,156.09 L101.5,175.8869 L106,175.8869 A2.5,2.5 0 0 1 108.5,178.3869 L108.5,203.6838 A2.5,2.5 0 0 1 106,206.1838 L62,206.1838 A2.5,2.5 0 0 1 59.5,203.6838 L59.5,156.09 A2.5,2.5 0 0 1 62,153.59 " fill="#F1F1F1" style="stroke:#181818;stroke-width:0.5;"/><line style="stroke:#181818;stroke-width:0.5;" x1="59.5" x2="101.5" y1="175.8869" y2="175.8869"/><text fill="#000000" font-family="sans-serif" font-size="14" font-weight="bold" lengthAdjust="spacing" textLength="29" x="63.5" y="168.5851">app</text><path d="M141.5,266.19 L176.5,266.19 A3.75,3.75 0 0 1 179,268.69 L186,288.4869 L190.5,288.4869 A2.5,2.5 0 0 1 193,290.9869 L193,316.2838 A2.5,2.5 0 0 1 190.5,318.7838 L141.5,318.7838 A2.5,2.5 0 0 1 139,316.2838 L139,268.69 A2.5,2.5 0 0 1 141.5,266.19 " fill="#F1F1F1" style="stroke:#181818;stroke-width:0.5;"/><line style="stroke:#181818;stroke-width:0.5;" x1="139" x2="186" y1="288.4869" y2="288.4869"/><text fill="#000000" font-family="sans-serif" font-size="14" font-weight="bold" lengthAdjust="spacing" textLength="34" x="143" y="281.1851">dom</text><path d="M176.5,378.78 L233.5,378.78 A3.75,3.75 0 0 1 236,381.28 L243,401.0769 L247.5,401.0769 A2.5,2.5 0 0 1 250,403.5769 L250,428.8738 A2.5,2.5 0 0 1 247.5,431.3738 L176.5,431.3738 A2.5,2.5 0 0 1 174,428.8738 L174,381.28 A2.5,2.5 0 0 1 176.5,378.78 " fill="#F1F1F1" style="stroke:#181818;stroke-width:0.5;"/><line style="stroke:#181818;stroke-width:0.5;" x1="174" x2="243" y1="401.0769" y2="401.0769"/><text fill="#000000" font-family="sans-serif" font-size="14" font-weight="bold" lengthAdjust="spacing" textLength="56" x="178" y="393.7751">contrib</text><path d="M93,378.78 L117,378.78 A3.75,3.75 0 0 1 119.5,381.28 L126.5,401.0769 L131,401.0769 A2.5,2.5 0 0 1 133.5,403.5769 L133.5,428.8738 A2.5,2.5 0 0 1 131,431.3738 L93,431.3738 A2.5,2.5 0 0 1 90.5,428.8738 L90.5,381.28 A2.5,2.5 0 0 1 93,378.78 " fill="#F1F1F1" style="stroke:#181818;stroke-width:0.5;"/><line style="stroke:#181818;stroke-width:0.5;" x1="90.5" x2="126.5" y1="401.0769" y2="401.0769"/><text fill="#000000" font-family="sans-serif" font-size="14" font-weight="bold" lengthAdjust="spacing" textLength="23" x="94.5" y="393.7751">spi</text><path d="M31,266.19 L87,266.19 A3.75,3.75 0 0 1 89.5,268.69 L96.5,288.4869 L101,288.4869 A2.5,2.5 0 0 1 103.5,290.9869 L103.5,316.2838 A2.5,2.5 0 0 1 101,318.7838 L31,318.7838 A2.5,2.5 0 0 1 28.5,316.2838 L28.5,268.69 A2.5,2.5 0 0 1 31,266.19 " fill="#F1F1F1" style="stroke:#181818;stroke-width:0.5;"/><line style="stroke:#181818;stroke-width:0.5;" x1="28.5" x2="96.5" y1="288.4869" y2="288.4869"/><text fill="#000000" font-family="sans-serif" font-size="14" font-weight="bold" lengthAdjust="spacing" textLength="55" x="32.5" y="281.1851">spiimpl</text><!--link api to dom--><g id="link_api_dom"><path codeLine="43" d="M253.2,203.01 C235.31,221.16 214.1722,242.6172 195.4122,261.6472 " fill="none" id="api-to-dom" style="stroke:#181818;stroke-width:1.0;"/><polygon fill="#181818" points="191.2,265.92,200.3669,262.3189,194.7102,262.3593,194.6698,256.7026,191.2,265.92" style="stroke:#181818;stroke-width:1.0;"/></g><!--link api to applib--><g id="link_api_applib"><path codeLine="44" d="M271.98,206.54 C269.88,224.41 267.8018,242.1812 265.7018,260.0112 " fill="none" id="api-to-applib" style="stroke:#181818;stroke-width:1.0;"/><polygon fill="#181818" points="265,265.97,270.0253,257.4997,265.5849,261.0043,262.0802,256.5639,265,265.97" style="stroke:#181818;stroke-width:1.0;"/></g><!--link restapi to dom--><g id="link_restapi_dom"><path codeLine="45" d="M177.52,206.54 C175.1,224.41 172.687,242.1945 170.267,260.0245 " fill="none" id="restapi-to-dom" style="stroke:#181818;stroke-width:1.0;"/><polygon fill="#181818" points="169.46,265.97,174.6341,257.5897,170.1325,261.0154,166.7068,256.5138,169.46,265.97" style="stroke:#181818;stroke-width:1.0;"/></g><!--link menu to dom--><g id="link_menu_dom"><path codeLine="46" d="M54.48,93.89 C40.2,122.72 23.1,170.24 42,206.19 C47.34,216.34 98.5446,249.4758 133.4246,271.3158 " fill="none" id="menu-to-dom" style="stroke:#181818;stroke-width:1.0;"/><polygon fill="#181818" points="138.51,274.5,133.0047,266.3335,134.2722,271.8465,128.7592,273.114,138.51,274.5" style="stroke:#181818;stroke-width:1.0;"/></g><!--link menu to app--><g id="link_menu_app"><path codeLine="47" d="M72.48,93.95 C74.9,111.82 77.3135,129.5945 79.7335,147.4345 " fill="none" id="menu-to-app" style="stroke:#181818;stroke-width:1.0;"/><polygon fill="#181818" points="80.54,153.38,83.2939,143.924,79.8679,148.4254,75.3665,144.9994,80.54,153.38" style="stroke:#181818;stroke-width:1.0;"/></g><!--link app to dom--><g id="link_app_dom"><path codeLine="48" d="M103.02,206.54 C116.27,224.41 130.2864,243.3203 143.5064,261.1503 " fill="none" id="app-to-dom" style="stroke:#181818;stroke-width:1.0;"/><polygon fill="#181818" points="147.08,265.97,144.9328,256.3581,144.102,261.9536,138.5065,261.1228,147.08,265.97" style="stroke:#181818;stroke-width:1.0;"/></g><!--reverse link dom to contrib--><g id="link_dom_contrib"><path codeLine="49" d="M178.9746,324.6797 C186.4046,342.5397 193.97,360.73 201.39,378.57 " fill="none" id="dom-backto-contrib" style="stroke:#181818;stroke-width:1.0;"/><polygon fill="#181818" points="176.67,319.14,176.4337,328.986,178.5905,323.7565,183.8201,325.9132,176.67,319.14" style="stroke:#181818;stroke-width:1.0;"/></g><!--link spiimpl to dom--><g id="link_spiimpl_dom"><path codeLine="50" d="M103.89,292.49 C115.54,292.49 121.18,292.49 132.83,292.49 " fill="none" id="spiimpl-to-dom" style="stroke:#181818;stroke-width:1.0;"/><polygon fill="#181818" points="138.83,292.49,129.83,288.49,133.83,292.49,129.83,296.49,138.83,292.49" style="stroke:#181818;stroke-width:1.0;"/></g><!--link dom to spi--><g id="link_dom_spi"><path codeLine="52" d="M153.48,319.14 C144.75,337 135.8024,355.3383 127.0924,373.1783 " fill="none" id="dom-to-spi" style="stroke:#181818;stroke-width:1.0;"/><polygon fill="#181818" points="124.46,378.57,132.0031,372.2374,126.6537,374.0769,124.8141,368.7275,124.46,378.57" style="stroke:#181818;stroke-width:1.0;"/></g><!--link dom to applib--><g id="link_dom_applib"><path codeLine="53" d="M193.38,292.49 C204.99,292.49 198.61,292.49 210.22,292.49 " fill="none" id="dom-to-applib" style="stroke:#181818;stroke-width:1.0;"/><polygon fill="none" points="228.22,292.49,210.22,286.49,210.22,298.49,228.22,292.49" style="stroke:#181818;stroke-width:1.0;"/></g><!--reverse link spi to spiimpl--><g id="link_spi_spiimpl"><path codeLine="54" d="M110.9582,449.7948 C110.4382,471.4648 110.13,484.33 109.61,505.99 " fill="none" id="spi-backto-spiimpl" style="stroke:#181818;stroke-width:1.0;"/><polygon fill="none" points="111.39,431.8,104.9599,449.6509,116.9565,449.9388,111.39,431.8" style="stroke:#181818;stroke-width:1.0;"/></g><!--link contrib to applib--><g id="link_contrib_applib"><path codeLine="56" d="M217.12,431.8 C221.43,453.47 226.4091,478.4454 230.7191,500.1054 " fill="none" id="contrib-to-applib" style="stroke:#181818;stroke-width:1.0;"/><polygon fill="#181818" points="231.89,505.99,234.0567,496.3824,230.9142,501.0861,226.2105,497.9437,231.89,505.99" style="stroke:#181818;stroke-width:1.0;"/></g><!--link dom to api--><g id="link_dom_api"><path codeLine="57" d="M354.88,93.95 C337.36,112.58 317.9498,133.2186 300.9798,151.2686 " fill="none" id="dom-to-api" style="stroke:#181818;stroke-width:1.0;"/><polygon fill="#181818" points="296.87,155.64,305.949,151.8228,300.2949,151.9972,300.1205,146.343,296.87,155.64" style="stroke:#181818;stroke-width:1.0;"/></g><!--SRC=[dPDDJiCm48NtFeKla9oWwe8ksB1WXzWWkSae6TL_ifsMgEhTCOGfzGyfmikPByzltiGZzi11sJ1p1MeFpZFc3wYjS4BnJWhl-PdnU1v4TnYScNI_CzAupQO7tsstV3SBNGUi3R7_XCCO7Xt0BvH2WfvH7-gCCnA8UWKfpQdE-U14W66ExCk80UgKiBWE-7i0wW1E2taptbmdZq9ES1MhCw03XlaFKHqHJihq8Eydfl0TTHRPXJ4REJ40Fma7evayV2-Nwd5oL5RovGZ_0xPfwtovbVCZMejwoDHwe_ZFYMh4jMddp1ErRlB1A72Pch1Mulv6ZRWsxMHgnlNWrA128OSaT4LQAiRnQbTdx5BCM0S-VCeaB1KpLe6U2WzKB3tK_DgQNuetOQcOiPtHmSKv4fQA6UjhcVbwPlI_vEnNSVbzojoRPijJo_UXPG-i37jLZ5B-3nHlPEKELfKeq6PQeoYUnaKgXLYvo2Q1uhSrvgqILVceewq8Pcer-_7AxDcnub6dlk8cFW00]--></g></svg>