<svg xmlns="http://www.w3.org/2000/svg" xmlns:xlink="http://www.w3.org/1999/xlink" contentStyleType="text/css" data-diagram-type="CLASS" height="228px" preserveAspectRatio="none" style="width:468px;height:228px;background:#FFFFFF;" version="1.1" viewBox="0 0 468 228" width="468px" zoomAndPan="magnify"><defs/><g><!--cluster mailmerge--><g class="cluster" data-entity="mailmerge" data-source-line="19" data-uid="ent0002" id="cluster_mailmerge"><path d="M8.5,6 L93.6367,6 A3.75,3.75 0 0 1 96.1367,8.5 L103.1367,28.2969 L217.5,28.2969 A2.5,2.5 0 0 1 220,30.7969 L220,94.76 A2.5,2.5 0 0 1 217.5,97.26 L8.5,97.26 A2.5,2.5 0 0 1 6,94.76 L6,8.5 A2.5,2.5 0 0 1 8.5,6" fill="none" style="stroke:#000000;stroke-width:1.5;"/><line style="stroke:#000000;stroke-width:1.5;" x1="6" x2="103.1367" y1="28.2969" y2="28.2969"/><text fill="#000000" font-family="sans-serif" font-size="14" font-weight="bold" lengthAdjust="spacing" textLength="84.1367" x="10" y="20.9951">mailmerge</text></g><!--cluster address--><g class="cluster" data-entity="address" data-source-line="23" data-uid="ent0004" id="cluster_address"><path d="M317.5,10.13 L381.0557,10.13 A3.75,3.75 0 0 1 383.5557,12.63 L390.5557,32.4269 L458.5,32.4269 A2.5,2.5 0 0 1 461,34.9269 L461,90.63 A2.5,2.5 0 0 1 458.5,93.13 L317.5,93.13 A2.5,2.5 0 0 1 315,90.63 L315,12.63 A2.5,2.5 0 0 1 317.5,10.13" fill="none" style="stroke:#000000;stroke-width:1.5;"/><line style="stroke:#000000;stroke-width:1.5;" x1="315" x2="390.5557" y1="32.4269" y2="32.4269"/><text fill="#000000" font-family="sans-serif" font-size="14" font-weight="bold" lengthAdjust="spacing" textLength="62.5557" x="319" y="25.1251">address</text></g><!--cluster customers--><g class="cluster" data-entity="customers" data-source-line="27" data-uid="ent0006" id="cluster_customers"><path d="M324.5,130.26 L407.7295,130.26 A3.75,3.75 0 0 1 410.2295,132.76 L417.2295,152.5569 L451.5,152.5569 A2.5,2.5 0 0 1 454,155.0569 L454,219.03 A2.5,2.5 0 0 1 451.5,221.53 L324.5,221.53 A2.5,2.5 0 0 1 322,219.03 L322,132.76 A2.5,2.5 0 0 1 324.5,130.26" fill="none" style="stroke:#000000;stroke-width:1.5;"/><line style="stroke:#000000;stroke-width:1.5;" x1="322" x2="417.2295" y1="152.5569" y2="152.5569"/><text fill="#000000" font-family="sans-serif" font-size="14" font-weight="bold" lengthAdjust="spacing" textLength="82.2295" x="326" y="145.2551">customers</text></g><!--class HasAddress_mailshot--><g class="entity" data-entity="HasAddress_mailshot" data-source-line="20" data-uid="ent0003" id="entity_HasAddress_mailshot"><rect fill="#FFFFE0" height="40.2656" rx="2.5" ry="2.5" style="stroke:#181818;stroke-width:0.5;" width="181.9258" x="22.04" y="41"/><ellipse cx="37.04" cy="61.1328" fill="#ADD1B2" rx="11" ry="11" style="stroke:#181818;stroke-width:1;"/><path d="M40.0088,66.7734 Q39.4306,67.0703 38.79,67.2109 Q38.1494,67.3672 37.4463,67.3672 Q34.9463,67.3672 33.6181,65.7266 Q32.3056,64.0703 32.3056,60.9453 Q32.3056,57.8203 33.6181,56.1641 Q34.9463,54.5078 37.4463,54.5078 Q38.1494,54.5078 38.79,54.6641 Q39.4463,54.8203 40.0088,55.1172 L40.0088,57.8359 Q39.3838,57.2578 38.79,56.9922 Q38.1963,56.7109 37.5713,56.7109 Q36.2275,56.7109 35.54,57.7891 Q34.8525,58.8516 34.8525,60.9453 Q34.8525,63.0391 35.54,64.1172 Q36.2275,65.1797 37.5713,65.1797 Q38.1963,65.1797 38.79,64.9141 Q39.3838,64.6328 40.0088,64.0547 L40.0088,66.7734 Z " fill="#000000"/><text fill="#000000" font-family="sans-serif" font-size="12" font-style="italic" lengthAdjust="spacing" textLength="47.748" x="102.1289" y="57.1387">&#171;mixin&#187;</text><text fill="#000000" font-family="sans-serif" font-size="14" lengthAdjust="spacing" textLength="149.9258" x="51.04" y="72.9639">HasAddress_mailshot</text></g><!--class HasAddress--><g class="entity" data-entity="HasAddress" data-source-line="24" data-uid="ent0005" id="entity_HasAddress"><rect fill="#F1F1F1" height="32" rx="2.5" ry="2.5" style="stroke:#181818;stroke-width:0.5;" width="114.708" x="330.65" y="45.13"/><ellipse cx="345.65" cy="61.13" fill="#B4A7E5" rx="11" ry="11" style="stroke:#181818;stroke-width:1;"/><path d="M341.5719,56.8956 L341.5719,54.7394 L348.9625,54.7394 L348.9625,56.8956 L346.4938,56.8956 L346.4938,64.9738 L348.9625,64.9738 L348.9625,67.13 L341.5719,67.13 L341.5719,64.9738 L344.0406,64.9738 L344.0406,56.8956 L341.5719,56.8956 Z " fill="#000000"/><text fill="#000000" font-family="sans-serif" font-size="14" font-style="italic" lengthAdjust="spacing" textLength="82.708" x="359.65" y="65.9767">HasAddress</text></g><!--class Customer--><g class="entity" data-entity="Customer" data-source-line="28" data-uid="ent0007" id="entity_Customer"><rect fill="#90EE90" height="40.2656" rx="2.5" ry="2.5" style="stroke:#181818;stroke-width:0.5;" width="100.0039" x="338" y="165.26"/><ellipse cx="353" cy="185.3928" fill="#ADD1B2" rx="11" ry="11" style="stroke:#181818;stroke-width:1;"/><path d="M355.9688,191.0334 Q355.3906,191.3303 354.75,191.4709 Q354.1094,191.6272 353.4063,191.6272 Q350.9063,191.6272 349.5781,189.9866 Q348.2656,188.3303 348.2656,185.2053 Q348.2656,182.0803 349.5781,180.4241 Q350.9063,178.7678 353.4063,178.7678 Q354.1094,178.7678 354.75,178.9241 Q355.4063,179.0803 355.9688,179.3772 L355.9688,182.0959 Q355.3438,181.5178 354.75,181.2522 Q354.1563,180.9709 353.5313,180.9709 Q352.1875,180.9709 351.5,182.0491 Q350.8125,183.1116 350.8125,185.2053 Q350.8125,187.2991 351.5,188.3772 Q352.1875,189.4397 353.5313,189.4397 Q354.1563,189.4397 354.75,189.1741 Q355.3438,188.8928 355.9688,188.3147 L355.9688,191.0334 Z " fill="#000000"/><text fill="#000000" font-family="sans-serif" font-size="12" font-style="italic" lengthAdjust="spacing" textLength="34.623" x="383.6904" y="181.3987">&#171;ppt&#187;</text><text fill="#000000" font-family="sans-serif" font-size="14" lengthAdjust="spacing" textLength="68.0039" x="367" y="197.2239">Customer</text></g><!--link HasAddress_mailshot to HasAddress--><g class="link" data-entity-1="HasAddress_mailshot" data-entity-2="HasAddress" data-source-line="30" data-uid="lnk8" id="link_HasAddress_mailshot_HasAddress"><path codeLine="30" d="M204.19,61.13 C245.78,61.13 287.77,61.13 324.28,61.13" fill="none" id="HasAddress_mailshot-to-HasAddress" style="stroke:#181818;stroke-width:1;stroke-dasharray:7.0,7.0;"/><polygon fill="#181818" points="330.28,61.13,321.28,57.13,325.28,61.13,321.28,65.13,330.28,61.13" style="stroke:#181818;stroke-width:1;"/><text fill="#000000" font-family="sans-serif" font-size="13" lengthAdjust="spacing" textLength="90.9365" x="222.3" y="54.1969">contributes to</text></g><!--reverse link HasAddress to Customer--><g class="link" data-entity-1="HasAddress" data-entity-2="Customer" data-source-line="31" data-uid="lnk10" id="link_HasAddress_Customer"><path codeLine="31" d="M388,95.62 C388,117.85 388,140.8 388,165.01" fill="none" id="HasAddress-backto-Customer" style="stroke:#181818;stroke-width:1;"/><polygon fill="none" points="388,77.62,382,95.62,394,95.62,388,77.62" style="stroke:#181818;stroke-width:1;"/></g><!--SRC=[ZTAzJiGm30VmlKyHtLuU09qgGGSO6DWG2yZNcDPglXIxTrI8ToVGtYcWm96fId_-MxKxa4Q5DiYiBDeTHgug7ia5Y61LPu1PlLKgdMlenZxwoUdM6n-tMutSDOrgPt1b48AaztVK3t8J4NzHbexedjnODj4RFAf7DCOVoeubWc0_9_ima61PGQ2_0Py3v0IZ0vDztboMUp0JdiBA1fsGpFyOrPxmOBr6StvYbbx9_HZPUrM5vA17PO6CnPYUbkKkYxu5lj8w8lFp9-31Ypf5vUMmgBNuQnelq64MaEjkOl6f6tzhrgwtQlrHKaMfVtqHwoOBlbIRpZk9j9i4MOdVLAUaUggVCle1]--></g></svg>