<svg xmlns="http://www.w3.org/2000/svg" xmlns:xlink="http://www.w3.org/1999/xlink" version="1.1" data-diagram-type="CLASS" style="width:440px;height:589px;background:#FFFFFF;" width="440px" height="589px" viewBox="0 0 440 589" zoomAndPan="magnify" preserveAspectRatio="none" contentStyleType="text/css"><?plantuml 1.2026.8?><defs/><g font-family="sans-serif" lengthAdjust="spacing"><!--cluster warehouse--><g class="cluster" data-qualified-name="warehouse" id="ent0001" data-source-line="19"><path d="M58.5,471.38 L145.66,471.38 A3.75,3.75 0 0 1 148.16,473.88 L155.16,493.677 L163.5,493.677 A2.5,2.5 0 0 1 166,496.177 L166,572.47 A2.5,2.5 0 0 1 163.5,574.97 L58.5,574.97 A2.5,2.5 0 0 1 56,572.47 L56,473.88 A2.5,2.5 0 0 1 58.5,471.38" style="stroke:#000;stroke-width:1.5;" fill="none"/><line x1="56" y1="493.677" x2="155.16" y2="493.677" style="stroke:#000;stroke-width:1.5;"/><text x="60" y="486.375" fill="#000" font-size="14" textLength="86.16" font-weight="700">warehouse</text></g><!--cluster shipping--><g class="cluster" data-qualified-name="shipping" id="ent0003" data-source-line="23"><path d="M341.5,6 L410.429,6 A3.75,3.75 0 0 1 412.929,8.5 L419.929,28.297 L422.5,28.297 A2.5,2.5 0 0 1 425,30.797 L425,107.09 A2.5,2.5 0 0 1 422.5,109.59 L341.5,109.59 A2.5,2.5 0 0 1 339,107.09 L339,8.5 A2.5,2.5 0 0 1 341.5,6" style="stroke:#000;stroke-width:1.5;" fill="none"/><line x1="339" y1="28.297" x2="419.929" y2="28.297" style="stroke:#000;stroke-width:1.5;"/><text x="343" y="20.995" fill="#000" font-size="14" textLength="67.929" font-weight="700">shipping</text></g><!--cluster customer--><g class="cluster" data-qualified-name="customer" id="ent0005" data-source-line="27"><path d="M192.5,471.38 L267.396,471.38 A3.75,3.75 0 0 1 269.896,473.88 L276.896,493.677 L289.5,493.677 A2.5,2.5 0 0 1 292,496.177 L292,572.47 A2.5,2.5 0 0 1 289.5,574.97 L192.5,574.97 A2.5,2.5 0 0 1 190,572.47 L190,473.88 A2.5,2.5 0 0 1 192.5,471.38" style="stroke:#000;stroke-width:1.5;" fill="none"/><line x1="190" y1="493.677" x2="276.896" y2="493.677" style="stroke:#000;stroke-width:1.5;"/><text x="194" y="486.375" fill="#000" font-size="14" textLength="73.896" font-weight="700">customer</text></g><!--cluster ordermgmt--><g class="cluster" data-qualified-name="ordermgmt" id="ent0007" data-source-line="31"><path d="M8.5,6 L98.333,6 A3.75,3.75 0 0 1 100.833,8.5 L107.833,28.297 L312.5,28.297 A2.5,2.5 0 0 1 315,30.797 L315,444.88 A2.5,2.5 0 0 1 312.5,447.38 L8.5,447.38 A2.5,2.5 0 0 1 6,444.88 L6,8.5 A2.5,2.5 0 0 1 8.5,6" style="stroke:#000;stroke-width:1.5;" fill="none"/><line x1="6" y1="28.297" x2="107.833" y2="28.297" style="stroke:#000;stroke-width:1.5;"/><text x="10" y="20.995" fill="#000" font-size="14" textLength="88.833" font-weight="700">ordermgmt</text></g><path d="M74.82,506.38 L133.18,506.38 A3.75,3.75 0 0 1 135.68,508.88 L142.68,528.677 L147.18,528.677 A2.5,2.5 0 0 1 149.68,531.177 L149.68,556.474 A2.5,2.5 0 0 1 147.18,558.974 L74.82,558.974 A2.5,2.5 0 0 1 72.32,556.474 L72.32,508.88 A2.5,2.5 0 0 1 74.82,506.38" style="stroke:#181818;stroke-width:0.5;" fill="#F1F1F1"/><line x1="72.32" y1="528.677" x2="142.68" y2="528.677" style="stroke:#181818;stroke-width:0.5;"/><text x="76.32" y="521.375" fill="#000" font-size="14" textLength="57.36" font-weight="700">spiimpl</text><path d="M357.39,41 L392.618,41 A3.75,3.75 0 0 1 395.118,43.5 L402.118,63.297 L406.618,63.297 A2.5,2.5 0 0 1 409.118,65.797 L409.118,91.094 A2.5,2.5 0 0 1 406.618,93.594 L357.39,93.594 A2.5,2.5 0 0 1 354.89,91.094 L354.89,43.5 A2.5,2.5 0 0 1 357.39,41" style="stroke:#181818;stroke-width:0.5;" fill="#F1F1F1"/><line x1="354.89" y1="63.297" x2="402.118" y2="63.297" style="stroke:#181818;stroke-width:0.5;"/><text x="358.89" y="55.995" fill="#000" font-size="14" textLength="34.228" font-weight="700">dom</text><path d="M208.95,506.38 L259.059,506.38 A3.75,3.75 0 0 1 261.559,508.88 L268.559,528.677 L273.059,528.677 A2.5,2.5 0 0 1 275.559,531.177 L275.559,556.474 A2.5,2.5 0 0 1 273.059,558.974 L208.95,558.974 A2.5,2.5 0 0 1 206.45,556.474 L206.45,508.88 A2.5,2.5 0 0 1 208.95,506.38" style="stroke:#181818;stroke-width:0.5;" fill="#F1F1F1"/><line x1="206.45" y1="528.677" x2="268.559" y2="528.677" style="stroke:#181818;stroke-width:0.5;"/><text x="210.45" y="521.375" fill="#000" font-size="14" textLength="49.109" font-weight="700">applib</text><path d="M257.37,153.59 L282.638,153.59 A3.75,3.75 0 0 1 285.138,156.09 L292.138,175.887 L296.638,175.887 A2.5,2.5 0 0 1 299.138,178.387 L299.138,203.684 A2.5,2.5 0 0 1 296.638,206.184 L257.37,206.184 A2.5,2.5 0 0 1 254.87,203.684 L254.87,156.09 A2.5,2.5 0 0 1 257.37,153.59" style="stroke:#181818;stroke-width:0.5;" fill="#F1F1F1"/><line x1="254.87" y1="175.887" x2="292.138" y2="175.887" style="stroke:#181818;stroke-width:0.5;"/><text x="258.87" y="168.585" fill="#000" font-size="14" textLength="24.268" font-weight="700">api</text><path d="M231.95,266.19 L282.059,266.19 A3.75,3.75 0 0 1 284.559,268.69 L291.559,288.487 L296.059,288.487 A2.5,2.5 0 0 1 298.559,290.987 L298.559,316.284 A2.5,2.5 0 0 1 296.059,318.784 L231.95,318.784 A2.5,2.5 0 0 1 229.45,316.284 L229.45,268.69 A2.5,2.5 0 0 1 231.95,266.19" style="stroke:#181818;stroke-width:0.5;" fill="#F1F1F1"/><line x1="229.45" y1="288.487" x2="291.559" y2="288.487" style="stroke:#181818;stroke-width:0.5;"/><text x="233.45" y="281.185" fill="#000" font-size="14" textLength="49.109" font-weight="700">applib</text><path d="M109.65,153.59 L166.342,153.59 A3.75,3.75 0 0 1 168.842,156.09 L175.842,175.887 L180.342,175.887 A2.5,2.5 0 0 1 182.842,178.387 L182.842,203.684 A2.5,2.5 0 0 1 180.342,206.184 L109.65,206.184 A2.5,2.5 0 0 1 107.15,203.684 L107.15,156.09 A2.5,2.5 0 0 1 109.65,153.59" style="stroke:#181818;stroke-width:0.5;" fill="#F1F1F1"/><line x1="107.15" y1="175.887" x2="175.842" y2="175.887" style="stroke:#181818;stroke-width:0.5;"/><text x="111.15" y="168.585" fill="#000" font-size="14" textLength="55.692" font-weight="700">restapi</text><path d="M106.49,41 L151.507,41 A3.75,3.75 0 0 1 154.007,43.5 L161.007,63.297 L165.507,63.297 A2.5,2.5 0 0 1 168.007,65.797 L168.007,91.094 A2.5,2.5 0 0 1 165.507,93.594 L106.49,93.594 A2.5,2.5 0 0 1 103.99,91.094 L103.99,43.5 A2.5,2.5 0 0 1 106.49,41" style="stroke:#181818;stroke-width:0.5;" fill="#F1F1F1"/><line x1="103.99" y1="63.297" x2="161.007" y2="63.297" style="stroke:#181818;stroke-width:0.5;"/><text x="107.99" y="55.995" fill="#000" font-size="14" textLength="44.017" font-weight="700">menu</text><path d="M24.75,153.59 L55.24,153.59 A3.75,3.75 0 0 1 57.74,156.09 L64.74,175.887 L69.24,175.887 A2.5,2.5 0 0 1 71.74,178.387 L71.74,203.684 A2.5,2.5 0 0 1 69.24,206.184 L24.75,206.184 A2.5,2.5 0 0 1 22.25,203.684 L22.25,156.09 A2.5,2.5 0 0 1 24.75,153.59" style="stroke:#181818;stroke-width:0.5;" fill="#F1F1F1"/><line x1="22.25" y1="175.887" x2="64.74" y2="175.887" style="stroke:#181818;stroke-width:0.5;"/><text x="26.25" y="168.585" fill="#000" font-size="14" textLength="29.49" font-weight="700">app</text><path d="M142.39,266.19 L177.618,266.19 A3.75,3.75 0 0 1 180.118,268.69 L187.118,288.487 L191.618,288.487 A2.5,2.5 0 0 1 194.118,290.987 L194.118,316.284 A2.5,2.5 0 0 1 191.618,318.784 L142.39,318.784 A2.5,2.5 0 0 1 139.89,316.284 L139.89,268.69 A2.5,2.5 0 0 1 142.39,266.19" style="stroke:#181818;stroke-width:0.5;" fill="#F1F1F1"/><line x1="139.89" y1="288.487" x2="187.118" y2="288.487" style="stroke:#181818;stroke-width:0.5;"/><text x="143.89" y="281.185" fill="#000" font-size="14" textLength="34.228" font-weight="700">dom</text><path d="M178.35,378.78 L235.651,378.78 A3.75,3.75 0 0 1 238.151,381.28 L245.151,401.077 L249.651,401.077 A2.5,2.5 0 0 1 252.151,403.577 L252.151,428.874 A2.5,2.5 0 0 1 249.651,431.374 L178.35,431.374 A2.5,2.5 0 0 1 175.85,428.874 L175.85,381.28 A2.5,2.5 0 0 1 178.35,378.78" style="stroke:#181818;stroke-width:0.5;" fill="#F1F1F1"/><line x1="175.85" y1="401.077" x2="245.151" y2="401.077" style="stroke:#181818;stroke-width:0.5;"/><text x="179.85" y="393.775" fill="#000" font-size="14" textLength="56.301" font-weight="700">contrib</text><path d="M94.92,378.78 L119.073,378.78 A3.75,3.75 0 0 1 121.573,381.28 L128.573,401.077 L133.073,401.077 A2.5,2.5 0 0 1 135.573,403.577 L135.573,428.874 A2.5,2.5 0 0 1 133.073,431.374 L94.92,431.374 A2.5,2.5 0 0 1 92.42,428.874 L92.42,381.28 A2.5,2.5 0 0 1 94.92,378.78" style="stroke:#181818;stroke-width:0.5;" fill="#F1F1F1"/><line x1="92.42" y1="401.077" x2="128.573" y2="401.077" style="stroke:#181818;stroke-width:0.5;"/><text x="96.42" y="393.775" fill="#000" font-size="14" textLength="23.153" font-weight="700">spi</text><path d="M29.82,266.19 L88.18,266.19 A3.75,3.75 0 0 1 90.68,268.69 L97.68,288.487 L102.18,288.487 A2.5,2.5 0 0 1 104.68,290.987 L104.68,316.284 A2.5,2.5 0 0 1 102.18,318.784 L29.82,318.784 A2.5,2.5 0 0 1 27.32,316.284 L27.32,268.69 A2.5,2.5 0 0 1 29.82,266.19" style="stroke:#181818;stroke-width:0.5;" fill="#F1F1F1"/><line x1="27.32" y1="288.487" x2="97.68" y2="288.487" style="stroke:#181818;stroke-width:0.5;"/><text x="31.32" y="281.185" fill="#000" font-size="14" textLength="57.36" font-weight="700">spiimpl</text><!--link api to dom--><g class="link" data-entity-1="ent0008" data-entity-2="ent0013" id="lnk17" data-source-line="43" data-link-type="dependency"><path d="M254.47,203.54 C236.5,221.61 214.836,243.395 196.106,262.225" style="stroke:#181818;stroke-width:1;" fill="none" id="api-to-dom" codeLine="43"/><polygon points="192.58,265.77,201.763,262.21,196.106,262.225,196.091,256.568,192.58,265.77" fill="#181818" style="stroke:#181818;stroke-width:1;stroke-linejoin:miter;stroke-miterlimit:10;"/></g><!--link api to applib--><g class="link" data-entity-1="ent0008" data-entity-2="ent0009" id="lnk18" data-source-line="44" data-link-type="dependency"><path d="M273.98,206.54 C271.88,224.41 269.685,243.174 267.585,261.004" style="stroke:#181818;stroke-width:1;" fill="none" id="api-to-applib" codeLine="44"/><polygon points="267,265.97,272.025,257.5,267.585,261.004,264.08,256.564,267,265.97" fill="#181818" style="stroke:#181818;stroke-width:1;stroke-linejoin:miter;stroke-miterlimit:10;"/></g><!--link restapi to dom--><g class="link" data-entity-1="ent0010" data-entity-2="ent0013" id="lnk19" data-source-line="45" data-link-type="dependency"><path d="M150.1,206.54 C153.66,224.41 157.404,243.236 160.954,261.066" style="stroke:#181818;stroke-width:1;" fill="none" id="restapi-to-dom" codeLine="45"/><polygon points="161.93,265.97,164.096,256.362,160.954,261.066,156.25,257.924,161.93,265.97" fill="#181818" style="stroke:#181818;stroke-width:1;stroke-linejoin:miter;stroke-miterlimit:10;"/></g><!--link menu to dom--><g class="link" data-entity-1="ent0011" data-entity-2="ent0013" id="lnk20" data-source-line="46" data-link-type="dependency"><path d="M162.38,94.09 C176.5,109.79 192.5,131.11 200,153.59 C212.77,191.89 197.873,233.236 183.903,261.226" style="stroke:#181818;stroke-width:1;" fill="none" id="menu-to-dom" codeLine="46"/><polygon points="181.67,265.7,189.268,259.434,183.903,261.226,182.11,255.861,181.67,265.7" fill="#181818" style="stroke:#181818;stroke-width:1;stroke-linejoin:miter;stroke-miterlimit:10;"/></g><!--link menu to app--><g class="link" data-entity-1="ent0011" data-entity-2="ent0012" id="lnk21" data-source-line="47" data-link-type="dependency"><path d="M115.36,93.95 C100.98,111.82 85.014,131.644 70.664,149.484" style="stroke:#181818;stroke-width:1;" fill="none" id="menu-to-app" codeLine="47"/><polygon points="67.53,153.38,76.288,148.874,70.664,149.484,70.054,143.86,67.53,153.38" fill="#181818" style="stroke:#181818;stroke-width:1;stroke-linejoin:miter;stroke-miterlimit:10;"/></g><!--link app to dom--><g class="link" data-entity-1="ent0012" data-entity-2="ent0013" id="lnk22" data-source-line="48" data-link-type="dependency"><path d="M72.16,204.08 C91.95,222.32 115.803,244.301 136.113,263.021" style="stroke:#181818;stroke-width:1;" fill="none" id="app-to-dom" codeLine="48"/><polygon points="139.79,266.41,135.883,257.369,136.113,263.021,130.461,263.252,139.79,266.41" fill="#181818" style="stroke:#181818;stroke-width:1;stroke-linejoin:miter;stroke-miterlimit:10;"/></g><!--reverse link dom to contrib--><g class="link" data-entity-1="ent0013" data-entity-2="ent0014" id="lnk24" data-source-line="49" data-link-type="dependency"><path d="M179.856,323.742 C187.446,341.602 195.58,360.73 203.16,378.57" style="stroke:#181818;stroke-width:1;" fill="none" id="dom-backto-contrib" codeLine="49"/><polygon points="177.9,319.14,177.739,328.988,179.856,323.742,185.101,325.859,177.9,319.14" fill="#181818" style="stroke:#181818;stroke-width:1;stroke-linejoin:miter;stroke-miterlimit:10;"/></g><!--link spiimpl to dom--><g class="link" data-entity-1="ent0016" data-entity-2="ent0013" id="lnk25" data-source-line="50" data-link-type="dependency"><path d="M105.06,292.49 C116.51,292.49 122.96,292.49 134.42,292.49" style="stroke:#181818;stroke-width:1;" fill="none" id="spiimpl-to-dom" codeLine="50"/><polygon points="139.42,292.49,130.42,288.49,134.42,292.49,130.42,296.49,139.42,292.49" fill="#181818" style="stroke:#181818;stroke-width:1;stroke-linejoin:miter;stroke-miterlimit:10;"/></g><!--link dom to spi--><g class="link" data-entity-1="ent0013" data-entity-2="ent0015" id="lnk26" data-source-line="52" data-link-type="dependency"><path d="M154.71,319.14 C146.15,337 136.929,356.22 128.389,374.06" style="stroke:#181818;stroke-width:1;" fill="none" id="dom-to-spi" codeLine="52"/><polygon points="126.23,378.57,133.724,372.179,128.389,374.06,126.508,368.725,126.23,378.57" fill="#181818" style="stroke:#181818;stroke-width:1;stroke-linejoin:miter;stroke-miterlimit:10;"/></g><!--link dom to applib--><g class="link" data-entity-1="ent0013" data-entity-2="ent0009" id="lnk27" data-source-line="53" data-link-type="extension"><path d="M194.28,292.49 C205.9,292.49 199.52,292.49 211.14,292.49" style="stroke:#181818;stroke-width:1;" fill="none" id="dom-to-applib" codeLine="53"/><polygon points="229.14,292.49,211.14,286.49,211.14,298.49,229.14,292.49" fill="none" style="stroke:#181818;stroke-width:1;stroke-linejoin:miter;stroke-miterlimit:10;"/></g><!--reverse link spi to spiimpl--><g class="link" data-entity-1="ent0015" data-entity-2="ent0002" id="lnk29" data-source-line="54" data-link-type="extension"><path d="M112.958,449.795 C112.438,471.465 112.13,484.33 111.61,505.99" style="stroke:#181818;stroke-width:1;" fill="none" id="spi-backto-spiimpl" codeLine="54"/><polygon points="113.39,431.8,106.96,449.651,118.956,449.939,113.39,431.8" fill="none" style="stroke:#181818;stroke-width:1;stroke-linejoin:miter;stroke-miterlimit:10;"/></g><!--link contrib to applib--><g class="link" data-entity-1="ent0014" data-entity-2="ent0006" id="lnk30" data-source-line="56" data-link-type="dependency"><path d="M219.53,431.8 C224.19,453.47 229.768,479.442 234.428,501.102" style="stroke:#181818;stroke-width:1;" fill="none" id="contrib-to-applib" codeLine="56"/><polygon points="235.48,505.99,237.498,496.35,234.428,501.102,229.677,498.033,235.48,505.99" fill="#181818" style="stroke:#181818;stroke-width:1;stroke-linejoin:miter;stroke-miterlimit:10;"/></g><!--link dom to api--><g class="link" data-entity-1="ent0004" data-entity-2="ent0008" id="lnk31" data-source-line="57" data-link-type="dependency"><path d="M357.65,93.95 C340.08,112.45 319.983,133.624 302.873,151.644" style="stroke:#181818;stroke-width:1;" fill="none" id="dom-to-api" codeLine="57"/><polygon points="299.43,155.27,308.528,151.498,302.873,151.644,302.726,145.989,299.43,155.27" fill="#181818" style="stroke:#181818;stroke-width:1;stroke-linejoin:miter;stroke-miterlimit:10;"/></g><?plantuml-src dPDDJiCm48NtFeKla9oWwe8ksB1WXzWWkSae6TL_ifsMgEhTCOGfzGyfmikPByzltiGZzi11sJ1p1MeFpZFc3wYjS4BnJWhl-PdnU1v4TnYScNI_CzAupQO7tsstV3SBNGUi3R7_XCCO7Xt0BvH2WfvH7-gCCnA8UWKfpQdE-U14W66ExCk80UgKiBWE-7i0wW1E2taptbmdZq9ES1MhCw03XlaFKHqHJihq8Eydfl0TTHRPXJ4REJ40Fma7evayV2-Nwd5oL5RovGZ_0xPfwtovbVCZMejwoDHwe_ZFYMh4jMddp1ErRlB1A72Pch1Mulv6ZRWsxMHgnlNWrA128OSaT4LQAiRnQbTdx5BCM0S-VCeaB1KpLe6U2WzKB3tK_DgQNuetOQcOiPtHmSKv4fQA6UjhcVbwPlI_vEnNSVbzojoRPijJo_UXPG-i37jLZ5B-3nHlPEKELfKeq6PQeoYUnaKgXLYvo2Q1uhSrvgqILVceewq8Pcer-_7AxDcnub6dlk8cFW00?></g></svg>