<svg xmlns="http://www.w3.org/2000/svg" xmlns:xlink="http://www.w3.org/1999/xlink" contentStyleType="text/css" data-diagram-type="CLASS" height="462px" preserveAspectRatio="none" style="width:441px;height:462px;background:#FFFFFF;" version="1.1" viewBox="0 0 441 462" width="441px" zoomAndPan="magnify"><?plantuml 1.2026.6?><defs/><g><!--cluster ordermgmt--><g class="cluster" data-qualified-name="ordermgmt" data-source-line="20" id="ent0001"><path d="M8.5,6 L98.333,6 A3.75,3.75 0 0 1 100.833,8.5 L107.833,28.2969 L423.5,28.2969 A2.5,2.5 0 0 1 426,30.7969 L426,444.88 A2.5,2.5 0 0 1 423.5,447.38 L8.5,447.38 A2.5,2.5 0 0 1 6,444.88 L6,8.5 A2.5,2.5 0 0 1 8.5,6" fill="none" style="stroke:#000000;stroke-width:1.5;"/><line style="stroke:#000000;stroke-width:1.5;" x1="6" x2="107.833" y1="28.2969" y2="28.2969"/><text fill="#000000" font-family="sans-serif" font-size="14" font-weight="700" lengthAdjust="spacing" textLength="88.833" x="10" y="20.9951">ordermgmt</text></g><path d="M368.37,153.6 L393.6376,153.6 A3.75,3.75 0 0 1 396.1376,156.1 L403.1376,175.8969 L407.6376,175.8969 A2.5,2.5 0 0 1 410.1376,178.3969 L410.1376,203.6938 A2.5,2.5 0 0 1 407.6376,206.1938 L368.37,206.1938 A2.5,2.5 0 0 1 365.87,203.6938 L365.87,156.1 A2.5,2.5 0 0 1 368.37,153.6" fill="#F1F1F1" style="stroke:#181818;stroke-width:0.5;"/><line style="stroke:#181818;stroke-width:0.5;" x1="365.87" x2="403.1376" y1="175.8969" y2="175.8969"/><text fill="#000000" font-family="sans-serif" font-size="14" font-weight="700" lengthAdjust="spacing" textLength="24.2676" x="369.87" y="168.5951">api</text><path d="M318.95,266.19 L369.0594,266.19 A3.75,3.75 0 0 1 371.5594,268.69 L378.5594,288.4869 L383.0594,288.4869 A2.5,2.5 0 0 1 385.5594,290.9869 L385.5594,316.2838 A2.5,2.5 0 0 1 383.0594,318.7838 L318.95,318.7838 A2.5,2.5 0 0 1 316.45,316.2838 L316.45,268.69 A2.5,2.5 0 0 1 318.95,266.19" fill="#F1F1F1" style="stroke:#181818;stroke-width:0.5;"/><line style="stroke:#181818;stroke-width:0.5;" x1="316.45" x2="378.5594" y1="288.4869" y2="288.4869"/><text fill="#000000" font-family="sans-serif" font-size="14" font-weight="700" lengthAdjust="spacing" textLength="49.1094" x="320.45" y="281.1851">applib</text><path d="M51.49,41 L96.5066,41 A3.75,3.75 0 0 1 99.0066,43.5 L106.0066,63.2969 L110.5066,63.2969 A2.5,2.5 0 0 1 113.0066,65.7969 L113.0066,91.0938 A2.5,2.5 0 0 1 110.5066,93.5938 L51.49,93.5938 A2.5,2.5 0 0 1 48.99,91.0938 L48.99,43.5 A2.5,2.5 0 0 1 51.49,41" fill="#F1F1F1" style="stroke:#181818;stroke-width:0.5;"/><line style="stroke:#181818;stroke-width:0.5;" x1="48.99" x2="106.0066" y1="63.2969" y2="63.2969"/><text fill="#000000" font-family="sans-serif" font-size="14" font-weight="700" lengthAdjust="spacing" textLength="44.0166" x="52.99" y="55.9951">menu</text><path d="M146.65,153.6 L203.3424,153.6 A3.75,3.75 0 0 1 205.8424,156.1 L212.8424,175.8969 L217.3424,175.8969 A2.5,2.5 0 0 1 219.8424,178.3969 L219.8424,203.6938 A2.5,2.5 0 0 1 217.3424,206.1938 L146.65,206.1938 A2.5,2.5 0 0 1 144.15,203.6938 L144.15,156.1 A2.5,2.5 0 0 1 146.65,153.6" fill="#F1F1F1" style="stroke:#181818;stroke-width:0.5;"/><line style="stroke:#181818;stroke-width:0.5;" x1="144.15" x2="212.8424" y1="175.8969" y2="175.8969"/><text fill="#000000" font-family="sans-serif" font-size="14" font-weight="700" lengthAdjust="spacing" textLength="55.6924" x="148.15" y="168.5951">restapi</text><path d="M24.75,153.6 L55.2402,153.6 A3.75,3.75 0 0 1 57.7402,156.1 L64.7402,175.8969 L69.2402,175.8969 A2.5,2.5 0 0 1 71.7402,178.3969 L71.7402,203.6938 A2.5,2.5 0 0 1 69.2402,206.1938 L24.75,206.1938 A2.5,2.5 0 0 1 22.25,203.6938 L22.25,156.1 A2.5,2.5 0 0 1 24.75,153.6" fill="#F1F1F1" style="stroke:#181818;stroke-width:0.5;"/><line style="stroke:#181818;stroke-width:0.5;" x1="22.25" x2="64.7402" y1="175.8969" y2="175.8969"/><text fill="#000000" font-family="sans-serif" font-size="14" font-weight="700" lengthAdjust="spacing" textLength="29.4902" x="26.25" y="168.5951">app</text><path d="M181.39,266.19 L216.6175,266.19 A3.75,3.75 0 0 1 219.1175,268.69 L226.1175,288.4869 L230.6175,288.4869 A2.5,2.5 0 0 1 233.1175,290.9869 L233.1175,316.2838 A2.5,2.5 0 0 1 230.6175,318.7838 L181.39,318.7838 A2.5,2.5 0 0 1 178.89,316.2838 L178.89,268.69 A2.5,2.5 0 0 1 181.39,266.19" fill="#F1F1F1" style="stroke:#181818;stroke-width:0.5;"/><line style="stroke:#181818;stroke-width:0.5;" x1="178.89" x2="226.1175" y1="288.4869" y2="288.4869"/><text fill="#000000" font-family="sans-serif" font-size="14" font-weight="700" lengthAdjust="spacing" textLength="34.2275" x="182.89" y="281.1851">dom</text><path d="M186.92,378.79 L211.0733,378.79 A3.75,3.75 0 0 1 213.5733,381.29 L220.5733,401.0869 L225.0733,401.0869 A2.5,2.5 0 0 1 227.5733,403.5869 L227.5733,428.8837 A2.5,2.5 0 0 1 225.0733,431.3837 L186.92,431.3837 A2.5,2.5 0 0 1 184.42,428.8837 L184.42,381.29 A2.5,2.5 0 0 1 186.92,378.79" fill="#F1F1F1" style="stroke:#181818;stroke-width:0.5;"/><line style="stroke:#181818;stroke-width:0.5;" x1="184.42" x2="220.5733" y1="401.0869" y2="401.0869"/><text fill="#000000" font-family="sans-serif" font-size="14" font-weight="700" lengthAdjust="spacing" textLength="23.1533" x="188.42" y="393.7851">spi</text><path d="M68.82,266.19 L127.1804,266.19 A3.75,3.75 0 0 1 129.6804,268.69 L136.6804,288.4869 L141.1804,288.4869 A2.5,2.5 0 0 1 143.6804,290.9869 L143.6804,316.2838 A2.5,2.5 0 0 1 141.1804,318.7838 L68.82,318.7838 A2.5,2.5 0 0 1 66.32,316.2838 L66.32,268.69 A2.5,2.5 0 0 1 68.82,266.19" fill="#F1F1F1" style="stroke:#181818;stroke-width:0.5;"/><line style="stroke:#181818;stroke-width:0.5;" x1="66.32" x2="136.6804" y1="288.4869" y2="288.4869"/><text fill="#000000" font-family="sans-serif" font-size="14" font-weight="700" lengthAdjust="spacing" textLength="57.3604" x="70.32" y="281.1851">spiimpl</text><path d="M257.35,153.6 L314.6508,153.6 A3.75,3.75 0 0 1 317.1508,156.1 L324.1508,175.8969 L328.6508,175.8969 A2.5,2.5 0 0 1 331.1508,178.3969 L331.1508,203.6938 A2.5,2.5 0 0 1 328.6508,206.1938 L257.35,206.1938 A2.5,2.5 0 0 1 254.85,203.6938 L254.85,156.1 A2.5,2.5 0 0 1 257.35,153.6" fill="#F1F1F1" style="stroke:#181818;stroke-width:0.5;"/><line style="stroke:#181818;stroke-width:0.5;" x1="254.85" x2="324.1508" y1="175.8969" y2="175.8969"/><text fill="#000000" font-family="sans-serif" font-size="14" font-weight="700" lengthAdjust="spacing" textLength="56.3008" x="258.85" y="168.5951">contrib</text><!--link api to dom--><g class="link" data-entity-1="ent0002" data-entity-2="ent0007" data-link-type="dependency" data-source-line="32" id="lnk11"><path codeLine="32" d="M365.41,195.75 C360.05,199.22 354.34,202.87 349,206.19 C309.24,230.93 266.8564,255.9964 237.9164,272.9164" fill="none" id="api-to-dom" style="stroke:#181818;stroke-width:1;"/><polygon fill="#181818" points="233.6,275.44,243.3884,274.3506,237.9164,272.9164,239.3506,267.4444,233.6,275.44" style="stroke:#181818;stroke-width:1;stroke-linejoin:miter;stroke-miterlimit:10;"/></g><!--link api to applib--><g class="link" data-entity-1="ent0002" data-entity-2="ent0003" data-link-type="dependency" data-source-line="33" id="lnk12"><path codeLine="33" d="M379.42,206.55 C373.44,224.41 367.0843,243.3976 361.1243,261.2376" fill="none" id="api-to-applib" style="stroke:#181818;stroke-width:1;"/><polygon fill="#181818" points="359.54,265.98,366.1857,258.7112,361.1243,261.2376,358.5979,256.1763,359.54,265.98" style="stroke:#181818;stroke-width:1;stroke-linejoin:miter;stroke-miterlimit:10;"/></g><!--link restapi to dom--><g class="link" data-entity-1="ent0005" data-entity-2="ent0007" data-link-type="dependency" data-source-line="34" id="lnk13"><path codeLine="34" d="M187.57,206.55 C191.44,224.41 195.53,243.2536 199.4,261.0936" fill="none" id="restapi-to-dom" style="stroke:#181818;stroke-width:1;"/><polygon fill="#181818" points="200.46,265.98,202.4611,256.3366,199.4,261.0936,194.6429,258.0326,200.46,265.98" style="stroke:#181818;stroke-width:1;stroke-linejoin:miter;stroke-miterlimit:10;"/></g><!--link menu to dom--><g class="link" data-entity-1="ent0004" data-entity-2="ent0007" data-link-type="dependency" data-source-line="35" id="lnk14"><path codeLine="35" d="M86.15,94.08 C92.65,122.87 105.66,170.14 127,206.19 C140.78,229.47 158.1447,248.3171 175.0247,264.2571" fill="none" id="menu-to-dom" style="stroke:#181818;stroke-width:1;"/><polygon fill="#181818" points="178.66,267.69,174.8627,258.6026,175.0247,264.2571,169.3702,264.4191,178.66,267.69" style="stroke:#181818;stroke-width:1;stroke-linejoin:miter;stroke-miterlimit:10;"/></g><!--link menu to app--><g class="link" data-entity-1="ent0004" data-entity-2="ent0006" data-link-type="dependency" data-source-line="36" id="lnk15"><path codeLine="36" d="M73.11,93.95 C67.62,111.82 61.8014,130.7714 56.3114,148.6014" fill="none" id="menu-to-app" style="stroke:#181818;stroke-width:1;"/><polygon fill="#181818" points="54.84,153.38,61.3114,145.9556,56.3114,148.6014,53.6656,143.6014,54.84,153.38" style="stroke:#181818;stroke-width:1;stroke-linejoin:miter;stroke-miterlimit:10;"/></g><!--link app to dom--><g class="link" data-entity-1="ent0006" data-entity-2="ent0007" data-link-type="dependency" data-source-line="37" id="lnk16"><path codeLine="37" d="M72.19,198.42 C101.18,218.58 144.5057,248.7144 174.4157,269.5244" fill="none" id="app-to-dom" style="stroke:#181818;stroke-width:1;"/><polygon fill="#181818" points="178.52,272.38,173.4167,263.9564,174.4157,269.5244,168.8477,270.5234,178.52,272.38" style="stroke:#181818;stroke-width:1;stroke-linejoin:miter;stroke-miterlimit:10;"/></g><!--link contrib to dom--><g class="link" data-entity-1="ent0010" data-entity-2="ent0007" data-link-type="dependency" data-source-line="38" id="lnk17"><path codeLine="38" d="M272.82,206.55 C258.77,224.41 243.1909,244.2098 229.1609,262.0498" fill="none" id="contrib-to-dom" style="stroke:#181818;stroke-width:1;"/><polygon fill="#181818" points="226.07,265.98,234.7777,261.3783,229.1609,262.0498,228.4894,256.4329,226.07,265.98" style="stroke:#181818;stroke-width:1;stroke-linejoin:miter;stroke-miterlimit:10;"/></g><!--link spiimpl to dom--><g class="link" data-entity-1="ent0009" data-entity-2="ent0007" data-link-type="dependency" data-source-line="39" id="lnk18"><path codeLine="39" d="M144.06,292.49 C155.51,292.49 161.96,292.49 173.42,292.49" fill="none" id="spiimpl-to-dom" style="stroke:#181818;stroke-width:1;"/><polygon fill="#181818" points="178.42,292.49,169.42,288.49,173.42,292.49,169.42,296.49,178.42,292.49" style="stroke:#181818;stroke-width:1;stroke-linejoin:miter;stroke-miterlimit:10;"/></g><!--link dom to spi--><g class="link" data-entity-1="ent0007" data-entity-2="ent0008" data-link-type="dependency" data-source-line="41" id="lnk19"><path codeLine="41" d="M206,319.14 C206,337.01 206,355.74 206,373.57" fill="none" id="dom-to-spi" style="stroke:#181818;stroke-width:1;"/><polygon fill="#181818" points="206,378.57,210,369.57,206,373.57,202,369.57,206,378.57" style="stroke:#181818;stroke-width:1;stroke-linejoin:miter;stroke-miterlimit:10;"/></g><!--link dom to applib--><g class="link" data-entity-1="ent0007" data-entity-2="ent0003" data-link-type="extension" data-source-line="42" id="lnk20"><path codeLine="42" d="M233.47,292.49 C261.02,292.49 270.56,292.49 298.11,292.49" fill="none" id="dom-to-applib" style="stroke:#181818;stroke-width:1;"/><polygon fill="none" points="316.11,292.49,298.11,286.49,298.11,298.49,316.11,292.49" style="stroke:#181818;stroke-width:1;stroke-linejoin:miter;stroke-miterlimit:10;"/></g><?plantuml-src dT5BJiCm40RWlK_X2uGJL5dG1HiMx10R93SU9QFufR7J4bMzEox5G6oJ8BBBdoz-_3EW10xQXPbhq0SWpvWVqJX1GlDE2U_vcV7ut8jkxCbEHkwjihJRIV1Ts_BzB4mTE1VYzqViX_100ByeZGazeHdhXgo2f5v0ANkgEnz81EZdQ9y7351Nmk4wy5i0JG0oGlsutboNHw4c-5giRi043FCVgZeYdBILeBORq_Y69glimXXp4OeUk2K9f7iTFgURyjZDzPKB_qtkKdY-PDOfF1Js5cPMWvcATLEOMG8VhbikR0hBCzJEwshdbLQNDeMPzRKUVBs76ADsgh0VOMOxQmB5VXOsXT766PMzDqtBbqVUHhSviBB0rSNIHFw3uewidC7gIkdYgoWrsL1KIyJAEJPoeUBFLVHQTlKE?></g></svg>