<?xml version="1.0" encoding="us-ascii" standalone="no"?><svg xmlns="http://www.w3.org/2000/svg" xmlns:xlink="http://www.w3.org/1999/xlink" contentStyleType="text/css" height="320px" preserveAspectRatio="none" style="width:370px;height:320px;background:#FFFFFF;" version="1.1" viewBox="0 0 370 320" width="370px" zoomAndPan="magnify"><defs/><g><!--entity webapp--><g id="elem_webapp"><rect fill="#F1F1F1" height="62.5938" rx="2.5" ry="2.5" style="stroke:#181818;stroke-width:0.5;" width="160" x="105" y="252.19"/><rect fill="#F1F1F1" height="10" style="stroke:#181818;stroke-width:0.5;" width="15" x="245" y="257.19"/><rect fill="#F1F1F1" height="2" style="stroke:#181818;stroke-width:0.5;" width="4" x="243" y="259.19"/><rect fill="#F1F1F1" height="2" style="stroke:#181818;stroke-width:0.5;" width="4" x="243" y="263.19"/><text fill="#000000" font-family="sans-serif" font-size="14" font-style="italic" lengthAdjust="spacing" textLength="120" x="120" y="285.1851">&#171;maven module&#187;</text><text fill="#000000" font-family="sans-serif" font-size="14" lengthAdjust="spacing" textLength="55" x="152.5" y="301.482">webapp</text></g><!--entity module-order--><g id="elem_module-order"><rect fill="#F1F1F1" height="62.5938" rx="2.5" ry="2.5" style="stroke:#181818;stroke-width:0.5;" width="160" x="105" y="129.59"/><rect fill="#F1F1F1" height="10" style="stroke:#181818;stroke-width:0.5;" width="15" x="245" y="134.59"/><rect fill="#F1F1F1" height="2" style="stroke:#181818;stroke-width:0.5;" width="4" x="243" y="136.59"/><rect fill="#F1F1F1" height="2" style="stroke:#181818;stroke-width:0.5;" width="4" x="243" y="140.59"/><text fill="#000000" font-family="sans-serif" font-size="14" font-style="italic" lengthAdjust="spacing" textLength="120" x="120" y="162.5851">&#171;maven module&#187;</text><text fill="#000000" font-family="sans-serif" font-size="14" lengthAdjust="spacing" textLength="94" x="133" y="178.882">module-order</text></g><!--entity module-customer--><g id="elem_module-customer"><rect fill="#F1F1F1" height="62.5938" rx="2.5" ry="2.5" style="stroke:#181818;stroke-width:0.5;" width="163" x="201.5" y="7"/><rect fill="#F1F1F1" height="10" style="stroke:#181818;stroke-width:0.5;" width="15" x="344.5" y="12"/><rect fill="#F1F1F1" height="2" style="stroke:#181818;stroke-width:0.5;" width="4" x="342.5" y="14"/><rect fill="#F1F1F1" height="2" style="stroke:#181818;stroke-width:0.5;" width="4" x="342.5" y="18"/><text fill="#000000" font-family="sans-serif" font-size="14" font-style="italic" lengthAdjust="spacing" textLength="120" x="218" y="39.9951">&#171;maven module&#187;</text><text fill="#000000" font-family="sans-serif" font-size="14" lengthAdjust="spacing" textLength="123" x="216.5" y="56.292">module-customer</text></g><!--entity module-product--><g id="elem_module-product"><rect fill="#F1F1F1" height="62.5938" rx="2.5" ry="2.5" style="stroke:#181818;stroke-width:0.5;" width="160" x="7" y="7"/><rect fill="#F1F1F1" height="10" style="stroke:#181818;stroke-width:0.5;" width="15" x="147" y="12"/><rect fill="#F1F1F1" height="2" style="stroke:#181818;stroke-width:0.5;" width="4" x="145" y="14"/><rect fill="#F1F1F1" height="2" style="stroke:#181818;stroke-width:0.5;" width="4" x="145" y="18"/><text fill="#000000" font-family="sans-serif" font-size="14" font-style="italic" lengthAdjust="spacing" textLength="120" x="22" y="39.9951">&#171;maven module&#187;</text><text fill="#000000" font-family="sans-serif" font-size="14" lengthAdjust="spacing" textLength="111" x="26.5" y="56.292">module-product</text></g><!--reverse link module-order to webapp--><g id="link_module-order_webapp"><path d="M185,198.3 C185,215.38 185,235.5 185,251.8 " fill="none" id="module-order-backto-webapp" style="stroke:#181818;stroke-width:1.0;stroke-dasharray:7.0,7.0;"/><polygon fill="#181818" points="185,193.63,181,202.63,185,198.63,189,202.63,185,193.63" style="stroke:#181818;stroke-width:1.0;"/></g><!--reverse link module-customer to module-order--><g id="link_module-customer_module-order"><path d="M254.49,74.37 C240.39,91.73 223.52,112.49 209.94,129.2 " fill="none" id="module-customer-backto-module-order" style="stroke:#181818;stroke-width:1.0;stroke-dasharray:7.0,7.0;"/><polygon fill="#181818" points="258.02,71.04,249.2421,75.5063,254.8687,74.9219,255.4531,80.5485,258.02,71.04" style="stroke:#181818;stroke-width:1.0;"/></g><!--reverse link module-product to module-order--><g id="link_module-product_module-order"><path d="M115.51,74.37 C129.61,91.73 146.48,112.49 160.06,129.2 " fill="none" id="module-product-backto-module-order" style="stroke:#181818;stroke-width:1.0;stroke-dasharray:7.0,7.0;"/><polygon fill="#181818" points="111.98,71.04,114.5469,80.5485,115.1313,74.9219,120.7579,75.5063,111.98,71.04" style="stroke:#181818;stroke-width:1.0;"/></g><!--SRC=[YovFJKeiA8XLiB79JInBpLF8pKyfpKcri-EAXh1qyujIKejY5N0hI2ujBidFnQ-ce0X89vTWKy8L3NE2NgckdGAgjUYkG542jnYlAfZL0000]--></g></svg>