<?plantuml 1.2026.1?><svg xmlns="http://www.w3.org/2000/svg" xmlns:xlink="http://www.w3.org/1999/xlink" contentStyleType="text/css" data-diagram-type="DESCRIPTION" height="198px" preserveAspectRatio="none" style="width:427px;height:198px;background:#FFFFFF;" version="1.1" viewBox="0 0 427 198" width="427px" zoomAndPan="magnify"><defs/><g><!--entity webapp-jpa-tests--><g class="entity" data-qualified-name="webapp-jpa-tests" data-source-line="1" id="ent0002"><rect fill="#ADD8E6" height="62.5938" rx="2.5" ry="2.5" style="stroke:#181818;stroke-width:0.5;" width="164.0352" x="209.05" y="129.6"/><rect fill="#ADD8E6" height="10" style="stroke:#181818;stroke-width:0.5;" width="15" x="353.0852" y="134.6"/><rect fill="#ADD8E6" height="2" style="stroke:#181818;stroke-width:0.5;" width="4" x="351.0852" y="136.6"/><rect fill="#ADD8E6" height="2" style="stroke:#181818;stroke-width:0.5;" width="4" x="351.0852" y="140.6"/><text fill="#000000" font-family="sans-serif" font-size="14" font-style="italic" lengthAdjust="spacing" textLength="122.0352" x="225.05" y="162.5951">&#171;maven module&#187;</text><text fill="#000000" font-family="sans-serif" font-size="14" lengthAdjust="spacing" textLength="120.9414" x="225.5969" y="178.892">webapp-jpa-tests</text></g><!--entity webapp-jpa--><g class="entity" data-qualified-name="webapp-jpa" data-source-line="2" id="ent0003"><rect fill="#F1F1F1" height="62.5938" rx="2.5" ry="2.5" style="stroke:#181818;stroke-width:0.5;" width="164.0352" x="10.05" y="129.6"/><rect fill="#F1F1F1" height="10" style="stroke:#181818;stroke-width:0.5;" width="15" x="154.0852" y="134.6"/><rect fill="#F1F1F1" height="2" style="stroke:#181818;stroke-width:0.5;" width="4" x="152.0852" y="136.6"/><rect fill="#F1F1F1" height="2" style="stroke:#181818;stroke-width:0.5;" width="4" x="152.0852" y="140.6"/><text fill="#000000" font-family="sans-serif" font-size="14" font-style="italic" lengthAdjust="spacing" textLength="122.0352" x="26.05" y="162.5951">&#171;maven module&#187;</text><text fill="#000000" font-family="sans-serif" font-size="14" lengthAdjust="spacing" textLength="81.71" x="46.2126" y="178.892">webapp-jpa</text></g><!--entity module-jpa-simple-tests--><g class="entity" data-qualified-name="module-jpa-simple-tests" data-source-line="3" id="ent0004"><rect fill="#ADD8E6" height="62.5938" rx="2.5" ry="2.5" style="stroke:#181818;stroke-width:0.5;" width="209.3672" x="212.38" y="7"/><rect fill="#ADD8E6" height="10" style="stroke:#181818;stroke-width:0.5;" width="15" x="401.7472" y="12"/><rect fill="#ADD8E6" height="2" style="stroke:#181818;stroke-width:0.5;" width="4" x="399.7472" y="14"/><rect fill="#ADD8E6" height="2" style="stroke:#181818;stroke-width:0.5;" width="4" x="399.7472" y="18"/><text fill="#000000" font-family="sans-serif" font-size="14" font-style="italic" lengthAdjust="spacing" textLength="122.0352" x="251.046" y="39.9951">&#171;maven module&#187;</text><text fill="#000000" font-family="sans-serif" font-size="14" lengthAdjust="spacing" textLength="169.3672" x="227.38" y="56.292">module-jpa-simple-tests</text></g><!--entity module-jpa-simple--><g class="entity" data-qualified-name="module-jpa-simple" data-source-line="4" id="ent0005"><rect fill="#F1F1F1" height="62.5938" rx="2.5" ry="2.5" style="stroke:#181818;stroke-width:0.5;" width="170.1357" x="7" y="7"/><rect fill="#F1F1F1" height="10" style="stroke:#181818;stroke-width:0.5;" width="15" x="157.1357" y="12"/><rect fill="#F1F1F1" height="2" style="stroke:#181818;stroke-width:0.5;" width="4" x="155.1357" y="14"/><rect fill="#F1F1F1" height="2" style="stroke:#181818;stroke-width:0.5;" width="4" x="155.1357" y="18"/><text fill="#000000" font-family="sans-serif" font-size="14" font-style="italic" lengthAdjust="spacing" textLength="122.0352" x="26.0503" y="39.9951">&#171;maven module&#187;</text><text fill="#000000" font-family="sans-serif" font-size="14" lengthAdjust="spacing" textLength="130.1357" x="22" y="56.292">module-jpa-simple</text></g><!--reverse link webapp-jpa to webapp-jpa-tests--><g class="link" data-entity-1="ent0003" data-entity-2="ent0002" data-link-type="dependency" data-source-line="6" id="lnk7"><path d="M180.47,160.89 C191.85,160.89 197.24,160.89 208.63,160.89" fill="none" id="webapp-jpa-backto-webapp-jpa-tests" style="stroke:#181818;stroke-width:1;stroke-dasharray:7,7;"/><polygon fill="#181818" points="174.47,160.89,183.47,164.89,179.47,160.89,183.47,156.89,174.47,160.89" style="stroke:#181818;stroke-width:1;"/></g><!--reverse link module-jpa-simple to module-jpa-simple-tests--><g class="link" data-entity-1="ent0005" data-entity-2="ent0004" data-link-type="dependency" data-source-line="7" id="lnk9"><path d="M183.32,38.3 C194.88,38.3 200.43,38.3 211.99,38.3" fill="none" id="module-jpa-simple-backto-module-jpa-simple-tests" style="stroke:#181818;stroke-width:1;stroke-dasharray:7,7;"/><polygon fill="#181818" points="177.32,38.3,186.32,42.3,182.32,38.3,186.32,34.3,177.32,38.3" style="stroke:#181818;stroke-width:1;"/></g><!--reverse link module-jpa-simple to webapp-jpa--><g class="link" data-entity-1="ent0005" data-entity-2="ent0003" data-link-type="dependency" data-source-line="8" id="lnk11"><path d="M92.07,76.04 C92.07,94.19 92.07,111.07 92.07,129.21" fill="none" id="module-jpa-simple-backto-webapp-jpa" style="stroke:#181818;stroke-width:1;stroke-dasharray:7,7;"/><polygon fill="#181818" points="92.07,70.04,88.07,79.04,92.07,75.04,96.07,79.04,92.07,70.04" style="stroke:#181818;stroke-width:1;"/></g><?plantuml-src YovFJKeiAD3DAaZKBKajBYcELR2noKqiIyrJoCrFASr9jRDJKFR9JCyeSSefJUMAHYZ7LCWL3M613IlEp2q0Cg5cuZSKGniM3Lp8TiECrSlHjLD0TXCU9q3KObg5wYUzKkog0000?></g></svg>