<?xml version="1.0" encoding="UTF-8" standalone="no"?><svg xmlns="http://www.w3.org/2000/svg" xmlns:xlink="http://www.w3.org/1999/xlink" contentStyleType="text/css" height="200px" preserveAspectRatio="none" style="width:372px;height:200px;background:#FFFFFF;" version="1.1" viewBox="0 0 372 200" width="372px" zoomAndPan="magnify"><defs/><g><!--MD5=[78ab967b86991b085c357b1af2484e31]
entity webapp-...-tests--><g id="elem_webapp-...-tests"><rect fill="#ADD8E6" height="63.5999" rx="2.5" ry="2.5" style="stroke:#181818;stroke-width:0.5;" width="144" x="186.5" y="131"/><rect fill="#ADD8E6" height="10" style="stroke:#181818;stroke-width:0.5;" width="15" x="310.5" y="136"/><rect fill="#ADD8E6" height="2" style="stroke:#181818;stroke-width:0.5;" width="4" x="308.5" y="138"/><rect fill="#ADD8E6" height="2" style="stroke:#181818;stroke-width:0.5;" width="4" x="308.5" y="142"/><text fill="#000000" font-family="sans-serif" font-size="14" font-style="italic" lengthAdjust="spacing" textLength="104" x="201.5" y="164.9999">«maven module»</text><text fill="#000000" font-family="sans-serif" font-size="14" lengthAdjust="spacing" textLength="100" x="203.5" y="181.7999">webapp-...-tests</text></g><!--MD5=[743e315982ff00b0ca25ed90324277b3]
entity webapp-...--><g id="elem_webapp-..."><rect fill="#F1F1F1" height="63.5999" rx="2.5" ry="2.5" style="stroke:#181818;stroke-width:0.5;" width="144" x="7.5" y="131"/><rect fill="#F1F1F1" height="10" style="stroke:#181818;stroke-width:0.5;" width="15" x="131.5" y="136"/><rect fill="#F1F1F1" height="2" style="stroke:#181818;stroke-width:0.5;" width="4" x="129.5" y="138"/><rect fill="#F1F1F1" height="2" style="stroke:#181818;stroke-width:0.5;" width="4" x="129.5" y="142"/><text fill="#000000" font-family="sans-serif" font-size="14" font-style="italic" lengthAdjust="spacing" textLength="104" x="22.5" y="164.9999">«maven module»</text><text fill="#000000" font-family="sans-serif" font-size="14" lengthAdjust="spacing" textLength="66" x="41.5" y="181.7999">webapp-...</text></g><!--MD5=[7859c0536705d175ebd1ed0177e4c170]
entity module-...-simple-tests--><g id="elem_module-...-simple-tests"><rect fill="#ADD8E6" height="63.5999" rx="2.5" ry="2.5" style="stroke:#181818;stroke-width:0.5;" width="179" x="187" y="7"/><rect fill="#ADD8E6" height="10" style="stroke:#181818;stroke-width:0.5;" width="15" x="346" y="12"/><rect fill="#ADD8E6" height="2" style="stroke:#181818;stroke-width:0.5;" width="4" x="344" y="14"/><rect fill="#ADD8E6" height="2" style="stroke:#181818;stroke-width:0.5;" width="4" x="344" y="18"/><text fill="#000000" font-family="sans-serif" font-size="14" font-style="italic" lengthAdjust="spacing" textLength="104" x="219.5" y="40.9999">«maven module»</text><text fill="#000000" font-family="sans-serif" font-size="14" lengthAdjust="spacing" textLength="139" x="202" y="57.7999">module-...-simple-tests</text></g><!--MD5=[e530090da2dcabe320e1a3e53e019813]
entity module-...-simple--><g id="elem_module-...-simple"><rect fill="#F1F1F1" height="63.5999" rx="2.5" ry="2.5" style="stroke:#181818;stroke-width:0.5;" width="145" x="7" y="7"/><rect fill="#F1F1F1" height="10" style="stroke:#181818;stroke-width:0.5;" width="15" x="132" y="12"/><rect fill="#F1F1F1" height="2" style="stroke:#181818;stroke-width:0.5;" width="4" x="130" y="14"/><rect fill="#F1F1F1" height="2" style="stroke:#181818;stroke-width:0.5;" width="4" x="130" y="18"/><text fill="#000000" font-family="sans-serif" font-size="14" font-style="italic" lengthAdjust="spacing" textLength="104" x="22.5" y="40.9999">«maven module»</text><text fill="#000000" font-family="sans-serif" font-size="14" lengthAdjust="spacing" textLength="105" x="22" y="57.7999">module-...-simple</text></g><!--MD5=[d7fdbf65ae88c48990053a6e76860028]
reverse link webapp-... to webapp-...-tests--><g id="link_webapp-..._webapp-...-tests"><path d="M156.67,163 C166.51,163 176.36,163 186.2,163 " fill="none" id="webapp-...-backto-webapp-...-tests" style="stroke:#181818;stroke-width:1.0;stroke-dasharray:7.0,7.0;"/><polygon fill="#181818" points="151.52,163,160.52,167,156.52,163,160.52,159,151.52,163" style="stroke:#181818;stroke-width:1.0;"/></g><!--MD5=[2d9120dc6065fa8fb4d6903ca1c8f0d7]
reverse link module-...-simple to module-...-simple-tests--><g id="link_module-...-simple_module-...-simple-tests"><path d="M157.34,39 C167.12,39 176.9,39 186.69,39 " fill="none" id="module-...-simple-backto-module-...-simple-tests" style="stroke:#181818;stroke-width:1.0;stroke-dasharray:7.0,7.0;"/><polygon fill="#181818" points="152.22,39,161.22,43,157.22,39,161.22,35,152.22,39" style="stroke:#181818;stroke-width:1.0;"/></g><!--MD5=[99803cd72466681fd9c106dbb9440abd]
reverse link module-...-simple to webapp-...--><g id="link_module-...-simple_webapp-..."><path d="M79.5,76.38 C79.5,93.76 79.5,114.33 79.5,130.96 " fill="none" id="module-...-simple-backto-webapp-..." style="stroke:#181818;stroke-width:1.0;stroke-dasharray:7.0,7.0;"/><polygon fill="#181818" points="79.5,71.1,75.5,80.1,79.5,76.1,83.5,80.1,79.5,71.1" style="stroke:#181818;stroke-width:1.0;"/></g><!--MD5=[14ab13ad404518b05334c17f1a29ec68]
@startuml
[webapp-...-tests] <<maven module>> #LightBlue
[webapp-...] <<maven module>>
[module-...-simple-tests]  <<maven module>> #LightBlue
[module-...-simple]  <<maven module>>

[webapp-...-tests] .l-> [webapp-...]
[module-...-simple-tests] .l-> [module-...-simple]
[webapp-...] .u-> [module-...-simple]
@enduml

PlantUML version 1.2022.5(Sat Apr 30 10:55:52 GMT 2022)
(GPL source distribution)
Java Runtime: OpenJDK Runtime Environment
JVM: OpenJDK 64-Bit Server VM
Default Encoding: UTF-8
Language: en
Country: US
--></g></svg>