<?xml version="1.0" encoding="UTF-8" standalone="no"?><svg xmlns="http://www.w3.org/2000/svg" xmlns:xlink="http://www.w3.org/1999/xlink" contentStyleType="text/css" height="324px" preserveAspectRatio="none" style="width:337px;height:324px;background:#FFFFFF;" version="1.1" viewBox="0 0 337 324" width="337px" zoomAndPan="magnify"><defs/><g><!--MD5=[2021705b656b270ae1616113380bc97f]
entity webapp--><g id="elem_webapp"><rect fill="#F1F1F1" height="63.5999" rx="2.5" ry="2.5" style="stroke:#181818;stroke-width:0.5;" width="144" x="97" y="255"/><rect fill="#F1F1F1" height="10" style="stroke:#181818;stroke-width:0.5;" width="15" x="221" y="260"/><rect fill="#F1F1F1" height="2" style="stroke:#181818;stroke-width:0.5;" width="4" x="219" y="262"/><rect fill="#F1F1F1" height="2" style="stroke:#181818;stroke-width:0.5;" width="4" x="219" y="266"/><text fill="#000000" font-family="sans-serif" font-size="14" font-style="italic" lengthAdjust="spacing" textLength="104" x="112" y="288.9999">«maven module»</text><text fill="#000000" font-family="sans-serif" font-size="14" lengthAdjust="spacing" textLength="49" x="139.5" y="305.7999">webapp</text></g><!--MD5=[5480fbae4965b87629b0845b7de8e587]
entity module-order--><g id="elem_module-order"><rect fill="#F1F1F1" height="63.5999" rx="2.5" ry="2.5" style="stroke:#181818;stroke-width:0.5;" width="144" x="97" y="131"/><rect fill="#F1F1F1" height="10" style="stroke:#181818;stroke-width:0.5;" width="15" x="221" y="136"/><rect fill="#F1F1F1" height="2" style="stroke:#181818;stroke-width:0.5;" width="4" x="219" y="138"/><rect fill="#F1F1F1" height="2" style="stroke:#181818;stroke-width:0.5;" width="4" x="219" y="142"/><text fill="#000000" font-family="sans-serif" font-size="14" font-style="italic" lengthAdjust="spacing" textLength="104" x="112" y="164.9999">«maven module»</text><text fill="#000000" font-family="sans-serif" font-size="14" lengthAdjust="spacing" textLength="81" x="123.5" y="181.7999">module-order</text></g><!--MD5=[1d080b2c3ed4b2206b80a49e33408a84]
entity module-customer--><g id="elem_module-customer"><rect fill="#F1F1F1" height="63.5999" rx="2.5" ry="2.5" style="stroke:#181818;stroke-width:0.5;" width="145" x="186.5" y="7"/><rect fill="#F1F1F1" height="10" style="stroke:#181818;stroke-width:0.5;" width="15" x="311.5" y="12"/><rect fill="#F1F1F1" height="2" style="stroke:#181818;stroke-width:0.5;" width="4" x="309.5" y="14"/><rect fill="#F1F1F1" height="2" style="stroke:#181818;stroke-width:0.5;" width="4" x="309.5" y="18"/><text fill="#000000" font-family="sans-serif" font-size="14" font-style="italic" lengthAdjust="spacing" textLength="104" x="202" y="40.9999">«maven module»</text><text fill="#000000" font-family="sans-serif" font-size="14" lengthAdjust="spacing" textLength="105" x="201.5" y="57.7999">module-customer</text></g><!--MD5=[f71c300ea1ca613d32319146750c5242]
entity module-product--><g id="elem_module-product"><rect fill="#F1F1F1" height="63.5999" rx="2.5" ry="2.5" style="stroke:#181818;stroke-width:0.5;" width="144" x="7" y="7"/><rect fill="#F1F1F1" height="10" style="stroke:#181818;stroke-width:0.5;" width="15" x="131" y="12"/><rect fill="#F1F1F1" height="2" style="stroke:#181818;stroke-width:0.5;" width="4" x="129" y="14"/><rect fill="#F1F1F1" height="2" style="stroke:#181818;stroke-width:0.5;" width="4" x="129" y="18"/><text fill="#000000" font-family="sans-serif" font-size="14" font-style="italic" lengthAdjust="spacing" textLength="104" x="22" y="40.9999">«maven module»</text><text fill="#000000" font-family="sans-serif" font-size="14" lengthAdjust="spacing" textLength="96" x="26" y="57.7999">module-product</text></g><!--MD5=[6ee13c75d05f72e8361b34b32e76bc28]
reverse link module-order to webapp--><g id="link_module-order_webapp"><path d="M169,200.38 C169,217.76 169,238.33 169,254.96 " fill="none" id="module-order-backto-webapp" style="stroke:#181818;stroke-width:1.0;stroke-dasharray:7.0,7.0;"/><polygon fill="#181818" points="169,195.1,165,204.1,169,200.1,173,204.1,169,195.1" style="stroke:#181818;stroke-width:1.0;"/></g><!--MD5=[a93c2e31ed9207dfd3e611bb28656920]
reverse link module-customer to module-order--><g id="link_module-customer_module-order"><path d="M232.82,75.49 C219.87,93.04 204.38,114.04 191.9,130.96 " fill="none" id="module-customer-backto-module-order" style="stroke:#181818;stroke-width:1.0;stroke-dasharray:7.0,7.0;"/><polygon fill="#181818" points="236.06,71.1,227.5099,75.9882,233.1013,75.1307,233.9589,80.7221,236.06,71.1" style="stroke:#181818;stroke-width:1.0;"/></g><!--MD5=[98362726b7f55382ac5b1ec0a90ea588]
reverse link module-product to module-order--><g id="link_module-product_module-order"><path d="M105.18,75.49 C118.13,93.04 133.62,114.04 146.1,130.96 " fill="none" id="module-product-backto-module-order" style="stroke:#181818;stroke-width:1.0;stroke-dasharray:7.0,7.0;"/><polygon fill="#181818" points="101.94,71.1,104.0411,80.7221,104.8987,75.1307,110.4901,75.9882,101.94,71.1" style="stroke:#181818;stroke-width:1.0;"/></g><!--MD5=[3aaa8d0a5f63b2d99d9bf2b8e0419f3c]
@startuml
[webapp] <<maven module>>
[module-order]  <<maven module>>
[module-customer]  <<maven module>>
[module-product]  <<maven module>>

[webapp] .u-> [module-order]
[module-order] .u-> [module-customer]
[module-order] .u-> [module-product]
@enduml

PlantUML version 1.2022.5(Sat Apr 30 10:55:52 GMT 2022)
(GPL source distribution)
Java Runtime: OpenJDK Runtime Environment
JVM: OpenJDK 64-Bit Server VM
Default Encoding: UTF-8
Language: en
Country: US
--></g></svg>