<svg xmlns="http://www.w3.org/2000/svg" xmlns:xlink="http://www.w3.org/1999/xlink" contentStyleType="text/css" data-diagram-type="DESCRIPTION" height="320px" preserveAspectRatio="none" style="width:376px;height:320px;background:#FFFFFF;" version="1.1" viewBox="0 0 376 320" width="376px" zoomAndPan="magnify"><defs/><g><!--entity webapp--><g class="entity" data-entity="webapp" data-source-line="1" data-uid="ent0002" id="entity_webapp"><rect fill="#F1F1F1" height="62.5938" rx="2.5" ry="2.5" style="stroke:#181818;stroke-width:0.5;" width="164.0352" x="106" y="252.19"/><rect fill="#F1F1F1" height="10" style="stroke:#181818;stroke-width:0.5;" width="15" x="250.0352" y="257.19"/><rect fill="#F1F1F1" height="2" style="stroke:#181818;stroke-width:0.5;" width="4" x="248.0352" y="259.19"/><rect fill="#F1F1F1" height="2" style="stroke:#181818;stroke-width:0.5;" width="4" x="248.0352" y="263.19"/><text fill="#000000" font-family="sans-serif" font-size="14" font-style="italic" lengthAdjust="spacing" textLength="122.0352" x="122" y="285.1851">&#171;maven module&#187;</text><text fill="#000000" font-family="sans-serif" font-size="14" lengthAdjust="spacing" textLength="55.3027" x="155.3662" y="301.482">webapp</text></g><!--entity module-order--><g class="entity" data-entity="module-order" data-source-line="2" data-uid="ent0003" id="entity_module-order"><rect fill="#F1F1F1" height="62.5938" rx="2.5" ry="2.5" style="stroke:#181818;stroke-width:0.5;" width="164.0352" x="106" y="129.59"/><rect fill="#F1F1F1" height="10" style="stroke:#181818;stroke-width:0.5;" width="15" x="250.0352" y="134.59"/><rect fill="#F1F1F1" height="2" style="stroke:#181818;stroke-width:0.5;" width="4" x="248.0352" y="136.59"/><rect fill="#F1F1F1" height="2" style="stroke:#181818;stroke-width:0.5;" width="4" x="248.0352" y="140.59"/><text fill="#000000" font-family="sans-serif" font-size="14" font-style="italic" lengthAdjust="spacing" textLength="122.0352" x="122" y="162.5851">&#171;maven module&#187;</text><text fill="#000000" font-family="sans-serif" font-size="14" lengthAdjust="spacing" textLength="95.0947" x="135.4702" y="178.882">module-order</text></g><!--entity module-customer--><g class="entity" data-entity="module-customer" data-source-line="3" data-uid="ent0004" id="entity_module-customer"><rect fill="#F1F1F1" height="62.5938" rx="2.5" ry="2.5" style="stroke:#181818;stroke-width:0.5;" width="164.0352" x="206" y="7"/><rect fill="#F1F1F1" height="10" style="stroke:#181818;stroke-width:0.5;" width="15" x="350.0352" y="12"/><rect fill="#F1F1F1" height="2" style="stroke:#181818;stroke-width:0.5;" width="4" x="348.0352" y="14"/><rect fill="#F1F1F1" height="2" style="stroke:#181818;stroke-width:0.5;" width="4" x="348.0352" y="18"/><text fill="#000000" font-family="sans-serif" font-size="14" font-style="italic" lengthAdjust="spacing" textLength="122.0352" x="222" y="39.9951">&#171;maven module&#187;</text><text fill="#000000" font-family="sans-serif" font-size="14" lengthAdjust="spacing" textLength="123.4434" x="221.2959" y="56.292">module-customer</text></g><!--entity module-product--><g class="entity" data-entity="module-product" data-source-line="4" data-uid="ent0005" id="entity_module-product"><rect fill="#F1F1F1" height="62.5938" rx="2.5" ry="2.5" style="stroke:#181818;stroke-width:0.5;" width="164.0352" x="7" y="7"/><rect fill="#F1F1F1" height="10" style="stroke:#181818;stroke-width:0.5;" width="15" x="151.0352" y="12"/><rect fill="#F1F1F1" height="2" style="stroke:#181818;stroke-width:0.5;" width="4" x="149.0352" y="14"/><rect fill="#F1F1F1" height="2" style="stroke:#181818;stroke-width:0.5;" width="4" x="149.0352" y="18"/><text fill="#000000" font-family="sans-serif" font-size="14" font-style="italic" lengthAdjust="spacing" textLength="122.0352" x="23" y="39.9951">&#171;maven module&#187;</text><text fill="#000000" font-family="sans-serif" font-size="14" lengthAdjust="spacing" textLength="111.6719" x="28.1816" y="56.292">module-product</text></g><!--reverse link module-order to webapp--><g class="link" data-entity-1="module-order" data-entity-2="webapp" data-source-line="6" data-uid="lnk7" id="link_module-order_webapp"><path d="M188.02,198.63 C188.02,216.78 188.02,233.66 188.02,251.8" fill="none" id="module-order-backto-webapp" style="stroke:#181818;stroke-width:1;stroke-dasharray:7,7;"/><polygon fill="#181818" points="188.02,192.63,184.02,201.63,188.02,197.63,192.02,201.63,188.02,192.63" style="stroke:#181818;stroke-width:1;"/></g><!--reverse link module-customer to module-order--><g class="link" data-entity-1="module-customer" data-entity-2="module-order" data-source-line="7" data-uid="lnk9" id="link_module-customer_module-order"><path d="M258.6904,74.6589 C243.6504,92.7989 228.5,111.07 213.46,129.2" fill="none" id="module-customer-backto-module-order" style="stroke:#181818;stroke-width:1;stroke-dasharray:7,7;"/><polygon fill="#181818" points="262.52,70.04,253.6964,74.4153,259.3287,73.8891,259.8549,79.5214,262.52,70.04" style="stroke:#181818;stroke-width:1;"/></g><!--reverse link module-product to module-order--><g class="link" data-entity-1="module-product" data-entity-2="module-order" data-source-line="8" data-uid="lnk11" id="link_module-product_module-order"><path d="M118.0668,74.6777 C132.9568,92.8177 147.94,111.07 162.83,129.2" fill="none" id="module-product-backto-module-order" style="stroke:#181818;stroke-width:1;stroke-dasharray:7,7;"/><polygon fill="#181818" points="114.26,70.04,116.8784,79.5344,117.4323,73.9048,123.062,74.4587,114.26,70.04" style="stroke:#181818;stroke-width:1;"/></g><!--SRC=[YovFJKeiA8XLiB79JInBpLF8pKyfpKcri-EAXh1qyujIKejY5N0hI2ujBidFnQ-ce0X89vTWKy8L3NE2NgckdGAgjUYkG542jnYlAfZL0000]--></g></svg>