<svg xmlns="http://www.w3.org/2000/svg" xmlns:xlink="http://www.w3.org/1999/xlink" contentStyleType="text/css" data-diagram-type="DESCRIPTION" height="328px" preserveAspectRatio="none" style="width:384px;height:328px;background:#FFFFFF;" version="1.1" viewBox="0 0 384 328" width="384px" zoomAndPan="magnify"><?plantuml 1.2026.6?><defs/><g><!--entity webapp--><g class="entity" data-qualified-name="webapp" data-source-line="1" id="ent0001"><rect fill="#F1F1F1" height="62.5938" rx="2.5" ry="2.5" style="stroke:#181818;stroke-width:0.5;" width="164.0352" x="106" y="252.19"/><rect fill="#F1F1F1" height="10" style="stroke:#181818;stroke-width:0.5;" width="15" x="250.0352" y="257.19"/><rect fill="#F1F1F1" height="2" style="stroke:#181818;stroke-width:0.5;" width="4" x="248.0352" y="259.19"/><rect fill="#F1F1F1" height="2" style="stroke:#181818;stroke-width:0.5;" width="4" x="248.0352" y="263.19"/><text fill="#000000" font-family="sans-serif" font-size="14" font-style="italic" lengthAdjust="spacing" textLength="122.0352" x="122" y="285.1851">&#171;maven module&#187;</text><text fill="#000000" font-family="sans-serif" font-size="14" lengthAdjust="spacing" textLength="55.3027" x="155.3662" y="301.482">webapp</text></g><!--entity module-order--><g class="entity" data-qualified-name="module-order" data-source-line="2" id="ent0002"><rect fill="#F1F1F1" height="62.5938" rx="2.5" ry="2.5" style="stroke:#181818;stroke-width:0.5;" width="164.0352" x="106" y="129.59"/><rect fill="#F1F1F1" height="10" style="stroke:#181818;stroke-width:0.5;" width="15" x="250.0352" y="134.59"/><rect fill="#F1F1F1" height="2" style="stroke:#181818;stroke-width:0.5;" width="4" x="248.0352" y="136.59"/><rect fill="#F1F1F1" height="2" style="stroke:#181818;stroke-width:0.5;" width="4" x="248.0352" y="140.59"/><text fill="#000000" font-family="sans-serif" font-size="14" font-style="italic" lengthAdjust="spacing" textLength="122.0352" x="122" y="162.5851">&#171;maven module&#187;</text><text fill="#000000" font-family="sans-serif" font-size="14" lengthAdjust="spacing" textLength="95.0947" x="135.4702" y="178.882">module-order</text></g><!--entity module-customer--><g class="entity" data-qualified-name="module-customer" data-source-line="3" id="ent0003"><rect fill="#F1F1F1" height="62.5938" rx="2.5" ry="2.5" style="stroke:#181818;stroke-width:0.5;" width="164.0352" x="206" y="7"/><rect fill="#F1F1F1" height="10" style="stroke:#181818;stroke-width:0.5;" width="15" x="350.0352" y="12"/><rect fill="#F1F1F1" height="2" style="stroke:#181818;stroke-width:0.5;" width="4" x="348.0352" y="14"/><rect fill="#F1F1F1" height="2" style="stroke:#181818;stroke-width:0.5;" width="4" x="348.0352" y="18"/><text fill="#000000" font-family="sans-serif" font-size="14" font-style="italic" lengthAdjust="spacing" textLength="122.0352" x="222" y="39.9951">&#171;maven module&#187;</text><text fill="#000000" font-family="sans-serif" font-size="14" lengthAdjust="spacing" textLength="123.4434" x="221.2959" y="56.292">module-customer</text></g><!--entity module-product--><g class="entity" data-qualified-name="module-product" data-source-line="4" id="ent0004"><rect fill="#F1F1F1" height="62.5938" rx="2.5" ry="2.5" style="stroke:#181818;stroke-width:0.5;" width="164.0352" x="7" y="7"/><rect fill="#F1F1F1" height="10" style="stroke:#181818;stroke-width:0.5;" width="15" x="151.0352" y="12"/><rect fill="#F1F1F1" height="2" style="stroke:#181818;stroke-width:0.5;" width="4" x="149.0352" y="14"/><rect fill="#F1F1F1" height="2" style="stroke:#181818;stroke-width:0.5;" width="4" x="149.0352" y="18"/><text fill="#000000" font-family="sans-serif" font-size="14" font-style="italic" lengthAdjust="spacing" textLength="122.0352" x="23" y="39.9951">&#171;maven module&#187;</text><text fill="#000000" font-family="sans-serif" font-size="14" lengthAdjust="spacing" textLength="111.6719" x="28.1816" y="56.292">module-product</text></g><!--reverse link module-order to webapp--><g class="link" data-entity-1="ent0002" data-entity-2="ent0001" data-link-type="dependency" data-source-line="6" id="lnk6"><path d="M188.02,197.63 C188.02,215.78 188.02,233.66 188.02,251.8" fill="none" id="module-order-backto-webapp" style="stroke:#181818;stroke-width:1;stroke-dasharray:7,7;"/><polygon fill="#181818" points="188.02,192.63,184.02,201.63,188.02,197.63,192.02,201.63,188.02,192.63" style="stroke:#181818;stroke-width:1;stroke-linejoin:miter;stroke-miterlimit:10;"/></g><!--reverse link module-customer to module-order--><g class="link" data-entity-1="ent0003" data-entity-2="ent0002" data-link-type="dependency" data-source-line="7" id="lnk8"><path d="M259.3287,73.8891 C244.2887,92.0291 228.5,111.07 213.46,129.2" fill="none" id="module-customer-backto-module-order" style="stroke:#181818;stroke-width:1;stroke-dasharray:7,7;"/><polygon fill="#181818" points="262.52,70.04,253.6964,74.4153,259.3287,73.8891,259.8549,79.5214,262.52,70.04" style="stroke:#181818;stroke-width:1;stroke-linejoin:miter;stroke-miterlimit:10;"/></g><!--reverse link module-product to module-order--><g class="link" data-entity-1="ent0004" data-entity-2="ent0002" data-link-type="dependency" data-source-line="8" id="lnk10"><path d="M117.4323,73.9048 C132.3223,92.0448 147.94,111.07 162.83,129.2" fill="none" id="module-product-backto-module-order" style="stroke:#181818;stroke-width:1;stroke-dasharray:7,7;"/><polygon fill="#181818" points="114.26,70.04,116.8784,79.5344,117.4323,73.9048,123.062,74.4587,114.26,70.04" style="stroke:#181818;stroke-width:1;stroke-linejoin:miter;stroke-miterlimit:10;"/></g><?plantuml-src YovFJKeiA8XLiB79JInBpLF8pKyfpKcri-EAXh1qyujIKejY5N0hI2ujBidFnQ-ce0X89vTWKy8L3NE2NgckdGAgjUYkG542jnYlAfZL0000?></g></svg>