<?xml version="1.0" encoding="us-ascii" standalone="no"?><svg xmlns="http://www.w3.org/2000/svg" xmlns:xlink="http://www.w3.org/1999/xlink" contentStyleType="text/css" height="198px" preserveAspectRatio="none" style="width:406px;height:198px;background:#FFFFFF;" version="1.1" viewBox="0 0 406 198" width="406px" zoomAndPan="magnify"><defs/><g><!--entity webapp-...-tests--><g id="elem_webapp-...-tests"><rect fill="#ADD8E6" height="62.5938" rx="2.5" ry="2.5" style="stroke:#181818;stroke-width:0.5;" width="160" x="202" y="129.6"/><rect fill="#ADD8E6" height="10" style="stroke:#181818;stroke-width:0.5;" width="15" x="342" y="134.6"/><rect fill="#ADD8E6" height="2" style="stroke:#181818;stroke-width:0.5;" width="4" x="340" y="136.6"/><rect fill="#ADD8E6" height="2" style="stroke:#181818;stroke-width:0.5;" width="4" x="340" y="140.6"/><text fill="#000000" font-family="sans-serif" font-size="14" font-style="italic" lengthAdjust="spacing" textLength="120" x="217" y="162.5951">&#171;maven module&#187;</text><text fill="#000000" font-family="sans-serif" font-size="14" lengthAdjust="spacing" textLength="112" x="221" y="178.892">webapp-...-tests</text></g><!--entity webapp-...--><g id="elem_webapp-..."><rect fill="#F1F1F1" height="62.5938" rx="2.5" ry="2.5" style="stroke:#181818;stroke-width:0.5;" width="160" x="7" y="129.6"/><rect fill="#F1F1F1" height="10" style="stroke:#181818;stroke-width:0.5;" width="15" x="147" y="134.6"/><rect fill="#F1F1F1" height="2" style="stroke:#181818;stroke-width:0.5;" width="4" x="145" y="136.6"/><rect fill="#F1F1F1" height="2" style="stroke:#181818;stroke-width:0.5;" width="4" x="145" y="140.6"/><text fill="#000000" font-family="sans-serif" font-size="14" font-style="italic" lengthAdjust="spacing" textLength="120" x="22" y="162.5951">&#171;maven module&#187;</text><text fill="#000000" font-family="sans-serif" font-size="14" lengthAdjust="spacing" textLength="72" x="46" y="178.892">webapp-...</text></g><!--entity module-...-simple-tests--><g id="elem_module-...-simple-tests"><rect fill="#ADD8E6" height="62.5938" rx="2.5" ry="2.5" style="stroke:#181818;stroke-width:0.5;" width="199" x="201.5" y="7"/><rect fill="#ADD8E6" height="10" style="stroke:#181818;stroke-width:0.5;" width="15" x="380.5" y="12"/><rect fill="#ADD8E6" height="2" style="stroke:#181818;stroke-width:0.5;" width="4" x="378.5" y="14"/><rect fill="#ADD8E6" height="2" style="stroke:#181818;stroke-width:0.5;" width="4" x="378.5" y="18"/><text fill="#000000" font-family="sans-serif" font-size="14" font-style="italic" lengthAdjust="spacing" textLength="120" x="236" y="39.9951">&#171;maven module&#187;</text><text fill="#000000" font-family="sans-serif" font-size="14" lengthAdjust="spacing" textLength="159" x="216.5" y="56.292">module-...-simple-tests</text></g><!--entity module-...-simple--><g id="elem_module-...-simple"><rect fill="#F1F1F1" height="62.5938" rx="2.5" ry="2.5" style="stroke:#181818;stroke-width:0.5;" width="160" x="7" y="7"/><rect fill="#F1F1F1" height="10" style="stroke:#181818;stroke-width:0.5;" width="15" x="147" y="12"/><rect fill="#F1F1F1" height="2" style="stroke:#181818;stroke-width:0.5;" width="4" x="145" y="14"/><rect fill="#F1F1F1" height="2" style="stroke:#181818;stroke-width:0.5;" width="4" x="145" y="18"/><text fill="#000000" font-family="sans-serif" font-size="14" font-style="italic" lengthAdjust="spacing" textLength="120" x="22" y="39.9951">&#171;maven module&#187;</text><text fill="#000000" font-family="sans-serif" font-size="14" lengthAdjust="spacing" textLength="119" x="22.5" y="56.292">module-...-simple</text></g><!--reverse link webapp-... to webapp-...-tests--><g id="link_webapp-..._webapp-...-tests"><path d="M173.29,160.89 C182.81,160.89 192.32,160.89 201.84,160.89 " fill="none" id="webapp-...-backto-webapp-...-tests" style="stroke:#181818;stroke-width:1.0;stroke-dasharray:7.0,7.0;"/><polygon fill="#181818" points="168.36,160.89,177.36,164.89,173.36,160.89,177.36,156.89,168.36,160.89" style="stroke:#181818;stroke-width:1.0;"/></g><!--reverse link module-...-simple to module-...-simple-tests--><g id="link_module-...-simple_module-...-simple-tests"><path d="M173.09,38.3 C182.46,38.3 191.84,38.3 201.21,38.3 " fill="none" id="module-...-simple-backto-module-...-simple-tests" style="stroke:#181818;stroke-width:1.0;stroke-dasharray:7.0,7.0;"/><polygon fill="#181818" points="168.25,38.3,177.25,42.3,173.25,38.3,177.25,34.3,168.25,38.3" style="stroke:#181818;stroke-width:1.0;"/></g><!--reverse link module-...-simple to webapp-...--><g id="link_module-...-simple_webapp-..."><path d="M87,75.71 C87,92.79 87,112.91 87,129.21 " fill="none" id="module-...-simple-backto-webapp-..." style="stroke:#181818;stroke-width:1.0;stroke-dasharray:7.0,7.0;"/><polygon fill="#181818" points="87,71.04,83,80.04,87,76.04,91,80.04,87,71.04" style="stroke:#181818;stroke-width:1.0;"/></g><!--SRC=[YovFJKeiAD3LqzFJBKajBYcELR2noKqiIyrJoCrFASr9jRDJKFR9JCyeSSefJUMAHYZ7LCWL3M613IlEp2q0Cg5cuZSKGniM3Lp8TiECrSlHjLD0TXCU9q3KObg5wYUzKkog0000]--></g></svg>