<?xml version="1.0" encoding="UTF-8" standalone="no"?><svg xmlns="http://www.w3.org/2000/svg" xmlns:xlink="http://www.w3.org/1999/xlink" contentScriptType="application/ecmascript" contentStyleType="text/css" height="889px" preserveAspectRatio="none" style="width:1204px;height:889px;" version="1.1" viewBox="0 0 1204 889" width="1204px" zoomAndPan="magnify"><defs><filter height="300%" id="f18ez2y4e7d4n7" width="300%" x="-1" y="-1"><feGaussianBlur result="blurOut" stdDeviation="2.0"/><feColorMatrix in="blurOut" result="blurOut2" type="matrix" values="0 0 0 0 0 0 0 0 0 0 0 0 0 0 0 0 0 0 .4 0"/><feOffset dx="4.0" dy="4.0" in="blurOut2" result="blurOut3"/><feBlend in="SourceGraphic" in2="blurOut3" mode="normal"/></filter></defs><g><!--MD5=[ea106891b45ca80f3b40e042460ac2e3]
cluster gradle--><rect fill="#FFFFFF" filter="url(#f18ez2y4e7d4n7)" height="184" style="stroke: #000000; stroke-width: 1.5;" width="411" x="108" y="250.5"/><rect fill="#FFFFFF" height="10" style="stroke: #000000; stroke-width: 1.5;" width="15" x="499" y="255.5"/><rect fill="#FFFFFF" height="2" style="stroke: #000000; stroke-width: 1.5;" width="4" x="497" y="257.5"/><rect fill="#FFFFFF" height="2" style="stroke: #000000; stroke-width: 1.5;" width="4" x="497" y="261.5"/><text fill="#000000" font-family="sans-serif" font-size="14" font-style="italic" lengthAdjust="spacingAndGlyphs" textLength="69" x="279" y="277.4999">«build.tool»</text><text fill="#000000" font-family="sans-serif" font-size="14" font-weight="bold" lengthAdjust="spacingAndGlyphs" textLength="43" x="292" y="294.2999">gradle</text><!--MD5=[3fb92fba1735106d511c1d05a9f83ed2]
cluster root--><polygon fill="#FFD700" filter="url(#f18ez2y4e7d4n7)" points="749,289.5,783,289.5,790,312.2999,1053,312.2999,1053,730.5,749,730.5,749,289.5" style="stroke: #000000; stroke-width: 1.5;"/><line style="stroke: #000000; stroke-width: 1.5;" x1="749" x2="790" y1="312.2999" y2="312.2999"/><text fill="#000000" font-family="sans-serif" font-size="14" font-weight="bold" lengthAdjust="spacingAndGlyphs" textLength="28" x="753" y="305.4999">root</text><!--MD5=[f28f95b14f0c83ad8c9a9e34ae6e57b1]
cluster NM--><polygon fill="#FFD700" filter="url(#f18ez2y4e7d4n7)" points="79,610.5,219,610.5,226,633.2999,329,633.2999,329,743.5,79,743.5,79,610.5" style="stroke: #000000; stroke-width: 1.5;"/><line style="stroke: #000000; stroke-width: 1.5;" x1="79" x2="226" y1="633.2999" y2="633.2999"/><text fill="#000000" font-family="sans-serif" font-size="14" font-weight="bold" lengthAdjust="spacingAndGlyphs" textLength="134" x="83" y="626.4999">root.node_modules</text><!--MD5=[d3f63dd2493a0d75452850aaedea626f]
entity KF--><rect fill="#FEFECE" filter="url(#f18ez2y4e7d4n7)" height="63.5999" style="stroke: #A80036; stroke-width: 1.5;" width="134" x="361" y="346.5"/><rect fill="#FEFECE" height="10" style="stroke: #A80036; stroke-width: 1.5;" width="15" x="475" y="351.5"/><rect fill="#FEFECE" height="2" style="stroke: #A80036; stroke-width: 1.5;" width="4" x="473" y="353.5"/><rect fill="#FEFECE" height="2" style="stroke: #A80036; stroke-width: 1.5;" width="4" x="473" y="357.5"/><text fill="#000000" font-family="sans-serif" font-size="14" font-style="italic" lengthAdjust="spacingAndGlyphs" textLength="94" x="376" y="380.4999">«gradle.plugin»</text><text fill="#000000" font-family="sans-serif" font-size="14" lengthAdjust="spacingAndGlyphs" textLength="87" x="379.5" y="397.2999">kotlinFrontend</text><!--MD5=[f2facf9cee52d933c99f4d69f0fb534a]
entity K2JS--><rect fill="#FEFECE" filter="url(#f18ez2y4e7d4n7)" height="63.5999" style="stroke: #A80036; stroke-width: 1.5;" width="111" x="229.5" y="346.5"/><rect fill="#FEFECE" height="10" style="stroke: #A80036; stroke-width: 1.5;" width="15" x="320.5" y="351.5"/><rect fill="#FEFECE" height="2" style="stroke: #A80036; stroke-width: 1.5;" width="4" x="318.5" y="353.5"/><rect fill="#FEFECE" height="2" style="stroke: #A80036; stroke-width: 1.5;" width="4" x="318.5" y="357.5"/><text fill="#000000" font-family="sans-serif" font-size="14" font-style="italic" lengthAdjust="spacingAndGlyphs" textLength="71" x="244.5" y="380.4999">«transpiler»</text><text fill="#000000" font-family="sans-serif" font-size="14" lengthAdjust="spacingAndGlyphs" textLength="50" x="255" y="397.2999">kotlin2js</text><!--MD5=[2a58a75ea05b7a5fb0834acae81f83e0]
entity DCE--><rect fill="#FEFECE" filter="url(#f18ez2y4e7d4n7)" height="46.7999" style="stroke: #A80036; stroke-width: 1.5;" width="69" x="140.5" y="355"/><rect fill="#FEFECE" height="10" style="stroke: #A80036; stroke-width: 1.5;" width="15" x="189.5" y="360"/><rect fill="#FEFECE" height="2" style="stroke: #A80036; stroke-width: 1.5;" width="4" x="187.5" y="362"/><rect fill="#FEFECE" height="2" style="stroke: #A80036; stroke-width: 1.5;" width="4" x="187.5" y="366"/><text fill="#000000" font-family="sans-serif" font-size="14" lengthAdjust="spacingAndGlyphs" textLength="29" x="155.5" y="388.9999">DCE</text><!--MD5=[a4439dd5eea49f958aa42ae95b9e5837]
entity GCFG--><rect fill="#FEFECE" filter="url(#f18ez2y4e7d4n7)" height="70.3998" style="stroke: #000000; stroke-width: 1.5;" width="124" x="765" y="343.5"/><text fill="#000000" font-family="sans-serif" font-size="14" lengthAdjust="spacingAndGlyphs" textLength="73" x="775" y="367.4999">build.gradle</text><text fill="#000000" font-family="sans-serif" font-size="14" lengthAdjust="spacingAndGlyphs" textLength="91" x="775" y="384.2999">settings.gradle</text><text fill="#000000" font-family="sans-serif" font-size="14" lengthAdjust="spacingAndGlyphs" textLength="104" x="775" y="401.0998">gradle.properties</text><!--MD5=[c17091bb9450719de56802ca6e5e1ef1]
entity KC--><rect fill="#FEFECE" filter="url(#f18ez2y4e7d4n7)" height="36.7999" style="stroke: #000000; stroke-width: 1.5;" width="103" x="765.5" y="677.5"/><text fill="#000000" font-family="sans-serif" font-size="14" lengthAdjust="spacingAndGlyphs" textLength="83" x="775.5" y="701.4999">karma.conf.js</text><!--MD5=[e4aaec21de269c7bd285ce6876c0ce8e]
entity PJ--><rect fill="#FEFECE" filter="url(#f18ez2y4e7d4n7)" height="36.7999" style="stroke: #000000; stroke-width: 1.5;" width="102" x="935" y="677.5"/><text fill="#000000" font-family="sans-serif" font-size="14" lengthAdjust="spacingAndGlyphs" textLength="82" x="945" y="701.4999">package.json</text><!--MD5=[1589b7aebea7faa6412065a7cb4c3aef]
entity root.build--><polygon fill="#FFD700" filter="url(#f18ez2y4e7d4n7)" points="166,518,238,518,245,540.7999,262,540.7999,262,557.7999,166,557.7999,166,518" style="stroke: #000000; stroke-width: 1.5;"/><line style="stroke: #000000; stroke-width: 1.5;" x1="166" x2="245" y1="540.7999" y2="540.7999"/><text fill="#000000" font-family="sans-serif" font-size="14" font-weight="bold" lengthAdjust="spacingAndGlyphs" textLength="66" x="170" y="534.9999">root.build</text><!--MD5=[7eb69e8c49b0f1a4682e6d31435646e4]
entity karma--><rect fill="#FEFECE" filter="url(#f18ez2y4e7d4n7)" height="46.7999" style="stroke: #A80036; stroke-width: 1.5;" width="79" x="110.5" y="672.5"/><rect fill="#FEFECE" height="10" style="stroke: #A80036; stroke-width: 1.5;" width="15" x="169.5" y="677.5"/><rect fill="#FEFECE" height="2" style="stroke: #A80036; stroke-width: 1.5;" width="4" x="167.5" y="679.5"/><rect fill="#FEFECE" height="2" style="stroke: #A80036; stroke-width: 1.5;" width="4" x="167.5" y="683.5"/><text fill="#000000" font-family="sans-serif" font-size="14" lengthAdjust="spacingAndGlyphs" textLength="39" x="125.5" y="706.4999">karma</text><!--MD5=[83d7c66368a3272c2ae5778d39252274]
entity webpack--><rect fill="#FEFECE" filter="url(#f18ez2y4e7d4n7)" height="46.7999" style="stroke: #A80036; stroke-width: 1.5;" width="95" x="209.5" y="672.5"/><rect fill="#FEFECE" height="10" style="stroke: #A80036; stroke-width: 1.5;" width="15" x="284.5" y="677.5"/><rect fill="#FEFECE" height="2" style="stroke: #A80036; stroke-width: 1.5;" width="4" x="282.5" y="679.5"/><rect fill="#FEFECE" height="2" style="stroke: #A80036; stroke-width: 1.5;" width="4" x="282.5" y="683.5"/><text fill="#000000" font-family="sans-serif" font-size="14" lengthAdjust="spacingAndGlyphs" textLength="55" x="224.5" y="706.4999">webpack</text><!--MD5=[42d6953858ce5900db35acbc378ad4b0]
entity NodeJS--><rect fill="#FEFECE" filter="url(#f18ez2y4e7d4n7)" height="46.7999" style="stroke: #A80036; stroke-width: 1.5;" width="88" x="207" y="47"/><rect fill="#FEFECE" height="10" style="stroke: #A80036; stroke-width: 1.5;" width="15" x="275" y="52"/><rect fill="#FEFECE" height="2" style="stroke: #A80036; stroke-width: 1.5;" width="4" x="273" y="54"/><rect fill="#FEFECE" height="2" style="stroke: #A80036; stroke-width: 1.5;" width="4" x="273" y="58"/><text fill="#000000" font-family="sans-serif" font-size="14" lengthAdjust="spacingAndGlyphs" textLength="48" x="222" y="80.9999">NodeJS</text><!--MD5=[e9dede37b31fdda9664526f66258b036]
entity Browser--><rect fill="#FEFECE" filter="url(#f18ez2y4e7d4n7)" height="46.7999" style="stroke: #A80036; stroke-width: 1.5;" width="90" x="105" y="823.5"/><rect fill="#FEFECE" height="10" style="stroke: #A80036; stroke-width: 1.5;" width="15" x="175" y="828.5"/><rect fill="#FEFECE" height="2" style="stroke: #A80036; stroke-width: 1.5;" width="4" x="173" y="830.5"/><rect fill="#FEFECE" height="2" style="stroke: #A80036; stroke-width: 1.5;" width="4" x="173" y="834.5"/><text fill="#000000" font-family="sans-serif" font-size="14" lengthAdjust="spacingAndGlyphs" textLength="50" x="120" y="857.4999">Browser</text><!--MD5=[f664b171d46fe37ddaaa8e800b616d7d]
entity DEV--><ellipse cx="154" cy="14" fill="#FEFECE" filter="url(#f18ez2y4e7d4n7)" rx="8" ry="8" style="stroke: #A80036; stroke-width: 1.5;"/><path d="M154,22 L154,49 M141,30 L167,30 M154,49 L141,64 M154,49 L167,64 " fill="none" filter="url(#f18ez2y4e7d4n7)" style="stroke: #A80036; stroke-width: 1.5;"/><text fill="#000000" font-family="sans-serif" font-size="14" lengthAdjust="spacingAndGlyphs" textLength="65" x="121.5" y="83.4999">Developer,</text><text fill="#000000" font-family="sans-serif" font-size="14" lengthAdjust="spacingAndGlyphs" textLength="40" x="121.5" y="100.2999">almost</text><text fill="#000000" font-family="sans-serif" font-size="14" lengthAdjust="spacingAndGlyphs" textLength="30" x="121.5" y="117.0998">gone</text><text fill="#000000" font-family="sans-serif" font-size="14" lengthAdjust="spacingAndGlyphs" textLength="48" x="121.5" y="133.8997">crazy;-)</text><ellipse cx="153.9171" cy="169.4834" fill="#FEFECE" filter="url(#f18ez2y4e7d4n7)" rx="67.9171" ry="15.9834" style="stroke: #A80036; stroke-width: 1.5;"/><text fill="#000000" font-family="sans-serif" font-size="14" lengthAdjust="spacingAndGlyphs" textLength="99" x="104.4171" y="174.3834">$ gradlew -t run</text><ellipse cx="519.8623" cy="537.8725" fill="#FEFECE" filter="url(#f18ez2y4e7d4n7)" rx="97.3623" ry="21.8725" style="stroke: #A80036; stroke-width: 1.5;"/><text fill="#000000" font-family="sans-serif" font-size="14" lengthAdjust="spacingAndGlyphs" textLength="169" x="435.3623" y="542.7724">$ npm install &lt;&gt; --save-dev</text><ellipse cx="54.9619" cy="537.8793" fill="#FEFECE" filter="url(#f18ez2y4e7d4n7)" rx="48.9619" ry="14.8793" style="stroke: #A80036; stroke-width: 1.5;"/><text fill="#000000" font-family="sans-serif" font-size="14" lengthAdjust="spacingAndGlyphs" textLength="65" x="22.4619" y="542.7793">$ npm test</text><!--MD5=[ff7a41c1395361ee029806f0eb7e0726]
entity npm--><rect fill="#FEFECE" filter="url(#f18ez2y4e7d4n7)" height="46.7999" style="stroke: #A80036; stroke-width: 1.5;" width="67" x="665.5" y="514.5"/><rect fill="#FEFECE" height="10" style="stroke: #A80036; stroke-width: 1.5;" width="15" x="712.5" y="519.5"/><rect fill="#FEFECE" height="2" style="stroke: #A80036; stroke-width: 1.5;" width="4" x="710.5" y="521.5"/><rect fill="#FEFECE" height="2" style="stroke: #A80036; stroke-width: 1.5;" width="4" x="710.5" y="525.5"/><text fill="#000000" font-family="sans-serif" font-size="14" lengthAdjust="spacingAndGlyphs" textLength="27" x="680.5" y="548.4999">npm</text><path d="M1069.5,683 L1069.5,692 L1037.26,696 L1069.5,700 L1069.5,708.6 A0,0 0 0 0 1069.5,708.6 L1192.5,708.6 A0,0 0 0 0 1192.5,708.6 L1192.5,693 L1182.5,683 L1069.5,683 A0,0 0 0 0 1069.5,683 " fill="#FBFB77" filter="url(#f18ez2y4e7d4n7)" style="stroke: #A80036; stroke-width: 1.0;"/><path d="M1182.5,683 L1182.5,693 L1192.5,693 L1182.5,683 " fill="#FBFB77" style="stroke: #A80036; stroke-width: 1.0;"/><text fill="#000000" font-family="sans-serif" font-size="13" lengthAdjust="spacingAndGlyphs" textLength="102" x="1075.5" y="701">package.json.lock</text><!--MD5=[c668cf785a96bc7a2782c7867237511f]
link GCFG to PJ--><!--MD5=[c657d0b6483e9c774ed213975b370d94]
link gradle to GCFG--><path d="M107.9079,348.595 C107.8682,348.4057 107.8286,348.2157 107.7891,348.0251 C107.7101,347.6439 107.6314,347.2602 107.5531,346.874 C107.3965,346.1017 107.2414,345.3197 107.0882,344.5285 C106.7818,342.946 106.4831,341.3267 106.195,339.6747 C105.0429,333.0666 104.0628,325.9353 103.4563,318.5463 C101.03,288.99 104.58,255.31 127,234.5 C211.36,156.18 529.89,233.61 645,233.5 C672.56,233.47 682.07,221.77 707,233.5 C752.84,255.07 787.17,303.69 807.12,338.69 " fill="none" id="gradle-&gt;GCFG" style="stroke: #A80036; stroke-width: 1.0; stroke-dasharray: 7.0,7.0;"/><polygon fill="#A80036" points="809.72,343.32,808.8214,333.5122,807.2809,338.9553,801.8378,337.4148,809.72,343.32" style="stroke: #A80036; stroke-width: 1.0;"/><text fill="#000000" font-family="sans-serif" font-size="13" lengthAdjust="spacingAndGlyphs" textLength="60" x="646" y="207.5">configured</text><text fill="#000000" font-family="sans-serif" font-size="13" lengthAdjust="spacingAndGlyphs" textLength="43" x="654.5" y="223.1">through</text><!--MD5=[0e6521e4d96fc5ccc0e6675c405928e0]
link gradle to webpack--><path d="M123.9988,434.7722 C124.0206,434.8961 124.0425,435.02 124.0645,435.1439 C124.1084,435.3917 124.1524,435.6394 124.1966,435.8871 C124.3732,436.8778 124.552,437.8674 124.7329,438.8546 C125.4566,442.8034 126.2138,446.7138 127,450.5 C137.36,500.43 121.4,524.05 156,561.5 C163.34,569.45 170.09,563.36 179,569.5 C190.95,577.73 191.72,582.58 200,594.5 C216.49,618.24 232.48,647.09 243.3,667.79 " fill="none" id="gradle-&gt;webpack" style="stroke: #A80036; stroke-width: 1.0;"/><polygon fill="#A80036" points="245.67,672.34,245.0467,662.5109,243.3542,667.9086,237.9565,666.2161,245.67,672.34" style="stroke: #A80036; stroke-width: 1.0;"/><!--MD5=[a464840e48eb4f66b3cec040cdcab49e]
link K2JS to root.build--><path d="M260.92,410.56 C249.5,423.96 235.07,439.12 220,450.5 C213.65,455.29 208.18,451.74 204,458.5 C193.99,474.7 197.75,496.38 203.31,512.85 " fill="none" id="K2JS-&gt;root.build" style="stroke: #A80036; stroke-width: 1.0;"/><polygon fill="#A80036" points="205.08,517.79,205.8162,507.9687,203.3965,513.0819,198.2833,510.6623,205.08,517.79" style="stroke: #A80036; stroke-width: 1.0;"/><text fill="#000000" font-family="sans-serif" font-size="13" lengthAdjust="spacingAndGlyphs" textLength="56" x="205" y="472.5">generates</text><ellipse cx="226.5" cy="483.2" fill="#000000" rx="2.5" ry="2.5" style="stroke: #000000; stroke-width: 0.0;"/><text fill="#000000" font-family="sans-serif" font-size="13" lengthAdjust="spacingAndGlyphs" textLength="12" x="233" y="488.1">.js</text><ellipse cx="211" cy="498.8" fill="#000000" rx="2.5" ry="2.5" style="stroke: #000000; stroke-width: 0.0;"/><text fill="#000000" font-family="sans-serif" font-size="13" lengthAdjust="spacingAndGlyphs" textLength="43" x="217.5" y="503.7">-tests.js</text><!--MD5=[0ccef5771aaf04055a305d067fe0eea8]
link KF to KC--><path d="M390.02,410.52 C362.79,435.38 328.32,472.9 313,514.5 C305.78,534.1 300.26,544.95 313,561.5 C367.74,632.62 640.09,673.66 760.08,688.55 " fill="none" id="KF-&gt;KC" style="stroke: #A80036; stroke-width: 1.0;"/><polygon fill="#A80036" points="765.33,689.2,756.8902,684.1236,760.368,688.5851,755.9064,692.0628,765.33,689.2" style="stroke: #A80036; stroke-width: 1.0;"/><text fill="#000000" font-family="sans-serif" font-size="13" lengthAdjust="spacingAndGlyphs" textLength="98" x="314" y="543.5">initially generates</text><!--MD5=[8d7e0dff31da885e72fdc85f04d79e62]
link KC to PJ--><path d="M868.62,696 C887.96,696 910.02,696 929.75,696 " fill="none" id="KC-&gt;PJ" style="stroke: #A80036; stroke-width: 1.0;"/><polygon fill="#A80036" points="934.98,696,925.98,692,929.98,696,925.98,700,934.98,696" style="stroke: #A80036; stroke-width: 1.0;"/><text fill="#000000" font-family="sans-serif" font-size="13" lengthAdjust="spacingAndGlyphs" textLength="45" x="879.25" y="690">requires</text><!--MD5=[c6bfe5db0d9522034a77668c71e39324]
link PJ to NM--><path d="M973.1,677.11 C955.24,652.85 920.47,611.92 879,595.5 C838.66,579.53 130.31,566.54 98,595.5 C94.0138,599.0738 90.8212,603.2225 88.2899,607.7585 C87.9735,608.3255 87.6674,608.8986 87.3714,609.4773 C87.2234,609.7667 87.0779,610.0575 86.9349,610.3496 " fill="none" id="PJ-&gt;NM" style="stroke: #A80036; stroke-width: 1.0;"/><polygon fill="#A80036" points="86.9349,610.3496,94.4843,604.0245,89.133,605.8587,87.2988,600.5075,86.9349,610.3496" style="stroke: #A80036; stroke-width: 1.0;"/><text fill="#000000" font-family="sans-serif" font-size="13" lengthAdjust="spacingAndGlyphs" textLength="41" x="135.5" y="583.5">adds to</text><!--MD5=[d4f15545423303776113a9574a096e5f]
link DEV to RUN--><path d="M154,136.74 C154,140.7 154,144.49 154,147.98 " fill="none" id="DEV-&gt;RUN" style="stroke: #A80036; stroke-width: 1.0;"/><polygon fill="#A80036" points="154,153.21,158,144.21,154,148.21,150,144.21,154,153.21" style="stroke: #A80036; stroke-width: 1.0;"/><!--MD5=[f3b0fd7d4b151759cb13e321df9d8a78]
link DEV to NI--><path d="M186.64,127.12 C189.87,130.55 193.33,133.73 197,136.5 C254.87,180.11 464,176.93 508,234.5 C571.51,317.6 543.54,454.29 527.93,511.04 " fill="none" id="DEV-&gt;NI" style="stroke: #A80036; stroke-width: 1.0;"/><polygon fill="#A80036" points="526.55,515.96,532.8419,508.3829,527.9066,511.1476,525.142,506.2123,526.55,515.96" style="stroke: #A80036; stroke-width: 1.0;"/><!--MD5=[b17037f98e12b29962cd7c1ac441a1f1]
link RUN to gradle--><path d="M146.01,185.54 C139.69,198.22 131.24,217.04 127,234.5 C126.0756,238.3113 125.2234,242.1948 124.4378,246.1273 C124.2414,247.1105 124.0492,248.0967 123.8611,249.0856 C123.8141,249.3328 123.7673,249.5802 123.7208,249.8277 " fill="none" id="RUN-&gt;gradle" style="stroke: #A80036; stroke-width: 1.0;"/><polygon fill="#A80036" points="123.7208,249.8277,129.3142,241.7213,124.6442,244.9138,121.4518,240.2438,123.7208,249.8277" style="stroke: #A80036; stroke-width: 1.0;"/><!--MD5=[ab89fc97919d97f1f5f6fb1ea42f9f2d]
link NI to npm--><path d="M617.62,538 C632.65,538 647.38,538 660.08,538 " fill="none" id="NI-&gt;npm" style="stroke: #A80036; stroke-width: 1.0; stroke-dasharray: 7.0,7.0;"/><polygon fill="#A80036" points="665.39,538,656.39,534,660.39,538,656.39,542,665.39,538" style="stroke: #A80036; stroke-width: 1.0;"/><text fill="#000000" font-family="sans-serif" font-size="13" lengthAdjust="spacingAndGlyphs" textLength="26" x="628.5" y="532">uses</text><!--MD5=[f85af7db3b42217e115ddf1011bcd57f]
link NI to PJ--><path d="M596.21,551.84 C615.69,555.06 636.61,558.46 656,561.5 C680.75,565.38 856.45,583.59 879,594.5 C917.17,612.96 950.92,649.88 969.87,673.46 " fill="none" id="NI-&gt;PJ" style="stroke: #A80036; stroke-width: 1.0;"/><polygon fill="#A80036" points="973.01,677.41,970.5581,667.8712,969.9058,673.4904,964.2866,672.838,973.01,677.41" style="stroke: #A80036; stroke-width: 1.0;"/><text fill="#000000" font-family="sans-serif" font-size="13" lengthAdjust="spacingAndGlyphs" textLength="45" x="846" y="583.5">updates</text><!--MD5=[20a9e19418e70fd4168eb3c6e1e94ca5]
link DEV to TEST--><path d="M121.28,96.23 C104.56,110.87 85.73,130.95 76,153.5 C20.18,282.78 42.17,459.75 51.57,517.75 " fill="none" id="DEV-&gt;TEST" style="stroke: #A80036; stroke-width: 1.0;"/><polygon fill="#A80036" points="52.44,522.98,54.9194,513.4483,51.625,518.0469,47.0264,514.7524,52.44,522.98" style="stroke: #A80036; stroke-width: 1.0;"/><!--MD5=[f1ad7c348f545d25b38a2b6484a9d476]
link TEST to npm--><path d="M87.9,526.68 C129.15,513.13 202.31,491.25 267,483 C318.32,476.45 358.27,457.86 628,514.5 C638.8,516.77 650.25,520.12 660.74,523.59 " fill="none" id="TEST-&gt;npm" style="stroke: #A80036; stroke-width: 1.0; stroke-dasharray: 7.0,7.0;"/><polygon fill="#A80036" points="665.48,525.18,658.2308,518.513,660.7423,523.5817,655.6736,526.0933,665.48,525.18" style="stroke: #A80036; stroke-width: 1.0;"/><text fill="#000000" font-family="sans-serif" font-size="13" lengthAdjust="spacingAndGlyphs" textLength="26" x="268" y="488">uses</text><!--MD5=[e70c9030adc7658768ddcf0fba065aeb]
link TEST to karma--><path d="M50.92,553.18 C48.85,563.64 48.18,577.56 56,586.5 C71.1,603.78 88.89,580.41 107,594.5 C129.7,612.16 140.59,644.13 145.7,667.27 " fill="none" id="TEST-&gt;karma" style="stroke: #A80036; stroke-width: 1.0;"/><polygon fill="#A80036" points="146.77,672.37,148.8358,662.7402,145.7428,667.4766,141.0064,664.3837,146.77,672.37" style="stroke: #A80036; stroke-width: 1.0;"/><text fill="#000000" font-family="sans-serif" font-size="13" lengthAdjust="spacingAndGlyphs" textLength="24" x="57" y="583.5">runs</text><!--MD5=[9ca04c15e2688d803d183f81b48772ee]
link karma to Browser--><path d="M150,719.63 C150,745.99 150,789.56 150,818.03 " fill="none" id="karma-&gt;Browser" style="stroke: #A80036; stroke-width: 1.0;"/><polygon fill="#A80036" points="150,823.16,154,814.16,150,818.16,146,814.16,150,823.16" style="stroke: #A80036; stroke-width: 1.0;"/><text fill="#000000" font-family="sans-serif" font-size="13" lengthAdjust="spacingAndGlyphs" textLength="45" x="164.5" y="781.5">displays</text><text fill="#000000" font-family="sans-serif" font-size="13" lengthAdjust="spacingAndGlyphs" textLength="61" x="156.5" y="797.1">test results</text><text fill="#000000" font-family="sans-serif" font-size="13" lengthAdjust="spacingAndGlyphs" textLength="72" x="151" y="812.7">via port 9876</text><!--MD5=[5ec5b17123ea8dbeeffacbeb8ba9a68a]
@startuml
skinparam nodesep 20
skinparam ranksep 5

top to bottom direction

component gradle <<build.tool>> {
    component kotlinFrontend <<gradle.plugin>> as KF
    component kotlin2js <<transpiler>> as K2JS
    component DCE
}


package root #gold {
    rectangle "build.gradle\nsettings.gradle\ngradle.properties" as GCFG
    rectangle karma.conf.js as KC
    rectangle package.json as PJ
    GCFG -[hidden]- -> PJ
}
package root.build  #gold {
}
package root.node_modules as NM #gold {
    component karma
    component webpack
}
component NodeJS
component Browser

gradle .> GCFG : configured\nthrough
gradle - -> webpack

K2JS - -> root.build : generates\n*.js\n*-tests.js
KF - -> KC : initially generates
KC -> PJ : requires
PJ -> NM : adds to

:Developer,\nalmost\ngone\ncrazy;-): as DEV
($ gradlew -t run) as RUN
($ npm install <> - -save-dev) as NI
($ npm test) as TEST

DEV - -> RUN
DEV - -> NI
RUN - -> gradle


component npm
NI .> npm : uses
NI -> PJ : updates


DEV - -> TEST
TEST .> npm : uses
TEST - -> karma : runs
karma - -> Browser : displays\ntest results\nvia port 9876

note left of PJ
package.json.lock
end note

@enduml

PlantUML version 1.2020.15(Sun Jun 28 11:39:45 GMT 2020)
(GPL source distribution)
Java Runtime: OpenJDK Runtime Environment
JVM: OpenJDK 64-Bit Server VM
Default Encoding: UTF-8
Language: en
Country: US
--></g></svg>