<?xml version="1.0" encoding="UTF-8" standalone="no"?><svg xmlns="http://www.w3.org/2000/svg" xmlns:xlink="http://www.w3.org/1999/xlink" contentScriptType="application/ecmascript" contentStyleType="text/css" height="1157px" preserveAspectRatio="none" style="width:860px;height:1157px;background:#FFFFFF;" version="1.1" viewBox="0 0 860 1157" width="860px" zoomAndPan="magnify"><defs><filter height="300%" id="f40sfysqlre7v" width="300%" x="-1" y="-1"><feGaussianBlur result="blurOut" stdDeviation="2.0"/><feColorMatrix in="blurOut" result="blurOut2" type="matrix" values="0 0 0 0 0 0 0 0 0 0 0 0 0 0 0 0 0 0 .4 0"/><feOffset dx="4.0" dy="4.0" in="blurOut2" result="blurOut3"/><feBlend in="SourceGraphic" in2="blurOut3" mode="normal"/></filter></defs><g><text fill="#000000" font-family="sans-serif" font-size="14" lengthAdjust="spacing" textLength="32" x="438.3333" y="575.1993">know</text><text fill="#000000" font-family="sans-serif" font-size="14" lengthAdjust="spacing" textLength="25" x="438.3333" y="591.9992">how</text><text fill="#000000" font-family="sans-serif" font-size="14" lengthAdjust="spacing" textLength="42" x="523.3333" y="205.9998">trouble</text><text fill="#000000" font-family="sans-serif" font-size="14" lengthAdjust="spacing" textLength="52" x="523.3333" y="222.7997">shooting</text><rect fill="#FEFECE" filter="url(#f40sfysqlre7v)" height="36.7999" rx="12.5" ry="12.5" style="stroke:#A80036;stroke-width:1.5;" width="60" x="625.3333" y="133.5999"/><text fill="#000000" font-family="sans-serif" font-size="14" lengthAdjust="spacing" textLength="40" x="635.3333" y="157.5998">CORS</text><path d="M575.3333,208.7997 L585.3333,208.7997 C600.3333,208.7997 600.3333,151.9998 615.3333,151.9998 L625.3333,151.9998 " fill="none" style="stroke:#A80036;stroke-width:1.0;"/><rect fill="#FEFECE" filter="url(#f40sfysqlre7v)" height="36.7999" rx="12.5" ry="12.5" style="stroke:#A80036;stroke-width:1.5;" width="107" x="625.3333" y="190.3998"/><text fill="#000000" font-family="sans-serif" font-size="14" lengthAdjust="spacing" textLength="87" x="635.3333" y="214.3997">Proxy settings</text><rect fill="#FEFECE" filter="url(#f40sfysqlre7v)" height="36.7999" rx="12.5" ry="12.5" style="stroke:#A80036;stroke-width:1.5;" width="47" x="782.3333" y="20"/><text fill="#000000" font-family="sans-serif" font-size="14" lengthAdjust="spacing" textLength="27" x="792.3333" y="43.9999">npm</text><path d="M732.3333,208.7997 L742.3333,208.7997 C757.3333,208.7997 757.3333,38.4 772.3333,38.4 L782.3333,38.4 " fill="none" style="stroke:#A80036;stroke-width:1.0;"/><rect fill="#FEFECE" filter="url(#f40sfysqlre7v)" height="36.7999" rx="12.5" ry="12.5" style="stroke:#A80036;stroke-width:1.5;" width="35" x="782.3333" y="76.7999"/><text fill="#000000" font-family="sans-serif" font-size="14" lengthAdjust="spacing" textLength="15" x="792.3333" y="100.7999">git</text><path d="M732.3333,208.7997 L742.3333,208.7997 C757.3333,208.7997 757.3333,95.1999 772.3333,95.1999 L782.3333,95.1999 " fill="none" style="stroke:#A80036;stroke-width:1.0;"/><rect fill="#FEFECE" filter="url(#f40sfysqlre7v)" height="36.7999" rx="12.5" ry="12.5" style="stroke:#A80036;stroke-width:1.5;" width="59" x="782.3333" y="133.5999"/><text fill="#000000" font-family="sans-serif" font-size="14" lengthAdjust="spacing" textLength="39" x="792.3333" y="157.5998">gradle</text><path d="M732.3333,208.7997 L742.3333,208.7997 C757.3333,208.7997 757.3333,151.9998 772.3333,151.9998 L782.3333,151.9998 " fill="none" style="stroke:#A80036;stroke-width:1.0;"/><rect fill="#FEFECE" filter="url(#f40sfysqlre7v)" height="36.7999" rx="12.5" ry="12.5" style="stroke:#A80036;stroke-width:1.5;" width="42" x="782.3333" y="190.3998"/><text fill="#000000" font-family="sans-serif" font-size="14" lengthAdjust="spacing" textLength="22" x="792.3333" y="214.3997">ssh</text><path d="M732.3333,208.7997 L742.3333,208.7997 C757.3333,208.7997 757.3333,208.7997 772.3333,208.7997 L782.3333,208.7997 " fill="none" style="stroke:#A80036;stroke-width:1.0;"/><rect fill="#FEFECE" filter="url(#f40sfysqlre7v)" height="36.7999" rx="12.5" ry="12.5" style="stroke:#A80036;stroke-width:1.5;" width="43" x="782.3333" y="247.1997"/><text fill="#000000" font-family="sans-serif" font-size="14" lengthAdjust="spacing" textLength="23" x="792.3333" y="271.1996">curl</text><path d="M732.3333,208.7997 L742.3333,208.7997 C757.3333,208.7997 757.3333,265.5997 772.3333,265.5997 L782.3333,265.5997 " fill="none" style="stroke:#A80036;stroke-width:1.0;"/><rect fill="#FEFECE" filter="url(#f40sfysqlre7v)" height="36.7999" rx="12.5" ry="12.5" style="stroke:#A80036;stroke-width:1.5;" width="48" x="782.3333" y="303.9996"/><text fill="#000000" font-family="sans-serif" font-size="14" lengthAdjust="spacing" textLength="28" x="792.3333" y="327.9996">yarn</text><path d="M732.3333,208.7997 L742.3333,208.7997 C757.3333,208.7997 757.3333,322.3996 772.3333,322.3996 L782.3333,322.3996 " fill="none" style="stroke:#A80036;stroke-width:1.0;"/><rect fill="#FEFECE" filter="url(#f40sfysqlre7v)" height="36.7999" rx="12.5" ry="12.5" style="stroke:#A80036;stroke-width:1.5;" width="46" x="782.3333" y="360.7996"/><text fill="#000000" font-family="sans-serif" font-size="14" lengthAdjust="spacing" textLength="26" x="792.3333" y="384.7995">mvn</text><path d="M732.3333,208.7997 L742.3333,208.7997 C757.3333,208.7997 757.3333,379.1995 772.3333,379.1995 L782.3333,379.1995 " fill="none" style="stroke:#A80036;stroke-width:1.0;"/><path d="M575.3333,208.7997 L585.3333,208.7997 C600.3333,208.7997 600.3333,208.7997 615.3333,208.7997 L625.3333,208.7997 " fill="none" style="stroke:#A80036;stroke-width:1.0;"/><path d="M470.3333,577.9993 L480.3333,577.9993 C495.3333,577.9993 495.3333,208.7997 510.3333,208.7997 L520.3333,208.7997 " fill="none" style="stroke:#A80036;stroke-width:1.0;"/><text fill="#000000" font-family="sans-serif" font-size="14" lengthAdjust="spacing" textLength="30" x="523.3333" y="583.5992">build</text><rect fill="#FEFECE" filter="url(#f40sfysqlre7v)" height="36.7999" rx="12.5" ry="12.5" style="stroke:#A80036;stroke-width:1.5;" width="66" x="603.3333" y="417.5995"/><text fill="#000000" font-family="sans-serif" font-size="14" lengthAdjust="spacing" textLength="46" x="613.3333" y="441.5994">Node.js</text><path d="M553.3333,577.9993 L563.3333,577.9993 C578.3333,577.9993 578.3333,435.9995 593.3333,435.9995 L603.3333,435.9995 " fill="none" style="stroke:#A80036;stroke-width:1.0;"/><rect fill="#FEFECE" filter="url(#f40sfysqlre7v)" height="36.7999" rx="12.5" ry="12.5" style="stroke:#A80036;stroke-width:1.5;" width="59" x="603.3333" y="474.3994"/><text fill="#000000" font-family="sans-serif" font-size="14" lengthAdjust="spacing" textLength="39" x="613.3333" y="498.3994">gradle</text><path d="M553.3333,577.9993 L563.3333,577.9993 C578.3333,577.9993 578.3333,492.7994 593.3333,492.7994 L603.3333,492.7994 " fill="none" style="stroke:#A80036;stroke-width:1.0;"/><rect fill="#FEFECE" filter="url(#f40sfysqlre7v)" height="36.7999" rx="12.5" ry="12.5" style="stroke:#A80036;stroke-width:1.5;" width="47" x="603.3333" y="531.1993"/><text fill="#000000" font-family="sans-serif" font-size="14" lengthAdjust="spacing" textLength="27" x="613.3333" y="555.1993">npm</text><path d="M553.3333,577.9993 L563.3333,577.9993 C578.3333,577.9993 578.3333,549.5993 593.3333,549.5993 L603.3333,549.5993 " fill="none" style="stroke:#A80036;stroke-width:1.0;"/><rect fill="#FEFECE" filter="url(#f40sfysqlre7v)" height="36.7999" rx="12.5" ry="12.5" style="stroke:#A80036;stroke-width:1.5;" width="50" x="603.3333" y="587.9993"/><text fill="#000000" font-family="sans-serif" font-size="14" lengthAdjust="spacing" textLength="30" x="613.3333" y="611.9992">Yarn</text><path d="M553.3333,577.9993 L563.3333,577.9993 C578.3333,577.9993 578.3333,606.3992 593.3333,606.3992 L603.3333,606.3992 " fill="none" style="stroke:#A80036;stroke-width:1.0;"/><rect fill="#FEFECE" filter="url(#f40sfysqlre7v)" height="36.7999" rx="12.5" ry="12.5" style="stroke:#A80036;stroke-width:1.5;" width="75" x="603.3333" y="644.7992"/><text fill="#000000" font-family="sans-serif" font-size="14" lengthAdjust="spacing" textLength="55" x="613.3333" y="668.7991">webpack</text><path d="M553.3333,577.9993 L563.3333,577.9993 C578.3333,577.9993 578.3333,663.1992 593.3333,663.1992 L603.3333,663.1992 " fill="none" style="stroke:#A80036;stroke-width:1.0;"/><rect fill="#FEFECE" filter="url(#f40sfysqlre7v)" height="36.7999" rx="12.5" ry="12.5" style="stroke:#A80036;stroke-width:1.5;" width="49" x="603.3333" y="701.5991"/><text fill="#000000" font-family="sans-serif" font-size="14" lengthAdjust="spacing" textLength="29" x="613.3333" y="725.5991">DCE</text><path d="M553.3333,577.9993 L563.3333,577.9993 C578.3333,577.9993 578.3333,719.9991 593.3333,719.9991 L603.3333,719.9991 " fill="none" style="stroke:#A80036;stroke-width:1.0;"/><path d="M470.3333,577.9993 L480.3333,577.9993 C495.3333,577.9993 495.3333,577.9993 510.3333,577.9993 L520.3333,577.9993 " fill="none" style="stroke:#A80036;stroke-width:1.0;"/><text fill="#000000" font-family="sans-serif" font-size="14" lengthAdjust="spacing" textLength="22" x="523.3333" y="952.7988">test</text><rect fill="#FEFECE" filter="url(#f40sfysqlre7v)" height="36.7999" rx="12.5" ry="12.5" style="stroke:#A80036;stroke-width:1.5;" width="61" x="595.3333" y="758.399"/><text fill="#000000" font-family="sans-serif" font-size="14" lengthAdjust="spacing" textLength="41" x="605.3333" y="782.399">Karma</text><path d="M545.3333,947.1988 L555.3333,947.1988 C570.3333,947.1988 570.3333,776.799 585.3333,776.799 L595.3333,776.799 " fill="none" style="stroke:#A80036;stroke-width:1.0;"/><rect fill="#FEFECE" filter="url(#f40sfysqlre7v)" height="36.7999" rx="12.5" ry="12.5" style="stroke:#A80036;stroke-width:1.5;" width="62" x="595.3333" y="815.199"/><text fill="#000000" font-family="sans-serif" font-size="14" lengthAdjust="spacing" text-decoration="wavy underline" textLength="42" x="605.3333" y="839.1989">Mocha</text><path d="M545.3333,947.1988 L555.3333,947.1988 C570.3333,947.1988 570.3333,833.5989 585.3333,833.5989 L595.3333,833.5989 " fill="none" style="stroke:#A80036;stroke-width:1.0;"/><rect fill="#FEFECE" filter="url(#f40sfysqlre7v)" height="36.7999" rx="12.5" ry="12.5" style="stroke:#A80036;stroke-width:1.5;" width="125" x="595.3333" y="871.9989"/><text fill="#000000" font-family="sans-serif" font-size="14" lengthAdjust="spacing" textLength="105" x="605.3333" y="895.9988">ChromeHeadless</text><path d="M545.3333,947.1988 L555.3333,947.1988 C570.3333,947.1988 570.3333,890.3989 585.3333,890.3989 L595.3333,890.3989 " fill="none" style="stroke:#A80036;stroke-width:1.0;"/><rect fill="#FEFECE" filter="url(#f40sfysqlre7v)" height="36.7999" rx="12.5" ry="12.5" style="stroke:#A80036;stroke-width:1.5;" width="51" x="595.3333" y="928.7988"/><text fill="#000000" font-family="sans-serif" font-size="14" lengthAdjust="spacing" textLength="31" x="605.3333" y="952.7988">qunit</text><path d="M545.3333,947.1988 L555.3333,947.1988 C570.3333,947.1988 570.3333,947.1988 585.3333,947.1988 L595.3333,947.1988 " fill="none" style="stroke:#A80036;stroke-width:1.0;"/><rect fill="#FEFECE" filter="url(#f40sfysqlre7v)" height="36.7999" rx="12.5" ry="12.5" style="stroke:#A80036;stroke-width:1.5;" width="91" x="595.3333" y="985.5988"/><text fill="#000000" font-family="sans-serif" font-size="14" lengthAdjust="spacing" textLength="71" x="605.3333" y="1009.5987">PhantomJS</text><path d="M545.3333,947.1988 L555.3333,947.1988 C570.3333,947.1988 570.3333,1003.9987 585.3333,1003.9987 L595.3333,1003.9987 " fill="none" style="stroke:#A80036;stroke-width:1.0;"/><rect fill="#FEFECE" filter="url(#f40sfysqlre7v)" height="36.7999" rx="12.5" ry="12.5" style="stroke:#A80036;stroke-width:1.5;" width="76" x="595.3333" y="1070.7986"/><text fill="#000000" font-family="sans-serif" font-size="14" lengthAdjust="spacing" textLength="56" x="605.3333" y="1094.7986">coverage</text><rect fill="#FEFECE" filter="url(#f40sfysqlre7v)" height="36.7999" rx="12.5" ry="12.5" style="stroke:#A80036;stroke-width:1.5;" width="69" x="721.3333" y="1042.3987"/><text fill="#000000" font-family="sans-serif" font-size="14" lengthAdjust="spacing" textLength="49" x="731.3333" y="1066.3986">istanbul</text><path d="M671.3333,1089.1986 L681.3333,1089.1986 C696.3333,1089.1986 696.3333,1060.7986 711.3333,1060.7986 L721.3333,1060.7986 " fill="none" style="stroke:#A80036;stroke-width:1.0;"/><rect fill="#FEFECE" filter="url(#f40sfysqlre7v)" height="36.7999" rx="12.5" ry="12.5" style="stroke:#A80036;stroke-width:1.5;" width="42" x="721.3333" y="1099.1986"/><text fill="#000000" font-family="sans-serif" font-size="14" lengthAdjust="spacing" textLength="22" x="731.3333" y="1123.1985">nyc</text><path d="M671.3333,1089.1986 L681.3333,1089.1986 C696.3333,1089.1986 696.3333,1117.5986 711.3333,1117.5986 L721.3333,1117.5986 " fill="none" style="stroke:#A80036;stroke-width:1.0;"/><path d="M545.3333,947.1988 L555.3333,947.1988 C570.3333,947.1988 570.3333,1089.1986 585.3333,1089.1986 L595.3333,1089.1986 " fill="none" style="stroke:#A80036;stroke-width:1.0;"/><path d="M470.3333,577.9993 L480.3333,577.9993 C495.3333,577.9993 495.3333,947.1988 510.3333,947.1988 L520.3333,947.1988 " fill="none" style="stroke:#A80036;stroke-width:1.0;"/><text fill="#000000" font-family="sans-serif" font-size="14" lengthAdjust="spacing" textLength="40" x="342.3333" y="299.5996">basics</text><rect fill="#FEFECE" filter="url(#f40sfysqlre7v)" height="36.7999" rx="12.5" ry="12.5" style="stroke:#A80036;stroke-width:1.5;" width="59" x="233.3333" y="218.7997"/><text fill="#000000" font-family="sans-serif" font-size="14" lengthAdjust="spacing" textLength="39" x="243.3333" y="242.7997">HTML</text><path d="M342.3333,293.9996 L332.3333,293.9996 C317.3333,293.9996 317.3333,237.1997 302.3333,237.1997 L292.3333,237.1997 " fill="none" style="stroke:#A80036;stroke-width:1.0;"/><rect fill="#FEFECE" filter="url(#f40sfysqlre7v)" height="36.7999" rx="12.5" ry="12.5" style="stroke:#A80036;stroke-width:1.5;" width="48" x="244.3333" y="275.5997"/><text fill="#000000" font-family="sans-serif" font-size="14" lengthAdjust="spacing" textLength="28" x="254.3333" y="299.5996">CSS</text><rect fill="#FEFECE" filter="url(#f40sfysqlre7v)" height="36.7999" rx="12.5" ry="12.5" style="stroke:#A80036;stroke-width:1.5;" width="67" x="127.3333" y="275.5997"/><text fill="#000000" font-family="sans-serif" font-size="14" lengthAdjust="spacing" textLength="47" x="137.3333" y="299.5996">Flexbox</text><path d="M244.3333,293.9996 L234.3333,293.9996 C219.3333,293.9996 219.3333,293.9996 204.3333,293.9996 L194.3333,293.9996 " fill="none" style="stroke:#A80036;stroke-width:1.0;"/><path d="M342.3333,293.9996 L332.3333,293.9996 C317.3333,293.9996 317.3333,293.9996 302.3333,293.9996 L292.3333,293.9996 " fill="none" style="stroke:#A80036;stroke-width:1.0;"/><rect fill="#FEFECE" filter="url(#f40sfysqlre7v)" height="36.7999" rx="12.5" ry="12.5" style="stroke:#A80036;stroke-width:1.5;" width="97.3333" x="195" y="332.3996"/><path d="M209.5,346.3662 C208.8583,346.3662 208.3333,346.8912 208.3333,347.5329 L208.3333,353.9495 C208.3333,354.2762 208.0767,354.5329 207.75,354.5329 C207.4233,354.5329 207.1667,354.2762 207.1667,353.9495 L207.1667,352.1995 L206,352.1995 L206,354.5329 C206,355.1745 206.525,355.6995 207.1667,355.6995 L213,355.6995 C213.6417,355.6995 214.1667,355.1745 214.1667,354.5329 L214.1667,351.0329 L209.5,351.0329 L209.5,348.1162 C209.5,347.7895 209.7567,347.5329 210.0833,347.5329 C210.41,347.5329 210.6667,347.7895 210.6667,348.1162 L210.6667,349.8662 L215.3333,349.8662 L215.3333,347.5329 C215.3333,346.8912 214.8083,346.3662 214.1667,346.3662 L209.5,346.3662 " fill="#000000" style="stroke:;stroke-width:0.0;stroke-dasharray:;"/><text fill="#000000" font-family="sans-serif" font-size="14" lengthAdjust="spacing" textLength="66" x="216.3333" y="356.3995">JavaScript</text><path d="M342.3333,293.9996 L332.3333,293.9996 C317.3333,293.9996 317.3333,350.7996 302.3333,350.7996 L292.3333,350.7996 " fill="none" style="stroke:#A80036;stroke-width:1.0;"/><path d="M435.3333,577.9993 L425.3333,577.9993 C410.3333,577.9993 410.3333,293.9996 395.3333,293.9996 L385.3333,293.9996 " fill="none" style="stroke:#A80036;stroke-width:1.0;"/><text fill="#000000" font-family="sans-serif" font-size="14" lengthAdjust="spacing" textLength="29" x="353.3333" y="611.9992">code</text><rect fill="#FEFECE" filter="url(#f40sfysqlre7v)" height="36.7999" rx="12.5" ry="12.5" style="stroke:#A80036;stroke-width:1.5;" width="65.3333" x="238" y="531.1993"/><text fill="#000000" font-family="sans-serif" font-size="14" lengthAdjust="spacing" textLength="34" x="248" y="555.1993">Kotlin</text><path d="M287.6667,545.1659 L286.5,548.6659 L283,548.6659 L285.9167,550.9993 L284.75,554.4993 L287.6667,552.1659 L290.5833,554.4993 L289.4167,550.9993 L292.3333,548.6659 L288.8333,548.6659 L287.6667,545.1659 " fill="#000000" style="stroke:;stroke-width:0.0;stroke-dasharray:;"/><rect fill="#FEFECE" filter="url(#f40sfysqlre7v)" height="36.7999" rx="12.5" ry="12.5" style="stroke:#A80036;stroke-width:1.5;" width="89" x="99" y="389.1995"/><text fill="#000000" font-family="sans-serif" font-size="14" lengthAdjust="spacing" textLength="69" x="109" y="413.1995">constructor</text><path d="M238,549.5993 L228,549.5993 C213,549.5993 213,407.5995 198,407.5995 L188,407.5995 " fill="none" style="stroke:#A80036;stroke-width:1.0;"/><rect fill="#FEFECE" filter="url(#f40sfysqlre7v)" height="36.7999" rx="12.5" ry="12.5" style="stroke:#A80036;stroke-width:1.5;" width="178" x="10" y="445.9995"/><text fill="#000000" font-family="sans-serif" font-size="14" lengthAdjust="spacing" textLength="158" x="20" y="469.9994">default/named arguments</text><path d="M238,549.5993 L228,549.5993 C213,549.5993 213,464.3994 198,464.3994 L188,464.3994 " fill="none" style="stroke:#A80036;stroke-width:1.0;"/><rect fill="#FEFECE" filter="url(#f40sfysqlre7v)" height="36.7999" rx="12.5" ry="12.5" style="stroke:#A80036;stroke-width:1.5;" width="138" x="50" y="502.7994"/><text fill="#000000" font-family="sans-serif" font-size="14" lengthAdjust="spacing" textLength="118" x="60" y="526.7993">extension functions</text><path d="M238,549.5993 L228,549.5993 C213,549.5993 213,521.1993 198,521.1993 L188,521.1993 " fill="none" style="stroke:#A80036;stroke-width:1.0;"/><rect fill="#FEFECE" filter="url(#f40sfysqlre7v)" height="36.7999" rx="12.5" ry="12.5" style="stroke:#A80036;stroke-width:1.5;" width="127" x="61" y="559.5993"/><text fill="#000000" font-family="sans-serif" font-size="14" lengthAdjust="spacing" textLength="107" x="71" y="583.5992">companion object</text><path d="M238,549.5993 L228,549.5993 C213,549.5993 213,577.9993 198,577.9993 L188,577.9993 " fill="none" style="stroke:#A80036;stroke-width:1.0;"/><rect fill="#FEFECE" filter="url(#f40sfysqlre7v)" height="36.7999" rx="12.5" ry="12.5" style="stroke:#A80036;stroke-width:1.5;" width="97" x="91" y="616.3992"/><text fill="#000000" font-family="sans-serif" font-size="14" lengthAdjust="spacing" textLength="77" x="101" y="640.3992">mutable lists</text><path d="M238,549.5993 L228,549.5993 C213,549.5993 213,634.7992 198,634.7992 L188,634.7992 " fill="none" style="stroke:#A80036;stroke-width:1.0;"/><rect fill="#FEFECE" filter="url(#f40sfysqlre7v)" height="36.7999" rx="12.5" ry="12.5" style="stroke:#A80036;stroke-width:1.5;" width="38" x="150" y="673.1992"/><text fill="#000000" font-family="sans-serif" font-size="14" lengthAdjust="spacing" textLength="18" x="160" y="697.1991">init</text><path d="M238,549.5993 L228,549.5993 C213,549.5993 213,691.5991 198,691.5991 L188,691.5991 " fill="none" style="stroke:#A80036;stroke-width:1.0;"/><path d="M353.3333,606.3992 L343.3333,606.3992 C328.3333,606.3992 328.3333,549.5993 313.3333,549.5993 L303.3333,549.5993 " fill="none" style="stroke:#A80036;stroke-width:1.0;"/><rect fill="#FEFECE" filter="url(#f40sfysqlre7v)" height="36.7999" rx="12.5" ry="12.5" style="stroke:#A80036;stroke-width:1.5;" width="66" x="237.3333" y="587.9993"/><text fill="#000000" font-family="sans-serif" font-size="14" lengthAdjust="spacing" textLength="46" x="247.3333" y="611.9992">KVision</text><path d="M353.3333,606.3992 L343.3333,606.3992 C328.3333,606.3992 328.3333,606.3992 313.3333,606.3992 L303.3333,606.3992 " fill="none" style="stroke:#A80036;stroke-width:1.0;"/><rect fill="#FEFECE" filter="url(#f40sfysqlre7v)" height="36.7999" rx="12.5" ry="12.5" style="stroke:#A80036;stroke-width:1.5;" width="80" x="223.3333" y="729.9991"/><text fill="#000000" font-family="sans-serif" font-size="14" lengthAdjust="spacing" textLength="60" x="233.3333" y="753.999">Tabulator</text><path d="M353.3333,606.3992 L343.3333,606.3992 C328.3333,606.3992 328.3333,748.399 313.3333,748.399 L303.3333,748.399 " fill="none" style="stroke:#A80036;stroke-width:1.0;"/><rect fill="#FEFECE" filter="url(#f40sfysqlre7v)" height="36.7999" rx="12.5" ry="12.5" style="stroke:#A80036;stroke-width:1.5;" width="136" x="167.3333" y="786.799"/><text fill="#000000" font-family="sans-serif" font-size="14" lengthAdjust="spacing" textLength="116" x="177.3333" y="810.799">kotlinx.serialization</text><path d="M353.3333,606.3992 L343.3333,606.3992 C328.3333,606.3992 328.3333,805.199 313.3333,805.199 L303.3333,805.199 " fill="none" style="stroke:#A80036;stroke-width:1.0;"/><path d="M435.3333,577.9993 L425.3333,577.9993 C410.3333,577.9993 410.3333,606.3992 395.3333,606.3992 L385.3333,606.3992 " fill="none" style="stroke:#A80036;stroke-width:1.0;"/><path d="M337.0833,885.9655 C335.695,885.9655 334.7733,887.9372 335.695,888.8822 C335.59,888.9638 335.4617,889.0455 335.3683,889.1388 L333.84,888.3688 A0.5833,0.5833 0 0 0 333.4433,888.2988 A0.5833,0.5833 0 0 0 333.3383,889.3955 L334.6917,890.0488 C334.5867,890.2355 334.47,890.4338 334.4,890.6322 L333.595,890.6322 A0.5833,0.5833 0 0 0 333.49,890.6322 A0.5833,0.5833 0 1 0 333.595,891.7988 L334.1783,891.7988 C334.1783,892.0672 334.2017,892.3238 334.2483,892.5688 L333.3383,893.0472 A0.5833,0.5833 0 1 0 333.8517,894.0738 L334.6217,893.6772 C334.9133,894.2138 335.345,894.6688 335.8233,894.9488 C336.2317,894.7272 336.5117,894.4355 336.5117,894.1088 L336.5117,892.4288 A0.5833,0.5833 0 0 0 336.5117,892.3238 L336.5117,891.3788 A0.5833,0.5833 0 0 0 336.5117,891.1222 C336.57,890.8538 336.815,890.6438 337.095,890.6438 C337.4217,890.6438 337.6783,890.9005 337.6783,891.2272 L337.6783,892.2538 A0.5833,0.5833 0 0 0 337.6783,892.3588 L337.6783,892.4288 A0.5833,0.5833 0 0 0 337.6783,892.5338 L337.6783,894.0972 C337.6783,894.4122 337.9583,894.7155 338.3667,894.9372 C338.845,894.6455 339.2883,894.2022 339.5683,893.6655 L340.3383,894.0622 A0.5833,0.5833 0 1 0 340.8517,893.0355 L339.9417,892.5572 C339.9883,892.3122 340.0117,892.0555 340.0117,891.7872 L340.595,891.7872 A0.5833,0.5833 0 1 0 340.595,890.6205 L339.79,890.6205 C339.72,890.4222 339.6033,890.2238 339.4983,890.0372 L340.8517,889.3838 A0.5833,0.5833 0 0 0 340.49,888.2872 A0.5833,0.5833 0 0 0 340.3383,888.3572 L338.81,889.1272 C338.705,889.0338 338.5883,888.9522 338.4833,888.8705 C339.3933,887.9022 338.4833,885.9538 337.095,885.9538 " fill="#000000" style="stroke:;stroke-width:0.0;stroke-dasharray:;"/><text fill="#000000" font-family="sans-serif" font-size="14" lengthAdjust="spacing" textLength="39" x="343.3333" y="895.9988">debug</text><rect fill="#FEFECE" filter="url(#f40sfysqlre7v)" height="36.7999" rx="12.5" ry="12.5" style="stroke:#A80036;stroke-width:1.5;" width="68" x="214" y="843.5989"/><text fill="#000000" font-family="sans-serif" font-size="14" lengthAdjust="spacing" textLength="48" x="224" y="867.5989">Chrome</text><rect fill="#FEFECE" filter="url(#f40sfysqlre7v)" height="36.7999" rx="12.5" ry="12.5" style="stroke:#A80036;stroke-width:1.5;" width="66" x="98" y="843.5989"/><text fill="#000000" font-family="sans-serif" font-size="14" lengthAdjust="spacing" textLength="46" x="108" y="867.5989">Plugins</text><path d="M214,861.9989 L204,861.9989 C189,861.9989 189,861.9989 174,861.9989 L164,861.9989 " fill="none" style="stroke:#A80036;stroke-width:1.0;"/><path d="M332,890.3989 L322,890.3989 C307,890.3989 307,861.9989 292,861.9989 L282,861.9989 " fill="none" style="stroke:#A80036;stroke-width:1.0;"/><rect fill="#FEFECE" filter="url(#f40sfysqlre7v)" height="36.7999" rx="12.5" ry="12.5" style="stroke:#A80036;stroke-width:1.5;" width="86" x="196" y="900.3989"/><text fill="#000000" font-family="sans-serif" font-size="14" lengthAdjust="spacing" textLength="66" x="206" y="924.3988">JavaScript</text><path d="M332,890.3989 L322,890.3989 C307,890.3989 307,918.7988 292,918.7988 L282,918.7988 " fill="none" style="stroke:#A80036;stroke-width:1.0;"/><path d="M435.3333,577.9993 L425.3333,577.9993 C410.3333,577.9993 410.3333,890.3989 395.3333,890.3989 L385.3333,890.3989 " fill="none" style="stroke:#A80036;stroke-width:1.0;"/><!--MD5=[d6ff8034b4ce33f956979441a53d3720]
@startmindmap
+_ know\nhow
- -_ basics
- - - HTML
- - - CSS
- - - - Flexbox
- - - <&script>JavaScript
- -_ code
- - - Kotlin<&star>
- - - - constructor
- - - - default/named arguments
- - - - extension functions
- - - - companion object
- - - - mutable lists
- - - - init
- - - KVision
- - - Tabulator
- - - kotlinx.serialization
++_ trouble\nshooting
+++ <&exclamation>CORS
+++ <&exclamation>Proxy settings
++++ npm
++++ git
++++ gradle
++++ ssh
++++ curl
++++ yarn
++++ mvn
++_ build
+++ Node.js
+++ gradle
+++ npm
+++ Yarn
+++ webpack
+++ DCE

++_ test
+++ Karma
+++ ~~Mocha~~
+++ ChromeHeadless
+++ qunit
+++ PhantomJS
+++ coverage
++++ istanbul
++++ nyc
- -_ <&bug>debug
- - - Chrome
- - - - Plugins
- - - JavaScript
@endmindmap

PlantUML version 1.2021.8(Sat Jun 26 08:20:59 GMT 2021)
(GPL source distribution)
Java Runtime: OpenJDK Runtime Environment
JVM: OpenJDK 64-Bit Server VM
Default Encoding: UTF-8
Language: en
Country: US
--></g></svg>