<?xml version="1.0" encoding="UTF-8" standalone="no"?><svg xmlns="http://www.w3.org/2000/svg" xmlns:xlink="http://www.w3.org/1999/xlink" contentScriptType="application/ecmascript" contentStyleType="text/css" height="1015px" preserveAspectRatio="none" style="width:1246px;height:1015px;" version="1.1" viewBox="0 0 1246 1015" width="1246px" zoomAndPan="magnify"><defs><filter height="300%" id="ftj7wtdgyc8tf" width="300%" x="-1" y="-1"><feGaussianBlur result="blurOut" stdDeviation="2.0"/><feColorMatrix in="blurOut" result="blurOut2" type="matrix" values="0 0 0 0 0 0 0 0 0 0 0 0 0 0 0 0 0 0 .4 0"/><feOffset dx="4.0" dy="4.0" in="blurOut2" result="blurOut3"/><feBlend in="SourceGraphic" in2="blurOut3" mode="normal"/></filter></defs><g><rect fill="#FFFFFF" filter="url(#ftj7wtdgyc8tf)" height="161.0001" style="stroke: #A80036; stroke-width: 1.0;" width="10" x="547" y="209.2"/><rect fill="#FFFFFF" filter="url(#ftj7wtdgyc8tf)" height="512.6002" style="stroke: #A80036; stroke-width: 1.0;" width="10" x="851.5" y="370.2001"/><rect fill="#FFFFFF" filter="url(#ftj7wtdgyc8tf)" height="64.2" style="stroke: #A80036; stroke-width: 1.0;" width="10" x="856.5" y="407.8001"/><rect fill="#FFFFFF" filter="url(#ftj7wtdgyc8tf)" height="153.0001" style="stroke: #A80036; stroke-width: 1.0;" width="10" x="856.5" y="509.6001"/><rect fill="#FFFFFF" filter="url(#ftj7wtdgyc8tf)" height="123.4001" style="stroke: #A80036; stroke-width: 1.0;" width="10" x="856.5" y="700.2002"/><line style="stroke: #A80036; stroke-width: 1.0; stroke-dasharray: 5.0,5.0;" x1="22" x2="22" y1="88.7999" y2="930.4003"/><line style="stroke: #A80036; stroke-width: 1.0; stroke-dasharray: 5.0,5.0;" x1="103" x2="103" y1="88.7999" y2="930.4003"/><line style="stroke: #A80036; stroke-width: 1.0; stroke-dasharray: 5.0,5.0;" x1="225" x2="225" y1="88.7999" y2="930.4003"/><line style="stroke: #A80036; stroke-width: 1.0; stroke-dasharray: 5.0,5.0;" x1="384.5" x2="384.5" y1="88.7999" y2="930.4003"/><line style="stroke: #A80036; stroke-width: 1.0; stroke-dasharray: 5.0,5.0;" x1="551.5" x2="551.5" y1="88.7999" y2="930.4003"/><line style="stroke: #A80036; stroke-width: 1.0; stroke-dasharray: 5.0,5.0;" x1="713.5" x2="713.5" y1="88.7999" y2="930.4003"/><line style="stroke: #A80036; stroke-width: 1.0; stroke-dasharray: 5.0,5.0;" x1="856.5" x2="856.5" y1="88.7999" y2="930.4003"/><line style="stroke: #A80036; stroke-width: 1.0; stroke-dasharray: 5.0,5.0;" x1="1042" x2="1042" y1="88.7999" y2="930.4003"/><line style="stroke: #A80036; stroke-width: 1.0; stroke-dasharray: 5.0,5.0;" x1="1177" x2="1177" y1="88.7999" y2="930.4003"/><text fill="#000000" font-family="sans-serif" font-size="14" lengthAdjust="spacingAndGlyphs" textLength="29" x="5" y="85.9999">User</text><ellipse cx="22.5" cy="15" fill="#FEFECE" filter="url(#ftj7wtdgyc8tf)" rx="8" ry="8" style="stroke: #A80036; stroke-width: 2.0;"/><path d="M22.5,23 L22.5,50 M9.5,31 L35.5,31 M22.5,50 L9.5,65 M22.5,50 L35.5,65 " fill="none" filter="url(#ftj7wtdgyc8tf)" style="stroke: #A80036; stroke-width: 2.0;"/><text fill="#000000" font-family="sans-serif" font-size="14" lengthAdjust="spacingAndGlyphs" textLength="29" x="5" y="943.4002">User</text><ellipse cx="22.5" cy="956.2002" fill="#FEFECE" filter="url(#ftj7wtdgyc8tf)" rx="8" ry="8" style="stroke: #A80036; stroke-width: 2.0;"/><path d="M22.5,964.2002 L22.5,991.2002 M9.5,972.2002 L35.5,972.2002 M22.5,991.2002 L9.5,1006.2002 M22.5,991.2002 L35.5,1006.2002 " fill="none" filter="url(#ftj7wtdgyc8tf)" style="stroke: #A80036; stroke-width: 2.0;"/><rect fill="#FEFECE" filter="url(#ftj7wtdgyc8tf)" height="47.5999" style="stroke: #A80036; stroke-width: 1.5;" width="103" x="50" y="36.2001"/><text fill="#000000" font-family="sans-serif" font-size="14" lengthAdjust="spacingAndGlyphs" textLength="89" x="57" y="57.2">&lt;&lt;Singleton&gt;&gt;</text><text fill="#000000" font-family="sans-serif" font-size="14" lengthAdjust="spacingAndGlyphs" textLength="74" x="64.5" y="73.9999">UI Manager</text><rect fill="#FEFECE" filter="url(#ftj7wtdgyc8tf)" height="47.5999" style="stroke: #A80036; stroke-width: 1.5;" width="103" x="50" y="929.4003"/><text fill="#000000" font-family="sans-serif" font-size="14" lengthAdjust="spacingAndGlyphs" textLength="89" x="57" y="950.4002">&lt;&lt;Singleton&gt;&gt;</text><text fill="#000000" font-family="sans-serif" font-size="14" lengthAdjust="spacingAndGlyphs" textLength="74" x="64.5" y="967.2001">UI Manager</text><rect fill="#ADD8E6" filter="url(#ftj7wtdgyc8tf)" height="47.5999" style="stroke: #A80036; stroke-width: 1.5;" width="113" x="167" y="36.2001"/><text fill="#000000" font-family="sans-serif" font-size="14" lengthAdjust="spacingAndGlyphs" textLength="99" x="174" y="57.2">&lt;&lt;description&gt;&gt;</text><text fill="#000000" font-family="sans-serif" font-size="14" lengthAdjust="spacingAndGlyphs" textLength="26" x="210.5" y="73.9999">Link</text><rect fill="#ADD8E6" filter="url(#ftj7wtdgyc8tf)" height="47.5999" style="stroke: #A80036; stroke-width: 1.5;" width="113" x="167" y="929.4003"/><text fill="#000000" font-family="sans-serif" font-size="14" lengthAdjust="spacingAndGlyphs" textLength="99" x="174" y="950.4002">&lt;&lt;description&gt;&gt;</text><text fill="#000000" font-family="sans-serif" font-size="14" lengthAdjust="spacingAndGlyphs" textLength="26" x="210.5" y="967.2001">Link</text><rect fill="#FEFECE" filter="url(#ftj7wtdgyc8tf)" height="30.7999" style="stroke: #A80036; stroke-width: 1.5;" width="124" x="320.5" y="53"/><text fill="#000000" font-family="sans-serif" font-size="14" lengthAdjust="spacingAndGlyphs" textLength="110" x="327.5" y="73.9999">(Xml)HttpRequest</text><rect fill="#FEFECE" filter="url(#ftj7wtdgyc8tf)" height="30.7999" style="stroke: #A80036; stroke-width: 1.5;" width="124" x="320.5" y="929.4003"/><text fill="#000000" font-family="sans-serif" font-size="14" lengthAdjust="spacingAndGlyphs" textLength="110" x="327.5" y="950.4002">(Xml)HttpRequest</text><rect fill="#FEFECE" filter="url(#ftj7wtdgyc8tf)" height="47.5999" style="stroke: #A80036; stroke-width: 1.5;" width="183" x="458.5" y="36.2001"/><text fill="#000000" font-family="sans-serif" font-size="14" lengthAdjust="spacingAndGlyphs" textLength="169" x="465.5" y="57.2">&lt;&lt;ChainOfResponsibility&gt;&gt;</text><text fill="#000000" font-family="sans-serif" font-size="14" lengthAdjust="spacingAndGlyphs" textLength="110" x="495" y="73.9999">ResponseHandler</text><rect fill="#FEFECE" filter="url(#ftj7wtdgyc8tf)" height="47.5999" style="stroke: #A80036; stroke-width: 1.5;" width="183" x="458.5" y="929.4003"/><text fill="#000000" font-family="sans-serif" font-size="14" lengthAdjust="spacingAndGlyphs" textLength="169" x="465.5" y="950.4002">&lt;&lt;ChainOfResponsibility&gt;&gt;</text><text fill="#000000" font-family="sans-serif" font-size="14" lengthAdjust="spacingAndGlyphs" textLength="110" x="495" y="967.2001">ResponseHandler</text><rect fill="#ADD8E6" filter="url(#ftj7wtdgyc8tf)" height="64.3998" style="stroke: #A80036; stroke-width: 1.5;" width="113" x="655.5" y="19.4001"/><text fill="#000000" font-family="sans-serif" font-size="14" lengthAdjust="spacingAndGlyphs" textLength="99" x="662.5" y="40.4001">&lt;&lt;description&gt;&gt;</text><text fill="#000000" font-family="sans-serif" font-size="14" lengthAdjust="spacingAndGlyphs" textLength="99" x="662.5" y="57.2">&lt;&lt;EventStore&gt;&gt;</text><text fill="#000000" font-family="sans-serif" font-size="14" lengthAdjust="spacingAndGlyphs" textLength="56" x="684" y="73.9999">LogEntry</text><rect fill="#ADD8E6" filter="url(#ftj7wtdgyc8tf)" height="64.3998" style="stroke: #A80036; stroke-width: 1.5;" width="113" x="655.5" y="929.4003"/><text fill="#000000" font-family="sans-serif" font-size="14" lengthAdjust="spacingAndGlyphs" textLength="99" x="662.5" y="950.4002">&lt;&lt;description&gt;&gt;</text><text fill="#000000" font-family="sans-serif" font-size="14" lengthAdjust="spacingAndGlyphs" textLength="99" x="662.5" y="967.2001">&lt;&lt;EventStore&gt;&gt;</text><text fill="#000000" font-family="sans-serif" font-size="14" lengthAdjust="spacingAndGlyphs" textLength="56" x="684" y="984.0001">LogEntry</text><rect fill="#FFC0CB" filter="url(#ftj7wtdgyc8tf)" height="47.5999" style="stroke: #A80036; stroke-width: 1.5;" width="144" x="782.5" y="36.2001"/><text fill="#000000" font-family="sans-serif" font-size="14" lengthAdjust="spacingAndGlyphs" textLength="130" x="789.5" y="57.2">&lt;&lt;moment-interval&gt;&gt;</text><text fill="#000000" font-family="sans-serif" font-size="14" lengthAdjust="spacingAndGlyphs" textLength="91" x="809" y="73.9999">ListAggregator</text><rect fill="#FFC0CB" filter="url(#ftj7wtdgyc8tf)" height="47.5999" style="stroke: #A80036; stroke-width: 1.5;" width="144" x="782.5" y="929.4003"/><text fill="#000000" font-family="sans-serif" font-size="14" lengthAdjust="spacingAndGlyphs" textLength="130" x="789.5" y="950.4002">&lt;&lt;moment-interval&gt;&gt;</text><text fill="#000000" font-family="sans-serif" font-size="14" lengthAdjust="spacingAndGlyphs" textLength="91" x="809" y="967.2001">ListAggregator</text><rect fill="#90EE90" filter="url(#ftj7wtdgyc8tf)" height="64.3998" style="stroke: #A80036; stroke-width: 1.5;" width="129" x="976" y="19.4001"/><text fill="#000000" font-family="sans-serif" font-size="14" lengthAdjust="spacingAndGlyphs" textLength="63" x="1009" y="40.4001">&lt;&lt;thing&gt;&gt;</text><text fill="#000000" font-family="sans-serif" font-size="14" lengthAdjust="spacingAndGlyphs" textLength="115" x="983" y="57.2">&lt;&lt;DisplayModel&gt;&gt;</text><text fill="#000000" font-family="sans-serif" font-size="14" lengthAdjust="spacingAndGlyphs" textLength="44" x="1018.5" y="73.9999">ListDM</text><rect fill="#90EE90" filter="url(#ftj7wtdgyc8tf)" height="64.3998" style="stroke: #A80036; stroke-width: 1.5;" width="129" x="976" y="929.4003"/><text fill="#000000" font-family="sans-serif" font-size="14" lengthAdjust="spacingAndGlyphs" textLength="63" x="1009" y="950.4002">&lt;&lt;thing&gt;&gt;</text><text fill="#000000" font-family="sans-serif" font-size="14" lengthAdjust="spacingAndGlyphs" textLength="115" x="983" y="967.2001">&lt;&lt;DisplayModel&gt;&gt;</text><text fill="#000000" font-family="sans-serif" font-size="14" lengthAdjust="spacingAndGlyphs" textLength="44" x="1018.5" y="984.0001">ListDM</text><rect fill="#ADD8E6" filter="url(#ftj7wtdgyc8tf)" height="47.5999" style="stroke: #A80036; stroke-width: 1.5;" width="113" x="1119" y="36.2001"/><text fill="#000000" font-family="sans-serif" font-size="14" lengthAdjust="spacingAndGlyphs" textLength="99" x="1126" y="57.2">&lt;&lt;description&gt;&gt;</text><text fill="#000000" font-family="sans-serif" font-size="14" lengthAdjust="spacingAndGlyphs" textLength="93" x="1129" y="73.9999">TransferObject</text><rect fill="#ADD8E6" filter="url(#ftj7wtdgyc8tf)" height="47.5999" style="stroke: #A80036; stroke-width: 1.5;" width="113" x="1119" y="929.4003"/><text fill="#000000" font-family="sans-serif" font-size="14" lengthAdjust="spacingAndGlyphs" textLength="99" x="1126" y="950.4002">&lt;&lt;description&gt;&gt;</text><text fill="#000000" font-family="sans-serif" font-size="14" lengthAdjust="spacingAndGlyphs" textLength="93" x="1129" y="967.2001">TransferObject</text><rect fill="#FFFFFF" filter="url(#ftj7wtdgyc8tf)" height="161.0001" style="stroke: #A80036; stroke-width: 1.0;" width="10" x="547" y="209.2"/><rect fill="#FFFFFF" filter="url(#ftj7wtdgyc8tf)" height="512.6002" style="stroke: #A80036; stroke-width: 1.0;" width="10" x="851.5" y="370.2001"/><rect fill="#FFFFFF" filter="url(#ftj7wtdgyc8tf)" height="64.2" style="stroke: #A80036; stroke-width: 1.0;" width="10" x="856.5" y="407.8001"/><rect fill="#FFFFFF" filter="url(#ftj7wtdgyc8tf)" height="153.0001" style="stroke: #A80036; stroke-width: 1.0;" width="10" x="856.5" y="509.6001"/><rect fill="#FFFFFF" filter="url(#ftj7wtdgyc8tf)" height="123.4001" style="stroke: #A80036; stroke-width: 1.0;" width="10" x="856.5" y="700.2002"/><polygon fill="#A80036" points="91.5,116.3999,101.5,120.3999,91.5,124.3999,95.5,120.3999" style="stroke: #A80036; stroke-width: 1.0;"/><line style="stroke: #A80036; stroke-width: 1.0;" x1="22.5" x2="97.5" y1="120.3999" y2="120.3999"/><text fill="#000000" font-family="sans-serif" font-size="13" lengthAdjust="spacingAndGlyphs" textLength="39" x="29.5" y="115.7999">listAll()</text><polygon fill="#A80036" points="213.5,146,223.5,150,213.5,154,217.5,150" style="stroke: #A80036; stroke-width: 1.0;"/><line style="stroke: #A80036; stroke-width: 1.0;" x1="103.5" x2="219.5" y1="150" y2="150"/><text fill="#000000" font-family="sans-serif" font-size="13" lengthAdjust="spacingAndGlyphs" textLength="45" x="110.5" y="145.4">invoke()</text><polygon fill="#A80036" points="372.5,175.6,382.5,179.6,372.5,183.6,376.5,179.6" style="stroke: #A80036; stroke-width: 1.0;"/><line style="stroke: #A80036; stroke-width: 1.0;" x1="225.5" x2="378.5" y1="179.6" y2="179.6"/><text fill="#000000" font-family="sans-serif" font-size="13" lengthAdjust="spacingAndGlyphs" textLength="46" x="232.5" y="175">Invoke()</text><polygon fill="#A80036" points="535,205.2,545,209.2,535,213.2,539,209.2" style="stroke: #A80036; stroke-width: 1.0;"/><line style="stroke: #A80036; stroke-width: 1.0;" x1="384.5" x2="541" y1="209.2" y2="209.2"/><text fill="#000000" font-family="sans-serif" font-size="13" lengthAdjust="spacingAndGlyphs" textLength="46" x="391.5" y="204.6">handle()</text><line style="stroke: #A80036; stroke-width: 1.0;" x1="557" x2="599" y1="238.8" y2="238.8"/><line style="stroke: #A80036; stroke-width: 1.0;" x1="599" x2="599" y1="238.8" y2="251.8"/><line style="stroke: #A80036; stroke-width: 1.0;" x1="558" x2="599" y1="251.8" y2="251.8"/><polygon fill="#A80036" points="568,247.8,558,251.8,568,255.8,564,251.8" style="stroke: #A80036; stroke-width: 1.0;"/><text fill="#000000" font-family="sans-serif" font-size="13" lengthAdjust="spacingAndGlyphs" textLength="106" x="564" y="234.2">successor.handle()</text><polygon fill="#A80036" points="1165.5,277.4,1175.5,281.4,1165.5,285.4,1169.5,281.4" style="stroke: #A80036; stroke-width: 1.0;"/><line style="stroke: #A80036; stroke-width: 1.0;" x1="557" x2="1171.5" y1="281.4" y2="281.4"/><text fill="#000000" font-family="sans-serif" font-size="13" lengthAdjust="spacingAndGlyphs" textLength="39" x="564" y="276.8">parse()</text><polygon fill="#A80036" points="702,307,712,311,702,315,706,311" style="stroke: #A80036; stroke-width: 1.0;"/><line style="stroke: #A80036; stroke-width: 1.0;" x1="557" x2="708" y1="311" y2="311"/><text fill="#000000" font-family="sans-serif" font-size="13" lengthAdjust="spacingAndGlyphs" textLength="110" x="564" y="306.4">setTransferObject()</text><polygon fill="#A80036" points="702,336.6,712,340.6,702,344.6,706,340.6" style="stroke: #A80036; stroke-width: 1.0;"/><line style="stroke: #A80036; stroke-width: 1.0;" x1="557" x2="708" y1="340.6" y2="340.6"/><text fill="#000000" font-family="sans-serif" font-size="13" lengthAdjust="spacingAndGlyphs" textLength="88" x="564" y="336">addAggegator()</text><polygon fill="#A80036" points="839.5,366.2001,849.5,370.2001,839.5,374.2001,843.5,370.2001" style="stroke: #A80036; stroke-width: 1.0;"/><line style="stroke: #A80036; stroke-width: 1.0;" x1="552" x2="845.5" y1="370.2001" y2="370.2001"/><text fill="#000000" font-family="sans-serif" font-size="13" lengthAdjust="spacingAndGlyphs" textLength="93" x="559" y="365.6">update(logEntry)</text><line style="stroke: #A80036; stroke-width: 1.0;" x1="861.5" x2="908.5" y1="394.8001" y2="394.8001"/><line style="stroke: #A80036; stroke-width: 1.0;" x1="908.5" x2="908.5" y1="394.8001" y2="407.8001"/><line style="stroke: #A80036; stroke-width: 1.0;" x1="867.5" x2="908.5" y1="407.8001" y2="407.8001"/><polygon fill="#A80036" points="877.5,403.8001,867.5,407.8001,877.5,411.8001,873.5,407.8001" style="stroke: #A80036; stroke-width: 1.0;"/><text fill="#000000" font-family="sans-serif" font-size="13" lengthAdjust="spacingAndGlyphs" textLength="66" x="873.5" y="390.2001">handleList()</text><polygon fill="#A80036" points="236.5,438.4001,226.5,442.4001,236.5,446.4001,232.5,442.4001" style="stroke: #A80036; stroke-width: 1.0;"/><line style="stroke: #A80036; stroke-width: 1.0;" x1="230.5" x2="855.5" y1="442.4001" y2="442.4001"/><text fill="#000000" font-family="sans-serif" font-size="13" lengthAdjust="spacingAndGlyphs" textLength="91" x="242.5" y="437.8001">invokeWith(this)</text><polygon fill="#A80036" points="372.5,468.0001,382.5,472.0001,372.5,476.0001,376.5,472.0001" style="stroke: #A80036; stroke-width: 1.0;"/><line style="stroke: #A80036; stroke-width: 1.0;" x1="225.5" x2="378.5" y1="472.0001" y2="472.0001"/><text fill="#000000" font-family="sans-serif" font-size="13" lengthAdjust="spacingAndGlyphs" textLength="97" x="232.5" y="467.4001">invoke(this, aggt)</text><line style="stroke: #A80036; stroke-width: 1.0;" x1="861.5" x2="908.5" y1="496.6001" y2="496.6001"/><line style="stroke: #A80036; stroke-width: 1.0;" x1="908.5" x2="908.5" y1="496.6001" y2="509.6001"/><line style="stroke: #A80036; stroke-width: 1.0;" x1="867.5" x2="908.5" y1="509.6001" y2="509.6001"/><polygon fill="#A80036" points="877.5,505.6001,867.5,509.6001,877.5,513.6001,873.5,509.6001" style="stroke: #A80036; stroke-width: 1.0;"/><text fill="#000000" font-family="sans-serif" font-size="13" lengthAdjust="spacingAndGlyphs" textLength="84" x="873.5" y="492.0001">handleObject()</text><polygon fill="#A80036" points="1030.5,540.2001,1040.5,544.2001,1030.5,548.2001,1034.5,544.2001" style="stroke: #A80036; stroke-width: 1.0;"/><line style="stroke: #A80036; stroke-width: 1.0;" x1="866.5" x2="1036.5" y1="544.2001" y2="544.2001"/><text fill="#000000" font-family="sans-serif" font-size="13" lengthAdjust="spacingAndGlyphs" textLength="67" x="873.5" y="539.6001">addData(to)</text><polygon fill="#A80036" points="236.5,569.8001,226.5,573.8001,236.5,577.8001,232.5,573.8001" style="stroke: #A80036; stroke-width: 1.0;"/><line style="stroke: #A80036; stroke-width: 1.0;" x1="230.5" x2="855.5" y1="573.8001" y2="573.8001"/><text fill="#000000" font-family="sans-serif" font-size="13" lengthAdjust="spacingAndGlyphs" textLength="129" x="242.5" y="569.2001">invokeWith(this, "json")</text><polygon fill="#A80036" points="372.5,599.4001,382.5,603.4001,372.5,607.4001,376.5,603.4001" style="stroke: #A80036; stroke-width: 1.0;"/><line style="stroke: #A80036; stroke-width: 1.0;" x1="225.5" x2="378.5" y1="603.4001" y2="603.4001"/><text fill="#000000" font-family="sans-serif" font-size="13" lengthAdjust="spacingAndGlyphs" textLength="135" x="232.5" y="598.8001">invoke(this, aggt, "json")</text><polygon fill="#A80036" points="236.5,629.0002,226.5,633.0002,236.5,637.0002,232.5,633.0002" style="stroke: #A80036; stroke-width: 1.0;"/><line style="stroke: #A80036; stroke-width: 1.0;" x1="230.5" x2="855.5" y1="633.0002" y2="633.0002"/><text fill="#000000" font-family="sans-serif" font-size="13" lengthAdjust="spacingAndGlyphs" textLength="126" x="242.5" y="628.4002">invokeWith(this, "xml")</text><polygon fill="#A80036" points="372.5,658.6002,382.5,662.6002,372.5,666.6002,376.5,662.6002" style="stroke: #A80036; stroke-width: 1.0;"/><line style="stroke: #A80036; stroke-width: 1.0;" x1="225.5" x2="378.5" y1="662.6002" y2="662.6002"/><text fill="#000000" font-family="sans-serif" font-size="13" lengthAdjust="spacingAndGlyphs" textLength="132" x="232.5" y="658.0002">invoke(this, aggt, "xml")</text><line style="stroke: #A80036; stroke-width: 1.0;" x1="861.5" x2="908.5" y1="687.2002" y2="687.2002"/><line style="stroke: #A80036; stroke-width: 1.0;" x1="908.5" x2="908.5" y1="687.2002" y2="700.2002"/><line style="stroke: #A80036; stroke-width: 1.0;" x1="867.5" x2="908.5" y1="700.2002" y2="700.2002"/><polygon fill="#A80036" points="877.5,696.2002,867.5,700.2002,877.5,704.2002,873.5,700.2002" style="stroke: #A80036; stroke-width: 1.0;"/><text fill="#000000" font-family="sans-serif" font-size="13" lengthAdjust="spacingAndGlyphs" textLength="84" x="873.5" y="682.6002">handleLayout()</text><polygon fill="#A80036" points="1030.5,730.8002,1040.5,734.8002,1030.5,738.8002,1034.5,734.8002" style="stroke: #A80036; stroke-width: 1.0;"/><line style="stroke: #A80036; stroke-width: 1.0;" x1="866.5" x2="1036.5" y1="734.8002" y2="734.8002"/><text fill="#000000" font-family="sans-serif" font-size="13" lengthAdjust="spacingAndGlyphs" textLength="78" x="873.5" y="730.2002">addLayout(to)</text><polygon fill="#A80036" points="1030.5,760.4002,1040.5,764.4002,1030.5,768.4002,1034.5,764.4002" style="stroke: #A80036; stroke-width: 1.0;"/><line style="stroke: #A80036; stroke-width: 1.0;" x1="866.5" x2="1036.5" y1="764.4002" y2="764.4002"/><text fill="#000000" font-family="sans-serif" font-size="13" lengthAdjust="spacingAndGlyphs" textLength="152" x="873.5" y="759.8002">addPropertyDescription(to)</text><polygon fill="#A80036" points="236.5,790.0002,226.5,794.0002,236.5,798.0002,232.5,794.0002" style="stroke: #A80036; stroke-width: 1.0;"/><line style="stroke: #A80036; stroke-width: 1.0;" x1="230.5" x2="855.5" y1="794.0002" y2="794.0002"/><text fill="#000000" font-family="sans-serif" font-size="13" lengthAdjust="spacingAndGlyphs" textLength="91" x="242.5" y="789.4002">invokeWith(this)</text><polygon fill="#A80036" points="372.5,819.6002,382.5,823.6002,372.5,827.6002,376.5,823.6002" style="stroke: #A80036; stroke-width: 1.0;"/><line style="stroke: #A80036; stroke-width: 1.0;" x1="225.5" x2="378.5" y1="823.6002" y2="823.6002"/><text fill="#000000" font-family="sans-serif" font-size="13" lengthAdjust="spacingAndGlyphs" textLength="97" x="232.5" y="819.0002">invoke(this, aggt)</text><polygon fill="#A80036" points="1030.5,849.2003,1040.5,853.2003,1030.5,857.2003,1034.5,853.2003" style="stroke: #A80036; stroke-width: 1.0;"/><line style="stroke: #A80036; stroke-width: 1.0;" x1="861.5" x2="1036.5" y1="853.2003" y2="853.2003"/><text fill="#000000" font-family="sans-serif" font-size="13" lengthAdjust="spacingAndGlyphs" textLength="100" x="868.5" y="848.6003">canBeDisplayed()</text><polygon fill="#A80036" points="114.5,878.8003,104.5,882.8003,114.5,886.8003,110.5,882.8003" style="stroke: #A80036; stroke-width: 1.0;"/><line style="stroke: #A80036; stroke-width: 1.0;" x1="108.5" x2="855.5" y1="882.8003" y2="882.8003"/><text fill="#000000" font-family="sans-serif" font-size="13" lengthAdjust="spacingAndGlyphs" textLength="63" x="120.5" y="878.2003">openView()</text><polygon fill="#A80036" points="33.5,908.4003,23.5,912.4003,33.5,916.4003,29.5,912.4003" style="stroke: #A80036; stroke-width: 1.0;"/><line style="stroke: #A80036; stroke-width: 1.0;" x1="27.5" x2="102.5" y1="912.4003" y2="912.4003"/><text fill="#000000" font-family="sans-serif" font-size="13" lengthAdjust="spacingAndGlyphs" textLength="42" x="39.5" y="907.8003">present</text><!--MD5=[64fe7aae111eeeedd5602cfa438e47b0]
@startuml
actor User
participant "<<Singleton>>\nUI Manager" as UI
participant "<<description>>\nLink" as LNK #LightBlue
participant "(Xml)HttpRequest" as XHR
participant "<<ChainOfResponsibility>>\nResponseHandler" as RH
participant "<<description>>\n<<EventStore>>\nLogEntry" as LE #LightBlue
participant "<<moment-interval>>\nListAggregator" as AGGT  #Pink
participant "<<thing>>\n<<DisplayModel>>\nListDM" as DM #LightGreen
participant "<<description>>\nTransferObject" as TO #LightBlue

User -> UI : listAll()
UI -> LNK : invoke()
LNK -> XHR : Invoke()
XHR -> RH : handle()
activate RH
RH -> RH : successor.handle()
RH -> TO : parse()
RH -> LE : setTransferObject()
RH -> LE : addAggegator()
RH -> AGGT : update(logEntry)
deactivate RH
activate AGGT

AGGT -> AGGT : handleList()
activate AGGT
AGGT -> LNK : invokeWith(this)
LNK -> XHR: invoke(this, aggt)
deactivate AGGT

AGGT -> AGGT : handleObject()
activate AGGT
AGGT -> DM : addData(to)
AGGT -> LNK : invokeWith(this, "json")
LNK -> XHR: invoke(this, aggt, "json")
AGGT -> LNK : invokeWith(this, "xml")
LNK -> XHR: invoke(this, aggt, "xml")
deactivate AGGT

AGGT -> AGGT : handleLayout()
activate AGGT
AGGT -> DM : addLayout(to)
AGGT -> DM : addPropertyDescription(to)
AGGT -> LNK : invokeWith(this)
LNK -> XHR: invoke(this, aggt)
deactivate AGGT

AGGT -> DM : canBeDisplayed()
AGGT -> UI : openView()
deactivate AGGT


UI -> User : present
@enduml

PlantUML version 1.2020.19(Mon Oct 12 15:10:01 GMT 2020)
(GPL source distribution)
Java Runtime: OpenJDK Runtime Environment
JVM: OpenJDK 64-Bit Server VM
Default Encoding: UTF-8
Language: en
Country: US
--></g></svg>