<?xml version="1.0" encoding="UTF-8" standalone="no"?><svg xmlns="http://www.w3.org/2000/svg" xmlns:xlink="http://www.w3.org/1999/xlink" contentStyleType="text/css" height="1004px" preserveAspectRatio="none" style="width:1218px;height:1004px;background:#FFFFFF;" version="1.1" viewBox="0 0 1218 1004" width="1218px" zoomAndPan="magnify"><defs/><g><rect fill="#FFFFFF" height="161.0001" style="stroke:#181818;stroke-width:1.0;" width="10" x="537" y="202.2"/><rect fill="#FFFFFF" height="512.6002" style="stroke:#181818;stroke-width:1.0;" width="10" x="833.5" y="363.2001"/><rect fill="#FFFFFF" height="64.2" style="stroke:#181818;stroke-width:1.0;" width="10" x="838.5" y="400.8001"/><rect fill="#FFFFFF" height="153.0001" style="stroke:#181818;stroke-width:1.0;" width="10" x="838.5" y="502.6001"/><rect fill="#FFFFFF" height="123.4001" style="stroke:#181818;stroke-width:1.0;" width="10" x="838.5" y="693.2002"/><line style="stroke:#181818;stroke-width:0.5;stroke-dasharray:5.0,5.0;" x1="22" x2="22" y1="81.7999" y2="923.4003"/><line style="stroke:#181818;stroke-width:0.5;stroke-dasharray:5.0,5.0;" x1="101" x2="101" y1="81.7999" y2="923.4003"/><line style="stroke:#181818;stroke-width:0.5;stroke-dasharray:5.0,5.0;" x1="219" x2="219" y1="81.7999" y2="923.4003"/><line style="stroke:#181818;stroke-width:0.5;stroke-dasharray:5.0,5.0;" x1="378.5" x2="378.5" y1="81.7999" y2="923.4003"/><line style="stroke:#181818;stroke-width:0.5;stroke-dasharray:5.0,5.0;" x1="541.5" x2="541.5" y1="81.7999" y2="923.4003"/><line style="stroke:#181818;stroke-width:0.5;stroke-dasharray:5.0,5.0;" x1="699.5" x2="699.5" y1="81.7999" y2="923.4003"/><line style="stroke:#181818;stroke-width:0.5;stroke-dasharray:5.0,5.0;" x1="838.5" x2="838.5" y1="81.7999" y2="923.4003"/><line style="stroke:#181818;stroke-width:0.5;stroke-dasharray:5.0,5.0;" x1="1024" x2="1024" y1="81.7999" y2="923.4003"/><line style="stroke:#181818;stroke-width:0.5;stroke-dasharray:5.0,5.0;" x1="1155" x2="1155" y1="81.7999" y2="923.4003"/><text fill="#000000" font-family="sans-serif" font-size="14" lengthAdjust="spacing" textLength="29" x="5" y="78.9999">User</text><ellipse cx="22.5" cy="13.5" fill="#E2E2F0" rx="8" ry="8" style="stroke:#181818;stroke-width:0.5;"/><path d="M22.5,21.5 L22.5,48.5 M9.5,29.5 L35.5,29.5 M22.5,48.5 L9.5,63.5 M22.5,48.5 L35.5,63.5 " fill="none" style="stroke:#181818;stroke-width:0.5;"/><text fill="#000000" font-family="sans-serif" font-size="14" lengthAdjust="spacing" textLength="29" x="5" y="936.4002">User</text><ellipse cx="22.5" cy="947.7002" fill="#E2E2F0" rx="8" ry="8" style="stroke:#181818;stroke-width:0.5;"/><path d="M22.5,955.7002 L22.5,982.7002 M9.5,963.7002 L35.5,963.7002 M22.5,982.7002 L9.5,997.7002 M22.5,982.7002 L35.5,997.7002 " fill="none" style="stroke:#181818;stroke-width:0.5;"/><rect fill="#E2E2F0" height="47.5999" rx="2.5" ry="2.5" style="stroke:#181818;stroke-width:0.5;" width="103" x="50" y="33.2001"/><text fill="#000000" font-family="sans-serif" font-size="14" lengthAdjust="spacing" textLength="89" x="57" y="54.2">&lt;&lt;Singleton&gt;&gt;</text><text fill="#000000" font-family="sans-serif" font-size="14" lengthAdjust="spacing" textLength="74" x="64.5" y="70.9999">UI Manager</text><rect fill="#E2E2F0" height="47.5999" rx="2.5" ry="2.5" style="stroke:#181818;stroke-width:0.5;" width="103" x="50" y="922.4003"/><text fill="#000000" font-family="sans-serif" font-size="14" lengthAdjust="spacing" textLength="89" x="57" y="943.4002">&lt;&lt;Singleton&gt;&gt;</text><text fill="#000000" font-family="sans-serif" font-size="14" lengthAdjust="spacing" textLength="74" x="64.5" y="960.2001">UI Manager</text><rect fill="#ADD8E6" height="47.5999" rx="2.5" ry="2.5" style="stroke:#181818;stroke-width:0.5;" width="113" x="163" y="33.2001"/><text fill="#000000" font-family="sans-serif" font-size="14" lengthAdjust="spacing" textLength="99" x="170" y="54.2">&lt;&lt;description&gt;&gt;</text><text fill="#000000" font-family="sans-serif" font-size="14" lengthAdjust="spacing" textLength="26" x="206.5" y="70.9999">Link</text><rect fill="#ADD8E6" height="47.5999" rx="2.5" ry="2.5" style="stroke:#181818;stroke-width:0.5;" width="113" x="163" y="922.4003"/><text fill="#000000" font-family="sans-serif" font-size="14" lengthAdjust="spacing" textLength="99" x="170" y="943.4002">&lt;&lt;description&gt;&gt;</text><text fill="#000000" font-family="sans-serif" font-size="14" lengthAdjust="spacing" textLength="26" x="206.5" y="960.2001">Link</text><rect fill="#E2E2F0" height="30.7999" rx="2.5" ry="2.5" style="stroke:#181818;stroke-width:0.5;" width="124" x="316.5" y="50"/><text fill="#000000" font-family="sans-serif" font-size="14" lengthAdjust="spacing" textLength="110" x="323.5" y="70.9999">(Xml)HttpRequest</text><rect fill="#E2E2F0" height="30.7999" rx="2.5" ry="2.5" style="stroke:#181818;stroke-width:0.5;" width="124" x="316.5" y="922.4003"/><text fill="#000000" font-family="sans-serif" font-size="14" lengthAdjust="spacing" textLength="110" x="323.5" y="943.4002">(Xml)HttpRequest</text><rect fill="#E2E2F0" height="47.5999" rx="2.5" ry="2.5" style="stroke:#181818;stroke-width:0.5;" width="183" x="450.5" y="33.2001"/><text fill="#000000" font-family="sans-serif" font-size="14" lengthAdjust="spacing" textLength="169" x="457.5" y="54.2">&lt;&lt;ChainOfResponsibility&gt;&gt;</text><text fill="#000000" font-family="sans-serif" font-size="14" lengthAdjust="spacing" textLength="110" x="487" y="70.9999">ResponseHandler</text><rect fill="#E2E2F0" height="47.5999" rx="2.5" ry="2.5" style="stroke:#181818;stroke-width:0.5;" width="183" x="450.5" y="922.4003"/><text fill="#000000" font-family="sans-serif" font-size="14" lengthAdjust="spacing" textLength="169" x="457.5" y="943.4002">&lt;&lt;ChainOfResponsibility&gt;&gt;</text><text fill="#000000" font-family="sans-serif" font-size="14" lengthAdjust="spacing" textLength="110" x="487" y="960.2001">ResponseHandler</text><rect fill="#ADD8E6" height="64.3998" rx="2.5" ry="2.5" style="stroke:#181818;stroke-width:0.5;" width="113" x="643.5" y="16.4001"/><text fill="#000000" font-family="sans-serif" font-size="14" lengthAdjust="spacing" textLength="99" x="650.5" y="37.4001">&lt;&lt;description&gt;&gt;</text><text fill="#000000" font-family="sans-serif" font-size="14" lengthAdjust="spacing" textLength="99" x="650.5" y="54.2">&lt;&lt;EventStore&gt;&gt;</text><text fill="#000000" font-family="sans-serif" font-size="14" lengthAdjust="spacing" textLength="56" x="672" y="70.9999">LogEntry</text><rect fill="#ADD8E6" height="64.3998" rx="2.5" ry="2.5" style="stroke:#181818;stroke-width:0.5;" width="113" x="643.5" y="922.4003"/><text fill="#000000" font-family="sans-serif" font-size="14" lengthAdjust="spacing" textLength="99" x="650.5" y="943.4002">&lt;&lt;description&gt;&gt;</text><text fill="#000000" font-family="sans-serif" font-size="14" lengthAdjust="spacing" textLength="99" x="650.5" y="960.2001">&lt;&lt;EventStore&gt;&gt;</text><text fill="#000000" font-family="sans-serif" font-size="14" lengthAdjust="spacing" textLength="56" x="672" y="977.0001">LogEntry</text><rect fill="#FFC0CB" height="47.5999" rx="2.5" ry="2.5" style="stroke:#181818;stroke-width:0.5;" width="144" x="766.5" y="33.2001"/><text fill="#000000" font-family="sans-serif" font-size="14" lengthAdjust="spacing" textLength="130" x="773.5" y="54.2">&lt;&lt;moment-interval&gt;&gt;</text><text fill="#000000" font-family="sans-serif" font-size="14" lengthAdjust="spacing" textLength="128" x="774.5" y="70.9999">CollectionAggregator</text><rect fill="#FFC0CB" height="47.5999" rx="2.5" ry="2.5" style="stroke:#181818;stroke-width:0.5;" width="144" x="766.5" y="922.4003"/><text fill="#000000" font-family="sans-serif" font-size="14" lengthAdjust="spacing" textLength="130" x="773.5" y="943.4002">&lt;&lt;moment-interval&gt;&gt;</text><text fill="#000000" font-family="sans-serif" font-size="14" lengthAdjust="spacing" textLength="128" x="774.5" y="960.2001">CollectionAggregator</text><rect fill="#90EE90" height="64.3998" rx="2.5" ry="2.5" style="stroke:#181818;stroke-width:0.5;" width="129" x="960" y="16.4001"/><text fill="#000000" font-family="sans-serif" font-size="14" lengthAdjust="spacing" textLength="63" x="993" y="37.4001">&lt;&lt;thing&gt;&gt;</text><text fill="#000000" font-family="sans-serif" font-size="14" lengthAdjust="spacing" textLength="115" x="967" y="54.2">&lt;&lt;DisplayModel&gt;&gt;</text><text fill="#000000" font-family="sans-serif" font-size="14" lengthAdjust="spacing" textLength="81" x="984" y="70.9999">CollectionDM</text><rect fill="#90EE90" height="64.3998" rx="2.5" ry="2.5" style="stroke:#181818;stroke-width:0.5;" width="129" x="960" y="922.4003"/><text fill="#000000" font-family="sans-serif" font-size="14" lengthAdjust="spacing" textLength="63" x="993" y="943.4002">&lt;&lt;thing&gt;&gt;</text><text fill="#000000" font-family="sans-serif" font-size="14" lengthAdjust="spacing" textLength="115" x="967" y="960.2001">&lt;&lt;DisplayModel&gt;&gt;</text><text fill="#000000" font-family="sans-serif" font-size="14" lengthAdjust="spacing" textLength="81" x="984" y="977.0001">CollectionDM</text><rect fill="#ADD8E6" height="47.5999" rx="2.5" ry="2.5" style="stroke:#181818;stroke-width:0.5;" width="113" x="1099" y="33.2001"/><text fill="#000000" font-family="sans-serif" font-size="14" lengthAdjust="spacing" textLength="99" x="1106" y="54.2">&lt;&lt;description&gt;&gt;</text><text fill="#000000" font-family="sans-serif" font-size="14" lengthAdjust="spacing" textLength="93" x="1109" y="70.9999">TransferObject</text><rect fill="#ADD8E6" height="47.5999" rx="2.5" ry="2.5" style="stroke:#181818;stroke-width:0.5;" width="113" x="1099" y="922.4003"/><text fill="#000000" font-family="sans-serif" font-size="14" lengthAdjust="spacing" textLength="99" x="1106" y="943.4002">&lt;&lt;description&gt;&gt;</text><text fill="#000000" font-family="sans-serif" font-size="14" lengthAdjust="spacing" textLength="93" x="1109" y="960.2001">TransferObject</text><rect fill="#FFFFFF" height="161.0001" style="stroke:#181818;stroke-width:1.0;" width="10" x="537" y="202.2"/><rect fill="#FFFFFF" height="512.6002" style="stroke:#181818;stroke-width:1.0;" width="10" x="833.5" y="363.2001"/><rect fill="#FFFFFF" height="64.2" style="stroke:#181818;stroke-width:1.0;" width="10" x="838.5" y="400.8001"/><rect fill="#FFFFFF" height="153.0001" style="stroke:#181818;stroke-width:1.0;" width="10" x="838.5" y="502.6001"/><rect fill="#FFFFFF" height="123.4001" style="stroke:#181818;stroke-width:1.0;" width="10" x="838.5" y="693.2002"/><polygon fill="#181818" points="89.5,109.3999,99.5,113.3999,89.5,117.3999,93.5,113.3999" style="stroke:#181818;stroke-width:1.0;"/><line style="stroke:#181818;stroke-width:1.0;" x1="22.5" x2="95.5" y1="113.3999" y2="113.3999"/><text fill="#000000" font-family="sans-serif" font-size="13" lengthAdjust="spacing" textLength="39" x="29.5" y="108.7999">listAll()</text><polygon fill="#181818" points="207.5,139,217.5,143,207.5,147,211.5,143" style="stroke:#181818;stroke-width:1.0;"/><line style="stroke:#181818;stroke-width:1.0;" x1="101.5" x2="213.5" y1="143" y2="143"/><text fill="#000000" font-family="sans-serif" font-size="13" lengthAdjust="spacing" textLength="45" x="108.5" y="138.4">invoke()</text><polygon fill="#181818" points="366.5,168.6,376.5,172.6,366.5,176.6,370.5,172.6" style="stroke:#181818;stroke-width:1.0;"/><line style="stroke:#181818;stroke-width:1.0;" x1="219.5" x2="372.5" y1="172.6" y2="172.6"/><text fill="#000000" font-family="sans-serif" font-size="13" lengthAdjust="spacing" textLength="46" x="226.5" y="168">Invoke()</text><polygon fill="#181818" points="525,198.2,535,202.2,525,206.2,529,202.2" style="stroke:#181818;stroke-width:1.0;"/><line style="stroke:#181818;stroke-width:1.0;" x1="378.5" x2="531" y1="202.2" y2="202.2"/><text fill="#000000" font-family="sans-serif" font-size="13" lengthAdjust="spacing" textLength="46" x="385.5" y="197.6">handle()</text><line style="stroke:#181818;stroke-width:1.0;" x1="547" x2="589" y1="231.8" y2="231.8"/><line style="stroke:#181818;stroke-width:1.0;" x1="589" x2="589" y1="231.8" y2="244.8"/><line style="stroke:#181818;stroke-width:1.0;" x1="548" x2="589" y1="244.8" y2="244.8"/><polygon fill="#181818" points="558,240.8,548,244.8,558,248.8,554,244.8" style="stroke:#181818;stroke-width:1.0;"/><text fill="#000000" font-family="sans-serif" font-size="13" lengthAdjust="spacing" textLength="106" x="554" y="227.2">successor.handle()</text><polygon fill="#181818" points="1143.5,270.4,1153.5,274.4,1143.5,278.4,1147.5,274.4" style="stroke:#181818;stroke-width:1.0;"/><line style="stroke:#181818;stroke-width:1.0;" x1="547" x2="1149.5" y1="274.4" y2="274.4"/><text fill="#000000" font-family="sans-serif" font-size="13" lengthAdjust="spacing" textLength="39" x="554" y="269.8">parse()</text><polygon fill="#181818" points="688,300,698,304,688,308,692,304" style="stroke:#181818;stroke-width:1.0;"/><line style="stroke:#181818;stroke-width:1.0;" x1="547" x2="694" y1="304" y2="304"/><text fill="#000000" font-family="sans-serif" font-size="13" lengthAdjust="spacing" textLength="110" x="554" y="299.4">setTransferObject()</text><polygon fill="#181818" points="688,329.6,698,333.6,688,337.6,692,333.6" style="stroke:#181818;stroke-width:1.0;"/><line style="stroke:#181818;stroke-width:1.0;" x1="547" x2="694" y1="333.6" y2="333.6"/><text fill="#000000" font-family="sans-serif" font-size="13" lengthAdjust="spacing" textLength="88" x="554" y="329">addAggegator()</text><polygon fill="#181818" points="821.5,359.2001,831.5,363.2001,821.5,367.2001,825.5,363.2001" style="stroke:#181818;stroke-width:1.0;"/><line style="stroke:#181818;stroke-width:1.0;" x1="542" x2="827.5" y1="363.2001" y2="363.2001"/><text fill="#000000" font-family="sans-serif" font-size="13" lengthAdjust="spacing" textLength="93" x="549" y="358.6">update(logEntry)</text><line style="stroke:#181818;stroke-width:1.0;" x1="843.5" x2="890.5" y1="387.8001" y2="387.8001"/><line style="stroke:#181818;stroke-width:1.0;" x1="890.5" x2="890.5" y1="387.8001" y2="400.8001"/><line style="stroke:#181818;stroke-width:1.0;" x1="849.5" x2="890.5" y1="400.8001" y2="400.8001"/><polygon fill="#181818" points="859.5,396.8001,849.5,400.8001,859.5,404.8001,855.5,400.8001" style="stroke:#181818;stroke-width:1.0;"/><text fill="#000000" font-family="sans-serif" font-size="13" lengthAdjust="spacing" textLength="66" x="855.5" y="383.2001">handleList()</text><polygon fill="#181818" points="230.5,431.4001,220.5,435.4001,230.5,439.4001,226.5,435.4001" style="stroke:#181818;stroke-width:1.0;"/><line style="stroke:#181818;stroke-width:1.0;" x1="224.5" x2="837.5" y1="435.4001" y2="435.4001"/><text fill="#000000" font-family="sans-serif" font-size="13" lengthAdjust="spacing" textLength="91" x="236.5" y="430.8001">invokeWith(this)</text><polygon fill="#181818" points="366.5,461.0001,376.5,465.0001,366.5,469.0001,370.5,465.0001" style="stroke:#181818;stroke-width:1.0;"/><line style="stroke:#181818;stroke-width:1.0;" x1="219.5" x2="372.5" y1="465.0001" y2="465.0001"/><text fill="#000000" font-family="sans-serif" font-size="13" lengthAdjust="spacing" textLength="97" x="226.5" y="460.4001">invoke(this, aggt)</text><line style="stroke:#181818;stroke-width:1.0;" x1="843.5" x2="890.5" y1="489.6001" y2="489.6001"/><line style="stroke:#181818;stroke-width:1.0;" x1="890.5" x2="890.5" y1="489.6001" y2="502.6001"/><line style="stroke:#181818;stroke-width:1.0;" x1="849.5" x2="890.5" y1="502.6001" y2="502.6001"/><polygon fill="#181818" points="859.5,498.6001,849.5,502.6001,859.5,506.6001,855.5,502.6001" style="stroke:#181818;stroke-width:1.0;"/><text fill="#000000" font-family="sans-serif" font-size="13" lengthAdjust="spacing" textLength="84" x="855.5" y="485.0001">handleObject()</text><polygon fill="#181818" points="1012.5,533.2001,1022.5,537.2001,1012.5,541.2001,1016.5,537.2001" style="stroke:#181818;stroke-width:1.0;"/><line style="stroke:#181818;stroke-width:1.0;" x1="848.5" x2="1018.5" y1="537.2001" y2="537.2001"/><text fill="#000000" font-family="sans-serif" font-size="13" lengthAdjust="spacing" textLength="67" x="855.5" y="532.6001">addData(to)</text><polygon fill="#181818" points="230.5,562.8001,220.5,566.8001,230.5,570.8001,226.5,566.8001" style="stroke:#181818;stroke-width:1.0;"/><line style="stroke:#181818;stroke-width:1.0;" x1="224.5" x2="837.5" y1="566.8001" y2="566.8001"/><text fill="#000000" font-family="sans-serif" font-size="13" lengthAdjust="spacing" textLength="129" x="236.5" y="562.2001">invokeWith(this, "json")</text><polygon fill="#181818" points="366.5,592.4001,376.5,596.4001,366.5,600.4001,370.5,596.4001" style="stroke:#181818;stroke-width:1.0;"/><line style="stroke:#181818;stroke-width:1.0;" x1="219.5" x2="372.5" y1="596.4001" y2="596.4001"/><text fill="#000000" font-family="sans-serif" font-size="13" lengthAdjust="spacing" textLength="135" x="226.5" y="591.8001">invoke(this, aggt, "json")</text><polygon fill="#181818" points="230.5,622.0002,220.5,626.0002,230.5,630.0002,226.5,626.0002" style="stroke:#181818;stroke-width:1.0;"/><line style="stroke:#181818;stroke-width:1.0;" x1="224.5" x2="837.5" y1="626.0002" y2="626.0002"/><text fill="#000000" font-family="sans-serif" font-size="13" lengthAdjust="spacing" textLength="126" x="236.5" y="621.4002">invokeWith(this, "xml")</text><polygon fill="#181818" points="366.5,651.6002,376.5,655.6002,366.5,659.6002,370.5,655.6002" style="stroke:#181818;stroke-width:1.0;"/><line style="stroke:#181818;stroke-width:1.0;" x1="219.5" x2="372.5" y1="655.6002" y2="655.6002"/><text fill="#000000" font-family="sans-serif" font-size="13" lengthAdjust="spacing" textLength="132" x="226.5" y="651.0002">invoke(this, aggt, "xml")</text><line style="stroke:#181818;stroke-width:1.0;" x1="843.5" x2="890.5" y1="680.2002" y2="680.2002"/><line style="stroke:#181818;stroke-width:1.0;" x1="890.5" x2="890.5" y1="680.2002" y2="693.2002"/><line style="stroke:#181818;stroke-width:1.0;" x1="849.5" x2="890.5" y1="693.2002" y2="693.2002"/><polygon fill="#181818" points="859.5,689.2002,849.5,693.2002,859.5,697.2002,855.5,693.2002" style="stroke:#181818;stroke-width:1.0;"/><text fill="#000000" font-family="sans-serif" font-size="13" lengthAdjust="spacing" textLength="84" x="855.5" y="675.6002">handleLayout()</text><polygon fill="#181818" points="1012.5,723.8002,1022.5,727.8002,1012.5,731.8002,1016.5,727.8002" style="stroke:#181818;stroke-width:1.0;"/><line style="stroke:#181818;stroke-width:1.0;" x1="848.5" x2="1018.5" y1="727.8002" y2="727.8002"/><text fill="#000000" font-family="sans-serif" font-size="13" lengthAdjust="spacing" textLength="78" x="855.5" y="723.2002">addLayout(to)</text><polygon fill="#181818" points="1012.5,753.4002,1022.5,757.4002,1012.5,761.4002,1016.5,757.4002" style="stroke:#181818;stroke-width:1.0;"/><line style="stroke:#181818;stroke-width:1.0;" x1="848.5" x2="1018.5" y1="757.4002" y2="757.4002"/><text fill="#000000" font-family="sans-serif" font-size="13" lengthAdjust="spacing" textLength="152" x="855.5" y="752.8002">addPropertyDescription(to)</text><polygon fill="#181818" points="230.5,783.0002,220.5,787.0002,230.5,791.0002,226.5,787.0002" style="stroke:#181818;stroke-width:1.0;"/><line style="stroke:#181818;stroke-width:1.0;" x1="224.5" x2="837.5" y1="787.0002" y2="787.0002"/><text fill="#000000" font-family="sans-serif" font-size="13" lengthAdjust="spacing" textLength="91" x="236.5" y="782.4002">invokeWith(this)</text><polygon fill="#181818" points="366.5,812.6002,376.5,816.6002,366.5,820.6002,370.5,816.6002" style="stroke:#181818;stroke-width:1.0;"/><line style="stroke:#181818;stroke-width:1.0;" x1="219.5" x2="372.5" y1="816.6002" y2="816.6002"/><text fill="#000000" font-family="sans-serif" font-size="13" lengthAdjust="spacing" textLength="97" x="226.5" y="812.0002">invoke(this, aggt)</text><polygon fill="#181818" points="1012.5,842.2003,1022.5,846.2003,1012.5,850.2003,1016.5,846.2003" style="stroke:#181818;stroke-width:1.0;"/><line style="stroke:#181818;stroke-width:1.0;" x1="843.5" x2="1018.5" y1="846.2003" y2="846.2003"/><text fill="#000000" font-family="sans-serif" font-size="13" lengthAdjust="spacing" textLength="100" x="850.5" y="841.6003">canBeDisplayed()</text><polygon fill="#181818" points="112.5,871.8003,102.5,875.8003,112.5,879.8003,108.5,875.8003" style="stroke:#181818;stroke-width:1.0;"/><line style="stroke:#181818;stroke-width:1.0;" x1="106.5" x2="837.5" y1="875.8003" y2="875.8003"/><text fill="#000000" font-family="sans-serif" font-size="13" lengthAdjust="spacing" textLength="63" x="118.5" y="871.2003">openView()</text><polygon fill="#181818" points="33.5,901.4003,23.5,905.4003,33.5,909.4003,29.5,905.4003" style="stroke:#181818;stroke-width:1.0;"/><line style="stroke:#181818;stroke-width:1.0;" x1="27.5" x2="100.5" y1="905.4003" y2="905.4003"/><text fill="#000000" font-family="sans-serif" font-size="13" lengthAdjust="spacing" textLength="42" x="39.5" y="900.8003">present</text><!--MD5=[be4fe55b13ca84f608846373157a778e]
@startuml
actor User
participant "<<Singleton>>\nUI Manager" as UI
participant "<<description>>\nLink" as LNK #LightBlue
participant "(Xml)HttpRequest" as XHR
participant "<<ChainOfResponsibility>>\nResponseHandler" as RH
participant "<<description>>\n<<EventStore>>\nLogEntry" as LE #LightBlue
participant "<<moment-interval>>\nCollectionAggregator" as AGGT  #Pink
participant "<<thing>>\n<<DisplayModel>>\nCollectionDM" as DM #LightGreen
participant "<<description>>\nTransferObject" as TO #LightBlue

User -> UI : listAll()
UI -> LNK : invoke()
LNK -> XHR : Invoke()
XHR -> RH : handle()
activate RH
RH -> RH : successor.handle()
RH -> TO : parse()
RH -> LE : setTransferObject()
RH -> LE : addAggegator()
RH -> AGGT : update(logEntry)
deactivate RH
activate AGGT

AGGT -> AGGT : handleList()
activate AGGT
AGGT -> LNK : invokeWith(this)
LNK -> XHR: invoke(this, aggt)
deactivate AGGT

AGGT -> AGGT : handleObject()
activate AGGT
AGGT -> DM : addData(to)
AGGT -> LNK : invokeWith(this, "json")
LNK -> XHR: invoke(this, aggt, "json")
AGGT -> LNK : invokeWith(this, "xml")
LNK -> XHR: invoke(this, aggt, "xml")
deactivate AGGT

AGGT -> AGGT : handleLayout()
activate AGGT
AGGT -> DM : addLayout(to)
AGGT -> DM : addPropertyDescription(to)
AGGT -> LNK : invokeWith(this)
LNK -> XHR: invoke(this, aggt)
deactivate AGGT

AGGT -> DM : canBeDisplayed()
AGGT -> UI : openView()
deactivate AGGT


UI -> User : present
@enduml

PlantUML version 1.2022.5(Sat Apr 30 10:55:52 GMT 2022)
(GPL source distribution)
Java Runtime: OpenJDK Runtime Environment
JVM: OpenJDK 64-Bit Server VM
Default Encoding: UTF-8
Language: en
Country: US
--></g></svg>