<?xml version="1.0" encoding="UTF-8" standalone="no"?><svg xmlns="http://www.w3.org/2000/svg" xmlns:xlink="http://www.w3.org/1999/xlink" contentStyleType="text/css" height="1163px" preserveAspectRatio="none" style="width:595px;height:1163px;background:#FFFFFF;" version="1.1" viewBox="0 0 595 1163" width="595px" zoomAndPan="magnify"><defs/><g><!--MD5=[01435ace8273dc3cae88e7f376e4d373]
cluster core--><g id="cluster_core"><path d="M437,156 L468,156 A3.75,3.75 0 0 1 470.5,158.5 L477.5,178.7999 L586,178.7999 A2.5,2.5 0 0 1 588.5,181.2999 L588.5,269.5 A2.5,2.5 0 0 1 586,272 L437,272 A2.5,2.5 0 0 1 434.5,269.5 L434.5,158.5 A2.5,2.5 0 0 1 437,156 " style="stroke:#000000;stroke-width:1.5;fill:none;"/><line style="stroke:#000000;stroke-width:1.5;fill:none;" x1="434.5" x2="477.5" y1="178.7999" y2="178.7999"/><text fill="#000000" font-family="sans-serif" font-size="14" font-weight="bold" lengthAdjust="spacing" textLength="30" x="438.5" y="171.9999">core</text></g><!--MD5=[602dbec1f7d4de6c4f5ea6846e774687]
class core.Dispatcher--><g id="elem_core.Dispatcher"><rect codeLine="21" fill="#F1F1F1" height="64.7999" id="core.Dispatcher" rx="2.5" ry="2.5" style="stroke:#181818;stroke-width:0.5;" width="121" x="451" y="191"/><ellipse cx="475.9" cy="207" fill="#ADD1B2" rx="11" ry="11" style="stroke:#181818;stroke-width:1.0;"/><path d="M475.2594,210.7813 Q476.0563,210.7813 476.6188,210.5938 Q477.1969,210.3906 477.4313,210.1719 Q477.6813,209.9375 477.9156,209.75 Q478.1656,209.5469 478.3844,209.5469 Q478.7281,209.5469 478.9781,209.8125 Q479.2438,210.0625 479.2438,210.3906 Q479.2438,211.125 478.0719,211.8125 Q476.9156,212.4844 475.2125,212.4844 Q473.0563,212.4844 471.6344,211.2188 Q470.2125,209.9531 470.2125,208.0156 L470.2125,206.8906 Q470.2125,204.8594 471.5406,203.4844 Q472.8688,202.0938 474.8375,202.0938 Q476.025,202.0938 477.2438,202.6719 L477.4156,202.75 Q477.7125,202.3438 478.1344,202.3438 Q478.6188,202.3438 478.7906,202.6406 Q478.9781,202.9219 478.9781,203.4688 L478.9781,204.8906 Q478.9781,206.0156 478.1344,206.0156 Q477.8219,206.0156 477.6188,205.8438 Q477.4313,205.6719 477.3844,205.5313 Q477.3531,205.375 477.3063,205.1094 Q477.1969,204.5938 476.6813,204.2813 Q476.1656,203.9688 475.7125,203.8906 Q475.275,203.7969 474.9,203.7969 Q473.6188,203.7969 472.7594,204.6719 Q471.9156,205.5469 471.9156,206.8906 L471.9156,207.9844 Q471.9156,209.2656 472.8219,210.0313 Q473.7281,210.7813 475.2594,210.7813 Z " fill="#000000"/><text fill="#000000" font-family="sans-serif" font-size="14" lengthAdjust="spacing" textLength="67" x="492.1" y="212.6">Dispatcher</text><line style="stroke:#181818;stroke-width:0.5;" x1="452" x2="571" y1="223" y2="223"/><text fill="#000000" font-family="sans-serif" font-size="14" lengthAdjust="spacing" textLength="109" x="457" y="240.9999">delegate:IHandler</text><line style="stroke:#181818;stroke-width:0.5;" x1="452" x2="571" y1="247.7999" y2="247.7999"/></g><!--MD5=[432c1a4756a6140e3e6346ba5e0933d4]
class IHandler--><g id="elem_IHandler"><rect codeLine="1" fill="#F1F1F1" height="98.3998" id="IHandler" rx="2.5" ry="2.5" style="stroke:#181818;stroke-width:0.5;" width="89" x="209" y="7"/><ellipse cx="225.35" cy="23" fill="#B4A7E5" rx="11" ry="11" style="stroke:#181818;stroke-width:1.0;"/><path d="M228.0219,26.2969 Q228.5688,26.2969 228.85,26.4844 Q229.1313,26.6563 229.1313,27.1563 Q229.1313,28 228.0219,28 L222.8813,28 Q221.7563,28 221.7563,27.1563 Q221.7563,26.6563 222.0375,26.4844 Q222.3344,26.2969 222.8813,26.2969 L224.6,26.2969 L224.6,19.7813 L222.8813,19.7813 Q221.7563,19.7813 221.7563,18.9375 Q221.7563,18.4531 222.0375,18.2813 Q222.3344,18.0938 222.8813,18.0938 L228.0219,18.0938 Q228.5688,18.0938 228.85,18.2813 Q229.1313,18.4531 229.1313,18.9375 Q229.1313,19.7813 228.0219,19.7813 L226.3031,19.7813 L226.3031,26.2969 L228.0219,26.2969 Z " fill="#000000"/><text fill="#000000" font-family="sans-serif" font-size="14" font-style="italic" lengthAdjust="spacing" textLength="54" x="239.65" y="28.6">IHandler</text><line style="stroke:#181818;stroke-width:0.5;" x1="210" x2="297" y1="39" y2="39"/><line style="stroke:#181818;stroke-width:0.5;" x1="210" x2="297" y1="47" y2="47"/><text fill="#000000" font-family="sans-serif" font-size="14" lengthAdjust="spacing" textLength="52" x="215" y="64.9999">handle()</text><text fill="#000000" font-family="sans-serif" font-size="14" lengthAdjust="spacing" textLength="77" x="215" y="81.7999">canHandle()</text><text fill="#000000" font-family="sans-serif" font-size="14" lengthAdjust="spacing" textLength="69" x="215" y="98.5998">doHandle()</text></g><!--MD5=[01b95d182fe8d23fc8b232b64dd5b18e]
class AbstractHandler--><g id="elem_AbstractHandler"><rect codeLine="6" fill="#F1F1F1" height="115.1997" id="AbstractHandler" rx="2.5" ry="2.5" style="stroke:#181818;stroke-width:0.5;" width="134" x="186.5" y="166"/><ellipse cx="201.5" cy="182" fill="#A9DCDF" rx="11" ry="11" style="stroke:#181818;stroke-width:1.0;"/><path d="M202.4531,185.6563 Q202.4531,185.1563 202.7344,184.9844 Q203.0313,184.7969 203.5781,184.7969 L203.9688,184.7969 L203.5781,183.8125 L199.5313,183.8125 L199.1406,184.7969 L199.5313,184.7969 Q200.6406,184.7969 200.6406,185.6563 Q200.6406,186.5 199.5313,186.5 L197.2656,186.5 Q196.1406,186.5 196.1406,185.6563 Q196.1406,185.1406 196.4375,184.9688 Q196.7344,184.7969 197.2813,184.7969 L199.9219,178.2813 L198.8438,178.2813 Q197.7031,178.2813 197.7031,177.4375 Q197.7031,176.9219 198,176.7656 Q198.2969,176.5938 198.8438,176.5938 L202.5156,176.5938 L205.9063,184.7969 Q207.0625,184.7969 207.0625,185.6563 Q207.0625,186.5 205.9375,186.5 L203.5781,186.5 Q202.4531,186.5 202.4531,185.6563 Z M202.875,182.1094 L201.5469,178.8438 L200.2031,182.1094 L202.875,182.1094 Z " fill="#000000"/><text fill="#000000" font-family="sans-serif" font-size="14" font-style="italic" lengthAdjust="spacing" textLength="102" x="215.5" y="187.6">AbstractHandler</text><line style="stroke:#181818;stroke-width:0.5;" x1="187.5" x2="319.5" y1="198" y2="198"/><text fill="#000000" font-family="sans-serif" font-size="14" lengthAdjust="spacing" textLength="119" x="192.5" y="215.9999">successor:IHandler</text><line style="stroke:#181818;stroke-width:0.5;" x1="187.5" x2="319.5" y1="222.7999" y2="222.7999"/><text fill="#000000" font-family="sans-serif" font-size="14" lengthAdjust="spacing" textLength="52" x="192.5" y="240.7999">handle()</text><text fill="#000000" font-family="sans-serif" font-size="14" lengthAdjust="spacing" textLength="77" x="192.5" y="257.5998">canHandle()</text><text fill="#000000" font-family="sans-serif" font-size="14" lengthAdjust="spacing" textLength="69" x="192.5" y="274.3997">doHandle()</text></g><!--MD5=[92c80859769a7ec9401a62787a54d1d4]
class ListHandler--><g id="elem_ListHandler"><rect fill="#F1F1F1" height="48" id="ListHandler" rx="2.5" ry="2.5" style="stroke:#181818;stroke-width:0.5;" width="103" x="236" y="733"/><ellipse cx="251" cy="749" fill="#ADD1B2" rx="11" ry="11" style="stroke:#181818;stroke-width:1.0;"/><path d="M250.3594,752.7813 Q251.1563,752.7813 251.7188,752.5938 Q252.2969,752.3906 252.5313,752.1719 Q252.7813,751.9375 253.0156,751.75 Q253.2656,751.5469 253.4844,751.5469 Q253.8281,751.5469 254.0781,751.8125 Q254.3438,752.0625 254.3438,752.3906 Q254.3438,753.125 253.1719,753.8125 Q252.0156,754.4844 250.3125,754.4844 Q248.1563,754.4844 246.7344,753.2188 Q245.3125,751.9531 245.3125,750.0156 L245.3125,748.8906 Q245.3125,746.8594 246.6406,745.4844 Q247.9688,744.0938 249.9375,744.0938 Q251.125,744.0938 252.3438,744.6719 L252.5156,744.75 Q252.8125,744.3438 253.2344,744.3438 Q253.7188,744.3438 253.8906,744.6406 Q254.0781,744.9219 254.0781,745.4688 L254.0781,746.8906 Q254.0781,748.0156 253.2344,748.0156 Q252.9219,748.0156 252.7188,747.8438 Q252.5313,747.6719 252.4844,747.5313 Q252.4531,747.375 252.4063,747.1094 Q252.2969,746.5938 251.7813,746.2813 Q251.2656,745.9688 250.8125,745.8906 Q250.375,745.7969 250,745.7969 Q248.7188,745.7969 247.8594,746.6719 Q247.0156,747.5469 247.0156,748.8906 L247.0156,749.9844 Q247.0156,751.2656 247.9219,752.0313 Q248.8281,752.7813 250.3594,752.7813 Z " fill="#000000"/><text fill="#000000" font-family="sans-serif" font-size="14" lengthAdjust="spacing" textLength="71" x="265" y="754.6">ListHandler</text><line style="stroke:#181818;stroke-width:0.5;" x1="237" x2="338" y1="765" y2="765"/><line style="stroke:#181818;stroke-width:0.5;" x1="237" x2="338" y1="773" y2="773"/></g><!--MD5=[1fdae39db92be1b5a08505623de70b6e]
class MemberHandler--><g id="elem_MemberHandler"><rect fill="#F1F1F1" height="48" id="MemberHandler" rx="2.5" ry="2.5" style="stroke:#181818;stroke-width:0.5;" width="131" x="307" y="608"/><ellipse cx="322" cy="624" fill="#ADD1B2" rx="11" ry="11" style="stroke:#181818;stroke-width:1.0;"/><path d="M321.3594,627.7813 Q322.1563,627.7813 322.7188,627.5938 Q323.2969,627.3906 323.5313,627.1719 Q323.7813,626.9375 324.0156,626.75 Q324.2656,626.5469 324.4844,626.5469 Q324.8281,626.5469 325.0781,626.8125 Q325.3438,627.0625 325.3438,627.3906 Q325.3438,628.125 324.1719,628.8125 Q323.0156,629.4844 321.3125,629.4844 Q319.1563,629.4844 317.7344,628.2188 Q316.3125,626.9531 316.3125,625.0156 L316.3125,623.8906 Q316.3125,621.8594 317.6406,620.4844 Q318.9688,619.0938 320.9375,619.0938 Q322.125,619.0938 323.3438,619.6719 L323.5156,619.75 Q323.8125,619.3438 324.2344,619.3438 Q324.7188,619.3438 324.8906,619.6406 Q325.0781,619.9219 325.0781,620.4688 L325.0781,621.8906 Q325.0781,623.0156 324.2344,623.0156 Q323.9219,623.0156 323.7188,622.8438 Q323.5313,622.6719 323.4844,622.5313 Q323.4531,622.375 323.4063,622.1094 Q323.2969,621.5938 322.7813,621.2813 Q322.2656,620.9688 321.8125,620.8906 Q321.375,620.7969 321,620.7969 Q319.7188,620.7969 318.8594,621.6719 Q318.0156,622.5469 318.0156,623.8906 L318.0156,624.9844 Q318.0156,626.2656 318.9219,627.0313 Q319.8281,627.7813 321.3594,627.7813 Z " fill="#000000"/><text fill="#000000" font-family="sans-serif" font-size="14" lengthAdjust="spacing" textLength="99" x="336" y="629.6">MemberHandler</text><line style="stroke:#181818;stroke-width:0.5;" x1="308" x2="437" y1="640" y2="640"/><line style="stroke:#181818;stroke-width:0.5;" x1="308" x2="437" y1="648" y2="648"/></g><!--MD5=[8f04c489d5dc4fe6abecb24ddc6c65b0]
class ServiceHandler--><g id="elem_ServiceHandler"><rect fill="#F1F1F1" height="48" id="ServiceHandler" rx="2.5" ry="2.5" style="stroke:#181818;stroke-width:0.5;" width="126" x="448.5" y="358"/><ellipse cx="463.5" cy="374" fill="#ADD1B2" rx="11" ry="11" style="stroke:#181818;stroke-width:1.0;"/><path d="M462.8594,377.7813 Q463.6563,377.7813 464.2188,377.5938 Q464.7969,377.3906 465.0313,377.1719 Q465.2813,376.9375 465.5156,376.75 Q465.7656,376.5469 465.9844,376.5469 Q466.3281,376.5469 466.5781,376.8125 Q466.8438,377.0625 466.8438,377.3906 Q466.8438,378.125 465.6719,378.8125 Q464.5156,379.4844 462.8125,379.4844 Q460.6563,379.4844 459.2344,378.2188 Q457.8125,376.9531 457.8125,375.0156 L457.8125,373.8906 Q457.8125,371.8594 459.1406,370.4844 Q460.4688,369.0938 462.4375,369.0938 Q463.625,369.0938 464.8438,369.6719 L465.0156,369.75 Q465.3125,369.3438 465.7344,369.3438 Q466.2188,369.3438 466.3906,369.6406 Q466.5781,369.9219 466.5781,370.4688 L466.5781,371.8906 Q466.5781,373.0156 465.7344,373.0156 Q465.4219,373.0156 465.2188,372.8438 Q465.0313,372.6719 464.9844,372.5313 Q464.9531,372.375 464.9063,372.1094 Q464.7969,371.5938 464.2813,371.2813 Q463.7656,370.9688 463.3125,370.8906 Q462.875,370.7969 462.5,370.7969 Q461.2188,370.7969 460.3594,371.6719 Q459.5156,372.5469 459.5156,373.8906 L459.5156,374.9844 Q459.5156,376.2656 460.4219,377.0313 Q461.3281,377.7813 462.8594,377.7813 Z " fill="#000000"/><text fill="#000000" font-family="sans-serif" font-size="14" lengthAdjust="spacing" textLength="94" x="477.5" y="379.6">ServiceHandler</text><line style="stroke:#181818;stroke-width:0.5;" x1="449.5" x2="573.5" y1="390" y2="390"/><line style="stroke:#181818;stroke-width:0.5;" x1="449.5" x2="573.5" y1="398" y2="398"/></g><!--MD5=[3f045702497cffb93d4ebeb2839b68f5]
class DefaultHandler--><g id="elem_DefaultHandler"><rect fill="#F1F1F1" height="48" id="DefaultHandler" rx="2.5" ry="2.5" style="stroke:#181818;stroke-width:0.5;" width="125" x="7" y="1108"/><ellipse cx="22" cy="1124" fill="#ADD1B2" rx="11" ry="11" style="stroke:#181818;stroke-width:1.0;"/><path d="M21.3594,1127.7813 Q22.1563,1127.7813 22.7188,1127.5938 Q23.2969,1127.3906 23.5313,1127.1719 Q23.7813,1126.9375 24.0156,1126.75 Q24.2656,1126.5469 24.4844,1126.5469 Q24.8281,1126.5469 25.0781,1126.8125 Q25.3438,1127.0625 25.3438,1127.3906 Q25.3438,1128.125 24.1719,1128.8125 Q23.0156,1129.4844 21.3125,1129.4844 Q19.1563,1129.4844 17.7344,1128.2188 Q16.3125,1126.9531 16.3125,1125.0156 L16.3125,1123.8906 Q16.3125,1121.8594 17.6406,1120.4844 Q18.9688,1119.0938 20.9375,1119.0938 Q22.125,1119.0938 23.3438,1119.6719 L23.5156,1119.75 Q23.8125,1119.3438 24.2344,1119.3438 Q24.7188,1119.3438 24.8906,1119.6406 Q25.0781,1119.9219 25.0781,1120.4688 L25.0781,1121.8906 Q25.0781,1123.0156 24.2344,1123.0156 Q23.9219,1123.0156 23.7188,1122.8438 Q23.5313,1122.6719 23.4844,1122.5313 Q23.4531,1122.375 23.4063,1122.1094 Q23.2969,1121.5938 22.7813,1121.2813 Q22.2656,1120.9688 21.8125,1120.8906 Q21.375,1120.7969 21,1120.7969 Q19.7188,1120.7969 18.8594,1121.6719 Q18.0156,1122.5469 18.0156,1123.8906 L18.0156,1124.9844 Q18.0156,1126.2656 18.9219,1127.0313 Q19.8281,1127.7813 21.3594,1127.7813 Z " fill="#000000"/><text fill="#000000" font-family="sans-serif" font-size="14" lengthAdjust="spacing" textLength="93" x="36" y="1129.6">DefaultHandler</text><line style="stroke:#181818;stroke-width:0.5;" x1="8" x2="131" y1="1140" y2="1140"/><line style="stroke:#181818;stroke-width:0.5;" x1="8" x2="131" y1="1148" y2="1148"/></g><!--MD5=[30234db3d6175ac3d61fafb4c62888e3]
class LayoutHandler--><g id="elem_LayoutHandler"><rect fill="#F1F1F1" height="48" id="LayoutHandler" rx="2.5" ry="2.5" style="stroke:#181818;stroke-width:0.5;" width="123" x="94" y="983"/><ellipse cx="109" cy="999" fill="#ADD1B2" rx="11" ry="11" style="stroke:#181818;stroke-width:1.0;"/><path d="M108.3594,1002.7813 Q109.1563,1002.7813 109.7188,1002.5938 Q110.2969,1002.3906 110.5313,1002.1719 Q110.7813,1001.9375 111.0156,1001.75 Q111.2656,1001.5469 111.4844,1001.5469 Q111.8281,1001.5469 112.0781,1001.8125 Q112.3438,1002.0625 112.3438,1002.3906 Q112.3438,1003.125 111.1719,1003.8125 Q110.0156,1004.4844 108.3125,1004.4844 Q106.1563,1004.4844 104.7344,1003.2188 Q103.3125,1001.9531 103.3125,1000.0156 L103.3125,998.8906 Q103.3125,996.8594 104.6406,995.4844 Q105.9688,994.0938 107.9375,994.0938 Q109.125,994.0938 110.3438,994.6719 L110.5156,994.75 Q110.8125,994.3438 111.2344,994.3438 Q111.7188,994.3438 111.8906,994.6406 Q112.0781,994.9219 112.0781,995.4688 L112.0781,996.8906 Q112.0781,998.0156 111.2344,998.0156 Q110.9219,998.0156 110.7188,997.8438 Q110.5313,997.6719 110.4844,997.5313 Q110.4531,997.375 110.4063,997.1094 Q110.2969,996.5938 109.7813,996.2813 Q109.2656,995.9688 108.8125,995.8906 Q108.375,995.7969 108,995.7969 Q106.7188,995.7969 105.8594,996.6719 Q105.0156,997.5469 105.0156,998.8906 L105.0156,999.9844 Q105.0156,1001.2656 105.9219,1002.0313 Q106.8281,1002.7813 108.3594,1002.7813 Z " fill="#000000"/><text fill="#000000" font-family="sans-serif" font-size="14" lengthAdjust="spacing" textLength="91" x="123" y="1004.6">LayoutHandler</text><line style="stroke:#181818;stroke-width:0.5;" x1="95" x2="216" y1="1015" y2="1015"/><line style="stroke:#181818;stroke-width:0.5;" x1="95" x2="216" y1="1023" y2="1023"/></g><!--MD5=[7dc6510d79a2780c312fc79492c625e6]
class ObjectListHandler--><g id="elem_ObjectListHandler"><rect fill="#F1F1F1" height="48" id="ObjectListHandler" rx="2.5" ry="2.5" style="stroke:#181818;stroke-width:0.5;" width="143" x="165" y="858"/><ellipse cx="180" cy="874" fill="#ADD1B2" rx="11" ry="11" style="stroke:#181818;stroke-width:1.0;"/><path d="M179.3594,877.7813 Q180.1563,877.7813 180.7188,877.5938 Q181.2969,877.3906 181.5313,877.1719 Q181.7813,876.9375 182.0156,876.75 Q182.2656,876.5469 182.4844,876.5469 Q182.8281,876.5469 183.0781,876.8125 Q183.3438,877.0625 183.3438,877.3906 Q183.3438,878.125 182.1719,878.8125 Q181.0156,879.4844 179.3125,879.4844 Q177.1563,879.4844 175.7344,878.2188 Q174.3125,876.9531 174.3125,875.0156 L174.3125,873.8906 Q174.3125,871.8594 175.6406,870.4844 Q176.9688,869.0938 178.9375,869.0938 Q180.125,869.0938 181.3438,869.6719 L181.5156,869.75 Q181.8125,869.3438 182.2344,869.3438 Q182.7188,869.3438 182.8906,869.6406 Q183.0781,869.9219 183.0781,870.4688 L183.0781,871.8906 Q183.0781,873.0156 182.2344,873.0156 Q181.9219,873.0156 181.7188,872.8438 Q181.5313,872.6719 181.4844,872.5313 Q181.4531,872.375 181.4063,872.1094 Q181.2969,871.5938 180.7813,871.2813 Q180.2656,870.9688 179.8125,870.8906 Q179.375,870.7969 179,870.7969 Q177.7188,870.7969 176.8594,871.6719 Q176.0156,872.5469 176.0156,873.8906 L176.0156,874.9844 Q176.0156,876.2656 176.9219,877.0313 Q177.8281,877.7813 179.3594,877.7813 Z " fill="#000000"/><text fill="#000000" font-family="sans-serif" font-size="14" lengthAdjust="spacing" textLength="111" x="194" y="879.6">ObjectListHandler</text><line style="stroke:#181818;stroke-width:0.5;" x1="166" x2="307" y1="890" y2="890"/><line style="stroke:#181818;stroke-width:0.5;" x1="166" x2="307" y1="898" y2="898"/></g><!--MD5=[1a9c9b8ed36c32d73faf93f48bc25258]
class ActionHandler--><g id="elem_ActionHandler"><rect fill="#F1F1F1" height="48" id="ActionHandler" rx="2.5" ry="2.5" style="stroke:#181818;stroke-width:0.5;" width="119" x="378" y="483"/><ellipse cx="393" cy="499" fill="#ADD1B2" rx="11" ry="11" style="stroke:#181818;stroke-width:1.0;"/><path d="M392.3594,502.7813 Q393.1563,502.7813 393.7188,502.5938 Q394.2969,502.3906 394.5313,502.1719 Q394.7813,501.9375 395.0156,501.75 Q395.2656,501.5469 395.4844,501.5469 Q395.8281,501.5469 396.0781,501.8125 Q396.3438,502.0625 396.3438,502.3906 Q396.3438,503.125 395.1719,503.8125 Q394.0156,504.4844 392.3125,504.4844 Q390.1563,504.4844 388.7344,503.2188 Q387.3125,501.9531 387.3125,500.0156 L387.3125,498.8906 Q387.3125,496.8594 388.6406,495.4844 Q389.9688,494.0938 391.9375,494.0938 Q393.125,494.0938 394.3438,494.6719 L394.5156,494.75 Q394.8125,494.3438 395.2344,494.3438 Q395.7188,494.3438 395.8906,494.6406 Q396.0781,494.9219 396.0781,495.4688 L396.0781,496.8906 Q396.0781,498.0156 395.2344,498.0156 Q394.9219,498.0156 394.7188,497.8438 Q394.5313,497.6719 394.4844,497.5313 Q394.4531,497.375 394.4063,497.1094 Q394.2969,496.5938 393.7813,496.2813 Q393.2656,495.9688 392.8125,495.8906 Q392.375,495.7969 392,495.7969 Q390.7188,495.7969 389.8594,496.6719 Q389.0156,497.5469 389.0156,498.8906 L389.0156,499.9844 Q389.0156,501.2656 389.9219,502.0313 Q390.8281,502.7813 392.3594,502.7813 Z " fill="#000000"/><text fill="#000000" font-family="sans-serif" font-size="14" lengthAdjust="spacing" textLength="87" x="407" y="504.6">ActionHandler</text><line style="stroke:#181818;stroke-width:0.5;" x1="379" x2="496" y1="515" y2="515"/><line style="stroke:#181818;stroke-width:0.5;" x1="379" x2="496" y1="523" y2="523"/></g><!--MD5=[a7fb7b57ca781c6a4b9a475808d7efae]
reverse link IHandler to AbstractHandler--><g id="link_IHandler_AbstractHandler"><path codeLine="12" d="M253.5,125.73 C253.5,139.12 253.5,153.01 253.5,165.95 " fill="none" id="IHandler-backto-AbstractHandler" style="stroke:#181818;stroke-width:1.0;"/><polygon fill="none" points="246.5,125.31,253.5,105.31,260.5,125.31,246.5,125.31" style="stroke:#181818;stroke-width:1.0;"/></g><!--MD5=[1e1a9f76e335bb6e4b141b5634f6564f]
reverse link AbstractHandler to ListHandler--><g id="link_AbstractHandler_ListHandler"><path codeLine="13" d="M253.5,301.08 C253.5,326.51 253.5,354.97 253.5,381 C253.5,381 253.5,381 253.5,633 C253.5,668.89 267.12,708.61 277.11,732.94 " fill="none" id="AbstractHandler-backto-ListHandler" style="stroke:#181818;stroke-width:1.0;"/><polygon fill="none" points="246.5,301,253.5,281,260.5,301,246.5,301" style="stroke:#181818;stroke-width:1.0;"/></g><!--MD5=[e378d0f5a1852855970ccf5bbfb738ff]
reverse link AbstractHandler to MemberHandler--><g id="link_AbstractHandler_MemberHandler"><path codeLine="14" d="M276.37,300.44 C277.43,304.01 278.48,307.54 279.5,311 C312.3,421.96 350.61,554.86 365.8,607.69 " fill="none" id="AbstractHandler-backto-MemberHandler" style="stroke:#181818;stroke-width:1.0;"/><polygon fill="none" points="269.65,302.41,270.64,281.24,283.07,298.4,269.65,302.41" style="stroke:#181818;stroke-width:1.0;"/></g><!--MD5=[de4a9ef009c7b38c76d1f8afa542e34c]
reverse link AbstractHandler to ServiceHandler--><g id="link_AbstractHandler_ServiceHandler"><path codeLine="15" d="M338.74,264.53 C365.8,278.25 395.44,294.36 421.5,311 C443.69,325.17 467.11,343.51 484.5,357.86 " fill="none" id="AbstractHandler-backto-ServiceHandler" style="stroke:#181818;stroke-width:1.0;"/><polygon fill="none" points="335.28,270.63,320.5,255.44,341.52,258.1,335.28,270.63" style="stroke:#181818;stroke-width:1.0;"/></g><!--MD5=[4b442c1ce230fecf3cde00f32c933cfd]
reverse link AbstractHandler to DefaultHandler--><g id="link_AbstractHandler_DefaultHandler"><path codeLine="16" d="M167.6,249.92 C108.46,273.32 40.5,314.65 40.5,381 C40.5,381 40.5,381 40.5,1008 C40.5,1043.54 52.11,1083.36 60.64,1107.8 " fill="none" id="AbstractHandler-backto-DefaultHandler" style="stroke:#181818;stroke-width:1.0;"/><polygon fill="none" points="165.21,243.34,186.4,242.94,170.08,256.46,165.21,243.34" style="stroke:#181818;stroke-width:1.0;"/></g><!--MD5=[b032d7f4ca466463727e12c79a370096]
reverse link AbstractHandler to LayoutHandler--><g id="link_AbstractHandler_LayoutHandler"><path codeLine="17" d="M170.36,277.39 C139.34,303.97 111.5,339.41 111.5,381 C111.5,381 111.5,381 111.5,883 C111.5,919.51 128.9,958.75 141.82,982.84 " fill="none" id="AbstractHandler-backto-LayoutHandler" style="stroke:#181818;stroke-width:1.0;"/><polygon fill="none" points="166.25,271.71,186.24,264.69,175,282.65,166.25,271.71" style="stroke:#181818;stroke-width:1.0;"/></g><!--MD5=[2afa2609233b453cd4c2684e22e2fc94]
reverse link AbstractHandler to ObjectListHandler--><g id="link_AbstractHandler_ObjectListHandler"><path codeLine="18" d="M204.38,299.11 C192.17,324.11 182.5,352.81 182.5,381 C182.5,381 182.5,381 182.5,758 C182.5,795.31 203.59,834.03 219.41,857.82 " fill="none" id="AbstractHandler-backto-ObjectListHandler" style="stroke:#181818;stroke-width:1.0;"/><polygon fill="none" points="198.31,295.62,213.85,281.21,210.68,302.16,198.31,295.62" style="stroke:#181818;stroke-width:1.0;"/></g><!--MD5=[5905d95551bd1ca66aa16905076252fa]
reverse link AbstractHandler to ActionHandler--><g id="link_AbstractHandler_ActionHandler"><path codeLine="19" d="M334.77,291.93 C340.41,298.1 345.74,304.48 350.5,311 C391.18,366.67 418.68,444.38 430.67,482.72 " fill="none" id="AbstractHandler-backto-ActionHandler" style="stroke:#181818;stroke-width:1.0;"/><polygon fill="none" points="329.7,296.76,320.71,277.57,339.71,286.97,329.7,296.76" style="stroke:#181818;stroke-width:1.0;"/></g><!--MD5=[a4a5b3a7d6c003c3d1a274d923e00a94]
link core.Dispatcher to ServiceHandler--><g id="link_core.Dispatcher_ServiceHandler"><path codeLine="24" d="M511.5,256.17 C511.5,284.3 511.5,325.07 511.5,352.28 " fill="none" id="core.Dispatcher-to-ServiceHandler" style="stroke:#181818;stroke-width:1.0;"/><polygon fill="#181818" points="511.5,357.53,515.5,348.53,511.5,352.53,507.5,348.53,511.5,357.53" style="stroke:#181818;stroke-width:1.0;"/><text fill="#000000" font-family="sans-serif" font-size="13" lengthAdjust="spacing" textLength="49" x="512.5" y="325">delegate</text></g><!--MD5=[f6679089ebdf89bdbc81d060be924a03]
link ServiceHandler to ActionHandler--><g id="link_ServiceHandler_ActionHandler"><path codeLine="25" d="M497.58,406.14 C485.23,426.67 467.16,456.69 454.07,478.46 " fill="none" id="ServiceHandler-to-ActionHandler" style="stroke:#181818;stroke-width:1.0;"/><polygon fill="#181818" points="451.36,482.97,459.4343,477.3303,453.943,478.6888,452.5844,473.1975,451.36,482.97" style="stroke:#181818;stroke-width:1.0;"/><text fill="#000000" font-family="sans-serif" font-size="13" lengthAdjust="spacing" textLength="57" x="479.5" y="450">successor</text></g><!--MD5=[b0316ad5466822f840a489e3ce435aa0]
link ActionHandler to MemberHandler--><g id="link_ActionHandler_MemberHandler"><path codeLine="26" d="M425.27,531.14 C414.42,551.67 398.56,581.69 387.06,603.46 " fill="none" id="ActionHandler-to-MemberHandler" style="stroke:#181818;stroke-width:1.0;"/><polygon fill="#181818" points="384.67,607.97,392.4225,601.8955,387.014,603.5535,385.3561,598.1451,384.67,607.97" style="stroke:#181818;stroke-width:1.0;"/><text fill="#000000" font-family="sans-serif" font-size="13" lengthAdjust="spacing" textLength="57" x="410.5" y="575">successor</text></g><!--MD5=[be0579d02c04d18495a878966b4727c0]
link MemberHandler to ListHandler--><g id="link_MemberHandler_ListHandler"><path codeLine="27" d="M356.51,656.14 C342.27,676.75 321.4,706.94 306.35,728.73 " fill="none" id="MemberHandler-to-ListHandler" style="stroke:#181818;stroke-width:1.0;"/><polygon fill="#181818" points="303.42,732.97,311.827,727.8395,306.2623,728.8565,305.2454,723.2918,303.42,732.97" style="stroke:#181818;stroke-width:1.0;"/><text fill="#000000" font-family="sans-serif" font-size="13" lengthAdjust="spacing" textLength="57" x="336.5" y="700">successor</text></g><!--MD5=[6349002bc45643cd2d82a494985549de]
link ListHandler to ObjectListHandler--><g id="link_ListHandler_ObjectListHandler"><path codeLine="28" d="M277.91,781.14 C269.43,801.58 257.05,831.44 248.03,853.18 " fill="none" id="ListHandler-to-ObjectListHandler" style="stroke:#181818;stroke-width:1.0;"/><polygon fill="#181818" points="246.05,857.97,253.1934,851.1898,247.966,853.3517,245.8041,848.1242,246.05,857.97" style="stroke:#181818;stroke-width:1.0;"/><text fill="#000000" font-family="sans-serif" font-size="13" lengthAdjust="spacing" textLength="57" x="266.5" y="825">successor</text></g><!--MD5=[9f099e972c57934aec35d8d280dd941f]
link ObjectListHandler to LayoutHandler--><g id="link_ObjectListHandler_LayoutHandler"><path codeLine="29" d="M221.26,906.14 C207.69,926.75 187.81,956.94 173.46,978.73 " fill="none" id="ObjectListHandler-to-LayoutHandler" style="stroke:#181818;stroke-width:1.0;"/><polygon fill="#181818" points="170.67,982.97,178.9696,977.6674,173.427,978.7988,172.2956,973.2562,170.67,982.97" style="stroke:#181818;stroke-width:1.0;"/><text fill="#000000" font-family="sans-serif" font-size="13" lengthAdjust="spacing" textLength="57" x="202.5" y="950">successor</text></g><!--MD5=[565d4d0f940724c8f3b88f5e7ae3cc0e]
link LayoutHandler to DefaultHandler--><g id="link_LayoutHandler_DefaultHandler"><path codeLine="30" d="M139.32,1031.14 C124.91,1051.75 103.8,1081.94 88.57,1103.73 " fill="none" id="LayoutHandler-to-DefaultHandler" style="stroke:#181818;stroke-width:1.0;"/><polygon fill="#181818" points="85.6,1107.97,94.0274,1102.873,88.4587,1103.8678,87.4639,1098.2991,85.6,1107.97" style="stroke:#181818;stroke-width:1.0;"/><text fill="#000000" font-family="sans-serif" font-size="13" lengthAdjust="spacing" textLength="57" x="119.5" y="1075">successor</text></g><!--MD5=[157c106a3f9d7e4516b21e7d322c1d0a]
@startuml
interface IHandler {
    handle()
    canHandle()
    doHandle()
}
abstract class AbstractHandler {
    successor:IHandler
    handle()
    canHandle()
    doHandle()
}
IHandler <|- - AbstractHandler
AbstractHandler <|- - ListHandler
AbstractHandler <|- - MemberHandler
AbstractHandler <|- - ServiceHandler
AbstractHandler <|- - DefaultHandler
AbstractHandler <|- - LayoutHandler
AbstractHandler <|- - ObjectListHandler
AbstractHandler <|- - ActionHandler

class core.Dispatcher {
    delegate:IHandler
}
core.Dispatcher - -> ServiceHandler : delegate
ServiceHandler - -> ActionHandler : successor
ActionHandler - -> MemberHandler : successor
MemberHandler - ->  ListHandler : successor
ListHandler - ->  ObjectListHandler : successor
ObjectListHandler - ->  LayoutHandler : successor
LayoutHandler - ->  DefaultHandler : successor
@enduml

PlantUML version 1.2022.3(Tue Mar 29 16:10:57 GMT 2022)
(GPL source distribution)
Java Runtime: OpenJDK Runtime Environment
JVM: OpenJDK 64-Bit Server VM
Default Encoding: UTF-8
Language: en
Country: US
--></g></svg>