<?xml version="1.0" encoding="UTF-8" standalone="no"?><svg xmlns="http://www.w3.org/2000/svg" xmlns:xlink="http://www.w3.org/1999/xlink" contentScriptType="application/ecmascript" contentStyleType="text/css" height="1069px" preserveAspectRatio="none" style="width:1248px;height:1069px;" version="1.1" viewBox="0 0 1248 1069" width="1248px" zoomAndPan="magnify"><defs><filter height="300%" id="ftj7wtdgyc8tf" width="300%" x="-1" y="-1"><feGaussianBlur result="blurOut" stdDeviation="2.0"/><feColorMatrix in="blurOut" result="blurOut2" type="matrix" values="0 0 0 0 0 0 0 0 0 0 0 0 0 0 0 0 0 0 .4 0"/><feOffset dx="4.0" dy="4.0" in="blurOut2" result="blurOut3"/><feBlend in="SourceGraphic" in2="blurOut3" mode="normal"/></filter></defs><g><rect fill="#FFFFFF" filter="url(#ftj7wtdgyc8tf)" height="170.7246" style="stroke:#A80036;stroke-width:1.0;" width="10" x="552.5" y="219.0742"/><rect fill="#FFFFFF" filter="url(#ftj7wtdgyc8tf)" height="543.7188" style="stroke:#A80036;stroke-width:1.0;" width="10" x="856.5" y="389.7988"/><rect fill="#FFFFFF" filter="url(#ftj7wtdgyc8tf)" height="68.0898" style="stroke:#A80036;stroke-width:1.0;" width="10" x="861.5" y="429.3438"/><rect fill="#FFFFFF" filter="url(#ftj7wtdgyc8tf)" height="162.7246" style="stroke:#A80036;stroke-width:1.0;" width="10" x="861.5" y="536.9785"/><rect fill="#FFFFFF" filter="url(#ftj7wtdgyc8tf)" height="131.1797" style="stroke:#A80036;stroke-width:1.0;" width="10" x="861.5" y="739.248"/><line style="stroke:#A80036;stroke-width:1.0;stroke-dasharray:5.0,5.0;" x1="22" x2="22" y1="90.8945" y2="983.0625"/><line style="stroke:#A80036;stroke-width:1.0;stroke-dasharray:5.0,5.0;" x1="103" x2="103" y1="90.8945" y2="983.0625"/><line style="stroke:#A80036;stroke-width:1.0;stroke-dasharray:5.0,5.0;" x1="226" x2="226" y1="90.8945" y2="983.0625"/><line style="stroke:#A80036;stroke-width:1.0;stroke-dasharray:5.0,5.0;" x1="392.5" x2="392.5" y1="90.8945" y2="983.0625"/><line style="stroke:#A80036;stroke-width:1.0;stroke-dasharray:5.0,5.0;" x1="557.5" x2="557.5" y1="90.8945" y2="983.0625"/><line style="stroke:#A80036;stroke-width:1.0;stroke-dasharray:5.0,5.0;" x1="718.5" x2="718.5" y1="90.8945" y2="983.0625"/><line style="stroke:#A80036;stroke-width:1.0;stroke-dasharray:5.0,5.0;" x1="861.5" x2="861.5" y1="90.8945" y2="983.0625"/><line style="stroke:#A80036;stroke-width:1.0;stroke-dasharray:5.0,5.0;" x1="1044.5" x2="1044.5" y1="90.8945" y2="983.0625"/><line style="stroke:#A80036;stroke-width:1.0;stroke-dasharray:5.0,5.0;" x1="1179.5" x2="1179.5" y1="90.8945" y2="983.0625"/><text fill="#000000" font-family="sans-serif" font-size="14" lengthAdjust="spacing" textLength="28" x="5" y="86.7383">User</text><ellipse cx="22" cy="15" fill="#FEFECE" filter="url(#ftj7wtdgyc8tf)" rx="8" ry="8" style="stroke:#A80036;stroke-width:2.0;"/><path d="M22,23 L22,50 M9,31 L35,31 M22,50 L9,65 M22,50 L35,65 " fill="none" filter="url(#ftj7wtdgyc8tf)" style="stroke:#A80036;stroke-width:2.0;"/><text fill="#000000" font-family="sans-serif" font-size="14" lengthAdjust="spacing" textLength="28" x="5" y="996.8008">User</text><ellipse cx="22" cy="1010.957" fill="#FEFECE" filter="url(#ftj7wtdgyc8tf)" rx="8" ry="8" style="stroke:#A80036;stroke-width:2.0;"/><path d="M22,1018.957 L22,1045.957 M9,1026.957 L35,1026.957 M22,1045.957 L9,1060.957 M22,1045.957 L35,1060.957 " fill="none" filter="url(#ftj7wtdgyc8tf)" style="stroke:#A80036;stroke-width:2.0;"/><rect fill="#FEFECE" filter="url(#ftj7wtdgyc8tf)" height="51.7891" style="stroke:#A80036;stroke-width:1.5;" width="104" x="49" y="34.1055"/><text fill="#000000" font-family="sans-serif" font-size="14" lengthAdjust="spacing" textLength="90" x="56" y="55.8438">&lt;&lt;Singleton&gt;&gt;</text><text fill="#000000" font-family="sans-serif" font-size="14" lengthAdjust="spacing" textLength="71" x="65.5" y="74.7383">UI Manager</text><rect fill="#FEFECE" filter="url(#ftj7wtdgyc8tf)" height="51.7891" style="stroke:#A80036;stroke-width:1.5;" width="104" x="49" y="982.0625"/><text fill="#000000" font-family="sans-serif" font-size="14" lengthAdjust="spacing" textLength="90" x="56" y="1003.8008">&lt;&lt;Singleton&gt;&gt;</text><text fill="#000000" font-family="sans-serif" font-size="14" lengthAdjust="spacing" textLength="71" x="65.5" y="1022.6953">UI Manager</text><rect fill="#ADD8E6" filter="url(#ftj7wtdgyc8tf)" height="51.7891" style="stroke:#A80036;stroke-width:1.5;" width="114" x="167" y="34.1055"/><text fill="#000000" font-family="sans-serif" font-size="14" lengthAdjust="spacing" textLength="100" x="174" y="55.8438">&lt;&lt;description&gt;&gt;</text><text fill="#000000" font-family="sans-serif" font-size="14" lengthAdjust="spacing" textLength="25" x="211.5" y="74.7383">Link</text><rect fill="#ADD8E6" filter="url(#ftj7wtdgyc8tf)" height="51.7891" style="stroke:#A80036;stroke-width:1.5;" width="114" x="167" y="982.0625"/><text fill="#000000" font-family="sans-serif" font-size="14" lengthAdjust="spacing" textLength="100" x="174" y="1003.8008">&lt;&lt;description&gt;&gt;</text><text fill="#000000" font-family="sans-serif" font-size="14" lengthAdjust="spacing" textLength="25" x="211.5" y="1022.6953">Link</text><rect fill="#FEFECE" filter="url(#ftj7wtdgyc8tf)" height="32.8945" style="stroke:#A80036;stroke-width:1.5;" width="121" x="330.5" y="53"/><text fill="#000000" font-family="sans-serif" font-size="14" lengthAdjust="spacing" textLength="107" x="337.5" y="74.7383">(Xml)HttpRequest</text><rect fill="#FEFECE" filter="url(#ftj7wtdgyc8tf)" height="32.8945" style="stroke:#A80036;stroke-width:1.5;" width="121" x="330.5" y="982.0625"/><text fill="#000000" font-family="sans-serif" font-size="14" lengthAdjust="spacing" textLength="107" x="337.5" y="1003.8008">(Xml)HttpRequest</text><rect fill="#FEFECE" filter="url(#ftj7wtdgyc8tf)" height="51.7891" style="stroke:#A80036;stroke-width:1.5;" width="180" x="465.5" y="34.1055"/><text fill="#000000" font-family="sans-serif" font-size="14" lengthAdjust="spacing" textLength="166" x="472.5" y="55.8438">&lt;&lt;ChainOfResponsibility&gt;&gt;</text><text fill="#000000" font-family="sans-serif" font-size="14" lengthAdjust="spacing" textLength="111" x="500" y="74.7383">ResponseHandler</text><rect fill="#FEFECE" filter="url(#ftj7wtdgyc8tf)" height="51.7891" style="stroke:#A80036;stroke-width:1.5;" width="180" x="465.5" y="982.0625"/><text fill="#000000" font-family="sans-serif" font-size="14" lengthAdjust="spacing" textLength="166" x="472.5" y="1003.8008">&lt;&lt;ChainOfResponsibility&gt;&gt;</text><text fill="#000000" font-family="sans-serif" font-size="14" lengthAdjust="spacing" textLength="111" x="500" y="1022.6953">ResponseHandler</text><rect fill="#ADD8E6" filter="url(#ftj7wtdgyc8tf)" height="70.6836" style="stroke:#A80036;stroke-width:1.5;" width="114" x="659.5" y="15.2109"/><text fill="#000000" font-family="sans-serif" font-size="14" lengthAdjust="spacing" textLength="100" x="666.5" y="36.9492">&lt;&lt;description&gt;&gt;</text><text fill="#000000" font-family="sans-serif" font-size="14" lengthAdjust="spacing" textLength="99" x="667" y="55.8438">&lt;&lt;EventStore&gt;&gt;</text><text fill="#000000" font-family="sans-serif" font-size="14" lengthAdjust="spacing" textLength="52" x="690.5" y="74.7383">LogEntry</text><rect fill="#ADD8E6" filter="url(#ftj7wtdgyc8tf)" height="70.6836" style="stroke:#A80036;stroke-width:1.5;" width="114" x="659.5" y="982.0625"/><text fill="#000000" font-family="sans-serif" font-size="14" lengthAdjust="spacing" textLength="100" x="666.5" y="1003.8008">&lt;&lt;description&gt;&gt;</text><text fill="#000000" font-family="sans-serif" font-size="14" lengthAdjust="spacing" textLength="99" x="667" y="1022.6953">&lt;&lt;EventStore&gt;&gt;</text><text fill="#000000" font-family="sans-serif" font-size="14" lengthAdjust="spacing" textLength="52" x="690.5" y="1041.5898">LogEntry</text><rect fill="#FFC0CB" filter="url(#ftj7wtdgyc8tf)" height="51.7891" style="stroke:#A80036;stroke-width:1.5;" width="144" x="787.5" y="34.1055"/><text fill="#000000" font-family="sans-serif" font-size="14" lengthAdjust="spacing" textLength="130" x="794.5" y="55.8438">&lt;&lt;moment-interval&gt;&gt;</text><text fill="#000000" font-family="sans-serif" font-size="14" lengthAdjust="spacing" textLength="86" x="816.5" y="74.7383">ListAggregator</text><rect fill="#FFC0CB" filter="url(#ftj7wtdgyc8tf)" height="51.7891" style="stroke:#A80036;stroke-width:1.5;" width="144" x="787.5" y="982.0625"/><text fill="#000000" font-family="sans-serif" font-size="14" lengthAdjust="spacing" textLength="130" x="794.5" y="1003.8008">&lt;&lt;moment-interval&gt;&gt;</text><text fill="#000000" font-family="sans-serif" font-size="14" lengthAdjust="spacing" textLength="86" x="816.5" y="1022.6953">ListAggregator</text><rect fill="#90EE90" filter="url(#ftj7wtdgyc8tf)" height="70.6836" style="stroke:#A80036;stroke-width:1.5;" width="128" x="978.5" y="15.2109"/><text fill="#000000" font-family="sans-serif" font-size="14" lengthAdjust="spacing" textLength="62" x="1011.5" y="36.9492">&lt;&lt;thing&gt;&gt;</text><text fill="#000000" font-family="sans-serif" font-size="14" lengthAdjust="spacing" textLength="114" x="985.5" y="55.8438">&lt;&lt;DisplayModel&gt;&gt;</text><text fill="#000000" font-family="sans-serif" font-size="14" lengthAdjust="spacing" textLength="41" x="1022" y="74.7383">ListDM</text><rect fill="#90EE90" filter="url(#ftj7wtdgyc8tf)" height="70.6836" style="stroke:#A80036;stroke-width:1.5;" width="128" x="978.5" y="982.0625"/><text fill="#000000" font-family="sans-serif" font-size="14" lengthAdjust="spacing" textLength="62" x="1011.5" y="1003.8008">&lt;&lt;thing&gt;&gt;</text><text fill="#000000" font-family="sans-serif" font-size="14" lengthAdjust="spacing" textLength="114" x="985.5" y="1022.6953">&lt;&lt;DisplayModel&gt;&gt;</text><text fill="#000000" font-family="sans-serif" font-size="14" lengthAdjust="spacing" textLength="41" x="1022" y="1041.5898">ListDM</text><rect fill="#ADD8E6" filter="url(#ftj7wtdgyc8tf)" height="51.7891" style="stroke:#A80036;stroke-width:1.5;" width="114" x="1120.5" y="34.1055"/><text fill="#000000" font-family="sans-serif" font-size="14" lengthAdjust="spacing" textLength="100" x="1127.5" y="55.8438">&lt;&lt;description&gt;&gt;</text><text fill="#000000" font-family="sans-serif" font-size="14" lengthAdjust="spacing" textLength="89" x="1133" y="74.7383">TransferObject</text><rect fill="#ADD8E6" filter="url(#ftj7wtdgyc8tf)" height="51.7891" style="stroke:#A80036;stroke-width:1.5;" width="114" x="1120.5" y="982.0625"/><text fill="#000000" font-family="sans-serif" font-size="14" lengthAdjust="spacing" textLength="100" x="1127.5" y="1003.8008">&lt;&lt;description&gt;&gt;</text><text fill="#000000" font-family="sans-serif" font-size="14" lengthAdjust="spacing" textLength="89" x="1133" y="1022.6953">TransferObject</text><rect fill="#FFFFFF" filter="url(#ftj7wtdgyc8tf)" height="170.7246" style="stroke:#A80036;stroke-width:1.0;" width="10" x="552.5" y="219.0742"/><rect fill="#FFFFFF" filter="url(#ftj7wtdgyc8tf)" height="543.7188" style="stroke:#A80036;stroke-width:1.0;" width="10" x="856.5" y="389.7988"/><rect fill="#FFFFFF" filter="url(#ftj7wtdgyc8tf)" height="68.0898" style="stroke:#A80036;stroke-width:1.0;" width="10" x="861.5" y="429.3438"/><rect fill="#FFFFFF" filter="url(#ftj7wtdgyc8tf)" height="162.7246" style="stroke:#A80036;stroke-width:1.0;" width="10" x="861.5" y="536.9785"/><rect fill="#FFFFFF" filter="url(#ftj7wtdgyc8tf)" height="131.1797" style="stroke:#A80036;stroke-width:1.0;" width="10" x="861.5" y="739.248"/><polygon fill="#A80036" points="91,120.4395,101,124.4395,91,128.4395,95,124.4395" style="stroke:#A80036;stroke-width:1.0;"/><line style="stroke:#A80036;stroke-width:1.0;" x1="22" x2="97" y1="124.4395" y2="124.4395"/><text fill="#000000" font-family="sans-serif" font-size="13" lengthAdjust="spacing" textLength="38" x="29" y="118.5801">listAll()</text><polygon fill="#A80036" points="214,151.9844,224,155.9844,214,159.9844,218,155.9844" style="stroke:#A80036;stroke-width:1.0;"/><line style="stroke:#A80036;stroke-width:1.0;" x1="103" x2="220" y1="155.9844" y2="155.9844"/><text fill="#000000" font-family="sans-serif" font-size="13" lengthAdjust="spacing" textLength="45" x="110" y="150.125">invoke()</text><polygon fill="#A80036" points="381,183.5293,391,187.5293,381,191.5293,385,187.5293" style="stroke:#A80036;stroke-width:1.0;"/><line style="stroke:#A80036;stroke-width:1.0;" x1="226" x2="387" y1="187.5293" y2="187.5293"/><text fill="#000000" font-family="sans-serif" font-size="13" lengthAdjust="spacing" textLength="45" x="233" y="181.6699">Invoke()</text><polygon fill="#A80036" points="540.5,215.0742,550.5,219.0742,540.5,223.0742,544.5,219.0742" style="stroke:#A80036;stroke-width:1.0;"/><line style="stroke:#A80036;stroke-width:1.0;" x1="393" x2="546.5" y1="219.0742" y2="219.0742"/><text fill="#000000" font-family="sans-serif" font-size="13" lengthAdjust="spacing" textLength="46" x="400" y="213.2148">handle()</text><line style="stroke:#A80036;stroke-width:1.0;" x1="562.5" x2="604.5" y1="250.6191" y2="250.6191"/><line style="stroke:#A80036;stroke-width:1.0;" x1="604.5" x2="604.5" y1="250.6191" y2="263.6191"/><line style="stroke:#A80036;stroke-width:1.0;" x1="563.5" x2="604.5" y1="263.6191" y2="263.6191"/><polygon fill="#A80036" points="573.5,259.6191,563.5,263.6191,573.5,267.6191,569.5,263.6191" style="stroke:#A80036;stroke-width:1.0;"/><text fill="#000000" font-family="sans-serif" font-size="13" lengthAdjust="spacing" textLength="108" x="569.5" y="244.7598">successor.handle()</text><polygon fill="#A80036" points="1167.5,291.1641,1177.5,295.1641,1167.5,299.1641,1171.5,295.1641" style="stroke:#A80036;stroke-width:1.0;"/><line style="stroke:#A80036;stroke-width:1.0;" x1="562.5" x2="1173.5" y1="295.1641" y2="295.1641"/><text fill="#000000" font-family="sans-serif" font-size="13" lengthAdjust="spacing" textLength="40" x="569.5" y="289.3047">parse()</text><polygon fill="#A80036" points="706.5,322.709,716.5,326.709,706.5,330.709,710.5,326.709" style="stroke:#A80036;stroke-width:1.0;"/><line style="stroke:#A80036;stroke-width:1.0;" x1="562.5" x2="712.5" y1="326.709" y2="326.709"/><text fill="#000000" font-family="sans-serif" font-size="13" lengthAdjust="spacing" textLength="109" x="569.5" y="320.8496">setTransferObject()</text><polygon fill="#A80036" points="706.5,354.2539,716.5,358.2539,706.5,362.2539,710.5,358.2539" style="stroke:#A80036;stroke-width:1.0;"/><line style="stroke:#A80036;stroke-width:1.0;" x1="562.5" x2="712.5" y1="358.2539" y2="358.2539"/><text fill="#000000" font-family="sans-serif" font-size="13" lengthAdjust="spacing" textLength="86" x="569.5" y="352.3945">addAggegator()</text><polygon fill="#A80036" points="844.5,385.7988,854.5,389.7988,844.5,393.7988,848.5,389.7988" style="stroke:#A80036;stroke-width:1.0;"/><line style="stroke:#A80036;stroke-width:1.0;" x1="557.5" x2="850.5" y1="389.7988" y2="389.7988"/><text fill="#000000" font-family="sans-serif" font-size="13" lengthAdjust="spacing" textLength="91" x="564.5" y="383.9395">update(logEntry)</text><line style="stroke:#A80036;stroke-width:1.0;" x1="866.5" x2="913.5" y1="416.3438" y2="416.3438"/><line style="stroke:#A80036;stroke-width:1.0;" x1="913.5" x2="913.5" y1="416.3438" y2="429.3438"/><line style="stroke:#A80036;stroke-width:1.0;" x1="872.5" x2="913.5" y1="429.3438" y2="429.3438"/><polygon fill="#A80036" points="882.5,425.3438,872.5,429.3438,882.5,433.3438,878.5,429.3438" style="stroke:#A80036;stroke-width:1.0;"/><text fill="#000000" font-family="sans-serif" font-size="13" lengthAdjust="spacing" textLength="67" x="878.5" y="410.4844">handleList()</text><polygon fill="#A80036" points="237,461.8887,227,465.8887,237,469.8887,233,465.8887" style="stroke:#A80036;stroke-width:1.0;"/><line style="stroke:#A80036;stroke-width:1.0;" x1="231" x2="860.5" y1="465.8887" y2="465.8887"/><text fill="#000000" font-family="sans-serif" font-size="13" lengthAdjust="spacing" textLength="91" x="243" y="460.0293">invokeWith(this)</text><polygon fill="#A80036" points="381,493.4336,391,497.4336,381,501.4336,385,497.4336" style="stroke:#A80036;stroke-width:1.0;"/><line style="stroke:#A80036;stroke-width:1.0;" x1="226" x2="387" y1="497.4336" y2="497.4336"/><text fill="#000000" font-family="sans-serif" font-size="13" lengthAdjust="spacing" textLength="99" x="233" y="491.5742">invoke(this, aggt)</text><line style="stroke:#A80036;stroke-width:1.0;" x1="866.5" x2="913.5" y1="523.9785" y2="523.9785"/><line style="stroke:#A80036;stroke-width:1.0;" x1="913.5" x2="913.5" y1="523.9785" y2="536.9785"/><line style="stroke:#A80036;stroke-width:1.0;" x1="872.5" x2="913.5" y1="536.9785" y2="536.9785"/><polygon fill="#A80036" points="882.5,532.9785,872.5,536.9785,882.5,540.9785,878.5,536.9785" style="stroke:#A80036;stroke-width:1.0;"/><text fill="#000000" font-family="sans-serif" font-size="13" lengthAdjust="spacing" textLength="82" x="878.5" y="518.1191">handleObject()</text><polygon fill="#A80036" points="1032.5,569.5234,1042.5,573.5234,1032.5,577.5234,1036.5,573.5234" style="stroke:#A80036;stroke-width:1.0;"/><line style="stroke:#A80036;stroke-width:1.0;" x1="871.5" x2="1038.5" y1="573.5234" y2="573.5234"/><text fill="#000000" font-family="sans-serif" font-size="13" lengthAdjust="spacing" textLength="67" x="878.5" y="567.6641">addData(to)</text><polygon fill="#A80036" points="237,601.0684,227,605.0684,237,609.0684,233,605.0684" style="stroke:#A80036;stroke-width:1.0;"/><line style="stroke:#A80036;stroke-width:1.0;" x1="231" x2="860.5" y1="605.0684" y2="605.0684"/><text fill="#000000" font-family="sans-serif" font-size="13" lengthAdjust="spacing" textLength="135" x="243" y="599.209">invokeWith(this, "json")</text><polygon fill="#A80036" points="381,632.6133,391,636.6133,381,640.6133,385,636.6133" style="stroke:#A80036;stroke-width:1.0;"/><line style="stroke:#A80036;stroke-width:1.0;" x1="226" x2="387" y1="636.6133" y2="636.6133"/><text fill="#000000" font-family="sans-serif" font-size="13" lengthAdjust="spacing" textLength="143" x="233" y="630.7539">invoke(this, aggt, "json")</text><polygon fill="#A80036" points="237,664.1582,227,668.1582,237,672.1582,233,668.1582" style="stroke:#A80036;stroke-width:1.0;"/><line style="stroke:#A80036;stroke-width:1.0;" x1="231" x2="860.5" y1="668.1582" y2="668.1582"/><text fill="#000000" font-family="sans-serif" font-size="13" lengthAdjust="spacing" textLength="131" x="243" y="662.2988">invokeWith(this, "xml")</text><polygon fill="#A80036" points="381,695.7031,391,699.7031,381,703.7031,385,699.7031" style="stroke:#A80036;stroke-width:1.0;"/><line style="stroke:#A80036;stroke-width:1.0;" x1="226" x2="387" y1="699.7031" y2="699.7031"/><text fill="#000000" font-family="sans-serif" font-size="13" lengthAdjust="spacing" textLength="139" x="233" y="693.8438">invoke(this, aggt, "xml")</text><line style="stroke:#A80036;stroke-width:1.0;" x1="866.5" x2="913.5" y1="726.248" y2="726.248"/><line style="stroke:#A80036;stroke-width:1.0;" x1="913.5" x2="913.5" y1="726.248" y2="739.248"/><line style="stroke:#A80036;stroke-width:1.0;" x1="872.5" x2="913.5" y1="739.248" y2="739.248"/><polygon fill="#A80036" points="882.5,735.248,872.5,739.248,882.5,743.248,878.5,739.248" style="stroke:#A80036;stroke-width:1.0;"/><text fill="#000000" font-family="sans-serif" font-size="13" lengthAdjust="spacing" textLength="83" x="878.5" y="720.3887">handleLayout()</text><polygon fill="#A80036" points="1032.5,771.793,1042.5,775.793,1032.5,779.793,1036.5,775.793" style="stroke:#A80036;stroke-width:1.0;"/><line style="stroke:#A80036;stroke-width:1.0;" x1="871.5" x2="1038.5" y1="775.793" y2="775.793"/><text fill="#000000" font-family="sans-serif" font-size="13" lengthAdjust="spacing" textLength="77" x="878.5" y="769.9336">addLayout(to)</text><polygon fill="#A80036" points="1032.5,803.3379,1042.5,807.3379,1032.5,811.3379,1036.5,807.3379" style="stroke:#A80036;stroke-width:1.0;"/><line style="stroke:#A80036;stroke-width:1.0;" x1="871.5" x2="1038.5" y1="807.3379" y2="807.3379"/><text fill="#000000" font-family="sans-serif" font-size="13" lengthAdjust="spacing" textLength="149" x="878.5" y="801.4785">addPropertyDescription(to)</text><polygon fill="#A80036" points="237,834.8828,227,838.8828,237,842.8828,233,838.8828" style="stroke:#A80036;stroke-width:1.0;"/><line style="stroke:#A80036;stroke-width:1.0;" x1="231" x2="860.5" y1="838.8828" y2="838.8828"/><text fill="#000000" font-family="sans-serif" font-size="13" lengthAdjust="spacing" textLength="91" x="243" y="833.0234">invokeWith(this)</text><polygon fill="#A80036" points="381,866.4277,391,870.4277,381,874.4277,385,870.4277" style="stroke:#A80036;stroke-width:1.0;"/><line style="stroke:#A80036;stroke-width:1.0;" x1="226" x2="387" y1="870.4277" y2="870.4277"/><text fill="#000000" font-family="sans-serif" font-size="13" lengthAdjust="spacing" textLength="99" x="233" y="864.5684">invoke(this, aggt)</text><polygon fill="#A80036" points="1032.5,897.9727,1042.5,901.9727,1032.5,905.9727,1036.5,901.9727" style="stroke:#A80036;stroke-width:1.0;"/><line style="stroke:#A80036;stroke-width:1.0;" x1="866.5" x2="1038.5" y1="901.9727" y2="901.9727"/><text fill="#000000" font-family="sans-serif" font-size="13" lengthAdjust="spacing" textLength="98" x="873.5" y="896.1133">canBeDisplayed()</text><polygon fill="#A80036" points="114,929.5176,104,933.5176,114,937.5176,110,933.5176" style="stroke:#A80036;stroke-width:1.0;"/><line style="stroke:#A80036;stroke-width:1.0;" x1="108" x2="860.5" y1="933.5176" y2="933.5176"/><text fill="#000000" font-family="sans-serif" font-size="13" lengthAdjust="spacing" textLength="62" x="120" y="927.6582">openView()</text><polygon fill="#A80036" points="33,961.0625,23,965.0625,33,969.0625,29,965.0625" style="stroke:#A80036;stroke-width:1.0;"/><line style="stroke:#A80036;stroke-width:1.0;" x1="27" x2="102" y1="965.0625" y2="965.0625"/><text fill="#000000" font-family="sans-serif" font-size="13" lengthAdjust="spacing" textLength="43" x="39" y="959.2031">present</text><!--MD5=[03485d27da8ed155a4020a67d340b618]
@startuml
actor User
participant "<<Singleton>>\nUI Manager" as UI
participant "<<description>>\nLink" as LNK #LightBlue
participant "(Xml)HttpRequest" as XHR
participant "<<ChainOfResponsibility>>\nResponseHandler" as RH
participant "<<description>>\n<<EventStore>>\nLogEntry" as LE #LightBlue
participant "<<moment-interval>>\nListAggregator" as AGGT  #Pink
participant "<<thing>>\n<<DisplayModel>>\nListDM" as DM #LightGreen
participant "<<description>>\nTransferObject" as TO #LightBlue

User -> UI : listAll()
UI -> LNK : invoke()
LNK -> XHR : Invoke()
XHR -> RH : handle()
activate RH
RH -> RH : successor.handle()
RH -> TO : parse()
RH -> LE : setTransferObject()
RH -> LE : addAggegator()
RH -> AGGT : update(logEntry)
deactivate RH
activate AGGT

AGGT -> AGGT : handleList()
activate AGGT
AGGT -> LNK : invokeWith(this)
LNK -> XHR: invoke(this, aggt)
deactivate AGGT

AGGT -> AGGT : handleObject()
activate AGGT
AGGT -> DM : addData(to)
AGGT -> LNK : invokeWith(this, "json")
LNK -> XHR: invoke(this, aggt, "json")
AGGT -> LNK : invokeWith(this, "xml")
LNK -> XHR: invoke(this, aggt, "xml")
deactivate AGGT

AGGT -> AGGT : handleLayout()
activate AGGT
AGGT -> DM : addLayout(to)
AGGT -> DM : addPropertyDescription(to)
AGGT -> LNK : invokeWith(this)
LNK -> XHR: invoke(this, aggt)
deactivate AGGT

AGGT -> DM : canBeDisplayed()
AGGT -> UI : openView()
deactivate AGGT


UI -> User : present
@enduml

PlantUML version 1.2021.01(Tue Feb 02 07:55:08 GMT 2021)
(GPL source distribution)
Java Runtime: OpenJDK Runtime Environment
JVM: OpenJDK 64-Bit Server VM
Default Encoding: UTF-8
Language: en
Country: US
--></g></svg>