<?xml version="1.0" encoding="UTF-8" standalone="no"?><svg xmlns="http://www.w3.org/2000/svg" xmlns:xlink="http://www.w3.org/1999/xlink" contentScriptType="application/ecmascript" contentStyleType="text/css" height="531px" preserveAspectRatio="none" style="width:748px;height:531px;" version="1.1" viewBox="0 0 748 531" width="748px" zoomAndPan="magnify"><defs><filter height="300%" id="f1zy80vph81cv" width="300%" x="-1" y="-1"><feGaussianBlur result="blurOut" stdDeviation="2.0"/><feColorMatrix in="blurOut" result="blurOut2" type="matrix" values="0 0 0 0 0 0 0 0 0 0 0 0 0 0 0 0 0 0 .4 0"/><feOffset dx="4.0" dy="4.0" in="blurOut2" result="blurOut3"/><feBlend in="SourceGraphic" in2="blurOut3" mode="normal"/></filter></defs><g><!--MD5=[4945c737fad898a5ce312252f730d528]
class Renderer--><rect codeLine="1" fill="#FEFECE" filter="url(#f1zy80vph81cv)" height="100.7996" id="Renderer" style="stroke: #A80036; stroke-width: 1.5;" width="94" x="295" y="158"/><ellipse cx="314.95" cy="174" fill="#A9DCDF" rx="11" ry="11" style="stroke: #A80036; stroke-width: 1.0;"/><path d="M315.9031,177.6563 Q315.9031,177.1563 316.1844,176.9844 Q316.4813,176.7969 317.0281,176.7969 L317.4188,176.7969 L317.0281,175.8125 L312.9813,175.8125 L312.5906,176.7969 L312.9813,176.7969 Q314.0906,176.7969 314.0906,177.6563 Q314.0906,178.5 312.9813,178.5 L310.7156,178.5 Q309.5906,178.5 309.5906,177.6563 Q309.5906,177.1406 309.8875,176.9688 Q310.1844,176.7969 310.7313,176.7969 L313.3719,170.2813 L312.2938,170.2813 Q311.1531,170.2813 311.1531,169.4375 Q311.1531,168.9219 311.45,168.7656 Q311.7469,168.5938 312.2938,168.5938 L315.9656,168.5938 L319.3563,176.7969 Q320.5125,176.7969 320.5125,177.6563 Q320.5125,178.5 319.3875,178.5 L317.0281,178.5 Q315.9031,178.5 315.9031,177.6563 Z M316.325,174.1094 L314.9969,170.8438 L313.6531,174.1094 L316.325,174.1094 Z "/><text fill="#000000" font-family="sans-serif" font-size="12" font-style="italic" lengthAdjust="spacingAndGlyphs" textLength="51" x="330.05" y="178.8">Renderer</text><line style="stroke: #A80036; stroke-width: 1.5;" x1="296" x2="388" y1="190" y2="190"/><text fill="#000000" font-family="sans-serif" font-size="11" lengthAdjust="spacingAndGlyphs" textLength="80" x="301" y="204.9999">iconName:String</text><text fill="#000000" font-family="sans-serif" font-size="11" lengthAdjust="spacingAndGlyphs" textLength="47" x="301" y="218.1998">title:String</text><text fill="#000000" font-family="sans-serif" font-size="11" lengthAdjust="spacingAndGlyphs" textLength="61" x="301" y="231.3997">view:RoView</text><text fill="#000000" font-family="sans-serif" font-size="11" lengthAdjust="spacingAndGlyphs" textLength="82" x="301" y="244.5996">protocol:Protocol</text><line style="stroke: #A80036; stroke-width: 1.5;" x1="296" x2="388" y1="250.7996" y2="250.7996"/><!--MD5=[a0c27cfb527bdb20a6436baa93834728]
class Protocol--><rect codeLine="9" fill="#FEFECE" filter="url(#f1zy80vph81cv)" height="61.1999" id="Protocol" style="stroke: #A80036; stroke-width: 1.5;" width="159" x="456.5" y="178"/><ellipse cx="509.25" cy="194" fill="#A9DCDF" rx="11" ry="11" style="stroke: #A80036; stroke-width: 1.0;"/><path d="M510.2031,197.6563 Q510.2031,197.1563 510.4844,196.9844 Q510.7813,196.7969 511.3281,196.7969 L511.7188,196.7969 L511.3281,195.8125 L507.2813,195.8125 L506.8906,196.7969 L507.2813,196.7969 Q508.3906,196.7969 508.3906,197.6563 Q508.3906,198.5 507.2813,198.5 L505.0156,198.5 Q503.8906,198.5 503.8906,197.6563 Q503.8906,197.1406 504.1875,196.9688 Q504.4844,196.7969 505.0313,196.7969 L507.6719,190.2813 L506.5938,190.2813 Q505.4531,190.2813 505.4531,189.4375 Q505.4531,188.9219 505.75,188.7656 Q506.0469,188.5938 506.5938,188.5938 L510.2656,188.5938 L513.6563,196.7969 Q514.8125,196.7969 514.8125,197.6563 Q514.8125,198.5 513.6875,198.5 L511.3281,198.5 Q510.2031,198.5 510.2031,197.6563 Z M510.625,194.1094 L509.2969,190.8438 L507.9531,194.1094 L510.625,194.1094 Z "/><text fill="#000000" font-family="sans-serif" font-size="12" font-style="italic" lengthAdjust="spacingAndGlyphs" textLength="45" x="529.75" y="198.8">Protocol</text><line style="stroke: #A80036; stroke-width: 1.5;" x1="457.5" x2="614.5" y1="210" y2="210"/><line style="stroke: #A80036; stroke-width: 1.5;" x1="457.5" x2="614.5" y1="218" y2="218"/><text fill="#000000" font-family="sans-serif" font-size="11" lengthAdjust="spacingAndGlyphs" textLength="147" x="462.5" y="232.9999">includes(propertyName:String)</text><!--MD5=[b6539e280a383d4bd2138df28ea79f0b]
class ObjectRdr--><rect fill="#FEFECE" filter="url(#f1zy80vph81cv)" height="48" id="ObjectRdr" style="stroke: #A80036; stroke-width: 1.5;" width="86" x="259" y="340"/><ellipse cx="274" cy="356" fill="#ADD1B2" rx="11" ry="11" style="stroke: #A80036; stroke-width: 1.0;"/><path d="M273.3594,359.7813 Q274.1563,359.7813 274.7188,359.5938 Q275.2969,359.3906 275.5313,359.1719 Q275.7813,358.9375 276.0156,358.75 Q276.2656,358.5469 276.4844,358.5469 Q276.8281,358.5469 277.0781,358.8125 Q277.3438,359.0625 277.3438,359.3906 Q277.3438,360.125 276.1719,360.8125 Q275.0156,361.4844 273.3125,361.4844 Q271.1563,361.4844 269.7344,360.2188 Q268.3125,358.9531 268.3125,357.0156 L268.3125,355.8906 Q268.3125,353.8594 269.6406,352.4844 Q270.9688,351.0938 272.9375,351.0938 Q274.125,351.0938 275.3438,351.6719 L275.5156,351.75 Q275.8125,351.3438 276.2344,351.3438 Q276.7188,351.3438 276.8906,351.6406 Q277.0781,351.9219 277.0781,352.4688 L277.0781,353.8906 Q277.0781,355.0156 276.2344,355.0156 Q275.9219,355.0156 275.7188,354.8438 Q275.5313,354.6719 275.4844,354.5313 Q275.4531,354.375 275.4063,354.1094 Q275.2969,353.5938 274.7813,353.2813 Q274.2656,352.9688 273.8125,352.8906 Q273.375,352.7969 273,352.7969 Q271.7188,352.7969 270.8594,353.6719 Q270.0156,354.5469 270.0156,355.8906 L270.0156,356.9844 Q270.0156,358.2656 270.9219,359.0313 Q271.8281,359.7813 273.3594,359.7813 Z "/><text fill="#000000" font-family="sans-serif" font-size="12" lengthAdjust="spacingAndGlyphs" textLength="54" x="288" y="360.8">ObjectRdr</text><line style="stroke: #A80036; stroke-width: 1.5;" x1="260" x2="344" y1="372" y2="372"/><line style="stroke: #A80036; stroke-width: 1.5;" x1="260" x2="344" y1="380" y2="380"/><!--MD5=[660956bd813a32f4c4e01cf0c9a6a063]
class ListRdr--><rect fill="#FEFECE" filter="url(#f1zy80vph81cv)" height="48" id="ListRdr" style="stroke: #A80036; stroke-width: 1.5;" width="71" x="380.5" y="340"/><ellipse cx="395.5" cy="356" fill="#ADD1B2" rx="11" ry="11" style="stroke: #A80036; stroke-width: 1.0;"/><path d="M394.8594,359.7813 Q395.6563,359.7813 396.2188,359.5938 Q396.7969,359.3906 397.0313,359.1719 Q397.2813,358.9375 397.5156,358.75 Q397.7656,358.5469 397.9844,358.5469 Q398.3281,358.5469 398.5781,358.8125 Q398.8438,359.0625 398.8438,359.3906 Q398.8438,360.125 397.6719,360.8125 Q396.5156,361.4844 394.8125,361.4844 Q392.6563,361.4844 391.2344,360.2188 Q389.8125,358.9531 389.8125,357.0156 L389.8125,355.8906 Q389.8125,353.8594 391.1406,352.4844 Q392.4688,351.0938 394.4375,351.0938 Q395.625,351.0938 396.8438,351.6719 L397.0156,351.75 Q397.3125,351.3438 397.7344,351.3438 Q398.2188,351.3438 398.3906,351.6406 Q398.5781,351.9219 398.5781,352.4688 L398.5781,353.8906 Q398.5781,355.0156 397.7344,355.0156 Q397.4219,355.0156 397.2188,354.8438 Q397.0313,354.6719 396.9844,354.5313 Q396.9531,354.375 396.9063,354.1094 Q396.7969,353.5938 396.2813,353.2813 Q395.7656,352.9688 395.3125,352.8906 Q394.875,352.7969 394.5,352.7969 Q393.2188,352.7969 392.3594,353.6719 Q391.5156,354.5469 391.5156,355.8906 L391.5156,356.9844 Q391.5156,358.2656 392.4219,359.0313 Q393.3281,359.7813 394.8594,359.7813 Z "/><text fill="#000000" font-family="sans-serif" font-size="12" lengthAdjust="spacingAndGlyphs" textLength="39" x="409.5" y="360.8">ListRdr</text><line style="stroke: #A80036; stroke-width: 1.5;" x1="381.5" x2="450.5" y1="372" y2="372"/><line style="stroke: #A80036; stroke-width: 1.5;" x1="381.5" x2="450.5" y1="380" y2="380"/><!--MD5=[24f215063a43c8314490619b47a99cd0]
class GeoLocationRdr--><rect fill="#FEFECE" filter="url(#f1zy80vph81cv)" height="48" id="GeoLocationRdr" style="stroke: #A80036; stroke-width: 1.5;" width="117" x="337.5" y="469"/><ellipse cx="352.5" cy="485" fill="#ADD1B2" rx="11" ry="11" style="stroke: #A80036; stroke-width: 1.0;"/><path d="M351.8594,488.7813 Q352.6563,488.7813 353.2188,488.5938 Q353.7969,488.3906 354.0313,488.1719 Q354.2813,487.9375 354.5156,487.75 Q354.7656,487.5469 354.9844,487.5469 Q355.3281,487.5469 355.5781,487.8125 Q355.8438,488.0625 355.8438,488.3906 Q355.8438,489.125 354.6719,489.8125 Q353.5156,490.4844 351.8125,490.4844 Q349.6563,490.4844 348.2344,489.2188 Q346.8125,487.9531 346.8125,486.0156 L346.8125,484.8906 Q346.8125,482.8594 348.1406,481.4844 Q349.4688,480.0938 351.4375,480.0938 Q352.625,480.0938 353.8438,480.6719 L354.0156,480.75 Q354.3125,480.3438 354.7344,480.3438 Q355.2188,480.3438 355.3906,480.6406 Q355.5781,480.9219 355.5781,481.4688 L355.5781,482.8906 Q355.5781,484.0156 354.7344,484.0156 Q354.4219,484.0156 354.2188,483.8438 Q354.0313,483.6719 353.9844,483.5313 Q353.9531,483.375 353.9063,483.1094 Q353.7969,482.5938 353.2813,482.2813 Q352.7656,481.9688 352.3125,481.8906 Q351.875,481.7969 351.5,481.7969 Q350.2188,481.7969 349.3594,482.6719 Q348.5156,483.5469 348.5156,484.8906 L348.5156,485.9844 Q348.5156,487.2656 349.4219,488.0313 Q350.3281,488.7813 351.8594,488.7813 Z "/><text fill="#000000" font-family="sans-serif" font-size="12" lengthAdjust="spacingAndGlyphs" textLength="85" x="366.5" y="489.8">GeoLocationRdr</text><line style="stroke: #A80036; stroke-width: 1.5;" x1="338.5" x2="453.5" y1="501" y2="501"/><line style="stroke: #A80036; stroke-width: 1.5;" x1="338.5" x2="453.5" y1="509" y2="509"/><!--MD5=[3ac3a25a251d55f379c2f348a979e9b0]
class EventRdr--><rect fill="#FEFECE" filter="url(#f1zy80vph81cv)" height="48" id="EventRdr" style="stroke: #A80036; stroke-width: 1.5;" width="81" x="489.5" y="469"/><ellipse cx="504.5" cy="485" fill="#ADD1B2" rx="11" ry="11" style="stroke: #A80036; stroke-width: 1.0;"/><path d="M503.8594,488.7813 Q504.6563,488.7813 505.2188,488.5938 Q505.7969,488.3906 506.0313,488.1719 Q506.2813,487.9375 506.5156,487.75 Q506.7656,487.5469 506.9844,487.5469 Q507.3281,487.5469 507.5781,487.8125 Q507.8438,488.0625 507.8438,488.3906 Q507.8438,489.125 506.6719,489.8125 Q505.5156,490.4844 503.8125,490.4844 Q501.6563,490.4844 500.2344,489.2188 Q498.8125,487.9531 498.8125,486.0156 L498.8125,484.8906 Q498.8125,482.8594 500.1406,481.4844 Q501.4688,480.0938 503.4375,480.0938 Q504.625,480.0938 505.8438,480.6719 L506.0156,480.75 Q506.3125,480.3438 506.7344,480.3438 Q507.2188,480.3438 507.3906,480.6406 Q507.5781,480.9219 507.5781,481.4688 L507.5781,482.8906 Q507.5781,484.0156 506.7344,484.0156 Q506.4219,484.0156 506.2188,483.8438 Q506.0313,483.6719 505.9844,483.5313 Q505.9531,483.375 505.9063,483.1094 Q505.7969,482.5938 505.2813,482.2813 Q504.7656,481.9688 504.3125,481.8906 Q503.875,481.7969 503.5,481.7969 Q502.2188,481.7969 501.3594,482.6719 Q500.5156,483.5469 500.5156,484.8906 L500.5156,485.9844 Q500.5156,487.2656 501.4219,488.0313 Q502.3281,488.7813 503.8594,488.7813 Z "/><text fill="#000000" font-family="sans-serif" font-size="12" lengthAdjust="spacingAndGlyphs" textLength="49" x="518.5" y="489.8">EventRdr</text><line style="stroke: #A80036; stroke-width: 1.5;" x1="490.5" x2="569.5" y1="501" y2="501"/><line style="stroke: #A80036; stroke-width: 1.5;" x1="490.5" x2="569.5" y1="509" y2="509"/><!--MD5=[94b905841b8882956344401c70c922d8]
class RoView--><rect codeLine="18" fill="#FEFECE" filter="url(#f1zy80vph81cv)" height="48" id="RoView" style="stroke: #A80036; stroke-width: 1.5;" width="75" x="152.5" y="184.5"/><ellipse cx="167.5" cy="200.5" fill="#A9DCDF" rx="11" ry="11" style="stroke: #A80036; stroke-width: 1.0;"/><path d="M168.4531,204.1563 Q168.4531,203.6563 168.7344,203.4844 Q169.0313,203.2969 169.5781,203.2969 L169.9688,203.2969 L169.5781,202.3125 L165.5313,202.3125 L165.1406,203.2969 L165.5313,203.2969 Q166.6406,203.2969 166.6406,204.1563 Q166.6406,205 165.5313,205 L163.2656,205 Q162.1406,205 162.1406,204.1563 Q162.1406,203.6406 162.4375,203.4688 Q162.7344,203.2969 163.2813,203.2969 L165.9219,196.7813 L164.8438,196.7813 Q163.7031,196.7813 163.7031,195.9375 Q163.7031,195.4219 164,195.2656 Q164.2969,195.0938 164.8438,195.0938 L168.5156,195.0938 L171.9063,203.2969 Q173.0625,203.2969 173.0625,204.1563 Q173.0625,205 171.9375,205 L169.5781,205 Q168.4531,205 168.4531,204.1563 Z M168.875,200.6094 L167.5469,197.3438 L166.2031,200.6094 L168.875,200.6094 Z "/><text fill="#000000" font-family="sans-serif" font-size="12" font-style="italic" lengthAdjust="spacingAndGlyphs" textLength="43" x="181.5" y="205.3">RoView</text><line style="stroke: #A80036; stroke-width: 1.5;" x1="153.5" x2="226.5" y1="216.5" y2="216.5"/><line style="stroke: #A80036; stroke-width: 1.5;" x1="153.5" x2="226.5" y1="224.5" y2="224.5"/><!--MD5=[ac681369a1a81eadc0880c8fcd051002]
class ObjectVw--><rect fill="#FEFECE" filter="url(#f1zy80vph81cv)" height="48" id="ObjectVw" style="stroke: #A80036; stroke-width: 1.5;" width="83" x="37.5" y="340"/><ellipse cx="52.5" cy="356" fill="#ADD1B2" rx="11" ry="11" style="stroke: #A80036; stroke-width: 1.0;"/><path d="M51.8594,359.7813 Q52.6563,359.7813 53.2188,359.5938 Q53.7969,359.3906 54.0313,359.1719 Q54.2813,358.9375 54.5156,358.75 Q54.7656,358.5469 54.9844,358.5469 Q55.3281,358.5469 55.5781,358.8125 Q55.8438,359.0625 55.8438,359.3906 Q55.8438,360.125 54.6719,360.8125 Q53.5156,361.4844 51.8125,361.4844 Q49.6563,361.4844 48.2344,360.2188 Q46.8125,358.9531 46.8125,357.0156 L46.8125,355.8906 Q46.8125,353.8594 48.1406,352.4844 Q49.4688,351.0938 51.4375,351.0938 Q52.625,351.0938 53.8438,351.6719 L54.0156,351.75 Q54.3125,351.3438 54.7344,351.3438 Q55.2188,351.3438 55.3906,351.6406 Q55.5781,351.9219 55.5781,352.4688 L55.5781,353.8906 Q55.5781,355.0156 54.7344,355.0156 Q54.4219,355.0156 54.2188,354.8438 Q54.0313,354.6719 53.9844,354.5313 Q53.9531,354.375 53.9063,354.1094 Q53.7969,353.5938 53.2813,353.2813 Q52.7656,352.9688 52.3125,352.8906 Q51.875,352.7969 51.5,352.7969 Q50.2188,352.7969 49.3594,353.6719 Q48.5156,354.5469 48.5156,355.8906 L48.5156,356.9844 Q48.5156,358.2656 49.4219,359.0313 Q50.3281,359.7813 51.8594,359.7813 Z "/><text fill="#000000" font-family="sans-serif" font-size="12" lengthAdjust="spacingAndGlyphs" textLength="51" x="66.5" y="360.8">ObjectVw</text><line style="stroke: #A80036; stroke-width: 1.5;" x1="38.5" x2="119.5" y1="372" y2="372"/><line style="stroke: #A80036; stroke-width: 1.5;" x1="38.5" x2="119.5" y1="380" y2="380"/><!--MD5=[6001a356541f2e1ff9f964c5f5b67d85]
class ListVw--><rect fill="#FEFECE" filter="url(#f1zy80vph81cv)" height="48" id="ListVw" style="stroke: #A80036; stroke-width: 1.5;" width="68" x="156" y="340"/><ellipse cx="171" cy="356" fill="#ADD1B2" rx="11" ry="11" style="stroke: #A80036; stroke-width: 1.0;"/><path d="M170.3594,359.7813 Q171.1563,359.7813 171.7188,359.5938 Q172.2969,359.3906 172.5313,359.1719 Q172.7813,358.9375 173.0156,358.75 Q173.2656,358.5469 173.4844,358.5469 Q173.8281,358.5469 174.0781,358.8125 Q174.3438,359.0625 174.3438,359.3906 Q174.3438,360.125 173.1719,360.8125 Q172.0156,361.4844 170.3125,361.4844 Q168.1563,361.4844 166.7344,360.2188 Q165.3125,358.9531 165.3125,357.0156 L165.3125,355.8906 Q165.3125,353.8594 166.6406,352.4844 Q167.9688,351.0938 169.9375,351.0938 Q171.125,351.0938 172.3438,351.6719 L172.5156,351.75 Q172.8125,351.3438 173.2344,351.3438 Q173.7188,351.3438 173.8906,351.6406 Q174.0781,351.9219 174.0781,352.4688 L174.0781,353.8906 Q174.0781,355.0156 173.2344,355.0156 Q172.9219,355.0156 172.7188,354.8438 Q172.5313,354.6719 172.4844,354.5313 Q172.4531,354.375 172.4063,354.1094 Q172.2969,353.5938 171.7813,353.2813 Q171.2656,352.9688 170.8125,352.8906 Q170.375,352.7969 170,352.7969 Q168.7188,352.7969 167.8594,353.6719 Q167.0156,354.5469 167.0156,355.8906 L167.0156,356.9844 Q167.0156,358.2656 167.9219,359.0313 Q168.8281,359.7813 170.3594,359.7813 Z "/><text fill="#000000" font-family="sans-serif" font-size="12" lengthAdjust="spacingAndGlyphs" textLength="36" x="185" y="360.8">ListVw</text><line style="stroke: #A80036; stroke-width: 1.5;" x1="157" x2="223" y1="372" y2="372"/><line style="stroke: #A80036; stroke-width: 1.5;" x1="157" x2="223" y1="380" y2="380"/><!--MD5=[293cdd98efd2ef6414c6838d728daf9e]
class GeoLocationVw--><rect fill="#FEFECE" filter="url(#f1zy80vph81cv)" height="48" id="GeoLocationVw" style="stroke: #A80036; stroke-width: 1.5;" width="114" x="7" y="469"/><ellipse cx="22" cy="485" fill="#ADD1B2" rx="11" ry="11" style="stroke: #A80036; stroke-width: 1.0;"/><path d="M21.3594,488.7813 Q22.1563,488.7813 22.7188,488.5938 Q23.2969,488.3906 23.5313,488.1719 Q23.7813,487.9375 24.0156,487.75 Q24.2656,487.5469 24.4844,487.5469 Q24.8281,487.5469 25.0781,487.8125 Q25.3438,488.0625 25.3438,488.3906 Q25.3438,489.125 24.1719,489.8125 Q23.0156,490.4844 21.3125,490.4844 Q19.1563,490.4844 17.7344,489.2188 Q16.3125,487.9531 16.3125,486.0156 L16.3125,484.8906 Q16.3125,482.8594 17.6406,481.4844 Q18.9688,480.0938 20.9375,480.0938 Q22.125,480.0938 23.3438,480.6719 L23.5156,480.75 Q23.8125,480.3438 24.2344,480.3438 Q24.7188,480.3438 24.8906,480.6406 Q25.0781,480.9219 25.0781,481.4688 L25.0781,482.8906 Q25.0781,484.0156 24.2344,484.0156 Q23.9219,484.0156 23.7188,483.8438 Q23.5313,483.6719 23.4844,483.5313 Q23.4531,483.375 23.4063,483.1094 Q23.2969,482.5938 22.7813,482.2813 Q22.2656,481.9688 21.8125,481.8906 Q21.375,481.7969 21,481.7969 Q19.7188,481.7969 18.8594,482.6719 Q18.0156,483.5469 18.0156,484.8906 L18.0156,485.9844 Q18.0156,487.2656 18.9219,488.0313 Q19.8281,488.7813 21.3594,488.7813 Z "/><text fill="#000000" font-family="sans-serif" font-size="12" lengthAdjust="spacingAndGlyphs" textLength="82" x="36" y="489.8">GeoLocationVw</text><line style="stroke: #A80036; stroke-width: 1.5;" x1="8" x2="120" y1="501" y2="501"/><line style="stroke: #A80036; stroke-width: 1.5;" x1="8" x2="120" y1="509" y2="509"/><!--MD5=[b5b2b5ee462037f139d18fe25361c91f]
class TimeLineView--><rect fill="#FEFECE" filter="url(#f1zy80vph81cv)" height="48" id="TimeLineView" style="stroke: #A80036; stroke-width: 1.5;" width="107" x="156.5" y="469"/><ellipse cx="171.5" cy="485" fill="#ADD1B2" rx="11" ry="11" style="stroke: #A80036; stroke-width: 1.0;"/><path d="M170.8594,488.7813 Q171.6563,488.7813 172.2188,488.5938 Q172.7969,488.3906 173.0313,488.1719 Q173.2813,487.9375 173.5156,487.75 Q173.7656,487.5469 173.9844,487.5469 Q174.3281,487.5469 174.5781,487.8125 Q174.8438,488.0625 174.8438,488.3906 Q174.8438,489.125 173.6719,489.8125 Q172.5156,490.4844 170.8125,490.4844 Q168.6563,490.4844 167.2344,489.2188 Q165.8125,487.9531 165.8125,486.0156 L165.8125,484.8906 Q165.8125,482.8594 167.1406,481.4844 Q168.4688,480.0938 170.4375,480.0938 Q171.625,480.0938 172.8438,480.6719 L173.0156,480.75 Q173.3125,480.3438 173.7344,480.3438 Q174.2188,480.3438 174.3906,480.6406 Q174.5781,480.9219 174.5781,481.4688 L174.5781,482.8906 Q174.5781,484.0156 173.7344,484.0156 Q173.4219,484.0156 173.2188,483.8438 Q173.0313,483.6719 172.9844,483.5313 Q172.9531,483.375 172.9063,483.1094 Q172.7969,482.5938 172.2813,482.2813 Q171.7656,481.9688 171.3125,481.8906 Q170.875,481.7969 170.5,481.7969 Q169.2188,481.7969 168.3594,482.6719 Q167.5156,483.5469 167.5156,484.8906 L167.5156,485.9844 Q167.5156,487.2656 168.4219,488.0313 Q169.3281,488.7813 170.8594,488.7813 Z "/><text fill="#000000" font-family="sans-serif" font-size="12" lengthAdjust="spacingAndGlyphs" textLength="75" x="185.5" y="489.8">TimeLineView</text><line style="stroke: #A80036; stroke-width: 1.5;" x1="157.5" x2="262.5" y1="501" y2="501"/><line style="stroke: #A80036; stroke-width: 1.5;" x1="157.5" x2="262.5" y1="509" y2="509"/><!--MD5=[bd1591ba57da9f11d5bbb0d64d5c2717]
class Exposer--><rect codeLine="28" fill="#FEFECE" filter="url(#f1zy80vph81cv)" height="61.1999" id="Exposer" style="stroke: #A80036; stroke-width: 1.5;" width="130" x="471" y="13.5"/><ellipse cx="510.75" cy="29.5" fill="#ADD1B2" rx="11" ry="11" style="stroke: #A80036; stroke-width: 1.0;"/><path d="M510.1094,33.2813 Q510.9063,33.2813 511.4688,33.0938 Q512.0469,32.8906 512.2813,32.6719 Q512.5313,32.4375 512.7656,32.25 Q513.0156,32.0469 513.2344,32.0469 Q513.5781,32.0469 513.8281,32.3125 Q514.0938,32.5625 514.0938,32.8906 Q514.0938,33.625 512.9219,34.3125 Q511.7656,34.9844 510.0625,34.9844 Q507.9063,34.9844 506.4844,33.7188 Q505.0625,32.4531 505.0625,30.5156 L505.0625,29.3906 Q505.0625,27.3594 506.3906,25.9844 Q507.7188,24.5938 509.6875,24.5938 Q510.875,24.5938 512.0938,25.1719 L512.2656,25.25 Q512.5625,24.8438 512.9844,24.8438 Q513.4688,24.8438 513.6406,25.1406 Q513.8281,25.4219 513.8281,25.9688 L513.8281,27.3906 Q513.8281,28.5156 512.9844,28.5156 Q512.6719,28.5156 512.4688,28.3438 Q512.2813,28.1719 512.2344,28.0313 Q512.2031,27.875 512.1563,27.6094 Q512.0469,27.0938 511.5313,26.7813 Q511.0156,26.4688 510.5625,26.3906 Q510.125,26.2969 509.75,26.2969 Q508.4688,26.2969 507.6094,27.1719 Q506.7656,28.0469 506.7656,29.3906 L506.7656,30.4844 Q506.7656,31.7656 507.6719,32.5313 Q508.5781,33.2813 510.1094,33.2813 Z "/><text fill="#000000" font-family="sans-serif" font-size="12" lengthAdjust="spacingAndGlyphs" textLength="43" x="530.25" y="34.3">Exposer</text><line style="stroke: #A80036; stroke-width: 1.5;" x1="472" x2="600" y1="45.5" y2="45.5"/><text fill="#000000" font-family="sans-serif" font-size="11" lengthAdjust="spacingAndGlyphs" textLength="118" x="477" y="60.4999">delegate:TransferObject</text><line style="stroke: #A80036; stroke-width: 1.5;" x1="472" x2="600" y1="66.6999" y2="66.6999"/><!--MD5=[1baf32c238e7b10acca77db68c6197d6]
class TransferObject--><rect codeLine="32" fill="#90EE90" filter="url(#f1zy80vph81cv)" height="61.1999" id="TransferObject" style="stroke: #A80036; stroke-width: 1.5;" width="132" x="304" y="13.5"/><ellipse cx="328.45" cy="29.5" fill="#A9DCDF" rx="11" ry="11" style="stroke: #A80036; stroke-width: 1.0;"/><path d="M329.4031,33.1563 Q329.4031,32.6563 329.6844,32.4844 Q329.9813,32.2969 330.5281,32.2969 L330.9188,32.2969 L330.5281,31.3125 L326.4813,31.3125 L326.0906,32.2969 L326.4813,32.2969 Q327.5906,32.2969 327.5906,33.1563 Q327.5906,34 326.4813,34 L324.2156,34 Q323.0906,34 323.0906,33.1563 Q323.0906,32.6406 323.3875,32.4688 Q323.6844,32.2969 324.2313,32.2969 L326.8719,25.7813 L325.7938,25.7813 Q324.6531,25.7813 324.6531,24.9375 Q324.6531,24.4219 324.95,24.2656 Q325.2469,24.0938 325.7938,24.0938 L329.4656,24.0938 L332.8563,32.2969 Q334.0125,32.2969 334.0125,33.1563 Q334.0125,34 332.8875,34 L330.5281,34 Q329.4031,34 329.4031,33.1563 Z M329.825,29.6094 L328.4969,26.3438 L327.1531,29.6094 L329.825,29.6094 Z "/><text fill="#000000" font-family="sans-serif" font-size="12" font-style="italic" lengthAdjust="spacingAndGlyphs" textLength="79" x="344.55" y="34.3">TransferObject</text><line style="stroke: #A80036; stroke-width: 1.5;" x1="305" x2="435" y1="45.5" y2="45.5"/><text fill="#000000" font-family="sans-serif" font-size="11" lengthAdjust="spacingAndGlyphs" textLength="120" x="310" y="60.4999">properties:List&lt;Property&gt;</text><line style="stroke: #A80036; stroke-width: 1.5;" x1="305" x2="435" y1="66.6999" y2="66.6999"/><!--MD5=[6b626634f3bb0842bebd5e499c80b711]
class Property--><rect codeLine="36" fill="#ADD8E6" filter="url(#f1zy80vph81cv)" height="74.3998" id="Property" style="stroke: #A80036; stroke-width: 1.5;" width="76" x="171" y="7"/><ellipse cx="186" cy="23" fill="#ADD1B2" rx="11" ry="11" style="stroke: #A80036; stroke-width: 1.0;"/><path d="M185.3594,26.7813 Q186.1563,26.7813 186.7188,26.5938 Q187.2969,26.3906 187.5313,26.1719 Q187.7813,25.9375 188.0156,25.75 Q188.2656,25.5469 188.4844,25.5469 Q188.8281,25.5469 189.0781,25.8125 Q189.3438,26.0625 189.3438,26.3906 Q189.3438,27.125 188.1719,27.8125 Q187.0156,28.4844 185.3125,28.4844 Q183.1563,28.4844 181.7344,27.2188 Q180.3125,25.9531 180.3125,24.0156 L180.3125,22.8906 Q180.3125,20.8594 181.6406,19.4844 Q182.9688,18.0938 184.9375,18.0938 Q186.125,18.0938 187.3438,18.6719 L187.5156,18.75 Q187.8125,18.3438 188.2344,18.3438 Q188.7188,18.3438 188.8906,18.6406 Q189.0781,18.9219 189.0781,19.4688 L189.0781,20.8906 Q189.0781,22.0156 188.2344,22.0156 Q187.9219,22.0156 187.7188,21.8438 Q187.5313,21.6719 187.4844,21.5313 Q187.4531,21.375 187.4063,21.1094 Q187.2969,20.5938 186.7813,20.2813 Q186.2656,19.9688 185.8125,19.8906 Q185.375,19.7969 185,19.7969 Q183.7188,19.7969 182.8594,20.6719 Q182.0156,21.5469 182.0156,22.8906 L182.0156,23.9844 Q182.0156,25.2656 182.9219,26.0313 Q183.8281,26.7813 185.3594,26.7813 Z "/><text fill="#000000" font-family="sans-serif" font-size="12" lengthAdjust="spacingAndGlyphs" textLength="44" x="200" y="27.8">Property</text><line style="stroke: #A80036; stroke-width: 1.5;" x1="172" x2="246" y1="39" y2="39"/><text fill="#000000" font-family="sans-serif" font-size="11" lengthAdjust="spacingAndGlyphs" textLength="61" x="177" y="53.9999">name: String</text><text fill="#000000" font-family="sans-serif" font-size="11" lengthAdjust="spacingAndGlyphs" textLength="52" x="177" y="67.1998">type: Class</text><line style="stroke: #A80036; stroke-width: 1.5;" x1="172" x2="246" y1="73.3998" y2="73.3998"/><!--MD5=[1e477e70b6ee4c5ba5660faf99f4d9ee]
class TimeLinePtc--><rect codeLine="43" fill="#ADD8E6" filter="url(#f1zy80vph81cv)" height="87.5997" id="TimeLinePtc" style="stroke: #A80036; stroke-width: 1.5;" width="98" x="487" y="320"/><ellipse cx="502" cy="336" fill="#ADD1B2" rx="11" ry="11" style="stroke: #A80036; stroke-width: 1.0;"/><path d="M501.3594,339.7813 Q502.1563,339.7813 502.7188,339.5938 Q503.2969,339.3906 503.5313,339.1719 Q503.7813,338.9375 504.0156,338.75 Q504.2656,338.5469 504.4844,338.5469 Q504.8281,338.5469 505.0781,338.8125 Q505.3438,339.0625 505.3438,339.3906 Q505.3438,340.125 504.1719,340.8125 Q503.0156,341.4844 501.3125,341.4844 Q499.1563,341.4844 497.7344,340.2188 Q496.3125,338.9531 496.3125,337.0156 L496.3125,335.8906 Q496.3125,333.8594 497.6406,332.4844 Q498.9688,331.0938 500.9375,331.0938 Q502.125,331.0938 503.3438,331.6719 L503.5156,331.75 Q503.8125,331.3438 504.2344,331.3438 Q504.7188,331.3438 504.8906,331.6406 Q505.0781,331.9219 505.0781,332.4688 L505.0781,333.8906 Q505.0781,335.0156 504.2344,335.0156 Q503.9219,335.0156 503.7188,334.8438 Q503.5313,334.6719 503.4844,334.5313 Q503.4531,334.375 503.4063,334.1094 Q503.2969,333.5938 502.7813,333.2813 Q502.2656,332.9688 501.8125,332.8906 Q501.375,332.7969 501,332.7969 Q499.7188,332.7969 498.8594,333.6719 Q498.0156,334.5469 498.0156,335.8906 L498.0156,336.9844 Q498.0156,338.2656 498.9219,339.0313 Q499.8281,339.7813 501.3594,339.7813 Z "/><text fill="#000000" font-family="sans-serif" font-size="12" lengthAdjust="spacingAndGlyphs" textLength="66" x="516" y="340.8">TimeLinePtc</text><line style="stroke: #A80036; stroke-width: 1.5;" x1="488" x2="584" y1="352" y2="352"/><text fill="#000000" font-family="sans-serif" font-size="11" lengthAdjust="spacingAndGlyphs" textLength="71" x="493" y="366.9999">start:DateTime</text><text fill="#000000" font-family="sans-serif" font-size="11" lengthAdjust="spacingAndGlyphs" textLength="68" x="493" y="380.1998">end:DateTime</text><text fill="#000000" font-family="sans-serif" font-size="11" lengthAdjust="spacingAndGlyphs" textLength="76" x="493" y="393.3997">duration:Double</text><line style="stroke: #A80036; stroke-width: 1.5;" x1="488" x2="584" y1="399.5997" y2="399.5997"/><!--MD5=[701a273d35b20c028becaec0330689a0]
class GeoLocationPtc--><rect codeLine="48" fill="#ADD8E6" filter="url(#f1zy80vph81cv)" height="74.3998" id="GeoLocationPtc" style="stroke: #A80036; stroke-width: 1.5;" width="114" x="620" y="327"/><ellipse cx="635" cy="343" fill="#ADD1B2" rx="11" ry="11" style="stroke: #A80036; stroke-width: 1.0;"/><path d="M634.3594,346.7813 Q635.1563,346.7813 635.7188,346.5938 Q636.2969,346.3906 636.5313,346.1719 Q636.7813,345.9375 637.0156,345.75 Q637.2656,345.5469 637.4844,345.5469 Q637.8281,345.5469 638.0781,345.8125 Q638.3438,346.0625 638.3438,346.3906 Q638.3438,347.125 637.1719,347.8125 Q636.0156,348.4844 634.3125,348.4844 Q632.1563,348.4844 630.7344,347.2188 Q629.3125,345.9531 629.3125,344.0156 L629.3125,342.8906 Q629.3125,340.8594 630.6406,339.4844 Q631.9688,338.0938 633.9375,338.0938 Q635.125,338.0938 636.3438,338.6719 L636.5156,338.75 Q636.8125,338.3438 637.2344,338.3438 Q637.7188,338.3438 637.8906,338.6406 Q638.0781,338.9219 638.0781,339.4688 L638.0781,340.8906 Q638.0781,342.0156 637.2344,342.0156 Q636.9219,342.0156 636.7188,341.8438 Q636.5313,341.6719 636.4844,341.5313 Q636.4531,341.375 636.4063,341.1094 Q636.2969,340.5938 635.7813,340.2813 Q635.2656,339.9688 634.8125,339.8906 Q634.375,339.7969 634,339.7969 Q632.7188,339.7969 631.8594,340.6719 Q631.0156,341.5469 631.0156,342.8906 L631.0156,343.9844 Q631.0156,345.2656 631.9219,346.0313 Q632.8281,346.7813 634.3594,346.7813 Z "/><text fill="#000000" font-family="sans-serif" font-size="12" lengthAdjust="spacingAndGlyphs" textLength="82" x="649" y="347.8">GeoLocationPtc</text><line style="stroke: #A80036; stroke-width: 1.5;" x1="621" x2="733" y1="359" y2="359"/><text fill="#000000" font-family="sans-serif" font-size="11" lengthAdjust="spacingAndGlyphs" textLength="71" x="626" y="373.9999">latitude:Double</text><text fill="#000000" font-family="sans-serif" font-size="11" lengthAdjust="spacingAndGlyphs" textLength="80" x="626" y="387.1998">longitude:Double</text><line style="stroke: #A80036; stroke-width: 1.5;" x1="621" x2="733" y1="393.3998" y2="393.3998"/><!--MD5=[776de531de4fc26eb6aa1d58b5cd9cef]
link Renderer to Protocol--><path codeLine="7" d="M389.36,208.5 C409.96,208.5 430.55,208.5 451.15,208.5 " fill="none" id="Renderer-to-Protocol" style="stroke: #A80036; stroke-width: 1.0;"/><polygon fill="#A80036" points="456.38,208.5,447.38,204.5,451.38,208.5,447.38,212.5,456.38,208.5" style="stroke: #A80036; stroke-width: 1.0;"/><!--MD5=[3cb176c019a1793214f32deabd48c781]
reverse link Renderer to ObjectRdr--><path codeLine="13" d="M323.96,278.72 C318.22,300.77 312.25,323.65 307.99,340 " fill="none" id="Renderer-backto-ObjectRdr" style="stroke: #A80036; stroke-width: 1.0;"/><polygon fill="none" points="317.2,276.93,329.01,259.34,330.74,280.46,317.2,276.93" style="stroke: #A80036; stroke-width: 1.0;"/><!--MD5=[2d003ea05eff3833a625365fa4a23c92]
reverse link Renderer to ListRdr--><path codeLine="14" d="M374.72,277.38 C385.55,299.83 396.87,323.32 404.91,340 " fill="none" id="Renderer-backto-ListRdr" style="stroke: #A80036; stroke-width: 1.0;"/><polygon fill="none" points="368.41,280.39,366.03,259.34,381.02,274.31,368.41,280.39" style="stroke: #A80036; stroke-width: 1.0;"/><!--MD5=[270c2e783ce252c6a17b4cdda7eeb367]
reverse link ListRdr to GeoLocationRdr--><path codeLine="15" d="M409.18,408.3 C405.98,428.6 402.3,451.97 399.65,468.85 " fill="none" id="ListRdr-backto-GeoLocationRdr" style="stroke: #A80036; stroke-width: 1.0;"/><polygon fill="none" points="402.31,406.96,412.33,388.29,416.14,409.14,402.31,406.96" style="stroke: #A80036; stroke-width: 1.0;"/><!--MD5=[5fa14edd34496078a462d0f43443cad0]
reverse link ListRdr to EventRdr--><path codeLine="16" d="M450.3,403.21 C469.49,424.59 492.79,450.55 509.22,468.85 " fill="none" id="ListRdr-backto-EventRdr" style="stroke: #A80036; stroke-width: 1.0;"/><polygon fill="none" points="445.06,407.85,436.91,388.29,455.48,398.5,445.06,407.85" style="stroke: #A80036; stroke-width: 1.0;"/><!--MD5=[ed7825cf26eab76999869bbf1a2f89e6]
reverse link RoView to ObjectVw--><path codeLine="21" d="M161.17,249.36 C140.35,278.16 112.95,316.05 95.65,339.97 " fill="none" id="RoView-backto-ObjectVw" style="stroke: #A80036; stroke-width: 1.0;"/><polygon fill="none" points="155.75,244.92,173.14,232.81,167.09,253.12,155.75,244.92" style="stroke: #A80036; stroke-width: 1.0;"/><!--MD5=[216093aafde1c45b2e5b0712ff058d71]
reverse link RoView to ListVw--><path codeLine="22" d="M190,253.08 C190,281.35 190,317.06 190,339.97 " fill="none" id="RoView-backto-ListVw" style="stroke: #A80036; stroke-width: 1.0;"/><polygon fill="none" points="183,252.81,190,232.81,197,252.81,183,252.81" style="stroke: #A80036; stroke-width: 1.0;"/><!--MD5=[4f43e277fa3c3b5869da3b3235ceba62]
reverse link ListVw to GeoLocationVw--><path codeLine="23" d="M152.71,402.59 C131.38,424.09 105.31,450.37 86.96,468.85 " fill="none" id="ListVw-backto-GeoLocationVw" style="stroke: #A80036; stroke-width: 1.0;"/><polygon fill="none" points="147.83,397.56,166.89,388.29,157.77,407.42,147.83,397.56" style="stroke: #A80036; stroke-width: 1.0;"/><!--MD5=[1436f1ec751da39d0b8ebbe47b3dd9e6]
reverse link ListVw to TimeLineView--><path codeLine="24" d="M196.82,408.3 C200.02,428.6 203.7,451.97 206.35,468.85 " fill="none" id="ListVw-backto-TimeLineView" style="stroke: #A80036; stroke-width: 1.0;"/><polygon fill="none" points="189.86,409.14,193.67,388.29,203.69,406.96,189.86,409.14" style="stroke: #A80036; stroke-width: 1.0;"/><!--MD5=[d87128cbb67638ba9a85a96e24c98396]
reverse link RoView to Renderer--><path codeLine="26" d="M232.94,208.5 C253.51,208.5 274.09,208.5 294.67,208.5 " fill="none" id="RoView-backto-Renderer" style="stroke: #A80036; stroke-width: 1.0;"/><polygon fill="#A80036" points="227.7,208.5,236.7,212.5,232.7,208.5,236.7,204.5,227.7,208.5" style="stroke: #A80036; stroke-width: 1.0;"/><!--MD5=[7f100461146c8f8905a6594a925a30e1]
reverse link TransferObject to Exposer--><path codeLine="35" d="M441.29,44 C451.15,44 461,44 470.86,44 " fill="none" id="TransferObject-backto-Exposer" style="stroke: #A80036; stroke-width: 1.0;"/><polygon fill="#A80036" points="436.14,44,445.14,48,441.14,44,445.14,40,436.14,44" style="stroke: #A80036; stroke-width: 1.0;"/><!--MD5=[ca8c0f72eda8f7f565b74e74c1e8a3d2]
link Property to TransferObject--><path codeLine="40" d="M247.15,44 C260.24,44 275.42,44 290.55,44 " fill="none" id="Property-to-TransferObject" style="stroke: #A80036; stroke-width: 1.0;"/><polygon fill="#A80036" points="303.78,44,297.78,40,291.78,44,297.78,48,303.78,44" style="stroke: #A80036; stroke-width: 1.0;"/><text fill="#000000" font-family="sans-serif" font-size="13" lengthAdjust="spacingAndGlyphs" textLength="20" x="265.5" y="38">has</text><!--MD5=[b98afa943d79ecfbff6cd27acaf81a75]
link Exposer to Protocol--><path codeLine="41" d="M536,74.81 C536,102.41 536,143.47 536,172.59 " fill="none" id="Exposer-to-Protocol" style="stroke: #A80036; stroke-width: 1.0;"/><polygon fill="#A80036" points="536,177.88,540,168.88,536,172.88,532,168.88,536,177.88" style="stroke: #A80036; stroke-width: 1.0;"/><text fill="#000000" font-family="sans-serif" font-size="13" lengthAdjust="spacingAndGlyphs" textLength="128" x="537" y="125">delegate.conformsTo()</text><!--MD5=[49f8108e56dec56423f64f1d301d4747]
reverse link Protocol to GeoLocationPtc--><path codeLine="52" d="M576.73,253.85 C597.98,276.97 623.64,304.91 643.69,326.73 " fill="none" id="Protocol-backto-GeoLocationPtc" style="stroke: #A80036; stroke-width: 1.0;"/><polygon fill="none" points="571.56,258.56,563.19,239.1,581.87,249.09,571.56,258.56" style="stroke: #A80036; stroke-width: 1.0;"/><!--MD5=[8b653c0a697b1fbb7536d936f8568711]
reverse link Protocol to TimeLinePtc--><path codeLine="53" d="M536,259.32 C536,278.84 536,301.02 536,319.85 " fill="none" id="Protocol-backto-TimeLinePtc" style="stroke: #A80036; stroke-width: 1.0;"/><polygon fill="none" points="529,259.1,536,239.1,543,259.1,529,259.1" style="stroke: #A80036; stroke-width: 1.0;"/><!--MD5=[3217afe6699be7100f2a9a708c6c793e]
@startuml
abstract class Renderer {
    iconName:String
    title:String
    view:RoView
    protocol:Protocol
}
Renderer -right-> Protocol

abstract class Protocol {
    includes(propertyName:String)
}

Renderer <|-down- ObjectRdr
Renderer <|-down- ListRdr
ListRdr <|-down- GeoLocationRdr
ListRdr <|-down- EventRdr

abstract class RoView {
}

RoView <|-down- ObjectVw
RoView <|-down- ListVw
ListVw <|-down- GeoLocationVw
ListVw <|-down- TimeLineView

Renderer -left-> RoView

class Exposer {
    delegate:TransferObject
}

abstract class TransferObject #LightGreen {
    properties:List<Property>
}
Exposer -left-> TransferObject
class Property #LightBlue {
    name: String
    type: Class
}
TransferObject *-left- Property : has
Exposer -down-> Protocol : delegate.conformsTo()

class TimeLinePtc #LightBlue {
start:DateTime
end:DateTime
duration:Double
}
class GeoLocationPtc #LightBlue {
latitude:Double
longitude:Double
}
Protocol <|-down- GeoLocationPtc
Protocol <|-down- TimeLinePtc
@enduml

PlantUML version 1.2020.19(Mon Oct 12 15:10:01 GMT 2020)
(GPL source distribution)
Java Runtime: OpenJDK Runtime Environment
JVM: OpenJDK 64-Bit Server VM
Default Encoding: UTF-8
Language: en
Country: US
--></g></svg>