<?xml version="1.0" encoding="UTF-8" standalone="no"?><svg xmlns="http://www.w3.org/2000/svg" xmlns:xlink="http://www.w3.org/1999/xlink" contentScriptType="application/ecmascript" contentStyleType="text/css" height="1157px" preserveAspectRatio="none" style="width:860px;height:1157px;" version="1.1" viewBox="0 0 860 1157" width="860px" zoomAndPan="magnify"><defs><filter height="300%" id="fx4p8xw8jr0ys" width="300%" x="-1" y="-1"><feGaussianBlur result="blurOut" stdDeviation="2.0"/><feColorMatrix in="blurOut" result="blurOut2" type="matrix" values="0 0 0 0 0 0 0 0 0 0 0 0 0 0 0 0 0 0 .4 0"/><feOffset dx="4.0" dy="4.0" in="blurOut2" result="blurOut3"/><feBlend in="SourceGraphic" in2="blurOut3" mode="normal"/></filter></defs><g><text fill="#000000" font-family="sans-serif" font-size="14" lengthAdjust="spacingAndGlyphs" textLength="32" x="438.3333" y="575.1993">know</text><text fill="#000000" font-family="sans-serif" font-size="14" lengthAdjust="spacingAndGlyphs" textLength="25" x="438.3333" y="591.9992">how</text><text fill="#000000" font-family="sans-serif" font-size="14" lengthAdjust="spacingAndGlyphs" textLength="42" x="523.3333" y="205.9998">trouble</text><text fill="#000000" font-family="sans-serif" font-size="14" lengthAdjust="spacingAndGlyphs" textLength="52" x="523.3333" y="222.7997">shooting</text><rect fill="#FEFECE" filter="url(#fx4p8xw8jr0ys)" height="36.7999" rx="12.5" ry="12.5" style="stroke: #A80036; stroke-width: 1.5;" width="60" x="625.3333" y="133.5999"/><text fill="#000000" font-family="sans-serif" font-size="14" lengthAdjust="spacingAndGlyphs" textLength="40" x="635.3333" y="157.5998">CORS</text><path d="M575.3333,208.7997 L585.3333,208.7997 C600.3333,208.7997 600.3333,151.9998 615.3333,151.9998 L625.3333,151.9998 " fill="none" style="stroke: #A80036; stroke-width: 1.0;"/><rect fill="#FEFECE" filter="url(#fx4p8xw8jr0ys)" height="36.7999" rx="12.5" ry="12.5" style="stroke: #A80036; stroke-width: 1.5;" width="107" x="625.3333" y="190.3998"/><text fill="#000000" font-family="sans-serif" font-size="14" lengthAdjust="spacingAndGlyphs" textLength="87" x="635.3333" y="214.3997">Proxy settings</text><rect fill="#FEFECE" filter="url(#fx4p8xw8jr0ys)" height="36.7999" rx="12.5" ry="12.5" style="stroke: #A80036; stroke-width: 1.5;" width="47" x="782.3333" y="20"/><text fill="#000000" font-family="sans-serif" font-size="14" lengthAdjust="spacingAndGlyphs" textLength="27" x="792.3333" y="43.9999">npm</text><path d="M732.3333,208.7997 L742.3333,208.7997 C757.3333,208.7997 757.3333,38.4 772.3333,38.4 L782.3333,38.4 " fill="none" style="stroke: #A80036; stroke-width: 1.0;"/><rect fill="#FEFECE" filter="url(#fx4p8xw8jr0ys)" height="36.7999" rx="12.5" ry="12.5" style="stroke: #A80036; stroke-width: 1.5;" width="35" x="782.3333" y="76.7999"/><text fill="#000000" font-family="sans-serif" font-size="14" lengthAdjust="spacingAndGlyphs" textLength="15" x="792.3333" y="100.7999">git</text><path d="M732.3333,208.7997 L742.3333,208.7997 C757.3333,208.7997 757.3333,95.1999 772.3333,95.1999 L782.3333,95.1999 " fill="none" style="stroke: #A80036; stroke-width: 1.0;"/><rect fill="#FEFECE" filter="url(#fx4p8xw8jr0ys)" height="36.7999" rx="12.5" ry="12.5" style="stroke: #A80036; stroke-width: 1.5;" width="59" x="782.3333" y="133.5999"/><text fill="#000000" font-family="sans-serif" font-size="14" lengthAdjust="spacingAndGlyphs" textLength="39" x="792.3333" y="157.5998">gradle</text><path d="M732.3333,208.7997 L742.3333,208.7997 C757.3333,208.7997 757.3333,151.9998 772.3333,151.9998 L782.3333,151.9998 " fill="none" style="stroke: #A80036; stroke-width: 1.0;"/><rect fill="#FEFECE" filter="url(#fx4p8xw8jr0ys)" height="36.7999" rx="12.5" ry="12.5" style="stroke: #A80036; stroke-width: 1.5;" width="42" x="782.3333" y="190.3998"/><text fill="#000000" font-family="sans-serif" font-size="14" lengthAdjust="spacingAndGlyphs" textLength="22" x="792.3333" y="214.3997">ssh</text><path d="M732.3333,208.7997 L742.3333,208.7997 C757.3333,208.7997 757.3333,208.7997 772.3333,208.7997 L782.3333,208.7997 " fill="none" style="stroke: #A80036; stroke-width: 1.0;"/><rect fill="#FEFECE" filter="url(#fx4p8xw8jr0ys)" height="36.7999" rx="12.5" ry="12.5" style="stroke: #A80036; stroke-width: 1.5;" width="43" x="782.3333" y="247.1997"/><text fill="#000000" font-family="sans-serif" font-size="14" lengthAdjust="spacingAndGlyphs" textLength="23" x="792.3333" y="271.1996">curl</text><path d="M732.3333,208.7997 L742.3333,208.7997 C757.3333,208.7997 757.3333,265.5997 772.3333,265.5997 L782.3333,265.5997 " fill="none" style="stroke: #A80036; stroke-width: 1.0;"/><rect fill="#FEFECE" filter="url(#fx4p8xw8jr0ys)" height="36.7999" rx="12.5" ry="12.5" style="stroke: #A80036; stroke-width: 1.5;" width="48" x="782.3333" y="303.9996"/><text fill="#000000" font-family="sans-serif" font-size="14" lengthAdjust="spacingAndGlyphs" textLength="28" x="792.3333" y="327.9996">yarn</text><path d="M732.3333,208.7997 L742.3333,208.7997 C757.3333,208.7997 757.3333,322.3996 772.3333,322.3996 L782.3333,322.3996 " fill="none" style="stroke: #A80036; stroke-width: 1.0;"/><rect fill="#FEFECE" filter="url(#fx4p8xw8jr0ys)" height="36.7999" rx="12.5" ry="12.5" style="stroke: #A80036; stroke-width: 1.5;" width="46" x="782.3333" y="360.7996"/><text fill="#000000" font-family="sans-serif" font-size="14" lengthAdjust="spacingAndGlyphs" textLength="26" x="792.3333" y="384.7995">mvn</text><path d="M732.3333,208.7997 L742.3333,208.7997 C757.3333,208.7997 757.3333,379.1995 772.3333,379.1995 L782.3333,379.1995 " fill="none" style="stroke: #A80036; stroke-width: 1.0;"/><path d="M575.3333,208.7997 L585.3333,208.7997 C600.3333,208.7997 600.3333,208.7997 615.3333,208.7997 L625.3333,208.7997 " fill="none" style="stroke: #A80036; stroke-width: 1.0;"/><path d="M470.3333,577.9993 L480.3333,577.9993 C495.3333,577.9993 495.3333,208.7997 510.3333,208.7997 L520.3333,208.7997 " fill="none" style="stroke: #A80036; stroke-width: 1.0;"/><text fill="#000000" font-family="sans-serif" font-size="14" lengthAdjust="spacingAndGlyphs" textLength="30" x="523.3333" y="583.5992">build</text><rect fill="#FEFECE" filter="url(#fx4p8xw8jr0ys)" height="36.7999" rx="12.5" ry="12.5" style="stroke: #A80036; stroke-width: 1.5;" width="66" x="603.3333" y="417.5995"/><text fill="#000000" font-family="sans-serif" font-size="14" lengthAdjust="spacingAndGlyphs" textLength="46" x="613.3333" y="441.5994">Node.js</text><path d="M553.3333,577.9993 L563.3333,577.9993 C578.3333,577.9993 578.3333,435.9995 593.3333,435.9995 L603.3333,435.9995 " fill="none" style="stroke: #A80036; stroke-width: 1.0;"/><rect fill="#FEFECE" filter="url(#fx4p8xw8jr0ys)" height="36.7999" rx="12.5" ry="12.5" style="stroke: #A80036; stroke-width: 1.5;" width="59" x="603.3333" y="474.3994"/><text fill="#000000" font-family="sans-serif" font-size="14" lengthAdjust="spacingAndGlyphs" textLength="39" x="613.3333" y="498.3994">gradle</text><path d="M553.3333,577.9993 L563.3333,577.9993 C578.3333,577.9993 578.3333,492.7994 593.3333,492.7994 L603.3333,492.7994 " fill="none" style="stroke: #A80036; stroke-width: 1.0;"/><rect fill="#FEFECE" filter="url(#fx4p8xw8jr0ys)" height="36.7999" rx="12.5" ry="12.5" style="stroke: #A80036; stroke-width: 1.5;" width="47" x="603.3333" y="531.1993"/><text fill="#000000" font-family="sans-serif" font-size="14" lengthAdjust="spacingAndGlyphs" textLength="27" x="613.3333" y="555.1993">npm</text><path d="M553.3333,577.9993 L563.3333,577.9993 C578.3333,577.9993 578.3333,549.5993 593.3333,549.5993 L603.3333,549.5993 " fill="none" style="stroke: #A80036; stroke-width: 1.0;"/><rect fill="#FEFECE" filter="url(#fx4p8xw8jr0ys)" height="36.7999" rx="12.5" ry="12.5" style="stroke: #A80036; stroke-width: 1.5;" width="50" x="603.3333" y="587.9993"/><text fill="#000000" font-family="sans-serif" font-size="14" lengthAdjust="spacingAndGlyphs" textLength="30" x="613.3333" y="611.9992">Yarn</text><path d="M553.3333,577.9993 L563.3333,577.9993 C578.3333,577.9993 578.3333,606.3992 593.3333,606.3992 L603.3333,606.3992 " fill="none" style="stroke: #A80036; stroke-width: 1.0;"/><rect fill="#FEFECE" filter="url(#fx4p8xw8jr0ys)" height="36.7999" rx="12.5" ry="12.5" style="stroke: #A80036; stroke-width: 1.5;" width="75" x="603.3333" y="644.7992"/><text fill="#000000" font-family="sans-serif" font-size="14" lengthAdjust="spacingAndGlyphs" textLength="55" x="613.3333" y="668.7991">webpack</text><path d="M553.3333,577.9993 L563.3333,577.9993 C578.3333,577.9993 578.3333,663.1992 593.3333,663.1992 L603.3333,663.1992 " fill="none" style="stroke: #A80036; stroke-width: 1.0;"/><rect fill="#FEFECE" filter="url(#fx4p8xw8jr0ys)" height="36.7999" rx="12.5" ry="12.5" style="stroke: #A80036; stroke-width: 1.5;" width="49" x="603.3333" y="701.5991"/><text fill="#000000" font-family="sans-serif" font-size="14" lengthAdjust="spacingAndGlyphs" textLength="29" x="613.3333" y="725.5991">DCE</text><path d="M553.3333,577.9993 L563.3333,577.9993 C578.3333,577.9993 578.3333,719.9991 593.3333,719.9991 L603.3333,719.9991 " fill="none" style="stroke: #A80036; stroke-width: 1.0;"/><path d="M470.3333,577.9993 L480.3333,577.9993 C495.3333,577.9993 495.3333,577.9993 510.3333,577.9993 L520.3333,577.9993 " fill="none" style="stroke: #A80036; stroke-width: 1.0;"/><text fill="#000000" font-family="sans-serif" font-size="14" lengthAdjust="spacingAndGlyphs" textLength="22" x="523.3333" y="952.7988">test</text><rect fill="#FEFECE" filter="url(#fx4p8xw8jr0ys)" height="36.7999" rx="12.5" ry="12.5" style="stroke: #A80036; stroke-width: 1.5;" width="61" x="595.3333" y="758.399"/><text fill="#000000" font-family="sans-serif" font-size="14" lengthAdjust="spacingAndGlyphs" textLength="41" x="605.3333" y="782.399">Karma</text><path d="M545.3333,947.1988 L555.3333,947.1988 C570.3333,947.1988 570.3333,776.799 585.3333,776.799 L595.3333,776.799 " fill="none" style="stroke: #A80036; stroke-width: 1.0;"/><rect fill="#FEFECE" filter="url(#fx4p8xw8jr0ys)" height="36.7999" rx="12.5" ry="12.5" style="stroke: #A80036; stroke-width: 1.5;" width="62" x="595.3333" y="815.199"/><text fill="#000000" font-family="sans-serif" font-size="14" lengthAdjust="spacingAndGlyphs" textLength="42" x="605.3333" y="839.1989">Mocha</text><path d="M545.3333,947.1988 L555.3333,947.1988 C570.3333,947.1988 570.3333,833.5989 585.3333,833.5989 L595.3333,833.5989 " fill="none" style="stroke: #A80036; stroke-width: 1.0;"/><rect fill="#FEFECE" filter="url(#fx4p8xw8jr0ys)" height="36.7999" rx="12.5" ry="12.5" style="stroke: #A80036; stroke-width: 1.5;" width="125" x="595.3333" y="871.9989"/><text fill="#000000" font-family="sans-serif" font-size="14" lengthAdjust="spacingAndGlyphs" textLength="105" x="605.3333" y="895.9988">ChromeHeadless</text><path d="M545.3333,947.1988 L555.3333,947.1988 C570.3333,947.1988 570.3333,890.3989 585.3333,890.3989 L595.3333,890.3989 " fill="none" style="stroke: #A80036; stroke-width: 1.0;"/><rect fill="#FEFECE" filter="url(#fx4p8xw8jr0ys)" height="36.7999" rx="12.5" ry="12.5" style="stroke: #A80036; stroke-width: 1.5;" width="51" x="595.3333" y="928.7988"/><text fill="#000000" font-family="sans-serif" font-size="14" lengthAdjust="spacingAndGlyphs" textLength="31" x="605.3333" y="952.7988">qunit</text><path d="M545.3333,947.1988 L555.3333,947.1988 C570.3333,947.1988 570.3333,947.1988 585.3333,947.1988 L595.3333,947.1988 " fill="none" style="stroke: #A80036; stroke-width: 1.0;"/><rect fill="#FEFECE" filter="url(#fx4p8xw8jr0ys)" height="36.7999" rx="12.5" ry="12.5" style="stroke: #A80036; stroke-width: 1.5;" width="95" x="595.3333" y="985.5988"/><text fill="#000000" font-family="sans-serif" font-size="14" lengthAdjust="spacingAndGlyphs" textLength="75" x="605.3333" y="1009.5987">PhtantomJS</text><path d="M545.3333,947.1988 L555.3333,947.1988 C570.3333,947.1988 570.3333,1003.9987 585.3333,1003.9987 L595.3333,1003.9987 " fill="none" style="stroke: #A80036; stroke-width: 1.0;"/><rect fill="#FEFECE" filter="url(#fx4p8xw8jr0ys)" height="36.7999" rx="12.5" ry="12.5" style="stroke: #A80036; stroke-width: 1.5;" width="76" x="595.3333" y="1070.7986"/><text fill="#000000" font-family="sans-serif" font-size="14" lengthAdjust="spacingAndGlyphs" textLength="56" x="605.3333" y="1094.7986">coverage</text><rect fill="#FEFECE" filter="url(#fx4p8xw8jr0ys)" height="36.7999" rx="12.5" ry="12.5" style="stroke: #A80036; stroke-width: 1.5;" width="69" x="721.3333" y="1042.3987"/><text fill="#000000" font-family="sans-serif" font-size="14" lengthAdjust="spacingAndGlyphs" textLength="49" x="731.3333" y="1066.3986">istanbul</text><path d="M671.3333,1089.1986 L681.3333,1089.1986 C696.3333,1089.1986 696.3333,1060.7986 711.3333,1060.7986 L721.3333,1060.7986 " fill="none" style="stroke: #A80036; stroke-width: 1.0;"/><rect fill="#FEFECE" filter="url(#fx4p8xw8jr0ys)" height="36.7999" rx="12.5" ry="12.5" style="stroke: #A80036; stroke-width: 1.5;" width="42" x="721.3333" y="1099.1986"/><text fill="#000000" font-family="sans-serif" font-size="14" lengthAdjust="spacingAndGlyphs" textLength="22" x="731.3333" y="1123.1985">nyc</text><path d="M671.3333,1089.1986 L681.3333,1089.1986 C696.3333,1089.1986 696.3333,1117.5986 711.3333,1117.5986 L721.3333,1117.5986 " fill="none" style="stroke: #A80036; stroke-width: 1.0;"/><path d="M545.3333,947.1988 L555.3333,947.1988 C570.3333,947.1988 570.3333,1089.1986 585.3333,1089.1986 L595.3333,1089.1986 " fill="none" style="stroke: #A80036; stroke-width: 1.0;"/><path d="M470.3333,577.9993 L480.3333,577.9993 C495.3333,577.9993 495.3333,947.1988 510.3333,947.1988 L520.3333,947.1988 " fill="none" style="stroke: #A80036; stroke-width: 1.0;"/><text fill="#000000" font-family="sans-serif" font-size="14" lengthAdjust="spacingAndGlyphs" textLength="40" x="342.3333" y="242.7997">basics</text><rect fill="#FEFECE" filter="url(#fx4p8xw8jr0ys)" height="36.7999" rx="12.5" ry="12.5" style="stroke: #A80036; stroke-width: 1.5;" width="59" x="233.3333" y="161.9998"/><text fill="#000000" font-family="sans-serif" font-size="14" lengthAdjust="spacingAndGlyphs" textLength="39" x="243.3333" y="185.9998">HTML</text><path d="M342.3333,237.1997 L332.3333,237.1997 C317.3333,237.1997 317.3333,180.3998 302.3333,180.3998 L292.3333,180.3998 " fill="none" style="stroke: #A80036; stroke-width: 1.0;"/><rect fill="#FEFECE" filter="url(#fx4p8xw8jr0ys)" height="36.7999" rx="12.5" ry="12.5" style="stroke: #A80036; stroke-width: 1.5;" width="48" x="244.3333" y="218.7997"/><text fill="#000000" font-family="sans-serif" font-size="14" lengthAdjust="spacingAndGlyphs" textLength="28" x="254.3333" y="242.7997">CSS</text><path d="M342.3333,237.1997 L332.3333,237.1997 C317.3333,237.1997 317.3333,237.1997 302.3333,237.1997 L292.3333,237.1997 " fill="none" style="stroke: #A80036; stroke-width: 1.0;"/><rect fill="#FEFECE" filter="url(#fx4p8xw8jr0ys)" height="36.7999" rx="12.5" ry="12.5" style="stroke: #A80036; stroke-width: 1.5;" width="97.3333" x="195" y="275.5997"/><path d="M209.5,289.5663 C208.8583,289.5663 208.3333,290.0913 208.3333,290.7329 L208.3333,297.1496 C208.3333,297.4763 208.0767,297.7329 207.75,297.7329 C207.4233,297.7329 207.1667,297.4763 207.1667,297.1496 L207.1667,295.3996 L206,295.3996 L206,297.7329 C206,298.3746 206.525,298.8996 207.1667,298.8996 L213,298.8996 C213.6417,298.8996 214.1667,298.3746 214.1667,297.7329 L214.1667,294.2329 L209.5,294.2329 L209.5,291.3163 C209.5,290.9896 209.7567,290.7329 210.0833,290.7329 C210.41,290.7329 210.6667,290.9896 210.6667,291.3163 L210.6667,293.0663 L215.3333,293.0663 L215.3333,290.7329 C215.3333,290.0913 214.8083,289.5663 214.1667,289.5663 L209.5,289.5663 " fill="#000000" style="stroke: ; stroke-width: 0.0; stroke-dasharray: ;"/><text fill="#000000" font-family="sans-serif" font-size="14" lengthAdjust="spacingAndGlyphs" textLength="66" x="216.3333" y="299.5996">JavaScript</text><path d="M342.3333,237.1997 L332.3333,237.1997 C317.3333,237.1997 317.3333,293.9996 302.3333,293.9996 L292.3333,293.9996 " fill="none" style="stroke: #A80036; stroke-width: 1.0;"/><path d="M435.3333,577.9993 L425.3333,577.9993 C410.3333,577.9993 410.3333,237.1997 395.3333,237.1997 L385.3333,237.1997 " fill="none" style="stroke: #A80036; stroke-width: 1.0;"/><text fill="#000000" font-family="sans-serif" font-size="14" lengthAdjust="spacingAndGlyphs" textLength="29" x="353.3333" y="555.1993">code</text><rect fill="#FEFECE" filter="url(#fx4p8xw8jr0ys)" height="36.7999" rx="12.5" ry="12.5" style="stroke: #A80036; stroke-width: 1.5;" width="65.3333" x="238" y="474.3994"/><text fill="#000000" font-family="sans-serif" font-size="14" lengthAdjust="spacingAndGlyphs" textLength="34" x="248" y="498.3994">Kotlin</text><path d="M287.6667,488.366 L286.5,491.866 L283,491.866 L285.9167,494.1993 L284.75,497.6993 L287.6667,495.366 L290.5833,497.6993 L289.4167,494.1993 L292.3333,491.866 L288.8333,491.866 L287.6667,488.366 " fill="#000000" style="stroke: ; stroke-width: 0.0; stroke-dasharray: ;"/><rect fill="#FEFECE" filter="url(#fx4p8xw8jr0ys)" height="36.7999" rx="12.5" ry="12.5" style="stroke: #A80036; stroke-width: 1.5;" width="89" x="99" y="332.3996"/><text fill="#000000" font-family="sans-serif" font-size="14" lengthAdjust="spacingAndGlyphs" textLength="69" x="109" y="356.3995">constructor</text><path d="M238,492.7994 L228,492.7994 C213,492.7994 213,350.7996 198,350.7996 L188,350.7996 " fill="none" style="stroke: #A80036; stroke-width: 1.0;"/><rect fill="#FEFECE" filter="url(#fx4p8xw8jr0ys)" height="36.7999" rx="12.5" ry="12.5" style="stroke: #A80036; stroke-width: 1.5;" width="178" x="10" y="389.1995"/><text fill="#000000" font-family="sans-serif" font-size="14" lengthAdjust="spacingAndGlyphs" textLength="158" x="20" y="413.1995">default/named arguments</text><path d="M238,492.7994 L228,492.7994 C213,492.7994 213,407.5995 198,407.5995 L188,407.5995 " fill="none" style="stroke: #A80036; stroke-width: 1.0;"/><rect fill="#FEFECE" filter="url(#fx4p8xw8jr0ys)" height="36.7999" rx="12.5" ry="12.5" style="stroke: #A80036; stroke-width: 1.5;" width="138" x="50" y="445.9995"/><text fill="#000000" font-family="sans-serif" font-size="14" lengthAdjust="spacingAndGlyphs" textLength="118" x="60" y="469.9994">extension functions</text><path d="M238,492.7994 L228,492.7994 C213,492.7994 213,464.3994 198,464.3994 L188,464.3994 " fill="none" style="stroke: #A80036; stroke-width: 1.0;"/><rect fill="#FEFECE" filter="url(#fx4p8xw8jr0ys)" height="36.7999" rx="12.5" ry="12.5" style="stroke: #A80036; stroke-width: 1.5;" width="127" x="61" y="502.7994"/><text fill="#000000" font-family="sans-serif" font-size="14" lengthAdjust="spacingAndGlyphs" textLength="107" x="71" y="526.7993">companion object</text><path d="M238,492.7994 L228,492.7994 C213,492.7994 213,521.1993 198,521.1993 L188,521.1993 " fill="none" style="stroke: #A80036; stroke-width: 1.0;"/><rect fill="#FEFECE" filter="url(#fx4p8xw8jr0ys)" height="36.7999" rx="12.5" ry="12.5" style="stroke: #A80036; stroke-width: 1.5;" width="97" x="91" y="559.5993"/><text fill="#000000" font-family="sans-serif" font-size="14" lengthAdjust="spacingAndGlyphs" textLength="77" x="101" y="583.5992">mutable lists</text><path d="M238,492.7994 L228,492.7994 C213,492.7994 213,577.9993 198,577.9993 L188,577.9993 " fill="none" style="stroke: #A80036; stroke-width: 1.0;"/><rect fill="#FEFECE" filter="url(#fx4p8xw8jr0ys)" height="36.7999" rx="12.5" ry="12.5" style="stroke: #A80036; stroke-width: 1.5;" width="38" x="150" y="616.3992"/><text fill="#000000" font-family="sans-serif" font-size="14" lengthAdjust="spacingAndGlyphs" textLength="18" x="160" y="640.3992">init</text><path d="M238,492.7994 L228,492.7994 C213,492.7994 213,634.7992 198,634.7992 L188,634.7992 " fill="none" style="stroke: #A80036; stroke-width: 1.0;"/><path d="M353.3333,549.5993 L343.3333,549.5993 C328.3333,549.5993 328.3333,492.7994 313.3333,492.7994 L303.3333,492.7994 " fill="none" style="stroke: #A80036; stroke-width: 1.0;"/><rect fill="#FEFECE" filter="url(#fx4p8xw8jr0ys)" height="36.7999" rx="12.5" ry="12.5" style="stroke: #A80036; stroke-width: 1.5;" width="66" x="237.3333" y="531.1993"/><text fill="#000000" font-family="sans-serif" font-size="14" lengthAdjust="spacingAndGlyphs" textLength="46" x="247.3333" y="555.1993">KVision</text><path d="M353.3333,549.5993 L343.3333,549.5993 C328.3333,549.5993 328.3333,549.5993 313.3333,549.5993 L303.3333,549.5993 " fill="none" style="stroke: #A80036; stroke-width: 1.0;"/><rect fill="#FEFECE" filter="url(#fx4p8xw8jr0ys)" height="36.7999" rx="12.5" ry="12.5" style="stroke: #A80036; stroke-width: 1.5;" width="80" x="223.3333" y="673.1992"/><text fill="#000000" font-family="sans-serif" font-size="14" lengthAdjust="spacingAndGlyphs" textLength="60" x="233.3333" y="697.1991">Tabulator</text><path d="M353.3333,549.5993 L343.3333,549.5993 C328.3333,549.5993 328.3333,691.5991 313.3333,691.5991 L303.3333,691.5991 " fill="none" style="stroke: #A80036; stroke-width: 1.0;"/><rect fill="#FEFECE" filter="url(#fx4p8xw8jr0ys)" height="36.7999" rx="12.5" ry="12.5" style="stroke: #A80036; stroke-width: 1.5;" width="136" x="167.3333" y="729.9991"/><text fill="#000000" font-family="sans-serif" font-size="14" lengthAdjust="spacingAndGlyphs" textLength="116" x="177.3333" y="753.999">kotlinx.serialization</text><path d="M353.3333,549.5993 L343.3333,549.5993 C328.3333,549.5993 328.3333,748.399 313.3333,748.399 L303.3333,748.399 " fill="none" style="stroke: #A80036; stroke-width: 1.0;"/><path d="M435.3333,577.9993 L425.3333,577.9993 C410.3333,577.9993 410.3333,549.5993 395.3333,549.5993 L385.3333,549.5993 " fill="none" style="stroke: #A80036; stroke-width: 1.0;"/><text fill="#000000" font-family="sans-serif" font-size="14" lengthAdjust="spacingAndGlyphs" textLength="14" x="368.3333" y="839.1989">CI</text><rect fill="#FEFECE" filter="url(#fx4p8xw8jr0ys)" height="36.7999" rx="12.5" ry="12.5" style="stroke: #A80036; stroke-width: 1.5;" width="59" x="259.3333" y="786.799"/><text fill="#000000" font-family="sans-serif" font-size="14" lengthAdjust="spacingAndGlyphs" textLength="39" x="269.3333" y="810.799">Travis</text><path d="M368.3333,833.5989 L358.3333,833.5989 C343.3333,833.5989 343.3333,805.199 328.3333,805.199 L318.3333,805.199 " fill="none" style="stroke: #A80036; stroke-width: 1.0;"/><rect fill="#FEFECE" filter="url(#fx4p8xw8jr0ys)" height="36.7999" rx="12.5" ry="12.5" style="stroke: #A80036; stroke-width: 1.5;" width="77" x="241.3333" y="843.5989"/><text fill="#000000" font-family="sans-serif" font-size="14" lengthAdjust="spacingAndGlyphs" textLength="57" x="251.3333" y="867.5989">Coveralls</text><path d="M368.3333,833.5989 L358.3333,833.5989 C343.3333,833.5989 343.3333,861.9989 328.3333,861.9989 L318.3333,861.9989 " fill="none" style="stroke: #A80036; stroke-width: 1.0;"/><path d="M435.3333,577.9993 L425.3333,577.9993 C410.3333,577.9993 410.3333,833.5989 395.3333,833.5989 L385.3333,833.5989 " fill="none" style="stroke: #A80036; stroke-width: 1.0;"/><path d="M337.0833,942.7654 C335.695,942.7654 334.7757,944.7371 335.6973,945.6821 L335.3695,945.9376 L333.8377,945.1723 A0.5833,0.5833 0 0 0 333.4363,945.0988 A0.5833,0.5833 0 0 0 333.3267,946.1931 L334.6753,946.8499 C334.5703,947.0319 334.4583,947.2326 334.3837,947.4333 L333.581,947.4333 A0.5833,0.5833 0 0 0 333.4713,947.4333 A0.5857,0.5857 0 1 0 333.581,948.5999 L334.1643,948.5999 C334.1643,948.8648 334.1912,949.1191 334.2378,949.3653 L333.3267,949.8389 A0.5833,0.5833 0 1 0 333.8377,950.8598 L334.603,950.4584 C334.8888,950.9951 335.2913,951.4431 335.7697,951.7348 C336.178,951.5131 336.4988,951.2226 336.4988,950.8959 L336.4988,949.2183 A0.5833,0.5833 0 0 0 336.4988,949.1086 L336.4988,948.1601 A0.5833,0.5833 0 0 0 336.4988,947.9046 C336.5513,947.6351 336.7952,947.4309 337.0822,947.4309 C337.4088,947.4309 337.6655,947.6876 337.6655,948.0143 L337.6655,949.0351 A0.5833,0.5833 0 0 0 337.6655,949.1448 L337.6655,949.2183 A0.5833,0.5833 0 0 0 337.6655,949.3279 L337.6655,950.8959 C337.6655,951.2109 337.9863,951.4758 338.3947,951.6986 C338.873,951.4128 339.2755,950.9939 339.5613,950.4584 L340.3267,950.8598 A0.5833,0.5833 0 1 0 340.8377,949.8389 L339.9265,949.3653 C339.9732,949.1191 340,948.8648 340,948.5999 L340.5833,948.5999 A0.5833,0.5833 0 1 0 340.5833,947.4333 L339.7807,947.4333 C339.706,947.2326 339.594,947.0319 339.489,946.8499 L340.8377,946.1931 A0.5833,0.5833 0 0 0 340.4725,945.0988 A0.5833,0.5833 0 0 0 340.3267,945.1723 L338.7948,945.9376 L338.467,945.6821 C339.377,944.7138 338.4705,942.7654 337.081,942.7654 " fill="#000000" style="stroke: ; stroke-width: 0.0; stroke-dasharray: ;"/><text fill="#000000" font-family="sans-serif" font-size="14" lengthAdjust="spacingAndGlyphs" textLength="39" x="343.3333" y="952.7988">debug</text><rect fill="#FEFECE" filter="url(#fx4p8xw8jr0ys)" height="36.7999" rx="12.5" ry="12.5" style="stroke: #A80036; stroke-width: 1.5;" width="68" x="214" y="900.3989"/><text fill="#000000" font-family="sans-serif" font-size="14" lengthAdjust="spacingAndGlyphs" textLength="48" x="224" y="924.3988">Chrome</text><rect fill="#FEFECE" filter="url(#fx4p8xw8jr0ys)" height="36.7999" rx="12.5" ry="12.5" style="stroke: #A80036; stroke-width: 1.5;" width="66" x="98" y="900.3989"/><text fill="#000000" font-family="sans-serif" font-size="14" lengthAdjust="spacingAndGlyphs" textLength="46" x="108" y="924.3988">Plugins</text><path d="M214,918.7988 L204,918.7988 C189,918.7988 189,918.7988 174,918.7988 L164,918.7988 " fill="none" style="stroke: #A80036; stroke-width: 1.0;"/><path d="M332,947.1988 L322,947.1988 C307,947.1988 307,918.7988 292,918.7988 L282,918.7988 " fill="none" style="stroke: #A80036; stroke-width: 1.0;"/><rect fill="#FEFECE" filter="url(#fx4p8xw8jr0ys)" height="36.7999" rx="12.5" ry="12.5" style="stroke: #A80036; stroke-width: 1.5;" width="86" x="196" y="957.1988"/><text fill="#000000" font-family="sans-serif" font-size="14" lengthAdjust="spacingAndGlyphs" textLength="66" x="206" y="981.1987">JavaScript</text><path d="M332,947.1988 L322,947.1988 C307,947.1988 307,975.5988 292,975.5988 L282,975.5988 " fill="none" style="stroke: #A80036; stroke-width: 1.0;"/><path d="M435.3333,577.9993 L425.3333,577.9993 C410.3333,577.9993 410.3333,947.1988 395.3333,947.1988 L385.3333,947.1988 " fill="none" style="stroke: #A80036; stroke-width: 1.0;"/><!--MD5=[d88d4dd657aea54ae538877b4edf708f]
@startmindmap
+_ know\nhow
- -_ basics
- - - HTML
- - - CSS
- - - <&script>JavaScript
- -_ code
- - - Kotlin<&star>
- - - - constructor
- - - - default/named arguments
- - - - extension functions
- - - - companion object
- - - - mutable lists
- - - - init
- - - KVision
- - - Tabulator
- - - kotlinx.serialization
++_ trouble\nshooting
+++ <&exclamation>CORS
+++ <&exclamation>Proxy settings
++++ npm
++++ git
++++ gradle
++++ ssh
++++ curl
++++ yarn
++++ mvn
++_ build
+++ Node.js
+++ gradle
+++ npm
+++ Yarn
+++ webpack
+++ DCE

++_ test
+++ Karma
+++ ~~Mocha~~
+++ ChromeHeadless
+++ qunit
+++ PhtantomJS
+++ coverage
++++ istanbul
++++ nyc
- -_ CI
- - - Travis
- - - Coveralls
- -_ <&bug>debug
- - - Chrome
- - - - Plugins
- - - JavaScript
@endmindmap

PlantUML version 1.2020.19(Mon Oct 12 15:10:01 GMT 2020)
(GPL source distribution)
Java Runtime: OpenJDK Runtime Environment
JVM: OpenJDK 64-Bit Server VM
Default Encoding: UTF-8
Language: en
Country: US
--></g></svg>