<?xml version="1.0" encoding="UTF-8" standalone="no"?><svg xmlns="http://www.w3.org/2000/svg" xmlns:xlink="http://www.w3.org/1999/xlink" contentStyleType="text/css" height="944px" preserveAspectRatio="none" style="width:1333px;height:944px;background:#FFFFFF;" version="1.1" viewBox="0 0 1333 944" width="1333px" zoomAndPan="magnify"><defs/><g><!--MD5=[5336d0432c5753478f8bb0248199b33b]
cluster handler--><g id="cluster_handler"><path d="M773.5,595.5 L825.5,595.5 A3.75,3.75 0 0 1 828,598 L835,618.2999 L958.5,618.2999 A2.5,2.5 0 0 1 961,620.7999 L961,783 A2.5,2.5 0 0 1 958.5,785.5 L773.5,785.5 A2.5,2.5 0 0 1 771,783 L771,598 A2.5,2.5 0 0 1 773.5,595.5 " style="stroke:#000000;stroke-width:1.5;fill:none;"/><line style="stroke:#000000;stroke-width:1.5;fill:none;" x1="771" x2="835" y1="618.2999" y2="618.2999"/><text fill="#000000" font-family="sans-serif" font-size="14" font-weight="bold" lengthAdjust="spacing" textLength="51" x="775" y="611.4999">handler</text></g><!--MD5=[01435ace8273dc3cae88e7f376e4d373]
cluster core--><g id="cluster_core"><path d="M8.5,6 L39.5,6 A3.75,3.75 0 0 1 42,8.5 L49,28.7999 L529.5,28.7999 A2.5,2.5 0 0 1 532,31.2999 L532,935 A2.5,2.5 0 0 1 529.5,937.5 L8.5,937.5 A2.5,2.5 0 0 1 6,935 L6,8.5 A2.5,2.5 0 0 1 8.5,6 " style="stroke:#000000;stroke-width:1.5;fill:none;"/><line style="stroke:#000000;stroke-width:1.5;fill:none;" x1="6" x2="49" y1="28.7999" y2="28.7999"/><text fill="#000000" font-family="sans-serif" font-size="14" font-weight="bold" lengthAdjust="spacing" textLength="30" x="10" y="21.9999">core</text></g><!--MD5=[2e31800f208179cab94650aeb782e4d8]
cluster event--><g id="cluster_event"><path d="M32.5,49 L71.5,49 A3.75,3.75 0 0 1 74,51.5 L81,71.7999 L505.5,71.7999 A2.5,2.5 0 0 1 508,74.2999 L508,513 A2.5,2.5 0 0 1 505.5,515.5 L32.5,515.5 A2.5,2.5 0 0 1 30,513 L30,51.5 A2.5,2.5 0 0 1 32.5,49 " style="stroke:#000000;stroke-width:1.5;fill:none;"/><line style="stroke:#000000;stroke-width:1.5;fill:none;" x1="30" x2="81" y1="71.7999" y2="71.7999"/><text fill="#000000" font-family="sans-serif" font-size="14" font-weight="bold" lengthAdjust="spacing" textLength="38" x="34" y="64.9999">event</text></g><!--MD5=[e8161453ee08a0169facd928153a06ce]
cluster aggregator--><g id="cluster_aggregator"><path d="M195.5,621 L271.5,621 A3.75,3.75 0 0 1 274,623.5 L281,643.7999 L396.5,643.7999 A2.5,2.5 0 0 1 399,646.2999 L399,911 A2.5,2.5 0 0 1 396.5,913.5 L195.5,913.5 A2.5,2.5 0 0 1 193,911 L193,623.5 A2.5,2.5 0 0 1 195.5,621 " style="stroke:#000000;stroke-width:1.5;fill:none;"/><line style="stroke:#000000;stroke-width:1.5;fill:none;" x1="193" x2="281" y1="643.7999" y2="643.7999"/><text fill="#000000" font-family="sans-serif" font-size="14" font-weight="bold" lengthAdjust="spacing" textLength="75" x="197" y="636.9999">aggregator</text></g><!--MD5=[ffd769195028dd438823d2edcff41d80]
cluster to--><g id="cluster_to"><path d="M558.5,636.5 L573.5,636.5 A3.75,3.75 0 0 1 576,639 L583,659.2999 L713.5,659.2999 A2.5,2.5 0 0 1 716,661.7999 L716,742 A2.5,2.5 0 0 1 713.5,744.5 L558.5,744.5 A2.5,2.5 0 0 1 556,742 L556,639 A2.5,2.5 0 0 1 558.5,636.5 " style="stroke:#000000;stroke-width:1.5;fill:none;"/><line style="stroke:#000000;stroke-width:1.5;fill:none;" x1="556" x2="583" y1="659.2999" y2="659.2999"/><text fill="#000000" font-family="sans-serif" font-size="14" font-weight="bold" lengthAdjust="spacing" textLength="14" x="560" y="652.4999">to</text></g><!--MD5=[c429691f2fe3ffc642d3e6ed879a8b4b]
cluster remote--><g id="cluster_remote"><polygon points="985,641.5,995,631.5,1316,631.5,1316,734.5,1306,744.5,985,744.5,985,641.5" style="stroke:#181818;stroke-width:1.0;fill:none;"/><line style="stroke:#181818;stroke-width:1.0;fill:none;" x1="1306" x2="1316" y1="641.5" y2="631.5"/><line style="stroke:#181818;stroke-width:1.0;fill:none;" x1="985" x2="1306" y1="641.5" y2="641.5"/><line style="stroke:#181818;stroke-width:1.0;fill:none;" x1="1306" x2="1306" y1="641.5" y2="744.5"/><text fill="#000000" font-family="sans-serif" font-size="14" font-weight="bold" lengthAdjust="spacing" textLength="48" x="1122.5" y="658.4999">remote</text></g><!--MD5=[c8ff661d8810405741f708d20018b1ce]
class ResponseHandler--><g id="elem_ResponseHandler"><rect codeLine="2" fill="#F1F1F1" height="138.7998" id="ResponseHandler" rx="2.5" ry="2.5" style="stroke:#181818;stroke-width:0.5;" width="157" x="787.5" y="630.5"/><ellipse cx="802.5" cy="658.3001" fill="#ADD1B2" rx="11" ry="11" style="stroke:#181818;stroke-width:1.0;"/><path d="M801.8594,662.0813 Q802.6563,662.0813 803.2188,661.8938 Q803.7969,661.6907 804.0313,661.4719 Q804.2813,661.2376 804.5156,661.0501 Q804.7656,660.8469 804.9844,660.8469 Q805.3281,660.8469 805.5781,661.1126 Q805.8438,661.3626 805.8438,661.6907 Q805.8438,662.4251 804.6719,663.1126 Q803.5156,663.7844 801.8125,663.7844 Q799.6563,663.7844 798.2344,662.5188 Q796.8125,661.2532 796.8125,659.3157 L796.8125,658.1907 Q796.8125,656.1594 798.1406,654.7844 Q799.4688,653.3938 801.4375,653.3938 Q802.625,653.3938 803.8438,653.9719 L804.0156,654.0501 Q804.3125,653.6438 804.7344,653.6438 Q805.2188,653.6438 805.3906,653.9407 Q805.5781,654.2219 805.5781,654.7688 L805.5781,656.1907 Q805.5781,657.3157 804.7344,657.3157 Q804.4219,657.3157 804.2188,657.1438 Q804.0313,656.9719 803.9844,656.8313 Q803.9531,656.6751 803.9063,656.4094 Q803.7969,655.8938 803.2813,655.5813 Q802.7656,655.2688 802.3125,655.1907 Q801.875,655.0969 801.5,655.0969 Q800.2188,655.0969 799.3594,655.9719 Q798.5156,656.8469 798.5156,658.1907 L798.5156,659.2844 Q798.5156,660.5657 799.4219,661.3313 Q800.3281,662.0813 801.8594,662.0813 Z " fill="#000000"/><text fill="#000000" font-family="sans-serif" font-size="12" font-style="italic" lengthAdjust="spacing" textLength="51" x="853.5" y="647.5001">«Facade»</text><text fill="#000000" font-family="sans-serif" font-size="12" font-style="italic" lengthAdjust="spacing" textLength="129" x="814.5" y="661.9002">«ChainOfResponsibility»</text><text fill="#000000" font-family="sans-serif" font-size="14" lengthAdjust="spacing" textLength="110" x="824" y="678.3001">ResponseHandler</text><line style="stroke:#181818;stroke-width:0.5;" x1="788.5" x2="943.5" y1="686.1001" y2="686.1001"/><line style="stroke:#181818;stroke-width:0.5;" x1="788.5" x2="943.5" y1="694.1001" y2="694.1001"/><text fill="#000000" font-family="sans-serif" font-size="14" lengthAdjust="spacing" textLength="108" x="793.5" y="712.1001">handle(LogEntry)</text><text fill="#000000" font-family="sans-serif" font-size="14" lengthAdjust="spacing" textLength="102" x="793.5" y="728.9">canHandle(json)</text><text fill="#000000" font-family="sans-serif" font-size="14" lengthAdjust="spacing" textLength="69" x="793.5" y="745.6999">doHandle()</text><text fill="#000000" font-family="sans-serif" font-size="14" lengthAdjust="spacing" textLength="70" x="793.5" y="762.4998">parse(json)</text></g><!--MD5=[3b2d7f27bec20edac89f8d9c90732cb8]
class XHR--><g id="elem_XHR"><rect codeLine="12" fill="#F1F1F1" height="64.7999" id="XHR" rx="2.5" ry="2.5" style="stroke:#181818;stroke-width:0.5;" width="61" x="430.5" y="354.5"/><ellipse cx="445.5" cy="370.5" fill="#ADD1B2" rx="11" ry="11" style="stroke:#181818;stroke-width:1.0;"/><path d="M444.8594,374.2813 Q445.6563,374.2813 446.2188,374.0938 Q446.7969,373.8906 447.0313,373.6719 Q447.2813,373.4375 447.5156,373.25 Q447.7656,373.0469 447.9844,373.0469 Q448.3281,373.0469 448.5781,373.3125 Q448.8438,373.5625 448.8438,373.8906 Q448.8438,374.625 447.6719,375.3125 Q446.5156,375.9844 444.8125,375.9844 Q442.6563,375.9844 441.2344,374.7188 Q439.8125,373.4531 439.8125,371.5156 L439.8125,370.3906 Q439.8125,368.3594 441.1406,366.9844 Q442.4688,365.5938 444.4375,365.5938 Q445.625,365.5938 446.8438,366.1719 L447.0156,366.25 Q447.3125,365.8438 447.7344,365.8438 Q448.2188,365.8438 448.3906,366.1406 Q448.5781,366.4219 448.5781,366.9688 L448.5781,368.3906 Q448.5781,369.5156 447.7344,369.5156 Q447.4219,369.5156 447.2188,369.3438 Q447.0313,369.1719 446.9844,369.0313 Q446.9531,368.875 446.9063,368.6094 Q446.7969,368.0938 446.2813,367.7813 Q445.7656,367.4688 445.3125,367.3906 Q444.875,367.2969 444.5,367.2969 Q443.2188,367.2969 442.3594,368.1719 Q441.5156,369.0469 441.5156,370.3906 L441.5156,371.4844 Q441.5156,372.7656 442.4219,373.5313 Q443.3281,374.2813 444.8594,374.2813 Z " fill="#000000"/><text fill="#000000" font-family="sans-serif" font-size="14" lengthAdjust="spacing" textLength="29" x="459.5" y="376.1">XHR</text><line style="stroke:#181818;stroke-width:0.5;" x1="431.5" x2="490.5" y1="386.5" y2="386.5"/><line style="stroke:#181818;stroke-width:0.5;" x1="431.5" x2="490.5" y1="394.5" y2="394.5"/><text fill="#000000" font-family="sans-serif" font-size="14" lengthAdjust="spacing" textLength="49" x="436.5" y="412.4999">invoke()</text></g><!--MD5=[36f4d8c507a01d05cb42b0aec07b28f8]
class EventStore--><g id="elem_EventStore"><rect codeLine="15" fill="#F1F1F1" height="155.5998" id="EventStore" rx="2.5" ry="2.5" style="stroke:#181818;stroke-width:0.5;" width="115" x="46.5" y="309"/><ellipse cx="61.5" cy="336.8001" fill="#ADD1B2" rx="11" ry="11" style="stroke:#181818;stroke-width:1.0;"/><path d="M60.8594,340.5813 Q61.6563,340.5813 62.2188,340.3938 Q62.7969,340.1907 63.0313,339.9719 Q63.2813,339.7376 63.5156,339.5501 Q63.7656,339.3469 63.9844,339.3469 Q64.3281,339.3469 64.5781,339.6126 Q64.8438,339.8626 64.8438,340.1907 Q64.8438,340.9251 63.6719,341.6126 Q62.5156,342.2844 60.8125,342.2844 Q58.6563,342.2844 57.2344,341.0188 Q55.8125,339.7532 55.8125,337.8157 L55.8125,336.6907 Q55.8125,334.6594 57.1406,333.2844 Q58.4688,331.8938 60.4375,331.8938 Q61.625,331.8938 62.8438,332.4719 L63.0156,332.5501 Q63.3125,332.1438 63.7344,332.1438 Q64.2188,332.1438 64.3906,332.4407 Q64.5781,332.7219 64.5781,333.2688 L64.5781,334.6907 Q64.5781,335.8157 63.7344,335.8157 Q63.4219,335.8157 63.2188,335.6438 Q63.0313,335.4719 62.9844,335.3313 Q62.9531,335.1751 62.9063,334.9094 Q62.7969,334.3938 62.2813,334.0813 Q61.7656,333.7688 61.3125,333.6907 Q60.875,333.5969 60.5,333.5969 Q59.2188,333.5969 58.3594,334.4719 Q57.5156,335.3469 57.5156,336.6907 L57.5156,337.7844 Q57.5156,339.0657 58.4219,339.8313 Q59.3281,340.5813 60.8594,340.5813 Z " fill="#000000"/><text fill="#000000" font-family="sans-serif" font-size="12" font-style="italic" lengthAdjust="spacing" textLength="45" x="94.5" y="326.0001">«Cache»</text><text fill="#000000" font-family="sans-serif" font-size="12" font-style="italic" lengthAdjust="spacing" textLength="87" x="73.5" y="340.4002">«EventSourcing»</text><text fill="#000000" font-family="sans-serif" font-size="14" lengthAdjust="spacing" textLength="67" x="83.5" y="356.8001">EventStore</text><line style="stroke:#181818;stroke-width:0.5;" x1="47.5" x2="160.5" y1="364.6001" y2="364.6001"/><text fill="#000000" font-family="sans-serif" font-size="14" lengthAdjust="spacing" textLength="86" x="52.5" y="382.6001">log:LogEntry[]</text><line style="stroke:#181818;stroke-width:0.5;" x1="47.5" x2="160.5" y1="389.4001" y2="389.4001"/><text fill="#000000" font-family="sans-serif" font-size="14" lengthAdjust="spacing" textLength="38" x="52.5" y="407.4">start()</text><text fill="#000000" font-family="sans-serif" font-size="14" lengthAdjust="spacing" textLength="33" x="52.5" y="424.1999">end()</text><text fill="#000000" font-family="sans-serif" font-size="14" lengthAdjust="spacing" textLength="37" x="52.5" y="440.9998">fault()</text><text fill="#000000" font-family="sans-serif" font-size="14" lengthAdjust="spacing" textLength="57" x="52.5" y="457.7998">find(href)</text></g><!--MD5=[cb32f8b1b756f5d42df70837c47813f1]
class LogEntry--><g id="elem_LogEntry"><rect codeLine="22" fill="#F1F1F1" height="225.1993" id="LogEntry" rx="2.5" ry="2.5" style="stroke:#181818;stroke-width:0.5;" width="199" x="196.5" y="274.5"/><ellipse cx="250.25" cy="295.1" fill="#ADD1B2" rx="11" ry="11" style="stroke:#181818;stroke-width:1.0;"/><path d="M249.6094,298.8813 Q250.4063,298.8813 250.9688,298.6938 Q251.5469,298.4906 251.7813,298.2719 Q252.0313,298.0375 252.2656,297.85 Q252.5156,297.6469 252.7344,297.6469 Q253.0781,297.6469 253.3281,297.9125 Q253.5938,298.1625 253.5938,298.4906 Q253.5938,299.225 252.4219,299.9125 Q251.2656,300.5844 249.5625,300.5844 Q247.4063,300.5844 245.9844,299.3188 Q244.5625,298.0531 244.5625,296.1156 L244.5625,294.9906 Q244.5625,292.9594 245.8906,291.5844 Q247.2188,290.1938 249.1875,290.1938 Q250.375,290.1938 251.5938,290.7719 L251.7656,290.85 Q252.0625,290.4438 252.4844,290.4438 Q252.9688,290.4438 253.1406,290.7406 Q253.3281,291.0219 253.3281,291.5688 L253.3281,292.9906 Q253.3281,294.1156 252.4844,294.1156 Q252.1719,294.1156 251.9688,293.9438 Q251.7813,293.7719 251.7344,293.6313 Q251.7031,293.475 251.6563,293.2094 Q251.5469,292.6938 251.0313,292.3813 Q250.5156,292.0688 250.0625,291.9906 Q249.625,291.8969 249.25,291.8969 Q247.9688,291.8969 247.1094,292.7719 Q246.2656,293.6469 246.2656,294.9906 L246.2656,296.0844 Q246.2656,297.3656 247.1719,298.1313 Q248.0781,298.8813 249.6094,298.8813 Z " fill="#000000"/><text fill="#000000" font-family="sans-serif" font-size="12" font-style="italic" lengthAdjust="spacing" textLength="87" x="268.75" y="291.5001">«EventSourcing»</text><text fill="#000000" font-family="sans-serif" font-size="14" lengthAdjust="spacing" textLength="56" x="284.25" y="307.9">LogEntry</text><line style="stroke:#181818;stroke-width:0.5;" x1="197.5" x2="394.5" y1="315.7" y2="315.7"/><text fill="#000000" font-family="sans-serif" font-size="14" lengthAdjust="spacing" textLength="46" x="202.5" y="333.7">url:Href</text><text fill="#000000" font-family="sans-serif" font-size="14" lengthAdjust="spacing" textLength="62" x="202.5" y="350.4999">title:String</text><text fill="#000000" font-family="sans-serif" font-size="14" lengthAdjust="spacing" textLength="89" x="202.5" y="367.2998">startedAt:Date</text><text fill="#000000" font-family="sans-serif" font-size="14" lengthAdjust="spacing" textLength="97" x="202.5" y="384.0997">updatedAt:Date</text><text fill="#000000" font-family="sans-serif" font-size="14" lengthAdjust="spacing" textLength="87" x="202.5" y="400.8997">request:String</text><text fill="#000000" font-family="sans-serif" font-size="14" lengthAdjust="spacing" textLength="97" x="202.5" y="417.6996">response:String</text><text fill="#000000" font-family="sans-serif" font-size="14" lengthAdjust="spacing" textLength="57" x="202.5" y="434.4995">blob:Blob</text><text fill="#000000" font-family="sans-serif" font-size="14" lengthAdjust="spacing" textLength="133" x="202.5" y="451.2995">object:TransferObject</text><text fill="#000000" font-family="sans-serif" font-size="14" lengthAdjust="spacing" textLength="187" x="202.5" y="468.0994">aggregators:BaseAggregator[]</text><text fill="#000000" font-family="sans-serif" font-size="14" lengthAdjust="spacing" textLength="80" x="202.5" y="484.8993">cacheHits:int</text><line style="stroke:#181818;stroke-width:0.5;" x1="197.5" x2="394.5" y1="491.6993" y2="491.6993"/></g><!--MD5=[4eb726f03d9593e8bfc030d2c0e199f8]
class ResourceProxy--><g id="elem_ResourceProxy"><rect codeLine="34" fill="#F1F1F1" height="124.3997" id="ResourceProxy" rx="2.5" ry="2.5" style="stroke:#181818;stroke-width:0.5;" width="155" x="336.5" y="84"/><ellipse cx="365" cy="104.6" fill="#ADD1B2" rx="11" ry="11" style="stroke:#181818;stroke-width:1.0;"/><path d="M364.3594,108.3813 Q365.1563,108.3813 365.7188,108.1938 Q366.2969,107.9906 366.5313,107.7719 Q366.7813,107.5375 367.0156,107.35 Q367.2656,107.1469 367.4844,107.1469 Q367.8281,107.1469 368.0781,107.4125 Q368.3438,107.6625 368.3438,107.9906 Q368.3438,108.725 367.1719,109.4125 Q366.0156,110.0844 364.3125,110.0844 Q362.1563,110.0844 360.7344,108.8188 Q359.3125,107.5531 359.3125,105.6156 L359.3125,104.4906 Q359.3125,102.4594 360.6406,101.0844 Q361.9688,99.6938 363.9375,99.6938 Q365.125,99.6938 366.3438,100.2719 L366.5156,100.35 Q366.8125,99.9438 367.2344,99.9438 Q367.7188,99.9438 367.8906,100.2406 Q368.0781,100.5219 368.0781,101.0688 L368.0781,102.4906 Q368.0781,103.6156 367.2344,103.6156 Q366.9219,103.6156 366.7188,103.4438 Q366.5313,103.2719 366.4844,103.1313 Q366.4531,102.975 366.4063,102.7094 Q366.2969,102.1938 365.7813,101.8813 Q365.2656,101.5688 364.8125,101.4906 Q364.375,101.3969 364,101.3969 Q362.7188,101.3969 361.8594,102.2719 Q361.0156,103.1469 361.0156,104.4906 L361.0156,105.5844 Q361.0156,106.8656 361.9219,107.6313 Q362.8281,108.3813 364.3594,108.3813 Z " fill="#000000"/><text fill="#000000" font-family="sans-serif" font-size="12" font-style="italic" lengthAdjust="spacing" textLength="41" x="408" y="101.0001">«Proxy»</text><text fill="#000000" font-family="sans-serif" font-size="14" lengthAdjust="spacing" textLength="93" x="382" y="117.4">ResourceProxy</text><line style="stroke:#181818;stroke-width:0.5;" x1="337.5" x2="490.5" y1="125.2" y2="125.2"/><line style="stroke:#181818;stroke-width:0.5;" x1="337.5" x2="490.5" y1="133.2" y2="133.2"/><ellipse cx="347.5" cy="144.2" fill="#84BE84" rx="3" ry="3" style="stroke:#038048;stroke-width:1.0;"/><text fill="#000000" font-family="sans-serif" font-size="14" lengthAdjust="spacing" textLength="129" x="356.5" y="151.2">load(tObject:Tobject)</text><ellipse cx="347.5" cy="161" fill="#84BE84" rx="3" ry="3" style="stroke:#038048;stroke-width:1.0;"/><text fill="#000000" font-family="sans-serif" font-size="14" lengthAdjust="spacing" textLength="52" x="356.5" y="167.9999">fetch(...)</text><rect fill="#F24D5C" height="6" style="stroke:#C82930;stroke-width:1.0;" width="6" x="344.5" y="174.7999"/><text fill="#000000" font-family="sans-serif" font-size="14" lengthAdjust="spacing" textLength="58" x="356.5" y="184.7998">process()</text><rect fill="#F24D5C" height="6" style="stroke:#C82930;stroke-width:1.0;" width="6" x="344.5" y="191.5998"/><text fill="#000000" font-family="sans-serif" font-size="14" lengthAdjust="spacing" textLength="106" x="356.5" y="201.5997">processCached()</text></g><!--MD5=[d20444995493a81cbf0591ffcbf8e0b7]
class BaseAggregator--><g id="elem_BaseAggregator"><rect codeLine="47" fill="#F1F1F1" height="88.4001" id="BaseAggregator" rx="2.5" ry="2.5" style="stroke:#181818;stroke-width:0.5;" width="135" x="228.5" y="656"/><ellipse cx="243.5" cy="683.8001" fill="#A9DCDF" rx="11" ry="11" style="stroke:#181818;stroke-width:1.0;"/><path d="M244.4531,687.4563 Q244.4531,686.9563 244.7344,686.7844 Q245.0313,686.5969 245.5781,686.5969 L245.9688,686.5969 L245.5781,685.6126 L241.5313,685.6126 L241.1406,686.5969 L241.5313,686.5969 Q242.6406,686.5969 242.6406,687.4563 Q242.6406,688.3001 241.5313,688.3001 L239.2656,688.3001 Q238.1406,688.3001 238.1406,687.4563 Q238.1406,686.9407 238.4375,686.7688 Q238.7344,686.5969 239.2813,686.5969 L241.9219,680.0813 L240.8438,680.0813 Q239.7031,680.0813 239.7031,679.2376 Q239.7031,678.7219 240,678.5657 Q240.2969,678.3938 240.8438,678.3938 L244.5156,678.3938 L247.9063,686.5969 Q249.0625,686.5969 249.0625,687.4563 Q249.0625,688.3001 247.9375,688.3001 L245.5781,688.3001 Q244.4531,688.3001 244.4531,687.4563 Z M244.875,683.9094 L243.5469,680.6438 L242.2031,683.9094 L244.875,683.9094 Z " fill="#000000"/><text fill="#000000" font-family="sans-serif" font-size="12" font-style="italic" lengthAdjust="spacing" textLength="45" x="286.5" y="673.0001">«Redux»</text><text fill="#000000" font-family="sans-serif" font-size="12" font-style="italic" lengthAdjust="spacing" textLength="71" x="273.5" y="687.4002">«Aggregator»</text><text fill="#000000" font-family="sans-serif" font-size="14" font-style="italic" lengthAdjust="spacing" textLength="103" x="257.5" y="703.8001">BaseAggregator</text><line style="stroke:#181818;stroke-width:0.5;" x1="229.5" x2="362.5" y1="711.6001" y2="711.6001"/><line style="stroke:#181818;stroke-width:0.5;" x1="229.5" x2="362.5" y1="719.6001" y2="719.6001"/><text fill="#000000" font-family="sans-serif" font-size="14" lengthAdjust="spacing" textLength="104" x="234.5" y="737.6001">update(logEntry)</text></g><!--MD5=[15240494145cdab917091a6524b04d15]
class AggregatorWithLayout--><g id="elem_AggregatorWithLayout"><rect codeLine="50" fill="#F1F1F1" height="64.7999" id="AggregatorWithLayout" rx="2.5" ry="2.5" style="stroke:#181818;stroke-width:0.5;" width="174" x="209" y="832.5"/><ellipse cx="224" cy="848.5" fill="#A9DCDF" rx="11" ry="11" style="stroke:#181818;stroke-width:1.0;"/><path d="M224.9531,852.1563 Q224.9531,851.6563 225.2344,851.4844 Q225.5313,851.2969 226.0781,851.2969 L226.4688,851.2969 L226.0781,850.3125 L222.0313,850.3125 L221.6406,851.2969 L222.0313,851.2969 Q223.1406,851.2969 223.1406,852.1563 Q223.1406,853 222.0313,853 L219.7656,853 Q218.6406,853 218.6406,852.1563 Q218.6406,851.6406 218.9375,851.4688 Q219.2344,851.2969 219.7813,851.2969 L222.4219,844.7813 L221.3438,844.7813 Q220.2031,844.7813 220.2031,843.9375 Q220.2031,843.4219 220.5,843.2656 Q220.7969,843.0938 221.3438,843.0938 L225.0156,843.0938 L228.4063,851.2969 Q229.5625,851.2969 229.5625,852.1563 Q229.5625,853 228.4375,853 L226.0781,853 Q224.9531,853 224.9531,852.1563 Z M225.375,848.6094 L224.0469,845.3438 L222.7031,848.6094 L225.375,848.6094 Z " fill="#000000"/><text fill="#000000" font-family="sans-serif" font-size="14" font-style="italic" lengthAdjust="spacing" textLength="142" x="238" y="854.1">AggregatorWithLayout</text><line style="stroke:#181818;stroke-width:0.5;" x1="210" x2="382" y1="864.5" y2="864.5"/><text fill="#000000" font-family="sans-serif" font-size="14" lengthAdjust="spacing" textLength="83" x="215" y="882.4999">layout:Layout</text><line style="stroke:#181818;stroke-width:0.5;" x1="210" x2="382" y1="889.2999" y2="889.2999"/></g><!--MD5=[1baf32c238e7b10acca77db68c6197d6]
class TransferObject--><g id="elem_TransferObject"><rect codeLine="58" fill="#F1F1F1" height="57.2" id="TransferObject" rx="2.5" ry="2.5" style="stroke:#181818;stroke-width:0.5;" width="127" x="572.5" y="671.5"/><ellipse cx="587.5" cy="692.1" fill="#B4A7E5" rx="11" ry="11" style="stroke:#181818;stroke-width:1.0;"/><path d="M590.1719,695.3969 Q590.7188,695.3969 591,695.5844 Q591.2813,695.7563 591.2813,696.2563 Q591.2813,697.1 590.1719,697.1 L585.0313,697.1 Q583.9063,697.1 583.9063,696.2563 Q583.9063,695.7563 584.1875,695.5844 Q584.4844,695.3969 585.0313,695.3969 L586.75,695.3969 L586.75,688.8813 L585.0313,688.8813 Q583.9063,688.8813 583.9063,688.0375 Q583.9063,687.5531 584.1875,687.3813 Q584.4844,687.1938 585.0313,687.1938 L590.1719,687.1938 Q590.7188,687.1938 591,687.3813 Q591.2813,687.5531 591.2813,688.0375 Q591.2813,688.8813 590.1719,688.8813 L588.4531,688.8813 L588.4531,695.3969 L590.1719,695.3969 Z " fill="#000000"/><text fill="#000000" font-family="sans-serif" font-size="12" font-style="italic" lengthAdjust="spacing" textLength="89" x="604.5" y="688.5001">«TransferObject»</text><text fill="#000000" font-family="sans-serif" font-size="14" font-style="italic" lengthAdjust="spacing" textLength="95" x="601.5" y="704.9">TransferObject</text><line style="stroke:#181818;stroke-width:0.5;" x1="573.5" x2="698.5" y1="712.7" y2="712.7"/><line style="stroke:#181818;stroke-width:0.5;" x1="573.5" x2="698.5" y1="720.7" y2="720.7"/></g><!--MD5=[28184d3ee69931ae1dfa8d767c0bf202]
class ApacheCauseway--><g id="elem_ApacheCauseway"><rect codeLine="69" fill="#F1F1F1" height="57.2" id="ApacheCauseway" rx="2.5" ry="2.5" style="stroke:#181818;stroke-width:0.5;" width="144" x="1001" y="671.5"/><ellipse cx="1016" cy="692.1" fill="#FF7700" rx="11" ry="11" style="stroke:#A80036;stroke-width:1.0;"/><path d="M1016.0938,694.225 Q1015.25,694.225 1015.25,693.0844 L1015.25,692.975 L1013.7969,692.975 L1013.7969,695.3969 L1015.5,695.3969 Q1016.625,695.3969 1016.625,696.2563 Q1016.625,697.1 1015.5,697.1 L1011.8438,697.1 Q1010.7188,697.1 1010.7188,696.2563 Q1010.7188,695.3969 1011.8438,695.3969 L1012.0938,695.3969 L1012.0938,688.8813 L1011.8438,688.8813 Q1010.7188,688.8813 1010.7188,688.0375 Q1010.7188,687.5531 1011,687.3813 Q1011.2969,687.1938 1011.8438,687.1938 L1019.8438,687.1938 L1019.8438,689.7563 Q1019.8438,690.8813 1019,690.8813 Q1018.1563,690.8813 1018.1563,689.7563 L1018.1563,688.8813 L1013.7969,688.8813 L1013.7969,691.2875 L1015.25,691.2875 L1015.25,691.1625 Q1015.25,690.0375 1016.0938,690.0375 Q1016.9219,690.0375 1016.9219,691.1625 L1016.9219,693.0844 Q1016.9219,694.225 1016.0938,694.225 Z " fill="#000000"/><text fill="#000000" font-family="sans-serif" font-size="12" font-style="italic" lengthAdjust="spacing" textLength="73" x="1049.5" y="688.5001">«FrameWork»</text><text fill="#000000" font-family="sans-serif" font-size="14" lengthAdjust="spacing" textLength="112" x="1030" y="704.9">ApacheCauseway</text><line style="stroke:#181818;stroke-width:0.5;" x1="1002" x2="1144" y1="712.7" y2="712.7"/><line style="stroke:#181818;stroke-width:0.5;" x1="1002" x2="1144" y1="720.7" y2="720.7"/></g><!--MD5=[3065a834c1969130b06cda341c336231]
class NakedObjects--><g id="elem_NakedObjects"><rect codeLine="70" fill="#F1F1F1" height="57.2" id="NakedObjects" rx="2.5" ry="2.5" style="stroke:#181818;stroke-width:0.5;" width="119" x="1180.5" y="671.5"/><ellipse cx="1195.5" cy="692.1" fill="#FF7700" rx="11" ry="11" style="stroke:#A80036;stroke-width:1.0;"/><path d="M1195.5938,694.225 Q1194.75,694.225 1194.75,693.0844 L1194.75,692.975 L1193.2969,692.975 L1193.2969,695.3969 L1195,695.3969 Q1196.125,695.3969 1196.125,696.2563 Q1196.125,697.1 1195,697.1 L1191.3438,697.1 Q1190.2188,697.1 1190.2188,696.2563 Q1190.2188,695.3969 1191.3438,695.3969 L1191.5938,695.3969 L1191.5938,688.8813 L1191.3438,688.8813 Q1190.2188,688.8813 1190.2188,688.0375 Q1190.2188,687.5531 1190.5,687.3813 Q1190.7969,687.1938 1191.3438,687.1938 L1199.3438,687.1938 L1199.3438,689.7563 Q1199.3438,690.8813 1198.5,690.8813 Q1197.6563,690.8813 1197.6563,689.7563 L1197.6563,688.8813 L1193.2969,688.8813 L1193.2969,691.2875 L1194.75,691.2875 L1194.75,691.1625 Q1194.75,690.0375 1195.5938,690.0375 Q1196.4219,690.0375 1196.4219,691.1625 L1196.4219,693.0844 Q1196.4219,694.225 1195.5938,694.225 Z " fill="#000000"/><text fill="#000000" font-family="sans-serif" font-size="12" font-style="italic" lengthAdjust="spacing" textLength="73" x="1216.5" y="688.5001">«FrameWork»</text><text fill="#000000" font-family="sans-serif" font-size="14" lengthAdjust="spacing" textLength="87" x="1209.5" y="704.9">NakedObjects</text><line style="stroke:#181818;stroke-width:0.5;" x1="1181.5" x2="1298.5" y1="712.7" y2="712.7"/><line style="stroke:#181818;stroke-width:0.5;" x1="1181.5" x2="1298.5" y1="720.7" y2="720.7"/></g><!--MD5=[cc7ce72b489f9c0837f6b7deaaae88b5]
entity RestfulObjects--><g id="elem_RestfulObjects"><ellipse cx="1073" cy="387" fill="#F1F1F1" rx="8" ry="8" style="stroke:#181818;stroke-width:0.5;"/><text fill="#000000" font-family="sans-serif" font-size="14" lengthAdjust="spacing" textLength="90" x="1028" y="417.9999">RestfulObjects</text><text fill="#000000" font-family="sans-serif" font-size="14" font-style="italic" lengthAdjust="spacing" textLength="108" x="1019" y="367.2">«RemoteFacade»</text></g><g id="elem_GMN26812689"><path d="M548.5,78.5 L548.5,142 L491.71,146 L548.5,150 L548.5,213.3001 A0,0 0 0 0 548.5,213.3001 L1091.5,213.3001 A0,0 0 0 0 1091.5,213.3001 L1091.5,88.5 L1081.5,78.5 L548.5,78.5 A0,0 0 0 0 548.5,78.5 " fill="#FEFFDD" style="stroke:#181818;stroke-width:0.5;"/><path d="M1081.5,78.5 L1081.5,88.5 L1091.5,88.5 L1081.5,78.5 " fill="#FEFFDD" style="stroke:#181818;stroke-width:0.5;"/><text fill="#000000" font-family="sans-serif" font-size="13" lengthAdjust="spacing" textLength="301" x="554.5" y="96.5">When ever a resource is required, the proxy is queried.</text><text fill="#000000" font-family="sans-serif" font-size="13" lengthAdjust="spacing" textLength="125" x="554.5" y="112.1">(1) It's served from the</text><text fill="#000000" font-family="sans-serif" font-size="13" font-weight="bold" lengthAdjust="spacing" textLength="70" x="682.5" y="112.1">EventStore</text><text fill="#000000" font-family="sans-serif" font-size="13" lengthAdjust="spacing" textLength="66" x="752.5" y="112.1">, if possible.</text><text fill="#000000" font-family="sans-serif" font-size="13" font-weight="bold" lengthAdjust="spacing" textLength="122" x="821.5" y="112.1">LogEntry.cacheHits</text><text fill="#000000" font-family="sans-serif" font-size="13" lengthAdjust="spacing" textLength="112" x="946.5" y="112.1">will be incremented.</text><text fill="#000000" font-family="sans-serif" font-size="13" lengthAdjust="spacing" textLength="143" x="554.5" y="127.7">(2) If it's not available yet,</text><text fill="#000000" font-family="sans-serif" font-size="13" font-weight="bold" lengthAdjust="spacing" textLength="28" x="700.5" y="127.7">XHR</text><text fill="#000000" font-family="sans-serif" font-size="13" lengthAdjust="spacing" textLength="230" x="731.5" y="127.7">fetches it from remote and puts it into the</text><text fill="#000000" font-family="sans-serif" font-size="13" font-weight="bold" lengthAdjust="spacing" textLength="70" x="964.5" y="127.7">EventStore</text><text fill="#000000" font-family="sans-serif" font-size="13" lengthAdjust="spacing" textLength="3" x="1034.5" y="127.7">.</text><text fill="#000000" font-family="sans-serif" font-size="13" lengthAdjust="spacing" textLength="4" x="554.5" y="143.3001"> </text><text fill="#000000" font-family="sans-serif" font-size="13" lengthAdjust="spacing" textLength="78" x="554.5" y="158.9001">In any case, a</text><text fill="#000000" font-family="sans-serif" font-size="13" font-weight="bold" lengthAdjust="spacing" textLength="57" x="635.5" y="158.9001">LogEntry</text><text fill="#000000" font-family="sans-serif" font-size="13" lengthAdjust="spacing" textLength="381" x="695.5" y="158.9001">containing the response (blob) will be passed on to it's aggregator(s).</text><text fill="#000000" font-family="sans-serif" font-size="13" lengthAdjust="spacing" textLength="4" x="554.5" y="174.5001"> </text><text fill="#000000" font-family="sans-serif" font-size="13" lengthAdjust="spacing" textLength="512" x="554.5" y="190.1001">The aggregator to be used is either determined at the point where the resource is requested,</text><text fill="#000000" font-family="sans-serif" font-size="13" lengthAdjust="spacing" textLength="423" x="554.5" y="205.7001">or, based on the content of the response, assigned by the matching handler.</text></g><!--MD5=[211fb28d7af036b7e2906500ae0df584]
reverse link EventStore to LogEntry--><g id="link_EventStore_LogEntry"><path codeLine="41" d="M175,387 C182.12,387 189.24,387 196.36,387 " fill="none" id="EventStore-backto-LogEntry" style="stroke:#181818;stroke-width:1.0;"/><polygon fill="none" points="161.75,387,167.75,391,173.75,387,167.75,383,161.75,387" style="stroke:#181818;stroke-width:1.0;"/></g><!--MD5=[fda71fb6b504846199848becaa7d62f5]
link ResourceProxy to EventStore--><g id="link_ResourceProxy_EventStore"><path codeLine="42" d="M336.38,177.64 C287.48,199.56 225.11,232.58 179,274.5 C169.16,283.45 159.99,293.94 151.67,304.84 " fill="none" id="ResourceProxy-to-EventStore" style="stroke:#181818;stroke-width:1.0;"/><polygon fill="#181818" points="148.64,308.87,157.24,304.07,151.64,304.87,150.84,299.27,148.64,308.87" style="stroke:#181818;stroke-width:1.0;"/><text fill="#000000" font-family="sans-serif" font-size="13" lengthAdjust="spacing" textLength="15" x="313.533" y="177.8746">(1)</text></g><!--MD5=[778cd200116c68d746deb5aef878df93]
link ResourceProxy to XHR--><g id="link_ResourceProxy_XHR"><path codeLine="43" d="M426.04,208.24 C434.81,252.84 446.41,311.79 453.78,349.31 " fill="none" id="ResourceProxy-to-XHR" style="stroke:#181818;stroke-width:1.0;"/><polygon fill="#181818" points="454.75,354.23,456.9504,344.6301,453.7914,349.3227,449.0988,346.1638,454.75,354.23" style="stroke:#181818;stroke-width:1.0;"/><text fill="#000000" font-family="sans-serif" font-size="13" lengthAdjust="spacing" textLength="15" x="411.5649" y="229.3153">(2)</text></g><!--MD5=[93d2d114c2c78948f5ae0794f4c047d7]
reverse link BaseAggregator to AggregatorWithLayout--><g id="link_BaseAggregator_AggregatorWithLayout"><path codeLine="53" d="M296,764.42 C296,787.74 296,813.13 296,832.44 " fill="none" id="BaseAggregator-backto-AggregatorWithLayout" style="stroke:#181818;stroke-width:1.0;stroke-dasharray:7.0,7.0;"/><polygon fill="none" points="289,764.25,296,744.25,303,764.25,289,764.25" style="stroke:#181818;stroke-width:1.0;"/></g><!--MD5=[669fd67190bb8c6484cd963e3cdb7075]
link XHR to ResponseHandler--><g id="link_XHR_ResponseHandler"><path codeLine="61" d="M491.77,411.63 C553.25,458.84 693.1,566.23 783.34,635.53 " fill="none" id="XHR-to-ResponseHandler" style="stroke:#181818;stroke-width:1.0;"/><polygon fill="#181818" points="787.33,638.59,782.6337,629.9329,783.3663,635.5421,777.7571,636.2748,787.33,638.59" style="stroke:#181818;stroke-width:1.0;"/><text fill="#000000" font-family="sans-serif" font-size="13" lengthAdjust="spacing" textLength="85" x="700" y="545.5">TransferObject</text><text fill="#000000" font-family="sans-serif" font-size="13" lengthAdjust="spacing" textLength="74" x="707" y="561.1">is written into</text><text fill="#000000" font-family="sans-serif" font-size="13" lengthAdjust="spacing" textLength="50" x="720.5" y="576.7">LogEntry</text></g><!--MD5=[1e6c986c7b6158dcdbe3ab2ed500c01a]
link LogEntry to TransferObject--><g id="link_LogEntry_TransferObject"><path codeLine="62" d="M389.45,499.79 C397.23,507.99 405.14,515.98 413,523.5 C471.09,579 545.66,635.01 592.15,668.36 " fill="none" id="LogEntry-to-TransferObject" style="stroke:#181818;stroke-width:1.0;"/><polygon fill="#181818" points="596.28,671.31,591.2898,662.819,592.2142,668.3998,586.6334,669.3242,596.28,671.31" style="stroke:#181818;stroke-width:1.0;"/></g><!--MD5=[8f69e79f47d9e536641cd65adb35e92a]
link LogEntry to BaseAggregator--><g id="link_LogEntry_BaseAggregator"><path codeLine="63" d="M296,499.84 C296,551.5 296,610.16 296,650.37 " fill="none" id="LogEntry-to-BaseAggregator" style="stroke:#181818;stroke-width:1.0;"/><polygon fill="#181818" points="296,655.67,300,646.67,296,650.67,292,646.67,296,655.67" style="stroke:#181818;stroke-width:1.0;"/><text fill="#000000" font-family="sans-serif" font-size="13" lengthAdjust="spacing" textLength="20" x="274.4063" y="645.4255">1..n</text></g><!--MD5=[8026b4f18a77ec0460a752f560bfe8e5]
link ResponseHandler to TransferObject--><g id="link_ResponseHandler_TransferObject"><path codeLine="65" d="M787.35,700 C760.57,700 730.86,700 704.9,700 " fill="none" id="ResponseHandler-to-TransferObject" style="stroke:#181818;stroke-width:1.0;stroke-dasharray:7.0,7.0;"/><polygon fill="#181818" points="699.76,700,708.76,704,704.76,700,708.76,696,699.76,700" style="stroke:#181818;stroke-width:1.0;"/><text fill="#000000" font-family="sans-serif" font-size="13" lengthAdjust="spacing" textLength="48" x="718" y="663">converts</text><text fill="#000000" font-family="sans-serif" font-size="13" lengthAdjust="spacing" textLength="35" x="726" y="678.6">JSON</text><text fill="#000000" font-family="sans-serif" font-size="13" lengthAdjust="spacing" textLength="42" x="724" y="694.2">into TO</text></g><!--MD5=[b4177d15b909492f616c15d40c291f55]
reverse link RestfulObjects to ApacheCauseway--><g id="link_RestfulObjects_ApacheCauseway"><path codeLine="71" d="M1073,416.21 C1073,475.54 1073,612.57 1073,671.38 " fill="none" id="RestfulObjects-backto-ApacheCauseway" style="stroke:#181818;stroke-width:1.0;"/><polygon fill="none" points="1066,416,1073,396,1080,416,1066,416" style="stroke:#181818;stroke-width:1.0;"/></g><!--MD5=[ff455b0d12e54cd289f5a016df291ab1]
reverse link RestfulObjects to NakedObjects--><g id="link_RestfulObjects_NakedObjects"><path codeLine="72" d="M1086.89,413.87 C1118.03,471.85 1193.16,611.78 1225.17,671.38 " fill="none" id="RestfulObjects-backto-NakedObjects" style="stroke:#181818;stroke-width:1.0;"/><polygon fill="none" points="1080.59,416.93,1077.3,396,1092.92,410.31,1080.59,416.93" style="stroke:#181818;stroke-width:1.0;"/></g><!--MD5=[1cde971cbfc4340e811b59a359229905]
link XHR to RestfulObjects--><g id="link_XHR_RestfulObjects"><path codeLine="74" d="M491.77,387 C600.56,387 965.3,387 1053.62,387 " fill="none" id="XHR-to-RestfulObjects" style="stroke:#181818;stroke-width:1.0;"/><path d="M1060.7218,378.5428 A9,9 0 0 0 1060.7218 395.4572" fill="none" style="stroke:#181818;stroke-width:1.5;"/><text fill="#000000" font-family="sans-serif" font-size="13" lengthAdjust="spacing" textLength="45" x="753.75" y="365">invoke()</text><polygon fill="#000000" points="725.75,375.4,734.7951,378.3389,734.7951,372.4611,725.75,375.4" style="stroke:#000000;stroke-width:1.0;"/><text fill="#000000" font-family="sans-serif" font-size="13" lengthAdjust="spacing" textLength="91" x="738.75" y="380.6">json string / blob</text></g><!--MD5=[36f1f0725b79d7cd36e5eb25abe3f91d]
@startuml
package handler {
    class ResponseHandler<<Facade>><<ChainOfResponsibility>>{
        handle(LogEntry)
        canHandle(json)
        doHandle()
        parse(json)
    }
}

package core {
    package event {
        class XHR {
            invoke()
        }
        class EventStore<<Cache>><<EventSourcing>> {
            log:LogEntry[]
            start()
            end()
            fault()
            find(href)
        }
        class LogEntry<<EventSourcing>> {
            url:Href
            title:String
            startedAt:Date
            updatedAt:Date
            request:String
            response:String
            blob:Blob
            object:TransferObject
            aggregators:BaseAggregator[]
            cacheHits:int
        }
        class ResourceProxy<<Proxy>> {
            + load(tObject:Tobject)
            + fetch(...)
            - process()
            - processCached()
        }

        EventStore o- LogEntry
        ResourceProxy "(1)"- -> EventStore
        ResourceProxy "(2)"- -> XHR
    }

    package aggregator {
        abstract  BaseAggregator<<Redux>><<Aggregator>> {
            update(logEntry)
        }
        abstract AggregatorWithLayout {
            layout:Layout
        }
        BaseAggregator <|.. AggregatorWithLayout
    }
}

package "to" {
    interface TransferObject<<TransferObject>>
}

XHR - -> ResponseHandler : TransferObject \n is written into \n LogEntry
LogEntry -> TransferObject
LogEntry - ->"1..n" BaseAggregator

ResponseHandler .> TransferObject : converts \n JSON \n into TO

circle RestfulObjects<<RemoteFacade>>
package remote <<Node>> {
    class ApacheCauseway<<(F, #FF7700)FrameWork>>
    class NakedObjects<<(F, #FF7700)FrameWork>>
    RestfulObjects <|- ApacheCauseway
    RestfulObjects <|- - NakedObjects
}
XHR -( RestfulObjects : invoke() \njson string / blob <

note right of ResourceProxy
When ever a resource is required, the proxy is queried.
(1) It's served from the <b>EventStore</b>, if possible. <b>LogEntry.cacheHits</b> will be incremented.
(2) If it's not available yet, <b>XHR</b> fetches it from remote and puts it into the <b>EventStore</b>.

In any case, a <b>LogEntry</b> containing the response (blob) will be passed on to it's aggregator(s).

The aggregator to be used is either determined at the point where the resource is requested,
or, based on the content of the response, assigned by the matching handler.
end note
@enduml

PlantUML version 1.2022.5(Sat Apr 30 10:55:52 GMT 2022)
(GPL source distribution)
Java Runtime: OpenJDK Runtime Environment
JVM: OpenJDK 64-Bit Server VM
Default Encoding: UTF-8
Language: en
Country: US
--></g></svg>