<?xml version="1.0" encoding="UTF-8" standalone="no"?><svg xmlns="http://www.w3.org/2000/svg" xmlns:xlink="http://www.w3.org/1999/xlink" contentScriptType="application/ecmascript" contentStyleType="text/css" height="1199px" preserveAspectRatio="none" style="width:864px;height:1199px;" version="1.1" viewBox="0 0 864 1199" width="864px" zoomAndPan="magnify"><defs><filter height="300%" id="fx4p8xw8jr0ys" width="300%" x="-1" y="-1"><feGaussianBlur result="blurOut" stdDeviation="2.0"/><feColorMatrix in="blurOut" result="blurOut2" type="matrix" values="0 0 0 0 0 0 0 0 0 0 0 0 0 0 0 0 0 0 .4 0"/><feOffset dx="4.0" dy="4.0" in="blurOut2" result="blurOut3"/><feBlend in="SourceGraphic" in2="blurOut3" mode="normal"/></filter></defs><g><text fill="#000000" font-family="sans-serif" font-size="14" lengthAdjust="spacing" textLength="32" x="445.3333" y="594.7891">know</text><text fill="#000000" font-family="sans-serif" font-size="14" lengthAdjust="spacing" textLength="25" x="445.3333" y="613.6836">how</text><text fill="#000000" font-family="sans-serif" font-size="14" lengthAdjust="spacing" textLength="43" x="530.3333" y="211.9746">trouble</text><text fill="#000000" font-family="sans-serif" font-size="14" lengthAdjust="spacing" textLength="53" x="530.3333" y="230.8691">shooting</text><rect fill="#FEFECE" filter="url(#fx4p8xw8jr0ys)" height="38.8945" rx="12.5" ry="12.5" style="stroke:#A80036;stroke-width:1.5;" width="56" x="633.3333" y="137.7891"/><text fill="#000000" font-family="sans-serif" font-size="14" lengthAdjust="spacing" textLength="36" x="643.3333" y="162.5273">CORS</text><path d="M583.3333,216.1309 L593.3333,216.1309 C608.3333,216.1309 608.3333,157.2363 623.3333,157.2363 L633.3333,157.2363 " fill="none" style="stroke:#A80036;stroke-width:1.0;"/><rect fill="#FEFECE" filter="url(#fx4p8xw8jr0ys)" height="38.8945" rx="12.5" ry="12.5" style="stroke:#A80036;stroke-width:1.5;" width="104" x="633.3333" y="196.6836"/><text fill="#000000" font-family="sans-serif" font-size="14" lengthAdjust="spacing" textLength="84" x="643.3333" y="221.4219">Proxy settings</text><rect fill="#FEFECE" filter="url(#fx4p8xw8jr0ys)" height="38.8945" rx="12.5" ry="12.5" style="stroke:#A80036;stroke-width:1.5;" width="47" x="787.3333" y="20"/><text fill="#000000" font-family="sans-serif" font-size="14" lengthAdjust="spacing" textLength="27" x="797.3333" y="44.7383">npm</text><path d="M737.3333,216.1309 L747.3333,216.1309 C762.3333,216.1309 762.3333,39.4473 777.3333,39.4473 L787.3333,39.4473 " fill="none" style="stroke:#A80036;stroke-width:1.0;"/><rect fill="#FEFECE" filter="url(#fx4p8xw8jr0ys)" height="38.8945" rx="12.5" ry="12.5" style="stroke:#A80036;stroke-width:1.5;" width="34" x="787.3333" y="78.8945"/><text fill="#000000" font-family="sans-serif" font-size="14" lengthAdjust="spacing" textLength="14" x="797.3333" y="103.6328">git</text><path d="M737.3333,216.1309 L747.3333,216.1309 C762.3333,216.1309 762.3333,98.3418 777.3333,98.3418 L787.3333,98.3418 " fill="none" style="stroke:#A80036;stroke-width:1.0;"/><rect fill="#FEFECE" filter="url(#fx4p8xw8jr0ys)" height="38.8945" rx="12.5" ry="12.5" style="stroke:#A80036;stroke-width:1.5;" width="58" x="787.3333" y="137.7891"/><text fill="#000000" font-family="sans-serif" font-size="14" lengthAdjust="spacing" textLength="38" x="797.3333" y="162.5273">gradle</text><path d="M737.3333,216.1309 L747.3333,216.1309 C762.3333,216.1309 762.3333,157.2363 777.3333,157.2363 L787.3333,157.2363 " fill="none" style="stroke:#A80036;stroke-width:1.0;"/><rect fill="#FEFECE" filter="url(#fx4p8xw8jr0ys)" height="38.8945" rx="12.5" ry="12.5" style="stroke:#A80036;stroke-width:1.5;" width="42" x="787.3333" y="196.6836"/><text fill="#000000" font-family="sans-serif" font-size="14" lengthAdjust="spacing" textLength="22" x="797.3333" y="221.4219">ssh</text><path d="M737.3333,216.1309 L747.3333,216.1309 C762.3333,216.1309 762.3333,216.1309 777.3333,216.1309 L787.3333,216.1309 " fill="none" style="stroke:#A80036;stroke-width:1.0;"/><rect fill="#FEFECE" filter="url(#fx4p8xw8jr0ys)" height="38.8945" rx="12.5" ry="12.5" style="stroke:#A80036;stroke-width:1.5;" width="42" x="787.3333" y="255.5781"/><text fill="#000000" font-family="sans-serif" font-size="14" lengthAdjust="spacing" textLength="22" x="797.3333" y="280.3164">curl</text><path d="M737.3333,216.1309 L747.3333,216.1309 C762.3333,216.1309 762.3333,275.0254 777.3333,275.0254 L787.3333,275.0254 " fill="none" style="stroke:#A80036;stroke-width:1.0;"/><rect fill="#FEFECE" filter="url(#fx4p8xw8jr0ys)" height="38.8945" rx="12.5" ry="12.5" style="stroke:#A80036;stroke-width:1.5;" width="46" x="787.3333" y="314.4727"/><text fill="#000000" font-family="sans-serif" font-size="14" lengthAdjust="spacing" textLength="26" x="797.3333" y="339.2109">yarn</text><path d="M737.3333,216.1309 L747.3333,216.1309 C762.3333,216.1309 762.3333,333.9199 777.3333,333.9199 L787.3333,333.9199 " fill="none" style="stroke:#A80036;stroke-width:1.0;"/><rect fill="#FEFECE" filter="url(#fx4p8xw8jr0ys)" height="38.8945" rx="12.5" ry="12.5" style="stroke:#A80036;stroke-width:1.5;" width="45" x="787.3333" y="373.3672"/><text fill="#000000" font-family="sans-serif" font-size="14" lengthAdjust="spacing" textLength="25" x="797.3333" y="398.1055">mvn</text><path d="M737.3333,216.1309 L747.3333,216.1309 C762.3333,216.1309 762.3333,392.8145 777.3333,392.8145 L787.3333,392.8145 " fill="none" style="stroke:#A80036;stroke-width:1.0;"/><path d="M583.3333,216.1309 L593.3333,216.1309 C608.3333,216.1309 608.3333,216.1309 623.3333,216.1309 L633.3333,216.1309 " fill="none" style="stroke:#A80036;stroke-width:1.0;"/><path d="M477.3333,598.9453 L487.3333,598.9453 C502.3333,598.9453 502.3333,216.1309 517.3333,216.1309 L527.3333,216.1309 " fill="none" style="stroke:#A80036;stroke-width:1.0;"/><text fill="#000000" font-family="sans-serif" font-size="14" lengthAdjust="spacing" textLength="30" x="530.3333" y="604.2363">build</text><rect fill="#FEFECE" filter="url(#fx4p8xw8jr0ys)" height="38.8945" rx="12.5" ry="12.5" style="stroke:#A80036;stroke-width:1.5;" width="67" x="610.3333" y="432.2617"/><text fill="#000000" font-family="sans-serif" font-size="14" lengthAdjust="spacing" textLength="47" x="620.3333" y="457">Node.js</text><path d="M560.3333,598.9453 L570.3333,598.9453 C585.3333,598.9453 585.3333,451.709 600.3333,451.709 L610.3333,451.709 " fill="none" style="stroke:#A80036;stroke-width:1.0;"/><rect fill="#FEFECE" filter="url(#fx4p8xw8jr0ys)" height="38.8945" rx="12.5" ry="12.5" style="stroke:#A80036;stroke-width:1.5;" width="58" x="610.3333" y="491.1563"/><text fill="#000000" font-family="sans-serif" font-size="14" lengthAdjust="spacing" textLength="38" x="620.3333" y="515.8945">gradle</text><path d="M560.3333,598.9453 L570.3333,598.9453 C585.3333,598.9453 585.3333,510.6035 600.3333,510.6035 L610.3333,510.6035 " fill="none" style="stroke:#A80036;stroke-width:1.0;"/><rect fill="#FEFECE" filter="url(#fx4p8xw8jr0ys)" height="38.8945" rx="12.5" ry="12.5" style="stroke:#A80036;stroke-width:1.5;" width="47" x="610.3333" y="550.0508"/><text fill="#000000" font-family="sans-serif" font-size="14" lengthAdjust="spacing" textLength="27" x="620.3333" y="574.7891">npm</text><path d="M560.3333,598.9453 L570.3333,598.9453 C585.3333,598.9453 585.3333,569.498 600.3333,569.498 L610.3333,569.498 " fill="none" style="stroke:#A80036;stroke-width:1.0;"/><rect fill="#FEFECE" filter="url(#fx4p8xw8jr0ys)" height="38.8945" rx="12.5" ry="12.5" style="stroke:#A80036;stroke-width:1.5;" width="48" x="610.3333" y="608.9453"/><text fill="#000000" font-family="sans-serif" font-size="14" lengthAdjust="spacing" textLength="28" x="620.3333" y="633.6836">Yarn</text><path d="M560.3333,598.9453 L570.3333,598.9453 C585.3333,598.9453 585.3333,628.3926 600.3333,628.3926 L610.3333,628.3926 " fill="none" style="stroke:#A80036;stroke-width:1.0;"/><rect fill="#FEFECE" filter="url(#fx4p8xw8jr0ys)" height="38.8945" rx="12.5" ry="12.5" style="stroke:#A80036;stroke-width:1.5;" width="75" x="610.3333" y="667.8398"/><text fill="#000000" font-family="sans-serif" font-size="14" lengthAdjust="spacing" textLength="55" x="620.3333" y="692.5781">webpack</text><path d="M560.3333,598.9453 L570.3333,598.9453 C585.3333,598.9453 585.3333,687.2871 600.3333,687.2871 L610.3333,687.2871 " fill="none" style="stroke:#A80036;stroke-width:1.0;"/><rect fill="#FEFECE" filter="url(#fx4p8xw8jr0ys)" height="38.8945" rx="12.5" ry="12.5" style="stroke:#A80036;stroke-width:1.5;" width="46" x="610.3333" y="726.7344"/><text fill="#000000" font-family="sans-serif" font-size="14" lengthAdjust="spacing" textLength="26" x="620.3333" y="751.4727">DCE</text><path d="M560.3333,598.9453 L570.3333,598.9453 C585.3333,598.9453 585.3333,746.1816 600.3333,746.1816 L610.3333,746.1816 " fill="none" style="stroke:#A80036;stroke-width:1.0;"/><path d="M477.3333,598.9453 L487.3333,598.9453 C502.3333,598.9453 502.3333,598.9453 517.3333,598.9453 L527.3333,598.9453 " fill="none" style="stroke:#A80036;stroke-width:1.0;"/><text fill="#000000" font-family="sans-serif" font-size="14" lengthAdjust="spacing" textLength="23" x="530.3333" y="987.0508">test</text><rect fill="#FEFECE" filter="url(#fx4p8xw8jr0ys)" height="38.8945" rx="12.5" ry="12.5" style="stroke:#A80036;stroke-width:1.5;" width="60" x="603.3333" y="785.6289"/><text fill="#000000" font-family="sans-serif" font-size="14" lengthAdjust="spacing" textLength="40" x="613.3333" y="810.3672">Karma</text><path d="M553.3333,981.7598 L563.3333,981.7598 C578.3333,981.7598 578.3333,805.0762 593.3333,805.0762 L603.3333,805.0762 " fill="none" style="stroke:#A80036;stroke-width:1.0;"/><rect fill="#FEFECE" filter="url(#fx4p8xw8jr0ys)" height="38.8945" rx="12.5" ry="12.5" style="stroke:#A80036;stroke-width:1.5;" width="62" x="603.3333" y="844.5234"/><text fill="#000000" font-family="sans-serif" font-size="14" lengthAdjust="spacing" textLength="42" x="613.3333" y="869.2617">Mocha</text><path d="M553.3333,981.7598 L563.3333,981.7598 C578.3333,981.7598 578.3333,863.9707 593.3333,863.9707 L603.3333,863.9707 " fill="none" style="stroke:#A80036;stroke-width:1.0;"/><rect fill="#FEFECE" filter="url(#fx4p8xw8jr0ys)" height="38.8945" rx="12.5" ry="12.5" style="stroke:#A80036;stroke-width:1.5;" width="126" x="603.3333" y="903.418"/><text fill="#000000" font-family="sans-serif" font-size="14" lengthAdjust="spacing" textLength="106" x="613.3333" y="928.1563">ChromeHeadless</text><path d="M553.3333,981.7598 L563.3333,981.7598 C578.3333,981.7598 578.3333,922.8652 593.3333,922.8652 L603.3333,922.8652 " fill="none" style="stroke:#A80036;stroke-width:1.0;"/><rect fill="#FEFECE" filter="url(#fx4p8xw8jr0ys)" height="38.8945" rx="12.5" ry="12.5" style="stroke:#A80036;stroke-width:1.5;" width="51" x="603.3333" y="962.3125"/><text fill="#000000" font-family="sans-serif" font-size="14" lengthAdjust="spacing" textLength="31" x="613.3333" y="987.0508">qunit</text><path d="M553.3333,981.7598 L563.3333,981.7598 C578.3333,981.7598 578.3333,981.7598 593.3333,981.7598 L603.3333,981.7598 " fill="none" style="stroke:#A80036;stroke-width:1.0;"/><rect fill="#FEFECE" filter="url(#fx4p8xw8jr0ys)" height="38.8945" rx="12.5" ry="12.5" style="stroke:#A80036;stroke-width:1.5;" width="94" x="603.3333" y="1021.207"/><text fill="#000000" font-family="sans-serif" font-size="14" lengthAdjust="spacing" textLength="74" x="613.3333" y="1045.9453">PhtantomJS</text><path d="M553.3333,981.7598 L563.3333,981.7598 C578.3333,981.7598 578.3333,1040.6543 593.3333,1040.6543 L603.3333,1040.6543 " fill="none" style="stroke:#A80036;stroke-width:1.0;"/><rect fill="#FEFECE" filter="url(#fx4p8xw8jr0ys)" height="38.8945" rx="12.5" ry="12.5" style="stroke:#A80036;stroke-width:1.5;" width="76" x="603.3333" y="1109.5488"/><text fill="#000000" font-family="sans-serif" font-size="14" lengthAdjust="spacing" textLength="56" x="613.3333" y="1134.2871">coverage</text><rect fill="#FEFECE" filter="url(#fx4p8xw8jr0ys)" height="38.8945" rx="12.5" ry="12.5" style="stroke:#A80036;stroke-width:1.5;" width="69" x="729.3333" y="1080.1016"/><text fill="#000000" font-family="sans-serif" font-size="14" lengthAdjust="spacing" textLength="49" x="739.3333" y="1104.8398">istanbul</text><path d="M679.3333,1128.9961 L689.3333,1128.9961 C704.3333,1128.9961 704.3333,1099.5488 719.3333,1099.5488 L729.3333,1099.5488 " fill="none" style="stroke:#A80036;stroke-width:1.0;"/><rect fill="#FEFECE" filter="url(#fx4p8xw8jr0ys)" height="38.8945" rx="12.5" ry="12.5" style="stroke:#A80036;stroke-width:1.5;" width="41" x="729.3333" y="1138.9961"/><text fill="#000000" font-family="sans-serif" font-size="14" lengthAdjust="spacing" textLength="21" x="739.3333" y="1163.7344">nyc</text><path d="M679.3333,1128.9961 L689.3333,1128.9961 C704.3333,1128.9961 704.3333,1158.4434 719.3333,1158.4434 L729.3333,1158.4434 " fill="none" style="stroke:#A80036;stroke-width:1.0;"/><path d="M553.3333,981.7598 L563.3333,981.7598 C578.3333,981.7598 578.3333,1128.9961 593.3333,1128.9961 L603.3333,1128.9961 " fill="none" style="stroke:#A80036;stroke-width:1.0;"/><path d="M477.3333,598.9453 L487.3333,598.9453 C502.3333,598.9453 502.3333,981.7598 517.3333,981.7598 L527.3333,981.7598 " fill="none" style="stroke:#A80036;stroke-width:1.0;"/><text fill="#000000" font-family="sans-serif" font-size="14" lengthAdjust="spacing" textLength="40" x="349.3333" y="250.8691">basics</text><rect fill="#FEFECE" filter="url(#fx4p8xw8jr0ys)" height="38.8945" rx="12.5" ry="12.5" style="stroke:#A80036;stroke-width:1.5;" width="54" x="245.3333" y="167.2363"/><text fill="#000000" font-family="sans-serif" font-size="14" lengthAdjust="spacing" textLength="34" x="255.3333" y="191.9746">HTML</text><path d="M349.3333,245.5781 L339.3333,245.5781 C324.3333,245.5781 324.3333,186.6836 309.3333,186.6836 L299.3333,186.6836 " fill="none" style="stroke:#A80036;stroke-width:1.0;"/><rect fill="#FEFECE" filter="url(#fx4p8xw8jr0ys)" height="38.8945" rx="12.5" ry="12.5" style="stroke:#A80036;stroke-width:1.5;" width="47" x="252.3333" y="226.1309"/><text fill="#000000" font-family="sans-serif" font-size="14" lengthAdjust="spacing" textLength="27" x="262.3333" y="250.8691">CSS</text><path d="M349.3333,245.5781 L339.3333,245.5781 C324.3333,245.5781 324.3333,245.5781 309.3333,245.5781 L299.3333,245.5781 " fill="none" style="stroke:#A80036;stroke-width:1.0;"/><rect fill="#FEFECE" filter="url(#fx4p8xw8jr0ys)" height="38.8945" rx="12.5" ry="12.5" style="stroke:#A80036;stroke-width:1.5;" width="94.3333" x="205" y="285.0254"/><path d="M219.5,301.0866 C218.8583,301.0866 218.3333,301.6116 218.3333,302.2533 L218.3333,308.6699 C218.3333,308.9966 218.0767,309.2533 217.75,309.2533 C217.4233,309.2533 217.1667,308.9966 217.1667,308.6699 L217.1667,306.9199 L216,306.9199 L216,309.2533 C216,309.8949 216.525,310.4199 217.1667,310.4199 L223,310.4199 C223.6417,310.4199 224.1667,309.8949 224.1667,309.2533 L224.1667,305.7533 L219.5,305.7533 L219.5,302.8366 C219.5,302.5099 219.7567,302.2533 220.0833,302.2533 C220.41,302.2533 220.6667,302.5099 220.6667,302.8366 L220.6667,304.5866 L225.3333,304.5866 L225.3333,302.2533 C225.3333,301.6116 224.8083,301.0866 224.1667,301.0866 L219.5,301.0866 " fill="#000000" style="stroke:;stroke-width:0.0;stroke-dasharray:;"/><text fill="#000000" font-family="sans-serif" font-size="14" lengthAdjust="spacing" textLength="63" x="226.3333" y="309.7637">JavaScript</text><path d="M349.3333,245.5781 L339.3333,245.5781 C324.3333,245.5781 324.3333,304.4727 309.3333,304.4727 L299.3333,304.4727 " fill="none" style="stroke:#A80036;stroke-width:1.0;"/><path d="M442.3333,598.9453 L432.3333,598.9453 C417.3333,598.9453 417.3333,245.5781 402.3333,245.5781 L392.3333,245.5781 " fill="none" style="stroke:#A80036;stroke-width:1.0;"/><text fill="#000000" font-family="sans-serif" font-size="14" lengthAdjust="spacing" textLength="31" x="358.3333" y="574.7891">code</text><rect fill="#FEFECE" filter="url(#fx4p8xw8jr0ys)" height="38.8945" rx="12.5" ry="12.5" style="stroke:#A80036;stroke-width:1.5;" width="66.3333" x="242" y="491.1563"/><text fill="#000000" font-family="sans-serif" font-size="14" lengthAdjust="spacing" textLength="35" x="252" y="515.8945">Kotlin</text><path d="M292.6667,507.2174 L291.5,510.7174 L288,510.7174 L290.9167,513.0508 L289.75,516.5508 L292.6667,514.2174 L295.5833,516.5508 L294.4167,513.0508 L297.3333,510.7174 L293.8333,510.7174 L292.6667,507.2174 " fill="#000000" style="stroke:;stroke-width:0.0;stroke-dasharray:;"/><rect fill="#FEFECE" filter="url(#fx4p8xw8jr0ys)" height="38.8945" rx="12.5" ry="12.5" style="stroke:#A80036;stroke-width:1.5;" width="89" x="103" y="343.9199"/><text fill="#000000" font-family="sans-serif" font-size="14" lengthAdjust="spacing" textLength="69" x="113" y="368.6582">constructor</text><path d="M242,510.6035 L232,510.6035 C217,510.6035 217,363.3672 202,363.3672 L192,363.3672 " fill="none" style="stroke:#A80036;stroke-width:1.0;"/><rect fill="#FEFECE" filter="url(#fx4p8xw8jr0ys)" height="38.8945" rx="12.5" ry="12.5" style="stroke:#A80036;stroke-width:1.5;" width="182" x="10" y="402.8145"/><text fill="#000000" font-family="sans-serif" font-size="14" lengthAdjust="spacing" textLength="162" x="20" y="427.5527">default/named arguments</text><path d="M242,510.6035 L232,510.6035 C217,510.6035 217,422.2617 202,422.2617 L192,422.2617 " fill="none" style="stroke:#A80036;stroke-width:1.0;"/><rect fill="#FEFECE" filter="url(#fx4p8xw8jr0ys)" height="38.8945" rx="12.5" ry="12.5" style="stroke:#A80036;stroke-width:1.5;" width="141" x="51" y="461.709"/><text fill="#000000" font-family="sans-serif" font-size="14" lengthAdjust="spacing" textLength="121" x="61" y="486.4473">extension functions</text><path d="M242,510.6035 L232,510.6035 C217,510.6035 217,481.1563 202,481.1563 L192,481.1563 " fill="none" style="stroke:#A80036;stroke-width:1.0;"/><rect fill="#FEFECE" filter="url(#fx4p8xw8jr0ys)" height="38.8945" rx="12.5" ry="12.5" style="stroke:#A80036;stroke-width:1.5;" width="131" x="61" y="520.6035"/><text fill="#000000" font-family="sans-serif" font-size="14" lengthAdjust="spacing" textLength="111" x="71" y="545.3418">companion object</text><path d="M242,510.6035 L232,510.6035 C217,510.6035 217,540.0508 202,540.0508 L192,540.0508 " fill="none" style="stroke:#A80036;stroke-width:1.0;"/><rect fill="#FEFECE" filter="url(#fx4p8xw8jr0ys)" height="38.8945" rx="12.5" ry="12.5" style="stroke:#A80036;stroke-width:1.5;" width="98" x="94" y="579.498"/><text fill="#000000" font-family="sans-serif" font-size="14" lengthAdjust="spacing" textLength="78" x="104" y="604.2363">mutable lists</text><path d="M242,510.6035 L232,510.6035 C217,510.6035 217,598.9453 202,598.9453 L192,598.9453 " fill="none" style="stroke:#A80036;stroke-width:1.0;"/><rect fill="#FEFECE" filter="url(#fx4p8xw8jr0ys)" height="38.8945" rx="12.5" ry="12.5" style="stroke:#A80036;stroke-width:1.5;" width="38" x="154" y="638.3926"/><text fill="#000000" font-family="sans-serif" font-size="14" lengthAdjust="spacing" textLength="18" x="164" y="663.1309">init</text><path d="M242,510.6035 L232,510.6035 C217,510.6035 217,657.8398 202,657.8398 L192,657.8398 " fill="none" style="stroke:#A80036;stroke-width:1.0;"/><path d="M358.3333,569.498 L348.3333,569.498 C333.3333,569.498 333.3333,510.6035 318.3333,510.6035 L308.3333,510.6035 " fill="none" style="stroke:#A80036;stroke-width:1.0;"/><rect fill="#FEFECE" filter="url(#fx4p8xw8jr0ys)" height="38.8945" rx="12.5" ry="12.5" style="stroke:#A80036;stroke-width:1.5;" width="66" x="242.3333" y="550.0508"/><text fill="#000000" font-family="sans-serif" font-size="14" lengthAdjust="spacing" textLength="46" x="252.3333" y="574.7891">KVision</text><path d="M358.3333,569.498 L348.3333,569.498 C333.3333,569.498 333.3333,569.498 318.3333,569.498 L308.3333,569.498 " fill="none" style="stroke:#A80036;stroke-width:1.0;"/><rect fill="#FEFECE" filter="url(#fx4p8xw8jr0ys)" height="38.8945" rx="12.5" ry="12.5" style="stroke:#A80036;stroke-width:1.5;" width="78" x="230.3333" y="697.2871"/><text fill="#000000" font-family="sans-serif" font-size="14" lengthAdjust="spacing" textLength="58" x="240.3333" y="722.0254">Tabulator</text><path d="M358.3333,569.498 L348.3333,569.498 C333.3333,569.498 333.3333,716.7344 318.3333,716.7344 L308.3333,716.7344 " fill="none" style="stroke:#A80036;stroke-width:1.0;"/><rect fill="#FEFECE" filter="url(#fx4p8xw8jr0ys)" height="38.8945" rx="12.5" ry="12.5" style="stroke:#A80036;stroke-width:1.5;" width="136" x="172.3333" y="756.1816"/><text fill="#000000" font-family="sans-serif" font-size="14" lengthAdjust="spacing" textLength="116" x="182.3333" y="780.9199">kotlinx.serialization</text><path d="M358.3333,569.498 L348.3333,569.498 C333.3333,569.498 333.3333,775.6289 318.3333,775.6289 L308.3333,775.6289 " fill="none" style="stroke:#A80036;stroke-width:1.0;"/><path d="M442.3333,598.9453 L432.3333,598.9453 C417.3333,598.9453 417.3333,569.498 402.3333,569.498 L392.3333,569.498 " fill="none" style="stroke:#A80036;stroke-width:1.0;"/><text fill="#000000" font-family="sans-serif" font-size="14" lengthAdjust="spacing" textLength="13" x="376.3333" y="869.2617">CI</text><rect fill="#FEFECE" filter="url(#fx4p8xw8jr0ys)" height="38.8945" rx="12.5" ry="12.5" style="stroke:#A80036;stroke-width:1.5;" width="55" x="271.3333" y="815.0762"/><text fill="#000000" font-family="sans-serif" font-size="14" lengthAdjust="spacing" textLength="35" x="281.3333" y="839.8145">Travis</text><path d="M376.3333,863.9707 L366.3333,863.9707 C351.3333,863.9707 351.3333,834.5234 336.3333,834.5234 L326.3333,834.5234 " fill="none" style="stroke:#A80036;stroke-width:1.0;"/><rect fill="#FEFECE" filter="url(#fx4p8xw8jr0ys)" height="38.8945" rx="12.5" ry="12.5" style="stroke:#A80036;stroke-width:1.5;" width="76" x="250.3333" y="873.9707"/><text fill="#000000" font-family="sans-serif" font-size="14" lengthAdjust="spacing" textLength="56" x="260.3333" y="898.709">Coveralls</text><path d="M376.3333,863.9707 L366.3333,863.9707 C351.3333,863.9707 351.3333,893.418 336.3333,893.418 L326.3333,893.418 " fill="none" style="stroke:#A80036;stroke-width:1.0;"/><path d="M442.3333,598.9453 L432.3333,598.9453 C417.3333,598.9453 417.3333,863.9707 402.3333,863.9707 L392.3333,863.9707 " fill="none" style="stroke:#A80036;stroke-width:1.0;"/><path d="M344.0833,978.3737 C342.695,978.3737 341.7733,980.3454 342.695,981.2904 C342.59,981.372 342.4617,981.4537 342.3683,981.547 L340.84,980.777 A0.5833,0.5833 0 0 0 340.4433,980.707 A0.5833,0.5833 0 0 0 340.3383,981.8037 L341.6917,982.457 C341.5867,982.6437 341.47,982.842 341.4,983.0404 L340.595,983.0404 A0.5833,0.5833 0 0 0 340.49,983.0404 A0.5833,0.5833 0 1 0 340.595,984.207 L341.1783,984.207 C341.1783,984.4754 341.2017,984.732 341.2483,984.977 L340.3383,985.4554 A0.5833,0.5833 0 1 0 340.8517,986.482 L341.6217,986.0854 C341.9133,986.622 342.345,987.077 342.8233,987.357 C343.2317,987.1354 343.5117,986.8437 343.5117,986.517 L343.5117,984.837 A0.5833,0.5833 0 0 0 343.5117,984.732 L343.5117,983.787 A0.5833,0.5833 0 0 0 343.5117,983.5304 C343.57,983.262 343.815,983.052 344.095,983.052 C344.4217,983.052 344.6783,983.3087 344.6783,983.6354 L344.6783,984.662 A0.5833,0.5833 0 0 0 344.6783,984.767 L344.6783,984.837 A0.5833,0.5833 0 0 0 344.6783,984.942 L344.6783,986.5054 C344.6783,986.8204 344.9583,987.1237 345.3667,987.3454 C345.845,987.0537 346.2883,986.6104 346.5683,986.0737 L347.3383,986.4704 A0.5833,0.5833 0 1 0 347.8517,985.4437 L346.9417,984.9654 C346.9883,984.7204 347.0117,984.4637 347.0117,984.1954 L347.595,984.1954 A0.5833,0.5833 0 1 0 347.595,983.0287 L346.79,983.0287 C346.72,982.8304 346.6033,982.632 346.4983,982.4454 L347.8517,981.792 A0.5833,0.5833 0 0 0 347.49,980.6954 A0.5833,0.5833 0 0 0 347.3383,980.7654 L345.81,981.5354 C345.705,981.442 345.5883,981.3604 345.4833,981.2787 C346.3933,980.3104 345.4833,978.362 344.095,978.362 " fill="#000000" style="stroke:;stroke-width:0.0;stroke-dasharray:;"/><text fill="#000000" font-family="sans-serif" font-size="14" lengthAdjust="spacing" textLength="39" x="350.3333" y="987.0508">debug</text><rect fill="#FEFECE" filter="url(#fx4p8xw8jr0ys)" height="38.8945" rx="12.5" ry="12.5" style="stroke:#A80036;stroke-width:1.5;" width="68" x="221" y="932.8652"/><text fill="#000000" font-family="sans-serif" font-size="14" lengthAdjust="spacing" textLength="48" x="231" y="957.6035">Chrome</text><rect fill="#FEFECE" filter="url(#fx4p8xw8jr0ys)" height="38.8945" rx="12.5" ry="12.5" style="stroke:#A80036;stroke-width:1.5;" width="64" x="107" y="932.8652"/><text fill="#000000" font-family="sans-serif" font-size="14" lengthAdjust="spacing" textLength="44" x="117" y="957.6035">Plugins</text><path d="M221,952.3125 L211,952.3125 C196,952.3125 196,952.3125 181,952.3125 L171,952.3125 " fill="none" style="stroke:#A80036;stroke-width:1.0;"/><path d="M339,981.7598 L329,981.7598 C314,981.7598 314,952.3125 299,952.3125 L289,952.3125 " fill="none" style="stroke:#A80036;stroke-width:1.0;"/><rect fill="#FEFECE" filter="url(#fx4p8xw8jr0ys)" height="38.8945" rx="12.5" ry="12.5" style="stroke:#A80036;stroke-width:1.5;" width="83" x="206" y="991.7598"/><text fill="#000000" font-family="sans-serif" font-size="14" lengthAdjust="spacing" textLength="63" x="216" y="1016.498">JavaScript</text><path d="M339,981.7598 L329,981.7598 C314,981.7598 314,1011.207 299,1011.207 L289,1011.207 " fill="none" style="stroke:#A80036;stroke-width:1.0;"/><path d="M442.3333,598.9453 L432.3333,598.9453 C417.3333,598.9453 417.3333,981.7598 402.3333,981.7598 L392.3333,981.7598 " fill="none" style="stroke:#A80036;stroke-width:1.0;"/><!--MD5=[a368094b5da19382fcd90539c487cc06]
@startmindmap
+_ know\nhow
- -_ basics
- - - HTML
- - - CSS
- - - <&script>JavaScript
- -_ code
- - - Kotlin<&star>
- - - - constructor
- - - - default/named arguments
- - - - extension functions
- - - - companion object
- - - - mutable lists
- - - - init
- - - KVision
- - - Tabulator
- - - kotlinx.serialization
++_ trouble\nshooting
+++ <&exclamation>CORS
+++ <&exclamation>Proxy settings
++++ npm
++++ git
++++ gradle
++++ ssh
++++ curl
++++ yarn
++++ mvn
++_ build
+++ Node.js
+++ gradle
+++ npm
+++ Yarn
+++ webpack
+++ DCE

++_ test
+++ Karma
+++ ~~Mocha~~
+++ ChromeHeadless
+++ qunit
+++ PhtantomJS
+++ coverage
++++ istanbul
++++ nyc
- -_ CI
- - - Travis
- - - Coveralls
- -_ <&bug>debug
- - - Chrome
- - - - Plugins
- - - JavaScript
@endmindmap

PlantUML version 1.2021.01(Tue Feb 02 07:55:08 GMT 2021)
(GPL source distribution)
Java Runtime: OpenJDK Runtime Environment
JVM: OpenJDK 64-Bit Server VM
Default Encoding: UTF-8
Language: en
Country: US
--></g></svg>