<?xml version="1.0" encoding="UTF-8" standalone="no"?><svg xmlns="http://www.w3.org/2000/svg" xmlns:xlink="http://www.w3.org/1999/xlink" contentScriptType="application/ecmascript" contentStyleType="text/css" height="1172px" preserveAspectRatio="none" style="width:577px;height:1172px;" version="1.1" viewBox="0 0 577 1172" width="577px" zoomAndPan="magnify"><defs><filter height="300%" id="f18wq6hhqr9kqb" width="300%" x="-1" y="-1"><feGaussianBlur result="blurOut" stdDeviation="2.0"/><feColorMatrix in="blurOut" result="blurOut2" type="matrix" values="0 0 0 0 0 0 0 0 0 0 0 0 0 0 0 0 0 0 .4 0"/><feOffset dx="4.0" dy="4.0" in="blurOut2" result="blurOut3"/><feBlend in="SourceGraphic" in2="blurOut3" mode="normal"/></filter></defs><g><!--MD5=[01435ace8273dc3cae88e7f376e4d373]
cluster core--><polygon fill="#FFFFFF" filter="url(#f18wq6hhqr9kqb)" points="428,147,461,147,468,171.8945,560,171.8945,560,263,428,263,428,147" style="stroke:#000000;stroke-width:1.5;"/><line style="stroke:#000000;stroke-width:1.5;" x1="428" x2="468" y1="171.8945" y2="171.8945"/><text fill="#000000" font-family="sans-serif" font-size="14" font-weight="bold" lengthAdjust="spacing" textLength="27" x="432" y="163.7383">core</text><!--MD5=[602dbec1f7d4de6c4f5ea6846e774687]
class core.Dispatcher--><rect codeLine="21" fill="#FEFECE" filter="url(#f18wq6hhqr9kqb)" height="62.8457" id="core.Dispatcher" style="stroke:#A80036;stroke-width:1.5;" width="99" x="444.5" y="184"/><ellipse cx="464.9" cy="200" fill="#ADD1B2" rx="11" ry="11" style="stroke:#A80036;stroke-width:1.0;"/><path d="M460.8375,200.1406 Q460.8375,196.6875 461.9313,195.0625 Q463.0406,193.4219 465.2594,193.4219 Q466.4625,193.4219 467.7281,194.0781 L467.7281,196.125 Q466.275,195.3438 465.3375,195.3438 Q462.8844,195.3438 462.8844,200.1406 Q462.8844,202.8438 463.5094,203.9063 Q464.15,204.9531 465.3375,204.9531 Q466.3063,204.9531 467.8063,204.0313 L467.8063,206.2344 Q466.5406,206.8594 465.2594,206.8594 Q462.9938,206.8594 461.9156,205.2813 Q460.8375,203.7031 460.8375,200.1406 Z " fill="#000000"/><text fill="#000000" font-family="sans-serif" font-size="12" lengthAdjust="spacing" textLength="55" x="480.1" y="204.5352">Dispatcher</text><line style="stroke:#A80036;stroke-width:1.5;" x1="445.5" x2="542.5" y1="216" y2="216"/><text fill="#000000" font-family="sans-serif" font-size="11" lengthAdjust="spacing" textLength="87" x="450.5" y="231.5801">delegate:IHandler</text><line style="stroke:#A80036;stroke-width:1.5;" x1="445.5" x2="542.5" y1="238.8457" y2="238.8457"/><!--MD5=[432c1a4756a6140e3e6346ba5e0933d4]
class IHandler--><rect codeLine="1" fill="#FEFECE" filter="url(#f18wq6hhqr9kqb)" height="92.5371" id="IHandler" style="stroke:#A80036;stroke-width:1.5;" width="74" x="208" y="7"/><ellipse cx="223" cy="23" fill="#B4A7E5" rx="11" ry="11" style="stroke:#A80036;stroke-width:1.0;"/><path d="M225.6563,29.2031 L219.5313,29.2031 L219.5313,27.3125 L221.5313,27.3125 L221.5313,17.9844 L219.5313,17.9844 L219.5313,16.0938 L225.6563,16.0938 L225.6563,17.9844 L223.6563,17.9844 L223.6563,27.3125 L225.6563,27.3125 L225.6563,29.2031 Z " fill="#000000"/><text fill="#000000" font-family="sans-serif" font-size="12" font-style="italic" lengthAdjust="spacing" textLength="42" x="237" y="27.5352">IHandler</text><line style="stroke:#A80036;stroke-width:1.5;" x1="209" x2="281" y1="39" y2="39"/><line style="stroke:#A80036;stroke-width:1.5;" x1="209" x2="281" y1="47" y2="47"/><text fill="#000000" font-family="sans-serif" font-size="11" lengthAdjust="spacing" textLength="39" x="214" y="62.5801">handle()</text><text fill="#000000" font-family="sans-serif" font-size="11" lengthAdjust="spacing" textLength="57" x="214" y="77.4258">canHandle()</text><text fill="#000000" font-family="sans-serif" font-size="11" lengthAdjust="spacing" textLength="52" x="214" y="92.2715">doHandle()</text><!--MD5=[01b95d182fe8d23fc8b232b64dd5b18e]
class AbstractHandler--><rect codeLine="6" fill="#FEFECE" filter="url(#f18wq6hhqr9kqb)" height="107.3828" id="AbstractHandler" style="stroke:#A80036;stroke-width:1.5;" width="114" x="188" y="162"/><ellipse cx="203" cy="178" fill="#A9DCDF" rx="11" ry="11" style="stroke:#A80036;stroke-width:1.0;"/><path d="M203.0469,172.1719 L203.0781,172.1719 L202.0625,178.25 L204.0625,178.25 L203.0469,172.1719 Z M204.4688,180.125 L201.6563,180.125 L200.8594,183.7031 L198.7344,183.7031 L201.9844,170.5938 L204.2031,170.5938 L207.4531,183.7031 L205.25,183.7031 L204.4688,180.125 Z " fill="#000000"/><text fill="#000000" font-family="sans-serif" font-size="12" font-style="italic" lengthAdjust="spacing" textLength="82" x="217" y="182.5352">AbstractHandler</text><line style="stroke:#A80036;stroke-width:1.5;" x1="189" x2="301" y1="194" y2="194"/><text fill="#000000" font-family="sans-serif" font-size="11" lengthAdjust="spacing" textLength="94" x="194" y="209.5801">successor:IHandler</text><line style="stroke:#A80036;stroke-width:1.5;" x1="189" x2="301" y1="216.8457" y2="216.8457"/><text fill="#000000" font-family="sans-serif" font-size="11" lengthAdjust="spacing" textLength="39" x="194" y="232.4258">handle()</text><text fill="#000000" font-family="sans-serif" font-size="11" lengthAdjust="spacing" textLength="57" x="194" y="247.2715">canHandle()</text><text fill="#000000" font-family="sans-serif" font-size="11" lengthAdjust="spacing" textLength="52" x="194" y="262.1172">doHandle()</text><!--MD5=[92c80859769a7ec9401a62787a54d1d4]
class ListHandler--><rect fill="#FEFECE" filter="url(#f18wq6hhqr9kqb)" height="48" id="ListHandler" style="stroke:#A80036;stroke-width:1.5;" width="90" x="227" y="729"/><ellipse cx="242" cy="745" fill="#ADD1B2" rx="11" ry="11" style="stroke:#A80036;stroke-width:1.0;"/><path d="M237.9375,745.1406 Q237.9375,741.6875 239.0313,740.0625 Q240.1406,738.4219 242.3594,738.4219 Q243.5625,738.4219 244.8281,739.0781 L244.8281,741.125 Q243.375,740.3438 242.4375,740.3438 Q239.9844,740.3438 239.9844,745.1406 Q239.9844,747.8438 240.6094,748.9063 Q241.25,749.9531 242.4375,749.9531 Q243.4063,749.9531 244.9063,749.0313 L244.9063,751.2344 Q243.6406,751.8594 242.3594,751.8594 Q240.0938,751.8594 239.0156,750.2813 Q237.9375,748.7031 237.9375,745.1406 Z " fill="#000000"/><text fill="#000000" font-family="sans-serif" font-size="12" lengthAdjust="spacing" textLength="58" x="256" y="749.5352">ListHandler</text><line style="stroke:#A80036;stroke-width:1.5;" x1="228" x2="316" y1="761" y2="761"/><line style="stroke:#A80036;stroke-width:1.5;" x1="228" x2="316" y1="769" y2="769"/><!--MD5=[1fdae39db92be1b5a08505623de70b6e]
class MemberHandler--><rect fill="#FEFECE" filter="url(#f18wq6hhqr9kqb)" height="48" id="MemberHandler" style="stroke:#A80036;stroke-width:1.5;" width="113" x="298.5" y="602"/><ellipse cx="313.5" cy="618" fill="#ADD1B2" rx="11" ry="11" style="stroke:#A80036;stroke-width:1.0;"/><path d="M309.4375,618.1406 Q309.4375,614.6875 310.5313,613.0625 Q311.6406,611.4219 313.8594,611.4219 Q315.0625,611.4219 316.3281,612.0781 L316.3281,614.125 Q314.875,613.3438 313.9375,613.3438 Q311.4844,613.3438 311.4844,618.1406 Q311.4844,620.8438 312.1094,621.9063 Q312.75,622.9531 313.9375,622.9531 Q314.9063,622.9531 316.4063,622.0313 L316.4063,624.2344 Q315.1406,624.8594 313.8594,624.8594 Q311.5938,624.8594 310.5156,623.2813 Q309.4375,621.7031 309.4375,618.1406 Z " fill="#000000"/><text fill="#000000" font-family="sans-serif" font-size="12" lengthAdjust="spacing" textLength="81" x="327.5" y="622.5352">MemberHandler</text><line style="stroke:#A80036;stroke-width:1.5;" x1="299.5" x2="410.5" y1="634" y2="634"/><line style="stroke:#A80036;stroke-width:1.5;" x1="299.5" x2="410.5" y1="642" y2="642"/><!--MD5=[8f04c489d5dc4fe6abecb24ddc6c65b0]
class ServiceHandler--><rect fill="#FEFECE" filter="url(#f18wq6hhqr9kqb)" height="48" id="ServiceHandler" style="stroke:#A80036;stroke-width:1.5;" width="108" x="440" y="348"/><ellipse cx="455" cy="364" fill="#ADD1B2" rx="11" ry="11" style="stroke:#A80036;stroke-width:1.0;"/><path d="M450.9375,364.1406 Q450.9375,360.6875 452.0313,359.0625 Q453.1406,357.4219 455.3594,357.4219 Q456.5625,357.4219 457.8281,358.0781 L457.8281,360.125 Q456.375,359.3438 455.4375,359.3438 Q452.9844,359.3438 452.9844,364.1406 Q452.9844,366.8438 453.6094,367.9063 Q454.25,368.9531 455.4375,368.9531 Q456.4063,368.9531 457.9063,368.0313 L457.9063,370.2344 Q456.6406,370.8594 455.3594,370.8594 Q453.0938,370.8594 452.0156,369.2813 Q450.9375,367.7031 450.9375,364.1406 Z " fill="#000000"/><text fill="#000000" font-family="sans-serif" font-size="12" lengthAdjust="spacing" textLength="76" x="469" y="368.5352">ServiceHandler</text><line style="stroke:#A80036;stroke-width:1.5;" x1="441" x2="547" y1="380" y2="380"/><line style="stroke:#A80036;stroke-width:1.5;" x1="441" x2="547" y1="388" y2="388"/><!--MD5=[3f045702497cffb93d4ebeb2839b68f5]
class DefaultHandler--><rect fill="#FEFECE" filter="url(#f18wq6hhqr9kqb)" height="48" id="DefaultHandler" style="stroke:#A80036;stroke-width:1.5;" width="108" x="7" y="1110"/><ellipse cx="22" cy="1126" fill="#ADD1B2" rx="11" ry="11" style="stroke:#A80036;stroke-width:1.0;"/><path d="M17.9375,1126.1406 Q17.9375,1122.6875 19.0313,1121.0625 Q20.1406,1119.4219 22.3594,1119.4219 Q23.5625,1119.4219 24.8281,1120.0781 L24.8281,1122.125 Q23.375,1121.3438 22.4375,1121.3438 Q19.9844,1121.3438 19.9844,1126.1406 Q19.9844,1128.8438 20.6094,1129.9063 Q21.25,1130.9531 22.4375,1130.9531 Q23.4063,1130.9531 24.9063,1130.0313 L24.9063,1132.2344 Q23.6406,1132.8594 22.3594,1132.8594 Q20.0938,1132.8594 19.0156,1131.2813 Q17.9375,1129.7031 17.9375,1126.1406 Z " fill="#000000"/><text fill="#000000" font-family="sans-serif" font-size="12" lengthAdjust="spacing" textLength="76" x="36" y="1130.5352">DefaultHandler</text><line style="stroke:#A80036;stroke-width:1.5;" x1="8" x2="114" y1="1142" y2="1142"/><line style="stroke:#A80036;stroke-width:1.5;" x1="8" x2="114" y1="1150" y2="1150"/><!--MD5=[30234db3d6175ac3d61fafb4c62888e3]
class LayoutHandler--><rect fill="#FEFECE" filter="url(#f18wq6hhqr9kqb)" height="48" id="LayoutHandler" style="stroke:#A80036;stroke-width:1.5;" width="104" x="85" y="983"/><ellipse cx="100" cy="999" fill="#ADD1B2" rx="11" ry="11" style="stroke:#A80036;stroke-width:1.0;"/><path d="M95.9375,999.1406 Q95.9375,995.6875 97.0313,994.0625 Q98.1406,992.4219 100.3594,992.4219 Q101.5625,992.4219 102.8281,993.0781 L102.8281,995.125 Q101.375,994.3438 100.4375,994.3438 Q97.9844,994.3438 97.9844,999.1406 Q97.9844,1001.8438 98.6094,1002.9063 Q99.25,1003.9531 100.4375,1003.9531 Q101.4063,1003.9531 102.9063,1003.0313 L102.9063,1005.2344 Q101.6406,1005.8594 100.3594,1005.8594 Q98.0938,1005.8594 97.0156,1004.2813 Q95.9375,1002.7031 95.9375,999.1406 Z " fill="#000000"/><text fill="#000000" font-family="sans-serif" font-size="12" lengthAdjust="spacing" textLength="72" x="114" y="1003.5352">LayoutHandler</text><line style="stroke:#A80036;stroke-width:1.5;" x1="86" x2="188" y1="1015" y2="1015"/><line style="stroke:#A80036;stroke-width:1.5;" x1="86" x2="188" y1="1023" y2="1023"/><!--MD5=[7dc6510d79a2780c312fc79492c625e6]
class ObjectListHandler--><rect fill="#FEFECE" filter="url(#f18wq6hhqr9kqb)" height="48" id="ObjectListHandler" style="stroke:#A80036;stroke-width:1.5;" width="123" x="156.5" y="856"/><ellipse cx="171.5" cy="872" fill="#ADD1B2" rx="11" ry="11" style="stroke:#A80036;stroke-width:1.0;"/><path d="M167.4375,872.1406 Q167.4375,868.6875 168.5313,867.0625 Q169.6406,865.4219 171.8594,865.4219 Q173.0625,865.4219 174.3281,866.0781 L174.3281,868.125 Q172.875,867.3438 171.9375,867.3438 Q169.4844,867.3438 169.4844,872.1406 Q169.4844,874.8438 170.1094,875.9063 Q170.75,876.9531 171.9375,876.9531 Q172.9063,876.9531 174.4063,876.0313 L174.4063,878.2344 Q173.1406,878.8594 171.8594,878.8594 Q169.5938,878.8594 168.5156,877.2813 Q167.4375,875.7031 167.4375,872.1406 Z " fill="#000000"/><text fill="#000000" font-family="sans-serif" font-size="12" lengthAdjust="spacing" textLength="91" x="185.5" y="876.5352">ObjectListHandler</text><line style="stroke:#A80036;stroke-width:1.5;" x1="157.5" x2="278.5" y1="888" y2="888"/><line style="stroke:#A80036;stroke-width:1.5;" x1="157.5" x2="278.5" y1="896" y2="896"/><!--MD5=[1a9c9b8ed36c32d73faf93f48bc25258]
class ActionHandler--><rect fill="#FEFECE" filter="url(#f18wq6hhqr9kqb)" height="48" id="ActionHandler" style="stroke:#A80036;stroke-width:1.5;" width="103" x="369.5" y="475"/><ellipse cx="384.5" cy="491" fill="#ADD1B2" rx="11" ry="11" style="stroke:#A80036;stroke-width:1.0;"/><path d="M380.4375,491.1406 Q380.4375,487.6875 381.5313,486.0625 Q382.6406,484.4219 384.8594,484.4219 Q386.0625,484.4219 387.3281,485.0781 L387.3281,487.125 Q385.875,486.3438 384.9375,486.3438 Q382.4844,486.3438 382.4844,491.1406 Q382.4844,493.8438 383.1094,494.9063 Q383.75,495.9531 384.9375,495.9531 Q385.9063,495.9531 387.4063,495.0313 L387.4063,497.2344 Q386.1406,497.8594 384.8594,497.8594 Q382.5938,497.8594 381.5156,496.2813 Q380.4375,494.7031 380.4375,491.1406 Z " fill="#000000"/><text fill="#000000" font-family="sans-serif" font-size="12" lengthAdjust="spacing" textLength="71" x="398.5" y="495.5352">ActionHandler</text><line style="stroke:#A80036;stroke-width:1.5;" x1="370.5" x2="471.5" y1="507" y2="507"/><line style="stroke:#A80036;stroke-width:1.5;" x1="370.5" x2="471.5" y1="515" y2="515"/><!--MD5=[a7fb7b57ca781c6a4b9a475808d7efae]
reverse link IHandler to AbstractHandler--><path codeLine="12" d="M245,120.58 C245,134.34 245,148.68 245,161.87 " fill="none" id="IHandler-backto-AbstractHandler" style="stroke:#A80036;stroke-width:1.0;"/><polygon fill="none" points="238,120.35,245,100.35,252,120.35,238,120.35" style="stroke:#A80036;stroke-width:1.0;"/><!--MD5=[1e1a9f76e335bb6e4b141b5634f6564f]
reverse link AbstractHandler to ListHandler--><path codeLine="13" d="M245,289.34 C245,315.13 245,344.36 245,371 C245,371 245,371 245,627 C245,663.19 255.95,703.97 263.9,728.82 " fill="none" id="AbstractHandler-backto-ListHandler" style="stroke:#A80036;stroke-width:1.0;"/><polygon fill="none" points="238,289.06,245,269.06,252,289.06,238,289.06" style="stroke:#A80036;stroke-width:1.0;"/><!--MD5=[e378d0f5a1852855970ccf5bbfb738ff]
reverse link AbstractHandler to MemberHandler--><path codeLine="14" d="M267.9,288.39 C268.97,291.97 270.01,295.52 271,299 C303.32,411.94 336.67,548.5 349.51,601.96 " fill="none" id="AbstractHandler-backto-MemberHandler" style="stroke:#A80036;stroke-width:1.0;"/><polygon fill="none" points="261.19,290.36,262.06,269.19,274.58,286.28,261.19,290.36" style="stroke:#A80036;stroke-width:1.0;"/><!--MD5=[de4a9ef009c7b38c76d1f8afa542e34c]
reverse link AbstractHandler to ServiceHandler--><path codeLine="15" d="M320.6,249.5 C349.45,263.31 382.09,280.47 410,299 C431.76,313.45 454.11,332.87 470.28,347.9 " fill="none" id="AbstractHandler-backto-ServiceHandler" style="stroke:#A80036;stroke-width:1.0;"/><polygon fill="none" points="317.42,255.74,302.27,240.92,323.35,243.06,317.42,255.74" style="stroke:#A80036;stroke-width:1.0;"/><!--MD5=[4b442c1ce230fecf3cde00f32c933cfd]
reverse link AbstractHandler to DefaultHandler--><path codeLine="16" d="M168.7,237.68 C107.58,259.84 32,301.34 32,371 C32,371 32,371 32,1008 C32,1044.31 43.76,1085.06 52.3,1109.87 " fill="none" id="AbstractHandler-backto-DefaultHandler" style="stroke:#A80036;stroke-width:1.0;"/><polygon fill="none" points="166.73,230.96,187.92,231.15,171.23,244.21,166.73,230.96" style="stroke:#A80036;stroke-width:1.0;"/><!--MD5=[b032d7f4ca466463727e12c79a370096]
reverse link AbstractHandler to LayoutHandler--><path codeLine="17" d="M171.29,260.86 C136.72,287.71 103,325.55 103,371 C103,371 103,371 103,881 C103,917.43 116.62,957.81 126.61,982.55 " fill="none" id="AbstractHandler-backto-LayoutHandler" style="stroke:#A80036;stroke-width:1.0;"/><polygon fill="none" points="167.37,255.06,187.65,248.94,175.61,266.37,167.37,255.06" style="stroke:#A80036;stroke-width:1.0;"/><!--MD5=[2afa2609233b453cd4c2684e22e2fc94]
reverse link AbstractHandler to ObjectListHandler--><path codeLine="18" d="M197.47,286.91 C184.53,312.3 174,341.9 174,371 C174,371 174,371 174,754 C174,791.27 191.62,831.43 204.56,855.89 " fill="none" id="AbstractHandler-backto-ObjectListHandler" style="stroke:#A80036;stroke-width:1.0;"/><polygon fill="none" points="191.43,283.37,207.21,269.22,203.7,290.12,191.43,283.37" style="stroke:#A80036;stroke-width:1.0;"/><!--MD5=[5905d95551bd1ca66aa16905076252fa]
reverse link AbstractHandler to ActionHandler--><path codeLine="19" d="M317.17,270.73 C326.26,279.52 334.86,289.04 342,299 C382.5,355.49 405.98,435.64 415.7,474.74 " fill="none" id="AbstractHandler-backto-ActionHandler" style="stroke:#A80036;stroke-width:1.0;"/><polygon fill="none" points="312.24,275.71,302.11,257.1,321.64,265.33,312.24,275.71" style="stroke:#A80036;stroke-width:1.0;"/><!--MD5=[a4a5b3a7d6c003c3d1a274d923e00a94]
link core.Dispatcher to ServiceHandler--><path codeLine="24" d="M494,247.02 C494,274.73 494,315.27 494,342.37 " fill="none" id="core.Dispatcher-to-ServiceHandler" style="stroke:#A80036;stroke-width:1.0;"/><polygon fill="#A80036" points="494,347.6,498,338.6,494,342.6,490,338.6,494,347.6" style="stroke:#A80036;stroke-width:1.0;"/><text fill="#000000" font-family="sans-serif" font-size="13" lengthAdjust="spacing" textLength="49" x="495" y="313.6855">delegate</text><!--MD5=[f6679089ebdf89bdbc81d060be924a03]
link ServiceHandler to ActionHandler--><path codeLine="25" d="M480.44,396.22 C468.15,417.27 450.02,448.31 437.02,470.58 " fill="none" id="ServiceHandler-to-ActionHandler" style="stroke:#A80036;stroke-width:1.0;"/><polygon fill="#A80036" points="434.49,474.91,442.4776,469.1482,437.0076,470.5901,435.5657,465.1201,434.49,474.91" style="stroke:#A80036;stroke-width:1.0;"/><text fill="#000000" font-family="sans-serif" font-size="13" lengthAdjust="spacing" textLength="58" x="462" y="440.6855">successor</text><!--MD5=[b0316ad5466822f840a489e3ce435aa0]
link ActionHandler to MemberHandler--><path codeLine="26" d="M408.74,523.22 C397.67,544.18 381.37,575.05 369.63,597.3 " fill="none" id="ActionHandler-to-MemberHandler" style="stroke:#A80036;stroke-width:1.0;"/><polygon fill="#A80036" points="367.19,601.91,374.919,595.8056,369.517,597.4845,367.8381,592.0825,367.19,601.91" style="stroke:#A80036;stroke-width:1.0;"/><text fill="#000000" font-family="sans-serif" font-size="13" lengthAdjust="spacing" textLength="58" x="393" y="567.6855">successor</text><!--MD5=[be0579d02c04d18495a878966b4727c0]
link MemberHandler to ListHandler--><path codeLine="27" d="M339.58,650.22 C325.61,671.27 304.99,702.31 290.21,724.58 " fill="none" id="MemberHandler-to-ListHandler" style="stroke:#A80036;stroke-width:1.0;"/><polygon fill="#A80036" points="287.33,728.91,295.6422,723.6272,290.0969,724.7454,288.9787,719.2001,287.33,728.91" style="stroke:#A80036;stroke-width:1.0;"/><text fill="#000000" font-family="sans-serif" font-size="13" lengthAdjust="spacing" textLength="58" x="320" y="694.6855">successor</text><!--MD5=[6349002bc45643cd2d82a494985549de]
link ListHandler to ObjectListHandler--><path codeLine="28" d="M261.97,777.22 C252.91,798.18 239.58,829.05 229.97,851.3 " fill="none" id="ListHandler-to-ObjectListHandler" style="stroke:#A80036;stroke-width:1.0;"/><polygon fill="#A80036" points="227.98,855.91,235.2194,849.2323,229.9616,851.3195,227.8745,846.0617,227.98,855.91" style="stroke:#A80036;stroke-width:1.0;"/><text fill="#000000" font-family="sans-serif" font-size="13" lengthAdjust="spacing" textLength="58" x="250" y="821.6855">successor</text><!--MD5=[9f099e972c57934aec35d8d280dd941f]
link ObjectListHandler to LayoutHandler--><path codeLine="29" d="M202.95,904.22 C189.31,925.27 169.2,956.31 154.77,978.58 " fill="none" id="ObjectListHandler-to-LayoutHandler" style="stroke:#A80036;stroke-width:1.0;"/><polygon fill="#A80036" points="151.97,982.91,160.2229,977.535,154.6904,978.7148,153.5106,973.1824,151.97,982.91" style="stroke:#A80036;stroke-width:1.0;"/><text fill="#000000" font-family="sans-serif" font-size="13" lengthAdjust="spacing" textLength="58" x="184" y="948.6855">successor</text><!--MD5=[565d4d0f940724c8f3b88f5e7ae3cc0e]
link LayoutHandler to DefaultHandler--><path codeLine="30" d="M122.88,1031.22 C110.09,1052.27 91.21,1083.31 77.67,1105.58 " fill="none" id="LayoutHandler-to-DefaultHandler" style="stroke:#A80036;stroke-width:1.0;"/><polygon fill="#A80036" points="75.04,1109.91,83.1363,1104.302,77.6397,1105.639,76.3027,1100.1424,75.04,1109.91" style="stroke:#A80036;stroke-width:1.0;"/><text fill="#000000" font-family="sans-serif" font-size="13" lengthAdjust="spacing" textLength="58" x="105" y="1075.6855">successor</text><!--MD5=[d83d50f5268e71e4597661e8a44678e4]
@startuml
interface IHandler {
    handle()
    canHandle()
    doHandle()
}
abstract class AbstractHandler {
    successor:IHandler
    handle()
    canHandle()
    doHandle()
}
IHandler <|- - AbstractHandler
AbstractHandler <|- - ListHandler
AbstractHandler <|- - MemberHandler
AbstractHandler <|- - ServiceHandler
AbstractHandler <|- - DefaultHandler
AbstractHandler <|- - LayoutHandler
AbstractHandler <|- - ObjectListHandler
AbstractHandler <|- - ActionHandler

class core.Dispatcher {
    delegate:IHandler
}
core.Dispatcher - -> ServiceHandler : delegate
ServiceHandler - -> ActionHandler : successor
ActionHandler - -> MemberHandler : successor
MemberHandler - ->  ListHandler : successor
ListHandler - ->  ObjectListHandler : successor
ObjectListHandler - ->  LayoutHandler : successor
LayoutHandler - ->  DefaultHandler : successor
@enduml

PlantUML version 1.2021.01(Tue Feb 02 07:55:08 GMT 2021)
(GPL source distribution)
Java Runtime: OpenJDK Runtime Environment
JVM: OpenJDK 64-Bit Server VM
Default Encoding: UTF-8
Language: en
Country: US
--></g></svg>