<?xml version="1.0" encoding="UTF-8" standalone="no"?><svg xmlns="http://www.w3.org/2000/svg" xmlns:xlink="http://www.w3.org/1999/xlink" contentScriptType="application/ecmascript" contentStyleType="text/css" height="937px" preserveAspectRatio="none" style="width:1248px;height:937px;" version="1.1" viewBox="0 0 1248 937" width="1248px" zoomAndPan="magnify"><defs><filter height="300%" id="fze4tq5l6e4vu" width="300%" x="-1" y="-1"><feGaussianBlur result="blurOut" stdDeviation="2.0"/><feColorMatrix in="blurOut" result="blurOut2" type="matrix" values="0 0 0 0 0 0 0 0 0 0 0 0 0 0 0 0 0 0 .4 0"/><feOffset dx="4.0" dy="4.0" in="blurOut2" result="blurOut3"/><feBlend in="SourceGraphic" in2="blurOut3" mode="normal"/></filter></defs><g><!--MD5=[ea106891b45ca80f3b40e042460ac2e3]
cluster gradle--><rect fill="#FFFFFF" filter="url(#fze4tq5l6e4vu)" height="196" style="stroke:#000000;stroke-width:1.5;" width="403" x="132" y="267.5"/><rect fill="#FFFFFF" height="10" style="stroke:#000000;stroke-width:1.5;" width="15" x="515" y="272.5"/><rect fill="#FFFFFF" height="2" style="stroke:#000000;stroke-width:1.5;" width="4" x="513" y="274.5"/><rect fill="#FFFFFF" height="2" style="stroke:#000000;stroke-width:1.5;" width="4" x="513" y="278.5"/><text fill="#000000" font-family="sans-serif" font-size="14" font-style="italic" lengthAdjust="spacing" textLength="69" x="299" y="295.2383">«build.tool»</text><text fill="#000000" font-family="sans-serif" font-size="14" font-weight="bold" lengthAdjust="spacing" textLength="38" x="314.5" y="314.1328">gradle</text><!--MD5=[3fb92fba1735106d511c1d05a9f83ed2]
cluster root--><polygon fill="#FFD700" filter="url(#fze4tq5l6e4vu)" points="792,309,822,309,829,333.8945,1099,333.8945,1099,775.5,792,775.5,792,309" style="stroke:#000000;stroke-width:1.5;"/><line style="stroke:#000000;stroke-width:1.5;" x1="792" x2="829" y1="333.8945" y2="333.8945"/><text fill="#000000" font-family="sans-serif" font-size="14" font-weight="bold" lengthAdjust="spacing" textLength="24" x="796" y="325.7383">root</text><!--MD5=[f28f95b14f0c83ad8c9a9e34ae6e57b1]
cluster NM--><polygon fill="#FFD700" filter="url(#fze4tq5l6e4vu)" points="91,649.5,217,649.5,224,674.3945,341,674.3945,341,788.5,91,788.5,91,649.5" style="stroke:#000000;stroke-width:1.5;"/><line style="stroke:#000000;stroke-width:1.5;" x1="91" x2="224" y1="674.3945" y2="674.3945"/><text fill="#000000" font-family="sans-serif" font-size="14" font-weight="bold" lengthAdjust="spacing" textLength="120" x="95" y="666.2383">root.node_modules</text><!--MD5=[d3f63dd2493a0d75452850aaedea626f]
entity KF--><rect fill="#FEFECE" filter="url(#fze4tq5l6e4vu)" height="67.7891" style="stroke:#A80036;stroke-width:1.5;" width="131" x="379.5" y="371.5"/><rect fill="#FEFECE" height="10" style="stroke:#A80036;stroke-width:1.5;" width="15" x="490.5" y="376.5"/><rect fill="#FEFECE" height="2" style="stroke:#A80036;stroke-width:1.5;" width="4" x="488.5" y="378.5"/><rect fill="#FEFECE" height="2" style="stroke:#A80036;stroke-width:1.5;" width="4" x="488.5" y="382.5"/><text fill="#000000" font-family="sans-serif" font-size="14" font-style="italic" lengthAdjust="spacing" textLength="91" x="394.5" y="406.2383">«gradle.plugin»</text><text fill="#000000" font-family="sans-serif" font-size="14" lengthAdjust="spacing" textLength="88" x="396" y="425.1328">kotlinFrontend</text><!--MD5=[f2facf9cee52d933c99f4d69f0fb534a]
entity K2JS--><rect fill="#FEFECE" filter="url(#fze4tq5l6e4vu)" height="67.7891" style="stroke:#A80036;stroke-width:1.5;" width="109" x="250.5" y="371.5"/><rect fill="#FEFECE" height="10" style="stroke:#A80036;stroke-width:1.5;" width="15" x="339.5" y="376.5"/><rect fill="#FEFECE" height="2" style="stroke:#A80036;stroke-width:1.5;" width="4" x="337.5" y="378.5"/><rect fill="#FEFECE" height="2" style="stroke:#A80036;stroke-width:1.5;" width="4" x="337.5" y="382.5"/><text fill="#000000" font-family="sans-serif" font-size="14" font-style="italic" lengthAdjust="spacing" textLength="69" x="265.5" y="406.2383">«transpiler»</text><text fill="#000000" font-family="sans-serif" font-size="14" lengthAdjust="spacing" textLength="51" x="274.5" y="425.1328">kotlin2js</text><!--MD5=[2a58a75ea05b7a5fb0834acae81f83e0]
entity DCE--><rect fill="#FEFECE" filter="url(#fze4tq5l6e4vu)" height="48.8945" style="stroke:#A80036;stroke-width:1.5;" width="66" x="164" y="381"/><rect fill="#FEFECE" height="10" style="stroke:#A80036;stroke-width:1.5;" width="15" x="210" y="386"/><rect fill="#FEFECE" height="2" style="stroke:#A80036;stroke-width:1.5;" width="4" x="208" y="388"/><rect fill="#FEFECE" height="2" style="stroke:#A80036;stroke-width:1.5;" width="4" x="208" y="392"/><text fill="#000000" font-family="sans-serif" font-size="14" lengthAdjust="spacing" textLength="26" x="179" y="415.7383">DCE</text><!--MD5=[a4439dd5eea49f958aa42ae95b9e5837]
entity GCFG--><rect fill="#FEFECE" filter="url(#fze4tq5l6e4vu)" height="76.6836" style="stroke:#000000;stroke-width:1.5;" width="124" x="808" y="367"/><text fill="#000000" font-family="sans-serif" font-size="14" lengthAdjust="spacing" textLength="72" x="818" y="391.7383">build.gradle</text><text fill="#000000" font-family="sans-serif" font-size="14" lengthAdjust="spacing" textLength="90" x="818" y="410.6328">settings.gradle</text><text fill="#000000" font-family="sans-serif" font-size="14" lengthAdjust="spacing" textLength="104" x="818" y="429.5273">gradle.properties</text><!--MD5=[c17091bb9450719de56802ca6e5e1ef1]
entity KC--><rect fill="#FEFECE" filter="url(#fze4tq5l6e4vu)" height="38.8945" style="stroke:#000000;stroke-width:1.5;" width="103" x="808.5" y="720.5"/><text fill="#000000" font-family="sans-serif" font-size="14" lengthAdjust="spacing" textLength="83" x="818.5" y="745.2383">karma.conf.js</text><!--MD5=[e4aaec21de269c7bd285ce6876c0ce8e]
entity PJ--><rect fill="#FEFECE" filter="url(#fze4tq5l6e4vu)" height="38.8945" style="stroke:#000000;stroke-width:1.5;" width="103" x="979.5" y="720.5"/><text fill="#000000" font-family="sans-serif" font-size="14" lengthAdjust="spacing" textLength="83" x="989.5" y="745.2383">package.json</text><!--MD5=[1589b7aebea7faa6412065a7cb4c3aef]
entity root.build--><polygon fill="#FFD700" filter="url(#fze4tq5l6e4vu)" points="188,553,264,553,271,577.8945,288,577.8945,288,594.8945,188,594.8945,188,553" style="stroke:#000000;stroke-width:1.5;"/><line style="stroke:#000000;stroke-width:1.5;" x1="188" x2="271" y1="577.8945" y2="577.8945"/><text fill="#000000" font-family="sans-serif" font-size="14" font-weight="bold" lengthAdjust="spacing" textLength="58" x="198" y="570.7383">root.build</text><!--MD5=[7eb69e8c49b0f1a4682e6d31435646e4]
entity karma--><rect fill="#FEFECE" filter="url(#fze4tq5l6e4vu)" height="48.8945" style="stroke:#A80036;stroke-width:1.5;" width="78" x="123" y="715.5"/><rect fill="#FEFECE" height="10" style="stroke:#A80036;stroke-width:1.5;" width="15" x="181" y="720.5"/><rect fill="#FEFECE" height="2" style="stroke:#A80036;stroke-width:1.5;" width="4" x="179" y="722.5"/><rect fill="#FEFECE" height="2" style="stroke:#A80036;stroke-width:1.5;" width="4" x="179" y="726.5"/><text fill="#000000" font-family="sans-serif" font-size="14" lengthAdjust="spacing" textLength="38" x="138" y="750.2383">karma</text><!--MD5=[83d7c66368a3272c2ae5778d39252274]
entity webpack--><rect fill="#FEFECE" filter="url(#fze4tq5l6e4vu)" height="48.8945" style="stroke:#A80036;stroke-width:1.5;" width="95" x="221.5" y="715.5"/><rect fill="#FEFECE" height="10" style="stroke:#A80036;stroke-width:1.5;" width="15" x="296.5" y="720.5"/><rect fill="#FEFECE" height="2" style="stroke:#A80036;stroke-width:1.5;" width="4" x="294.5" y="722.5"/><rect fill="#FEFECE" height="2" style="stroke:#A80036;stroke-width:1.5;" width="4" x="294.5" y="726.5"/><text fill="#000000" font-family="sans-serif" font-size="14" lengthAdjust="spacing" textLength="55" x="236.5" y="750.2383">webpack</text><!--MD5=[42d6953858ce5900db35acbc378ad4b0]
entity NodeJS--><rect fill="#FEFECE" filter="url(#fze4tq5l6e4vu)" height="48.8945" style="stroke:#A80036;stroke-width:1.5;" width="88" x="227" y="50.5"/><rect fill="#FEFECE" height="10" style="stroke:#A80036;stroke-width:1.5;" width="15" x="295" y="55.5"/><rect fill="#FEFECE" height="2" style="stroke:#A80036;stroke-width:1.5;" width="4" x="293" y="57.5"/><rect fill="#FEFECE" height="2" style="stroke:#A80036;stroke-width:1.5;" width="4" x="293" y="61.5"/><text fill="#000000" font-family="sans-serif" font-size="14" lengthAdjust="spacing" textLength="48" x="242" y="85.2383">NodeJS</text><!--MD5=[e9dede37b31fdda9664526f66258b036]
entity Browser--><rect fill="#FEFECE" filter="url(#fze4tq5l6e4vu)" height="48.8945" style="stroke:#A80036;stroke-width:1.5;" width="89" x="117.5" y="874.5"/><rect fill="#FEFECE" height="10" style="stroke:#A80036;stroke-width:1.5;" width="15" x="186.5" y="879.5"/><rect fill="#FEFECE" height="2" style="stroke:#A80036;stroke-width:1.5;" width="4" x="184.5" y="881.5"/><rect fill="#FEFECE" height="2" style="stroke:#A80036;stroke-width:1.5;" width="4" x="184.5" y="885.5"/><text fill="#000000" font-family="sans-serif" font-size="14" lengthAdjust="spacing" textLength="49" x="132.5" y="909.2383">Browser</text><!--MD5=[f664b171d46fe37ddaaa8e800b616d7d]
entity DEV--><ellipse cx="174" cy="14" fill="#FEFECE" filter="url(#fze4tq5l6e4vu)" rx="8" ry="8" style="stroke:#A80036;stroke-width:1.5;"/><path d="M174,22 L174,49 M161,30 L187,30 M174,49 L161,64 M174,49 L187,64 " fill="none" filter="url(#fze4tq5l6e4vu)" style="stroke:#A80036;stroke-width:1.5;"/><text fill="#000000" font-family="sans-serif" font-size="14" lengthAdjust="spacing" textLength="66" x="141" y="84.2383">Developer,</text><text fill="#000000" font-family="sans-serif" font-size="14" lengthAdjust="spacing" textLength="41" x="141" y="103.1328">almost</text><text fill="#000000" font-family="sans-serif" font-size="14" lengthAdjust="spacing" textLength="31" x="141" y="122.0273">gone</text><text fill="#000000" font-family="sans-serif" font-size="14" lengthAdjust="spacing" textLength="43" x="141" y="140.9219">crazy;-)</text><ellipse cx="173.8443" cy="180.2689" fill="#FEFECE" filter="url(#fze4tq5l6e4vu)" rx="76.8443" ry="17.7689" style="stroke:#A80036;stroke-width:1.5;"/><text fill="#000000" font-family="sans-serif" font-size="14" lengthAdjust="spacing" textLength="95" x="123.3443" y="184.888">$ gradlew -t run</text><ellipse cx="553.9826" cy="573.7965" fill="#FEFECE" filter="url(#fze4tq5l6e4vu)" rx="104.4826" ry="23.2965" style="stroke:#A80036;stroke-width:1.5;"/><text fill="#000000" font-family="sans-serif" font-size="14" lengthAdjust="spacing" textLength="166" x="467.9826" y="578.4157">$ npm install &lt;&gt; --save-dev</text><ellipse cx="66.2251" cy="573.8621" fill="#FEFECE" filter="url(#fze4tq5l6e4vu)" rx="60.2251" ry="16.8621" style="stroke:#A80036;stroke-width:1.5;"/><text fill="#000000" font-family="sans-serif" font-size="14" lengthAdjust="spacing" textLength="66" x="30.2251" y="578.4812">$ npm test</text><!--MD5=[ff7a41c1395361ee029806f0eb7e0726]
entity npm--><rect fill="#FEFECE" filter="url(#fze4tq5l6e4vu)" height="48.8945" style="stroke:#A80036;stroke-width:1.5;" width="67" x="708.5" y="549.5"/><rect fill="#FEFECE" height="10" style="stroke:#A80036;stroke-width:1.5;" width="15" x="755.5" y="554.5"/><rect fill="#FEFECE" height="2" style="stroke:#A80036;stroke-width:1.5;" width="4" x="753.5" y="556.5"/><rect fill="#FEFECE" height="2" style="stroke:#A80036;stroke-width:1.5;" width="4" x="753.5" y="560.5"/><text fill="#000000" font-family="sans-serif" font-size="14" lengthAdjust="spacing" textLength="27" x="723.5" y="584.2383">npm</text><path d="M1115,726 L1115,736 L1082.61,740 L1115,744 L1115,753.5449 A0,0 0 0 0 1115,753.5449 L1239,753.5449 A0,0 0 0 0 1239,753.5449 L1239,736 L1229,726 L1115,726 A0,0 0 0 0 1115,726 " fill="#FBFB77" filter="url(#fze4tq5l6e4vu)" style="stroke:#A80036;stroke-width:1.0;"/><path d="M1229,726 L1229,736 L1239,736 L1229,726 " fill="#FBFB77" style="stroke:#A80036;stroke-width:1.0;"/><text fill="#000000" font-family="sans-serif" font-size="13" lengthAdjust="spacing" textLength="103" x="1121" y="744.6855">package.json.lock</text><!--MD5=[c668cf785a96bc7a2782c7867237511f]
link GCFG to PJ--><!--MD5=[c657d0b6483e9c774ed213975b370d94]
link gradle to GCFG--><path d="M131.9712,377.1238 C131.927,376.9299 131.8829,376.7353 131.8388,376.5399 C131.6623,375.7586 131.4866,374.9658 131.312,374.162 C130.6137,370.9468 129.9335,367.5562 129.2987,364.0256 C128.0291,356.9644 126.9409,349.3431 126.2513,341.445 C123.4925,309.8525 127.11,273.83 151,251.5 C235.99,172.06 558.17,249.72 674.5,249.5 C701.61,249.45 710.85,238.21 735.5,249.5 C785.8,272.54 824.42,324.71 847.12,362.38 " fill="none" id="gradle-to-GCFG" style="stroke:#A80036;stroke-width:1.0;stroke-dasharray:7.0,7.0;"/><polygon fill="#A80036" points="849.8,366.9,848.6378,357.12,847.2443,362.6025,841.7618,361.209,849.8,366.9" style="stroke:#A80036;stroke-width:1.0;"/><text fill="#000000" font-family="sans-serif" font-size="13" lengthAdjust="spacing" textLength="59" x="675.5" y="221.1855">configured</text><text fill="#000000" font-family="sans-serif" font-size="13" lengthAdjust="spacing" textLength="43" x="683.5" y="238.7305">through</text><!--MD5=[0e6521e4d96fc5ccc0e6675c405928e0]
link gradle to webpack--><path d="M148.2041,463.6774 C148.2466,463.9325 148.2892,464.1876 148.3319,464.4426 C148.5027,465.4626 148.6751,466.4817 148.849,467.4984 C149.5445,471.5653 150.2638,475.595 151,479.5 C161.05,532.79 144.02,556.23 178,598.5 C183.23,605.01 188.82,600.88 195,606.5 C205.32,615.88 204.08,621.39 211,633.5 C225.9,659.6 242.36,689.66 253.92,711 " fill="none" id="gradle-to-webpack" style="stroke:#A80036;stroke-width:1.0;"/><polygon fill="#A80036" points="256.32,715.41,255.5331,705.5926,253.9308,711.0178,248.5056,709.4154,256.32,715.41" style="stroke:#A80036;stroke-width:1.0;"/><!--MD5=[a464840e48eb4f66b3cec040cdcab49e]
link K2JS to root.build--><path d="M279.03,439.68 C267.81,452.9 254.05,467.73 240,479.5 C234.8,483.86 230.31,481.58 227,487.5 C216.72,505.89 221.07,529.91 227.07,547.8 " fill="none" id="K2JS-to-root.build" style="stroke:#A80036;stroke-width:1.0;"/><polygon fill="#A80036" points="228.8,552.68,229.5626,542.8607,227.1292,547.9674,222.0225,545.534,228.8,552.68" style="stroke:#A80036;stroke-width:1.0;"/><text fill="#000000" font-family="sans-serif" font-size="13" lengthAdjust="spacing" textLength="57" x="228.5" y="502.1855">generates</text><ellipse cx="250" cy="516.0898" fill="#000000" rx="2.5" ry="2.5" style="stroke:#000000;stroke-width:0.0;"/><text fill="#000000" font-family="sans-serif" font-size="13" lengthAdjust="spacing" textLength="14" x="255.5" y="519.7305">.js</text><ellipse cx="233.5" cy="533.6348" fill="#000000" rx="2.5" ry="2.5" style="stroke:#000000;stroke-width:0.0;"/><text fill="#000000" font-family="sans-serif" font-size="13" lengthAdjust="spacing" textLength="47" x="239" y="537.2754">-tests.js</text><!--MD5=[0ccef5771aaf04055a305d067fe0eea8]
link KF to KC--><path d="M410.68,439.56 C385.41,466.45 353.1,506.8 339,549.5 C332.17,570.18 325.76,581.21 339,598.5 C395.82,672.68 680.45,716.56 803.34,732.33 " fill="none" id="KF-to-KC" style="stroke:#A80036;stroke-width:1.0;"/><polygon fill="#A80036" points="808.36,732.97,799.9347,727.8696,803.3997,732.341,798.9283,735.8061,808.36,732.97" style="stroke:#A80036;stroke-width:1.0;"/><text fill="#000000" font-family="sans-serif" font-size="13" lengthAdjust="spacing" textLength="99" x="340" y="579.1855">initially generates</text><!--MD5=[8d7e0dff31da885e72fdc85f04d79e62]
link KC to PJ--><path d="M911.77,740 C931.52,740 954.14,740 974.33,740 " fill="none" id="KC-to-PJ" style="stroke:#A80036;stroke-width:1.0;"/><polygon fill="#A80036" points="979.41,740,970.41,736,974.41,740,970.41,744,979.41,740" style="stroke:#A80036;stroke-width:1.0;"/><text fill="#000000" font-family="sans-serif" font-size="13" lengthAdjust="spacing" textLength="46" x="922.5" y="732.6855">requires</text><!--MD5=[c6bfe5db0d9522034a77668c71e39324]
link PJ to NM--><path d="M1018.35,720.45 C1000.47,694.82 965.12,651.07 922,633.5 C880.22,616.48 143.5,603.28 110,633.5 C105.79,637.2975 102.427,641.7019 99.769,646.5146 C99.4368,647.1162 99.1155,647.7242 98.805,648.3381 C98.6498,648.6451 98.4972,648.9536 98.3473,649.2635 " fill="none" id="PJ-to-NM" style="stroke:#A80036;stroke-width:1.0;"/><polygon fill="#A80036" points="98.3473,649.2635,105.8671,642.9033,100.5245,644.7624,98.6654,639.4198,98.3473,649.2635" style="stroke:#A80036;stroke-width:1.0;"/><text fill="#000000" font-family="sans-serif" font-size="13" lengthAdjust="spacing" textLength="43" x="149.5" y="621.1855">adds to</text><!--MD5=[d4f15545423303776113a9574a096e5f]
link DEV to RUN--><path d="M174,145.61 C174,149.74 174,153.69 174,157.35 " fill="none" id="DEV-to-RUN" style="stroke:#A80036;stroke-width:1.0;"/><polygon fill="#A80036" points="174,162.48,178,153.48,174,157.48,170,153.48,174,162.48" style="stroke:#A80036;stroke-width:1.0;"/><!--MD5=[f3b0fd7d4b151759cb13e321df9d8a78]
link DEV to NI--><path d="M207.01,136 C210.12,139.45 213.45,142.66 217,145.5 C231.09,156.77 512.86,237.31 524,251.5 C592.87,339.2 572.83,484.71 560.46,545.25 " fill="none" id="DEV-to-NI" style="stroke:#A80036;stroke-width:1.0;"/><polygon fill="#A80036" points="559.44,550.15,565.1813,542.1476,560.4535,545.2538,557.3473,540.526,559.44,550.15" style="stroke:#A80036;stroke-width:1.0;"/><!--MD5=[b17037f98e12b29962cd7c1ac441a1f1]
link RUN to gradle--><path d="M167.13,198.45 C161.78,212.43 154.66,232.93 151,251.5 C150.1888,255.615 149.4357,259.8028 148.7368,264.0388 C148.562,265.0978 148.3907,266.1598 148.2226,267.2245 " fill="none" id="RUN-to-gradle" style="stroke:#A80036;stroke-width:1.0;"/><polygon fill="#A80036" points="148.2226,267.2245,153.5768,258.9581,149.0021,262.2856,145.6747,257.7109,148.2226,267.2245" style="stroke:#A80036;stroke-width:1.0;"/><!--MD5=[ab89fc97919d97f1f5f6fb1ea42f9f2d]
link NI to npm--><path d="M658.72,574 C674.5,574 689.87,574 703.02,574 " fill="none" id="NI-to-npm" style="stroke:#A80036;stroke-width:1.0;stroke-dasharray:7.0,7.0;"/><polygon fill="#A80036" points="708.14,574,699.14,570,703.14,574,699.14,578,708.14,574" style="stroke:#A80036;stroke-width:1.0;"/><text fill="#000000" font-family="sans-serif" font-size="13" lengthAdjust="spacing" textLength="28" x="669.5" y="566.6855">uses</text><!--MD5=[f85af7db3b42217e115ddf1011bcd57f]
link NI to PJ--><path d="M636.8,588.49 C657.14,591.79 678.85,595.29 699,598.5 C723.77,602.45 899.55,622.31 922,633.5 C960.99,652.93 995.11,691.31 1014.37,716.03 " fill="none" id="NI-to-PJ" style="stroke:#A80036;stroke-width:1.0;"/><polygon fill="#A80036" points="1017.56,720.17,1015.2231,710.6024,1014.5032,716.2133,1008.8923,715.4933,1017.56,720.17" style="stroke:#A80036;stroke-width:1.0;"/><text fill="#000000" font-family="sans-serif" font-size="13" lengthAdjust="spacing" textLength="46" x="889" y="621.1855">updates</text><!--MD5=[20a9e19418e70fd4168eb3c6e1e94ca5]
link DEV to TEST--><path d="M140.6,99.15 C121.23,114.63 98.46,136.83 87,162.5 C25.77,299.73 51.06,488.95 61.97,551.78 " fill="none" id="DEV-to-TEST" style="stroke:#A80036;stroke-width:1.0;"/><polygon fill="#A80036" points="62.85,556.77,65.2441,547.2166,61.9909,551.8444,57.3631,548.5912,62.85,556.77" style="stroke:#A80036;stroke-width:1.0;"/><!--MD5=[f1ad7c348f545d25b38a2b6484a9d476]
link TEST to npm--><path d="M103.78,560.73 C148.18,545.91 224.37,522.82 292,514 C346.08,506.94 402.02,491.79 669,549.5 C680.33,551.95 692.36,555.55 703.32,559.24 " fill="none" id="TEST-to-npm" style="stroke:#A80036;stroke-width:1.0;stroke-dasharray:7.0,7.0;"/><polygon fill="#A80036" points="708.27,560.94,701.0631,554.2273,703.5425,559.3118,698.458,561.7912,708.27,560.94" style="stroke:#A80036;stroke-width:1.0;"/><text fill="#000000" font-family="sans-serif" font-size="13" lengthAdjust="spacing" textLength="28" x="293" y="519.6855">uses</text><!--MD5=[e70c9030adc7658768ddcf0fba065aeb]
link TEST to karma--><path d="M61.45,591.02 C59.37,602.02 58.91,616.26 67,625.5 C82.4,643.1 100.65,619.01 119,633.5 C142.63,652.15 153.36,685.91 158.18,710.22 " fill="none" id="TEST-to-karma" style="stroke:#A80036;stroke-width:1.0;"/><polygon fill="#A80036" points="159.12,715.26,161.4063,705.6802,158.2055,710.3443,153.5413,707.1435,159.12,715.26" style="stroke:#A80036;stroke-width:1.0;"/><text fill="#000000" font-family="sans-serif" font-size="13" lengthAdjust="spacing" textLength="25" x="68" y="621.1855">runs</text><!--MD5=[9ca04c15e2688d803d183f81b48772ee]
link karma to Browser--><path d="M162,764.5 C162,792.48 162,839.19 162,869.29 " fill="none" id="karma-to-Browser" style="stroke:#A80036;stroke-width:1.0;"/><polygon fill="#A80036" points="162,874.33,166,865.33,162,869.33,158,865.33,162,874.33" style="stroke:#A80036;stroke-width:1.0;"/><text fill="#000000" font-family="sans-serif" font-size="13" lengthAdjust="spacing" textLength="46" x="179" y="827.1855">displays</text><text fill="#000000" font-family="sans-serif" font-size="13" lengthAdjust="spacing" textLength="65" x="169.5" y="844.7305">test results</text><text fill="#000000" font-family="sans-serif" font-size="13" lengthAdjust="spacing" textLength="78" x="163" y="862.2754">via port 9876</text><!--MD5=[0c0f6c32581a7e925e9105977e02df07]
@startuml
skinparam nodesep 20
skinparam ranksep 5

top to bottom direction

component gradle <<build.tool>> {
    component kotlinFrontend <<gradle.plugin>> as KF
    component kotlin2js <<transpiler>> as K2JS
    component DCE
}


package root #gold {
    rectangle "build.gradle\nsettings.gradle\ngradle.properties" as GCFG
    rectangle karma.conf.js as KC
    rectangle package.json as PJ
    GCFG -[hidden]- -> PJ
}
package root.build  #gold {
}
package root.node_modules as NM #gold {
    component karma
    component webpack
}
component NodeJS
component Browser

gradle .> GCFG : configured\nthrough
gradle - -> webpack

K2JS - -> root.build : generates\n*.js\n*-tests.js
KF - -> KC : initially generates
KC -> PJ : requires
PJ -> NM : adds to

:Developer,\nalmost\ngone\ncrazy;-): as DEV
($ gradlew -t run) as RUN
($ npm install <> - -save-dev) as NI
($ npm test) as TEST

DEV - -> RUN
DEV - -> NI
RUN - -> gradle


component npm
NI .> npm : uses
NI -> PJ : updates


DEV - -> TEST
TEST .> npm : uses
TEST - -> karma : runs
karma - -> Browser : displays\ntest results\nvia port 9876

note left of PJ
package.json.lock
end note
@enduml

PlantUML version 1.2021.01(Tue Feb 02 07:55:08 GMT 2021)
(GPL source distribution)
Java Runtime: OpenJDK Runtime Environment
JVM: OpenJDK 64-Bit Server VM
Default Encoding: UTF-8
Language: en
Country: US
--></g></svg>