<?xml version="1.0" encoding="UTF-8" standalone="no"?><svg xmlns="http://www.w3.org/2000/svg" xmlns:xlink="http://www.w3.org/1999/xlink" contentScriptType="application/ecmascript" contentStyleType="text/css" height="1147px" preserveAspectRatio="none" style="width:579px;height:1147px;background:#FFFFFF;" version="1.1" viewBox="0 0 579 1147" width="579px" zoomAndPan="magnify"><defs><filter height="300%" id="f18wq6hhqr9kqb" width="300%" x="-1" y="-1"><feGaussianBlur result="blurOut" stdDeviation="2.0"/><feColorMatrix in="blurOut" result="blurOut2" type="matrix" values="0 0 0 0 0 0 0 0 0 0 0 0 0 0 0 0 0 0 .4 0"/><feOffset dx="4.0" dy="4.0" in="blurOut2" result="blurOut3"/><feBlend in="SourceGraphic" in2="blurOut3" mode="normal"/></filter></defs><g><!--MD5=[01435ace8273dc3cae88e7f376e4d373]
cluster core--><polygon fill="#FFFFFF" filter="url(#f18wq6hhqr9kqb)" points="434,142,470,142,477,164.7999,562,164.7999,562,254,434,254,434,142" style="stroke:#000000;stroke-width:1.5;"/><line style="stroke:#000000;stroke-width:1.5;" x1="434" x2="477" y1="164.7999" y2="164.7999"/><text fill="#000000" font-family="sans-serif" font-size="14" font-weight="bold" lengthAdjust="spacing" textLength="30" x="438" y="157.9999">core</text><!--MD5=[602dbec1f7d4de6c4f5ea6846e774687]
class core.Dispatcher--><rect codeLine="21" fill="#FEFECE" filter="url(#f18wq6hhqr9kqb)" height="61.1999" id="core.Dispatcher" style="stroke:#A80036;stroke-width:1.5;" width="97" x="449.5" y="177"/><ellipse cx="468.55" cy="193" fill="#ADD1B2" rx="11" ry="11" style="stroke:#A80036;stroke-width:1.0;"/><path d="M467.9094,196.7813 Q468.7063,196.7813 469.2688,196.5938 Q469.8469,196.3906 470.0813,196.1719 Q470.3313,195.9375 470.5656,195.75 Q470.8156,195.5469 471.0344,195.5469 Q471.3781,195.5469 471.6281,195.8125 Q471.8938,196.0625 471.8938,196.3906 Q471.8938,197.125 470.7219,197.8125 Q469.5656,198.4844 467.8625,198.4844 Q465.7063,198.4844 464.2844,197.2188 Q462.8625,195.9531 462.8625,194.0156 L462.8625,192.8906 Q462.8625,190.8594 464.1906,189.4844 Q465.5188,188.0938 467.4875,188.0938 Q468.675,188.0938 469.8938,188.6719 L470.0656,188.75 Q470.3625,188.3438 470.7844,188.3438 Q471.2688,188.3438 471.4406,188.6406 Q471.6281,188.9219 471.6281,189.4688 L471.6281,190.8906 Q471.6281,192.0156 470.7844,192.0156 Q470.4719,192.0156 470.2688,191.8438 Q470.0813,191.6719 470.0344,191.5313 Q470.0031,191.375 469.9563,191.1094 Q469.8469,190.5938 469.3313,190.2813 Q468.8156,189.9688 468.3625,189.8906 Q467.925,189.7969 467.55,189.7969 Q466.2688,189.7969 465.4094,190.6719 Q464.5656,191.5469 464.5656,192.8906 L464.5656,193.9844 Q464.5656,195.2656 465.4719,196.0313 Q466.3781,196.7813 467.9094,196.7813 Z " fill="#000000"/><text fill="#000000" font-family="sans-serif" font-size="12" lengthAdjust="spacing" textLength="56" x="483.45" y="197.8">Dispatcher</text><line style="stroke:#A80036;stroke-width:1.5;" x1="450.5" x2="545.5" y1="209" y2="209"/><text fill="#000000" font-family="sans-serif" font-size="11" lengthAdjust="spacing" textLength="85" x="455.5" y="223.9999">delegate:IHandler</text><line style="stroke:#A80036;stroke-width:1.5;" x1="450.5" x2="545.5" y1="230.1999" y2="230.1999"/><!--MD5=[432c1a4756a6140e3e6346ba5e0933d4]
class IHandler--><rect codeLine="1" fill="#FEFECE" filter="url(#f18wq6hhqr9kqb)" height="87.5997" id="IHandler" style="stroke:#A80036;stroke-width:1.5;" width="78" x="207" y="7"/><ellipse cx="222" cy="23" fill="#B4A7E5" rx="11" ry="11" style="stroke:#A80036;stroke-width:1.0;"/><path d="M224.6719,26.2969 Q225.2188,26.2969 225.5,26.4844 Q225.7813,26.6563 225.7813,27.1563 Q225.7813,28 224.6719,28 L219.5313,28 Q218.4063,28 218.4063,27.1563 Q218.4063,26.6563 218.6875,26.4844 Q218.9844,26.2969 219.5313,26.2969 L221.25,26.2969 L221.25,19.7813 L219.5313,19.7813 Q218.4063,19.7813 218.4063,18.9375 Q218.4063,18.4531 218.6875,18.2813 Q218.9844,18.0938 219.5313,18.0938 L224.6719,18.0938 Q225.2188,18.0938 225.5,18.2813 Q225.7813,18.4531 225.7813,18.9375 Q225.7813,19.7813 224.6719,19.7813 L222.9531,19.7813 L222.9531,26.2969 L224.6719,26.2969 Z " fill="#000000"/><text fill="#000000" font-family="sans-serif" font-size="12" font-style="italic" lengthAdjust="spacing" textLength="46" x="236" y="27.8">IHandler</text><line style="stroke:#A80036;stroke-width:1.5;" x1="208" x2="284" y1="39" y2="39"/><line style="stroke:#A80036;stroke-width:1.5;" x1="208" x2="284" y1="47" y2="47"/><text fill="#000000" font-family="sans-serif" font-size="11" lengthAdjust="spacing" textLength="40" x="213" y="61.9999">handle()</text><text fill="#000000" font-family="sans-serif" font-size="11" lengthAdjust="spacing" textLength="60" x="213" y="75.1998">canHandle()</text><text fill="#000000" font-family="sans-serif" font-size="11" lengthAdjust="spacing" textLength="54" x="213" y="88.3997">doHandle()</text><!--MD5=[01b95d182fe8d23fc8b232b64dd5b18e]
class AbstractHandler--><rect codeLine="6" fill="#FEFECE" filter="url(#f18wq6hhqr9kqb)" height="100.7996" id="AbstractHandler" style="stroke:#A80036;stroke-width:1.5;" width="119" x="186.5" y="157"/><ellipse cx="201.5" cy="173" fill="#A9DCDF" rx="11" ry="11" style="stroke:#A80036;stroke-width:1.0;"/><path d="M202.4531,176.6563 Q202.4531,176.1563 202.7344,175.9844 Q203.0313,175.7969 203.5781,175.7969 L203.9688,175.7969 L203.5781,174.8125 L199.5313,174.8125 L199.1406,175.7969 L199.5313,175.7969 Q200.6406,175.7969 200.6406,176.6563 Q200.6406,177.5 199.5313,177.5 L197.2656,177.5 Q196.1406,177.5 196.1406,176.6563 Q196.1406,176.1406 196.4375,175.9688 Q196.7344,175.7969 197.2813,175.7969 L199.9219,169.2813 L198.8438,169.2813 Q197.7031,169.2813 197.7031,168.4375 Q197.7031,167.9219 198,167.7656 Q198.2969,167.5938 198.8438,167.5938 L202.5156,167.5938 L205.9063,175.7969 Q207.0625,175.7969 207.0625,176.6563 Q207.0625,177.5 205.9375,177.5 L203.5781,177.5 Q202.4531,177.5 202.4531,176.6563 Z M202.875,173.1094 L201.5469,169.8438 L200.2031,173.1094 L202.875,173.1094 Z " fill="#000000"/><text fill="#000000" font-family="sans-serif" font-size="12" font-style="italic" lengthAdjust="spacing" textLength="87" x="215.5" y="177.8">AbstractHandler</text><line style="stroke:#A80036;stroke-width:1.5;" x1="187.5" x2="304.5" y1="189" y2="189"/><text fill="#000000" font-family="sans-serif" font-size="11" lengthAdjust="spacing" textLength="93" x="192.5" y="203.9999">successor:IHandler</text><line style="stroke:#A80036;stroke-width:1.5;" x1="187.5" x2="304.5" y1="210.1999" y2="210.1999"/><text fill="#000000" font-family="sans-serif" font-size="11" lengthAdjust="spacing" textLength="40" x="192.5" y="225.1998">handle()</text><text fill="#000000" font-family="sans-serif" font-size="11" lengthAdjust="spacing" textLength="60" x="192.5" y="238.3997">canHandle()</text><text fill="#000000" font-family="sans-serif" font-size="11" lengthAdjust="spacing" textLength="54" x="192.5" y="251.5996">doHandle()</text><!--MD5=[92c80859769a7ec9401a62787a54d1d4]
class ListHandler--><rect fill="#FEFECE" filter="url(#f18wq6hhqr9kqb)" height="48" id="ListHandler" style="stroke:#A80036;stroke-width:1.5;" width="93" x="228.5" y="710"/><ellipse cx="243.5" cy="726" fill="#ADD1B2" rx="11" ry="11" style="stroke:#A80036;stroke-width:1.0;"/><path d="M242.8594,729.7813 Q243.6563,729.7813 244.2188,729.5938 Q244.7969,729.3906 245.0313,729.1719 Q245.2813,728.9375 245.5156,728.75 Q245.7656,728.5469 245.9844,728.5469 Q246.3281,728.5469 246.5781,728.8125 Q246.8438,729.0625 246.8438,729.3906 Q246.8438,730.125 245.6719,730.8125 Q244.5156,731.4844 242.8125,731.4844 Q240.6563,731.4844 239.2344,730.2188 Q237.8125,728.9531 237.8125,727.0156 L237.8125,725.8906 Q237.8125,723.8594 239.1406,722.4844 Q240.4688,721.0938 242.4375,721.0938 Q243.625,721.0938 244.8438,721.6719 L245.0156,721.75 Q245.3125,721.3438 245.7344,721.3438 Q246.2188,721.3438 246.3906,721.6406 Q246.5781,721.9219 246.5781,722.4688 L246.5781,723.8906 Q246.5781,725.0156 245.7344,725.0156 Q245.4219,725.0156 245.2188,724.8438 Q245.0313,724.6719 244.9844,724.5313 Q244.9531,724.375 244.9063,724.1094 Q244.7969,723.5938 244.2813,723.2813 Q243.7656,722.9688 243.3125,722.8906 Q242.875,722.7969 242.5,722.7969 Q241.2188,722.7969 240.3594,723.6719 Q239.5156,724.5469 239.5156,725.8906 L239.5156,726.9844 Q239.5156,728.2656 240.4219,729.0313 Q241.3281,729.7813 242.8594,729.7813 Z " fill="#000000"/><text fill="#000000" font-family="sans-serif" font-size="12" lengthAdjust="spacing" textLength="61" x="257.5" y="730.8">ListHandler</text><line style="stroke:#A80036;stroke-width:1.5;" x1="229.5" x2="320.5" y1="742" y2="742"/><line style="stroke:#A80036;stroke-width:1.5;" x1="229.5" x2="320.5" y1="750" y2="750"/><!--MD5=[1fdae39db92be1b5a08505623de70b6e]
class MemberHandler--><rect fill="#FEFECE" filter="url(#f18wq6hhqr9kqb)" height="48" id="MemberHandler" style="stroke:#A80036;stroke-width:1.5;" width="117" x="299.5" y="585"/><ellipse cx="314.5" cy="601" fill="#ADD1B2" rx="11" ry="11" style="stroke:#A80036;stroke-width:1.0;"/><path d="M313.8594,604.7813 Q314.6563,604.7813 315.2188,604.5938 Q315.7969,604.3906 316.0313,604.1719 Q316.2813,603.9375 316.5156,603.75 Q316.7656,603.5469 316.9844,603.5469 Q317.3281,603.5469 317.5781,603.8125 Q317.8438,604.0625 317.8438,604.3906 Q317.8438,605.125 316.6719,605.8125 Q315.5156,606.4844 313.8125,606.4844 Q311.6563,606.4844 310.2344,605.2188 Q308.8125,603.9531 308.8125,602.0156 L308.8125,600.8906 Q308.8125,598.8594 310.1406,597.4844 Q311.4688,596.0938 313.4375,596.0938 Q314.625,596.0938 315.8438,596.6719 L316.0156,596.75 Q316.3125,596.3438 316.7344,596.3438 Q317.2188,596.3438 317.3906,596.6406 Q317.5781,596.9219 317.5781,597.4688 L317.5781,598.8906 Q317.5781,600.0156 316.7344,600.0156 Q316.4219,600.0156 316.2188,599.8438 Q316.0313,599.6719 315.9844,599.5313 Q315.9531,599.375 315.9063,599.1094 Q315.7969,598.5938 315.2813,598.2813 Q314.7656,597.9688 314.3125,597.8906 Q313.875,597.7969 313.5,597.7969 Q312.2188,597.7969 311.3594,598.6719 Q310.5156,599.5469 310.5156,600.8906 L310.5156,601.9844 Q310.5156,603.2656 311.4219,604.0313 Q312.3281,604.7813 313.8594,604.7813 Z " fill="#000000"/><text fill="#000000" font-family="sans-serif" font-size="12" lengthAdjust="spacing" textLength="85" x="328.5" y="605.8">MemberHandler</text><line style="stroke:#A80036;stroke-width:1.5;" x1="300.5" x2="415.5" y1="617" y2="617"/><line style="stroke:#A80036;stroke-width:1.5;" x1="300.5" x2="415.5" y1="625" y2="625"/><!--MD5=[8f04c489d5dc4fe6abecb24ddc6c65b0]
class ServiceHandler--><rect fill="#FEFECE" filter="url(#f18wq6hhqr9kqb)" height="48" id="ServiceHandler" style="stroke:#A80036;stroke-width:1.5;" width="113" x="441.5" y="335"/><ellipse cx="456.5" cy="351" fill="#ADD1B2" rx="11" ry="11" style="stroke:#A80036;stroke-width:1.0;"/><path d="M455.8594,354.7813 Q456.6563,354.7813 457.2188,354.5938 Q457.7969,354.3906 458.0313,354.1719 Q458.2813,353.9375 458.5156,353.75 Q458.7656,353.5469 458.9844,353.5469 Q459.3281,353.5469 459.5781,353.8125 Q459.8438,354.0625 459.8438,354.3906 Q459.8438,355.125 458.6719,355.8125 Q457.5156,356.4844 455.8125,356.4844 Q453.6563,356.4844 452.2344,355.2188 Q450.8125,353.9531 450.8125,352.0156 L450.8125,350.8906 Q450.8125,348.8594 452.1406,347.4844 Q453.4688,346.0938 455.4375,346.0938 Q456.625,346.0938 457.8438,346.6719 L458.0156,346.75 Q458.3125,346.3438 458.7344,346.3438 Q459.2188,346.3438 459.3906,346.6406 Q459.5781,346.9219 459.5781,347.4688 L459.5781,348.8906 Q459.5781,350.0156 458.7344,350.0156 Q458.4219,350.0156 458.2188,349.8438 Q458.0313,349.6719 457.9844,349.5313 Q457.9531,349.375 457.9063,349.1094 Q457.7969,348.5938 457.2813,348.2813 Q456.7656,347.9688 456.3125,347.8906 Q455.875,347.7969 455.5,347.7969 Q454.2188,347.7969 453.3594,348.6719 Q452.5156,349.5469 452.5156,350.8906 L452.5156,351.9844 Q452.5156,353.2656 453.4219,354.0313 Q454.3281,354.7813 455.8594,354.7813 Z " fill="#000000"/><text fill="#000000" font-family="sans-serif" font-size="12" lengthAdjust="spacing" textLength="81" x="470.5" y="355.8">ServiceHandler</text><line style="stroke:#A80036;stroke-width:1.5;" x1="442.5" x2="553.5" y1="367" y2="367"/><line style="stroke:#A80036;stroke-width:1.5;" x1="442.5" x2="553.5" y1="375" y2="375"/><!--MD5=[3f045702497cffb93d4ebeb2839b68f5]
class DefaultHandler--><rect fill="#FEFECE" filter="url(#f18wq6hhqr9kqb)" height="48" id="DefaultHandler" style="stroke:#A80036;stroke-width:1.5;" width="110" x="7" y="1085"/><ellipse cx="22" cy="1101" fill="#ADD1B2" rx="11" ry="11" style="stroke:#A80036;stroke-width:1.0;"/><path d="M21.3594,1104.7813 Q22.1563,1104.7813 22.7188,1104.5938 Q23.2969,1104.3906 23.5313,1104.1719 Q23.7813,1103.9375 24.0156,1103.75 Q24.2656,1103.5469 24.4844,1103.5469 Q24.8281,1103.5469 25.0781,1103.8125 Q25.3438,1104.0625 25.3438,1104.3906 Q25.3438,1105.125 24.1719,1105.8125 Q23.0156,1106.4844 21.3125,1106.4844 Q19.1563,1106.4844 17.7344,1105.2188 Q16.3125,1103.9531 16.3125,1102.0156 L16.3125,1100.8906 Q16.3125,1098.8594 17.6406,1097.4844 Q18.9688,1096.0938 20.9375,1096.0938 Q22.125,1096.0938 23.3438,1096.6719 L23.5156,1096.75 Q23.8125,1096.3438 24.2344,1096.3438 Q24.7188,1096.3438 24.8906,1096.6406 Q25.0781,1096.9219 25.0781,1097.4688 L25.0781,1098.8906 Q25.0781,1100.0156 24.2344,1100.0156 Q23.9219,1100.0156 23.7188,1099.8438 Q23.5313,1099.6719 23.4844,1099.5313 Q23.4531,1099.375 23.4063,1099.1094 Q23.2969,1098.5938 22.7813,1098.2813 Q22.2656,1097.9688 21.8125,1097.8906 Q21.375,1097.7969 21,1097.7969 Q19.7188,1097.7969 18.8594,1098.6719 Q18.0156,1099.5469 18.0156,1100.8906 L18.0156,1101.9844 Q18.0156,1103.2656 18.9219,1104.0313 Q19.8281,1104.7813 21.3594,1104.7813 Z " fill="#000000"/><text fill="#000000" font-family="sans-serif" font-size="12" lengthAdjust="spacing" textLength="78" x="36" y="1105.8">DefaultHandler</text><line style="stroke:#A80036;stroke-width:1.5;" x1="8" x2="116" y1="1117" y2="1117"/><line style="stroke:#A80036;stroke-width:1.5;" x1="8" x2="116" y1="1125" y2="1125"/><!--MD5=[30234db3d6175ac3d61fafb4c62888e3]
class LayoutHandler--><rect fill="#FEFECE" filter="url(#f18wq6hhqr9kqb)" height="48" id="LayoutHandler" style="stroke:#A80036;stroke-width:1.5;" width="109" x="86.5" y="960"/><ellipse cx="101.5" cy="976" fill="#ADD1B2" rx="11" ry="11" style="stroke:#A80036;stroke-width:1.0;"/><path d="M100.8594,979.7813 Q101.6563,979.7813 102.2188,979.5938 Q102.7969,979.3906 103.0313,979.1719 Q103.2813,978.9375 103.5156,978.75 Q103.7656,978.5469 103.9844,978.5469 Q104.3281,978.5469 104.5781,978.8125 Q104.8438,979.0625 104.8438,979.3906 Q104.8438,980.125 103.6719,980.8125 Q102.5156,981.4844 100.8125,981.4844 Q98.6563,981.4844 97.2344,980.2188 Q95.8125,978.9531 95.8125,977.0156 L95.8125,975.8906 Q95.8125,973.8594 97.1406,972.4844 Q98.4688,971.0938 100.4375,971.0938 Q101.625,971.0938 102.8438,971.6719 L103.0156,971.75 Q103.3125,971.3438 103.7344,971.3438 Q104.2188,971.3438 104.3906,971.6406 Q104.5781,971.9219 104.5781,972.4688 L104.5781,973.8906 Q104.5781,975.0156 103.7344,975.0156 Q103.4219,975.0156 103.2188,974.8438 Q103.0313,974.6719 102.9844,974.5313 Q102.9531,974.375 102.9063,974.1094 Q102.7969,973.5938 102.2813,973.2813 Q101.7656,972.9688 101.3125,972.8906 Q100.875,972.7969 100.5,972.7969 Q99.2188,972.7969 98.3594,973.6719 Q97.5156,974.5469 97.5156,975.8906 L97.5156,976.9844 Q97.5156,978.2656 98.4219,979.0313 Q99.3281,979.7813 100.8594,979.7813 Z " fill="#000000"/><text fill="#000000" font-family="sans-serif" font-size="12" lengthAdjust="spacing" textLength="77" x="115.5" y="980.8">LayoutHandler</text><line style="stroke:#A80036;stroke-width:1.5;" x1="87.5" x2="194.5" y1="992" y2="992"/><line style="stroke:#A80036;stroke-width:1.5;" x1="87.5" x2="194.5" y1="1000" y2="1000"/><!--MD5=[7dc6510d79a2780c312fc79492c625e6]
class ObjectListHandler--><rect fill="#FEFECE" filter="url(#f18wq6hhqr9kqb)" height="48" id="ObjectListHandler" style="stroke:#A80036;stroke-width:1.5;" width="127" x="157.5" y="835"/><ellipse cx="172.5" cy="851" fill="#ADD1B2" rx="11" ry="11" style="stroke:#A80036;stroke-width:1.0;"/><path d="M171.8594,854.7813 Q172.6563,854.7813 173.2188,854.5938 Q173.7969,854.3906 174.0313,854.1719 Q174.2813,853.9375 174.5156,853.75 Q174.7656,853.5469 174.9844,853.5469 Q175.3281,853.5469 175.5781,853.8125 Q175.8438,854.0625 175.8438,854.3906 Q175.8438,855.125 174.6719,855.8125 Q173.5156,856.4844 171.8125,856.4844 Q169.6563,856.4844 168.2344,855.2188 Q166.8125,853.9531 166.8125,852.0156 L166.8125,850.8906 Q166.8125,848.8594 168.1406,847.4844 Q169.4688,846.0938 171.4375,846.0938 Q172.625,846.0938 173.8438,846.6719 L174.0156,846.75 Q174.3125,846.3438 174.7344,846.3438 Q175.2188,846.3438 175.3906,846.6406 Q175.5781,846.9219 175.5781,847.4688 L175.5781,848.8906 Q175.5781,850.0156 174.7344,850.0156 Q174.4219,850.0156 174.2188,849.8438 Q174.0313,849.6719 173.9844,849.5313 Q173.9531,849.375 173.9063,849.1094 Q173.7969,848.5938 173.2813,848.2813 Q172.7656,847.9688 172.3125,847.8906 Q171.875,847.7969 171.5,847.7969 Q170.2188,847.7969 169.3594,848.6719 Q168.5156,849.5469 168.5156,850.8906 L168.5156,851.9844 Q168.5156,853.2656 169.4219,854.0313 Q170.3281,854.7813 171.8594,854.7813 Z " fill="#000000"/><text fill="#000000" font-family="sans-serif" font-size="12" lengthAdjust="spacing" textLength="95" x="186.5" y="855.8">ObjectListHandler</text><line style="stroke:#A80036;stroke-width:1.5;" x1="158.5" x2="283.5" y1="867" y2="867"/><line style="stroke:#A80036;stroke-width:1.5;" x1="158.5" x2="283.5" y1="875" y2="875"/><!--MD5=[1a9c9b8ed36c32d73faf93f48bc25258]
class ActionHandler--><rect fill="#FEFECE" filter="url(#f18wq6hhqr9kqb)" height="48" id="ActionHandler" style="stroke:#A80036;stroke-width:1.5;" width="106" x="370" y="460"/><ellipse cx="385" cy="476" fill="#ADD1B2" rx="11" ry="11" style="stroke:#A80036;stroke-width:1.0;"/><path d="M384.3594,479.7813 Q385.1563,479.7813 385.7188,479.5938 Q386.2969,479.3906 386.5313,479.1719 Q386.7813,478.9375 387.0156,478.75 Q387.2656,478.5469 387.4844,478.5469 Q387.8281,478.5469 388.0781,478.8125 Q388.3438,479.0625 388.3438,479.3906 Q388.3438,480.125 387.1719,480.8125 Q386.0156,481.4844 384.3125,481.4844 Q382.1563,481.4844 380.7344,480.2188 Q379.3125,478.9531 379.3125,477.0156 L379.3125,475.8906 Q379.3125,473.8594 380.6406,472.4844 Q381.9688,471.0938 383.9375,471.0938 Q385.125,471.0938 386.3438,471.6719 L386.5156,471.75 Q386.8125,471.3438 387.2344,471.3438 Q387.7188,471.3438 387.8906,471.6406 Q388.0781,471.9219 388.0781,472.4688 L388.0781,473.8906 Q388.0781,475.0156 387.2344,475.0156 Q386.9219,475.0156 386.7188,474.8438 Q386.5313,474.6719 386.4844,474.5313 Q386.4531,474.375 386.4063,474.1094 Q386.2969,473.5938 385.7813,473.2813 Q385.2656,472.9688 384.8125,472.8906 Q384.375,472.7969 384,472.7969 Q382.7188,472.7969 381.8594,473.6719 Q381.0156,474.5469 381.0156,475.8906 L381.0156,476.9844 Q381.0156,478.2656 381.9219,479.0313 Q382.8281,479.7813 384.3594,479.7813 Z " fill="#000000"/><text fill="#000000" font-family="sans-serif" font-size="12" lengthAdjust="spacing" textLength="74" x="399" y="480.8">ActionHandler</text><line style="stroke:#A80036;stroke-width:1.5;" x1="371" x2="475" y1="492" y2="492"/><line style="stroke:#A80036;stroke-width:1.5;" x1="371" x2="475" y1="500" y2="500"/><!--MD5=[a7fb7b57ca781c6a4b9a475808d7efae]
reverse link IHandler to AbstractHandler--><path codeLine="12" d="M246,115.34 C246,129.19 246,143.65 246,156.87 " fill="none" id="IHandler-backto-AbstractHandler" style="stroke:#A80036;stroke-width:1.0;"/><polygon fill="none" points="239,115.04,246,95.04,253,115.04,239,115.04" style="stroke:#A80036;stroke-width:1.0;"/><!--MD5=[1e1a9f76e335bb6e4b141b5634f6564f]
reverse link AbstractHandler to ListHandler--><path codeLine="13" d="M246,278.47 C246,303.56 246,332.05 246,358 C246,358 246,358 246,610 C246,645.54 257.61,685.36 266.14,709.8 " fill="none" id="AbstractHandler-backto-ListHandler" style="stroke:#A80036;stroke-width:1.0;"/><polygon fill="none" points="239,278.33,246,258.33,253,278.33,239,278.33" style="stroke:#A80036;stroke-width:1.0;"/><!--MD5=[e378d0f5a1852855970ccf5bbfb738ff]
reverse link AbstractHandler to MemberHandler--><path codeLine="14" d="M268.94,277.93 C269.99,281.33 271.02,284.7 272,288 C304.91,398.55 339.02,532.22 352.27,584.99 " fill="none" id="AbstractHandler-backto-MemberHandler" style="stroke:#A80036;stroke-width:1.0;"/><polygon fill="none" points="262.13,279.59,262.78,258.41,275.48,275.37,262.13,279.59" style="stroke:#A80036;stroke-width:1.0;"/><!--MD5=[de4a9ef009c7b38c76d1f8afa542e34c]
reverse link AbstractHandler to ServiceHandler--><path codeLine="15" d="M324.14,240.9 C352.9,254.06 385.22,270.33 413,288 C434.61,301.75 456.89,320.29 473.21,334.83 " fill="none" id="AbstractHandler-backto-ServiceHandler" style="stroke:#A80036;stroke-width:1.0;"/><polygon fill="none" points="321.24,247.27,305.83,232.72,326.95,234.49,321.24,247.27" style="stroke:#A80036;stroke-width:1.0;"/><!--MD5=[4b442c1ce230fecf3cde00f32c933cfd]
reverse link AbstractHandler to DefaultHandler--><path codeLine="16" d="M167.25,229.11 C106.58,250.31 33,290.02 33,358 C33,358 33,358 33,985 C33,1020.54 44.61,1060.36 53.14,1084.8 " fill="none" id="AbstractHandler-backto-DefaultHandler" style="stroke:#A80036;stroke-width:1.0;"/><polygon fill="none" points="165.2,222.42,186.38,222.87,169.54,235.73,165.2,222.42" style="stroke:#A80036;stroke-width:1.0;"/><!--MD5=[b032d7f4ca466463727e12c79a370096]
reverse link AbstractHandler to LayoutHandler--><path codeLine="17" d="M169.68,252.86 C136.04,278.56 104,314.47 104,358 C104,358 104,358 104,860 C104,895.9 118.63,935.3 129.5,959.59 " fill="none" id="AbstractHandler-backto-LayoutHandler" style="stroke:#A80036;stroke-width:1.0;"/><polygon fill="none" points="165.85,246.99,186.19,241.07,173.98,258.39,165.85,246.99" style="stroke:#A80036;stroke-width:1.0;"/><!--MD5=[2afa2609233b453cd4c2684e22e2fc94]
reverse link AbstractHandler to ObjectListHandler--><path codeLine="18" d="M198.76,275.9 C185.68,300.58 175,329.47 175,358 C175,358 175,358 175,735 C175,771.71 193.19,810.89 206.7,834.92 " fill="none" id="AbstractHandler-backto-ObjectListHandler" style="stroke:#A80036;stroke-width:1.0;"/><polygon fill="none" points="192.81,272.2,208.84,258.33,204.96,279.17,192.81,272.2" style="stroke:#A80036;stroke-width:1.0;"/><!--MD5=[5905d95551bd1ca66aa16905076252fa]
reverse link AbstractHandler to ActionHandler--><path codeLine="19" d="M320.62,262.94 C328.79,270.78 336.49,279.19 343,288 C383.58,342.87 407.49,421.29 417.48,459.82 " fill="none" id="AbstractHandler-backto-ActionHandler" style="stroke:#A80036;stroke-width:1.0;"/><polygon fill="none" points="315.82,268.03,305.56,249.49,325.14,257.59,315.82,268.03" style="stroke:#A80036;stroke-width:1.0;"/><!--MD5=[a4a5b3a7d6c003c3d1a274d923e00a94]
link core.Dispatcher to ServiceHandler--><path codeLine="24" d="M498,238.04 C498,264.68 498,303.6 498,329.82 " fill="none" id="core.Dispatcher-to-ServiceHandler" style="stroke:#A80036;stroke-width:1.0;"/><polygon fill="#A80036" points="498,334.89,502,325.89,498,329.89,494,325.89,498,334.89" style="stroke:#A80036;stroke-width:1.0;"/><text fill="#000000" font-family="sans-serif" font-size="13" lengthAdjust="spacing" textLength="49" x="499" y="302">delegate</text><!--MD5=[f6679089ebdf89bdbc81d060be924a03]
link ServiceHandler to ActionHandler--><path codeLine="25" d="M483.89,383.14 C471.37,403.67 453.07,433.69 439.8,455.46 " fill="none" id="ServiceHandler-to-ActionHandler" style="stroke:#A80036;stroke-width:1.0;"/><polygon fill="#A80036" points="437.04,459.97,445.1363,454.362,439.6397,455.699,438.3027,450.2024,437.04,459.97" style="stroke:#A80036;stroke-width:1.0;"/><text fill="#000000" font-family="sans-serif" font-size="13" lengthAdjust="spacing" textLength="57" x="465" y="427">successor</text><!--MD5=[b0316ad5466822f840a489e3ce435aa0]
link ActionHandler to MemberHandler--><path codeLine="26" d="M410.77,508.14 C399.92,528.67 384.06,558.69 372.56,580.46 " fill="none" id="ActionHandler-to-MemberHandler" style="stroke:#A80036;stroke-width:1.0;"/><polygon fill="#A80036" points="370.17,584.97,377.9225,578.8955,372.514,580.5535,370.8561,575.1451,370.17,584.97" style="stroke:#A80036;stroke-width:1.0;"/><text fill="#000000" font-family="sans-serif" font-size="13" lengthAdjust="spacing" textLength="57" x="396" y="552">successor</text><!--MD5=[be0579d02c04d18495a878966b4727c0]
link MemberHandler to ListHandler--><path codeLine="27" d="M342.39,633.14 C328.48,653.75 308.1,683.94 293.4,705.73 " fill="none" id="MemberHandler-to-ListHandler" style="stroke:#A80036;stroke-width:1.0;"/><polygon fill="#A80036" points="290.54,709.97,298.8937,704.7532,293.3398,705.8274,292.2656,700.2735,290.54,709.97" style="stroke:#A80036;stroke-width:1.0;"/><text fill="#000000" font-family="sans-serif" font-size="13" lengthAdjust="spacing" textLength="57" x="323" y="677">successor</text><!--MD5=[6349002bc45643cd2d82a494985549de]
link ListHandler to ObjectListHandler--><path codeLine="28" d="M264.84,758.14 C255.87,778.58 242.76,808.44 233.21,830.18 " fill="none" id="ListHandler-to-ObjectListHandler" style="stroke:#A80036;stroke-width:1.0;"/><polygon fill="#A80036" points="231.11,834.97,238.382,828.3279,233.1141,830.3892,231.0527,825.1213,231.11,834.97" style="stroke:#A80036;stroke-width:1.0;"/><text fill="#000000" font-family="sans-serif" font-size="13" lengthAdjust="spacing" textLength="57" x="253" y="802">successor</text><!--MD5=[9f099e972c57934aec35d8d280dd941f]
link ObjectListHandler to LayoutHandler--><path codeLine="29" d="M205.95,883.14 C192.54,903.75 172.91,933.94 158.74,955.73 " fill="none" id="ObjectListHandler-to-LayoutHandler" style="stroke:#A80036;stroke-width:1.0;"/><polygon fill="#A80036" points="155.98,959.97,164.2457,954.6149,158.7105,955.7814,157.5439,950.2461,155.98,959.97" style="stroke:#A80036;stroke-width:1.0;"/><text fill="#000000" font-family="sans-serif" font-size="13" lengthAdjust="spacing" textLength="57" x="187" y="927">successor</text><!--MD5=[565d4d0f940724c8f3b88f5e7ae3cc0e]
link LayoutHandler to DefaultHandler--><path codeLine="30" d="M126.14,1008.14 C112.9,1028.75 93.51,1058.94 79.52,1080.73 " fill="none" id="LayoutHandler-to-DefaultHandler" style="stroke:#A80036;stroke-width:1.0;"/><polygon fill="#A80036" points="76.79,1084.97,85.0132,1079.5497,79.4873,1080.7599,78.2771,1075.2341,76.79,1084.97" style="stroke:#A80036;stroke-width:1.0;"/><text fill="#000000" font-family="sans-serif" font-size="13" lengthAdjust="spacing" textLength="57" x="108" y="1052">successor</text><!--MD5=[2a91bc65dcb71aac2e3dfd940f21b752]
@startuml
interface IHandler {
    handle()
    canHandle()
    doHandle()
}
abstract class AbstractHandler {
    successor:IHandler
    handle()
    canHandle()
    doHandle()
}
IHandler <|- - AbstractHandler
AbstractHandler <|- - ListHandler
AbstractHandler <|- - MemberHandler
AbstractHandler <|- - ServiceHandler
AbstractHandler <|- - DefaultHandler
AbstractHandler <|- - LayoutHandler
AbstractHandler <|- - ObjectListHandler
AbstractHandler <|- - ActionHandler

class core.Dispatcher {
    delegate:IHandler
}
core.Dispatcher - -> ServiceHandler : delegate
ServiceHandler - -> ActionHandler : successor
ActionHandler - -> MemberHandler : successor
MemberHandler - ->  ListHandler : successor
ListHandler - ->  ObjectListHandler : successor
ObjectListHandler - ->  LayoutHandler : successor
LayoutHandler - ->  DefaultHandler : successor
@enduml

PlantUML version 1.2021.8(Sat Jun 26 08:20:59 GMT 2021)
(GPL source distribution)
Java Runtime: OpenJDK Runtime Environment
JVM: OpenJDK 64-Bit Server VM
Default Encoding: UTF-8
Language: en
Country: US
--></g></svg>