<?xml version="1.0" encoding="UTF-8" standalone="no"?><svg xmlns="http://www.w3.org/2000/svg" xmlns:xlink="http://www.w3.org/1999/xlink" contentScriptType="application/ecmascript" contentStyleType="text/css" height="538px" preserveAspectRatio="none" style="width:1710px;height:538px;" version="1.1" viewBox="0 0 1710 538" width="1710px" zoomAndPan="magnify"><defs><filter height="300%" id="f6y8m7axc4694" width="300%" x="-1" y="-1"><feGaussianBlur result="blurOut" stdDeviation="2.0"/><feColorMatrix in="blurOut" result="blurOut2" type="matrix" values="0 0 0 0 0 0 0 0 0 0 0 0 0 0 0 0 0 0 .4 0"/><feOffset dx="4.0" dy="4.0" in="blurOut2" result="blurOut3"/><feBlend in="SourceGraphic" in2="blurOut3" mode="normal"/></filter></defs><g><!--MD5=[d2242131270c237e071fd8738247fbb8]
cluster FE--><rect fill="#FFFFFF" filter="url(#f6y8m7axc4694)" height="166" style="stroke:#000000;stroke-width:1.5;" width="145" x="97" y="73.8"/><rect fill="#FFFFFF" height="10" style="stroke:#000000;stroke-width:1.5;" width="15" x="222" y="78.8"/><rect fill="#FFFFFF" height="2" style="stroke:#000000;stroke-width:1.5;" width="4" x="220" y="80.8"/><rect fill="#FFFFFF" height="2" style="stroke:#000000;stroke-width:1.5;" width="4" x="220" y="84.8"/><text fill="#000000" font-family="sans-serif" font-size="14" font-style="italic" lengthAdjust="spacing" textLength="95" x="122" y="100.7999">«RO FrontEnd»</text><text fill="#000000" font-family="sans-serif" font-size="14" font-weight="bold" lengthAdjust="spacing" textLength="41" x="149" y="117.5999">kroviz</text><!--MD5=[c37df8c2fa1b5f86dd58dff9a3868e14]
entity EL--><path d="M140,179.8 C140,169.8 179,169.8 179,169.8 C179,169.8 218,169.8 218,179.8 L218,205.5999 C218,215.5999 179,215.5999 179,215.5999 C179,215.5999 140,215.5999 140,205.5999 L140,179.8 " fill="#FEFECE" filter="url(#f6y8m7axc4694)" style="stroke:#000000;stroke-width:1.5;"/><path d="M140,179.8 C140,189.8 179,189.8 179,189.8 C179,189.8 218,189.8 218,179.8 " fill="none" style="stroke:#000000;stroke-width:1.5;"/><text fill="#000000" font-family="sans-serif" font-size="14" lengthAdjust="spacing" textLength="58" x="150" y="207.7999">EventLog</text><!--MD5=[11e5abc0296d2a9544c49e35636d4c40]
entity RE--><polygon fill="#FEFECE" filter="url(#f6y8m7axc4694)" points="403.5,153.8,403.5,232.1998,1448.5,232.1998,1448.5,163.8,1438.5,153.8,403.5,153.8" style="stroke:#000000;stroke-width:1.5;"/><path d="M1438.5,153.8 L1438.5,163.8 L1448.5,163.8 " fill="#FEFECE" style="stroke:#000000;stroke-width:1.5;"/><text fill="#000000" font-family="sans-serif" font-size="14" font-weight="bold" lengthAdjust="spacing" textLength="18" x="417.5" y="196.5999">url</text><text fill="#000000" font-family="sans-serif" font-size="14" font-weight="bold" lengthAdjust="spacing" textLength="96" x="443.5" y="196.5999">[request data]</text><text fill="#000000" font-family="sans-serif" font-size="14" font-weight="bold" lengthAdjust="spacing" textLength="34" x="547.5" y="196.5999">state</text><text fill="#000000" font-family="sans-serif" font-size="14" font-weight="bold" lengthAdjust="spacing" textLength="64" x="589.5" y="196.5999">response</text><text fill="#000000" font-family="sans-serif" font-size="14" lengthAdjust="spacing" textLength="0" x="661.5" y="196.5999"/><text fill="#000000" font-family="sans-serif" font-size="14" lengthAdjust="spacing" textLength="0" x="661.5" y="213.3998"/><text fill="#000000" font-family="sans-serif" font-size="14" lengthAdjust="spacing" textLength="168" x="665.5" y="196.5999">http://localhost:8080/restful</text><text fill="#000000" font-family="sans-serif" font-size="14" lengthAdjust="spacing" textLength="41" x="841.5" y="196.5999">uid/pw</text><text fill="#000000" font-family="sans-serif" font-size="14" lengthAdjust="spacing" textLength="66" x="890.5" y="196.5999">SUCCESS</text><text fill="#000000" font-family="sans-serif" font-size="14" lengthAdjust="spacing" textLength="53" x="964.5" y="196.5999">{jsonStr}</text><text fill="#000000" font-family="sans-serif" font-size="14" lengthAdjust="spacing" textLength="0" x="1025.5" y="196.5999"/><text fill="#000000" font-family="sans-serif" font-size="14" lengthAdjust="spacing" textLength="0" x="1025.5" y="213.3998"/><text fill="#000000" font-family="sans-serif" font-size="14" lengthAdjust="spacing" textLength="234" x="1029.5" y="196.5999">http://localhost:8080/restful/menubars</text><text fill="#000000" font-family="sans-serif" font-size="14" lengthAdjust="spacing" textLength="20" x="1271.5" y="196.5999">n/a</text><text fill="#000000" font-family="sans-serif" font-size="14" lengthAdjust="spacing" textLength="50" x="1299.5" y="196.5999">ERROR</text><text fill="#000000" font-family="sans-serif" font-size="14" lengthAdjust="spacing" textLength="71" x="1357.5" y="196.5999">{another js}</text><line style="stroke:#000000;stroke-width:1.5;" x1="413.5" x2="1432.5" y1="182.5999" y2="182.5999"/><line style="stroke:#000000;stroke-width:1.5;" x1="413.5" x2="1432.5" y1="216.1998" y2="216.1998"/><line style="stroke:#000000;stroke-width:1.5;" x1="413.5" x2="413.5" y1="182.5999" y2="216.1998"/><line style="stroke:#000000;stroke-width:1.5;" x1="439.5" x2="439.5" y1="182.5999" y2="216.1998"/><line style="stroke:#000000;stroke-width:1.5;" x1="543.5" x2="543.5" y1="182.5999" y2="216.1998"/><line style="stroke:#000000;stroke-width:1.5;" x1="585.5" x2="585.5" y1="182.5999" y2="216.1998"/><line style="stroke:#000000;stroke-width:1.5;" x1="657.5" x2="657.5" y1="182.5999" y2="216.1998"/><line style="stroke:#000000;stroke-width:1.5;" x1="661.5" x2="661.5" y1="182.5999" y2="216.1998"/><line style="stroke:#000000;stroke-width:1.5;" x1="837.5" x2="837.5" y1="182.5999" y2="216.1998"/><line style="stroke:#000000;stroke-width:1.5;" x1="886.5" x2="886.5" y1="182.5999" y2="216.1998"/><line style="stroke:#000000;stroke-width:1.5;" x1="960.5" x2="960.5" y1="182.5999" y2="216.1998"/><line style="stroke:#000000;stroke-width:1.5;" x1="1021.5" x2="1021.5" y1="182.5999" y2="216.1998"/><line style="stroke:#000000;stroke-width:1.5;" x1="1025.5" x2="1025.5" y1="182.5999" y2="216.1998"/><line style="stroke:#000000;stroke-width:1.5;" x1="1267.5" x2="1267.5" y1="182.5999" y2="216.1998"/><line style="stroke:#000000;stroke-width:1.5;" x1="1295.5" x2="1295.5" y1="182.5999" y2="216.1998"/><line style="stroke:#000000;stroke-width:1.5;" x1="1353.5" x2="1353.5" y1="182.5999" y2="216.1998"/><line style="stroke:#000000;stroke-width:1.5;" x1="1432.5" x2="1432.5" y1="182.5999" y2="216.1998"/><line style="stroke:#000000;stroke-width:1.0;stroke-dasharray:1.0,2.0;" x1="404.5" x2="851.5" y1="172.2" y2="172.2"/><text fill="#000000" font-family="sans-serif" font-size="14" lengthAdjust="spacing" textLength="149" x="851.5" y="177.2999">(Sample) Replay Events</text><line style="stroke:#000000;stroke-width:1.0;stroke-dasharray:1.0,2.0;" x1="1000.5" x2="1447.5" y1="172.2" y2="172.2"/><!--MD5=[cb29a752e8bd9ff083cca7770c370a33]
entity DRT--><rect fill="#FEFECE" filter="url(#f6y8m7axc4694)" height="80.3998" style="stroke:#A80036;stroke-width:1.5;" width="113" x="1516.5" y="152.8"/><rect fill="#FEFECE" height="10" style="stroke:#A80036;stroke-width:1.5;" width="15" x="1609.5" y="157.8"/><rect fill="#FEFECE" height="2" style="stroke:#A80036;stroke-width:1.5;" width="4" x="1607.5" y="159.8"/><rect fill="#FEFECE" height="2" style="stroke:#A80036;stroke-width:1.5;" width="4" x="1607.5" y="163.8"/><text fill="#000000" font-family="sans-serif" font-size="14" lengthAdjust="spacing" textLength="35" x="1531.5" y="186.7999">Demo</text><text fill="#000000" font-family="sans-serif" font-size="14" lengthAdjust="spacing" textLength="69" x="1531.5" y="203.5999">Regression</text><text fill="#000000" font-family="sans-serif" font-size="14" lengthAdjust="spacing" textLength="27" x="1531.5" y="220.3998">Test</text><!--MD5=[6ae0ad3fca144316621ac535abd7bcd7]
entity  --><ellipse cx="19" cy="169.8" fill="#FEFECE" filter="url(#f6y8m7axc4694)" rx="8" ry="8" style="stroke:#A80036;stroke-width:1.5;"/><path d="M19,177.8 L19,204.8 M6,185.8 L32,185.8 M19,204.8 L6,219.8 M19,204.8 L32,219.8 " fill="none" filter="url(#f6y8m7axc4694)" style="stroke:#A80036;stroke-width:1.5;"/><path d="M113,319.3 L113,376.1 A0,0 0 0 0 113,376.1 L245,376.1 A0,0 0 0 0 245,376.1 L245,329.3 L235,319.3 L183,319.3 L179,216.05 L175,319.3 L113,319.3 A0,0 0 0 0 113,319.3 " fill="#FBFB77" filter="url(#f6y8m7axc4694)" style="stroke:#A80036;stroke-width:1.0;"/><path d="M235,319.3 L235,329.3 L245,329.3 L235,319.3 " fill="#FBFB77" style="stroke:#A80036;stroke-width:1.0;"/><text fill="#000000" font-family="sans-serif" font-size="13" lengthAdjust="spacing" textLength="62" x="119" y="337.3">Req./Resp.</text><text fill="#000000" font-family="sans-serif" font-size="13" lengthAdjust="spacing" textLength="70" x="119" y="352.9">as well as UI</text><text fill="#000000" font-family="sans-serif" font-size="13" lengthAdjust="spacing" textLength="111" x="119" y="368.5">events are recorded</text><!--MD5=[cd187d11655e4367e900de538d2f1d0c]
entity APP--><rect fill="#FEFECE" filter="url(#f6y8m7axc4694)" height="63.5999" style="stroke:#A80036;stroke-width:1.5;" width="102" x="266" y="160.8"/><rect fill="#FEFECE" height="10" style="stroke:#A80036;stroke-width:1.5;" width="15" x="348" y="165.8"/><rect fill="#FEFECE" height="2" style="stroke:#A80036;stroke-width:1.5;" width="4" x="346" y="167.8"/><rect fill="#FEFECE" height="2" style="stroke:#A80036;stroke-width:1.5;" width="4" x="346" y="171.8"/><text fill="#000000" font-family="sans-serif" font-size="14" font-style="italic" lengthAdjust="spacing" textLength="62" x="281" y="194.7999">«RO App»</text><text fill="#000000" font-family="sans-serif" font-size="14" lengthAdjust="spacing" textLength="35" x="294.5" y="211.5999">Demo</text><!--MD5=[fb4a08e111f2163e9179077dacc52f93]
entity FW--><rect fill="#FEFECE" filter="url(#f6y8m7axc4694)" height="63.5999" style="stroke:#A80036;stroke-width:1.5;" width="170" x="360" y="460.8"/><rect fill="#FEFECE" height="10" style="stroke:#A80036;stroke-width:1.5;" width="15" x="510" y="465.8"/><rect fill="#FEFECE" height="2" style="stroke:#A80036;stroke-width:1.5;" width="4" x="508" y="467.8"/><rect fill="#FEFECE" height="2" style="stroke:#A80036;stroke-width:1.5;" width="4" x="508" y="471.8"/><text fill="#000000" font-family="sans-serif" font-size="14" font-style="italic" lengthAdjust="spacing" textLength="130" x="375" y="494.7999">«Naked Objects FW»</text><text fill="#000000" font-family="sans-serif" font-size="14" lengthAdjust="spacing" textLength="72" x="404" y="511.5999">Apache Isis</text><path d="M1444.5,295.8 L1444.5,399.4001 A0,0 0 0 0 1444.5,399.4001 L1701.5,399.4001 A0,0 0 0 0 1701.5,399.4001 L1701.5,305.8 L1691.5,295.8 L1577,295.8 L1573,232.8 L1569,295.8 L1444.5,295.8 A0,0 0 0 0 1444.5,295.8 " fill="#FBFB77" filter="url(#f6y8m7axc4694)" style="stroke:#A80036;stroke-width:1.0;"/><path d="M1691.5,295.8 L1691.5,305.8 L1701.5,305.8 L1691.5,295.8 " fill="#FBFB77" style="stroke:#A80036;stroke-width:1.0;"/><text fill="#000000" font-family="sans-serif" font-size="13" lengthAdjust="spacing" textLength="235" x="1450.5" y="313.8">Event Log Entries are replayed during test.</text><text fill="#000000" font-family="sans-serif" font-size="13" lengthAdjust="spacing" textLength="236" x="1450.5" y="329.4">Expected/actual responses are compared.</text><text fill="#000000" font-family="sans-serif" font-size="13" lengthAdjust="spacing" textLength="0" x="1453.5" y="345"/><text fill="#000000" font-family="sans-serif" font-size="13" lengthAdjust="spacing" textLength="85" x="1450.5" y="360.6001">Events in state:</text><ellipse cx="1456" cy="371.3001" fill="#000000" rx="2.5" ry="2.5" style="stroke:#000000;stroke-width:0.0;"/><text fill="#000000" font-family="sans-serif" font-size="13" lengthAdjust="spacing" textLength="189" x="1462.5" y="376.2001">SUCCESS -&gt; expected == actual</text><ellipse cx="1456" cy="386.9001" fill="#000000" rx="2.5" ry="2.5" style="stroke:#000000;stroke-width:0.0;"/><text fill="#000000" font-family="sans-serif" font-size="13" lengthAdjust="spacing" textLength="168" x="1462.5" y="391.8001">ERROR -&gt; expected != actual</text><path d="M546,327.3 L546,368.5 A0,0 0 0 0 546,368.5 L560.96,368.5 L475.26,460.67 L568.96,368.5 L622,368.5 A0,0 0 0 0 622,368.5 L622,337.3 L612,327.3 L546,327.3 A0,0 0 0 0 546,327.3 " fill="#FBFB77" filter="url(#f6y8m7axc4694)" style="stroke:#A80036;stroke-width:1.0;"/><path d="M612,327.3 L612,337.3 L622,337.3 L612,327.3 " fill="#FBFB77" style="stroke:#A80036;stroke-width:1.0;"/><text fill="#000000" font-family="sans-serif" font-size="13" lengthAdjust="spacing" textLength="55" x="552" y="345.3">additional</text><text fill="#000000" font-family="sans-serif" font-size="13" lengthAdjust="spacing" textLength="52" x="552" y="360.9">coverage</text><path d="M379.5,327.3 L379.5,368.5 L510.5,368.5 L510.5,337.3 L500.5,327.3 L379.5,327.3 " fill="#FBFB77" filter="url(#f6y8m7axc4694)" style="stroke:#A80036;stroke-width:1.0;"/><path d="M500.5,327.3 L500.5,337.3 L510.5,337.3 L500.5,327.3 " fill="#FBFB77" style="stroke:#A80036;stroke-width:1.0;"/><text fill="#000000" font-family="sans-serif" font-size="13" lengthAdjust="spacing" textLength="110" x="385.5" y="345.3">Regressions can be</text><text fill="#000000" font-family="sans-serif" font-size="13" lengthAdjust="spacing" textLength="89" x="385.5" y="360.9">caused in either</text><!--MD5=[044d05b892026c564542e04e71cdfcae]
link   to FE--><path d="M33.59,192.8 C45.09,192.8 61.5,192.8 75.69,192.8 C82.785,192.8 89.325,192.8 94.4187,192.8 C95.0555,192.8 95.6696,192.8 96.2594,192.8 C96.4068,192.8 96.5527,192.8 96.6971,192.8 C96.7693,192.8 96.8411,192.8 96.9125,192.8 " fill="none" id=" -to-FE" style="stroke:#A80036;stroke-width:1.0;"/><polygon fill="#A80036" points="96.9125,192.8,87.9125,188.8,91.9125,192.8,87.9125,196.8,96.9125,192.8" style="stroke:#A80036;stroke-width:1.0;"/><text fill="#000000" font-family="sans-serif" font-size="13" lengthAdjust="spacing" textLength="35" x="51.57" y="186.8">action</text><!--MD5=[fbb8d5fa8a9feca13177321b4678f474]
link FE to EL--><path d="M105.58,192.8 C115.35,192.8 125.12,192.8 134.89,192.8 " fill="none" id="FE-to-EL" style="stroke:#A80036;stroke-width:1.0;"/><polygon fill="#A80036" points="139.99,192.8,130.99,188.8,134.99,192.8,130.99,196.8,139.99,192.8" style="stroke:#A80036;stroke-width:1.0;"/><!--MD5=[2c760634608609d01a798da024c32d51]
link FE to APP--><path d="M119.9947,73.5862 C120.1352,73.44 120.2765,73.2945 120.4187,73.1496 C121.5564,71.9902 122.7494,70.8725 124,69.8 C161.11,37.98 190.83,46.85 234,69.8 C268.01,87.88 290.6,126.79 303.51,156.04 " fill="none" id="FE-APP" style="stroke:#A80036;stroke-width:1.0;"/><polygon fill="#A80036" points="305.5,160.64,305.5943,150.7916,303.5132,156.0517,298.2531,153.9705,305.5,160.64" style="stroke:#A80036;stroke-width:1.0;"/><polygon fill="#A80036" points="119.9947,73.5862,129.1147,69.8679,123.4589,69.9808,123.346,64.3251,119.9947,73.5862" style="stroke:#A80036;stroke-width:1.0;"/><text fill="#000000" font-family="sans-serif" font-size="13" lengthAdjust="spacing" textLength="103" x="133.5" y="46.8">request / response</text><!--MD5=[37ca614c21ecc4e03f38dc516ec979d6]
link APP to FW--><path d="M312.43,224.81 C307.73,267 304.72,343.64 334,399.8 C346.09,423 366.82,442.59 387.11,457.66 " fill="none" id="APP-to-FW" style="stroke:#A80036;stroke-width:1.0;"/><polygon fill="#A80036" points="391.16,460.61,386.2376,452.0794,387.1176,457.6674,381.5296,458.5474,391.16,460.61" style="stroke:#A80036;stroke-width:1.0;"/><text fill="#000000" font-family="sans-serif" font-size="13" lengthAdjust="spacing" textLength="26" x="335" y="353.3">uses</text><!--MD5=[83c5898c77d344dea07ae0f2b5cb3be3]
link EL to RE--><path d="M183.25,169.65 C191.55,132.62 213.91,62.26 266.5,42.8 C365.98,6 653.5,95.85 814.12,151.91 " fill="none" id="EL-to-RE" style="stroke:#A80036;stroke-width:1.0;"/><polygon fill="#A80036" points="819.3,153.73,812.1112,146.9979,814.5769,152.0891,809.4857,154.5548,819.3,153.73" style="stroke:#A80036;stroke-width:1.0;"/><text fill="#000000" font-family="sans-serif" font-size="13" lengthAdjust="spacing" textLength="35" x="761.4006" y="143.1621">export</text><!--MD5=[e6ed755eced7106e72aa480df7c9ef45]
reverse link RE to DRT--><path d="M1453.74,192.8 C1477.47,192.8 1498.72,192.8 1516.47,192.8 " fill="none" id="RE-backto-DRT" style="stroke:#A80036;stroke-width:1.0;"/><polygon fill="#A80036" points="1448.63,192.8,1457.63,196.8,1453.63,192.8,1457.63,188.8,1448.63,192.8" style="stroke:#A80036;stroke-width:1.0;"/><text fill="#000000" font-family="sans-serif" font-size="13" lengthAdjust="spacing" textLength="31" x="1467" y="186.8">reads</text><!--MD5=[5ea144c57fb525e20369093d1f53f308]
link DRT to APP--><path d="M1550.97,152.77 C1532.51,123.76 1503.22,86.75 1466,69.8 C1411.45,44.95 438.82,39.67 387,69.8 C355.48,88.13 336.98,126.55 327,155.6 " fill="none" id="DRT-to-APP" style="stroke:#A80036;stroke-width:1.0;"/><polygon fill="#A80036" points="325.35,160.54,331.9776,153.2548,326.9226,155.7937,324.3836,150.7387,325.35,160.54" style="stroke:#A80036;stroke-width:1.0;"/><text fill="#000000" font-family="sans-serif" font-size="13" lengthAdjust="spacing" textLength="34" x="925" y="46.8">replay</text><text fill="#000000" font-family="sans-serif" font-size="13" lengthAdjust="spacing" textLength="43" x="1500.2162" y="142.3216">invokes</text><text fill="#000000" font-family="sans-serif" font-size="13" lengthAdjust="spacing" textLength="44" x="278.5347" y="150.4427">RO API</text><!--MD5=[e01b7f7586d9d51e2af1bb984dcd3f4c]
link APP to NREG--><path d="M343.21,225.13 C368.81,255.73 406.98,301.35 428.57,327.16 " fill="none" id="APP-NREG" style="stroke:#A80036;stroke-width:1.0;stroke-dasharray:7.0,7.0;"/><!--MD5=[08c403ccfe222087d529d28b9c140709]
link NREG to FW--><path d="M445,368.38 C445,392.17 445,432.6 445,460.67 " fill="none" id="NREG-FW" style="stroke:#A80036;stroke-width:1.0;stroke-dasharray:7.0,7.0;"/><!--MD5=[c811506d22983d9d92ddb9262d265456]
@startuml
: : -> FE : action

component kroviz <<RO FrontEnd>> as FE {
    database EventLog as EL
    FE -> EL
}

note bottom of EL
Req./Resp.
as well as UI
events are recorded
end note

component Demo <<RO App>> as APP
FE <-> APP : request / response

component "Apache Isis" <<Naked Objects FW>> as FW
APP -> FW : uses


together {
    file RE as "
    .. (Sample) Replay Events..
    |= url |= [request data] |= state |= response |\n| http://localhost:8080/restful | uid/pw | SUCCESS | {jsonStr} |\n| http://localhost:8080/restful/menubars | n/a | ERROR | {another js} |
    "
    component "Demo \nRegression \nTest" as DRT
}
EL ->"export" RE


RE <- DRT : reads
DRT "invokes"->"RO API" APP : replay

note bottom of DRT
Event Log Entries are replayed during test.
Expected/actual responses are compared.

Events in state:
* SUCCESS -> expected == actual
* ERROR -> expected != actual
end note

note top of FW
additional
coverage
end note

note as NREG
Regressions can be
caused in either
end note
APP .. NREG
NREG .. FW
@enduml

PlantUML version 1.2021.00(Sun Jan 10 10:25:05 GMT 2021)
(GPL source distribution)
Java Runtime: OpenJDK Runtime Environment
JVM: OpenJDK 64-Bit Server VM
Default Encoding: UTF-8
Language: en
Country: US
--></g></svg>