<?xml version="1.0" encoding="UTF-8" standalone="no"?><svg xmlns="http://www.w3.org/2000/svg" xmlns:xlink="http://www.w3.org/1999/xlink" contentScriptType="application/ecmascript" contentStyleType="text/css" height="1336px" preserveAspectRatio="none" style="width:1134px;height:1336px;" version="1.1" viewBox="0 0 1134 1336" width="1134px" zoomAndPan="magnify"><defs><filter height="300%" id="ftvr3dt1f9ady" width="300%" x="-1" y="-1"><feGaussianBlur result="blurOut" stdDeviation="2.0"/><feColorMatrix in="blurOut" result="blurOut2" type="matrix" values="0 0 0 0 0 0 0 0 0 0 0 0 0 0 0 0 0 0 .4 0"/><feOffset dx="4.0" dy="4.0" in="blurOut2" result="blurOut3"/><feBlend in="SourceGraphic" in2="blurOut3" mode="normal"/></filter></defs><g><!--MD5=[c429691f2fe3ffc642d3e6ed879a8b4b]
cluster remote--><polygon fill="#FFFFFF" filter="url(#ftvr3dt1f9ady)" points="845,120,855,110,1117,110,1117,380.5,1107,390.5,845,390.5,845,120" style="stroke:#000000;stroke-width:1.5;"/><line style="stroke:#000000;stroke-width:1.5;" x1="1107" x2="1117" y1="120" y2="110"/><line style="stroke:#000000;stroke-width:1.5;" x1="845" x2="1107" y1="120" y2="120"/><line style="stroke:#000000;stroke-width:1.5;" x1="1107" x2="1107" y1="120" y2="390.5"/><text fill="#000000" font-family="sans-serif" font-size="14" font-weight="bold" lengthAdjust="spacing" textLength="48" x="953" y="136.9999">remote</text><!--MD5=[ffd769195028dd438823d2edcff41d80]
cluster to--><polygon fill="#FFFFFF" filter="url(#ftvr3dt1f9ady)" points="16,789.5,36,789.5,43,812.2999,500,812.2999,500,1329.5,16,1329.5,16,789.5" style="stroke:#000000;stroke-width:1.5;"/><line style="stroke:#000000;stroke-width:1.5;" x1="16" x2="43" y1="812.2999" y2="812.2999"/><text fill="#000000" font-family="sans-serif" font-size="14" font-weight="bold" lengthAdjust="spacing" textLength="14" x="20" y="805.4999">to</text><!--MD5=[ccc460d39f96760bc67bdadf7a404591]
cluster to.layout--><polygon fill="#FFFFFF" filter="url(#ftvr3dt1f9ady)" points="551,1100.5,617,1100.5,624,1123.2999,651,1123.2999,651,1218.5,551,1218.5,551,1100.5" style="stroke:#000000;stroke-width:1.5;"/><line style="stroke:#000000;stroke-width:1.5;" x1="551" x2="624" y1="1123.2999" y2="1123.2999"/><text fill="#000000" font-family="sans-serif" font-size="14" font-weight="bold" lengthAdjust="spacing" textLength="60" x="555" y="1116.4999">to.layout</text><!--MD5=[5f5aa3eac08eb7d12d88ffe0016b5131]
class RestfulObjects--><rect codeLine="41" fill="#FEFECE" filter="url(#ftvr3dt1f9ady)" height="48" id="RestfulObjects" style="stroke:#A80036;stroke-width:1.5;" width="110" x="862" y="174"/><ellipse cx="877" cy="190" fill="#B4A7E5" rx="11" ry="11" style="stroke:#A80036;stroke-width:1.0;"/><path d="M879.6719,193.2969 Q880.2188,193.2969 880.5,193.4844 Q880.7813,193.6563 880.7813,194.1563 Q880.7813,195 879.6719,195 L874.5313,195 Q873.4063,195 873.4063,194.1563 Q873.4063,193.6563 873.6875,193.4844 Q873.9844,193.2969 874.5313,193.2969 L876.25,193.2969 L876.25,186.7813 L874.5313,186.7813 Q873.4063,186.7813 873.4063,185.9375 Q873.4063,185.4531 873.6875,185.2813 Q873.9844,185.0938 874.5313,185.0938 L879.6719,185.0938 Q880.2188,185.0938 880.5,185.2813 Q880.7813,185.4531 880.7813,185.9375 Q880.7813,186.7813 879.6719,186.7813 L877.9531,186.7813 L877.9531,193.2969 L879.6719,193.2969 Z " fill="#000000"/><text fill="#000000" font-family="sans-serif" font-size="12" font-style="italic" lengthAdjust="spacing" textLength="78" x="891" y="194.8">RestfulObjects</text><line style="stroke:#A80036;stroke-width:1.5;" x1="863" x2="971" y1="206" y2="206"/><line style="stroke:#A80036;stroke-width:1.5;" x1="863" x2="971" y1="214" y2="214"/><!--MD5=[6e6ce35054dfdc08bc5a651d5a81235c]
class ApacheIsis--><rect codeLine="42" fill="#FEFECE" filter="url(#ftvr3dt1f9ady)" height="54.8002" id="ApacheIsis" style="stroke:#A80036;stroke-width:1.5;" width="98" x="861" y="319.5"/><ellipse cx="876" cy="338.9001" fill="#FF7700" rx="11" ry="11" style="stroke:#A80036;stroke-width:1.0;"/><path d="M876.9531,342.5564 Q876.9531,342.0564 877.2344,341.8845 Q877.5313,341.697 878.0781,341.697 L878.4688,341.697 L878.0781,340.7126 L874.0313,340.7126 L873.6406,341.697 L874.0313,341.697 Q875.1406,341.697 875.1406,342.5564 Q875.1406,343.4001 874.0313,343.4001 L871.7656,343.4001 Q870.6406,343.4001 870.6406,342.5564 Q870.6406,342.0407 870.9375,341.8689 Q871.2344,341.697 871.7813,341.697 L874.4219,335.1814 L873.3438,335.1814 Q872.2031,335.1814 872.2031,334.3376 Q872.2031,333.822 872.5,333.6657 Q872.7969,333.4939 873.3438,333.4939 L877.0156,333.4939 L880.4063,341.697 Q881.5625,341.697 881.5625,342.5564 Q881.5625,343.4001 880.4375,343.4001 L878.0781,343.4001 Q876.9531,343.4001 876.9531,342.5564 Z M877.375,339.0095 L876.0469,335.7439 L874.7031,339.0095 L877.375,339.0095 Z " fill="#000000"/><text fill="#000000" font-family="sans-serif" font-size="12" font-style="italic" lengthAdjust="spacing" textLength="70" x="888" y="336.5001">«Application»</text><text fill="#000000" font-family="sans-serif" font-size="12" lengthAdjust="spacing" textLength="58" x="894" y="350.9002">ApacheIsis</text><line style="stroke:#A80036;stroke-width:1.5;" x1="862" x2="958" y1="358.3002" y2="358.3002"/><line style="stroke:#A80036;stroke-width:1.5;" x1="862" x2="958" y1="366.3002" y2="366.3002"/><!--MD5=[3065a834c1969130b06cda341c336231]
class NakedObjects--><rect codeLine="43" fill="#FEFECE" filter="url(#ftvr3dt1f9ady)" height="54.8002" id="NakedObjects" style="stroke:#A80036;stroke-width:1.5;" width="107" x="994.5" y="319.5"/><ellipse cx="1009.5" cy="338.9001" fill="#FF7700" rx="11" ry="11" style="stroke:#A80036;stroke-width:1.0;"/><path d="M1010.4531,342.5564 Q1010.4531,342.0564 1010.7344,341.8845 Q1011.0313,341.697 1011.5781,341.697 L1011.9688,341.697 L1011.5781,340.7126 L1007.5313,340.7126 L1007.1406,341.697 L1007.5313,341.697 Q1008.6406,341.697 1008.6406,342.5564 Q1008.6406,343.4001 1007.5313,343.4001 L1005.2656,343.4001 Q1004.1406,343.4001 1004.1406,342.5564 Q1004.1406,342.0407 1004.4375,341.8689 Q1004.7344,341.697 1005.2813,341.697 L1007.9219,335.1814 L1006.8438,335.1814 Q1005.7031,335.1814 1005.7031,334.3376 Q1005.7031,333.822 1006,333.6657 Q1006.2969,333.4939 1006.8438,333.4939 L1010.5156,333.4939 L1013.9063,341.697 Q1015.0625,341.697 1015.0625,342.5564 Q1015.0625,343.4001 1013.9375,343.4001 L1011.5781,343.4001 Q1010.4531,343.4001 1010.4531,342.5564 Z M1010.875,339.0095 L1009.5469,335.7439 L1008.2031,339.0095 L1010.875,339.0095 Z " fill="#000000"/><text fill="#000000" font-family="sans-serif" font-size="12" font-style="italic" lengthAdjust="spacing" textLength="70" x="1026" y="336.5001">«Application»</text><text fill="#000000" font-family="sans-serif" font-size="12" lengthAdjust="spacing" textLength="75" x="1023.5" y="350.9002">NakedObjects</text><line style="stroke:#A80036;stroke-width:1.5;" x1="995.5" x2="1100.5" y1="358.3002" y2="358.3002"/><line style="stroke:#A80036;stroke-width:1.5;" x1="995.5" x2="1100.5" y1="366.3002" y2="366.3002"/><!--MD5=[48b56ac2df9be209c01ca851021fb6e4]
class to.Link--><rect fill="#FEFECE" filter="url(#ftvr3dt1f9ady)" height="48" id="to.Link" style="stroke:#A80036;stroke-width:1.5;" width="54" x="403" y="985.5"/><ellipse cx="418" cy="1001.5" fill="#ADD1B2" rx="11" ry="11" style="stroke:#A80036;stroke-width:1.0;"/><path d="M417.3594,1005.2813 Q418.1563,1005.2813 418.7188,1005.0938 Q419.2969,1004.8906 419.5313,1004.6719 Q419.7813,1004.4375 420.0156,1004.25 Q420.2656,1004.0469 420.4844,1004.0469 Q420.8281,1004.0469 421.0781,1004.3125 Q421.3438,1004.5625 421.3438,1004.8906 Q421.3438,1005.625 420.1719,1006.3125 Q419.0156,1006.9844 417.3125,1006.9844 Q415.1563,1006.9844 413.7344,1005.7188 Q412.3125,1004.4531 412.3125,1002.5156 L412.3125,1001.3906 Q412.3125,999.3594 413.6406,997.9844 Q414.9688,996.5938 416.9375,996.5938 Q418.125,996.5938 419.3438,997.1719 L419.5156,997.25 Q419.8125,996.8438 420.2344,996.8438 Q420.7188,996.8438 420.8906,997.1406 Q421.0781,997.4219 421.0781,997.9688 L421.0781,999.3906 Q421.0781,1000.5156 420.2344,1000.5156 Q419.9219,1000.5156 419.7188,1000.3438 Q419.5313,1000.1719 419.4844,1000.0313 Q419.4531,999.875 419.4063,999.6094 Q419.2969,999.0938 418.7813,998.7813 Q418.2656,998.4688 417.8125,998.3906 Q417.375,998.2969 417,998.2969 Q415.7188,998.2969 414.8594,999.1719 Q414.0156,1000.0469 414.0156,1001.3906 L414.0156,1002.4844 Q414.0156,1003.7656 414.9219,1004.5313 Q415.8281,1005.2813 417.3594,1005.2813 Z " fill="#000000"/><text fill="#000000" font-family="sans-serif" font-size="12" lengthAdjust="spacing" textLength="22" x="432" y="1006.3">Link</text><line style="stroke:#A80036;stroke-width:1.5;" x1="404" x2="456" y1="1017.5" y2="1017.5"/><line style="stroke:#A80036;stroke-width:1.5;" x1="404" x2="456" y1="1025.5" y2="1025.5"/><!--MD5=[88fc8b85a12edaa5dd811294722453b2]
class to.Extensions--><rect fill="#FEFECE" filter="url(#ftvr3dt1f9ady)" height="48" id="to.Extensions" style="stroke:#A80036;stroke-width:1.5;" width="88" x="396" y="1154.5"/><ellipse cx="411" cy="1170.5" fill="#ADD1B2" rx="11" ry="11" style="stroke:#A80036;stroke-width:1.0;"/><path d="M410.3594,1174.2813 Q411.1563,1174.2813 411.7188,1174.0938 Q412.2969,1173.8906 412.5313,1173.6719 Q412.7813,1173.4375 413.0156,1173.25 Q413.2656,1173.0469 413.4844,1173.0469 Q413.8281,1173.0469 414.0781,1173.3125 Q414.3438,1173.5625 414.3438,1173.8906 Q414.3438,1174.625 413.1719,1175.3125 Q412.0156,1175.9844 410.3125,1175.9844 Q408.1563,1175.9844 406.7344,1174.7188 Q405.3125,1173.4531 405.3125,1171.5156 L405.3125,1170.3906 Q405.3125,1168.3594 406.6406,1166.9844 Q407.9688,1165.5938 409.9375,1165.5938 Q411.125,1165.5938 412.3438,1166.1719 L412.5156,1166.25 Q412.8125,1165.8438 413.2344,1165.8438 Q413.7188,1165.8438 413.8906,1166.1406 Q414.0781,1166.4219 414.0781,1166.9688 L414.0781,1168.3906 Q414.0781,1169.5156 413.2344,1169.5156 Q412.9219,1169.5156 412.7188,1169.3438 Q412.5313,1169.1719 412.4844,1169.0313 Q412.4531,1168.875 412.4063,1168.6094 Q412.2969,1168.0938 411.7813,1167.7813 Q411.2656,1167.4688 410.8125,1167.3906 Q410.375,1167.2969 410,1167.2969 Q408.7188,1167.2969 407.8594,1168.1719 Q407.0156,1169.0469 407.0156,1170.3906 L407.0156,1171.4844 Q407.0156,1172.7656 407.9219,1173.5313 Q408.8281,1174.2813 410.3594,1174.2813 Z " fill="#000000"/><text fill="#000000" font-family="sans-serif" font-size="12" lengthAdjust="spacing" textLength="56" x="425" y="1175.3">Extensions</text><line style="stroke:#A80036;stroke-width:1.5;" x1="397" x2="483" y1="1186.5" y2="1186.5"/><line style="stroke:#A80036;stroke-width:1.5;" x1="397" x2="483" y1="1194.5" y2="1194.5"/><!--MD5=[d2875fcdac0f9e41334b834345d959ac]
class to.Linked--><rect codeLine="55" fill="#FEFECE" filter="url(#ftvr3dt1f9ady)" height="61.1999" id="to.Linked" style="stroke:#A80036;stroke-width:1.5;" width="68" x="276" y="843.5"/><ellipse cx="291" cy="859.5" fill="#B4A7E5" rx="11" ry="11" style="stroke:#A80036;stroke-width:1.0;"/><path d="M293.6719,862.7969 Q294.2188,862.7969 294.5,862.9844 Q294.7813,863.1563 294.7813,863.6563 Q294.7813,864.5 293.6719,864.5 L288.5313,864.5 Q287.4063,864.5 287.4063,863.6563 Q287.4063,863.1563 287.6875,862.9844 Q287.9844,862.7969 288.5313,862.7969 L290.25,862.7969 L290.25,856.2813 L288.5313,856.2813 Q287.4063,856.2813 287.4063,855.4375 Q287.4063,854.9531 287.6875,854.7813 Q287.9844,854.5938 288.5313,854.5938 L293.6719,854.5938 Q294.2188,854.5938 294.5,854.7813 Q294.7813,854.9531 294.7813,855.4375 Q294.7813,856.2813 293.6719,856.2813 L291.9531,856.2813 L291.9531,862.7969 L293.6719,862.7969 Z " fill="#000000"/><text fill="#000000" font-family="sans-serif" font-size="12" font-style="italic" lengthAdjust="spacing" textLength="36" x="305" y="864.3">Linked</text><line style="stroke:#A80036;stroke-width:1.5;" x1="277" x2="343" y1="875.5" y2="875.5"/><text fill="#000000" font-family="sans-serif" font-size="11" lengthAdjust="spacing" textLength="50" x="282" y="890.4999">links:Link[]</text><line style="stroke:#A80036;stroke-width:1.5;" x1="277" x2="343" y1="896.6999" y2="896.6999"/><!--MD5=[1858d48b4b7ae0517ff3774fd6a6bbfd]
class to.Result--><rect fill="#FEFECE" filter="url(#ftvr3dt1f9ady)" height="48" id="to.Result" style="stroke:#A80036;stroke-width:1.5;" width="65" x="32.5" y="985.5"/><ellipse cx="47.5" cy="1001.5" fill="#ADD1B2" rx="11" ry="11" style="stroke:#A80036;stroke-width:1.0;"/><path d="M46.8594,1005.2813 Q47.6563,1005.2813 48.2188,1005.0938 Q48.7969,1004.8906 49.0313,1004.6719 Q49.2813,1004.4375 49.5156,1004.25 Q49.7656,1004.0469 49.9844,1004.0469 Q50.3281,1004.0469 50.5781,1004.3125 Q50.8438,1004.5625 50.8438,1004.8906 Q50.8438,1005.625 49.6719,1006.3125 Q48.5156,1006.9844 46.8125,1006.9844 Q44.6563,1006.9844 43.2344,1005.7188 Q41.8125,1004.4531 41.8125,1002.5156 L41.8125,1001.3906 Q41.8125,999.3594 43.1406,997.9844 Q44.4688,996.5938 46.4375,996.5938 Q47.625,996.5938 48.8438,997.1719 L49.0156,997.25 Q49.3125,996.8438 49.7344,996.8438 Q50.2188,996.8438 50.3906,997.1406 Q50.5781,997.4219 50.5781,997.9688 L50.5781,999.3906 Q50.5781,1000.5156 49.7344,1000.5156 Q49.4219,1000.5156 49.2188,1000.3438 Q49.0313,1000.1719 48.9844,1000.0313 Q48.9531,999.875 48.9063,999.6094 Q48.7969,999.0938 48.2813,998.7813 Q47.7656,998.4688 47.3125,998.3906 Q46.875,998.2969 46.5,998.2969 Q45.2188,998.2969 44.3594,999.1719 Q43.5156,1000.0469 43.5156,1001.3906 L43.5156,1002.4844 Q43.5156,1003.7656 44.4219,1004.5313 Q45.3281,1005.2813 46.8594,1005.2813 Z " fill="#000000"/><text fill="#000000" font-family="sans-serif" font-size="12" lengthAdjust="spacing" textLength="33" x="61.5" y="1006.3">Result</text><line style="stroke:#A80036;stroke-width:1.5;" x1="33.5" x2="96.5" y1="1017.5" y2="1017.5"/><line style="stroke:#A80036;stroke-width:1.5;" x1="33.5" x2="96.5" y1="1025.5" y2="1025.5"/><!--MD5=[75083d369f37e55eadef4305dfe0c535]
class to.ResultList--><rect fill="#FEFECE" filter="url(#ftvr3dt1f9ady)" height="48" id="to.ResultList" style="stroke:#A80036;stroke-width:1.5;" width="84" x="133" y="985.5"/><ellipse cx="148" cy="1001.5" fill="#ADD1B2" rx="11" ry="11" style="stroke:#A80036;stroke-width:1.0;"/><path d="M147.3594,1005.2813 Q148.1563,1005.2813 148.7188,1005.0938 Q149.2969,1004.8906 149.5313,1004.6719 Q149.7813,1004.4375 150.0156,1004.25 Q150.2656,1004.0469 150.4844,1004.0469 Q150.8281,1004.0469 151.0781,1004.3125 Q151.3438,1004.5625 151.3438,1004.8906 Q151.3438,1005.625 150.1719,1006.3125 Q149.0156,1006.9844 147.3125,1006.9844 Q145.1563,1006.9844 143.7344,1005.7188 Q142.3125,1004.4531 142.3125,1002.5156 L142.3125,1001.3906 Q142.3125,999.3594 143.6406,997.9844 Q144.9688,996.5938 146.9375,996.5938 Q148.125,996.5938 149.3438,997.1719 L149.5156,997.25 Q149.8125,996.8438 150.2344,996.8438 Q150.7188,996.8438 150.8906,997.1406 Q151.0781,997.4219 151.0781,997.9688 L151.0781,999.3906 Q151.0781,1000.5156 150.2344,1000.5156 Q149.9219,1000.5156 149.7188,1000.3438 Q149.5313,1000.1719 149.4844,1000.0313 Q149.4531,999.875 149.4063,999.6094 Q149.2969,999.0938 148.7813,998.7813 Q148.2656,998.4688 147.8125,998.3906 Q147.375,998.2969 147,998.2969 Q145.7188,998.2969 144.8594,999.1719 Q144.0156,1000.0469 144.0156,1001.3906 L144.0156,1002.4844 Q144.0156,1003.7656 144.9219,1004.5313 Q145.8281,1005.2813 147.3594,1005.2813 Z " fill="#000000"/><text fill="#000000" font-family="sans-serif" font-size="12" lengthAdjust="spacing" textLength="52" x="162" y="1006.3">ResultList</text><line style="stroke:#A80036;stroke-width:1.5;" x1="134" x2="216" y1="1017.5" y2="1017.5"/><line style="stroke:#A80036;stroke-width:1.5;" x1="134" x2="216" y1="1025.5" y2="1025.5"/><!--MD5=[802b8ec96140f74d491c11f54def2bb4]
class to.Extended--><rect codeLine="63" fill="#FEFECE" filter="url(#ftvr3dt1f9ady)" height="61.1999" id="to.Extended" style="stroke:#A80036;stroke-width:1.5;" width="116" x="252" y="979"/><ellipse cx="281.85" cy="995" fill="#B4A7E5" rx="11" ry="11" style="stroke:#A80036;stroke-width:1.0;"/><path d="M284.5219,998.2969 Q285.0688,998.2969 285.35,998.4844 Q285.6313,998.6563 285.6313,999.1563 Q285.6313,1000 284.5219,1000 L279.3813,1000 Q278.2563,1000 278.2563,999.1563 Q278.2563,998.6563 278.5375,998.4844 Q278.8344,998.2969 279.3813,998.2969 L281.1,998.2969 L281.1,991.7813 L279.3813,991.7813 Q278.2563,991.7813 278.2563,990.9375 Q278.2563,990.4531 278.5375,990.2813 Q278.8344,990.0938 279.3813,990.0938 L284.5219,990.0938 Q285.0688,990.0938 285.35,990.2813 Q285.6313,990.4531 285.6313,990.9375 Q285.6313,991.7813 284.5219,991.7813 L282.8031,991.7813 L282.8031,998.2969 L284.5219,998.2969 Z " fill="#000000"/><text fill="#000000" font-family="sans-serif" font-size="12" font-style="italic" lengthAdjust="spacing" textLength="51" x="299.15" y="999.8">Extended</text><line style="stroke:#A80036;stroke-width:1.5;" x1="253" x2="367" y1="1011" y2="1011"/><text fill="#000000" font-family="sans-serif" font-size="11" lengthAdjust="spacing" textLength="104" x="258" y="1025.9999">extensions:Extensions</text><line style="stroke:#A80036;stroke-width:1.5;" x1="253" x2="367" y1="1032.1999" y2="1032.1999"/><!--MD5=[4b3b64e2f661de805ecbdda138a2b7b5]
class to.Property--><rect fill="#FEFECE" filter="url(#ftvr3dt1f9ady)" height="48" id="to.Property" style="stroke:#A80036;stroke-width:1.5;" width="76" x="32" y="1154.5"/><ellipse cx="47" cy="1170.5" fill="#ADD1B2" rx="11" ry="11" style="stroke:#A80036;stroke-width:1.0;"/><path d="M46.3594,1174.2813 Q47.1563,1174.2813 47.7188,1174.0938 Q48.2969,1173.8906 48.5313,1173.6719 Q48.7813,1173.4375 49.0156,1173.25 Q49.2656,1173.0469 49.4844,1173.0469 Q49.8281,1173.0469 50.0781,1173.3125 Q50.3438,1173.5625 50.3438,1173.8906 Q50.3438,1174.625 49.1719,1175.3125 Q48.0156,1175.9844 46.3125,1175.9844 Q44.1563,1175.9844 42.7344,1174.7188 Q41.3125,1173.4531 41.3125,1171.5156 L41.3125,1170.3906 Q41.3125,1168.3594 42.6406,1166.9844 Q43.9688,1165.5938 45.9375,1165.5938 Q47.125,1165.5938 48.3438,1166.1719 L48.5156,1166.25 Q48.8125,1165.8438 49.2344,1165.8438 Q49.7188,1165.8438 49.8906,1166.1406 Q50.0781,1166.4219 50.0781,1166.9688 L50.0781,1168.3906 Q50.0781,1169.5156 49.2344,1169.5156 Q48.9219,1169.5156 48.7188,1169.3438 Q48.5313,1169.1719 48.4844,1169.0313 Q48.4531,1168.875 48.4063,1168.6094 Q48.2969,1168.0938 47.7813,1167.7813 Q47.2656,1167.4688 46.8125,1167.3906 Q46.375,1167.2969 46,1167.2969 Q44.7188,1167.2969 43.8594,1168.1719 Q43.0156,1169.0469 43.0156,1170.3906 L43.0156,1171.4844 Q43.0156,1172.7656 43.9219,1173.5313 Q44.8281,1174.2813 46.3594,1174.2813 Z " fill="#000000"/><text fill="#000000" font-family="sans-serif" font-size="12" lengthAdjust="spacing" textLength="44" x="61" y="1175.3">Property</text><line style="stroke:#A80036;stroke-width:1.5;" x1="33" x2="107" y1="1186.5" y2="1186.5"/><line style="stroke:#A80036;stroke-width:1.5;" x1="33" x2="107" y1="1194.5" y2="1194.5"/><!--MD5=[8c3e8a00713e40d480934de680816730]
class to.TObject--><rect fill="#FEFECE" filter="url(#ftvr3dt1f9ady)" height="48" id="to.TObject" style="stroke:#A80036;stroke-width:1.5;" width="74" x="143" y="1154.5"/><ellipse cx="158" cy="1170.5" fill="#ADD1B2" rx="11" ry="11" style="stroke:#A80036;stroke-width:1.0;"/><path d="M157.3594,1174.2813 Q158.1563,1174.2813 158.7188,1174.0938 Q159.2969,1173.8906 159.5313,1173.6719 Q159.7813,1173.4375 160.0156,1173.25 Q160.2656,1173.0469 160.4844,1173.0469 Q160.8281,1173.0469 161.0781,1173.3125 Q161.3438,1173.5625 161.3438,1173.8906 Q161.3438,1174.625 160.1719,1175.3125 Q159.0156,1175.9844 157.3125,1175.9844 Q155.1563,1175.9844 153.7344,1174.7188 Q152.3125,1173.4531 152.3125,1171.5156 L152.3125,1170.3906 Q152.3125,1168.3594 153.6406,1166.9844 Q154.9688,1165.5938 156.9375,1165.5938 Q158.125,1165.5938 159.3438,1166.1719 L159.5156,1166.25 Q159.8125,1165.8438 160.2344,1165.8438 Q160.7188,1165.8438 160.8906,1166.1406 Q161.0781,1166.4219 161.0781,1166.9688 L161.0781,1168.3906 Q161.0781,1169.5156 160.2344,1169.5156 Q159.9219,1169.5156 159.7188,1169.3438 Q159.5313,1169.1719 159.4844,1169.0313 Q159.4531,1168.875 159.4063,1168.6094 Q159.2969,1168.0938 158.7813,1167.7813 Q158.2656,1167.4688 157.8125,1167.3906 Q157.375,1167.2969 157,1167.2969 Q155.7188,1167.2969 154.8594,1168.1719 Q154.0156,1169.0469 154.0156,1170.3906 L154.0156,1171.4844 Q154.0156,1172.7656 154.9219,1173.5313 Q155.8281,1174.2813 157.3594,1174.2813 Z " fill="#000000"/><text fill="#000000" font-family="sans-serif" font-size="12" lengthAdjust="spacing" textLength="42" x="172" y="1175.3">TObject</text><line style="stroke:#A80036;stroke-width:1.5;" x1="144" x2="216" y1="1186.5" y2="1186.5"/><line style="stroke:#A80036;stroke-width:1.5;" x1="144" x2="216" y1="1194.5" y2="1194.5"/><!--MD5=[ecede42f2e3c94d38b6272a55fc9c623]
class to.Service--><rect fill="#FEFECE" filter="url(#ftvr3dt1f9ady)" height="48" id="to.Service" style="stroke:#A80036;stroke-width:1.5;" width="71" x="252.5" y="1154.5"/><ellipse cx="267.5" cy="1170.5" fill="#ADD1B2" rx="11" ry="11" style="stroke:#A80036;stroke-width:1.0;"/><path d="M266.8594,1174.2813 Q267.6563,1174.2813 268.2188,1174.0938 Q268.7969,1173.8906 269.0313,1173.6719 Q269.2813,1173.4375 269.5156,1173.25 Q269.7656,1173.0469 269.9844,1173.0469 Q270.3281,1173.0469 270.5781,1173.3125 Q270.8438,1173.5625 270.8438,1173.8906 Q270.8438,1174.625 269.6719,1175.3125 Q268.5156,1175.9844 266.8125,1175.9844 Q264.6563,1175.9844 263.2344,1174.7188 Q261.8125,1173.4531 261.8125,1171.5156 L261.8125,1170.3906 Q261.8125,1168.3594 263.1406,1166.9844 Q264.4688,1165.5938 266.4375,1165.5938 Q267.625,1165.5938 268.8438,1166.1719 L269.0156,1166.25 Q269.3125,1165.8438 269.7344,1165.8438 Q270.2188,1165.8438 270.3906,1166.1406 Q270.5781,1166.4219 270.5781,1166.9688 L270.5781,1168.3906 Q270.5781,1169.5156 269.7344,1169.5156 Q269.4219,1169.5156 269.2188,1169.3438 Q269.0313,1169.1719 268.9844,1169.0313 Q268.9531,1168.875 268.9063,1168.6094 Q268.7969,1168.0938 268.2813,1167.7813 Q267.7656,1167.4688 267.3125,1167.3906 Q266.875,1167.2969 266.5,1167.2969 Q265.2188,1167.2969 264.3594,1168.1719 Q263.5156,1169.0469 263.5156,1170.3906 L263.5156,1171.4844 Q263.5156,1172.7656 264.4219,1173.5313 Q265.3281,1174.2813 266.8594,1174.2813 Z " fill="#000000"/><text fill="#000000" font-family="sans-serif" font-size="12" lengthAdjust="spacing" textLength="39" x="281.5" y="1175.3">Service</text><line style="stroke:#A80036;stroke-width:1.5;" x1="253.5" x2="322.5" y1="1186.5" y2="1186.5"/><line style="stroke:#A80036;stroke-width:1.5;" x1="253.5" x2="322.5" y1="1194.5" y2="1194.5"/><!--MD5=[2360f29975458341e81be0af6e595b66]
class to.Member--><rect fill="#FEFECE" filter="url(#ftvr3dt1f9ady)" height="48" id="to.Member" style="stroke:#A80036;stroke-width:1.5;" width="75" x="286.5" y="1265.5"/><ellipse cx="301.5" cy="1281.5" fill="#ADD1B2" rx="11" ry="11" style="stroke:#A80036;stroke-width:1.0;"/><path d="M300.8594,1285.2813 Q301.6563,1285.2813 302.2188,1285.0938 Q302.7969,1284.8906 303.0313,1284.6719 Q303.2813,1284.4375 303.5156,1284.25 Q303.7656,1284.0469 303.9844,1284.0469 Q304.3281,1284.0469 304.5781,1284.3125 Q304.8438,1284.5625 304.8438,1284.8906 Q304.8438,1285.625 303.6719,1286.3125 Q302.5156,1286.9844 300.8125,1286.9844 Q298.6563,1286.9844 297.2344,1285.7188 Q295.8125,1284.4531 295.8125,1282.5156 L295.8125,1281.3906 Q295.8125,1279.3594 297.1406,1277.9844 Q298.4688,1276.5938 300.4375,1276.5938 Q301.625,1276.5938 302.8438,1277.1719 L303.0156,1277.25 Q303.3125,1276.8438 303.7344,1276.8438 Q304.2188,1276.8438 304.3906,1277.1406 Q304.5781,1277.4219 304.5781,1277.9688 L304.5781,1279.3906 Q304.5781,1280.5156 303.7344,1280.5156 Q303.4219,1280.5156 303.2188,1280.3438 Q303.0313,1280.1719 302.9844,1280.0313 Q302.9531,1279.875 302.9063,1279.6094 Q302.7969,1279.0938 302.2813,1278.7813 Q301.7656,1278.4688 301.3125,1278.3906 Q300.875,1278.2969 300.5,1278.2969 Q299.2188,1278.2969 298.3594,1279.1719 Q297.5156,1280.0469 297.5156,1281.3906 L297.5156,1282.4844 Q297.5156,1283.7656 298.4219,1284.5313 Q299.3281,1285.2813 300.8594,1285.2813 Z " fill="#000000"/><text fill="#000000" font-family="sans-serif" font-size="12" lengthAdjust="spacing" textLength="43" x="315.5" y="1286.3">Member</text><line style="stroke:#A80036;stroke-width:1.5;" x1="287.5" x2="360.5" y1="1297.5" y2="1297.5"/><line style="stroke:#A80036;stroke-width:1.5;" x1="287.5" x2="360.5" y1="1305.5" y2="1305.5"/><!--MD5=[43ef6731b7cbc091f6f1344f4cedfefa]
class to.layout.Layout--><rect fill="#FEFECE" filter="url(#ftvr3dt1f9ady)" height="48" id="to.layout.Layout" style="stroke:#A80036;stroke-width:1.5;" width="67" x="567.5" y="1154.5"/><ellipse cx="582.5" cy="1170.5" fill="#ADD1B2" rx="11" ry="11" style="stroke:#A80036;stroke-width:1.0;"/><path d="M581.8594,1174.2813 Q582.6563,1174.2813 583.2188,1174.0938 Q583.7969,1173.8906 584.0313,1173.6719 Q584.2813,1173.4375 584.5156,1173.25 Q584.7656,1173.0469 584.9844,1173.0469 Q585.3281,1173.0469 585.5781,1173.3125 Q585.8438,1173.5625 585.8438,1173.8906 Q585.8438,1174.625 584.6719,1175.3125 Q583.5156,1175.9844 581.8125,1175.9844 Q579.6563,1175.9844 578.2344,1174.7188 Q576.8125,1173.4531 576.8125,1171.5156 L576.8125,1170.3906 Q576.8125,1168.3594 578.1406,1166.9844 Q579.4688,1165.5938 581.4375,1165.5938 Q582.625,1165.5938 583.8438,1166.1719 L584.0156,1166.25 Q584.3125,1165.8438 584.7344,1165.8438 Q585.2188,1165.8438 585.3906,1166.1406 Q585.5781,1166.4219 585.5781,1166.9688 L585.5781,1168.3906 Q585.5781,1169.5156 584.7344,1169.5156 Q584.4219,1169.5156 584.2188,1169.3438 Q584.0313,1169.1719 583.9844,1169.0313 Q583.9531,1168.875 583.9063,1168.6094 Q583.7969,1168.0938 583.2813,1167.7813 Q582.7656,1167.4688 582.3125,1167.3906 Q581.875,1167.2969 581.5,1167.2969 Q580.2188,1167.2969 579.3594,1168.1719 Q578.5156,1169.0469 578.5156,1170.3906 L578.5156,1171.4844 Q578.5156,1172.7656 579.4219,1173.5313 Q580.3281,1174.2813 581.8594,1174.2813 Z " fill="#000000"/><text fill="#000000" font-family="sans-serif" font-size="12" lengthAdjust="spacing" textLength="35" x="596.5" y="1175.3">Layout</text><line style="stroke:#A80036;stroke-width:1.5;" x1="568.5" x2="633.5" y1="1186.5" y2="1186.5"/><line style="stroke:#A80036;stroke-width:1.5;" x1="568.5" x2="633.5" y1="1194.5" y2="1194.5"/><!--MD5=[3b2d7f27bec20edac89f8d9c90732cb8]
class XHR--><rect codeLine="1" fill="#FEFECE" filter="url(#ftvr3dt1f9ady)" height="61.1999" id="XHR" style="stroke:#A80036;stroke-width:1.5;" width="58" x="535" y="167.5"/><ellipse cx="550" cy="183.5" fill="#ADD1B2" rx="11" ry="11" style="stroke:#A80036;stroke-width:1.0;"/><path d="M549.3594,187.2813 Q550.1563,187.2813 550.7188,187.0938 Q551.2969,186.8906 551.5313,186.6719 Q551.7813,186.4375 552.0156,186.25 Q552.2656,186.0469 552.4844,186.0469 Q552.8281,186.0469 553.0781,186.3125 Q553.3438,186.5625 553.3438,186.8906 Q553.3438,187.625 552.1719,188.3125 Q551.0156,188.9844 549.3125,188.9844 Q547.1563,188.9844 545.7344,187.7188 Q544.3125,186.4531 544.3125,184.5156 L544.3125,183.3906 Q544.3125,181.3594 545.6406,179.9844 Q546.9688,178.5938 548.9375,178.5938 Q550.125,178.5938 551.3438,179.1719 L551.5156,179.25 Q551.8125,178.8438 552.2344,178.8438 Q552.7188,178.8438 552.8906,179.1406 Q553.0781,179.4219 553.0781,179.9688 L553.0781,181.3906 Q553.0781,182.5156 552.2344,182.5156 Q551.9219,182.5156 551.7188,182.3438 Q551.5313,182.1719 551.4844,182.0313 Q551.4531,181.875 551.4063,181.6094 Q551.2969,181.0938 550.7813,180.7813 Q550.2656,180.4688 549.8125,180.3906 Q549.375,180.2969 549,180.2969 Q547.7188,180.2969 546.8594,181.1719 Q546.0156,182.0469 546.0156,183.3906 L546.0156,184.4844 Q546.0156,185.7656 546.9219,186.5313 Q547.8281,187.2813 549.3594,187.2813 Z " fill="#000000"/><text fill="#000000" font-family="sans-serif" font-size="12" lengthAdjust="spacing" textLength="26" x="564" y="188.3">XHR</text><line style="stroke:#A80036;stroke-width:1.5;" x1="536" x2="592" y1="199.5" y2="199.5"/><line style="stroke:#A80036;stroke-width:1.5;" x1="536" x2="592" y1="207.5" y2="207.5"/><text fill="#000000" font-family="sans-serif" font-size="11" lengthAdjust="spacing" textLength="39" x="541" y="222.4999">invoke()</text><!--MD5=[36f4d8c507a01d05cb42b0aec07b28f8]
class EventStore--><rect codeLine="5" fill="#FEFECE" filter="url(#ftvr3dt1f9ady)" height="120.7997" id="EventStore" style="stroke:#A80036;stroke-width:1.5;" width="88" x="628" y="137.5"/><ellipse cx="643" cy="156.9001" fill="#FF7700" rx="11" ry="11" style="stroke:#A80036;stroke-width:1.0;"/><path d="M645.9531,151.7439 Q646.4688,151.7439 646.625,152.0407 Q646.7813,152.322 646.7813,152.8689 L646.7813,154.3689 Q646.7813,155.5095 645.9531,155.5095 Q645.8125,155.5095 645.7031,155.4939 Q645.5938,155.4626 645.5156,155.4157 Q645.4531,155.3689 645.375,155.2907 Q645.3125,155.2126 645.2656,155.1657 Q645.2344,155.1189 645.2031,155.0251 Q645.1719,154.9157 645.1563,154.8689 Q645.1563,154.822 645.125,154.7126 Q645.1094,154.6032 645.1094,154.5876 Q644.9844,154.0876 644.4219,153.7751 Q643.875,153.447 643.0781,153.447 Q642.2813,153.447 641.7188,153.822 Q641.1563,154.197 641.1563,154.7439 Q641.1563,155.322 641.7188,155.6345 Q642.2813,155.947 643.0313,156.0407 Q643.7813,156.1345 644.6875,156.3845 Q645.6094,156.6345 646.1406,157.0564 Q647.1406,157.8532 647.1406,159.1814 Q647.1406,160.5095 646.0625,161.322 Q645,162.1345 643.25,162.1345 Q641.8438,162.1345 640.5938,161.4782 Q640.2656,161.8845 639.9219,161.8845 Q639.0469,161.8845 639.0469,160.7595 L639.0469,159.6345 Q639.0469,159.072 639.2344,158.7907 Q639.4219,158.5095 639.9063,158.5095 Q640.0625,158.5095 640.1875,158.5564 Q640.3125,158.5876 640.3906,158.6657 Q640.4844,158.7282 640.5313,158.7907 Q640.5938,158.8376 640.6406,158.947 Q640.6875,159.0407 640.7031,159.1032 Q640.7188,159.1501 640.7344,159.2439 Q640.7656,159.322 640.7656,159.3376 Q640.8906,159.7907 641.5781,160.1189 Q642.2813,160.4314 643.1406,160.4314 Q644.0938,160.4314 644.7344,160.072 Q645.375,159.697 645.375,159.1501 Q645.375,158.6345 644.875,158.3376 Q644.375,158.0251 643.7188,157.9314 Q643.0625,157.822 642.1875,157.6189 Q641.3125,157.4157 640.7813,157.1189 Q640.1406,156.7439 639.7656,156.1189 Q639.3906,155.4939 639.3906,154.7595 Q639.3906,153.4626 640.4375,152.6032 Q641.5,151.7439 643.0781,151.7439 Q644.3906,151.7439 645.2969,152.3064 Q645.4219,151.9939 645.5625,151.8689 Q645.7031,151.7439 645.9531,151.7439 Z " fill="#000000"/><text fill="#000000" font-family="sans-serif" font-size="12" font-style="italic" lengthAdjust="spacing" textLength="60" x="655" y="154.5001">«Singleton»</text><text fill="#000000" font-family="sans-serif" font-size="12" lengthAdjust="spacing" textLength="56" x="657" y="168.9002">EventStore</text><line style="stroke:#A80036;stroke-width:1.5;" x1="629" x2="715" y1="176.3002" y2="176.3002"/><text fill="#000000" font-family="sans-serif" font-size="11" lengthAdjust="spacing" textLength="66" x="634" y="191.3001">log:LogEntry[]</text><line style="stroke:#A80036;stroke-width:1.5;" x1="629" x2="715" y1="197.5001" y2="197.5001"/><text fill="#000000" font-family="sans-serif" font-size="11" lengthAdjust="spacing" textLength="29" x="634" y="212.5">start()</text><text fill="#000000" font-family="sans-serif" font-size="11" lengthAdjust="spacing" textLength="26" x="634" y="225.6999">end()</text><text fill="#000000" font-family="sans-serif" font-size="11" lengthAdjust="spacing" textLength="28" x="634" y="238.8998">fault()</text><text fill="#000000" font-family="sans-serif" font-size="11" lengthAdjust="spacing" textLength="44" x="634" y="252.0997">find(href)</text><!--MD5=[cb32f8b1b756f5d42df70837c47813f1]
class LogEntry--><rect codeLine="13" fill="#FEFECE" filter="url(#ftvr3dt1f9ady)" height="166.7991" id="LogEntry" style="stroke:#A80036;stroke-width:1.5;" width="122" x="601" y="453.5"/><ellipse cx="635.35" cy="469.5" fill="#ADD1B2" rx="11" ry="11" style="stroke:#A80036;stroke-width:1.0;"/><path d="M634.7094,473.2813 Q635.5063,473.2813 636.0688,473.0938 Q636.6469,472.8906 636.8813,472.6719 Q637.1313,472.4375 637.3656,472.25 Q637.6156,472.0469 637.8344,472.0469 Q638.1781,472.0469 638.4281,472.3125 Q638.6938,472.5625 638.6938,472.8906 Q638.6938,473.625 637.5219,474.3125 Q636.3656,474.9844 634.6625,474.9844 Q632.5063,474.9844 631.0844,473.7188 Q629.6625,472.4531 629.6625,470.5156 L629.6625,469.3906 Q629.6625,467.3594 630.9906,465.9844 Q632.3188,464.5938 634.2875,464.5938 Q635.475,464.5938 636.6938,465.1719 L636.8656,465.25 Q637.1625,464.8438 637.5844,464.8438 Q638.0688,464.8438 638.2406,465.1406 Q638.4281,465.4219 638.4281,465.9688 L638.4281,467.3906 Q638.4281,468.5156 637.5844,468.5156 Q637.2719,468.5156 637.0688,468.3438 Q636.8813,468.1719 636.8344,468.0313 Q636.8031,467.875 636.7563,467.6094 Q636.6469,467.0938 636.1313,466.7813 Q635.6156,466.4688 635.1625,466.3906 Q634.725,466.2969 634.35,466.2969 Q633.0688,466.2969 632.2094,467.1719 Q631.3656,468.0469 631.3656,469.3906 L631.3656,470.4844 Q631.3656,471.7656 632.2719,472.5313 Q633.1781,473.2813 634.7094,473.2813 Z " fill="#000000"/><text fill="#000000" font-family="sans-serif" font-size="12" lengthAdjust="spacing" textLength="47" x="653.65" y="474.3">LogEntry</text><line style="stroke:#A80036;stroke-width:1.5;" x1="602" x2="722" y1="485.5" y2="485.5"/><text fill="#000000" font-family="sans-serif" font-size="11" lengthAdjust="spacing" textLength="36" x="607" y="500.4999">url:Href</text><text fill="#000000" font-family="sans-serif" font-size="11" lengthAdjust="spacing" textLength="47" x="607" y="513.6998">title:String</text><text fill="#000000" font-family="sans-serif" font-size="11" lengthAdjust="spacing" textLength="69" x="607" y="526.8997">startedAt:Date</text><text fill="#000000" font-family="sans-serif" font-size="11" lengthAdjust="spacing" textLength="75" x="607" y="540.0996">updatedAt:Date</text><text fill="#000000" font-family="sans-serif" font-size="11" lengthAdjust="spacing" textLength="67" x="607" y="553.2995">request:String</text><text fill="#000000" font-family="sans-serif" font-size="11" lengthAdjust="spacing" textLength="75" x="607" y="566.4994">response:String</text><text fill="#000000" font-family="sans-serif" font-size="11" lengthAdjust="spacing" textLength="107" x="607" y="579.6993">object:TransferObject</text><text fill="#000000" font-family="sans-serif" font-size="11" lengthAdjust="spacing" textLength="110" x="607" y="592.8992">aggregator:Aggregator</text><text fill="#000000" font-family="sans-serif" font-size="11" lengthAdjust="spacing" textLength="62" x="607" y="606.0991">cacheHits:int</text><line style="stroke:#A80036;stroke-width:1.5;" x1="602" x2="722" y1="612.2991" y2="612.2991"/><!--MD5=[1baf32c238e7b10acca77db68c6197d6]
class TransferObject--><rect codeLine="51" fill="#FEFECE" filter="url(#ftvr3dt1f9ady)" height="48" id="TransferObject" style="stroke:#A80036;stroke-width:1.5;" width="111" x="443.5" y="688"/><ellipse cx="458.5" cy="704" fill="#B4A7E5" rx="11" ry="11" style="stroke:#A80036;stroke-width:1.0;"/><path d="M461.1719,707.2969 Q461.7188,707.2969 462,707.4844 Q462.2813,707.6563 462.2813,708.1563 Q462.2813,709 461.1719,709 L456.0313,709 Q454.9063,709 454.9063,708.1563 Q454.9063,707.6563 455.1875,707.4844 Q455.4844,707.2969 456.0313,707.2969 L457.75,707.2969 L457.75,700.7813 L456.0313,700.7813 Q454.9063,700.7813 454.9063,699.9375 Q454.9063,699.4531 455.1875,699.2813 Q455.4844,699.0938 456.0313,699.0938 L461.1719,699.0938 Q461.7188,699.0938 462,699.2813 Q462.2813,699.4531 462.2813,699.9375 Q462.2813,700.7813 461.1719,700.7813 L459.4531,700.7813 L459.4531,707.2969 L461.1719,707.2969 Z " fill="#000000"/><text fill="#000000" font-family="sans-serif" font-size="12" font-style="italic" lengthAdjust="spacing" textLength="79" x="472.5" y="708.8">TransferObject</text><line style="stroke:#A80036;stroke-width:1.5;" x1="444.5" x2="553.5" y1="720" y2="720"/><line style="stroke:#A80036;stroke-width:1.5;" x1="444.5" x2="553.5" y1="728" y2="728"/><!--MD5=[c5240e5c49866b6831018b14556465c0]
class Aggregator--><rect codeLine="74" fill="#FEFECE" filter="url(#ftvr3dt1f9ady)" height="61.1999" id="Aggregator" style="stroke:#A80036;stroke-width:1.5;" width="93" x="742.5" y="681.5"/><ellipse cx="757.5" cy="697.5" fill="#B4A7E5" rx="11" ry="11" style="stroke:#A80036;stroke-width:1.0;"/><path d="M760.1719,700.7969 Q760.7188,700.7969 761,700.9844 Q761.2813,701.1563 761.2813,701.6563 Q761.2813,702.5 760.1719,702.5 L755.0313,702.5 Q753.9063,702.5 753.9063,701.6563 Q753.9063,701.1563 754.1875,700.9844 Q754.4844,700.7969 755.0313,700.7969 L756.75,700.7969 L756.75,694.2813 L755.0313,694.2813 Q753.9063,694.2813 753.9063,693.4375 Q753.9063,692.9531 754.1875,692.7813 Q754.4844,692.5938 755.0313,692.5938 L760.1719,692.5938 Q760.7188,692.5938 761,692.7813 Q761.2813,692.9531 761.2813,693.4375 Q761.2813,694.2813 760.1719,694.2813 L758.4531,694.2813 L758.4531,700.7969 L760.1719,700.7969 Z " fill="#000000"/><text fill="#000000" font-family="sans-serif" font-size="12" font-style="italic" lengthAdjust="spacing" textLength="61" x="771.5" y="702.3">Aggregator</text><line style="stroke:#A80036;stroke-width:1.5;" x1="743.5" x2="834.5" y1="713.5" y2="713.5"/><line style="stroke:#A80036;stroke-width:1.5;" x1="743.5" x2="834.5" y1="721.5" y2="721.5"/><text fill="#000000" font-family="sans-serif" font-size="11" lengthAdjust="spacing" textLength="80" x="748.5" y="736.4999">update(logEntry)</text><!--MD5=[c8ff661d8810405741f708d20018b1ce]
class ResponseHandler--><rect codeLine="28" fill="#FEFECE" filter="url(#ftvr3dt1f9ady)" height="107.5998" id="ResponseHandler" style="stroke:#A80036;stroke-width:1.5;" width="201" x="261.5" y="144"/><ellipse cx="276.5" cy="163.4001" fill="#ADD1B2" rx="11" ry="11" style="stroke:#A80036;stroke-width:1.0;"/><path d="M275.8594,167.1814 Q276.6563,167.1814 277.2188,166.9939 Q277.7969,166.7907 278.0313,166.572 Q278.2813,166.3376 278.5156,166.1501 Q278.7656,165.947 278.9844,165.947 Q279.3281,165.947 279.5781,166.2126 Q279.8438,166.4626 279.8438,166.7907 Q279.8438,167.5251 278.6719,168.2126 Q277.5156,168.8845 275.8125,168.8845 Q273.6563,168.8845 272.2344,167.6189 Q270.8125,166.3532 270.8125,164.4157 L270.8125,163.2907 Q270.8125,161.2595 272.1406,159.8845 Q273.4688,158.4939 275.4375,158.4939 Q276.625,158.4939 277.8438,159.072 L278.0156,159.1501 Q278.3125,158.7439 278.7344,158.7439 Q279.2188,158.7439 279.3906,159.0407 Q279.5781,159.322 279.5781,159.8689 L279.5781,161.2907 Q279.5781,162.4157 278.7344,162.4157 Q278.4219,162.4157 278.2188,162.2439 Q278.0313,162.072 277.9844,161.9314 Q277.9531,161.7751 277.9063,161.5095 Q277.7969,160.9939 277.2813,160.6814 Q276.7656,160.3689 276.3125,160.2907 Q275.875,160.197 275.5,160.197 Q274.2188,160.197 273.3594,161.072 Q272.5156,161.947 272.5156,163.2907 L272.5156,164.3845 Q272.5156,165.6657 273.4219,166.4314 Q274.3281,167.1814 275.8594,167.1814 Z " fill="#000000"/><text fill="#000000" font-family="sans-serif" font-size="12" font-style="italic" lengthAdjust="spacing" textLength="173" x="288.5" y="161.0001">«Facade,ChainOfResponsibility»</text><text fill="#000000" font-family="sans-serif" font-size="12" lengthAdjust="spacing" textLength="94" x="328" y="175.4002">ResponseHandler</text><line style="stroke:#A80036;stroke-width:1.5;" x1="262.5" x2="461.5" y1="182.8002" y2="182.8002"/><line style="stroke:#A80036;stroke-width:1.5;" x1="262.5" x2="461.5" y1="190.8002" y2="190.8002"/><text fill="#000000" font-family="sans-serif" font-size="11" lengthAdjust="spacing" textLength="83" x="267.5" y="205.8001">handle(LogEntry)</text><text fill="#000000" font-family="sans-serif" font-size="11" lengthAdjust="spacing" textLength="80" x="267.5" y="219">canHandle(json)</text><text fill="#000000" font-family="sans-serif" font-size="11" lengthAdjust="spacing" textLength="54" x="267.5" y="232.1999">doHandle()</text><text fill="#000000" font-family="sans-serif" font-size="11" lengthAdjust="spacing" textLength="55" x="267.5" y="245.3998">parse(json)</text><!--MD5=[af90564d048856be940d57fa75893e78]
class ListAggregator--><rect codeLine="77" fill="#FEFECE" filter="url(#ftvr3dt1f9ady)" height="61.1999" id="ListAggregator" style="stroke:#A80036;stroke-width:1.5;" width="110" x="635" y="843.5"/><ellipse cx="650" cy="859.5" fill="#ADD1B2" rx="11" ry="11" style="stroke:#A80036;stroke-width:1.0;"/><path d="M649.3594,863.2813 Q650.1563,863.2813 650.7188,863.0938 Q651.2969,862.8906 651.5313,862.6719 Q651.7813,862.4375 652.0156,862.25 Q652.2656,862.0469 652.4844,862.0469 Q652.8281,862.0469 653.0781,862.3125 Q653.3438,862.5625 653.3438,862.8906 Q653.3438,863.625 652.1719,864.3125 Q651.0156,864.9844 649.3125,864.9844 Q647.1563,864.9844 645.7344,863.7188 Q644.3125,862.4531 644.3125,860.5156 L644.3125,859.3906 Q644.3125,857.3594 645.6406,855.9844 Q646.9688,854.5938 648.9375,854.5938 Q650.125,854.5938 651.3438,855.1719 L651.5156,855.25 Q651.8125,854.8438 652.2344,854.8438 Q652.7188,854.8438 652.8906,855.1406 Q653.0781,855.4219 653.0781,855.9688 L653.0781,857.3906 Q653.0781,858.5156 652.2344,858.5156 Q651.9219,858.5156 651.7188,858.3438 Q651.5313,858.1719 651.4844,858.0313 Q651.4531,857.875 651.4063,857.6094 Q651.2969,857.0938 650.7813,856.7813 Q650.2656,856.4688 649.8125,856.3906 Q649.375,856.2969 649,856.2969 Q647.7188,856.2969 646.8594,857.1719 Q646.0156,858.0469 646.0156,859.3906 L646.0156,860.4844 Q646.0156,861.7656 646.9219,862.5313 Q647.8281,863.2813 649.3594,863.2813 Z " fill="#000000"/><text fill="#000000" font-family="sans-serif" font-size="12" lengthAdjust="spacing" textLength="78" x="664" y="864.3">ListAggregator</text><line style="stroke:#A80036;stroke-width:1.5;" x1="636" x2="744" y1="875.5" y2="875.5"/><rect fill="none" height="6" style="stroke:#C82930;stroke-width:1.0;" width="6" x="643" y="883.5"/><text fill="#000000" font-family="sans-serif" font-size="11" lengthAdjust="spacing" textLength="64" x="655" y="890.4999">list:ObjectList</text><line style="stroke:#A80036;stroke-width:1.5;" x1="636" x2="744" y1="896.6999" y2="896.6999"/><!--MD5=[efa4f010a0e7c7395f45ac8dfaa8f5b8]
class ObjectList--><rect codeLine="86" fill="#FEFECE" filter="url(#ftvr3dt1f9ady)" height="87.5997" id="ObjectList" style="stroke:#A80036;stroke-width:1.5;" width="112" x="634" y="965.5"/><ellipse cx="661.15" cy="981.5" fill="#ADD1B2" rx="11" ry="11" style="stroke:#A80036;stroke-width:1.0;"/><path d="M660.5094,985.2813 Q661.3063,985.2813 661.8688,985.0938 Q662.4469,984.8906 662.6813,984.6719 Q662.9313,984.4375 663.1656,984.25 Q663.4156,984.0469 663.6344,984.0469 Q663.9781,984.0469 664.2281,984.3125 Q664.4938,984.5625 664.4938,984.8906 Q664.4938,985.625 663.3219,986.3125 Q662.1656,986.9844 660.4625,986.9844 Q658.3063,986.9844 656.8844,985.7188 Q655.4625,984.4531 655.4625,982.5156 L655.4625,981.3906 Q655.4625,979.3594 656.7906,977.9844 Q658.1188,976.5938 660.0875,976.5938 Q661.275,976.5938 662.4938,977.1719 L662.6656,977.25 Q662.9625,976.8438 663.3844,976.8438 Q663.8688,976.8438 664.0406,977.1406 Q664.2281,977.4219 664.2281,977.9688 L664.2281,979.3906 Q664.2281,980.5156 663.3844,980.5156 Q663.0719,980.5156 662.8688,980.3438 Q662.6813,980.1719 662.6344,980.0313 Q662.6031,979.875 662.5563,979.6094 Q662.4469,979.0938 661.9313,978.7813 Q661.4156,978.4688 660.9625,978.3906 Q660.525,978.2969 660.15,978.2969 Q658.8688,978.2969 658.0094,979.1719 Q657.1656,980.0469 657.1656,981.3906 L657.1656,982.4844 Q657.1656,983.7656 658.0719,984.5313 Q658.9781,985.2813 660.5094,985.2813 Z " fill="#000000"/><text fill="#000000" font-family="sans-serif" font-size="12" lengthAdjust="spacing" textLength="53" x="677.85" y="986.3">ObjectList</text><line style="stroke:#A80036;stroke-width:1.5;" x1="635" x2="745" y1="997.5" y2="997.5"/><text fill="#000000" font-family="sans-serif" font-size="11" lengthAdjust="spacing" textLength="86" x="654" y="1012.4999">list:ObjectAdapter</text><rect fill="none" height="6" style="stroke:#C82930;stroke-width:1.0;" width="6" x="642" y="1018.6999"/><text fill="#000000" font-family="sans-serif" font-size="11" lengthAdjust="spacing" textLength="32" x="654" y="1025.6998">limit:int</text><rect fill="none" height="6" style="stroke:#C82930;stroke-width:1.0;" width="6" x="642" y="1031.8998"/><text fill="#000000" font-family="sans-serif" font-size="11" lengthAdjust="spacing" textLength="63" x="654" y="1038.8997">layout:Layout</text><line style="stroke:#A80036;stroke-width:1.5;" x1="635" x2="745" y1="1045.0997" y2="1045.0997"/><!--MD5=[3dd54cafc866609b722581d188472fec]
class NavigationAggregator--><rect codeLine="83" fill="#FEFECE" filter="url(#ftvr3dt1f9ady)" height="48" id="NavigationAggregator" style="stroke:#A80036;stroke-width:1.5;" width="148" x="780" y="850"/><ellipse cx="795" cy="866" fill="#ADD1B2" rx="11" ry="11" style="stroke:#A80036;stroke-width:1.0;"/><path d="M794.3594,869.7813 Q795.1563,869.7813 795.7188,869.5938 Q796.2969,869.3906 796.5313,869.1719 Q796.7813,868.9375 797.0156,868.75 Q797.2656,868.5469 797.4844,868.5469 Q797.8281,868.5469 798.0781,868.8125 Q798.3438,869.0625 798.3438,869.3906 Q798.3438,870.125 797.1719,870.8125 Q796.0156,871.4844 794.3125,871.4844 Q792.1563,871.4844 790.7344,870.2188 Q789.3125,868.9531 789.3125,867.0156 L789.3125,865.8906 Q789.3125,863.8594 790.6406,862.4844 Q791.9688,861.0938 793.9375,861.0938 Q795.125,861.0938 796.3438,861.6719 L796.5156,861.75 Q796.8125,861.3438 797.2344,861.3438 Q797.7188,861.3438 797.8906,861.6406 Q798.0781,861.9219 798.0781,862.4688 L798.0781,863.8906 Q798.0781,865.0156 797.2344,865.0156 Q796.9219,865.0156 796.7188,864.8438 Q796.5313,864.6719 796.4844,864.5313 Q796.4531,864.375 796.4063,864.1094 Q796.2969,863.5938 795.7813,863.2813 Q795.2656,862.9688 794.8125,862.8906 Q794.375,862.7969 794,862.7969 Q792.7188,862.7969 791.8594,863.6719 Q791.0156,864.5469 791.0156,865.8906 L791.0156,866.9844 Q791.0156,868.2656 791.9219,869.0313 Q792.8281,869.7813 794.3594,869.7813 Z " fill="#000000"/><text fill="#000000" font-family="sans-serif" font-size="12" lengthAdjust="spacing" textLength="116" x="809" y="870.8">NavigationAggregator</text><line style="stroke:#A80036;stroke-width:1.5;" x1="781" x2="927" y1="882" y2="882"/><line style="stroke:#A80036;stroke-width:1.5;" x1="781" x2="927" y1="890" y2="890"/><path d="M632,326.5 L632,367.7 L736,367.7 L736,336.5 L726,326.5 L632,326.5 " fill="#FBFB77" filter="url(#ftvr3dt1f9ady)" style="stroke:#A80036;stroke-width:1.0;"/><path d="M726,326.5 L726,336.5 L736,336.5 L726,326.5 " fill="#FBFB77" style="stroke:#A80036;stroke-width:1.0;"/><text fill="#000000" font-family="sans-serif" font-size="13" lengthAdjust="spacing" textLength="55" x="638" y="344.5">«Pattern»</text><text fill="#000000" font-family="sans-serif" font-size="13" lengthAdjust="spacing" textLength="83" x="638" y="360.1">EventSourcing</text><path d="M751,177.5 L751,218.7 L827,218.7 L827,187.5 L817,177.5 L751,177.5 " fill="#FBFB77" filter="url(#ftvr3dt1f9ady)" style="stroke:#A80036;stroke-width:1.0;"/><path d="M817,177.5 L817,187.5 L827,187.5 L817,177.5 " fill="#FBFB77" style="stroke:#A80036;stroke-width:1.0;"/><text fill="#000000" font-family="sans-serif" font-size="13" lengthAdjust="spacing" textLength="55" x="757" y="195.5">«Pattern»</text><text fill="#000000" font-family="sans-serif" font-size="13" lengthAdjust="spacing" textLength="36" x="757" y="211.1">Redux</text><path d="M862.5,6 L862.5,47.2 A0,0 0 0 0 862.5,47.2 L913,47.2 L917,173.84 L921,47.2 L971.5,47.2 A0,0 0 0 0 971.5,47.2 L971.5,16 L961.5,6 L862.5,6 A0,0 0 0 0 862.5,6 " fill="#FBFB77" filter="url(#ftvr3dt1f9ady)" style="stroke:#A80036;stroke-width:1.0;"/><path d="M961.5,6 L961.5,16 L971.5,16 L961.5,6 " fill="#FBFB77" style="stroke:#A80036;stroke-width:1.0;"/><text fill="#000000" font-family="sans-serif" font-size="13" lengthAdjust="spacing" textLength="55" x="868.5" y="24">«Pattern»</text><text fill="#000000" font-family="sans-serif" font-size="13" lengthAdjust="spacing" textLength="88" x="868.5" y="39.6">RemoteFacade</text><path d="M446,516.5 L446,557.7 A0,0 0 0 0 446,557.7 L495,557.7 L499,687.72 L503,557.7 L552,557.7 A0,0 0 0 0 552,557.7 L552,526.5 L542,516.5 L446,516.5 A0,0 0 0 0 446,516.5 " fill="#FBFB77" filter="url(#ftvr3dt1f9ady)" style="stroke:#A80036;stroke-width:1.0;"/><path d="M542,516.5 L542,526.5 L552,526.5 L542,516.5 " fill="#FBFB77" style="stroke:#A80036;stroke-width:1.0;"/><text fill="#000000" font-family="sans-serif" font-size="13" lengthAdjust="spacing" textLength="55" x="452" y="534.5">«Pattern»</text><text fill="#000000" font-family="sans-serif" font-size="13" lengthAdjust="spacing" textLength="85" x="452" y="550.1">TransferObject</text><path d="M842,516.5 L842,557.7 A0,0 0 0 0 842,557.7 L869.29,557.7 L805.22,681.47 L877.29,557.7 L926,557.7 A0,0 0 0 0 926,557.7 L926,526.5 L916,516.5 L842,516.5 A0,0 0 0 0 842,516.5 " fill="#FBFB77" filter="url(#ftvr3dt1f9ady)" style="stroke:#A80036;stroke-width:1.0;"/><path d="M916,516.5 L916,526.5 L926,526.5 L916,516.5 " fill="#FBFB77" style="stroke:#A80036;stroke-width:1.0;"/><text fill="#000000" font-family="sans-serif" font-size="13" lengthAdjust="spacing" textLength="55" x="848" y="534.5">«Pattern»</text><text fill="#000000" font-family="sans-serif" font-size="13" lengthAdjust="spacing" textLength="63" x="848" y="550.1">Aggregator</text><!--MD5=[211fb28d7af036b7e2906500ae0df584]
reverse link EventStore to LogEntry--><path codeLine="24" d="M631.71,270.94 C624.79,286.51 618.66,303.2 615,319.5 C605.08,363.69 614.22,413.03 627,453.44 " fill="none" id="EventStore-backto-LogEntry" style="stroke:#A80036;stroke-width:1.0;"/><polygon fill="#FFFFFF" points="637.39,258.73,631.2317,262.4817,632.3262,269.6092,638.4845,265.8576,637.39,258.73" style="stroke:#A80036;stroke-width:1.0;"/><!--MD5=[c66ef044075bfa520abea1b298c82d62]
reverse link LogEntry to TransferObject--><path codeLine="25" d="M591.88,612.42 C566.33,639.54 539.25,668.28 520.97,687.68 " fill="none" id="LogEntry-backto-TransferObject" style="stroke:#A80036;stroke-width:1.0;"/><polygon fill="#FFFFFF" points="600.84,602.91,593.815,604.5377,592.6156,611.6484,599.6406,610.0207,600.84,602.91" style="stroke:#A80036;stroke-width:1.0;"/><!--MD5=[1323f1ce2513c9cf1e00c7aff6d8ac1a]
reverse link LogEntry to Aggregator--><path codeLine="26" d="M730.56,631.39 C743.86,649.51 756.86,667.22 767.21,681.32 " fill="none" id="LogEntry-backto-Aggregator" style="stroke:#A80036;stroke-width:1.0;"/><polygon fill="#FFFFFF" points="722.71,620.7,723.0355,627.9038,729.8104,630.3739,729.4848,623.1702,722.71,620.7" style="stroke:#A80036;stroke-width:1.0;"/><!--MD5=[c99a35cbbebd0771999276ef9d68dcaa]
link ResponseHandler to XHR--><path codeLine="34" d="M462.7,198 C486.91,198 511.14,198 529.84,198 " fill="none" id="ResponseHandler-to-XHR" style="stroke:#A80036;stroke-width:1.0;"/><polygon fill="#A80036" points="534.96,198,525.96,194,529.96,198,525.96,202,534.96,198" style="stroke:#A80036;stroke-width:1.0;"/><polygon fill="#000000" points="479.75,186.8,488.7951,189.7389,488.7951,183.8611,479.75,186.8" style="stroke:#000000;stroke-width:1.0;"/><text fill="#000000" font-family="sans-serif" font-size="13" lengthAdjust="spacing" textLength="23" x="493.75" y="192">json</text><!--MD5=[8026b4f18a77ec0460a752f560bfe8e5]
link ResponseHandler to TransferObject--><path codeLine="35" d="M362.12,252.25 C364.11,334.57 375.27,496.2 429,620.5 C439.26,644.23 457.18,667.23 472.32,684.1 " fill="none" id="ResponseHandler-to-TransferObject" style="stroke:#A80036;stroke-width:1.0;stroke-dasharray:7.0,7.0;"/><polygon fill="#A80036" points="475.7,687.82,472.5769,678.4794,472.3253,684.1307,466.674,683.879,475.7,687.82" style="stroke:#A80036;stroke-width:1.0;"/><text fill="#000000" font-family="sans-serif" font-size="13" lengthAdjust="spacing" textLength="131" x="377" y="420.5">converts JSON into TO</text><!--MD5=[188c581f5f130a291821e1acadd3d25d]
link XHR to EventStore--><path codeLine="37" d="M593.11,198 C602.99,198 612.88,198 622.76,198 " fill="none" id="XHR-to-EventStore" style="stroke:#A80036;stroke-width:1.0;"/><polygon fill="#A80036" points="627.93,198,618.93,194,622.93,198,618.93,202,627.93,198" style="stroke:#A80036;stroke-width:1.0;"/><!--MD5=[1b036d3bee70abab8c1eec6380d9d2d0]
reverse link RestfulObjects to ApacheIsis--><path codeLine="45" d="M914.93,242.41 C913.74,267.36 912.29,297.9 911.27,319.33 " fill="none" id="RestfulObjects-backto-ApacheIsis" style="stroke:#A80036;stroke-width:1.0;"/><polygon fill="none" points="907.95,241.94,915.89,222.29,921.93,242.6,907.95,241.94" style="stroke:#A80036;stroke-width:1.0;"/><!--MD5=[ff455b0d12e54cd289f5a016df291ab1]
reverse link RestfulObjects to NakedObjects--><path codeLine="46" d="M951.37,237.57 C974.31,263.31 1003.88,296.49 1024.24,319.33 " fill="none" id="RestfulObjects-backto-NakedObjects" style="stroke:#A80036;stroke-width:1.0;"/><polygon fill="none" points="945.84,241.88,937.76,222.29,956.29,232.57,945.84,241.88" style="stroke:#A80036;stroke-width:1.0;"/><!--MD5=[1cde971cbfc4340e811b59a359229905]
link XHR to RestfulObjects--><path codeLine="47" d="M570.13,167.13 C576.35,144.84 588.39,116.24 611,102 C667.97,66.11 695.17,100.59 762.5,101 C799.17,101.22 812.3,85.4 845,102 C872.75,116.09 892.63,146.42 904.38,169.24 " fill="none" id="XHR-to-RestfulObjects" style="stroke:#A80036;stroke-width:1.0;"/><polygon fill="#A80036" points="906.76,173.99,906.3002,164.1519,904.5182,169.5207,899.1494,167.7387,906.76,173.99" style="stroke:#A80036;stroke-width:1.0;"/><text fill="#000000" font-family="sans-serif" font-size="13" lengthAdjust="spacing" textLength="37" x="724.5" y="91">invoke</text><!--MD5=[ff6d4b24c1a91bdf451691770f7e5cbd]
reverse link XHR to RestfulObjects--><path codeLine="48" d="M571.62,162.07 C578.19,140.67 590.07,115.19 611,102 C667.97,66.11 695.17,100.59 762.5,101 C799.17,101.22 812.3,85.4 845,102 C874.72,117.09 895.42,150.82 906.76,173.99 " fill="none" id="XHR-backto-RestfulObjects" style="stroke:#A80036;stroke-width:1.0;"/><polygon fill="#A80036" points="570.13,167.13,576.5106,159.6275,571.5431,162.3339,568.8368,157.3664,570.13,167.13" style="stroke:#A80036;stroke-width:1.0;"/><text fill="#000000" font-family="sans-serif" font-size="13" lengthAdjust="spacing" textLength="23" x="731.5" y="91">json</text><!--MD5=[4620c297ba6f1d781cd0ed1daa775bee]
reverse link TransferObject to to.Link--><path codeLine="52" d="M488.12,755.69 C486.71,761.34 485.31,767.06 484,772.5 C465.28,850.35 444.52,943.02 435.12,985.35 " fill="none" id="TransferObject-backto-to.Link" style="stroke:#A80036;stroke-width:1.0;stroke-dasharray:7.0,7.0;"/><polygon fill="none" points="481.37,753.83,493.04,736.14,494.94,757.25,481.37,753.83" style="stroke:#A80036;stroke-width:1.0;"/><!--MD5=[b54b6402f2c0aeee3f02bd164175ae12]
reverse link TransferObject to to.Extensions--><path codeLine="53" d="M499,756.71 C498.3,821.89 494.28,948.17 475,1053.5 C468.43,1089.37 456.04,1129.83 447.9,1154.5 " fill="none" id="TransferObject-backto-to.Extensions" style="stroke:#A80036;stroke-width:1.0;stroke-dasharray:7.0,7.0;"/><polygon fill="none" points="492,756.3,499.12,736.34,506,756.39,492,756.3" style="stroke:#A80036;stroke-width:1.0;"/><!--MD5=[b581451216a7d46b23357fd86de0a340]
reverse link TransferObject to to.layout.Layout--><path codeLine="54" d="M517.77,754.59 C520.07,760.53 522.23,766.62 524,772.5 C566.77,914.35 590.72,1091.6 598.32,1154.26 " fill="none" id="TransferObject-backto-to.layout.Layout" style="stroke:#A80036;stroke-width:1.0;stroke-dasharray:7.0,7.0;"/><polygon fill="none" points="511.27,757.19,510.01,736.04,524.19,751.79,511.27,757.19" style="stroke:#A80036;stroke-width:1.0;"/><!--MD5=[0292e4433c127d38dd87063e03d1827b]
reverse link TransferObject to to.Linked--><path codeLine="58" d="M442.72,747.03 C430.91,754.93 418.77,763.64 408,772.5 C381.65,794.18 354.82,822.2 335.9,843.15 " fill="none" id="TransferObject-backto-to.Linked" style="stroke:#A80036;stroke-width:1.0;stroke-dasharray:7.0,7.0;"/><polygon fill="none" points="439.02,741.09,459.61,736.11,446.62,752.85,439.02,741.09" style="stroke:#A80036;stroke-width:1.0;"/><!--MD5=[da56766a10462bcc890735f4ba220c5c]
reverse link to.Linked to to.Result--><path codeLine="59" d="M257.03,894.93 C216.6,911.23 160.33,936.29 115,965.5 C106.05,971.27 97,978.52 89.11,985.42 " fill="none" id="to.Linked-backto-to.Result" style="stroke:#A80036;stroke-width:1.0;stroke-dasharray:7.0,7.0;"/><polygon fill="none" points="254.58,888.37,275.76,887.55,259.72,901.4,254.58,888.37" style="stroke:#A80036;stroke-width:1.0;"/><!--MD5=[609a7d2eede23fcf68d875f7da410297]
reverse link to.Linked to to.ResultList--><path codeLine="60" d="M265.67,918.84 C243.3,940.95 217.08,966.89 198.6,985.16 " fill="none" id="to.Linked-backto-to.ResultList" style="stroke:#A80036;stroke-width:1.0;stroke-dasharray:7.0,7.0;"/><polygon fill="none" points="260.9,913.71,280.04,904.63,270.74,923.67,260.9,913.71" style="stroke:#A80036;stroke-width:1.0;"/><!--MD5=[2344372b37003ed52512b79ad8325196]
reverse link to.Linked to to.Extended--><path codeLine="61" d="M310,924.83 C310,943.05 310,963.07 310,978.95 " fill="none" id="to.Linked-backto-to.Extended" style="stroke:#A80036;stroke-width:1.0;stroke-dasharray:7.0,7.0;"/><polygon fill="none" points="303,924.63,310,904.63,317,924.63,303,924.63" style="stroke:#A80036;stroke-width:1.0;"/><!--MD5=[003c6c4f33e5a65c22164ded883e5d46]
reverse link to.Linked to to.Link--><path codeLine="66" d="M345.46,914.45 C366.13,937.45 391.5,965.66 409.02,985.16 " fill="none" id="to.Linked-backto-to.Link" style="stroke:#A80036;stroke-width:1.0;"/><polygon fill="#FFFFFF" points="336.63,904.63,337.6689,911.7659,344.6554,913.5515,343.6165,906.4156,336.63,904.63" style="stroke:#A80036;stroke-width:1.0;"/><!--MD5=[3bc29dac53101b63679b8c6ff6e02894]
reverse link to.Extended to to.Extensions--><path codeLine="67" d="M342.7,1050.47 C351.32,1061.15 360.57,1072.71 369,1083.5 C387.64,1107.35 408.46,1135.04 422.7,1154.16 " fill="none" id="to.Extended-backto-to.Extensions" style="stroke:#A80036;stroke-width:1.0;"/><polygon fill="#FFFFFF" points="334.34,1040.16,335.0103,1047.3399,341.8957,1049.4826,341.2254,1042.3028,334.34,1040.16" style="stroke:#A80036;stroke-width:1.0;"/><!--MD5=[cb8c64333b052217f1b563adf04eefcf]
reverse link to.Extended to to.Property--><path codeLine="68" d="M242.22,1049.6 C239.46,1050.95 236.71,1052.26 234,1053.5 C187.22,1074.91 165.33,1060.55 125,1092.5 C104.34,1108.87 89,1135.24 79.85,1154.27 " fill="none" id="to.Extended-backto-to.Property" style="stroke:#A80036;stroke-width:1.0;stroke-dasharray:7.0,7.0;"/><polygon fill="none" points="239.37,1043.19,260.35,1040.19,245.82,1055.62,239.37,1043.19" style="stroke:#A80036;stroke-width:1.0;"/><!--MD5=[1a07ac71847d082ca2d8e7391285ac3d]
reverse link to.Extended to to.TObject--><path codeLine="69" d="M266.85,1054.98 C256.04,1066.83 244.76,1079.87 235,1092.5 C219.53,1112.53 204.06,1136.92 193.49,1154.43 " fill="none" id="to.Extended-backto-to.TObject" style="stroke:#A80036;stroke-width:1.0;stroke-dasharray:7.0,7.0;"/><polygon fill="none" points="261.85,1050.07,280.61,1040.2,272.1,1059.61,261.85,1050.07" style="stroke:#A80036;stroke-width:1.0;"/><!--MD5=[09c2f7ddeb4aba1e4193c5b221896601]
reverse link to.Extended to to.Service--><path codeLine="70" d="M303.42,1060.45 C299.32,1091.59 294.23,1130.2 291.05,1154.35 " fill="none" id="to.Extended-backto-to.Service" style="stroke:#A80036;stroke-width:1.0;stroke-dasharray:7.0,7.0;"/><polygon fill="none" points="296.51,1059.27,306.07,1040.36,310.39,1061.1,296.51,1059.27" style="stroke:#A80036;stroke-width:1.0;"/><!--MD5=[f58379db15f2c16fbc74c274baa5ffca]
reverse link to.Extended to to.Member--><path codeLine="71" d="M331.65,1059.08 C335.53,1069.88 338.97,1081.41 341,1092.5 C351.7,1151.09 348.95,1167.48 341,1226.5 C339.24,1239.55 335.49,1253.74 331.96,1265.25 " fill="none" id="to.Extended-backto-to.Member" style="stroke:#A80036;stroke-width:1.0;stroke-dasharray:7.0,7.0;"/><polygon fill="none" points="325,1061.3,324.17,1040.13,338.02,1056.16,325,1061.3" style="stroke:#A80036;stroke-width:1.0;"/><!--MD5=[d5af093094f02e9038ff511b3336013b]
reverse link to.Service to to.Member--><path codeLine="72" d="M299.78,1215.16 C305.23,1231.68 311.56,1250.83 316.38,1265.42 " fill="none" id="to.Service-backto-to.Member" style="stroke:#A80036;stroke-width:1.0;"/><polygon fill="#FFFFFF" points="295.63,1202.62,293.7181,1209.573,299.401,1214.0121,301.3129,1207.059,295.63,1202.62" style="stroke:#A80036;stroke-width:1.0;"/><!--MD5=[b4780f69cd9b953410ea31178db59d43]
reverse link ListAggregator to ObjectList--><path codeLine="80" d="M690,917.9 C690,933.06 690,950.09 690,965.27 " fill="none" id="ListAggregator-backto-ObjectList" style="stroke:#A80036;stroke-width:1.0;"/><polygon fill="#A80036" points="690,904.63,686,910.63,690,916.63,694,910.63,690,904.63" style="stroke:#A80036;stroke-width:1.0;"/><!--MD5=[126f787ca14dc3fd6cd015a28b3d8c4c]
reverse link Aggregator to ListAggregator--><path codeLine="81" d="M760.02,759.84 C743.3,786.86 722.78,820.02 708.29,843.44 " fill="none" id="Aggregator-backto-ListAggregator" style="stroke:#A80036;stroke-width:1.0;stroke-dasharray:7.0,7.0;"/><polygon fill="none" points="754.13,756.04,770.61,742.72,766.04,763.41,754.13,756.04" style="stroke:#A80036;stroke-width:1.0;"/><!--MD5=[b4aab1c3b82142bf25eafd68b215e7d9]
reverse link Aggregator to NavigationAggregator--><path codeLine="84" d="M808.76,761.64 C820.63,790.85 835.18,826.68 844.52,849.67 " fill="none" id="Aggregator-backto-NavigationAggregator" style="stroke:#A80036;stroke-width:1.0;stroke-dasharray:7.0,7.0;"/><polygon fill="none" points="802.12,763.88,801.07,742.72,815.09,758.61,802.12,763.88" style="stroke:#A80036;stroke-width:1.0;"/><!--MD5=[02363c8b3a49bab427c3799533d1b7f7]
reverse link ObjectList to to.layout.Layout--><path codeLine="91" d="M660.86,1065.18 C644.78,1095.35 625.65,1131.25 613.42,1154.2 " fill="none" id="ObjectList-backto-to.layout.Layout" style="stroke:#A80036;stroke-width:1.0;"/><polygon fill="#A80036" points="667.08,1053.51,660.7279,1056.9234,661.4357,1064.0997,667.7877,1060.6863,667.08,1053.51" style="stroke:#A80036;stroke-width:1.0;"/><!--MD5=[2683420a5b2a98e1bda227ab530b68b6]
link EventStore to PES--><path codeLine="94" d="M676.88,258.79 C678.85,282.95 680.99,309.17 682.41,326.48 " fill="none" id="EventStore-PES" style="stroke:#A80036;stroke-width:1.0;stroke-dasharray:7.0,7.0;"/><!--MD5=[dc7d639b028d6d86f7d7b80029c66660]
link PES to LogEntry--><path codeLine="95" d="M681.69,367.76 C679.29,388.22 675.39,421.56 671.69,453.18 " fill="none" id="PES-LogEntry" style="stroke:#A80036;stroke-width:1.0;stroke-dasharray:7.0,7.0;"/><!--MD5=[9256243b97998dd164b7f3e89ee2f45c]
link PR to PES--><path codeLine="98" d="M775.06,218.52 C754.97,246.64 718.12,298.24 698,326.4 " fill="none" id="PR-PES" style="stroke:#A80036;stroke-width:1.0;stroke-dasharray:7.0,7.0;"/><!--MD5=[28e9bca5f42469f8883209bd5c5a0e39]
link PR to Aggregator--><path codeLine="99" d="M789,218.76 C789,297.23 789,587.18 789,681.29 " fill="none" id="PR-Aggregator" style="stroke:#A80036;stroke-width:1.0;stroke-dasharray:7.0,7.0;"/><!--MD5=[9f96ac5cf536ca58febde05fea2e4b29]
@startuml
class XHR {
    invoke()
}

class EventStore<<(S,#FF7700) Singleton>> {
    log:LogEntry[]
    start()
    end()
    fault()
    find(href)
}

class LogEntry {
    url:Href
    title:String
    startedAt:Date
    updatedAt:Date
    request:String
    response:String
    object:TransferObject
    aggregator:Aggregator
    cacheHits:int
}
EventStore o- - LogEntry
LogEntry o- - TransferObject
LogEntry o- - Aggregator

class ResponseHandler<<Facade,ChainOfResponsibility>>{
    handle(LogEntry)
    canHandle(json)
    doHandle()
    parse(json)
}
ResponseHandler -> XHR : json <
ResponseHandler .> TransferObject : converts JSON into TO

XHR -> EventStore


package remote <<Node>> {
interface RestfulObjects
    class ApacheIsis<<(A, #FF7700)Application>>
    class NakedObjects<<(A, #FF7700)Application>>
}
RestfulObjects <|- - ApacheIsis
RestfulObjects <|- - NakedObjects
XHR -> RestfulObjects : invoke
XHR <- RestfulObjects : json


interface TransferObject
TransferObject <|.. to.Link
TransferObject <|.. to.Extensions
TransferObject <|.. to.layout.Layout
interface to.Linked{
    links:Link[]
}
TransferObject <|.. to.Linked
to.Linked <|.. to.Result
to.Linked <|.. to.ResultList
to.Linked <|.. to.Extended

interface to.Extended{
    extensions:Extensions
}
to.Linked o- - to.Link
to.Extended o- - to.Extensions
to.Extended <|.. to.Property
to.Extended <|.. to.TObject
to.Extended <|.. to.Service
to.Extended <|.. to.Member
to.Service o- - to.Member

interface Aggregator {
    update(logEntry)
}
class ListAggregator {
    -list:ObjectList
}
ListAggregator *- - ObjectList
Aggregator <|.. ListAggregator

class NavigationAggregator
Aggregator <|.. NavigationAggregator

class ObjectList {
    list:ObjectAdapter
    -limit:int
    -layout:Layout
}
ObjectList *- - to.layout.Layout

note "<<Pattern>>\nEventSourcing" as PES
EventStore .. PES
PES .. LogEntry

note "<<Pattern>>\nRedux" as PR
PR .. PES
PR .. Aggregator

note "<<Pattern>>\nRemoteFacade" as PRF
PRF .. RestfulObjects

note "<<Pattern>>\nTransferObject" as PTO
PTO .. TransferObject

note "<<Pattern>>\nAggregator" as PA
PA .. Aggregator
@enduml

PlantUML version 1.2021.00(Sun Jan 10 10:25:05 GMT 2021)
(GPL source distribution)
Java Runtime: OpenJDK Runtime Environment
JVM: OpenJDK 64-Bit Server VM
Default Encoding: UTF-8
Language: en
Country: US
--></g></svg>