<?xml version="1.0" encoding="UTF-8" standalone="no"?><svg xmlns="http://www.w3.org/2000/svg" xmlns:xlink="http://www.w3.org/1999/xlink" contentScriptType="application/ecmascript" contentStyleType="text/css" height="531px" preserveAspectRatio="none" style="width:764px;height:531px;background:#FFFFFF;" version="1.1" viewBox="0 0 764 531" width="764px" zoomAndPan="magnify"><defs><filter height="300%" id="f17jnbg7kl8ik0" width="300%" x="-1" y="-1"><feGaussianBlur result="blurOut" stdDeviation="2.0"/><feColorMatrix in="blurOut" result="blurOut2" type="matrix" values="0 0 0 0 0 0 0 0 0 0 0 0 0 0 0 0 0 0 .4 0"/><feOffset dx="4.0" dy="4.0" in="blurOut2" result="blurOut3"/><feBlend in="SourceGraphic" in2="blurOut3" mode="normal"/></filter></defs><g><!--MD5=[4945c737fad898a5ce312252f730d528]
class Renderer--><rect codeLine="1" fill="#FEFECE" filter="url(#f17jnbg7kl8ik0)" height="100.7996" id="Renderer" style="stroke:#A80036;stroke-width:1.5;" width="94" x="282.5" y="158"/><ellipse cx="302.45" cy="174" fill="#A9DCDF" rx="11" ry="11" style="stroke:#A80036;stroke-width:1.0;"/><path d="M303.4031,177.6563 Q303.4031,177.1563 303.6844,176.9844 Q303.9813,176.7969 304.5281,176.7969 L304.9188,176.7969 L304.5281,175.8125 L300.4813,175.8125 L300.0906,176.7969 L300.4813,176.7969 Q301.5906,176.7969 301.5906,177.6563 Q301.5906,178.5 300.4813,178.5 L298.2156,178.5 Q297.0906,178.5 297.0906,177.6563 Q297.0906,177.1406 297.3875,176.9688 Q297.6844,176.7969 298.2313,176.7969 L300.8719,170.2813 L299.7938,170.2813 Q298.6531,170.2813 298.6531,169.4375 Q298.6531,168.9219 298.95,168.7656 Q299.2469,168.5938 299.7938,168.5938 L303.4656,168.5938 L306.8563,176.7969 Q308.0125,176.7969 308.0125,177.6563 Q308.0125,178.5 306.8875,178.5 L304.5281,178.5 Q303.4031,178.5 303.4031,177.6563 Z M303.825,174.1094 L302.4969,170.8438 L301.1531,174.1094 L303.825,174.1094 Z " fill="#000000"/><text fill="#000000" font-family="sans-serif" font-size="12" font-style="italic" lengthAdjust="spacing" textLength="51" x="317.55" y="178.8">Renderer</text><line style="stroke:#A80036;stroke-width:1.5;" x1="283.5" x2="375.5" y1="190" y2="190"/><text fill="#000000" font-family="sans-serif" font-size="11" lengthAdjust="spacing" textLength="80" x="288.5" y="204.9999">iconName:String</text><text fill="#000000" font-family="sans-serif" font-size="11" lengthAdjust="spacing" textLength="47" x="288.5" y="218.1998">title:String</text><text fill="#000000" font-family="sans-serif" font-size="11" lengthAdjust="spacing" textLength="65" x="288.5" y="231.3997">view:RvzView</text><text fill="#000000" font-family="sans-serif" font-size="11" lengthAdjust="spacing" textLength="82" x="288.5" y="244.5996">protocol:Protocol</text><line style="stroke:#A80036;stroke-width:1.5;" x1="283.5" x2="375.5" y1="250.7996" y2="250.7996"/><!--MD5=[a0c27cfb527bdb20a6436baa93834728]
class Protocol--><rect codeLine="9" fill="#FEFECE" filter="url(#f17jnbg7kl8ik0)" height="61.1999" id="Protocol" style="stroke:#A80036;stroke-width:1.5;" width="159" x="473" y="178"/><ellipse cx="525.75" cy="194" fill="#A9DCDF" rx="11" ry="11" style="stroke:#A80036;stroke-width:1.0;"/><path d="M526.7031,197.6563 Q526.7031,197.1563 526.9844,196.9844 Q527.2813,196.7969 527.8281,196.7969 L528.2188,196.7969 L527.8281,195.8125 L523.7813,195.8125 L523.3906,196.7969 L523.7813,196.7969 Q524.8906,196.7969 524.8906,197.6563 Q524.8906,198.5 523.7813,198.5 L521.5156,198.5 Q520.3906,198.5 520.3906,197.6563 Q520.3906,197.1406 520.6875,196.9688 Q520.9844,196.7969 521.5313,196.7969 L524.1719,190.2813 L523.0938,190.2813 Q521.9531,190.2813 521.9531,189.4375 Q521.9531,188.9219 522.25,188.7656 Q522.5469,188.5938 523.0938,188.5938 L526.7656,188.5938 L530.1563,196.7969 Q531.3125,196.7969 531.3125,197.6563 Q531.3125,198.5 530.1875,198.5 L527.8281,198.5 Q526.7031,198.5 526.7031,197.6563 Z M527.125,194.1094 L525.7969,190.8438 L524.4531,194.1094 L527.125,194.1094 Z " fill="#000000"/><text fill="#000000" font-family="sans-serif" font-size="12" font-style="italic" lengthAdjust="spacing" textLength="45" x="546.25" y="198.8">Protocol</text><line style="stroke:#A80036;stroke-width:1.5;" x1="474" x2="631" y1="210" y2="210"/><line style="stroke:#A80036;stroke-width:1.5;" x1="474" x2="631" y1="218" y2="218"/><text fill="#000000" font-family="sans-serif" font-size="11" lengthAdjust="spacing" textLength="147" x="479" y="232.9999">includes(propertyName:String)</text><!--MD5=[b6539e280a383d4bd2138df28ea79f0b]
class ObjectRdr--><rect fill="#FEFECE" filter="url(#f17jnbg7kl8ik0)" height="48" id="ObjectRdr" style="stroke:#A80036;stroke-width:1.5;" width="86" x="243.5" y="340"/><ellipse cx="258.5" cy="356" fill="#ADD1B2" rx="11" ry="11" style="stroke:#A80036;stroke-width:1.0;"/><path d="M257.8594,359.7813 Q258.6563,359.7813 259.2188,359.5938 Q259.7969,359.3906 260.0313,359.1719 Q260.2813,358.9375 260.5156,358.75 Q260.7656,358.5469 260.9844,358.5469 Q261.3281,358.5469 261.5781,358.8125 Q261.8438,359.0625 261.8438,359.3906 Q261.8438,360.125 260.6719,360.8125 Q259.5156,361.4844 257.8125,361.4844 Q255.6563,361.4844 254.2344,360.2188 Q252.8125,358.9531 252.8125,357.0156 L252.8125,355.8906 Q252.8125,353.8594 254.1406,352.4844 Q255.4688,351.0938 257.4375,351.0938 Q258.625,351.0938 259.8438,351.6719 L260.0156,351.75 Q260.3125,351.3438 260.7344,351.3438 Q261.2188,351.3438 261.3906,351.6406 Q261.5781,351.9219 261.5781,352.4688 L261.5781,353.8906 Q261.5781,355.0156 260.7344,355.0156 Q260.4219,355.0156 260.2188,354.8438 Q260.0313,354.6719 259.9844,354.5313 Q259.9531,354.375 259.9063,354.1094 Q259.7969,353.5938 259.2813,353.2813 Q258.7656,352.9688 258.3125,352.8906 Q257.875,352.7969 257.5,352.7969 Q256.2188,352.7969 255.3594,353.6719 Q254.5156,354.5469 254.5156,355.8906 L254.5156,356.9844 Q254.5156,358.2656 255.4219,359.0313 Q256.3281,359.7813 257.8594,359.7813 Z " fill="#000000"/><text fill="#000000" font-family="sans-serif" font-size="12" lengthAdjust="spacing" textLength="54" x="272.5" y="360.8">ObjectRdr</text><line style="stroke:#A80036;stroke-width:1.5;" x1="244.5" x2="328.5" y1="372" y2="372"/><line style="stroke:#A80036;stroke-width:1.5;" x1="244.5" x2="328.5" y1="380" y2="380"/><!--MD5=[d6ae8c69a1e8d6a13eccb0dce773b0aa]
class CollectionRdr--><rect fill="#FEFECE" filter="url(#f17jnbg7kl8ik0)" height="48" id="CollectionRdr" style="stroke:#A80036;stroke-width:1.5;" width="103" x="365" y="340"/><ellipse cx="380" cy="356" fill="#ADD1B2" rx="11" ry="11" style="stroke:#A80036;stroke-width:1.0;"/><path d="M379.3594,359.7813 Q380.1563,359.7813 380.7188,359.5938 Q381.2969,359.3906 381.5313,359.1719 Q381.7813,358.9375 382.0156,358.75 Q382.2656,358.5469 382.4844,358.5469 Q382.8281,358.5469 383.0781,358.8125 Q383.3438,359.0625 383.3438,359.3906 Q383.3438,360.125 382.1719,360.8125 Q381.0156,361.4844 379.3125,361.4844 Q377.1563,361.4844 375.7344,360.2188 Q374.3125,358.9531 374.3125,357.0156 L374.3125,355.8906 Q374.3125,353.8594 375.6406,352.4844 Q376.9688,351.0938 378.9375,351.0938 Q380.125,351.0938 381.3438,351.6719 L381.5156,351.75 Q381.8125,351.3438 382.2344,351.3438 Q382.7188,351.3438 382.8906,351.6406 Q383.0781,351.9219 383.0781,352.4688 L383.0781,353.8906 Q383.0781,355.0156 382.2344,355.0156 Q381.9219,355.0156 381.7188,354.8438 Q381.5313,354.6719 381.4844,354.5313 Q381.4531,354.375 381.4063,354.1094 Q381.2969,353.5938 380.7813,353.2813 Q380.2656,352.9688 379.8125,352.8906 Q379.375,352.7969 379,352.7969 Q377.7188,352.7969 376.8594,353.6719 Q376.0156,354.5469 376.0156,355.8906 L376.0156,356.9844 Q376.0156,358.2656 376.9219,359.0313 Q377.8281,359.7813 379.3594,359.7813 Z " fill="#000000"/><text fill="#000000" font-family="sans-serif" font-size="12" lengthAdjust="spacing" textLength="71" x="394" y="360.8">CollectionRdr</text><line style="stroke:#A80036;stroke-width:1.5;" x1="366" x2="467" y1="372" y2="372"/><line style="stroke:#A80036;stroke-width:1.5;" x1="366" x2="467" y1="380" y2="380"/><!--MD5=[24f215063a43c8314490619b47a99cd0]
class GeoLocationRdr--><rect fill="#FEFECE" filter="url(#f17jnbg7kl8ik0)" height="48" id="GeoLocationRdr" style="stroke:#A80036;stroke-width:1.5;" width="117" x="329" y="469"/><ellipse cx="344" cy="485" fill="#ADD1B2" rx="11" ry="11" style="stroke:#A80036;stroke-width:1.0;"/><path d="M343.3594,488.7813 Q344.1563,488.7813 344.7188,488.5938 Q345.2969,488.3906 345.5313,488.1719 Q345.7813,487.9375 346.0156,487.75 Q346.2656,487.5469 346.4844,487.5469 Q346.8281,487.5469 347.0781,487.8125 Q347.3438,488.0625 347.3438,488.3906 Q347.3438,489.125 346.1719,489.8125 Q345.0156,490.4844 343.3125,490.4844 Q341.1563,490.4844 339.7344,489.2188 Q338.3125,487.9531 338.3125,486.0156 L338.3125,484.8906 Q338.3125,482.8594 339.6406,481.4844 Q340.9688,480.0938 342.9375,480.0938 Q344.125,480.0938 345.3438,480.6719 L345.5156,480.75 Q345.8125,480.3438 346.2344,480.3438 Q346.7188,480.3438 346.8906,480.6406 Q347.0781,480.9219 347.0781,481.4688 L347.0781,482.8906 Q347.0781,484.0156 346.2344,484.0156 Q345.9219,484.0156 345.7188,483.8438 Q345.5313,483.6719 345.4844,483.5313 Q345.4531,483.375 345.4063,483.1094 Q345.2969,482.5938 344.7813,482.2813 Q344.2656,481.9688 343.8125,481.8906 Q343.375,481.7969 343,481.7969 Q341.7188,481.7969 340.8594,482.6719 Q340.0156,483.5469 340.0156,484.8906 L340.0156,485.9844 Q340.0156,487.2656 340.9219,488.0313 Q341.8281,488.7813 343.3594,488.7813 Z " fill="#000000"/><text fill="#000000" font-family="sans-serif" font-size="12" lengthAdjust="spacing" textLength="85" x="358" y="489.8">GeoLocationRdr</text><line style="stroke:#A80036;stroke-width:1.5;" x1="330" x2="445" y1="501" y2="501"/><line style="stroke:#A80036;stroke-width:1.5;" x1="330" x2="445" y1="509" y2="509"/><!--MD5=[3ac3a25a251d55f379c2f348a979e9b0]
class EventRdr--><rect fill="#FEFECE" filter="url(#f17jnbg7kl8ik0)" height="48" id="EventRdr" style="stroke:#A80036;stroke-width:1.5;" width="81" x="481" y="469"/><ellipse cx="496" cy="485" fill="#ADD1B2" rx="11" ry="11" style="stroke:#A80036;stroke-width:1.0;"/><path d="M495.3594,488.7813 Q496.1563,488.7813 496.7188,488.5938 Q497.2969,488.3906 497.5313,488.1719 Q497.7813,487.9375 498.0156,487.75 Q498.2656,487.5469 498.4844,487.5469 Q498.8281,487.5469 499.0781,487.8125 Q499.3438,488.0625 499.3438,488.3906 Q499.3438,489.125 498.1719,489.8125 Q497.0156,490.4844 495.3125,490.4844 Q493.1563,490.4844 491.7344,489.2188 Q490.3125,487.9531 490.3125,486.0156 L490.3125,484.8906 Q490.3125,482.8594 491.6406,481.4844 Q492.9688,480.0938 494.9375,480.0938 Q496.125,480.0938 497.3438,480.6719 L497.5156,480.75 Q497.8125,480.3438 498.2344,480.3438 Q498.7188,480.3438 498.8906,480.6406 Q499.0781,480.9219 499.0781,481.4688 L499.0781,482.8906 Q499.0781,484.0156 498.2344,484.0156 Q497.9219,484.0156 497.7188,483.8438 Q497.5313,483.6719 497.4844,483.5313 Q497.4531,483.375 497.4063,483.1094 Q497.2969,482.5938 496.7813,482.2813 Q496.2656,481.9688 495.8125,481.8906 Q495.375,481.7969 495,481.7969 Q493.7188,481.7969 492.8594,482.6719 Q492.0156,483.5469 492.0156,484.8906 L492.0156,485.9844 Q492.0156,487.2656 492.9219,488.0313 Q493.8281,488.7813 495.3594,488.7813 Z " fill="#000000"/><text fill="#000000" font-family="sans-serif" font-size="12" lengthAdjust="spacing" textLength="49" x="510" y="489.8">EventRdr</text><line style="stroke:#A80036;stroke-width:1.5;" x1="482" x2="561" y1="501" y2="501"/><line style="stroke:#A80036;stroke-width:1.5;" x1="482" x2="561" y1="509" y2="509"/><!--MD5=[95c202079db465f723a54bd2613961c9]
class RvzView--><rect codeLine="18" fill="#FEFECE" filter="url(#f17jnbg7kl8ik0)" height="48" id="RvzView" style="stroke:#A80036;stroke-width:1.5;" width="80" x="122.5" y="184.5"/><ellipse cx="137.5" cy="200.5" fill="#A9DCDF" rx="11" ry="11" style="stroke:#A80036;stroke-width:1.0;"/><path d="M138.4531,204.1563 Q138.4531,203.6563 138.7344,203.4844 Q139.0313,203.2969 139.5781,203.2969 L139.9688,203.2969 L139.5781,202.3125 L135.5313,202.3125 L135.1406,203.2969 L135.5313,203.2969 Q136.6406,203.2969 136.6406,204.1563 Q136.6406,205 135.5313,205 L133.2656,205 Q132.1406,205 132.1406,204.1563 Q132.1406,203.6406 132.4375,203.4688 Q132.7344,203.2969 133.2813,203.2969 L135.9219,196.7813 L134.8438,196.7813 Q133.7031,196.7813 133.7031,195.9375 Q133.7031,195.4219 134,195.2656 Q134.2969,195.0938 134.8438,195.0938 L138.5156,195.0938 L141.9063,203.2969 Q143.0625,203.2969 143.0625,204.1563 Q143.0625,205 141.9375,205 L139.5781,205 Q138.4531,205 138.4531,204.1563 Z M138.875,200.6094 L137.5469,197.3438 L136.2031,200.6094 L138.875,200.6094 Z " fill="#000000"/><text fill="#000000" font-family="sans-serif" font-size="12" font-style="italic" lengthAdjust="spacing" textLength="48" x="151.5" y="205.3">RvzView</text><line style="stroke:#A80036;stroke-width:1.5;" x1="123.5" x2="201.5" y1="216.5" y2="216.5"/><line style="stroke:#A80036;stroke-width:1.5;" x1="123.5" x2="201.5" y1="224.5" y2="224.5"/><!--MD5=[6c3b58582fac924f51ad18fcef343f94]
class ObjectV--><rect fill="#FEFECE" filter="url(#f17jnbg7kl8ik0)" height="48" id="ObjectV" style="stroke:#A80036;stroke-width:1.5;" width="74" x="7.5" y="340"/><ellipse cx="22.5" cy="356" fill="#ADD1B2" rx="11" ry="11" style="stroke:#A80036;stroke-width:1.0;"/><path d="M21.8594,359.7813 Q22.6563,359.7813 23.2188,359.5938 Q23.7969,359.3906 24.0313,359.1719 Q24.2813,358.9375 24.5156,358.75 Q24.7656,358.5469 24.9844,358.5469 Q25.3281,358.5469 25.5781,358.8125 Q25.8438,359.0625 25.8438,359.3906 Q25.8438,360.125 24.6719,360.8125 Q23.5156,361.4844 21.8125,361.4844 Q19.6563,361.4844 18.2344,360.2188 Q16.8125,358.9531 16.8125,357.0156 L16.8125,355.8906 Q16.8125,353.8594 18.1406,352.4844 Q19.4688,351.0938 21.4375,351.0938 Q22.625,351.0938 23.8438,351.6719 L24.0156,351.75 Q24.3125,351.3438 24.7344,351.3438 Q25.2188,351.3438 25.3906,351.6406 Q25.5781,351.9219 25.5781,352.4688 L25.5781,353.8906 Q25.5781,355.0156 24.7344,355.0156 Q24.4219,355.0156 24.2188,354.8438 Q24.0313,354.6719 23.9844,354.5313 Q23.9531,354.375 23.9063,354.1094 Q23.7969,353.5938 23.2813,353.2813 Q22.7656,352.9688 22.3125,352.8906 Q21.875,352.7969 21.5,352.7969 Q20.2188,352.7969 19.3594,353.6719 Q18.5156,354.5469 18.5156,355.8906 L18.5156,356.9844 Q18.5156,358.2656 19.4219,359.0313 Q20.3281,359.7813 21.8594,359.7813 Z " fill="#000000"/><text fill="#000000" font-family="sans-serif" font-size="12" lengthAdjust="spacing" textLength="42" x="36.5" y="360.8">ObjectV</text><line style="stroke:#A80036;stroke-width:1.5;" x1="8.5" x2="80.5" y1="372" y2="372"/><line style="stroke:#A80036;stroke-width:1.5;" x1="8.5" x2="80.5" y1="380" y2="380"/><!--MD5=[29b76ffdfded4b0080fb0804d3ebb794]
class CollectionV--><rect fill="#FEFECE" filter="url(#f17jnbg7kl8ik0)" height="48" id="CollectionV" style="stroke:#A80036;stroke-width:1.5;" width="91" x="117" y="340"/><ellipse cx="132" cy="356" fill="#ADD1B2" rx="11" ry="11" style="stroke:#A80036;stroke-width:1.0;"/><path d="M131.3594,359.7813 Q132.1563,359.7813 132.7188,359.5938 Q133.2969,359.3906 133.5313,359.1719 Q133.7813,358.9375 134.0156,358.75 Q134.2656,358.5469 134.4844,358.5469 Q134.8281,358.5469 135.0781,358.8125 Q135.3438,359.0625 135.3438,359.3906 Q135.3438,360.125 134.1719,360.8125 Q133.0156,361.4844 131.3125,361.4844 Q129.1563,361.4844 127.7344,360.2188 Q126.3125,358.9531 126.3125,357.0156 L126.3125,355.8906 Q126.3125,353.8594 127.6406,352.4844 Q128.9688,351.0938 130.9375,351.0938 Q132.125,351.0938 133.3438,351.6719 L133.5156,351.75 Q133.8125,351.3438 134.2344,351.3438 Q134.7188,351.3438 134.8906,351.6406 Q135.0781,351.9219 135.0781,352.4688 L135.0781,353.8906 Q135.0781,355.0156 134.2344,355.0156 Q133.9219,355.0156 133.7188,354.8438 Q133.5313,354.6719 133.4844,354.5313 Q133.4531,354.375 133.4063,354.1094 Q133.2969,353.5938 132.7813,353.2813 Q132.2656,352.9688 131.8125,352.8906 Q131.375,352.7969 131,352.7969 Q129.7188,352.7969 128.8594,353.6719 Q128.0156,354.5469 128.0156,355.8906 L128.0156,356.9844 Q128.0156,358.2656 128.9219,359.0313 Q129.8281,359.7813 131.3594,359.7813 Z " fill="#000000"/><text fill="#000000" font-family="sans-serif" font-size="12" lengthAdjust="spacing" textLength="59" x="146" y="360.8">CollectionV</text><line style="stroke:#A80036;stroke-width:1.5;" x1="118" x2="207" y1="372" y2="372"/><line style="stroke:#A80036;stroke-width:1.5;" x1="118" x2="207" y1="380" y2="380"/><!--MD5=[ce11c7b60128b8f9f5bdad83b2e63219]
class GeoLocationV--><rect fill="#FEFECE" filter="url(#f17jnbg7kl8ik0)" height="48" id="GeoLocationV" style="stroke:#A80036;stroke-width:1.5;" width="105" x="7" y="469"/><ellipse cx="22" cy="485" fill="#ADD1B2" rx="11" ry="11" style="stroke:#A80036;stroke-width:1.0;"/><path d="M21.3594,488.7813 Q22.1563,488.7813 22.7188,488.5938 Q23.2969,488.3906 23.5313,488.1719 Q23.7813,487.9375 24.0156,487.75 Q24.2656,487.5469 24.4844,487.5469 Q24.8281,487.5469 25.0781,487.8125 Q25.3438,488.0625 25.3438,488.3906 Q25.3438,489.125 24.1719,489.8125 Q23.0156,490.4844 21.3125,490.4844 Q19.1563,490.4844 17.7344,489.2188 Q16.3125,487.9531 16.3125,486.0156 L16.3125,484.8906 Q16.3125,482.8594 17.6406,481.4844 Q18.9688,480.0938 20.9375,480.0938 Q22.125,480.0938 23.3438,480.6719 L23.5156,480.75 Q23.8125,480.3438 24.2344,480.3438 Q24.7188,480.3438 24.8906,480.6406 Q25.0781,480.9219 25.0781,481.4688 L25.0781,482.8906 Q25.0781,484.0156 24.2344,484.0156 Q23.9219,484.0156 23.7188,483.8438 Q23.5313,483.6719 23.4844,483.5313 Q23.4531,483.375 23.4063,483.1094 Q23.2969,482.5938 22.7813,482.2813 Q22.2656,481.9688 21.8125,481.8906 Q21.375,481.7969 21,481.7969 Q19.7188,481.7969 18.8594,482.6719 Q18.0156,483.5469 18.0156,484.8906 L18.0156,485.9844 Q18.0156,487.2656 18.9219,488.0313 Q19.8281,488.7813 21.3594,488.7813 Z " fill="#000000"/><text fill="#000000" font-family="sans-serif" font-size="12" lengthAdjust="spacing" textLength="73" x="36" y="489.8">GeoLocationV</text><line style="stroke:#A80036;stroke-width:1.5;" x1="8" x2="111" y1="501" y2="501"/><line style="stroke:#A80036;stroke-width:1.5;" x1="8" x2="111" y1="509" y2="509"/><!--MD5=[2429bad2ddc5e5d3e57729082f69edc1]
class TimeLineV--><rect fill="#FEFECE" filter="url(#f17jnbg7kl8ik0)" height="48" id="TimeLineV" style="stroke:#A80036;stroke-width:1.5;" width="89" x="147" y="469"/><ellipse cx="162" cy="485" fill="#ADD1B2" rx="11" ry="11" style="stroke:#A80036;stroke-width:1.0;"/><path d="M161.3594,488.7813 Q162.1563,488.7813 162.7188,488.5938 Q163.2969,488.3906 163.5313,488.1719 Q163.7813,487.9375 164.0156,487.75 Q164.2656,487.5469 164.4844,487.5469 Q164.8281,487.5469 165.0781,487.8125 Q165.3438,488.0625 165.3438,488.3906 Q165.3438,489.125 164.1719,489.8125 Q163.0156,490.4844 161.3125,490.4844 Q159.1563,490.4844 157.7344,489.2188 Q156.3125,487.9531 156.3125,486.0156 L156.3125,484.8906 Q156.3125,482.8594 157.6406,481.4844 Q158.9688,480.0938 160.9375,480.0938 Q162.125,480.0938 163.3438,480.6719 L163.5156,480.75 Q163.8125,480.3438 164.2344,480.3438 Q164.7188,480.3438 164.8906,480.6406 Q165.0781,480.9219 165.0781,481.4688 L165.0781,482.8906 Q165.0781,484.0156 164.2344,484.0156 Q163.9219,484.0156 163.7188,483.8438 Q163.5313,483.6719 163.4844,483.5313 Q163.4531,483.375 163.4063,483.1094 Q163.2969,482.5938 162.7813,482.2813 Q162.2656,481.9688 161.8125,481.8906 Q161.375,481.7969 161,481.7969 Q159.7188,481.7969 158.8594,482.6719 Q158.0156,483.5469 158.0156,484.8906 L158.0156,485.9844 Q158.0156,487.2656 158.9219,488.0313 Q159.8281,488.7813 161.3594,488.7813 Z " fill="#000000"/><text fill="#000000" font-family="sans-serif" font-size="12" lengthAdjust="spacing" textLength="57" x="176" y="489.8">TimeLineV</text><line style="stroke:#A80036;stroke-width:1.5;" x1="148" x2="235" y1="501" y2="501"/><line style="stroke:#A80036;stroke-width:1.5;" x1="148" x2="235" y1="509" y2="509"/><!--MD5=[bd1591ba57da9f11d5bbb0d64d5c2717]
class Exposer--><rect codeLine="28" fill="#FEFECE" filter="url(#f17jnbg7kl8ik0)" height="61.1999" id="Exposer" style="stroke:#A80036;stroke-width:1.5;" width="130" x="487.5" y="13.5"/><ellipse cx="527.25" cy="29.5" fill="#ADD1B2" rx="11" ry="11" style="stroke:#A80036;stroke-width:1.0;"/><path d="M526.6094,33.2813 Q527.4063,33.2813 527.9688,33.0938 Q528.5469,32.8906 528.7813,32.6719 Q529.0313,32.4375 529.2656,32.25 Q529.5156,32.0469 529.7344,32.0469 Q530.0781,32.0469 530.3281,32.3125 Q530.5938,32.5625 530.5938,32.8906 Q530.5938,33.625 529.4219,34.3125 Q528.2656,34.9844 526.5625,34.9844 Q524.4063,34.9844 522.9844,33.7188 Q521.5625,32.4531 521.5625,30.5156 L521.5625,29.3906 Q521.5625,27.3594 522.8906,25.9844 Q524.2188,24.5938 526.1875,24.5938 Q527.375,24.5938 528.5938,25.1719 L528.7656,25.25 Q529.0625,24.8438 529.4844,24.8438 Q529.9688,24.8438 530.1406,25.1406 Q530.3281,25.4219 530.3281,25.9688 L530.3281,27.3906 Q530.3281,28.5156 529.4844,28.5156 Q529.1719,28.5156 528.9688,28.3438 Q528.7813,28.1719 528.7344,28.0313 Q528.7031,27.875 528.6563,27.6094 Q528.5469,27.0938 528.0313,26.7813 Q527.5156,26.4688 527.0625,26.3906 Q526.625,26.2969 526.25,26.2969 Q524.9688,26.2969 524.1094,27.1719 Q523.2656,28.0469 523.2656,29.3906 L523.2656,30.4844 Q523.2656,31.7656 524.1719,32.5313 Q525.0781,33.2813 526.6094,33.2813 Z " fill="#000000"/><text fill="#000000" font-family="sans-serif" font-size="12" lengthAdjust="spacing" textLength="43" x="546.75" y="34.3">Exposer</text><line style="stroke:#A80036;stroke-width:1.5;" x1="488.5" x2="616.5" y1="45.5" y2="45.5"/><text fill="#000000" font-family="sans-serif" font-size="11" lengthAdjust="spacing" textLength="118" x="493.5" y="60.4999">delegate:TransferObject</text><line style="stroke:#A80036;stroke-width:1.5;" x1="488.5" x2="616.5" y1="66.6999" y2="66.6999"/><!--MD5=[1baf32c238e7b10acca77db68c6197d6]
class TransferObject--><rect codeLine="32" fill="#90EE90" filter="url(#f17jnbg7kl8ik0)" height="61.1999" id="TransferObject" style="stroke:#A80036;stroke-width:1.5;" width="132" x="320.5" y="13.5"/><ellipse cx="344.95" cy="29.5" fill="#A9DCDF" rx="11" ry="11" style="stroke:#A80036;stroke-width:1.0;"/><path d="M345.9031,33.1563 Q345.9031,32.6563 346.1844,32.4844 Q346.4813,32.2969 347.0281,32.2969 L347.4188,32.2969 L347.0281,31.3125 L342.9813,31.3125 L342.5906,32.2969 L342.9813,32.2969 Q344.0906,32.2969 344.0906,33.1563 Q344.0906,34 342.9813,34 L340.7156,34 Q339.5906,34 339.5906,33.1563 Q339.5906,32.6406 339.8875,32.4688 Q340.1844,32.2969 340.7313,32.2969 L343.3719,25.7813 L342.2938,25.7813 Q341.1531,25.7813 341.1531,24.9375 Q341.1531,24.4219 341.45,24.2656 Q341.7469,24.0938 342.2938,24.0938 L345.9656,24.0938 L349.3563,32.2969 Q350.5125,32.2969 350.5125,33.1563 Q350.5125,34 349.3875,34 L347.0281,34 Q345.9031,34 345.9031,33.1563 Z M346.325,29.6094 L344.9969,26.3438 L343.6531,29.6094 L346.325,29.6094 Z " fill="#000000"/><text fill="#000000" font-family="sans-serif" font-size="12" font-style="italic" lengthAdjust="spacing" textLength="79" x="361.05" y="34.3">TransferObject</text><line style="stroke:#A80036;stroke-width:1.5;" x1="321.5" x2="451.5" y1="45.5" y2="45.5"/><text fill="#000000" font-family="sans-serif" font-size="11" lengthAdjust="spacing" textLength="120" x="326.5" y="60.4999">properties:List&lt;Property&gt;</text><line style="stroke:#A80036;stroke-width:1.5;" x1="321.5" x2="451.5" y1="66.6999" y2="66.6999"/><!--MD5=[6b626634f3bb0842bebd5e499c80b711]
class Property--><rect codeLine="36" fill="#ADD8E6" filter="url(#f17jnbg7kl8ik0)" height="74.3998" id="Property" style="stroke:#A80036;stroke-width:1.5;" width="76" x="187.5" y="7"/><ellipse cx="202.5" cy="23" fill="#ADD1B2" rx="11" ry="11" style="stroke:#A80036;stroke-width:1.0;"/><path d="M201.8594,26.7813 Q202.6563,26.7813 203.2188,26.5938 Q203.7969,26.3906 204.0313,26.1719 Q204.2813,25.9375 204.5156,25.75 Q204.7656,25.5469 204.9844,25.5469 Q205.3281,25.5469 205.5781,25.8125 Q205.8438,26.0625 205.8438,26.3906 Q205.8438,27.125 204.6719,27.8125 Q203.5156,28.4844 201.8125,28.4844 Q199.6563,28.4844 198.2344,27.2188 Q196.8125,25.9531 196.8125,24.0156 L196.8125,22.8906 Q196.8125,20.8594 198.1406,19.4844 Q199.4688,18.0938 201.4375,18.0938 Q202.625,18.0938 203.8438,18.6719 L204.0156,18.75 Q204.3125,18.3438 204.7344,18.3438 Q205.2188,18.3438 205.3906,18.6406 Q205.5781,18.9219 205.5781,19.4688 L205.5781,20.8906 Q205.5781,22.0156 204.7344,22.0156 Q204.4219,22.0156 204.2188,21.8438 Q204.0313,21.6719 203.9844,21.5313 Q203.9531,21.375 203.9063,21.1094 Q203.7969,20.5938 203.2813,20.2813 Q202.7656,19.9688 202.3125,19.8906 Q201.875,19.7969 201.5,19.7969 Q200.2188,19.7969 199.3594,20.6719 Q198.5156,21.5469 198.5156,22.8906 L198.5156,23.9844 Q198.5156,25.2656 199.4219,26.0313 Q200.3281,26.7813 201.8594,26.7813 Z " fill="#000000"/><text fill="#000000" font-family="sans-serif" font-size="12" lengthAdjust="spacing" textLength="44" x="216.5" y="27.8">Property</text><line style="stroke:#A80036;stroke-width:1.5;" x1="188.5" x2="262.5" y1="39" y2="39"/><text fill="#000000" font-family="sans-serif" font-size="11" lengthAdjust="spacing" textLength="61" x="193.5" y="53.9999">name: String</text><text fill="#000000" font-family="sans-serif" font-size="11" lengthAdjust="spacing" textLength="52" x="193.5" y="67.1998">type: Class</text><line style="stroke:#A80036;stroke-width:1.5;" x1="188.5" x2="262.5" y1="73.3998" y2="73.3998"/><!--MD5=[1e477e70b6ee4c5ba5660faf99f4d9ee]
class TimeLinePtc--><rect codeLine="43" fill="#ADD8E6" filter="url(#f17jnbg7kl8ik0)" height="87.5997" id="TimeLinePtc" style="stroke:#A80036;stroke-width:1.5;" width="98" x="503.5" y="320"/><ellipse cx="518.5" cy="336" fill="#ADD1B2" rx="11" ry="11" style="stroke:#A80036;stroke-width:1.0;"/><path d="M517.8594,339.7813 Q518.6563,339.7813 519.2188,339.5938 Q519.7969,339.3906 520.0313,339.1719 Q520.2813,338.9375 520.5156,338.75 Q520.7656,338.5469 520.9844,338.5469 Q521.3281,338.5469 521.5781,338.8125 Q521.8438,339.0625 521.8438,339.3906 Q521.8438,340.125 520.6719,340.8125 Q519.5156,341.4844 517.8125,341.4844 Q515.6563,341.4844 514.2344,340.2188 Q512.8125,338.9531 512.8125,337.0156 L512.8125,335.8906 Q512.8125,333.8594 514.1406,332.4844 Q515.4688,331.0938 517.4375,331.0938 Q518.625,331.0938 519.8438,331.6719 L520.0156,331.75 Q520.3125,331.3438 520.7344,331.3438 Q521.2188,331.3438 521.3906,331.6406 Q521.5781,331.9219 521.5781,332.4688 L521.5781,333.8906 Q521.5781,335.0156 520.7344,335.0156 Q520.4219,335.0156 520.2188,334.8438 Q520.0313,334.6719 519.9844,334.5313 Q519.9531,334.375 519.9063,334.1094 Q519.7969,333.5938 519.2813,333.2813 Q518.7656,332.9688 518.3125,332.8906 Q517.875,332.7969 517.5,332.7969 Q516.2188,332.7969 515.3594,333.6719 Q514.5156,334.5469 514.5156,335.8906 L514.5156,336.9844 Q514.5156,338.2656 515.4219,339.0313 Q516.3281,339.7813 517.8594,339.7813 Z " fill="#000000"/><text fill="#000000" font-family="sans-serif" font-size="12" lengthAdjust="spacing" textLength="66" x="532.5" y="340.8">TimeLinePtc</text><line style="stroke:#A80036;stroke-width:1.5;" x1="504.5" x2="600.5" y1="352" y2="352"/><text fill="#000000" font-family="sans-serif" font-size="11" lengthAdjust="spacing" textLength="71" x="509.5" y="366.9999">start:DateTime</text><text fill="#000000" font-family="sans-serif" font-size="11" lengthAdjust="spacing" textLength="68" x="509.5" y="380.1998">end:DateTime</text><text fill="#000000" font-family="sans-serif" font-size="11" lengthAdjust="spacing" textLength="76" x="509.5" y="393.3997">duration:Double</text><line style="stroke:#A80036;stroke-width:1.5;" x1="504.5" x2="600.5" y1="399.5997" y2="399.5997"/><!--MD5=[701a273d35b20c028becaec0330689a0]
class GeoLocationPtc--><rect codeLine="48" fill="#ADD8E6" filter="url(#f17jnbg7kl8ik0)" height="74.3998" id="GeoLocationPtc" style="stroke:#A80036;stroke-width:1.5;" width="114" x="636.5" y="327"/><ellipse cx="651.5" cy="343" fill="#ADD1B2" rx="11" ry="11" style="stroke:#A80036;stroke-width:1.0;"/><path d="M650.8594,346.7813 Q651.6563,346.7813 652.2188,346.5938 Q652.7969,346.3906 653.0313,346.1719 Q653.2813,345.9375 653.5156,345.75 Q653.7656,345.5469 653.9844,345.5469 Q654.3281,345.5469 654.5781,345.8125 Q654.8438,346.0625 654.8438,346.3906 Q654.8438,347.125 653.6719,347.8125 Q652.5156,348.4844 650.8125,348.4844 Q648.6563,348.4844 647.2344,347.2188 Q645.8125,345.9531 645.8125,344.0156 L645.8125,342.8906 Q645.8125,340.8594 647.1406,339.4844 Q648.4688,338.0938 650.4375,338.0938 Q651.625,338.0938 652.8438,338.6719 L653.0156,338.75 Q653.3125,338.3438 653.7344,338.3438 Q654.2188,338.3438 654.3906,338.6406 Q654.5781,338.9219 654.5781,339.4688 L654.5781,340.8906 Q654.5781,342.0156 653.7344,342.0156 Q653.4219,342.0156 653.2188,341.8438 Q653.0313,341.6719 652.9844,341.5313 Q652.9531,341.375 652.9063,341.1094 Q652.7969,340.5938 652.2813,340.2813 Q651.7656,339.9688 651.3125,339.8906 Q650.875,339.7969 650.5,339.7969 Q649.2188,339.7969 648.3594,340.6719 Q647.5156,341.5469 647.5156,342.8906 L647.5156,343.9844 Q647.5156,345.2656 648.4219,346.0313 Q649.3281,346.7813 650.8594,346.7813 Z " fill="#000000"/><text fill="#000000" font-family="sans-serif" font-size="12" lengthAdjust="spacing" textLength="82" x="665.5" y="347.8">GeoLocationPtc</text><line style="stroke:#A80036;stroke-width:1.5;" x1="637.5" x2="749.5" y1="359" y2="359"/><text fill="#000000" font-family="sans-serif" font-size="11" lengthAdjust="spacing" textLength="71" x="642.5" y="373.9999">latitude:Double</text><text fill="#000000" font-family="sans-serif" font-size="11" lengthAdjust="spacing" textLength="80" x="642.5" y="387.1998">longitude:Double</text><line style="stroke:#A80036;stroke-width:1.5;" x1="637.5" x2="749.5" y1="393.3998" y2="393.3998"/><!--MD5=[776de531de4fc26eb6aa1d58b5cd9cef]
link Renderer to Protocol--><path codeLine="7" d="M376.54,208.5 C406.86,208.5 437.18,208.5 467.51,208.5 " fill="none" id="Renderer-to-Protocol" style="stroke:#A80036;stroke-width:1.0;"/><polygon fill="#A80036" points="472.77,208.5,463.77,204.5,467.77,208.5,463.77,212.5,472.77,208.5" style="stroke:#A80036;stroke-width:1.0;"/><!--MD5=[3cb176c019a1793214f32deabd48c781]
reverse link Renderer to ObjectRdr--><path codeLine="13" d="M310.11,278.72 C303.93,300.77 297.52,323.65 292.94,340 " fill="none" id="Renderer-backto-ObjectRdr" style="stroke:#A80036;stroke-width:1.0;"/><polygon fill="none" points="303.4,276.71,315.54,259.34,316.88,280.48,303.4,276.71" style="stroke:#A80036;stroke-width:1.0;"/><!--MD5=[79e6345601408747d594ba1142016117]
reverse link Renderer to CollectionRdr--><path codeLine="14" d="M367.78,277.04 C380.57,299.6 393.96,323.23 403.46,340 " fill="none" id="Renderer-backto-CollectionRdr" style="stroke:#A80036;stroke-width:1.0;"/><polygon fill="none" points="361.52,280.19,357.75,259.34,373.7,273.29,361.52,280.19" style="stroke:#A80036;stroke-width:1.0;"/><!--MD5=[5334b18cc6877e1cf58b3875dbf02db5]
reverse link CollectionRdr to GeoLocationRdr--><path codeLine="15" d="M406.69,407.98 C402.03,428.35 396.66,451.88 392.79,468.85 " fill="none" id="CollectionRdr-backto-GeoLocationRdr" style="stroke:#A80036;stroke-width:1.0;"/><polygon fill="none" points="399.9,406.23,411.18,388.29,413.55,409.35,399.9,406.23" style="stroke:#A80036;stroke-width:1.0;"/><!--MD5=[b785149fed819890372fbd3bca0aabd2]
reverse link CollectionRdr to EventRdr--><path codeLine="16" d="M448.61,403.84 C466.19,425.1 487.37,450.72 502.36,468.85 " fill="none" id="CollectionRdr-backto-EventRdr" style="stroke:#A80036;stroke-width:1.0;"/><polygon fill="none" points="443.11,408.17,435.76,388.29,453.9,399.25,443.11,408.17" style="stroke:#A80036;stroke-width:1.0;"/><!--MD5=[2da640da9b59622cb3bac1ac30dc99b9]
reverse link RvzView to ObjectV--><path codeLine="21" d="M132.17,248.96 C109.99,277.8 80.68,315.94 62.2,339.97 " fill="none" id="RvzView-backto-ObjectV" style="stroke:#A80036;stroke-width:1.0;"/><polygon fill="none" points="126.84,244.4,144.58,232.81,137.94,252.94,126.84,244.4" style="stroke:#A80036;stroke-width:1.0;"/><!--MD5=[b08b8e99e4e9ea3e34a5770c3e3dba0a]
reverse link RvzView to CollectionV--><path codeLine="22" d="M162.5,253.08 C162.5,281.35 162.5,317.06 162.5,339.97 " fill="none" id="RvzView-backto-CollectionV" style="stroke:#A80036;stroke-width:1.0;"/><polygon fill="none" points="155.5,252.81,162.5,232.81,169.5,252.81,155.5,252.81" style="stroke:#A80036;stroke-width:1.0;"/><!--MD5=[a8d99c4feee4d59c569cd04ed3fef6ba]
reverse link CollectionV to GeoLocationV--><path codeLine="23" d="M131,403.84 C113.76,425.1 92.98,450.72 78.27,468.85 " fill="none" id="CollectionV-backto-GeoLocationV" style="stroke:#A80036;stroke-width:1.0;"/><polygon fill="none" points="125.57,399.42,143.61,388.29,136.45,408.24,125.57,399.42" style="stroke:#A80036;stroke-width:1.0;"/><!--MD5=[c4012de9ed0fa974500d2b5593aae4a0]
reverse link CollectionV to TimeLineV--><path codeLine="24" d="M172.31,407.98 C176.97,428.35 182.34,451.88 186.21,468.85 " fill="none" id="CollectionV-backto-TimeLineV" style="stroke:#A80036;stroke-width:1.0;"/><polygon fill="none" points="165.45,409.35,167.82,388.29,179.1,406.23,165.45,409.35" style="stroke:#A80036;stroke-width:1.0;"/><!--MD5=[970a0d53f6f6bcaf9af3e821d0998ddc]
reverse link RvzView to Renderer--><path codeLine="26" d="M207.92,208.5 C232.75,208.5 257.58,208.5 282.42,208.5 " fill="none" id="RvzView-backto-Renderer" style="stroke:#A80036;stroke-width:1.0;"/><polygon fill="#A80036" points="202.62,208.5,211.62,212.5,207.62,208.5,211.62,204.5,202.62,208.5" style="stroke:#A80036;stroke-width:1.0;"/><!--MD5=[7f100461146c8f8905a6594a925a30e1]
reverse link TransferObject to Exposer--><path codeLine="35" d="M457.79,44 C467.65,44 477.5,44 487.36,44 " fill="none" id="TransferObject-backto-Exposer" style="stroke:#A80036;stroke-width:1.0;"/><polygon fill="#A80036" points="452.64,44,461.64,48,457.64,44,461.64,40,452.64,44" style="stroke:#A80036;stroke-width:1.0;"/><!--MD5=[ca8c0f72eda8f7f565b74e74c1e8a3d2]
link Property to TransferObject--><path codeLine="40" d="M263.65,44 C276.74,44 291.92,44 307.05,44 " fill="none" id="Property-to-TransferObject" style="stroke:#A80036;stroke-width:1.0;"/><polygon fill="#A80036" points="320.28,44,314.28,40,308.28,44,314.28,48,320.28,44" style="stroke:#A80036;stroke-width:1.0;"/><text fill="#000000" font-family="sans-serif" font-size="13" lengthAdjust="spacing" textLength="20" x="282" y="38">has</text><!--MD5=[b98afa943d79ecfbff6cd27acaf81a75]
link Exposer to Protocol--><path codeLine="41" d="M552.5,74.81 C552.5,102.41 552.5,143.47 552.5,172.59 " fill="none" id="Exposer-to-Protocol" style="stroke:#A80036;stroke-width:1.0;"/><polygon fill="#A80036" points="552.5,177.88,556.5,168.88,552.5,172.88,548.5,168.88,552.5,177.88" style="stroke:#A80036;stroke-width:1.0;"/><text fill="#000000" font-family="sans-serif" font-size="13" lengthAdjust="spacing" textLength="128" x="553.5" y="125">delegate.conformsTo()</text><!--MD5=[49f8108e56dec56423f64f1d301d4747]
reverse link Protocol to GeoLocationPtc--><path codeLine="52" d="M593.23,253.85 C614.48,276.97 640.14,304.91 660.19,326.73 " fill="none" id="Protocol-backto-GeoLocationPtc" style="stroke:#A80036;stroke-width:1.0;"/><polygon fill="none" points="588.06,258.56,579.69,239.1,598.37,249.09,588.06,258.56" style="stroke:#A80036;stroke-width:1.0;"/><!--MD5=[8b653c0a697b1fbb7536d936f8568711]
reverse link Protocol to TimeLinePtc--><path codeLine="53" d="M552.5,259.32 C552.5,278.84 552.5,301.02 552.5,319.85 " fill="none" id="Protocol-backto-TimeLinePtc" style="stroke:#A80036;stroke-width:1.0;"/><polygon fill="none" points="545.5,259.1,552.5,239.1,559.5,259.1,545.5,259.1" style="stroke:#A80036;stroke-width:1.0;"/><!--MD5=[daa8f1653366eec0c3aa979e6a8362d8]
@startuml
abstract class Renderer {
    iconName:String
    title:String
    view:RvzView
    protocol:Protocol
}
Renderer -right-> Protocol

abstract class Protocol {
    includes(propertyName:String)
}

Renderer <|-down- ObjectRdr
Renderer <|-down- CollectionRdr
CollectionRdr <|-down- GeoLocationRdr
CollectionRdr <|-down- EventRdr

abstract class RvzView {
}

RvzView <|-down- ObjectV
RvzView <|-down- CollectionV
CollectionV <|-down- GeoLocationV
CollectionV <|-down- TimeLineV

Renderer -left-> RvzView

class Exposer {
    delegate:TransferObject
}

abstract class TransferObject #LightGreen {
    properties:List<Property>
}
Exposer -left-> TransferObject
class Property #LightBlue {
    name: String
    type: Class
}
TransferObject *-left- Property : has
Exposer -down-> Protocol : delegate.conformsTo()

class TimeLinePtc #LightBlue {
start:DateTime
end:DateTime
duration:Double
}
class GeoLocationPtc #LightBlue {
latitude:Double
longitude:Double
}
Protocol <|-down- GeoLocationPtc
Protocol <|-down- TimeLinePtc
@enduml

PlantUML version 1.2021.16(Wed Dec 08 17:25:22 GMT 2021)
(GPL source distribution)
Java Runtime: OpenJDK Runtime Environment
JVM: OpenJDK 64-Bit Server VM
Default Encoding: UTF-8
Language: en
Country: US
--></g></svg>