<?xml version="1.0" encoding="UTF-8" standalone="no"?><svg xmlns="http://www.w3.org/2000/svg" xmlns:xlink="http://www.w3.org/1999/xlink" contentStyleType="text/css" height="874px" preserveAspectRatio="none" style="width:1231px;height:874px;background:#FFFFFF;" version="1.1" viewBox="0 0 1231 874" width="1231px" zoomAndPan="magnify"><defs/><g><!--MD5=[ea106891b45ca80f3b40e042460ac2e3]
cluster gradle--><g id="cluster_gradle"><rect height="184" rx="2.5" ry="2.5" style="stroke:#181818;stroke-width:1.0;fill:none;" width="411" x="122.5" y="248.5"/><rect height="10" style="stroke:#181818;stroke-width:1.0;fill:none;" width="15" x="513.5" y="253.5"/><rect height="2" style="stroke:#181818;stroke-width:1.0;fill:none;" width="4" x="511.5" y="255.5"/><rect height="2" style="stroke:#181818;stroke-width:1.0;fill:none;" width="4" x="511.5" y="259.5"/><text fill="#000000" font-family="sans-serif" font-size="14" font-style="italic" lengthAdjust="spacing" textLength="69" x="293.5" y="275.4999">«build.tool»</text><text fill="#000000" font-family="sans-serif" font-size="14" font-weight="bold" lengthAdjust="spacing" textLength="43" x="306.5" y="292.2999">gradle</text></g><!--MD5=[3fb92fba1735106d511c1d05a9f83ed2]
cluster root--><g id="cluster_root"><path d="M783,287.5 L812,287.5 A3.75,3.75 0 0 1 814.5,290 L821.5,310.2999 L1082,310.2999 A2.5,2.5 0 0 1 1084.5,312.7999 L1084.5,726 A2.5,2.5 0 0 1 1082,728.5 L783,728.5 A2.5,2.5 0 0 1 780.5,726 L780.5,290 A2.5,2.5 0 0 1 783,287.5 " fill="#FFD700" style="stroke:#000000;stroke-width:1.5;"/><line style="stroke:#000000;stroke-width:1.5;" x1="780.5" x2="821.5" y1="310.2999" y2="310.2999"/><text fill="#000000" font-family="sans-serif" font-size="14" font-weight="bold" lengthAdjust="spacing" textLength="28" x="784.5" y="303.4999">root</text></g><!--MD5=[f28f95b14f0c83ad8c9a9e34ae6e57b1]
cluster NM--><g id="cluster_NM"><path d="M90,608.5 L225,608.5 A3.75,3.75 0 0 1 227.5,611 L234.5,631.2999 L335,631.2999 A2.5,2.5 0 0 1 337.5,633.7999 L337.5,739 A2.5,2.5 0 0 1 335,741.5 L90,741.5 A2.5,2.5 0 0 1 87.5,739 L87.5,611 A2.5,2.5 0 0 1 90,608.5 " fill="#FFD700" style="stroke:#000000;stroke-width:1.5;"/><line style="stroke:#000000;stroke-width:1.5;" x1="87.5" x2="234.5" y1="631.2999" y2="631.2999"/><text fill="#000000" font-family="sans-serif" font-size="14" font-weight="bold" lengthAdjust="spacing" textLength="134" x="91.5" y="624.4999">root.node_modules</text></g><!--MD5=[d3f63dd2493a0d75452850aaedea626f]
entity KF--><g id="elem_KF"><rect fill="#F1F1F1" height="63.5999" rx="2.5" ry="2.5" style="stroke:#181818;stroke-width:0.5;" width="134" x="375.5" y="344.5"/><rect fill="#F1F1F1" height="10" style="stroke:#181818;stroke-width:0.5;" width="15" x="489.5" y="349.5"/><rect fill="#F1F1F1" height="2" style="stroke:#181818;stroke-width:0.5;" width="4" x="487.5" y="351.5"/><rect fill="#F1F1F1" height="2" style="stroke:#181818;stroke-width:0.5;" width="4" x="487.5" y="355.5"/><text fill="#000000" font-family="sans-serif" font-size="14" font-style="italic" lengthAdjust="spacing" textLength="94" x="390.5" y="378.4999">«gradle.plugin»</text><text fill="#000000" font-family="sans-serif" font-size="14" lengthAdjust="spacing" textLength="87" x="394" y="395.2999">kotlinFrontend</text></g><!--MD5=[f2facf9cee52d933c99f4d69f0fb534a]
entity K2JS--><g id="elem_K2JS"><rect fill="#F1F1F1" height="63.5999" rx="2.5" ry="2.5" style="stroke:#181818;stroke-width:0.5;" width="111" x="244" y="344.5"/><rect fill="#F1F1F1" height="10" style="stroke:#181818;stroke-width:0.5;" width="15" x="335" y="349.5"/><rect fill="#F1F1F1" height="2" style="stroke:#181818;stroke-width:0.5;" width="4" x="333" y="351.5"/><rect fill="#F1F1F1" height="2" style="stroke:#181818;stroke-width:0.5;" width="4" x="333" y="355.5"/><text fill="#000000" font-family="sans-serif" font-size="14" font-style="italic" lengthAdjust="spacing" textLength="71" x="259" y="378.4999">«transpiler»</text><text fill="#000000" font-family="sans-serif" font-size="14" lengthAdjust="spacing" textLength="50" x="269.5" y="395.2999">kotlin2js</text></g><!--MD5=[2a58a75ea05b7a5fb0834acae81f83e0]
entity DCE--><g id="elem_DCE"><rect fill="#F1F1F1" height="46.7999" rx="2.5" ry="2.5" style="stroke:#181818;stroke-width:0.5;" width="69" x="155" y="353"/><rect fill="#F1F1F1" height="10" style="stroke:#181818;stroke-width:0.5;" width="15" x="204" y="358"/><rect fill="#F1F1F1" height="2" style="stroke:#181818;stroke-width:0.5;" width="4" x="202" y="360"/><rect fill="#F1F1F1" height="2" style="stroke:#181818;stroke-width:0.5;" width="4" x="202" y="364"/><text fill="#000000" font-family="sans-serif" font-size="14" lengthAdjust="spacing" textLength="29" x="170" y="386.9999">DCE</text></g><!--MD5=[a4439dd5eea49f958aa42ae95b9e5837]
entity GCFG--><g id="elem_GCFG"><rect fill="#F1F1F1" height="70.3998" rx="2.5" ry="2.5" style="stroke:#181818;stroke-width:0.5;" width="124" x="796.5" y="341.5"/><text fill="#000000" font-family="sans-serif" font-size="14" lengthAdjust="spacing" textLength="73" x="806.5" y="365.4999">build.gradle</text><text fill="#000000" font-family="sans-serif" font-size="14" lengthAdjust="spacing" textLength="91" x="806.5" y="382.2999">settings.gradle</text><text fill="#000000" font-family="sans-serif" font-size="14" lengthAdjust="spacing" textLength="104" x="806.5" y="399.0998">gradle.properties</text></g><!--MD5=[c17091bb9450719de56802ca6e5e1ef1]
entity KC--><g id="elem_KC"><rect fill="#F1F1F1" height="36.7999" rx="2.5" ry="2.5" style="stroke:#181818;stroke-width:0.5;" width="103" x="797" y="675.5"/><text fill="#000000" font-family="sans-serif" font-size="14" lengthAdjust="spacing" textLength="83" x="807" y="699.4999">karma.conf.js</text></g><!--MD5=[e4aaec21de269c7bd285ce6876c0ce8e]
entity PJ--><g id="elem_PJ"><rect fill="#F1F1F1" height="36.7999" rx="2.5" ry="2.5" style="stroke:#181818;stroke-width:0.5;" width="102" x="966.5" y="675.5"/><text fill="#000000" font-family="sans-serif" font-size="14" lengthAdjust="spacing" textLength="82" x="976.5" y="699.4999">package.json</text></g><!--MD5=[1589b7aebea7faa6412065a7cb4c3aef]
entity root.build--><g id="elem_root.build"><path d="M186.5,516 L256.5,516 A3.75,3.75 0 0 1 259,518.5 L266,538.7999 L280.5,538.7999 A2.5,2.5 0 0 1 283,541.2999 L283,553.2999 A2.5,2.5 0 0 1 280.5,555.7999 L186.5,555.7999 A2.5,2.5 0 0 1 184,553.2999 L184,518.5 A2.5,2.5 0 0 1 186.5,516 " fill="#FFD700" style="stroke:#181818;stroke-width:0.5;"/><line style="stroke:#181818;stroke-width:0.5;" x1="184" x2="266" y1="538.7999" y2="538.7999"/><text fill="#000000" font-family="sans-serif" font-size="14" lengthAdjust="spacing" textLength="57" x="194" y="532.9999">root.build</text></g><!--MD5=[7eb69e8c49b0f1a4682e6d31435646e4]
entity karma--><g id="elem_karma"><rect fill="#F1F1F1" height="46.7999" rx="2.5" ry="2.5" style="stroke:#181818;stroke-width:0.5;" width="79" x="119" y="670.5"/><rect fill="#F1F1F1" height="10" style="stroke:#181818;stroke-width:0.5;" width="15" x="178" y="675.5"/><rect fill="#F1F1F1" height="2" style="stroke:#181818;stroke-width:0.5;" width="4" x="176" y="677.5"/><rect fill="#F1F1F1" height="2" style="stroke:#181818;stroke-width:0.5;" width="4" x="176" y="681.5"/><text fill="#000000" font-family="sans-serif" font-size="14" lengthAdjust="spacing" textLength="39" x="134" y="704.4999">karma</text></g><!--MD5=[83d7c66368a3272c2ae5778d39252274]
entity webpack--><g id="elem_webpack"><rect fill="#F1F1F1" height="46.7999" rx="2.5" ry="2.5" style="stroke:#181818;stroke-width:0.5;" width="95" x="218" y="670.5"/><rect fill="#F1F1F1" height="10" style="stroke:#181818;stroke-width:0.5;" width="15" x="293" y="675.5"/><rect fill="#F1F1F1" height="2" style="stroke:#181818;stroke-width:0.5;" width="4" x="291" y="677.5"/><rect fill="#F1F1F1" height="2" style="stroke:#181818;stroke-width:0.5;" width="4" x="291" y="681.5"/><text fill="#000000" font-family="sans-serif" font-size="14" lengthAdjust="spacing" textLength="55" x="233" y="704.4999">webpack</text></g><!--MD5=[42d6953858ce5900db35acbc378ad4b0]
entity NodeJS--><g id="elem_NodeJS"><rect fill="#F1F1F1" height="46.7999" rx="2.5" ry="2.5" style="stroke:#181818;stroke-width:0.5;" width="88" x="220.5" y="45.5"/><rect fill="#F1F1F1" height="10" style="stroke:#181818;stroke-width:0.5;" width="15" x="288.5" y="50.5"/><rect fill="#F1F1F1" height="2" style="stroke:#181818;stroke-width:0.5;" width="4" x="286.5" y="52.5"/><rect fill="#F1F1F1" height="2" style="stroke:#181818;stroke-width:0.5;" width="4" x="286.5" y="56.5"/><text fill="#000000" font-family="sans-serif" font-size="14" lengthAdjust="spacing" textLength="48" x="235.5" y="79.4999">NodeJS</text></g><!--MD5=[e9dede37b31fdda9664526f66258b036]
entity Browser--><g id="elem_Browser"><rect fill="#F1F1F1" height="46.7999" rx="2.5" ry="2.5" style="stroke:#181818;stroke-width:0.5;" width="90" x="113.5" y="821.5"/><rect fill="#F1F1F1" height="10" style="stroke:#181818;stroke-width:0.5;" width="15" x="183.5" y="826.5"/><rect fill="#F1F1F1" height="2" style="stroke:#181818;stroke-width:0.5;" width="4" x="181.5" y="828.5"/><rect fill="#F1F1F1" height="2" style="stroke:#181818;stroke-width:0.5;" width="4" x="181.5" y="832.5"/><text fill="#000000" font-family="sans-serif" font-size="14" lengthAdjust="spacing" textLength="50" x="128.5" y="855.4999">Browser</text></g><!--MD5=[f664b171d46fe37ddaaa8e800b616d7d]
entity DEV--><g id="elem_DEV"><ellipse cx="167.5" cy="14" fill="#F1F1F1" rx="8" ry="8" style="stroke:#181818;stroke-width:0.5;"/><path d="M167.5,22 L167.5,49 M154.5,30 L180.5,30 M167.5,49 L154.5,64 M167.5,49 L180.5,64 " fill="none" style="stroke:#181818;stroke-width:0.5;"/><text fill="#000000" font-family="sans-serif" font-size="14" lengthAdjust="spacing" textLength="65" x="135" y="79.4999">Developer,</text><text fill="#000000" font-family="sans-serif" font-size="14" lengthAdjust="spacing" textLength="40" x="135" y="96.2999">almost</text><text fill="#000000" font-family="sans-serif" font-size="14" lengthAdjust="spacing" textLength="30" x="135" y="113.0998">gone</text><text fill="#000000" font-family="sans-serif" font-size="14" lengthAdjust="spacing" textLength="48" x="135" y="129.8997">crazy;-)</text></g><g id="elem_RUN"><ellipse cx="167.6005" cy="166.4201" fill="#F1F1F1" rx="72.6005" ry="16.9201" style="stroke:#181818;stroke-width:0.5;"/><text fill="#000000" font-family="sans-serif" font-size="14" lengthAdjust="spacing" textLength="99" x="118.1005" y="170.0201">$ gradlew -t run</text></g><g id="elem_NI"><ellipse cx="546.2709" cy="535.9542" fill="#F1F1F1" rx="102.7709" ry="22.9542" style="stroke:#181818;stroke-width:0.5;"/><text fill="#000000" font-family="sans-serif" font-size="14" lengthAdjust="spacing" textLength="169" x="461.7709" y="539.5542">$ npm install &lt;&gt; --save-dev</text></g><g id="elem_TEST"><ellipse cx="63.5968" cy="535.912" fill="#F1F1F1" rx="57.5968" ry="14.912" style="stroke:#181818;stroke-width:0.5;"/><text fill="#000000" font-family="sans-serif" font-size="14" lengthAdjust="spacing" textLength="65" x="28.2414" y="540.1349">$ npm test</text></g><!--MD5=[ff7a41c1395361ee029806f0eb7e0726]
entity npm--><g id="elem_npm"><rect fill="#F1F1F1" height="46.7999" rx="2.5" ry="2.5" style="stroke:#181818;stroke-width:0.5;" width="67" x="697" y="512.5"/><rect fill="#F1F1F1" height="10" style="stroke:#181818;stroke-width:0.5;" width="15" x="744" y="517.5"/><rect fill="#F1F1F1" height="2" style="stroke:#181818;stroke-width:0.5;" width="4" x="742" y="519.5"/><rect fill="#F1F1F1" height="2" style="stroke:#181818;stroke-width:0.5;" width="4" x="742" y="523.5"/><text fill="#000000" font-family="sans-serif" font-size="14" lengthAdjust="spacing" textLength="27" x="712" y="546.4999">npm</text></g><g id="elem_GMN26812754"><path d="M1101,681 L1101,690 L1068.76,694 L1101,698 L1101,706.6 A0,0 0 0 0 1101,706.6 L1224,706.6 A0,0 0 0 0 1224,706.6 L1224,691 L1214,681 L1101,681 A0,0 0 0 0 1101,681 " fill="#FEFFDD" style="stroke:#181818;stroke-width:0.5;"/><path d="M1214,681 L1214,691 L1224,691 L1214,681 " fill="#FEFFDD" style="stroke:#181818;stroke-width:0.5;"/><text fill="#000000" font-family="sans-serif" font-size="13" lengthAdjust="spacing" textLength="102" x="1107" y="699">package.json.lock</text></g><!--MD5=[c668cf785a96bc7a2782c7867237511f]
link GCFG to PJ--><!--MD5=[c657d0b6483e9c774ed213975b370d94]
link gradle to GCFG--><g id="link_gradle_GCFG"><path d="M122.4079,346.595 C122.3682,346.4057 122.3286,346.2157 122.2891,346.0251 C122.2101,345.6439 122.1314,345.2602 122.0531,344.874 C121.8965,344.1017 121.7414,343.3197 121.5882,342.5285 C121.2818,340.946 120.9831,339.3267 120.695,337.6747 C119.5429,331.0666 118.5628,323.9353 117.9563,316.5463 C115.53,286.99 119.08,253.31 141.5,232.5 C227.66,152.52 552.94,231.61 670.5,231.5 C698.06,231.47 707.43,220.07 732.5,231.5 C779.55,252.95 815.82,301.6 837.12,336.64 " fill="none" id="gradle-to-GCFG" style="stroke:#181818;stroke-width:1.0;stroke-dasharray:7.0,7.0;"/><polygon fill="#181818" points="839.9,341.27,838.7139,331.4928,837.3338,336.9788,831.8479,335.5987,839.9,341.27" style="stroke:#181818;stroke-width:1.0;"/><text fill="#000000" font-family="sans-serif" font-size="13" lengthAdjust="spacing" textLength="60" x="671.5" y="205.5">configured</text><text fill="#000000" font-family="sans-serif" font-size="13" lengthAdjust="spacing" textLength="43" x="680" y="221.1">through</text></g><!--MD5=[0e6521e4d96fc5ccc0e6675c405928e0]
link gradle to webpack--><g id="link_gradle_webpack"><path d="M138.3222,432.8106 C138.3449,432.9344 138.3677,433.0581 138.3905,433.1818 C138.4361,433.4292 138.4819,433.6766 138.5279,433.9238 C138.7117,434.913 138.8985,435.9009 139.0881,436.8862 C139.8467,440.8275 140.6513,444.7275 141.5,448.5 C152.8,498.71 143.19,518.65 174.5,559.5 C178.63,564.88 182.36,563.07 187.5,567.5 C198.49,576.98 200.22,580.58 208.5,592.5 C224.99,616.24 240.98,645.09 251.8,665.79 " fill="none" id="gradle-to-webpack" style="stroke:#181818;stroke-width:1.0;"/><polygon fill="#181818" points="254.17,670.34,253.5467,660.5109,251.8542,665.9086,246.4565,664.2161,254.17,670.34" style="stroke:#181818;stroke-width:1.0;"/></g><!--MD5=[a464840e48eb4f66b3cec040cdcab49e]
link K2JS to root.build--><g id="link_K2JS_root.build"><path d="M272.97,408.54 C261.56,421.34 247.8,436.06 234.5,448.5 C230.34,452.39 226.97,451.37 224.5,456.5 C216.31,473.53 219.54,494.96 224.27,511.13 " fill="none" id="K2JS-to-root.build" style="stroke:#181818;stroke-width:1.0;"/><polygon fill="#181818" points="225.78,515.96,226.9235,506.1777,224.2935,511.1861,219.2852,508.5561,225.78,515.96" style="stroke:#181818;stroke-width:1.0;"/><text fill="#000000" font-family="sans-serif" font-size="13" lengthAdjust="spacing" textLength="56" x="225.5" y="470.5">generates</text><ellipse cx="247" cy="481.2" fill="#000000" rx="2.5" ry="2.5" style="stroke:#000000;stroke-width:0.0;"/><text fill="#000000" font-family="sans-serif" font-size="13" lengthAdjust="spacing" textLength="12" x="253.5" y="486.1">.js</text><ellipse cx="231.5" cy="496.8" fill="#000000" rx="2.5" ry="2.5" style="stroke:#000000;stroke-width:0.0;"/><text fill="#000000" font-family="sans-serif" font-size="13" lengthAdjust="spacing" textLength="43" x="238" y="501.7">-tests.js</text></g><!--MD5=[0ccef5771aaf04055a305d067fe0eea8]
link KF to KC--><g id="link_KF_KC"><path d="M406.73,408.66 C380.86,433.74 348,471.46 333.5,512.5 C326.54,532.2 320.72,542.98 333.5,559.5 C389.74,632.18 669.72,672.53 791.62,686.9 " fill="none" id="KF-to-KC" style="stroke:#181818;stroke-width:1.0;"/><polygon fill="#181818" points="796.6,687.48,788.1298,682.4544,791.6343,686.895,787.1938,690.3995,796.6,687.48" style="stroke:#181818;stroke-width:1.0;"/><text fill="#000000" font-family="sans-serif" font-size="13" lengthAdjust="spacing" textLength="98" x="334.5" y="541.5">initially generates</text></g><!--MD5=[8d7e0dff31da885e72fdc85f04d79e62]
link KC to PJ--><g id="link_KC_PJ"><path d="M900.12,694 C919.46,694 941.52,694 961.25,694 " fill="none" id="KC-to-PJ" style="stroke:#181818;stroke-width:1.0;"/><polygon fill="#181818" points="966.48,694,957.48,690,961.48,694,957.48,698,966.48,694" style="stroke:#181818;stroke-width:1.0;"/><text fill="#000000" font-family="sans-serif" font-size="13" lengthAdjust="spacing" textLength="45" x="910.75" y="688">requires</text></g><!--MD5=[c6bfe5db0d9522034a77668c71e39324]
link PJ to NM--><g id="link_PJ_NM"><path d="M1004.6,675.11 C986.74,650.85 951.97,609.92 910.5,593.5 C868.97,577.06 139.76,563.68 106.5,593.5 C102.5138,597.0738 99.3212,601.2225 96.7899,605.7585 C96.4735,606.3255 96.1674,606.8986 95.8714,607.4773 C95.7234,607.7667 95.5779,608.0575 95.4349,608.3496 " fill="none" id="PJ-to-NM" style="stroke:#181818;stroke-width:1.0;"/><polygon fill="#181818" points="95.4349,608.3496,102.9843,602.0245,97.633,603.8587,95.7988,598.5075,95.4349,608.3496" style="stroke:#181818;stroke-width:1.0;"/><text fill="#000000" font-family="sans-serif" font-size="13" lengthAdjust="spacing" textLength="41" x="144" y="581.5">adds to</text></g><!--MD5=[d4f15545423303776113a9574a096e5f]
link DEV to RUN--><g id="link_DEV_RUN"><path d="M167.5,132.63 C167.5,136.7 167.5,140.6 167.5,144.21 " fill="none" id="DEV-to-RUN" style="stroke:#181818;stroke-width:1.0;"/><polygon fill="#181818" points="167.5,149.27,171.5,140.27,167.5,144.27,163.5,140.27,167.5,149.27" style="stroke:#181818;stroke-width:1.0;"/></g><!--MD5=[f3b0fd7d4b151759cb13e321df9d8a78]
link DEV to NI--><g id="link_DEV_NI"><path d="M200.04,123.17 C203.31,126.58 206.8,129.75 210.5,132.5 C239.72,154.22 499.9,203.96 522.5,232.5 C587.12,314.08 566.3,449.87 553.43,507.64 " fill="none" id="DEV-to-NI" style="stroke:#181818;stroke-width:1.0;"/><polygon fill="#181818" points="552.28,512.65,558.1861,504.7685,553.3949,507.7759,550.3875,502.9847,552.28,512.65" style="stroke:#181818;stroke-width:1.0;"/></g><!--MD5=[b17037f98e12b29962cd7c1ac441a1f1]
link RUN to gradle--><g id="link_RUN_gradle"><path d="M159.45,183.62 C153.41,196.51 145.52,215.22 141.5,232.5 C140.6112,236.3194 139.7902,240.2101 139.032,244.1489 C138.8424,245.1336 138.6568,246.1213 138.475,247.1116 C138.4295,247.3592 138.3843,247.607 138.3394,247.8549 " fill="none" id="RUN-to-gradle" style="stroke:#181818;stroke-width:1.0;"/><polygon fill="#181818" points="138.3394,247.8549,143.8815,239.7133,139.2318,242.9352,136.0099,238.2855,138.3394,247.8549" style="stroke:#181818;stroke-width:1.0;"/></g><!--MD5=[ab89fc97919d97f1f5f6fb1ea42f9f2d]
link NI to npm--><g id="link_NI_npm"><path d="M649.53,536 C664.47,536 679.02,536 691.57,536 " fill="none" id="NI-to-npm" style="stroke:#181818;stroke-width:1.0;stroke-dasharray:7.0,7.0;"/><polygon fill="#181818" points="696.83,536,687.83,532,691.83,536,687.83,540,696.83,536" style="stroke:#181818;stroke-width:1.0;"/><text fill="#000000" font-family="sans-serif" font-size="13" lengthAdjust="spacing" textLength="26" x="660.25" y="530">uses</text></g><!--MD5=[f85af7db3b42217e115ddf1011bcd57f]
link NI to PJ--><g id="link_NI_PJ"><path d="M628.12,550.19 C647.57,553.28 668.27,556.54 687.5,559.5 C712.26,563.31 887.95,581.59 910.5,592.5 C948.67,610.96 982.42,647.88 1001.37,671.46 " fill="none" id="NI-to-PJ" style="stroke:#181818;stroke-width:1.0;"/><polygon fill="#181818" points="1004.51,675.41,1002.0581,665.8712,1001.4058,671.4904,995.7866,670.838,1004.51,675.41" style="stroke:#181818;stroke-width:1.0;"/><text fill="#000000" font-family="sans-serif" font-size="13" lengthAdjust="spacing" textLength="45" x="877.5" y="581.5">updates</text></g><!--MD5=[20a9e19418e70fd4168eb3c6e1e94ca5]
link DEV to TEST--><g id="link_DEV_TEST"><path d="M134.84,92.11 C116.88,106.23 96.14,126.24 85.5,149.5 C26.5,278.51 50.01,457.64 59.93,515.89 " fill="none" id="DEV-to-TEST" style="stroke:#181818;stroke-width:1.0;"/><polygon fill="#181818" points="60.79,520.82,63.1888,511.2677,59.9333,515.8939,55.3071,512.6385,60.79,520.82" style="stroke:#181818;stroke-width:1.0;"/></g><!--MD5=[f1ad7c348f545d25b38a2b6484a9d476]
link TEST to npm--><g id="link_TEST_npm"><path d="M99.86,524.2 C143.76,510.62 220.12,489.15 287.5,481 C452.22,461.07 497.07,478.65 659.5,512.5 C670.3,514.75 681.76,518.1 692.24,521.56 " fill="none" id="TEST-to-npm" style="stroke:#181818;stroke-width:1.0;stroke-dasharray:7.0,7.0;"/><polygon fill="#181818" points="696.98,523.16,689.7188,516.5061,692.2395,521.5703,687.1752,524.0909,696.98,523.16" style="stroke:#181818;stroke-width:1.0;"/><text fill="#000000" font-family="sans-serif" font-size="13" lengthAdjust="spacing" textLength="26" x="288.5" y="486">uses</text></g><!--MD5=[e70c9030adc7658768ddcf0fba065aeb]
link TEST to karma--><g id="link_TEST_karma"><path d="M59.42,551.18 C57.35,561.64 56.68,575.56 64.5,584.5 C79.6,601.78 97.39,578.41 115.5,592.5 C138.2,610.16 149.09,642.13 154.2,665.27 " fill="none" id="TEST-to-karma" style="stroke:#181818;stroke-width:1.0;"/><polygon fill="#181818" points="155.27,670.37,157.3358,660.7402,154.2428,665.4766,149.5064,662.3837,155.27,670.37" style="stroke:#181818;stroke-width:1.0;"/><text fill="#000000" font-family="sans-serif" font-size="13" lengthAdjust="spacing" textLength="24" x="65.5" y="581.5">runs</text></g><!--MD5=[9ca04c15e2688d803d183f81b48772ee]
link karma to Browser--><g id="link_karma_Browser"><path d="M158.5,717.63 C158.5,743.99 158.5,787.56 158.5,816.03 " fill="none" id="karma-to-Browser" style="stroke:#181818;stroke-width:1.0;"/><polygon fill="#181818" points="158.5,821.16,162.5,812.16,158.5,816.16,154.5,812.16,158.5,821.16" style="stroke:#181818;stroke-width:1.0;"/><text fill="#000000" font-family="sans-serif" font-size="13" lengthAdjust="spacing" textLength="45" x="173" y="779.5">displays</text><text fill="#000000" font-family="sans-serif" font-size="13" lengthAdjust="spacing" textLength="61" x="165" y="795.1">test results</text><text fill="#000000" font-family="sans-serif" font-size="13" lengthAdjust="spacing" textLength="72" x="159.5" y="810.7">via port 9876</text></g><!--MD5=[f2530b20c0e2fe33223feb9b57cffceb]
@startuml
skinparam nodesep 20
skinparam ranksep 5

top to bottom direction

component gradle <<build.tool>> {
    component kotlinFrontend <<gradle.plugin>> as KF
    component kotlin2js <<transpiler>> as K2JS
    component DCE
}


package root #gold {
    rectangle "build.gradle\nsettings.gradle\ngradle.properties" as GCFG
    rectangle karma.conf.js as KC
    rectangle package.json as PJ
    GCFG -[hidden]- -> PJ
}
package root.build  #gold {
}
package root.node_modules as NM #gold {
    component karma
    component webpack
}
component NodeJS
component Browser

gradle .> GCFG : configured\nthrough
gradle - -> webpack

K2JS - -> root.build : generates\n*.js\n*-tests.js
KF - -> KC : initially generates
KC -> PJ : requires
PJ -> NM : adds to

:Developer,\nalmost\ngone\ncrazy;-): as DEV
($ gradlew -t run) as RUN
($ npm install <> - -save-dev) as NI
($ npm test) as TEST

DEV - -> RUN
DEV - -> NI
RUN - -> gradle


component npm
NI .> npm : uses
NI -> PJ : updates


DEV - -> TEST
TEST .> npm : uses
TEST - -> karma : runs
karma - -> Browser : displays\ntest results\nvia port 9876

note left of PJ
package.json.lock
end note
@enduml

PlantUML version 1.2022.5(Sat Apr 30 10:55:52 GMT 2022)
(GPL source distribution)
Java Runtime: OpenJDK Runtime Environment
JVM: OpenJDK 64-Bit Server VM
Default Encoding: UTF-8
Language: en
Country: US
--></g></svg>