<?xml version="1.0" encoding="UTF-8" standalone="no"?><svg xmlns="http://www.w3.org/2000/svg" xmlns:xlink="http://www.w3.org/1999/xlink" contentScriptType="application/ecmascript" contentStyleType="text/css" height="555px" preserveAspectRatio="none" style="width:1703px;height:555px;" version="1.1" viewBox="0 0 1703 555" width="1703px" zoomAndPan="magnify"><defs><filter height="300%" id="f6y8m7axc4694" width="300%" x="-1" y="-1"><feGaussianBlur result="blurOut" stdDeviation="2.0"/><feColorMatrix in="blurOut" result="blurOut2" type="matrix" values="0 0 0 0 0 0 0 0 0 0 0 0 0 0 0 0 0 0 .4 0"/><feOffset dx="4.0" dy="4.0" in="blurOut2" result="blurOut3"/><feBlend in="SourceGraphic" in2="blurOut3" mode="normal"/></filter></defs><g><!--MD5=[d2242131270c237e071fd8738247fbb8]
cluster FE--><rect fill="#FFFFFF" filter="url(#f6y8m7axc4694)" height="176" style="stroke:#000000;stroke-width:1.5;" width="143" x="96" y="63.07"/><rect fill="#FFFFFF" height="10" style="stroke:#000000;stroke-width:1.5;" width="15" x="219" y="68.07"/><rect fill="#FFFFFF" height="2" style="stroke:#000000;stroke-width:1.5;" width="4" x="217" y="70.07"/><rect fill="#FFFFFF" height="2" style="stroke:#000000;stroke-width:1.5;" width="4" x="217" y="74.07"/><text fill="#000000" font-family="sans-serif" font-size="14" font-style="italic" lengthAdjust="spacing" textLength="89" x="123" y="90.8083">«RO FrontEnd»</text><text fill="#000000" font-family="sans-serif" font-size="14" font-weight="bold" lengthAdjust="spacing" textLength="34" x="150.5" y="109.7028">kroviz</text><!--MD5=[c37df8c2fa1b5f86dd58dff9a3868e14]
entity EL--><path d="M139,177.07 C139,167.07 177,167.07 177,167.07 C177,167.07 215,167.07 215,177.07 L215,204.9645 C215,214.9645 177,214.9645 177,214.9645 C177,214.9645 139,214.9645 139,204.9645 L139,177.07 " fill="#FEFECE" filter="url(#f6y8m7axc4694)" style="stroke:#000000;stroke-width:1.5;"/><path d="M139,177.07 C139,187.07 177,187.07 177,187.07 C177,187.07 215,187.07 215,177.07 " fill="none" style="stroke:#000000;stroke-width:1.5;"/><text fill="#000000" font-family="sans-serif" font-size="14" lengthAdjust="spacing" textLength="56" x="149" y="205.8083">EventLog</text><!--MD5=[11e5abc0296d2a9544c49e35636d4c40]
entity RE--><polygon fill="#FEFECE" filter="url(#f6y8m7axc4694)" points="396.5,148.57,396.5,233.2536,1437.5,233.2536,1437.5,158.57,1427.5,148.57,396.5,148.57" style="stroke:#000000;stroke-width:1.5;"/><path d="M1427.5,148.57 L1427.5,158.57 L1437.5,158.57 " fill="#FEFECE" style="stroke:#000000;stroke-width:1.5;"/><text fill="#000000" font-family="sans-serif" font-size="14" font-weight="bold" lengthAdjust="spacing" textLength="15" x="410.5" y="194.2028">url</text><text fill="#000000" font-family="sans-serif" font-size="14" font-weight="bold" lengthAdjust="spacing" textLength="87" x="433.5" y="194.2028">[request data]</text><text fill="#000000" font-family="sans-serif" font-size="14" font-weight="bold" lengthAdjust="spacing" textLength="31" x="528.5" y="194.2028">state</text><text fill="#000000" font-family="sans-serif" font-size="14" font-weight="bold" lengthAdjust="spacing" textLength="58" x="567.5" y="194.2028">response</text><text fill="#000000" font-family="sans-serif" font-size="14" lengthAdjust="spacing" textLength="0" x="633.5" y="194.2028"/><text fill="#000000" font-family="sans-serif" font-size="14" lengthAdjust="spacing" textLength="0" x="633.5" y="213.0973"/><text fill="#000000" font-family="sans-serif" font-size="14" lengthAdjust="spacing" textLength="179" x="637.5" y="194.2028">http://localhost:8080/restful</text><text fill="#000000" font-family="sans-serif" font-size="14" lengthAdjust="spacing" textLength="43" x="824.5" y="194.2028">uid/pw</text><text fill="#000000" font-family="sans-serif" font-size="14" lengthAdjust="spacing" textLength="62" x="875.5" y="194.2028">SUCCESS</text><text fill="#000000" font-family="sans-serif" font-size="14" lengthAdjust="spacing" textLength="51" x="945.5" y="194.2028">{jsonStr}</text><text fill="#000000" font-family="sans-serif" font-size="14" lengthAdjust="spacing" textLength="0" x="1004.5" y="194.2028"/><text fill="#000000" font-family="sans-serif" font-size="14" lengthAdjust="spacing" textLength="0" x="1004.5" y="213.0973"/><text fill="#000000" font-family="sans-serif" font-size="14" lengthAdjust="spacing" textLength="248" x="1008.5" y="194.2028">http://localhost:8080/restful/menubars</text><text fill="#000000" font-family="sans-serif" font-size="14" lengthAdjust="spacing" textLength="23" x="1264.5" y="194.2028">n/a</text><text fill="#000000" font-family="sans-serif" font-size="14" lengthAdjust="spacing" textLength="44" x="1295.5" y="194.2028">ERROR</text><text fill="#000000" font-family="sans-serif" font-size="14" lengthAdjust="spacing" textLength="70" x="1347.5" y="194.2028">{another js}</text><line style="stroke:#000000;stroke-width:1.5;" x1="406.5" x2="1421.5" y1="179.4645" y2="179.4645"/><line style="stroke:#000000;stroke-width:1.5;" x1="406.5" x2="1421.5" y1="217.2536" y2="217.2536"/><line style="stroke:#000000;stroke-width:1.5;" x1="406.5" x2="406.5" y1="179.4645" y2="217.2536"/><line style="stroke:#000000;stroke-width:1.5;" x1="429.5" x2="429.5" y1="179.4645" y2="217.2536"/><line style="stroke:#000000;stroke-width:1.5;" x1="524.5" x2="524.5" y1="179.4645" y2="217.2536"/><line style="stroke:#000000;stroke-width:1.5;" x1="563.5" x2="563.5" y1="179.4645" y2="217.2536"/><line style="stroke:#000000;stroke-width:1.5;" x1="629.5" x2="629.5" y1="179.4645" y2="217.2536"/><line style="stroke:#000000;stroke-width:1.5;" x1="633.5" x2="633.5" y1="179.4645" y2="217.2536"/><line style="stroke:#000000;stroke-width:1.5;" x1="820.5" x2="820.5" y1="179.4645" y2="217.2536"/><line style="stroke:#000000;stroke-width:1.5;" x1="871.5" x2="871.5" y1="179.4645" y2="217.2536"/><line style="stroke:#000000;stroke-width:1.5;" x1="941.5" x2="941.5" y1="179.4645" y2="217.2536"/><line style="stroke:#000000;stroke-width:1.5;" x1="1000.5" x2="1000.5" y1="179.4645" y2="217.2536"/><line style="stroke:#000000;stroke-width:1.5;" x1="1004.5" x2="1004.5" y1="179.4645" y2="217.2536"/><line style="stroke:#000000;stroke-width:1.5;" x1="1260.5" x2="1260.5" y1="179.4645" y2="217.2536"/><line style="stroke:#000000;stroke-width:1.5;" x1="1291.5" x2="1291.5" y1="179.4645" y2="217.2536"/><line style="stroke:#000000;stroke-width:1.5;" x1="1343.5" x2="1343.5" y1="179.4645" y2="217.2536"/><line style="stroke:#000000;stroke-width:1.5;" x1="1421.5" x2="1421.5" y1="179.4645" y2="217.2536"/><line style="stroke:#000000;stroke-width:1.0;stroke-dasharray:1.0,2.0;" x1="397.5" x2="844" y1="168.0173" y2="168.0173"/><text fill="#000000" font-family="sans-serif" font-size="14" lengthAdjust="spacing" textLength="146" x="844" y="172.8083">(Sample) Replay Events</text><line style="stroke:#000000;stroke-width:1.0;stroke-dasharray:1.0,2.0;" x1="990" x2="1436.5" y1="168.0173" y2="168.0173"/><!--MD5=[cb29a752e8bd9ff083cca7770c370a33]
entity DRT--><rect fill="#FEFECE" filter="url(#f6y8m7axc4694)" height="86.6836" style="stroke:#A80036;stroke-width:1.5;" width="113" x="1506.5" y="147.57"/><rect fill="#FEFECE" height="10" style="stroke:#A80036;stroke-width:1.5;" width="15" x="1599.5" y="152.57"/><rect fill="#FEFECE" height="2" style="stroke:#A80036;stroke-width:1.5;" width="4" x="1597.5" y="154.57"/><rect fill="#FEFECE" height="2" style="stroke:#A80036;stroke-width:1.5;" width="4" x="1597.5" y="158.57"/><text fill="#000000" font-family="sans-serif" font-size="14" lengthAdjust="spacing" textLength="36" x="1521.5" y="182.3083">Demo</text><text fill="#000000" font-family="sans-serif" font-size="14" lengthAdjust="spacing" textLength="69" x="1521.5" y="201.2028">Regression</text><text fill="#000000" font-family="sans-serif" font-size="14" lengthAdjust="spacing" textLength="26" x="1521.5" y="220.0973">Test</text><!--MD5=[6ae0ad3fca144316621ac535abd7bcd7]
entity  --><ellipse cx="19" cy="168.07" fill="#FEFECE" filter="url(#f6y8m7axc4694)" rx="8" ry="8" style="stroke:#A80036;stroke-width:1.5;"/><path d="M19,176.07 L19,203.07 M6,184.07 L32,184.07 M19,203.07 L6,218.07 M19,203.07 L32,218.07 " fill="none" filter="url(#f6y8m7axc4694)" style="stroke:#A80036;stroke-width:1.5;"/><path d="M108,323.57 L108,386.2048 A0,0 0 0 0 108,386.2048 L242,386.2048 A0,0 0 0 0 242,386.2048 L242,333.57 L232,323.57 L179.38,323.57 L176.71,215.28 L171.38,323.57 L108,323.57 A0,0 0 0 0 108,323.57 " fill="#FBFB77" filter="url(#f6y8m7axc4694)" style="stroke:#A80036;stroke-width:1.0;"/><path d="M232,323.57 L232,333.57 L242,333.57 L232,323.57 " fill="#FBFB77" style="stroke:#A80036;stroke-width:1.0;"/><text fill="#000000" font-family="sans-serif" font-size="13" lengthAdjust="spacing" textLength="66" x="114" y="342.2555">Req./Resp.</text><text fill="#000000" font-family="sans-serif" font-size="13" lengthAdjust="spacing" textLength="73" x="114" y="359.8005">as well as UI</text><text fill="#000000" font-family="sans-serif" font-size="13" lengthAdjust="spacing" textLength="113" x="114" y="377.3454">events are recorded</text><!--MD5=[cd187d11655e4367e900de538d2f1d0c]
entity APP--><rect fill="#FEFECE" filter="url(#f6y8m7axc4694)" height="67.7891" style="stroke:#A80036;stroke-width:1.5;" width="98" x="263" y="157.07"/><rect fill="#FEFECE" height="10" style="stroke:#A80036;stroke-width:1.5;" width="15" x="341" y="162.07"/><rect fill="#FEFECE" height="2" style="stroke:#A80036;stroke-width:1.5;" width="4" x="339" y="164.07"/><rect fill="#FEFECE" height="2" style="stroke:#A80036;stroke-width:1.5;" width="4" x="339" y="168.07"/><text fill="#000000" font-family="sans-serif" font-size="14" font-style="italic" lengthAdjust="spacing" textLength="58" x="278" y="191.8083">«RO App»</text><text fill="#000000" font-family="sans-serif" font-size="14" lengthAdjust="spacing" textLength="36" x="289" y="210.7028">Demo</text><!--MD5=[fb4a08e111f2163e9179077dacc52f93]
entity FW--><rect fill="#FEFECE" filter="url(#f6y8m7axc4694)" height="67.7891" style="stroke:#A80036;stroke-width:1.5;" width="164" x="362" y="473.57"/><rect fill="#FEFECE" height="10" style="stroke:#A80036;stroke-width:1.5;" width="15" x="506" y="478.57"/><rect fill="#FEFECE" height="2" style="stroke:#A80036;stroke-width:1.5;" width="4" x="504" y="480.57"/><rect fill="#FEFECE" height="2" style="stroke:#A80036;stroke-width:1.5;" width="4" x="504" y="484.57"/><text fill="#000000" font-family="sans-serif" font-size="14" font-style="italic" lengthAdjust="spacing" textLength="124" x="377" y="508.3083">«Naked Objects FW»</text><text fill="#000000" font-family="sans-serif" font-size="14" lengthAdjust="spacing" textLength="72" x="403" y="527.2028">Apache Isis</text><path d="M1431.5,297.57 L1431.5,412.8395 A0,0 0 0 0 1431.5,412.8395 L1694.5,412.8395 A0,0 0 0 0 1694.5,412.8395 L1694.5,307.57 L1684.5,297.57 L1567,297.57 L1563,234.63 L1559,297.57 L1431.5,297.57 A0,0 0 0 0 1431.5,297.57 " fill="#FBFB77" filter="url(#f6y8m7axc4694)" style="stroke:#A80036;stroke-width:1.0;"/><path d="M1684.5,297.57 L1684.5,307.57 L1694.5,307.57 L1684.5,297.57 " fill="#FBFB77" style="stroke:#A80036;stroke-width:1.0;"/><text fill="#000000" font-family="sans-serif" font-size="13" lengthAdjust="spacing" textLength="241" x="1437.5" y="316.2555">Event Log Entries are replayed during test.</text><text fill="#000000" font-family="sans-serif" font-size="13" lengthAdjust="spacing" textLength="242" x="1437.5" y="333.8005">Expected/actual responses are compared.</text><text fill="#000000" font-family="sans-serif" font-size="13" lengthAdjust="spacing" textLength="0" x="1441.5" y="351.3454"/><text fill="#000000" font-family="sans-serif" font-size="13" lengthAdjust="spacing" textLength="89" x="1437.5" y="368.8903">Events in state:</text><ellipse cx="1443" cy="382.7946" fill="#000000" rx="2.5" ry="2.5" style="stroke:#000000;stroke-width:0.0;"/><text fill="#000000" font-family="sans-serif" font-size="13" lengthAdjust="spacing" textLength="184" x="1448.5" y="386.4352">SUCCESS -&gt; expected == actual</text><ellipse cx="1443" cy="400.3395" fill="#000000" rx="2.5" ry="2.5" style="stroke:#000000;stroke-width:0.0;"/><text fill="#000000" font-family="sans-serif" font-size="13" lengthAdjust="spacing" textLength="165" x="1448.5" y="403.9802">ERROR -&gt; expected != actual</text><path d="M546,332.57 L546,377.6598 A0,0 0 0 0 546,377.6598 L559.94,377.6598 L474.86,473.4 L567.94,377.6598 L622,377.6598 A0,0 0 0 0 622,377.6598 L622,342.57 L612,332.57 L546,332.57 A0,0 0 0 0 546,332.57 " fill="#FBFB77" filter="url(#f6y8m7axc4694)" style="stroke:#A80036;stroke-width:1.0;"/><path d="M612,332.57 L612,342.57 L622,342.57 L612,332.57 " fill="#FBFB77" style="stroke:#A80036;stroke-width:1.0;"/><text fill="#000000" font-family="sans-serif" font-size="13" lengthAdjust="spacing" textLength="55" x="552" y="351.2555">additional</text><text fill="#000000" font-family="sans-serif" font-size="13" lengthAdjust="spacing" textLength="51" x="552" y="368.8005">coverage</text><path d="M377,332.57 L377,377.6598 L511,377.6598 L511,342.57 L501,332.57 L377,332.57 " fill="#FBFB77" filter="url(#f6y8m7axc4694)" style="stroke:#A80036;stroke-width:1.0;"/><path d="M501,332.57 L501,342.57 L511,342.57 L501,332.57 " fill="#FBFB77" style="stroke:#A80036;stroke-width:1.0;"/><text fill="#000000" font-family="sans-serif" font-size="13" lengthAdjust="spacing" textLength="113" x="383" y="351.2555">Regressions can be</text><text fill="#000000" font-family="sans-serif" font-size="13" lengthAdjust="spacing" textLength="91" x="383" y="368.8005">caused in either</text><!--MD5=[044d05b892026c564542e04e71cdfcae]
link   to FE--><path d="M33.81,191.07 C45.225,191.07 61.36,191.07 75.2825,191.07 C82.2438,191.07 88.6519,191.07 93.6403,191.07 C94.2639,191.07 94.8652,191.07 95.4427,191.07 C95.5871,191.07 95.73,191.07 95.8714,191.07 " fill="none" id=" -to-FE" style="stroke:#A80036;stroke-width:1.0;"/><polygon fill="#A80036" points="95.8714,191.07,86.8714,187.07,90.8714,191.07,86.8714,195.07,95.8714,191.07" style="stroke:#A80036;stroke-width:1.0;"/><text fill="#000000" font-family="sans-serif" font-size="13" lengthAdjust="spacing" textLength="34" x="51.57" y="183.7555">action</text><!--MD5=[fbb8d5fa8a9feca13177321b4678f474]
link FE to EL--><path d="M104.57,191.07 C114.29,191.07 124.01,191.07 133.72,191.07 " fill="none" id="FE-to-EL" style="stroke:#A80036;stroke-width:1.0;"/><polygon fill="#A80036" points="138.8,191.07,129.8,187.07,133.8,191.07,129.8,195.07,138.8,191.07" style="stroke:#A80036;stroke-width:1.0;"/><!--MD5=[2c760634608609d01a798da024c32d51]
link FE to APP--><path d="M119.1822,62.6786 C120.3939,61.4301 121.6656,60.2259 123,59.07 C159.28,27.64 189.11,35.63 231,59.07 C266.19,78.76 287.95,120.69 299.94,152.03 " fill="none" id="FE-APP" style="stroke:#A80036;stroke-width:1.0;"/><polygon fill="#A80036" points="301.78,156.97,302.3652,147.1385,300.0244,152.2884,294.8746,149.9475,301.78,156.97" style="stroke:#A80036;stroke-width:1.0;"/><polygon fill="#A80036" points="119.1822,62.6786,128.3206,59.0057,122.6644,59.0905,122.5796,53.4343,119.1822,62.6786" style="stroke:#A80036;stroke-width:1.0;"/><text fill="#000000" font-family="sans-serif" font-size="13" lengthAdjust="spacing" textLength="111" x="127.5" y="34.7555">request / response</text><!--MD5=[37ca614c21ecc4e03f38dc516ec979d6]
link APP to FW--><path d="M307.05,225.27 C301.95,270.44 298.61,352.48 330,412.57 C342.08,435.7 362.56,455.29 382.85,470.5 " fill="none" id="APP-to-FW" style="stroke:#A80036;stroke-width:1.0;"/><polygon fill="#A80036" points="386.91,473.48,382.0414,464.9186,382.8862,470.5121,377.2927,471.3568,386.91,473.48" style="stroke:#A80036;stroke-width:1.0;"/><text fill="#000000" font-family="sans-serif" font-size="13" lengthAdjust="spacing" textLength="28" x="331" y="360.2555">uses</text><!--MD5=[83c5898c77d344dea07ae0f2b5cb3be3]
link EL to RE--><path d="M185.04,166.95 C195.8,136.9 216.97,84.9 246,47.07 C277.51,6 310.24,24.88 361.5,32.07 C515.91,53.73 687.61,107.71 798.67,146.77 " fill="none" id="EL-to-RE" style="stroke:#A80036;stroke-width:1.0;"/><polygon fill="#A80036" points="803.59,148.5,796.4258,141.7417,798.8729,146.8419,793.7728,149.289,803.59,148.5" style="stroke:#A80036;stroke-width:1.0;"/><text fill="#000000" font-family="sans-serif" font-size="13" lengthAdjust="spacing" textLength="35" x="746.908" y="136.7984">export</text><!--MD5=[e6ed755eced7106e72aa480df7c9ef45]
reverse link RE to DRT--><path d="M1442.84,191.07 C1466.87,191.07 1488.38,191.07 1506.33,191.07 " fill="none" id="RE-backto-DRT" style="stroke:#A80036;stroke-width:1.0;"/><polygon fill="#A80036" points="1437.68,191.07,1446.68,195.07,1442.68,191.07,1446.68,187.07,1437.68,191.07" style="stroke:#A80036;stroke-width:1.0;"/><text fill="#000000" font-family="sans-serif" font-size="13" lengthAdjust="spacing" textLength="32" x="1456" y="183.7555">reads</text><!--MD5=[5ea144c57fb525e20369093d1f53f308]
link DRT to APP--><path d="M1541.01,147.54 C1522.68,116.54 1493.4,77.27 1455,59.07 C1401.03,33.5 430.99,27.98 380,59.07 C347.09,79.13 329.43,120.78 320.43,151.96 " fill="none" id="DRT-to-APP" style="stroke:#A80036;stroke-width:1.0;"/><polygon fill="#A80036" points="319.06,156.87,325.3519,149.2929,320.4166,152.0576,317.652,147.1223,319.06,156.87" style="stroke:#A80036;stroke-width:1.0;"/><text fill="#000000" font-family="sans-serif" font-size="13" lengthAdjust="spacing" textLength="33" x="916.5" y="34.7555">replay</text><text fill="#000000" font-family="sans-serif" font-size="13" lengthAdjust="spacing" textLength="44" x="1489.7242" y="135.6794">invokes</text><text fill="#000000" font-family="sans-serif" font-size="13" lengthAdjust="spacing" textLength="38" x="278.7093" y="145.2234">RO API</text><!--MD5=[e01b7f7586d9d51e2af1bb984dcd3f4c]
link APP to NREG--><path d="M339.03,225.24 C365.13,257.27 403.89,304.84 426.28,332.33 " fill="none" id="APP-NREG" style="stroke:#A80036;stroke-width:1.0;stroke-dasharray:7.0,7.0;"/><!--MD5=[08c403ccfe222087d529d28b9c140709]
link NREG to FW--><path d="M444,377.63 C444,402.67 444,444.24 444,473.4 " fill="none" id="NREG-FW" style="stroke:#A80036;stroke-width:1.0;stroke-dasharray:7.0,7.0;"/><!--MD5=[3bb86e1ae656a7e64618a3149681b008]
@startuml
: : -> FE : action

component kroviz <<RO FrontEnd>> as FE {
    database EventLog as EL
    FE -> EL
}

note bottom of EL
Req./Resp.
as well as UI
events are recorded
end note

component Demo <<RO App>> as APP
FE <-> APP : request / response

component "Apache Isis" <<Naked Objects FW>> as FW
APP -> FW : uses


together {
    file RE as "
    .. (Sample) Replay Events..
    |= url |= [request data] |= state |= response |\n| http://localhost:8080/restful | uid/pw | SUCCESS | {jsonStr} |\n| http://localhost:8080/restful/menubars | n/a | ERROR | {another js} |
    "
    component "Demo \nRegression \nTest" as DRT
}
EL ->"export" RE


RE <- DRT : reads
DRT "invokes"->"RO API" APP : replay

note bottom of DRT
Event Log Entries are replayed during test.
Expected/actual responses are compared.

Events in state:
* SUCCESS -> expected == actual
* ERROR -> expected != actual
end note

note top of FW
additional
coverage
end note

note as NREG
Regressions can be
caused in either
end note
APP .. NREG
NREG .. FW
@enduml

PlantUML version 1.2021.01(Tue Feb 02 07:55:08 GMT 2021)
(GPL source distribution)
Java Runtime: OpenJDK Runtime Environment
JVM: OpenJDK 64-Bit Server VM
Default Encoding: UTF-8
Language: en
Country: US
--></g></svg>