<?xml version="1.0" encoding="UTF-8" standalone="no"?><svg xmlns="http://www.w3.org/2000/svg" xmlns:xlink="http://www.w3.org/1999/xlink" contentScriptType="application/ecmascript" contentStyleType="text/css" height="1016px" preserveAspectRatio="none" style="width:1254px;height:1016px;" version="1.1" viewBox="0 0 1254 1016" width="1254px" zoomAndPan="magnify"><defs><filter height="300%" id="fe85mlu2qz5w7" width="300%" x="-1" y="-1"><feGaussianBlur result="blurOut" stdDeviation="2.0"/><feColorMatrix in="blurOut" result="blurOut2" type="matrix" values="0 0 0 0 0 0 0 0 0 0 0 0 0 0 0 0 0 0 .4 0"/><feOffset dx="4.0" dy="4.0" in="blurOut2" result="blurOut3"/><feBlend in="SourceGraphic" in2="blurOut3" mode="normal"/></filter></defs><g><rect fill="#FFFFFF" filter="url(#fe85mlu2qz5w7)" height="161.0001" style="stroke: #A80036; stroke-width: 1.0;" width="10" x="550" y="207.2"/><rect fill="#FFFFFF" filter="url(#fe85mlu2qz5w7)" height="512.6002" style="stroke: #A80036; stroke-width: 1.0;" width="10" x="854.5" y="368.2001"/><rect fill="#FFFFFF" filter="url(#fe85mlu2qz5w7)" height="64.2" style="stroke: #A80036; stroke-width: 1.0;" width="10" x="859.5" y="405.8001"/><rect fill="#FFFFFF" filter="url(#fe85mlu2qz5w7)" height="153.0001" style="stroke: #A80036; stroke-width: 1.0;" width="10" x="859.5" y="507.6001"/><rect fill="#FFFFFF" filter="url(#fe85mlu2qz5w7)" height="123.4001" style="stroke: #A80036; stroke-width: 1.0;" width="10" x="859.5" y="698.2002"/><line style="stroke: #A80036; stroke-width: 1.0; stroke-dasharray: 5.0,5.0;" x1="25" x2="25" y1="86.7999" y2="928.4003"/><line style="stroke: #A80036; stroke-width: 1.0; stroke-dasharray: 5.0,5.0;" x1="106" x2="106" y1="86.7999" y2="928.4003"/><line style="stroke: #A80036; stroke-width: 1.0; stroke-dasharray: 5.0,5.0;" x1="228" x2="228" y1="86.7999" y2="928.4003"/><line style="stroke: #A80036; stroke-width: 1.0; stroke-dasharray: 5.0,5.0;" x1="387.5" x2="387.5" y1="86.7999" y2="928.4003"/><line style="stroke: #A80036; stroke-width: 1.0; stroke-dasharray: 5.0,5.0;" x1="554.5" x2="554.5" y1="86.7999" y2="928.4003"/><line style="stroke: #A80036; stroke-width: 1.0; stroke-dasharray: 5.0,5.0;" x1="716.5" x2="716.5" y1="86.7999" y2="928.4003"/><line style="stroke: #A80036; stroke-width: 1.0; stroke-dasharray: 5.0,5.0;" x1="859.5" x2="859.5" y1="86.7999" y2="928.4003"/><line style="stroke: #A80036; stroke-width: 1.0; stroke-dasharray: 5.0,5.0;" x1="1045" x2="1045" y1="86.7999" y2="928.4003"/><line style="stroke: #A80036; stroke-width: 1.0; stroke-dasharray: 5.0,5.0;" x1="1180" x2="1180" y1="86.7999" y2="928.4003"/><text fill="#000000" font-family="sans-serif" font-size="14" lengthAdjust="spacingAndGlyphs" textLength="29" x="8" y="83.9999">User</text><ellipse cx="25.5" cy="13" fill="#FEFECE" filter="url(#fe85mlu2qz5w7)" rx="8" ry="8" style="stroke: #A80036; stroke-width: 2.0;"/><path d="M25.5,21 L25.5,48 M12.5,29 L38.5,29 M25.5,48 L12.5,63 M25.5,48 L38.5,63 " fill="none" filter="url(#fe85mlu2qz5w7)" style="stroke: #A80036; stroke-width: 2.0;"/><text fill="#000000" font-family="sans-serif" font-size="14" lengthAdjust="spacingAndGlyphs" textLength="29" x="8" y="941.4002">User</text><ellipse cx="25.5" cy="954.2002" fill="#FEFECE" filter="url(#fe85mlu2qz5w7)" rx="8" ry="8" style="stroke: #A80036; stroke-width: 2.0;"/><path d="M25.5,962.2002 L25.5,989.2002 M12.5,970.2002 L38.5,970.2002 M25.5,989.2002 L12.5,1004.2002 M25.5,989.2002 L38.5,1004.2002 " fill="none" filter="url(#fe85mlu2qz5w7)" style="stroke: #A80036; stroke-width: 2.0;"/><rect fill="#FEFECE" filter="url(#fe85mlu2qz5w7)" height="47.5999" style="stroke: #A80036; stroke-width: 1.5;" width="103" x="53" y="34.2001"/><text fill="#000000" font-family="sans-serif" font-size="14" lengthAdjust="spacingAndGlyphs" textLength="89" x="60" y="55.2">&lt;&lt;Singleton&gt;&gt;</text><text fill="#000000" font-family="sans-serif" font-size="14" lengthAdjust="spacingAndGlyphs" textLength="74" x="67.5" y="71.9999">UI Manager</text><rect fill="#FEFECE" filter="url(#fe85mlu2qz5w7)" height="47.5999" style="stroke: #A80036; stroke-width: 1.5;" width="103" x="53" y="927.4003"/><text fill="#000000" font-family="sans-serif" font-size="14" lengthAdjust="spacingAndGlyphs" textLength="89" x="60" y="948.4002">&lt;&lt;Singleton&gt;&gt;</text><text fill="#000000" font-family="sans-serif" font-size="14" lengthAdjust="spacingAndGlyphs" textLength="74" x="67.5" y="965.2001">UI Manager</text><rect fill="#ADD8E6" filter="url(#fe85mlu2qz5w7)" height="47.5999" style="stroke: #A80036; stroke-width: 1.5;" width="113" x="170" y="34.2001"/><text fill="#000000" font-family="sans-serif" font-size="14" lengthAdjust="spacingAndGlyphs" textLength="99" x="177" y="55.2">&lt;&lt;description&gt;&gt;</text><text fill="#000000" font-family="sans-serif" font-size="14" lengthAdjust="spacingAndGlyphs" textLength="26" x="213.5" y="71.9999">Link</text><rect fill="#ADD8E6" filter="url(#fe85mlu2qz5w7)" height="47.5999" style="stroke: #A80036; stroke-width: 1.5;" width="113" x="170" y="927.4003"/><text fill="#000000" font-family="sans-serif" font-size="14" lengthAdjust="spacingAndGlyphs" textLength="99" x="177" y="948.4002">&lt;&lt;description&gt;&gt;</text><text fill="#000000" font-family="sans-serif" font-size="14" lengthAdjust="spacingAndGlyphs" textLength="26" x="213.5" y="965.2001">Link</text><rect fill="#FEFECE" filter="url(#fe85mlu2qz5w7)" height="30.7999" style="stroke: #A80036; stroke-width: 1.5;" width="124" x="323.5" y="51"/><text fill="#000000" font-family="sans-serif" font-size="14" lengthAdjust="spacingAndGlyphs" textLength="110" x="330.5" y="71.9999">(Xml)HttpRequest</text><rect fill="#FEFECE" filter="url(#fe85mlu2qz5w7)" height="30.7999" style="stroke: #A80036; stroke-width: 1.5;" width="124" x="323.5" y="927.4003"/><text fill="#000000" font-family="sans-serif" font-size="14" lengthAdjust="spacingAndGlyphs" textLength="110" x="330.5" y="948.4002">(Xml)HttpRequest</text><rect fill="#FEFECE" filter="url(#fe85mlu2qz5w7)" height="47.5999" style="stroke: #A80036; stroke-width: 1.5;" width="183" x="461.5" y="34.2001"/><text fill="#000000" font-family="sans-serif" font-size="14" lengthAdjust="spacingAndGlyphs" textLength="169" x="468.5" y="55.2">&lt;&lt;ChainOfResponsibility&gt;&gt;</text><text fill="#000000" font-family="sans-serif" font-size="14" lengthAdjust="spacingAndGlyphs" textLength="110" x="498" y="71.9999">ResponseHandler</text><rect fill="#FEFECE" filter="url(#fe85mlu2qz5w7)" height="47.5999" style="stroke: #A80036; stroke-width: 1.5;" width="183" x="461.5" y="927.4003"/><text fill="#000000" font-family="sans-serif" font-size="14" lengthAdjust="spacingAndGlyphs" textLength="169" x="468.5" y="948.4002">&lt;&lt;ChainOfResponsibility&gt;&gt;</text><text fill="#000000" font-family="sans-serif" font-size="14" lengthAdjust="spacingAndGlyphs" textLength="110" x="498" y="965.2001">ResponseHandler</text><rect fill="#ADD8E6" filter="url(#fe85mlu2qz5w7)" height="64.3998" style="stroke: #A80036; stroke-width: 1.5;" width="113" x="658.5" y="17.4001"/><text fill="#000000" font-family="sans-serif" font-size="14" lengthAdjust="spacingAndGlyphs" textLength="99" x="665.5" y="38.4001">&lt;&lt;description&gt;&gt;</text><text fill="#000000" font-family="sans-serif" font-size="14" lengthAdjust="spacingAndGlyphs" textLength="99" x="665.5" y="55.2">&lt;&lt;EventStore&gt;&gt;</text><text fill="#000000" font-family="sans-serif" font-size="14" lengthAdjust="spacingAndGlyphs" textLength="56" x="687" y="71.9999">LogEntry</text><rect fill="#ADD8E6" filter="url(#fe85mlu2qz5w7)" height="64.3998" style="stroke: #A80036; stroke-width: 1.5;" width="113" x="658.5" y="927.4003"/><text fill="#000000" font-family="sans-serif" font-size="14" lengthAdjust="spacingAndGlyphs" textLength="99" x="665.5" y="948.4002">&lt;&lt;description&gt;&gt;</text><text fill="#000000" font-family="sans-serif" font-size="14" lengthAdjust="spacingAndGlyphs" textLength="99" x="665.5" y="965.2001">&lt;&lt;EventStore&gt;&gt;</text><text fill="#000000" font-family="sans-serif" font-size="14" lengthAdjust="spacingAndGlyphs" textLength="56" x="687" y="982.0001">LogEntry</text><rect fill="#FFC0CB" filter="url(#fe85mlu2qz5w7)" height="47.5999" style="stroke: #A80036; stroke-width: 1.5;" width="144" x="785.5" y="34.2001"/><text fill="#000000" font-family="sans-serif" font-size="14" lengthAdjust="spacingAndGlyphs" textLength="130" x="792.5" y="55.2">&lt;&lt;moment-interval&gt;&gt;</text><text fill="#000000" font-family="sans-serif" font-size="14" lengthAdjust="spacingAndGlyphs" textLength="91" x="812" y="71.9999">ListAggregator</text><rect fill="#FFC0CB" filter="url(#fe85mlu2qz5w7)" height="47.5999" style="stroke: #A80036; stroke-width: 1.5;" width="144" x="785.5" y="927.4003"/><text fill="#000000" font-family="sans-serif" font-size="14" lengthAdjust="spacingAndGlyphs" textLength="130" x="792.5" y="948.4002">&lt;&lt;moment-interval&gt;&gt;</text><text fill="#000000" font-family="sans-serif" font-size="14" lengthAdjust="spacingAndGlyphs" textLength="91" x="812" y="965.2001">ListAggregator</text><rect fill="#90EE90" filter="url(#fe85mlu2qz5w7)" height="64.3998" style="stroke: #A80036; stroke-width: 1.5;" width="129" x="979" y="17.4001"/><text fill="#000000" font-family="sans-serif" font-size="14" lengthAdjust="spacingAndGlyphs" textLength="63" x="1012" y="38.4001">&lt;&lt;thing&gt;&gt;</text><text fill="#000000" font-family="sans-serif" font-size="14" lengthAdjust="spacingAndGlyphs" textLength="115" x="986" y="55.2">&lt;&lt;DisplayModel&gt;&gt;</text><text fill="#000000" font-family="sans-serif" font-size="14" lengthAdjust="spacingAndGlyphs" textLength="44" x="1021.5" y="71.9999">ListDM</text><rect fill="#90EE90" filter="url(#fe85mlu2qz5w7)" height="64.3998" style="stroke: #A80036; stroke-width: 1.5;" width="129" x="979" y="927.4003"/><text fill="#000000" font-family="sans-serif" font-size="14" lengthAdjust="spacingAndGlyphs" textLength="63" x="1012" y="948.4002">&lt;&lt;thing&gt;&gt;</text><text fill="#000000" font-family="sans-serif" font-size="14" lengthAdjust="spacingAndGlyphs" textLength="115" x="986" y="965.2001">&lt;&lt;DisplayModel&gt;&gt;</text><text fill="#000000" font-family="sans-serif" font-size="14" lengthAdjust="spacingAndGlyphs" textLength="44" x="1021.5" y="982.0001">ListDM</text><rect fill="#ADD8E6" filter="url(#fe85mlu2qz5w7)" height="47.5999" style="stroke: #A80036; stroke-width: 1.5;" width="113" x="1122" y="34.2001"/><text fill="#000000" font-family="sans-serif" font-size="14" lengthAdjust="spacingAndGlyphs" textLength="99" x="1129" y="55.2">&lt;&lt;description&gt;&gt;</text><text fill="#000000" font-family="sans-serif" font-size="14" lengthAdjust="spacingAndGlyphs" textLength="93" x="1132" y="71.9999">TransferObject</text><rect fill="#ADD8E6" filter="url(#fe85mlu2qz5w7)" height="47.5999" style="stroke: #A80036; stroke-width: 1.5;" width="113" x="1122" y="927.4003"/><text fill="#000000" font-family="sans-serif" font-size="14" lengthAdjust="spacingAndGlyphs" textLength="99" x="1129" y="948.4002">&lt;&lt;description&gt;&gt;</text><text fill="#000000" font-family="sans-serif" font-size="14" lengthAdjust="spacingAndGlyphs" textLength="93" x="1132" y="965.2001">TransferObject</text><rect fill="#FFFFFF" filter="url(#fe85mlu2qz5w7)" height="161.0001" style="stroke: #A80036; stroke-width: 1.0;" width="10" x="550" y="207.2"/><rect fill="#FFFFFF" filter="url(#fe85mlu2qz5w7)" height="512.6002" style="stroke: #A80036; stroke-width: 1.0;" width="10" x="854.5" y="368.2001"/><rect fill="#FFFFFF" filter="url(#fe85mlu2qz5w7)" height="64.2" style="stroke: #A80036; stroke-width: 1.0;" width="10" x="859.5" y="405.8001"/><rect fill="#FFFFFF" filter="url(#fe85mlu2qz5w7)" height="153.0001" style="stroke: #A80036; stroke-width: 1.0;" width="10" x="859.5" y="507.6001"/><rect fill="#FFFFFF" filter="url(#fe85mlu2qz5w7)" height="123.4001" style="stroke: #A80036; stroke-width: 1.0;" width="10" x="859.5" y="698.2002"/><polygon fill="#A80036" points="94.5,114.3999,104.5,118.3999,94.5,122.3999,98.5,118.3999" style="stroke: #A80036; stroke-width: 1.0;"/><line style="stroke: #A80036; stroke-width: 1.0;" x1="25.5" x2="100.5" y1="118.3999" y2="118.3999"/><text fill="#000000" font-family="sans-serif" font-size="13" lengthAdjust="spacingAndGlyphs" textLength="39" x="32.5" y="113.7999">listAll()</text><polygon fill="#A80036" points="216.5,144,226.5,148,216.5,152,220.5,148" style="stroke: #A80036; stroke-width: 1.0;"/><line style="stroke: #A80036; stroke-width: 1.0;" x1="106.5" x2="222.5" y1="148" y2="148"/><text fill="#000000" font-family="sans-serif" font-size="13" lengthAdjust="spacingAndGlyphs" textLength="45" x="113.5" y="143.4">invoke()</text><polygon fill="#A80036" points="375.5,173.6,385.5,177.6,375.5,181.6,379.5,177.6" style="stroke: #A80036; stroke-width: 1.0;"/><line style="stroke: #A80036; stroke-width: 1.0;" x1="228.5" x2="381.5" y1="177.6" y2="177.6"/><text fill="#000000" font-family="sans-serif" font-size="13" lengthAdjust="spacingAndGlyphs" textLength="46" x="235.5" y="173">Invoke()</text><polygon fill="#A80036" points="538,203.2,548,207.2,538,211.2,542,207.2" style="stroke: #A80036; stroke-width: 1.0;"/><line style="stroke: #A80036; stroke-width: 1.0;" x1="387.5" x2="544" y1="207.2" y2="207.2"/><text fill="#000000" font-family="sans-serif" font-size="13" lengthAdjust="spacingAndGlyphs" textLength="46" x="394.5" y="202.6">handle()</text><line style="stroke: #A80036; stroke-width: 1.0;" x1="560" x2="602" y1="236.8" y2="236.8"/><line style="stroke: #A80036; stroke-width: 1.0;" x1="602" x2="602" y1="236.8" y2="249.8"/><line style="stroke: #A80036; stroke-width: 1.0;" x1="561" x2="602" y1="249.8" y2="249.8"/><polygon fill="#A80036" points="571,245.8,561,249.8,571,253.8,567,249.8" style="stroke: #A80036; stroke-width: 1.0;"/><text fill="#000000" font-family="sans-serif" font-size="13" lengthAdjust="spacingAndGlyphs" textLength="106" x="567" y="232.2">successor.handle()</text><polygon fill="#A80036" points="1168.5,275.4,1178.5,279.4,1168.5,283.4,1172.5,279.4" style="stroke: #A80036; stroke-width: 1.0;"/><line style="stroke: #A80036; stroke-width: 1.0;" x1="560" x2="1174.5" y1="279.4" y2="279.4"/><text fill="#000000" font-family="sans-serif" font-size="13" lengthAdjust="spacingAndGlyphs" textLength="39" x="567" y="274.8">parse()</text><polygon fill="#A80036" points="705,305,715,309,705,313,709,309" style="stroke: #A80036; stroke-width: 1.0;"/><line style="stroke: #A80036; stroke-width: 1.0;" x1="560" x2="711" y1="309" y2="309"/><text fill="#000000" font-family="sans-serif" font-size="13" lengthAdjust="spacingAndGlyphs" textLength="110" x="567" y="304.4">setTransferObject()</text><polygon fill="#A80036" points="705,334.6,715,338.6,705,342.6,709,338.6" style="stroke: #A80036; stroke-width: 1.0;"/><line style="stroke: #A80036; stroke-width: 1.0;" x1="560" x2="711" y1="338.6" y2="338.6"/><text fill="#000000" font-family="sans-serif" font-size="13" lengthAdjust="spacingAndGlyphs" textLength="88" x="567" y="334">addAggegator()</text><polygon fill="#A80036" points="842.5,364.2001,852.5,368.2001,842.5,372.2001,846.5,368.2001" style="stroke: #A80036; stroke-width: 1.0;"/><line style="stroke: #A80036; stroke-width: 1.0;" x1="555" x2="848.5" y1="368.2001" y2="368.2001"/><text fill="#000000" font-family="sans-serif" font-size="13" lengthAdjust="spacingAndGlyphs" textLength="93" x="562" y="363.6">update(logEntry)</text><line style="stroke: #A80036; stroke-width: 1.0;" x1="864.5" x2="911.5" y1="392.8001" y2="392.8001"/><line style="stroke: #A80036; stroke-width: 1.0;" x1="911.5" x2="911.5" y1="392.8001" y2="405.8001"/><line style="stroke: #A80036; stroke-width: 1.0;" x1="870.5" x2="911.5" y1="405.8001" y2="405.8001"/><polygon fill="#A80036" points="880.5,401.8001,870.5,405.8001,880.5,409.8001,876.5,405.8001" style="stroke: #A80036; stroke-width: 1.0;"/><text fill="#000000" font-family="sans-serif" font-size="13" lengthAdjust="spacingAndGlyphs" textLength="66" x="876.5" y="388.2001">handleList()</text><polygon fill="#A80036" points="239.5,436.4001,229.5,440.4001,239.5,444.4001,235.5,440.4001" style="stroke: #A80036; stroke-width: 1.0;"/><line style="stroke: #A80036; stroke-width: 1.0;" x1="233.5" x2="858.5" y1="440.4001" y2="440.4001"/><text fill="#000000" font-family="sans-serif" font-size="13" lengthAdjust="spacingAndGlyphs" textLength="91" x="245.5" y="435.8001">invokeWith(this)</text><polygon fill="#A80036" points="375.5,466.0001,385.5,470.0001,375.5,474.0001,379.5,470.0001" style="stroke: #A80036; stroke-width: 1.0;"/><line style="stroke: #A80036; stroke-width: 1.0;" x1="228.5" x2="381.5" y1="470.0001" y2="470.0001"/><text fill="#000000" font-family="sans-serif" font-size="13" lengthAdjust="spacingAndGlyphs" textLength="97" x="235.5" y="465.4001">invoke(this, aggt)</text><line style="stroke: #A80036; stroke-width: 1.0;" x1="864.5" x2="911.5" y1="494.6001" y2="494.6001"/><line style="stroke: #A80036; stroke-width: 1.0;" x1="911.5" x2="911.5" y1="494.6001" y2="507.6001"/><line style="stroke: #A80036; stroke-width: 1.0;" x1="870.5" x2="911.5" y1="507.6001" y2="507.6001"/><polygon fill="#A80036" points="880.5,503.6001,870.5,507.6001,880.5,511.6001,876.5,507.6001" style="stroke: #A80036; stroke-width: 1.0;"/><text fill="#000000" font-family="sans-serif" font-size="13" lengthAdjust="spacingAndGlyphs" textLength="84" x="876.5" y="490.0001">handleObject()</text><polygon fill="#A80036" points="1033.5,538.2001,1043.5,542.2001,1033.5,546.2001,1037.5,542.2001" style="stroke: #A80036; stroke-width: 1.0;"/><line style="stroke: #A80036; stroke-width: 1.0;" x1="869.5" x2="1039.5" y1="542.2001" y2="542.2001"/><text fill="#000000" font-family="sans-serif" font-size="13" lengthAdjust="spacingAndGlyphs" textLength="67" x="876.5" y="537.6001">addData(to)</text><polygon fill="#A80036" points="239.5,567.8001,229.5,571.8001,239.5,575.8001,235.5,571.8001" style="stroke: #A80036; stroke-width: 1.0;"/><line style="stroke: #A80036; stroke-width: 1.0;" x1="233.5" x2="858.5" y1="571.8001" y2="571.8001"/><text fill="#000000" font-family="sans-serif" font-size="13" lengthAdjust="spacingAndGlyphs" textLength="129" x="245.5" y="567.2001">invokeWith(this, "json")</text><polygon fill="#A80036" points="375.5,597.4001,385.5,601.4001,375.5,605.4001,379.5,601.4001" style="stroke: #A80036; stroke-width: 1.0;"/><line style="stroke: #A80036; stroke-width: 1.0;" x1="228.5" x2="381.5" y1="601.4001" y2="601.4001"/><text fill="#000000" font-family="sans-serif" font-size="13" lengthAdjust="spacingAndGlyphs" textLength="135" x="235.5" y="596.8001">invoke(this, aggt, "json")</text><polygon fill="#A80036" points="239.5,627.0002,229.5,631.0002,239.5,635.0002,235.5,631.0002" style="stroke: #A80036; stroke-width: 1.0;"/><line style="stroke: #A80036; stroke-width: 1.0;" x1="233.5" x2="858.5" y1="631.0002" y2="631.0002"/><text fill="#000000" font-family="sans-serif" font-size="13" lengthAdjust="spacingAndGlyphs" textLength="126" x="245.5" y="626.4002">invokeWith(this, "xml")</text><polygon fill="#A80036" points="375.5,656.6002,385.5,660.6002,375.5,664.6002,379.5,660.6002" style="stroke: #A80036; stroke-width: 1.0;"/><line style="stroke: #A80036; stroke-width: 1.0;" x1="228.5" x2="381.5" y1="660.6002" y2="660.6002"/><text fill="#000000" font-family="sans-serif" font-size="13" lengthAdjust="spacingAndGlyphs" textLength="132" x="235.5" y="656.0002">invoke(this, aggt, "xml")</text><line style="stroke: #A80036; stroke-width: 1.0;" x1="864.5" x2="911.5" y1="685.2002" y2="685.2002"/><line style="stroke: #A80036; stroke-width: 1.0;" x1="911.5" x2="911.5" y1="685.2002" y2="698.2002"/><line style="stroke: #A80036; stroke-width: 1.0;" x1="870.5" x2="911.5" y1="698.2002" y2="698.2002"/><polygon fill="#A80036" points="880.5,694.2002,870.5,698.2002,880.5,702.2002,876.5,698.2002" style="stroke: #A80036; stroke-width: 1.0;"/><text fill="#000000" font-family="sans-serif" font-size="13" lengthAdjust="spacingAndGlyphs" textLength="84" x="876.5" y="680.6002">handleLayout()</text><polygon fill="#A80036" points="1033.5,728.8002,1043.5,732.8002,1033.5,736.8002,1037.5,732.8002" style="stroke: #A80036; stroke-width: 1.0;"/><line style="stroke: #A80036; stroke-width: 1.0;" x1="869.5" x2="1039.5" y1="732.8002" y2="732.8002"/><text fill="#000000" font-family="sans-serif" font-size="13" lengthAdjust="spacingAndGlyphs" textLength="78" x="876.5" y="728.2002">addLayout(to)</text><polygon fill="#A80036" points="1033.5,758.4002,1043.5,762.4002,1033.5,766.4002,1037.5,762.4002" style="stroke: #A80036; stroke-width: 1.0;"/><line style="stroke: #A80036; stroke-width: 1.0;" x1="869.5" x2="1039.5" y1="762.4002" y2="762.4002"/><text fill="#000000" font-family="sans-serif" font-size="13" lengthAdjust="spacingAndGlyphs" textLength="152" x="876.5" y="757.8002">addPropertyDescription(to)</text><polygon fill="#A80036" points="239.5,788.0002,229.5,792.0002,239.5,796.0002,235.5,792.0002" style="stroke: #A80036; stroke-width: 1.0;"/><line style="stroke: #A80036; stroke-width: 1.0;" x1="233.5" x2="858.5" y1="792.0002" y2="792.0002"/><text fill="#000000" font-family="sans-serif" font-size="13" lengthAdjust="spacingAndGlyphs" textLength="91" x="245.5" y="787.4002">invokeWith(this)</text><polygon fill="#A80036" points="375.5,817.6002,385.5,821.6002,375.5,825.6002,379.5,821.6002" style="stroke: #A80036; stroke-width: 1.0;"/><line style="stroke: #A80036; stroke-width: 1.0;" x1="228.5" x2="381.5" y1="821.6002" y2="821.6002"/><text fill="#000000" font-family="sans-serif" font-size="13" lengthAdjust="spacingAndGlyphs" textLength="97" x="235.5" y="817.0002">invoke(this, aggt)</text><polygon fill="#A80036" points="1033.5,847.2003,1043.5,851.2003,1033.5,855.2003,1037.5,851.2003" style="stroke: #A80036; stroke-width: 1.0;"/><line style="stroke: #A80036; stroke-width: 1.0;" x1="864.5" x2="1039.5" y1="851.2003" y2="851.2003"/><text fill="#000000" font-family="sans-serif" font-size="13" lengthAdjust="spacingAndGlyphs" textLength="100" x="871.5" y="846.6003">canBeDisplayed()</text><polygon fill="#A80036" points="117.5,876.8003,107.5,880.8003,117.5,884.8003,113.5,880.8003" style="stroke: #A80036; stroke-width: 1.0;"/><line style="stroke: #A80036; stroke-width: 1.0;" x1="111.5" x2="858.5" y1="880.8003" y2="880.8003"/><text fill="#000000" font-family="sans-serif" font-size="13" lengthAdjust="spacingAndGlyphs" textLength="63" x="123.5" y="876.2003">openView()</text><polygon fill="#A80036" points="36.5,906.4003,26.5,910.4003,36.5,914.4003,32.5,910.4003" style="stroke: #A80036; stroke-width: 1.0;"/><line style="stroke: #A80036; stroke-width: 1.0;" x1="30.5" x2="105.5" y1="910.4003" y2="910.4003"/><text fill="#000000" font-family="sans-serif" font-size="13" lengthAdjust="spacingAndGlyphs" textLength="42" x="42.5" y="905.8003">present</text><!--MD5=[01d2f8f1137a18190c3db83628d47e2c]
@startuml

actor User
participant "<<Singleton>>\nUI Manager" as UI
participant "<<description>>\nLink" as LNK #LightBlue
participant "(Xml)HttpRequest" as XHR
participant "<<ChainOfResponsibility>>\nResponseHandler" as RH
participant "<<description>>\n<<EventStore>>\nLogEntry" as LE #LightBlue
participant "<<moment-interval>>\nListAggregator" as AGGT  #Pink
participant "<<thing>>\n<<DisplayModel>>\nListDM" as DM #LightGreen
participant "<<description>>\nTransferObject" as TO #LightBlue

User -> UI : listAll()
UI -> LNK : invoke()
LNK -> XHR : Invoke()
XHR -> RH : handle()
activate RH
RH -> RH : successor.handle()
RH -> TO : parse()
RH -> LE : setTransferObject()
RH -> LE : addAggegator()
RH -> AGGT : update(logEntry)
deactivate RH
activate AGGT

AGGT -> AGGT : handleList()
activate AGGT
AGGT -> LNK : invokeWith(this)
LNK -> XHR: invoke(this, aggt)
deactivate AGGT

AGGT -> AGGT : handleObject()
activate AGGT
AGGT -> DM : addData(to)
AGGT -> LNK : invokeWith(this, "json")
LNK -> XHR: invoke(this, aggt, "json")
AGGT -> LNK : invokeWith(this, "xml")
LNK -> XHR: invoke(this, aggt, "xml")
deactivate AGGT

AGGT -> AGGT : handleLayout()
activate AGGT
AGGT -> DM : addLayout(to)
AGGT -> DM : addPropertyDescription(to)
AGGT -> LNK : invokeWith(this)
LNK -> XHR: invoke(this, aggt)
deactivate AGGT

AGGT -> DM : canBeDisplayed()
AGGT -> UI : openView()
deactivate AGGT


UI -> User : present

@enduml

PlantUML version 1.2020.15(Sun Jun 28 11:39:45 GMT 2020)
(GPL source distribution)
Java Runtime: OpenJDK Runtime Environment
JVM: OpenJDK 64-Bit Server VM
Default Encoding: UTF-8
Language: en
Country: US
--></g></svg>