<?xml version="1.0" encoding="UTF-8" standalone="no"?><svg xmlns="http://www.w3.org/2000/svg" xmlns:xlink="http://www.w3.org/1999/xlink" contentScriptType="application/ecmascript" contentStyleType="text/css" height="886px" preserveAspectRatio="none" style="width:1241px;height:886px;background:#FFFFFF;" version="1.1" viewBox="0 0 1241 886" width="1241px" zoomAndPan="magnify"><defs><filter height="300%" id="fze4tq5l6e4vu" width="300%" x="-1" y="-1"><feGaussianBlur result="blurOut" stdDeviation="2.0"/><feColorMatrix in="blurOut" result="blurOut2" type="matrix" values="0 0 0 0 0 0 0 0 0 0 0 0 0 0 0 0 0 0 .4 0"/><feOffset dx="4.0" dy="4.0" in="blurOut2" result="blurOut3"/><feBlend in="SourceGraphic" in2="blurOut3" mode="normal"/></filter></defs><g><!--MD5=[ea106891b45ca80f3b40e042460ac2e3]
cluster gradle--><rect fill="#FFFFFF" filter="url(#fze4tq5l6e4vu)" height="184" style="stroke:#000000;stroke-width:1.5;" width="411" x="126.5" y="252.5"/><rect fill="#FFFFFF" height="10" style="stroke:#000000;stroke-width:1.5;" width="15" x="517.5" y="257.5"/><rect fill="#FFFFFF" height="2" style="stroke:#000000;stroke-width:1.5;" width="4" x="515.5" y="259.5"/><rect fill="#FFFFFF" height="2" style="stroke:#000000;stroke-width:1.5;" width="4" x="515.5" y="263.5"/><text fill="#000000" font-family="sans-serif" font-size="14" font-style="italic" lengthAdjust="spacing" textLength="69" x="297.5" y="279.4999">«build.tool»</text><text fill="#000000" font-family="sans-serif" font-size="14" font-weight="bold" lengthAdjust="spacing" textLength="43" x="310.5" y="296.2999">gradle</text><!--MD5=[3fb92fba1735106d511c1d05a9f83ed2]
cluster root--><polygon fill="#FFD700" filter="url(#fze4tq5l6e4vu)" points="788.5,291.5,822.5,291.5,829.5,314.2999,1092.5,314.2999,1092.5,732.5,788.5,732.5,788.5,291.5" style="stroke:#000000;stroke-width:1.5;"/><line style="stroke:#000000;stroke-width:1.5;" x1="788.5" x2="829.5" y1="314.2999" y2="314.2999"/><text fill="#000000" font-family="sans-serif" font-size="14" font-weight="bold" lengthAdjust="spacing" textLength="28" x="792.5" y="307.4999">root</text><!--MD5=[f28f95b14f0c83ad8c9a9e34ae6e57b1]
cluster NM--><polygon fill="#FFD700" filter="url(#fze4tq5l6e4vu)" points="87.5,612.5,227.5,612.5,234.5,635.2999,337.5,635.2999,337.5,745.5,87.5,745.5,87.5,612.5" style="stroke:#000000;stroke-width:1.5;"/><line style="stroke:#000000;stroke-width:1.5;" x1="87.5" x2="234.5" y1="635.2999" y2="635.2999"/><text fill="#000000" font-family="sans-serif" font-size="14" font-weight="bold" lengthAdjust="spacing" textLength="134" x="91.5" y="628.4999">root.node_modules</text><!--MD5=[d3f63dd2493a0d75452850aaedea626f]
entity KF--><rect fill="#FEFECE" filter="url(#fze4tq5l6e4vu)" height="63.5999" style="stroke:#A80036;stroke-width:1.5;" width="134" x="379.5" y="348.5"/><rect fill="#FEFECE" height="10" style="stroke:#A80036;stroke-width:1.5;" width="15" x="493.5" y="353.5"/><rect fill="#FEFECE" height="2" style="stroke:#A80036;stroke-width:1.5;" width="4" x="491.5" y="355.5"/><rect fill="#FEFECE" height="2" style="stroke:#A80036;stroke-width:1.5;" width="4" x="491.5" y="359.5"/><text fill="#000000" font-family="sans-serif" font-size="14" font-style="italic" lengthAdjust="spacing" textLength="94" x="394.5" y="382.4999">«gradle.plugin»</text><text fill="#000000" font-family="sans-serif" font-size="14" lengthAdjust="spacing" textLength="87" x="398" y="399.2999">kotlinFrontend</text><!--MD5=[f2facf9cee52d933c99f4d69f0fb534a]
entity K2JS--><rect fill="#FEFECE" filter="url(#fze4tq5l6e4vu)" height="63.5999" style="stroke:#A80036;stroke-width:1.5;" width="111" x="248" y="348.5"/><rect fill="#FEFECE" height="10" style="stroke:#A80036;stroke-width:1.5;" width="15" x="339" y="353.5"/><rect fill="#FEFECE" height="2" style="stroke:#A80036;stroke-width:1.5;" width="4" x="337" y="355.5"/><rect fill="#FEFECE" height="2" style="stroke:#A80036;stroke-width:1.5;" width="4" x="337" y="359.5"/><text fill="#000000" font-family="sans-serif" font-size="14" font-style="italic" lengthAdjust="spacing" textLength="71" x="263" y="382.4999">«transpiler»</text><text fill="#000000" font-family="sans-serif" font-size="14" lengthAdjust="spacing" textLength="50" x="273.5" y="399.2999">kotlin2js</text><!--MD5=[2a58a75ea05b7a5fb0834acae81f83e0]
entity DCE--><rect fill="#FEFECE" filter="url(#fze4tq5l6e4vu)" height="46.7999" style="stroke:#A80036;stroke-width:1.5;" width="69" x="159" y="357"/><rect fill="#FEFECE" height="10" style="stroke:#A80036;stroke-width:1.5;" width="15" x="208" y="362"/><rect fill="#FEFECE" height="2" style="stroke:#A80036;stroke-width:1.5;" width="4" x="206" y="364"/><rect fill="#FEFECE" height="2" style="stroke:#A80036;stroke-width:1.5;" width="4" x="206" y="368"/><text fill="#000000" font-family="sans-serif" font-size="14" lengthAdjust="spacing" textLength="29" x="174" y="390.9999">DCE</text><!--MD5=[a4439dd5eea49f958aa42ae95b9e5837]
entity GCFG--><rect fill="#FEFECE" filter="url(#fze4tq5l6e4vu)" height="70.3998" style="stroke:#000000;stroke-width:1.5;" width="124" x="804.5" y="345.5"/><text fill="#000000" font-family="sans-serif" font-size="14" lengthAdjust="spacing" textLength="73" x="814.5" y="369.4999">build.gradle</text><text fill="#000000" font-family="sans-serif" font-size="14" lengthAdjust="spacing" textLength="91" x="814.5" y="386.2999">settings.gradle</text><text fill="#000000" font-family="sans-serif" font-size="14" lengthAdjust="spacing" textLength="104" x="814.5" y="403.0998">gradle.properties</text><!--MD5=[c17091bb9450719de56802ca6e5e1ef1]
entity KC--><rect fill="#FEFECE" filter="url(#fze4tq5l6e4vu)" height="36.7999" style="stroke:#000000;stroke-width:1.5;" width="103" x="805" y="679.5"/><text fill="#000000" font-family="sans-serif" font-size="14" lengthAdjust="spacing" textLength="83" x="815" y="703.4999">karma.conf.js</text><!--MD5=[e4aaec21de269c7bd285ce6876c0ce8e]
entity PJ--><rect fill="#FEFECE" filter="url(#fze4tq5l6e4vu)" height="36.7999" style="stroke:#000000;stroke-width:1.5;" width="102" x="974.5" y="679.5"/><text fill="#000000" font-family="sans-serif" font-size="14" lengthAdjust="spacing" textLength="82" x="984.5" y="703.4999">package.json</text><!--MD5=[1589b7aebea7faa6412065a7cb4c3aef]
entity root.build--><polygon fill="#FFD700" filter="url(#fze4tq5l6e4vu)" points="183.5,520,267.5,520,274.5,542.7999,291.5,542.7999,291.5,559.7999,183.5,559.7999,183.5,520" style="stroke:#000000;stroke-width:1.5;"/><line style="stroke:#000000;stroke-width:1.5;" x1="183.5" x2="274.5" y1="542.7999" y2="542.7999"/><text fill="#000000" font-family="sans-serif" font-size="14" font-weight="bold" lengthAdjust="spacing" textLength="66" x="193.5" y="536.9999">root.build</text><!--MD5=[7eb69e8c49b0f1a4682e6d31435646e4]
entity karma--><rect fill="#FEFECE" filter="url(#fze4tq5l6e4vu)" height="46.7999" style="stroke:#A80036;stroke-width:1.5;" width="79" x="119" y="674.5"/><rect fill="#FEFECE" height="10" style="stroke:#A80036;stroke-width:1.5;" width="15" x="178" y="679.5"/><rect fill="#FEFECE" height="2" style="stroke:#A80036;stroke-width:1.5;" width="4" x="176" y="681.5"/><rect fill="#FEFECE" height="2" style="stroke:#A80036;stroke-width:1.5;" width="4" x="176" y="685.5"/><text fill="#000000" font-family="sans-serif" font-size="14" lengthAdjust="spacing" textLength="39" x="134" y="708.4999">karma</text><!--MD5=[83d7c66368a3272c2ae5778d39252274]
entity webpack--><rect fill="#FEFECE" filter="url(#fze4tq5l6e4vu)" height="46.7999" style="stroke:#A80036;stroke-width:1.5;" width="95" x="218" y="674.5"/><rect fill="#FEFECE" height="10" style="stroke:#A80036;stroke-width:1.5;" width="15" x="293" y="679.5"/><rect fill="#FEFECE" height="2" style="stroke:#A80036;stroke-width:1.5;" width="4" x="291" y="681.5"/><rect fill="#FEFECE" height="2" style="stroke:#A80036;stroke-width:1.5;" width="4" x="291" y="685.5"/><text fill="#000000" font-family="sans-serif" font-size="14" lengthAdjust="spacing" textLength="55" x="233" y="708.4999">webpack</text><!--MD5=[42d6953858ce5900db35acbc378ad4b0]
entity NodeJS--><rect fill="#FEFECE" filter="url(#fze4tq5l6e4vu)" height="46.7999" style="stroke:#A80036;stroke-width:1.5;" width="88" x="220.5" y="47"/><rect fill="#FEFECE" height="10" style="stroke:#A80036;stroke-width:1.5;" width="15" x="288.5" y="52"/><rect fill="#FEFECE" height="2" style="stroke:#A80036;stroke-width:1.5;" width="4" x="286.5" y="54"/><rect fill="#FEFECE" height="2" style="stroke:#A80036;stroke-width:1.5;" width="4" x="286.5" y="58"/><text fill="#000000" font-family="sans-serif" font-size="14" lengthAdjust="spacing" textLength="48" x="235.5" y="80.9999">NodeJS</text><!--MD5=[e9dede37b31fdda9664526f66258b036]
entity Browser--><rect fill="#FEFECE" filter="url(#fze4tq5l6e4vu)" height="46.7999" style="stroke:#A80036;stroke-width:1.5;" width="90" x="113.5" y="825.5"/><rect fill="#FEFECE" height="10" style="stroke:#A80036;stroke-width:1.5;" width="15" x="183.5" y="830.5"/><rect fill="#FEFECE" height="2" style="stroke:#A80036;stroke-width:1.5;" width="4" x="181.5" y="832.5"/><rect fill="#FEFECE" height="2" style="stroke:#A80036;stroke-width:1.5;" width="4" x="181.5" y="836.5"/><text fill="#000000" font-family="sans-serif" font-size="14" lengthAdjust="spacing" textLength="50" x="128.5" y="859.4999">Browser</text><!--MD5=[f664b171d46fe37ddaaa8e800b616d7d]
entity DEV--><ellipse cx="167.5" cy="14" fill="#FEFECE" filter="url(#fze4tq5l6e4vu)" rx="8" ry="8" style="stroke:#A80036;stroke-width:1.5;"/><path d="M167.5,22 L167.5,49 M154.5,30 L180.5,30 M167.5,49 L154.5,64 M167.5,49 L180.5,64 " fill="none" filter="url(#fze4tq5l6e4vu)" style="stroke:#A80036;stroke-width:1.5;"/><text fill="#000000" font-family="sans-serif" font-size="14" lengthAdjust="spacing" textLength="65" x="135" y="83.4999">Developer,</text><text fill="#000000" font-family="sans-serif" font-size="14" lengthAdjust="spacing" textLength="40" x="135" y="100.2999">almost</text><text fill="#000000" font-family="sans-serif" font-size="14" lengthAdjust="spacing" textLength="30" x="135" y="117.0998">gone</text><text fill="#000000" font-family="sans-serif" font-size="14" lengthAdjust="spacing" textLength="48" x="135" y="133.8997">crazy;-)</text><ellipse cx="167.6005" cy="170.4201" fill="#FEFECE" filter="url(#fze4tq5l6e4vu)" rx="72.6005" ry="16.9201" style="stroke:#A80036;stroke-width:1.5;"/><text fill="#000000" font-family="sans-serif" font-size="14" lengthAdjust="spacing" textLength="99" x="118.1005" y="174.0201">$ gradlew -t run</text><ellipse cx="554.2709" cy="539.9542" fill="#FEFECE" filter="url(#fze4tq5l6e4vu)" rx="102.7709" ry="22.9542" style="stroke:#A80036;stroke-width:1.5;"/><text fill="#000000" font-family="sans-serif" font-size="14" lengthAdjust="spacing" textLength="169" x="469.7709" y="543.5542">$ npm install &lt;&gt; --save-dev</text><ellipse cx="63.5968" cy="539.912" fill="#FEFECE" filter="url(#fze4tq5l6e4vu)" rx="57.5968" ry="14.912" style="stroke:#A80036;stroke-width:1.5;"/><text fill="#000000" font-family="sans-serif" font-size="14" lengthAdjust="spacing" textLength="65" x="28.2414" y="544.1349">$ npm test</text><!--MD5=[ff7a41c1395361ee029806f0eb7e0726]
entity npm--><rect fill="#FEFECE" filter="url(#fze4tq5l6e4vu)" height="46.7999" style="stroke:#A80036;stroke-width:1.5;" width="67" x="705" y="516.5"/><rect fill="#FEFECE" height="10" style="stroke:#A80036;stroke-width:1.5;" width="15" x="752" y="521.5"/><rect fill="#FEFECE" height="2" style="stroke:#A80036;stroke-width:1.5;" width="4" x="750" y="523.5"/><rect fill="#FEFECE" height="2" style="stroke:#A80036;stroke-width:1.5;" width="4" x="750" y="527.5"/><text fill="#000000" font-family="sans-serif" font-size="14" lengthAdjust="spacing" textLength="27" x="720" y="550.4999">npm</text><path d="M1109,685 L1109,694 L1076.76,698 L1109,702 L1109,710.6 A0,0 0 0 0 1109,710.6 L1232,710.6 A0,0 0 0 0 1232,710.6 L1232,695 L1222,685 L1109,685 A0,0 0 0 0 1109,685 " fill="#FBFB77" filter="url(#fze4tq5l6e4vu)" style="stroke:#A80036;stroke-width:1.0;"/><path d="M1222,685 L1222,695 L1232,695 L1222,685 " fill="#FBFB77" style="stroke:#A80036;stroke-width:1.0;"/><text fill="#000000" font-family="sans-serif" font-size="13" lengthAdjust="spacing" textLength="102" x="1115" y="703">package.json.lock</text><!--MD5=[c668cf785a96bc7a2782c7867237511f]
link GCFG to PJ--><!--MD5=[c657d0b6483e9c774ed213975b370d94]
link gradle to GCFG--><path d="M126.4079,350.595 C126.3682,350.4057 126.3286,350.2157 126.2891,350.0251 C126.2101,349.6439 126.1314,349.2602 126.0531,348.874 C125.8965,348.1017 125.7414,347.3197 125.5882,346.5285 C125.2818,344.946 124.9831,343.3267 124.695,341.6747 C123.5429,335.0666 122.5628,327.9353 121.9563,320.5463 C119.53,290.99 123.08,257.31 145.5,236.5 C231.66,156.52 556.94,235.61 674.5,235.5 C702.06,235.47 711.34,224.27 736.5,235.5 C784.36,256.87 821.93,305.54 844.12,340.6 " fill="none" id="gradle-to-GCFG" style="stroke:#A80036;stroke-width:1.0;stroke-dasharray:7.0,7.0;"/><polygon fill="#A80036" points="847.02,345.24,845.6184,335.4914,844.3597,341.0064,838.8447,339.7478,847.02,345.24" style="stroke:#A80036;stroke-width:1.0;"/><text fill="#000000" font-family="sans-serif" font-size="13" lengthAdjust="spacing" textLength="60" x="675.5" y="209.5">configured</text><text fill="#000000" font-family="sans-serif" font-size="13" lengthAdjust="spacing" textLength="43" x="684" y="225.1">through</text><!--MD5=[0e6521e4d96fc5ccc0e6675c405928e0]
link gradle to webpack--><path d="M142.5448,436.761 C142.5665,436.885 142.5882,437.009 142.6099,437.1329 C142.6533,437.3808 142.6969,437.6287 142.7406,437.8765 C142.9153,438.8677 143.092,439.8578 143.2707,440.8456 C143.9852,444.7967 144.73,448.71 145.5,452.5 C155.63,502.36 142.73,522.98 173.5,563.5 C177.83,569.21 182,566.91 187.5,571.5 C198.64,580.8 200.22,584.58 208.5,596.5 C224.99,620.24 240.98,649.09 251.8,669.79 " fill="none" id="gradle-to-webpack" style="stroke:#A80036;stroke-width:1.0;"/><polygon fill="#A80036" points="254.17,674.34,253.5467,664.5109,251.8542,669.9086,246.4565,668.2161,254.17,674.34" style="stroke:#A80036;stroke-width:1.0;"/><!--MD5=[a464840e48eb4f66b3cec040cdcab49e]
link K2JS to root.build--><path d="M275.64,412.53 C264.25,425.06 250.86,439.58 238.5,452.5 C235.02,456.13 232.42,455.85 230.5,460.5 C223.4,477.65 225.79,498.67 229.61,514.64 " fill="none" id="K2JS-to-root.build" style="stroke:#A80036;stroke-width:1.0;"/><polygon fill="#A80036" points="230.94,519.85,232.5772,510.1382,229.6971,515.0069,224.8283,512.1268,230.94,519.85" style="stroke:#A80036;stroke-width:1.0;"/><text fill="#000000" font-family="sans-serif" font-size="13" lengthAdjust="spacing" textLength="56" x="231.5" y="474.5">generates</text><ellipse cx="253" cy="485.2" fill="#000000" rx="2.5" ry="2.5" style="stroke:#000000;stroke-width:0.0;"/><text fill="#000000" font-family="sans-serif" font-size="13" lengthAdjust="spacing" textLength="12" x="259.5" y="490.1">.js</text><ellipse cx="237.5" cy="500.8" fill="#000000" rx="2.5" ry="2.5" style="stroke:#000000;stroke-width:0.0;"/><text fill="#000000" font-family="sans-serif" font-size="13" lengthAdjust="spacing" textLength="43" x="244" y="505.7">-tests.js</text><!--MD5=[0ccef5771aaf04055a305d067fe0eea8]
link KF to KC--><path d="M412.28,412.66 C387.3,437.88 355.47,475.78 341.5,516.5 C334.72,536.26 328.72,546.98 341.5,563.5 C397.74,636.18 677.72,676.53 799.62,690.9 " fill="none" id="KF-to-KC" style="stroke:#A80036;stroke-width:1.0;"/><polygon fill="#A80036" points="804.6,691.48,796.1298,686.4544,799.6343,690.895,795.1938,694.3995,804.6,691.48" style="stroke:#A80036;stroke-width:1.0;"/><text fill="#000000" font-family="sans-serif" font-size="13" lengthAdjust="spacing" textLength="98" x="342.5" y="545.5">initially generates</text><!--MD5=[8d7e0dff31da885e72fdc85f04d79e62]
link KC to PJ--><path d="M908.12,698 C927.46,698 949.52,698 969.25,698 " fill="none" id="KC-to-PJ" style="stroke:#A80036;stroke-width:1.0;"/><polygon fill="#A80036" points="974.48,698,965.48,694,969.48,698,965.48,702,974.48,698" style="stroke:#A80036;stroke-width:1.0;"/><text fill="#000000" font-family="sans-serif" font-size="13" lengthAdjust="spacing" textLength="45" x="918.75" y="692">requires</text><!--MD5=[c6bfe5db0d9522034a77668c71e39324]
link PJ to NM--><path d="M1012.6,679.11 C994.74,654.85 959.97,613.92 918.5,597.5 C876.56,580.89 140.09,567.39 106.5,597.5 C102.5138,601.0738 99.3212,605.2225 96.7899,609.7585 C96.4735,610.3255 96.1674,610.8986 95.8714,611.4773 C95.7234,611.7667 95.5779,612.0575 95.4349,612.3496 " fill="none" id="PJ-to-NM" style="stroke:#A80036;stroke-width:1.0;"/><polygon fill="#A80036" points="95.4349,612.3496,102.9843,606.0245,97.633,607.8587,95.7988,602.5075,95.4349,612.3496" style="stroke:#A80036;stroke-width:1.0;"/><text fill="#000000" font-family="sans-serif" font-size="13" lengthAdjust="spacing" textLength="41" x="144" y="585.5">adds to</text><!--MD5=[d4f15545423303776113a9574a096e5f]
link DEV to RUN--><path d="M167.5,136.59 C167.5,140.68 167.5,144.6 167.5,148.22 " fill="none" id="DEV-to-RUN" style="stroke:#A80036;stroke-width:1.0;"/><polygon fill="#A80036" points="167.5,153.28,171.5,144.28,167.5,148.28,163.5,144.28,167.5,153.28" style="stroke:#A80036;stroke-width:1.0;"/><!--MD5=[f3b0fd7d4b151759cb13e321df9d8a78]
link DEV to NI--><path d="M200.14,127.11 C203.37,130.55 206.83,133.73 210.5,136.5 C239.9,158.68 503.39,207.82 526.5,236.5 C592.03,317.82 572.94,454.33 560.93,512 " fill="none" id="DEV-to-NI" style="stroke:#A80036;stroke-width:1.0;"/><polygon fill="#A80036" points="559.86,517,565.6506,509.0333,560.9037,512.1102,557.8269,507.3633,559.86,517" style="stroke:#A80036;stroke-width:1.0;"/><!--MD5=[b17037f98e12b29962cd7c1ac441a1f1]
link RUN to gradle--><path d="M160.84,187.48 C155.74,200.46 149.01,219.34 145.5,236.5 C144.715,240.3425 143.985,244.2535 143.3061,248.21 C143.1364,249.1991 142.9699,250.191 142.8065,251.1855 C142.7656,251.4341 142.725,251.6829 142.6845,251.9318 " fill="none" id="RUN-to-gradle" style="stroke:#A80036;stroke-width:1.0;"/><polygon fill="#A80036" points="142.6845,251.9318,148.0765,243.69,143.4866,246.9965,140.1801,242.4067,142.6845,251.9318" style="stroke:#A80036;stroke-width:1.0;"/><!--MD5=[ab89fc97919d97f1f5f6fb1ea42f9f2d]
link NI to npm--><path d="M657.53,540 C672.47,540 687.02,540 699.57,540 " fill="none" id="NI-to-npm" style="stroke:#A80036;stroke-width:1.0;stroke-dasharray:7.0,7.0;"/><polygon fill="#A80036" points="704.83,540,695.83,536,699.83,540,695.83,544,704.83,540" style="stroke:#A80036;stroke-width:1.0;"/><text fill="#000000" font-family="sans-serif" font-size="13" lengthAdjust="spacing" textLength="26" x="668.25" y="534">uses</text><!--MD5=[f85af7db3b42217e115ddf1011bcd57f]
link NI to PJ--><path d="M636.12,554.19 C655.57,557.28 676.27,560.54 695.5,563.5 C720.26,567.31 895.95,585.59 918.5,596.5 C956.67,614.96 990.42,651.88 1009.37,675.46 " fill="none" id="NI-to-PJ" style="stroke:#A80036;stroke-width:1.0;"/><polygon fill="#A80036" points="1012.51,679.41,1010.0581,669.8712,1009.4058,675.4904,1003.7866,674.838,1012.51,679.41" style="stroke:#A80036;stroke-width:1.0;"/><text fill="#000000" font-family="sans-serif" font-size="13" lengthAdjust="spacing" textLength="45" x="885.5" y="585.5">updates</text><!--MD5=[20a9e19418e70fd4168eb3c6e1e94ca5]
link DEV to TEST--><path d="M134.82,94.52 C116.86,109.16 96.12,129.8 85.5,153.5 C27.62,282.7 50.26,461.08 59.97,519.57 " fill="none" id="DEV-to-TEST" style="stroke:#A80036;stroke-width:1.0;"/><polygon fill="#A80036" points="60.86,524.86,63.2857,515.3145,60.0172,519.9315,55.4001,516.6631,60.86,524.86" style="stroke:#A80036;stroke-width:1.0;"/><!--MD5=[f1ad7c348f545d25b38a2b6484a9d476]
link TEST to npm--><path d="M100.46,528.32 C145.5,514.74 224.18,493.17 293.5,485 C459.16,465.47 504.19,482.51 667.5,516.5 C678.3,518.75 689.76,522.09 700.24,525.56 " fill="none" id="TEST-to-npm" style="stroke:#A80036;stroke-width:1.0;stroke-dasharray:7.0,7.0;"/><polygon fill="#A80036" points="704.98,527.16,697.7128,520.5126,700.238,525.5746,695.1761,528.0998,704.98,527.16" style="stroke:#A80036;stroke-width:1.0;"/><text fill="#000000" font-family="sans-serif" font-size="13" lengthAdjust="spacing" textLength="26" x="294.5" y="490">uses</text><!--MD5=[e70c9030adc7658768ddcf0fba065aeb]
link TEST to karma--><path d="M59.42,555.18 C57.35,565.64 56.68,579.56 64.5,588.5 C79.6,605.78 97.39,582.41 115.5,596.5 C138.2,614.16 149.09,646.13 154.2,669.27 " fill="none" id="TEST-to-karma" style="stroke:#A80036;stroke-width:1.0;"/><polygon fill="#A80036" points="155.27,674.37,157.3358,664.7402,154.2428,669.4766,149.5064,666.3837,155.27,674.37" style="stroke:#A80036;stroke-width:1.0;"/><text fill="#000000" font-family="sans-serif" font-size="13" lengthAdjust="spacing" textLength="24" x="65.5" y="585.5">runs</text><!--MD5=[9ca04c15e2688d803d183f81b48772ee]
link karma to Browser--><path d="M158.5,721.63 C158.5,747.99 158.5,791.56 158.5,820.03 " fill="none" id="karma-to-Browser" style="stroke:#A80036;stroke-width:1.0;"/><polygon fill="#A80036" points="158.5,825.16,162.5,816.16,158.5,820.16,154.5,816.16,158.5,825.16" style="stroke:#A80036;stroke-width:1.0;"/><text fill="#000000" font-family="sans-serif" font-size="13" lengthAdjust="spacing" textLength="45" x="173" y="783.5">displays</text><text fill="#000000" font-family="sans-serif" font-size="13" lengthAdjust="spacing" textLength="61" x="165" y="799.1">test results</text><text fill="#000000" font-family="sans-serif" font-size="13" lengthAdjust="spacing" textLength="72" x="159.5" y="814.7">via port 9876</text><!--MD5=[ca83f27109c842cfe27489e24f09e85b]
@startuml
skinparam nodesep 20
skinparam ranksep 5

top to bottom direction

component gradle <<build.tool>> {
    component kotlinFrontend <<gradle.plugin>> as KF
    component kotlin2js <<transpiler>> as K2JS
    component DCE
}


package root #gold {
    rectangle "build.gradle\nsettings.gradle\ngradle.properties" as GCFG
    rectangle karma.conf.js as KC
    rectangle package.json as PJ
    GCFG -[hidden]- -> PJ
}
package root.build  #gold {
}
package root.node_modules as NM #gold {
    component karma
    component webpack
}
component NodeJS
component Browser

gradle .> GCFG : configured\nthrough
gradle - -> webpack

K2JS - -> root.build : generates\n*.js\n*-tests.js
KF - -> KC : initially generates
KC -> PJ : requires
PJ -> NM : adds to

:Developer,\nalmost\ngone\ncrazy;-): as DEV
($ gradlew -t run) as RUN
($ npm install <> - -save-dev) as NI
($ npm test) as TEST

DEV - -> RUN
DEV - -> NI
RUN - -> gradle


component npm
NI .> npm : uses
NI -> PJ : updates


DEV - -> TEST
TEST .> npm : uses
TEST - -> karma : runs
karma - -> Browser : displays\ntest results\nvia port 9876

note left of PJ
package.json.lock
end note
@enduml

PlantUML version 1.2021.6(Fri May 14 07:09:51 GMT 2021)
(GPL source distribution)
Java Runtime: OpenJDK Runtime Environment
JVM: OpenJDK 64-Bit Server VM
Default Encoding: UTF-8
Language: en
Country: US
--></g></svg>