<?xml version="1.0" encoding="UTF-8" standalone="no"?><svg xmlns="http://www.w3.org/2000/svg" xmlns:xlink="http://www.w3.org/1999/xlink" contentStyleType="text/css" height="556px" preserveAspectRatio="none" style="width:824px;height:556px;background:#FFFFFF;" version="1.1" viewBox="0 0 824 556" width="824px" zoomAndPan="magnify"><defs/><g><!--MD5=[4945c737fad898a5ce312252f730d528]
class Renderer--><g id="elem_Renderer"><rect codeLine="1" fill="#F1F1F1" height="115.1997" id="Renderer" rx="2.5" ry="2.5" style="stroke:#181818;stroke-width:0.5;" width="114" x="302" y="166"/><ellipse cx="326.9" cy="182" fill="#A9DCDF" rx="11" ry="11" style="stroke:#181818;stroke-width:1.0;"/><path d="M327.8531,185.6563 Q327.8531,185.1563 328.1344,184.9844 Q328.4313,184.7969 328.9781,184.7969 L329.3688,184.7969 L328.9781,183.8125 L324.9313,183.8125 L324.5406,184.7969 L324.9313,184.7969 Q326.0406,184.7969 326.0406,185.6563 Q326.0406,186.5 324.9313,186.5 L322.6656,186.5 Q321.5406,186.5 321.5406,185.6563 Q321.5406,185.1406 321.8375,184.9688 Q322.1344,184.7969 322.6813,184.7969 L325.3219,178.2813 L324.2438,178.2813 Q323.1031,178.2813 323.1031,177.4375 Q323.1031,176.9219 323.4,176.7656 Q323.6969,176.5938 324.2438,176.5938 L327.9156,176.5938 L331.3063,184.7969 Q332.4625,184.7969 332.4625,185.6563 Q332.4625,186.5 331.3375,186.5 L328.9781,186.5 Q327.8531,186.5 327.8531,185.6563 Z M328.275,182.1094 L326.9469,178.8438 L325.6031,182.1094 L328.275,182.1094 Z " fill="#000000"/><text fill="#000000" font-family="sans-serif" font-size="14" font-style="italic" lengthAdjust="spacing" textLength="60" x="343.1" y="187.6">Renderer</text><line style="stroke:#181818;stroke-width:0.5;" x1="303" x2="415" y1="198" y2="198"/><text fill="#000000" font-family="sans-serif" font-size="14" lengthAdjust="spacing" textLength="102" x="308" y="215.9999">iconName:String</text><text fill="#000000" font-family="sans-serif" font-size="14" lengthAdjust="spacing" textLength="62" x="308" y="232.7999">title:String</text><text fill="#000000" font-family="sans-serif" font-size="14" lengthAdjust="spacing" textLength="84" x="308" y="249.5998">view:RvzView</text><text fill="#000000" font-family="sans-serif" font-size="14" lengthAdjust="spacing" textLength="101" x="308" y="266.3997">protocol:Protocol</text><line style="stroke:#181818;stroke-width:0.5;" x1="303" x2="415" y1="273.1997" y2="273.1997"/></g><!--MD5=[a0c27cfb527bdb20a6436baa93834728]
class Protocol--><g id="elem_Protocol"><rect codeLine="9" fill="#F1F1F1" height="64.7999" id="Protocol" rx="2.5" ry="2.5" style="stroke:#181818;stroke-width:0.5;" width="201" x="497.5" y="191"/><ellipse cx="567.75" cy="207" fill="#A9DCDF" rx="11" ry="11" style="stroke:#181818;stroke-width:1.0;"/><path d="M568.7031,210.6563 Q568.7031,210.1563 568.9844,209.9844 Q569.2813,209.7969 569.8281,209.7969 L570.2188,209.7969 L569.8281,208.8125 L565.7813,208.8125 L565.3906,209.7969 L565.7813,209.7969 Q566.8906,209.7969 566.8906,210.6563 Q566.8906,211.5 565.7813,211.5 L563.5156,211.5 Q562.3906,211.5 562.3906,210.6563 Q562.3906,210.1406 562.6875,209.9688 Q562.9844,209.7969 563.5313,209.7969 L566.1719,203.2813 L565.0938,203.2813 Q563.9531,203.2813 563.9531,202.4375 Q563.9531,201.9219 564.25,201.7656 Q564.5469,201.5938 565.0938,201.5938 L568.7656,201.5938 L572.1563,209.7969 Q573.3125,209.7969 573.3125,210.6563 Q573.3125,211.5 572.1875,211.5 L569.8281,211.5 Q568.7031,211.5 568.7031,210.6563 Z M569.125,207.1094 L567.7969,203.8438 L566.4531,207.1094 L569.125,207.1094 Z " fill="#000000"/><text fill="#000000" font-family="sans-serif" font-size="14" font-style="italic" lengthAdjust="spacing" textLength="52" x="588.25" y="212.6">Protocol</text><line style="stroke:#181818;stroke-width:0.5;" x1="498.5" x2="697.5" y1="223" y2="223"/><line style="stroke:#181818;stroke-width:0.5;" x1="498.5" x2="697.5" y1="231" y2="231"/><text fill="#000000" font-family="sans-serif" font-size="14" lengthAdjust="spacing" textLength="189" x="503.5" y="248.9999">includes(propertyName:String)</text></g><!--MD5=[b6539e280a383d4bd2138df28ea79f0b]
class ObjectRdr--><g id="elem_ObjectRdr"><rect fill="#F1F1F1" height="48" id="ObjectRdr" rx="2.5" ry="2.5" style="stroke:#181818;stroke-width:0.5;" width="95" x="263.5" y="367"/><ellipse cx="278.5" cy="383" fill="#ADD1B2" rx="11" ry="11" style="stroke:#181818;stroke-width:1.0;"/><path d="M277.8594,386.7813 Q278.6563,386.7813 279.2188,386.5938 Q279.7969,386.3906 280.0313,386.1719 Q280.2813,385.9375 280.5156,385.75 Q280.7656,385.5469 280.9844,385.5469 Q281.3281,385.5469 281.5781,385.8125 Q281.8438,386.0625 281.8438,386.3906 Q281.8438,387.125 280.6719,387.8125 Q279.5156,388.4844 277.8125,388.4844 Q275.6563,388.4844 274.2344,387.2188 Q272.8125,385.9531 272.8125,384.0156 L272.8125,382.8906 Q272.8125,380.8594 274.1406,379.4844 Q275.4688,378.0938 277.4375,378.0938 Q278.625,378.0938 279.8438,378.6719 L280.0156,378.75 Q280.3125,378.3438 280.7344,378.3438 Q281.2188,378.3438 281.3906,378.6406 Q281.5781,378.9219 281.5781,379.4688 L281.5781,380.8906 Q281.5781,382.0156 280.7344,382.0156 Q280.4219,382.0156 280.2188,381.8438 Q280.0313,381.6719 279.9844,381.5313 Q279.9531,381.375 279.9063,381.1094 Q279.7969,380.5938 279.2813,380.2813 Q278.7656,379.9688 278.3125,379.8906 Q277.875,379.7969 277.5,379.7969 Q276.2188,379.7969 275.3594,380.6719 Q274.5156,381.5469 274.5156,382.8906 L274.5156,383.9844 Q274.5156,385.2656 275.4219,386.0313 Q276.3281,386.7813 277.8594,386.7813 Z " fill="#000000"/><text fill="#000000" font-family="sans-serif" font-size="14" lengthAdjust="spacing" textLength="63" x="292.5" y="388.6">ObjectRdr</text><line style="stroke:#181818;stroke-width:0.5;" x1="264.5" x2="357.5" y1="399" y2="399"/><line style="stroke:#181818;stroke-width:0.5;" x1="264.5" x2="357.5" y1="407" y2="407"/></g><!--MD5=[d6ae8c69a1e8d6a13eccb0dce773b0aa]
class CollectionRdr--><g id="elem_CollectionRdr"><rect fill="#F1F1F1" height="48" id="CollectionRdr" rx="2.5" ry="2.5" style="stroke:#181818;stroke-width:0.5;" width="114" x="394" y="367"/><ellipse cx="409" cy="383" fill="#ADD1B2" rx="11" ry="11" style="stroke:#181818;stroke-width:1.0;"/><path d="M408.3594,386.7813 Q409.1563,386.7813 409.7188,386.5938 Q410.2969,386.3906 410.5313,386.1719 Q410.7813,385.9375 411.0156,385.75 Q411.2656,385.5469 411.4844,385.5469 Q411.8281,385.5469 412.0781,385.8125 Q412.3438,386.0625 412.3438,386.3906 Q412.3438,387.125 411.1719,387.8125 Q410.0156,388.4844 408.3125,388.4844 Q406.1563,388.4844 404.7344,387.2188 Q403.3125,385.9531 403.3125,384.0156 L403.3125,382.8906 Q403.3125,380.8594 404.6406,379.4844 Q405.9688,378.0938 407.9375,378.0938 Q409.125,378.0938 410.3438,378.6719 L410.5156,378.75 Q410.8125,378.3438 411.2344,378.3438 Q411.7188,378.3438 411.8906,378.6406 Q412.0781,378.9219 412.0781,379.4688 L412.0781,380.8906 Q412.0781,382.0156 411.2344,382.0156 Q410.9219,382.0156 410.7188,381.8438 Q410.5313,381.6719 410.4844,381.5313 Q410.4531,381.375 410.4063,381.1094 Q410.2969,380.5938 409.7813,380.2813 Q409.2656,379.9688 408.8125,379.8906 Q408.375,379.7969 408,379.7969 Q406.7188,379.7969 405.8594,380.6719 Q405.0156,381.5469 405.0156,382.8906 L405.0156,383.9844 Q405.0156,385.2656 405.9219,386.0313 Q406.8281,386.7813 408.3594,386.7813 Z " fill="#000000"/><text fill="#000000" font-family="sans-serif" font-size="14" lengthAdjust="spacing" textLength="82" x="423" y="388.6">CollectionRdr</text><line style="stroke:#181818;stroke-width:0.5;" x1="395" x2="507" y1="399" y2="399"/><line style="stroke:#181818;stroke-width:0.5;" x1="395" x2="507" y1="407" y2="407"/></g><!--MD5=[24f215063a43c8314490619b47a99cd0]
class GeoLocationRdr--><g id="elem_GeoLocationRdr"><rect fill="#F1F1F1" height="48" id="GeoLocationRdr" rx="2.5" ry="2.5" style="stroke:#181818;stroke-width:0.5;" width="132" x="354" y="501"/><ellipse cx="369" cy="517" fill="#ADD1B2" rx="11" ry="11" style="stroke:#181818;stroke-width:1.0;"/><path d="M368.3594,520.7813 Q369.1563,520.7813 369.7188,520.5938 Q370.2969,520.3906 370.5313,520.1719 Q370.7813,519.9375 371.0156,519.75 Q371.2656,519.5469 371.4844,519.5469 Q371.8281,519.5469 372.0781,519.8125 Q372.3438,520.0625 372.3438,520.3906 Q372.3438,521.125 371.1719,521.8125 Q370.0156,522.4844 368.3125,522.4844 Q366.1563,522.4844 364.7344,521.2188 Q363.3125,519.9531 363.3125,518.0156 L363.3125,516.8906 Q363.3125,514.8594 364.6406,513.4844 Q365.9688,512.0938 367.9375,512.0938 Q369.125,512.0938 370.3438,512.6719 L370.5156,512.75 Q370.8125,512.3438 371.2344,512.3438 Q371.7188,512.3438 371.8906,512.6406 Q372.0781,512.9219 372.0781,513.4688 L372.0781,514.8906 Q372.0781,516.0156 371.2344,516.0156 Q370.9219,516.0156 370.7188,515.8438 Q370.5313,515.6719 370.4844,515.5313 Q370.4531,515.375 370.4063,515.1094 Q370.2969,514.5938 369.7813,514.2813 Q369.2656,513.9688 368.8125,513.8906 Q368.375,513.7969 368,513.7969 Q366.7188,513.7969 365.8594,514.6719 Q365.0156,515.5469 365.0156,516.8906 L365.0156,517.9844 Q365.0156,519.2656 365.9219,520.0313 Q366.8281,520.7813 368.3594,520.7813 Z " fill="#000000"/><text fill="#000000" font-family="sans-serif" font-size="14" lengthAdjust="spacing" textLength="100" x="383" y="522.6">GeoLocationRdr</text><line style="stroke:#181818;stroke-width:0.5;" x1="355" x2="485" y1="533" y2="533"/><line style="stroke:#181818;stroke-width:0.5;" x1="355" x2="485" y1="541" y2="541"/></g><!--MD5=[3ac3a25a251d55f379c2f348a979e9b0]
class EventRdr--><g id="elem_EventRdr"><rect fill="#F1F1F1" height="48" id="EventRdr" rx="2.5" ry="2.5" style="stroke:#181818;stroke-width:0.5;" width="90" x="521" y="501"/><ellipse cx="536" cy="517" fill="#ADD1B2" rx="11" ry="11" style="stroke:#181818;stroke-width:1.0;"/><path d="M535.3594,520.7813 Q536.1563,520.7813 536.7188,520.5938 Q537.2969,520.3906 537.5313,520.1719 Q537.7813,519.9375 538.0156,519.75 Q538.2656,519.5469 538.4844,519.5469 Q538.8281,519.5469 539.0781,519.8125 Q539.3438,520.0625 539.3438,520.3906 Q539.3438,521.125 538.1719,521.8125 Q537.0156,522.4844 535.3125,522.4844 Q533.1563,522.4844 531.7344,521.2188 Q530.3125,519.9531 530.3125,518.0156 L530.3125,516.8906 Q530.3125,514.8594 531.6406,513.4844 Q532.9688,512.0938 534.9375,512.0938 Q536.125,512.0938 537.3438,512.6719 L537.5156,512.75 Q537.8125,512.3438 538.2344,512.3438 Q538.7188,512.3438 538.8906,512.6406 Q539.0781,512.9219 539.0781,513.4688 L539.0781,514.8906 Q539.0781,516.0156 538.2344,516.0156 Q537.9219,516.0156 537.7188,515.8438 Q537.5313,515.6719 537.4844,515.5313 Q537.4531,515.375 537.4063,515.1094 Q537.2969,514.5938 536.7813,514.2813 Q536.2656,513.9688 535.8125,513.8906 Q535.375,513.7969 535,513.7969 Q533.7188,513.7969 532.8594,514.6719 Q532.0156,515.5469 532.0156,516.8906 L532.0156,517.9844 Q532.0156,519.2656 532.9219,520.0313 Q533.8281,520.7813 535.3594,520.7813 Z " fill="#000000"/><text fill="#000000" font-family="sans-serif" font-size="14" lengthAdjust="spacing" textLength="58" x="550" y="522.6">EventRdr</text><line style="stroke:#181818;stroke-width:0.5;" x1="522" x2="610" y1="533" y2="533"/><line style="stroke:#181818;stroke-width:0.5;" x1="522" x2="610" y1="541" y2="541"/></g><!--MD5=[95c202079db465f723a54bd2613961c9]
class RvzView--><g id="elem_RvzView"><rect codeLine="18" fill="#F1F1F1" height="48" id="RvzView" rx="2.5" ry="2.5" style="stroke:#181818;stroke-width:0.5;" width="86" x="135" y="199.5"/><ellipse cx="150" cy="215.5" fill="#A9DCDF" rx="11" ry="11" style="stroke:#181818;stroke-width:1.0;"/><path d="M150.9531,219.1563 Q150.9531,218.6563 151.2344,218.4844 Q151.5313,218.2969 152.0781,218.2969 L152.4688,218.2969 L152.0781,217.3125 L148.0313,217.3125 L147.6406,218.2969 L148.0313,218.2969 Q149.1406,218.2969 149.1406,219.1563 Q149.1406,220 148.0313,220 L145.7656,220 Q144.6406,220 144.6406,219.1563 Q144.6406,218.6406 144.9375,218.4688 Q145.2344,218.2969 145.7813,218.2969 L148.4219,211.7813 L147.3438,211.7813 Q146.2031,211.7813 146.2031,210.9375 Q146.2031,210.4219 146.5,210.2656 Q146.7969,210.0938 147.3438,210.0938 L151.0156,210.0938 L154.4063,218.2969 Q155.5625,218.2969 155.5625,219.1563 Q155.5625,220 154.4375,220 L152.0781,220 Q150.9531,220 150.9531,219.1563 Z M151.375,215.6094 L150.0469,212.3438 L148.7031,215.6094 L151.375,215.6094 Z " fill="#000000"/><text fill="#000000" font-family="sans-serif" font-size="14" font-style="italic" lengthAdjust="spacing" textLength="54" x="164" y="221.1">RvzView</text><line style="stroke:#181818;stroke-width:0.5;" x1="136" x2="220" y1="231.5" y2="231.5"/><line style="stroke:#181818;stroke-width:0.5;" x1="136" x2="220" y1="239.5" y2="239.5"/></g><!--MD5=[6c3b58582fac924f51ad18fcef343f94]
class ObjectV--><g id="elem_ObjectV"><rect fill="#F1F1F1" height="48" id="ObjectV" rx="2.5" ry="2.5" style="stroke:#181818;stroke-width:0.5;" width="81" x="11.5" y="367"/><ellipse cx="26.5" cy="383" fill="#ADD1B2" rx="11" ry="11" style="stroke:#181818;stroke-width:1.0;"/><path d="M25.8594,386.7813 Q26.6563,386.7813 27.2188,386.5938 Q27.7969,386.3906 28.0313,386.1719 Q28.2813,385.9375 28.5156,385.75 Q28.7656,385.5469 28.9844,385.5469 Q29.3281,385.5469 29.5781,385.8125 Q29.8438,386.0625 29.8438,386.3906 Q29.8438,387.125 28.6719,387.8125 Q27.5156,388.4844 25.8125,388.4844 Q23.6563,388.4844 22.2344,387.2188 Q20.8125,385.9531 20.8125,384.0156 L20.8125,382.8906 Q20.8125,380.8594 22.1406,379.4844 Q23.4688,378.0938 25.4375,378.0938 Q26.625,378.0938 27.8438,378.6719 L28.0156,378.75 Q28.3125,378.3438 28.7344,378.3438 Q29.2188,378.3438 29.3906,378.6406 Q29.5781,378.9219 29.5781,379.4688 L29.5781,380.8906 Q29.5781,382.0156 28.7344,382.0156 Q28.4219,382.0156 28.2188,381.8438 Q28.0313,381.6719 27.9844,381.5313 Q27.9531,381.375 27.9063,381.1094 Q27.7969,380.5938 27.2813,380.2813 Q26.7656,379.9688 26.3125,379.8906 Q25.875,379.7969 25.5,379.7969 Q24.2188,379.7969 23.3594,380.6719 Q22.5156,381.5469 22.5156,382.8906 L22.5156,383.9844 Q22.5156,385.2656 23.4219,386.0313 Q24.3281,386.7813 25.8594,386.7813 Z " fill="#000000"/><text fill="#000000" font-family="sans-serif" font-size="14" lengthAdjust="spacing" textLength="49" x="40.5" y="388.6">ObjectV</text><line style="stroke:#181818;stroke-width:0.5;" x1="12.5" x2="91.5" y1="399" y2="399"/><line style="stroke:#181818;stroke-width:0.5;" x1="12.5" x2="91.5" y1="407" y2="407"/></g><!--MD5=[29b76ffdfded4b0080fb0804d3ebb794]
class CollectionV--><g id="elem_CollectionV"><rect fill="#F1F1F1" height="48" id="CollectionV" rx="2.5" ry="2.5" style="stroke:#181818;stroke-width:0.5;" width="100" x="128" y="367"/><ellipse cx="143" cy="383" fill="#ADD1B2" rx="11" ry="11" style="stroke:#181818;stroke-width:1.0;"/><path d="M142.3594,386.7813 Q143.1563,386.7813 143.7188,386.5938 Q144.2969,386.3906 144.5313,386.1719 Q144.7813,385.9375 145.0156,385.75 Q145.2656,385.5469 145.4844,385.5469 Q145.8281,385.5469 146.0781,385.8125 Q146.3438,386.0625 146.3438,386.3906 Q146.3438,387.125 145.1719,387.8125 Q144.0156,388.4844 142.3125,388.4844 Q140.1563,388.4844 138.7344,387.2188 Q137.3125,385.9531 137.3125,384.0156 L137.3125,382.8906 Q137.3125,380.8594 138.6406,379.4844 Q139.9688,378.0938 141.9375,378.0938 Q143.125,378.0938 144.3438,378.6719 L144.5156,378.75 Q144.8125,378.3438 145.2344,378.3438 Q145.7188,378.3438 145.8906,378.6406 Q146.0781,378.9219 146.0781,379.4688 L146.0781,380.8906 Q146.0781,382.0156 145.2344,382.0156 Q144.9219,382.0156 144.7188,381.8438 Q144.5313,381.6719 144.4844,381.5313 Q144.4531,381.375 144.4063,381.1094 Q144.2969,380.5938 143.7813,380.2813 Q143.2656,379.9688 142.8125,379.8906 Q142.375,379.7969 142,379.7969 Q140.7188,379.7969 139.8594,380.6719 Q139.0156,381.5469 139.0156,382.8906 L139.0156,383.9844 Q139.0156,385.2656 139.9219,386.0313 Q140.8281,386.7813 142.3594,386.7813 Z " fill="#000000"/><text fill="#000000" font-family="sans-serif" font-size="14" lengthAdjust="spacing" textLength="68" x="157" y="388.6">CollectionV</text><line style="stroke:#181818;stroke-width:0.5;" x1="129" x2="227" y1="399" y2="399"/><line style="stroke:#181818;stroke-width:0.5;" x1="129" x2="227" y1="407" y2="407"/></g><!--MD5=[ce11c7b60128b8f9f5bdad83b2e63219]
class GeoLocationV--><g id="elem_GeoLocationV"><rect fill="#F1F1F1" height="48" id="GeoLocationV" rx="2.5" ry="2.5" style="stroke:#181818;stroke-width:0.5;" width="118" x="7" y="501"/><ellipse cx="22" cy="517" fill="#ADD1B2" rx="11" ry="11" style="stroke:#181818;stroke-width:1.0;"/><path d="M21.3594,520.7813 Q22.1563,520.7813 22.7188,520.5938 Q23.2969,520.3906 23.5313,520.1719 Q23.7813,519.9375 24.0156,519.75 Q24.2656,519.5469 24.4844,519.5469 Q24.8281,519.5469 25.0781,519.8125 Q25.3438,520.0625 25.3438,520.3906 Q25.3438,521.125 24.1719,521.8125 Q23.0156,522.4844 21.3125,522.4844 Q19.1563,522.4844 17.7344,521.2188 Q16.3125,519.9531 16.3125,518.0156 L16.3125,516.8906 Q16.3125,514.8594 17.6406,513.4844 Q18.9688,512.0938 20.9375,512.0938 Q22.125,512.0938 23.3438,512.6719 L23.5156,512.75 Q23.8125,512.3438 24.2344,512.3438 Q24.7188,512.3438 24.8906,512.6406 Q25.0781,512.9219 25.0781,513.4688 L25.0781,514.8906 Q25.0781,516.0156 24.2344,516.0156 Q23.9219,516.0156 23.7188,515.8438 Q23.5313,515.6719 23.4844,515.5313 Q23.4531,515.375 23.4063,515.1094 Q23.2969,514.5938 22.7813,514.2813 Q22.2656,513.9688 21.8125,513.8906 Q21.375,513.7969 21,513.7969 Q19.7188,513.7969 18.8594,514.6719 Q18.0156,515.5469 18.0156,516.8906 L18.0156,517.9844 Q18.0156,519.2656 18.9219,520.0313 Q19.8281,520.7813 21.3594,520.7813 Z " fill="#000000"/><text fill="#000000" font-family="sans-serif" font-size="14" lengthAdjust="spacing" textLength="86" x="36" y="522.6">GeoLocationV</text><line style="stroke:#181818;stroke-width:0.5;" x1="8" x2="124" y1="533" y2="533"/><line style="stroke:#181818;stroke-width:0.5;" x1="8" x2="124" y1="541" y2="541"/></g><!--MD5=[2429bad2ddc5e5d3e57729082f69edc1]
class TimeLineV--><g id="elem_TimeLineV"><rect fill="#F1F1F1" height="48" id="TimeLineV" rx="2.5" ry="2.5" style="stroke:#181818;stroke-width:0.5;" width="97" x="160.5" y="501"/><ellipse cx="175.5" cy="517" fill="#ADD1B2" rx="11" ry="11" style="stroke:#181818;stroke-width:1.0;"/><path d="M174.8594,520.7813 Q175.6563,520.7813 176.2188,520.5938 Q176.7969,520.3906 177.0313,520.1719 Q177.2813,519.9375 177.5156,519.75 Q177.7656,519.5469 177.9844,519.5469 Q178.3281,519.5469 178.5781,519.8125 Q178.8438,520.0625 178.8438,520.3906 Q178.8438,521.125 177.6719,521.8125 Q176.5156,522.4844 174.8125,522.4844 Q172.6563,522.4844 171.2344,521.2188 Q169.8125,519.9531 169.8125,518.0156 L169.8125,516.8906 Q169.8125,514.8594 171.1406,513.4844 Q172.4688,512.0938 174.4375,512.0938 Q175.625,512.0938 176.8438,512.6719 L177.0156,512.75 Q177.3125,512.3438 177.7344,512.3438 Q178.2188,512.3438 178.3906,512.6406 Q178.5781,512.9219 178.5781,513.4688 L178.5781,514.8906 Q178.5781,516.0156 177.7344,516.0156 Q177.4219,516.0156 177.2188,515.8438 Q177.0313,515.6719 176.9844,515.5313 Q176.9531,515.375 176.9063,515.1094 Q176.7969,514.5938 176.2813,514.2813 Q175.7656,513.9688 175.3125,513.8906 Q174.875,513.7969 174.5,513.7969 Q173.2188,513.7969 172.3594,514.6719 Q171.5156,515.5469 171.5156,516.8906 L171.5156,517.9844 Q171.5156,519.2656 172.4219,520.0313 Q173.3281,520.7813 174.8594,520.7813 Z " fill="#000000"/><text fill="#000000" font-family="sans-serif" font-size="14" lengthAdjust="spacing" textLength="65" x="189.5" y="522.6">TimeLineV</text><line style="stroke:#181818;stroke-width:0.5;" x1="161.5" x2="256.5" y1="533" y2="533"/><line style="stroke:#181818;stroke-width:0.5;" x1="161.5" x2="256.5" y1="541" y2="541"/></g><!--MD5=[bd1591ba57da9f11d5bbb0d64d5c2717]
class Exposer--><g id="elem_Exposer"><rect codeLine="28" fill="#F1F1F1" height="64.7999" id="Exposer" rx="2.5" ry="2.5" style="stroke:#181818;stroke-width:0.5;" width="161" x="517.5" y="15.5"/><ellipse cx="568.75" cy="31.5" fill="#ADD1B2" rx="11" ry="11" style="stroke:#181818;stroke-width:1.0;"/><path d="M568.1094,35.2813 Q568.9063,35.2813 569.4688,35.0938 Q570.0469,34.8906 570.2813,34.6719 Q570.5313,34.4375 570.7656,34.25 Q571.0156,34.0469 571.2344,34.0469 Q571.5781,34.0469 571.8281,34.3125 Q572.0938,34.5625 572.0938,34.8906 Q572.0938,35.625 570.9219,36.3125 Q569.7656,36.9844 568.0625,36.9844 Q565.9063,36.9844 564.4844,35.7188 Q563.0625,34.4531 563.0625,32.5156 L563.0625,31.3906 Q563.0625,29.3594 564.3906,27.9844 Q565.7188,26.5938 567.6875,26.5938 Q568.875,26.5938 570.0938,27.1719 L570.2656,27.25 Q570.5625,26.8438 570.9844,26.8438 Q571.4688,26.8438 571.6406,27.1406 Q571.8281,27.4219 571.8281,27.9688 L571.8281,29.3906 Q571.8281,30.5156 570.9844,30.5156 Q570.6719,30.5156 570.4688,30.3438 Q570.2813,30.1719 570.2344,30.0313 Q570.2031,29.875 570.1563,29.6094 Q570.0469,29.0938 569.5313,28.7813 Q569.0156,28.4688 568.5625,28.3906 Q568.125,28.2969 567.75,28.2969 Q566.4688,28.2969 565.6094,29.1719 Q564.7656,30.0469 564.7656,31.3906 L564.7656,32.4844 Q564.7656,33.7656 565.6719,34.5313 Q566.5781,35.2813 568.1094,35.2813 Z " fill="#000000"/><text fill="#000000" font-family="sans-serif" font-size="14" lengthAdjust="spacing" textLength="50" x="589.25" y="37.1">Exposer</text><line style="stroke:#181818;stroke-width:0.5;" x1="518.5" x2="677.5" y1="47.5" y2="47.5"/><text fill="#000000" font-family="sans-serif" font-size="14" lengthAdjust="spacing" textLength="149" x="523.5" y="65.4999">delegate:TransferObject</text><line style="stroke:#181818;stroke-width:0.5;" x1="518.5" x2="677.5" y1="72.2999" y2="72.2999"/></g><!--MD5=[1baf32c238e7b10acca77db68c6197d6]
class TransferObject--><g id="elem_TransferObject"><rect codeLine="32" fill="#90EE90" height="64.7999" id="TransferObject" rx="2.5" ry="2.5" style="stroke:#181818;stroke-width:0.5;" width="167" x="315.5" y="15.5"/><ellipse cx="348.5" cy="31.5" fill="#A9DCDF" rx="11" ry="11" style="stroke:#181818;stroke-width:1.0;"/><path d="M349.4531,35.1563 Q349.4531,34.6563 349.7344,34.4844 Q350.0313,34.2969 350.5781,34.2969 L350.9688,34.2969 L350.5781,33.3125 L346.5313,33.3125 L346.1406,34.2969 L346.5313,34.2969 Q347.6406,34.2969 347.6406,35.1563 Q347.6406,36 346.5313,36 L344.2656,36 Q343.1406,36 343.1406,35.1563 Q343.1406,34.6406 343.4375,34.4688 Q343.7344,34.2969 344.2813,34.2969 L346.9219,27.7813 L345.8438,27.7813 Q344.7031,27.7813 344.7031,26.9375 Q344.7031,26.4219 345,26.2656 Q345.2969,26.0938 345.8438,26.0938 L349.5156,26.0938 L352.9063,34.2969 Q354.0625,34.2969 354.0625,35.1563 Q354.0625,36 352.9375,36 L350.5781,36 Q349.4531,36 349.4531,35.1563 Z M349.875,31.6094 L348.5469,28.3438 L347.2031,31.6094 L349.875,31.6094 Z " fill="#000000"/><text fill="#000000" font-family="sans-serif" font-size="14" font-style="italic" lengthAdjust="spacing" textLength="95" x="366.5" y="37.1">TransferObject</text><line style="stroke:#181818;stroke-width:0.5;" x1="316.5" x2="481.5" y1="47.5" y2="47.5"/><text fill="#000000" font-family="sans-serif" font-size="14" lengthAdjust="spacing" textLength="155" x="321.5" y="65.4999">properties:List&lt;Property&gt;</text><line style="stroke:#181818;stroke-width:0.5;" x1="316.5" x2="481.5" y1="72.2999" y2="72.2999"/></g><!--MD5=[6b626634f3bb0842bebd5e499c80b711]
class Property--><g id="elem_Property"><rect codeLine="36" fill="#ADD8E6" height="81.5999" id="Property" rx="2.5" ry="2.5" style="stroke:#181818;stroke-width:0.5;" width="91" x="167.5" y="7"/><ellipse cx="185.65" cy="23" fill="#ADD1B2" rx="11" ry="11" style="stroke:#181818;stroke-width:1.0;"/><path d="M185.0094,26.7813 Q185.8063,26.7813 186.3688,26.5938 Q186.9469,26.3906 187.1813,26.1719 Q187.4313,25.9375 187.6656,25.75 Q187.9156,25.5469 188.1344,25.5469 Q188.4781,25.5469 188.7281,25.8125 Q188.9938,26.0625 188.9938,26.3906 Q188.9938,27.125 187.8219,27.8125 Q186.6656,28.4844 184.9625,28.4844 Q182.8063,28.4844 181.3844,27.2188 Q179.9625,25.9531 179.9625,24.0156 L179.9625,22.8906 Q179.9625,20.8594 181.2906,19.4844 Q182.6188,18.0938 184.5875,18.0938 Q185.775,18.0938 186.9938,18.6719 L187.1656,18.75 Q187.4625,18.3438 187.8844,18.3438 Q188.3688,18.3438 188.5406,18.6406 Q188.7281,18.9219 188.7281,19.4688 L188.7281,20.8906 Q188.7281,22.0156 187.8844,22.0156 Q187.5719,22.0156 187.3688,21.8438 Q187.1813,21.6719 187.1344,21.5313 Q187.1031,21.375 187.0563,21.1094 Q186.9469,20.5938 186.4313,20.2813 Q185.9156,19.9688 185.4625,19.8906 Q185.025,19.7969 184.65,19.7969 Q183.3688,19.7969 182.5094,20.6719 Q181.6656,21.5469 181.6656,22.8906 L181.6656,23.9844 Q181.6656,25.2656 182.5719,26.0313 Q183.4781,26.7813 185.0094,26.7813 Z " fill="#000000"/><text fill="#000000" font-family="sans-serif" font-size="14" lengthAdjust="spacing" textLength="52" x="200.35" y="28.6">Property</text><line style="stroke:#181818;stroke-width:0.5;" x1="168.5" x2="257.5" y1="39" y2="39"/><text fill="#000000" font-family="sans-serif" font-size="14" lengthAdjust="spacing" textLength="79" x="173.5" y="56.9999">name: String</text><text fill="#000000" font-family="sans-serif" font-size="14" lengthAdjust="spacing" textLength="69" x="173.5" y="73.7999">type: Class</text><line style="stroke:#181818;stroke-width:0.5;" x1="168.5" x2="257.5" y1="80.5999" y2="80.5999"/></g><!--MD5=[1e477e70b6ee4c5ba5660faf99f4d9ee]
class TimeLinePtc--><g id="elem_TimeLinePtc"><rect codeLine="43" fill="#ADD8E6" height="98.3998" id="TimeLinePtc" rx="2.5" ry="2.5" style="stroke:#181818;stroke-width:0.5;" width="110" x="543" y="342"/><ellipse cx="558.9" cy="358" fill="#ADD1B2" rx="11" ry="11" style="stroke:#181818;stroke-width:1.0;"/><path d="M558.2594,361.7813 Q559.0563,361.7813 559.6188,361.5938 Q560.1969,361.3906 560.4313,361.1719 Q560.6813,360.9375 560.9156,360.75 Q561.1656,360.5469 561.3844,360.5469 Q561.7281,360.5469 561.9781,360.8125 Q562.2438,361.0625 562.2438,361.3906 Q562.2438,362.125 561.0719,362.8125 Q559.9156,363.4844 558.2125,363.4844 Q556.0563,363.4844 554.6344,362.2188 Q553.2125,360.9531 553.2125,359.0156 L553.2125,357.8906 Q553.2125,355.8594 554.5406,354.4844 Q555.8688,353.0938 557.8375,353.0938 Q559.025,353.0938 560.2438,353.6719 L560.4156,353.75 Q560.7125,353.3438 561.1344,353.3438 Q561.6188,353.3438 561.7906,353.6406 Q561.9781,353.9219 561.9781,354.4688 L561.9781,355.8906 Q561.9781,357.0156 561.1344,357.0156 Q560.8219,357.0156 560.6188,356.8438 Q560.4313,356.6719 560.3844,356.5313 Q560.3531,356.375 560.3063,356.1094 Q560.1969,355.5938 559.6813,355.2813 Q559.1656,354.9688 558.7125,354.8906 Q558.275,354.7969 557.9,354.7969 Q556.6188,354.7969 555.7594,355.6719 Q554.9156,356.5469 554.9156,357.8906 L554.9156,358.9844 Q554.9156,360.2656 555.8219,361.0313 Q556.7281,361.7813 558.2594,361.7813 Z " fill="#000000"/><text fill="#000000" font-family="sans-serif" font-size="14" lengthAdjust="spacing" textLength="76" x="573.1" y="363.6">TimeLinePtc</text><line style="stroke:#181818;stroke-width:0.5;" x1="544" x2="652" y1="374" y2="374"/><text fill="#000000" font-family="sans-serif" font-size="14" lengthAdjust="spacing" textLength="91" x="549" y="391.9999">start:DateTime</text><text fill="#000000" font-family="sans-serif" font-size="14" lengthAdjust="spacing" textLength="86" x="549" y="408.7999">end:DateTime</text><text fill="#000000" font-family="sans-serif" font-size="14" lengthAdjust="spacing" textLength="98" x="549" y="425.5998">duration:Double</text><line style="stroke:#181818;stroke-width:0.5;" x1="544" x2="652" y1="432.3998" y2="432.3998"/></g><!--MD5=[701a273d35b20c028becaec0330689a0]
class GeoLocationPtc--><g id="elem_GeoLocationPtc"><rect codeLine="48" fill="#ADD8E6" height="81.5999" id="GeoLocationPtc" rx="2.5" ry="2.5" style="stroke:#181818;stroke-width:0.5;" width="129" x="688.5" y="350"/><ellipse cx="703.5" cy="366" fill="#ADD1B2" rx="11" ry="11" style="stroke:#181818;stroke-width:1.0;"/><path d="M702.8594,369.7813 Q703.6563,369.7813 704.2188,369.5938 Q704.7969,369.3906 705.0313,369.1719 Q705.2813,368.9375 705.5156,368.75 Q705.7656,368.5469 705.9844,368.5469 Q706.3281,368.5469 706.5781,368.8125 Q706.8438,369.0625 706.8438,369.3906 Q706.8438,370.125 705.6719,370.8125 Q704.5156,371.4844 702.8125,371.4844 Q700.6563,371.4844 699.2344,370.2188 Q697.8125,368.9531 697.8125,367.0156 L697.8125,365.8906 Q697.8125,363.8594 699.1406,362.4844 Q700.4688,361.0938 702.4375,361.0938 Q703.625,361.0938 704.8438,361.6719 L705.0156,361.75 Q705.3125,361.3438 705.7344,361.3438 Q706.2188,361.3438 706.3906,361.6406 Q706.5781,361.9219 706.5781,362.4688 L706.5781,363.8906 Q706.5781,365.0156 705.7344,365.0156 Q705.4219,365.0156 705.2188,364.8438 Q705.0313,364.6719 704.9844,364.5313 Q704.9531,364.375 704.9063,364.1094 Q704.7969,363.5938 704.2813,363.2813 Q703.7656,362.9688 703.3125,362.8906 Q702.875,362.7969 702.5,362.7969 Q701.2188,362.7969 700.3594,363.6719 Q699.5156,364.5469 699.5156,365.8906 L699.5156,366.9844 Q699.5156,368.2656 700.4219,369.0313 Q701.3281,369.7813 702.8594,369.7813 Z " fill="#000000"/><text fill="#000000" font-family="sans-serif" font-size="14" lengthAdjust="spacing" textLength="97" x="717.5" y="371.6">GeoLocationPtc</text><line style="stroke:#181818;stroke-width:0.5;" x1="689.5" x2="816.5" y1="382" y2="382"/><text fill="#000000" font-family="sans-serif" font-size="14" lengthAdjust="spacing" textLength="92" x="694.5" y="399.9999">latitude:Double</text><text fill="#000000" font-family="sans-serif" font-size="14" lengthAdjust="spacing" textLength="103" x="694.5" y="416.7999">longitude:Double</text><line style="stroke:#181818;stroke-width:0.5;" x1="689.5" x2="816.5" y1="423.5999" y2="423.5999"/></g><!--MD5=[776de531de4fc26eb6aa1d58b5cd9cef]
link Renderer to Protocol--><g id="link_Renderer_Protocol"><path codeLine="7" d="M416.42,223.5 C441.69,223.5 466.95,223.5 492.22,223.5 " fill="none" id="Renderer-to-Protocol" style="stroke:#181818;stroke-width:1.0;"/><polygon fill="#181818" points="497.28,223.5,488.28,219.5,492.28,223.5,488.28,227.5,497.28,223.5" style="stroke:#181818;stroke-width:1.0;"/></g><!--MD5=[3cb176c019a1793214f32deabd48c781]
reverse link Renderer to ObjectRdr--><g id="link_Renderer_ObjectRdr"><path codeLine="13" d="M336.88,300.75 C329.95,324.66 322.81,349.29 317.78,366.61 " fill="none" id="Renderer-backto-ObjectRdr" style="stroke:#181818;stroke-width:1.0;"/><polygon fill="none" points="330.19,298.71,342.48,281.46,343.63,302.61,330.19,298.71" style="stroke:#181818;stroke-width:1.0;"/></g><!--MD5=[79e6345601408747d594ba1142016117]
reverse link Renderer to CollectionRdr--><g id="link_Renderer_CollectionRdr"><path codeLine="14" d="M400.4,298.97 C413.99,323.43 428.13,348.86 438,366.61 " fill="none" id="Renderer-backto-CollectionRdr" style="stroke:#181818;stroke-width:1.0;"/><polygon fill="none" points="394.26,302.34,390.66,281.46,406.5,295.54,394.26,302.34" style="stroke:#181818;stroke-width:1.0;"/></g><!--MD5=[5334b18cc6877e1cf58b3875dbf02db5]
reverse link CollectionRdr to GeoLocationRdr--><g id="link_CollectionRdr_GeoLocationRdr"><path codeLine="15" d="M440.95,434.79 C435.79,456.79 429.69,482.72 425.42,500.94 " fill="none" id="CollectionRdr-backto-GeoLocationRdr" style="stroke:#181818;stroke-width:1.0;"/><polygon fill="none" points="434.14,433.16,445.53,415.3,447.77,436.37,434.14,433.16" style="stroke:#181818;stroke-width:1.0;"/></g><!--MD5=[b785149fed819890372fbd3bca0aabd2]
reverse link CollectionRdr to EventRdr--><g id="link_CollectionRdr_EventRdr"><path codeLine="16" d="M484.48,430.43 C504.38,453.28 528.97,481.5 545.91,500.94 " fill="none" id="CollectionRdr-backto-EventRdr" style="stroke:#181818;stroke-width:1.0;"/><polygon fill="none" points="479.15,434.97,471.29,415.3,489.71,425.78,479.15,434.97" style="stroke:#181818;stroke-width:1.0;"/></g><!--MD5=[2da640da9b59622cb3bac1ac30dc99b9]
reverse link RvzView to ObjectV--><g id="link_RvzView_ObjectV"><path codeLine="21" d="M148.33,263.47 C123.85,295.62 89.95,340.16 69.57,366.92 " fill="none" id="RvzView-backto-ObjectV" style="stroke:#181818;stroke-width:1.0;"/><polygon fill="none" points="142.8,259.18,160.48,247.51,153.93,267.67,142.8,259.18" style="stroke:#181818;stroke-width:1.0;"/></g><!--MD5=[b08b8e99e4e9ea3e34a5770c3e3dba0a]
reverse link RvzView to CollectionV--><g id="link_RvzView_CollectionV"><path codeLine="22" d="M178,267.53 C178,299.29 178,341.27 178,366.92 " fill="none" id="RvzView-backto-CollectionV" style="stroke:#181818;stroke-width:1.0;"/><polygon fill="none" points="171,267.51,178,247.51,185,267.51,171,267.51" style="stroke:#181818;stroke-width:1.0;"/></g><!--MD5=[a8d99c4feee4d59c569cd04ed3fef6ba]
reverse link CollectionV to GeoLocationV--><g id="link_CollectionV_GeoLocationV"><path codeLine="23" d="M145.11,430.76 C125.78,453.55 101.98,481.59 85.57,500.94 " fill="none" id="CollectionV-backto-GeoLocationV" style="stroke:#181818;stroke-width:1.0;"/><polygon fill="none" points="139.96,426.02,158.23,415.3,150.63,435.07,139.96,426.02" style="stroke:#181818;stroke-width:1.0;"/></g><!--MD5=[c4012de9ed0fa974500d2b5593aae4a0]
reverse link CollectionV to TimeLineV--><g id="link_CollectionV_TimeLineV"><path codeLine="24" d="M188.05,434.79 C193.21,456.79 199.31,482.72 203.58,500.94 " fill="none" id="CollectionV-backto-TimeLineV" style="stroke:#181818;stroke-width:1.0;"/><polygon fill="none" points="181.23,436.37,183.47,415.3,194.86,433.16,181.23,436.37" style="stroke:#181818;stroke-width:1.0;"/></g><!--MD5=[970a0d53f6f6bcaf9af3e821d0998ddc]
reverse link RvzView to Renderer--><g id="link_RvzView_Renderer"><path codeLine="26" d="M226.18,223.5 C251.42,223.5 276.67,223.5 301.91,223.5 " fill="none" id="RvzView-backto-Renderer" style="stroke:#181818;stroke-width:1.0;"/><polygon fill="#181818" points="221.13,223.5,230.13,227.5,226.13,223.5,230.13,219.5,221.13,223.5" style="stroke:#181818;stroke-width:1.0;"/></g><!--MD5=[7f100461146c8f8905a6594a925a30e1]
reverse link TransferObject to Exposer--><g id="link_TransferObject_Exposer"><path codeLine="35" d="M487.72,48 C497.57,48 507.43,48 517.29,48 " fill="none" id="TransferObject-backto-Exposer" style="stroke:#181818;stroke-width:1.0;"/><polygon fill="#181818" points="482.56,48,491.56,52,487.56,48,491.56,44,482.56,48" style="stroke:#181818;stroke-width:1.0;"/></g><!--MD5=[ca8c0f72eda8f7f565b74e74c1e8a3d2]
link Property to TransferObject--><g id="link_Property_TransferObject"><path codeLine="40" d="M258.5,48 C271.81,48 286.89,48 302.12,48 " fill="none" id="Property-to-TransferObject" style="stroke:#181818;stroke-width:1.0;"/><polygon fill="#181818" points="315.49,48,309.49,44,303.49,48,309.49,52,315.49,48" style="stroke:#181818;stroke-width:1.0;"/><text fill="#000000" font-family="sans-serif" font-size="13" lengthAdjust="spacing" textLength="20" x="277" y="42">has</text></g><!--MD5=[b98afa943d79ecfbff6cd27acaf81a75]
link Exposer to Protocol--><g id="link_Exposer_Protocol"><path codeLine="41" d="M598,80.82 C598,110.42 598,154.5 598,185.61 " fill="none" id="Exposer-to-Protocol" style="stroke:#181818;stroke-width:1.0;"/><polygon fill="#181818" points="598,190.88,602,181.88,598,185.88,594,181.88,598,190.88" style="stroke:#181818;stroke-width:1.0;"/><text fill="#000000" font-family="sans-serif" font-size="13" lengthAdjust="spacing" textLength="128" x="599" y="133">delegate.conformsTo()</text></g><!--MD5=[49f8108e56dec56423f64f1d301d4747]
reverse link Protocol to GeoLocationPtc--><g id="link_Protocol_GeoLocationPtc"><path codeLine="52" d="M641.25,270.68 C664.54,295.54 692.99,325.92 715.35,349.8 " fill="none" id="Protocol-backto-GeoLocationPtc" style="stroke:#181818;stroke-width:1.0;"/><polygon fill="none" points="636.08,275.4,627.52,256.02,646.3,265.83,636.08,275.4" style="stroke:#181818;stroke-width:1.0;"/></g><!--MD5=[8b653c0a697b1fbb7536d936f8568711]
reverse link Protocol to TimeLinePtc--><g id="link_Protocol_TimeLinePtc"><path codeLine="53" d="M598,276.14 C598,297.17 598,321.34 598,341.98 " fill="none" id="Protocol-backto-TimeLinePtc" style="stroke:#181818;stroke-width:1.0;"/><polygon fill="none" points="591,276.02,598,256.02,605,276.02,591,276.02" style="stroke:#181818;stroke-width:1.0;"/></g><!--MD5=[5240a0398631f74c63e7541855d3e3ce]
@startuml
abstract class Renderer {
    iconName:String
    title:String
    view:RvzView
    protocol:Protocol
}
Renderer -right-> Protocol

abstract class Protocol {
    includes(propertyName:String)
}

Renderer <|-down- ObjectRdr
Renderer <|-down- CollectionRdr
CollectionRdr <|-down- GeoLocationRdr
CollectionRdr <|-down- EventRdr

abstract class RvzView {
}

RvzView <|-down- ObjectV
RvzView <|-down- CollectionV
CollectionV <|-down- GeoLocationV
CollectionV <|-down- TimeLineV

Renderer -left-> RvzView

class Exposer {
    delegate:TransferObject
}

abstract class TransferObject #LightGreen {
    properties:List<Property>
}
Exposer -left-> TransferObject
class Property #LightBlue {
    name: String
    type: Class
}
TransferObject *-left- Property : has
Exposer -down-> Protocol : delegate.conformsTo()

class TimeLinePtc #LightBlue {
start:DateTime
end:DateTime
duration:Double
}
class GeoLocationPtc #LightBlue {
latitude:Double
longitude:Double
}
Protocol <|-down- GeoLocationPtc
Protocol <|-down- TimeLinePtc
@enduml

PlantUML version 1.2022.5(Sat Apr 30 10:55:52 GMT 2022)
(GPL source distribution)
Java Runtime: OpenJDK Runtime Environment
JVM: OpenJDK 64-Bit Server VM
Default Encoding: UTF-8
Language: en
Country: US
--></g></svg>