<?xml version="1.0" encoding="UTF-8" standalone="no"?><svg xmlns="http://www.w3.org/2000/svg" xmlns:xlink="http://www.w3.org/1999/xlink" contentStyleType="text/css" height="530px" preserveAspectRatio="none" style="width:1707px;height:530px;background:#FFFFFF;" version="1.1" viewBox="0 0 1707 530" width="1707px" zoomAndPan="magnify"><defs/><g><!--MD5=[d2242131270c237e071fd8738247fbb8]
cluster FE--><g id="cluster_FE"><rect height="166" rx="2.5" ry="2.5" style="stroke:#181818;stroke-width:1.0;fill:none;" width="145" x="96" y="73.8"/><rect height="10" style="stroke:#181818;stroke-width:1.0;fill:none;" width="15" x="221" y="78.8"/><rect height="2" style="stroke:#181818;stroke-width:1.0;fill:none;" width="4" x="219" y="80.8"/><rect height="2" style="stroke:#181818;stroke-width:1.0;fill:none;" width="4" x="219" y="84.8"/><text fill="#000000" font-family="sans-serif" font-size="14" font-style="italic" lengthAdjust="spacing" textLength="95" x="121" y="100.7999">«RO FrontEnd»</text><text fill="#000000" font-family="sans-serif" font-size="14" font-weight="bold" lengthAdjust="spacing" textLength="41" x="148" y="117.5999">kroviz</text></g><!--MD5=[c37df8c2fa1b5f86dd58dff9a3868e14]
entity EL--><g id="elem_EL"><path d="M139,179.8 C139,169.8 178,169.8 178,169.8 C178,169.8 217,169.8 217,179.8 L217,205.5999 C217,215.5999 178,215.5999 178,215.5999 C178,215.5999 139,215.5999 139,205.5999 L139,179.8 " fill="#F1F1F1" style="stroke:#181818;stroke-width:0.5;"/><path d="M139,179.8 C139,189.8 178,189.8 178,189.8 C178,189.8 217,189.8 217,179.8 " fill="none" style="stroke:#181818;stroke-width:0.5;"/><text fill="#000000" font-family="sans-serif" font-size="14" lengthAdjust="spacing" textLength="58" x="149" y="207.7999">EventLog</text></g><!--MD5=[11e5abc0296d2a9544c49e35636d4c40]
entity RE--><g id="elem_RE"><path d="M402.5,156.3 L402.5,229.6998 A2.5,2.5 0 0 0 405,232.1998 L1445,232.1998 A2.5,2.5 0 0 0 1447.5,229.6998 L1447.5,163.8 L1437.5,153.8 L405,153.8 A2.5,2.5 0 0 0 402.5,156.3 " fill="#F1F1F1" style="stroke:#181818;stroke-width:0.5;"/><path d="M1437.5,153.8 L1437.5,161.3 A2.5,2.5 0 0 0 1440,163.8 L1447.5,163.8 " fill="#F1F1F1" style="stroke:#181818;stroke-width:0.5;"/><text fill="#000000" font-family="sans-serif" font-size="14" font-weight="bold" lengthAdjust="spacing" textLength="18" x="416.5" y="196.5999">url</text><text fill="#000000" font-family="sans-serif" font-size="14" font-weight="bold" lengthAdjust="spacing" textLength="96" x="442.5" y="196.5999">[request data]</text><text fill="#000000" font-family="sans-serif" font-size="14" font-weight="bold" lengthAdjust="spacing" textLength="34" x="546.5" y="196.5999">state</text><text fill="#000000" font-family="sans-serif" font-size="14" font-weight="bold" lengthAdjust="spacing" textLength="64" x="588.5" y="196.5999">response</text><text fill="#000000" font-family="sans-serif" font-size="14" lengthAdjust="spacing" textLength="4" x="656.5" y="196.5999"> </text><text fill="#000000" font-family="sans-serif" font-size="14" lengthAdjust="spacing" textLength="4" x="656.5" y="213.3998"> </text><text fill="#000000" font-family="sans-serif" font-size="14" lengthAdjust="spacing" textLength="168" x="664.5" y="196.5999">http://localhost:8080/restful</text><text fill="#000000" font-family="sans-serif" font-size="14" lengthAdjust="spacing" textLength="41" x="840.5" y="196.5999">uid/pw</text><text fill="#000000" font-family="sans-serif" font-size="14" lengthAdjust="spacing" textLength="66" x="889.5" y="196.5999">SUCCESS</text><text fill="#000000" font-family="sans-serif" font-size="14" lengthAdjust="spacing" textLength="53" x="963.5" y="196.5999">{jsonStr}</text><text fill="#000000" font-family="sans-serif" font-size="14" lengthAdjust="spacing" textLength="4" x="1020.5" y="196.5999"> </text><text fill="#000000" font-family="sans-serif" font-size="14" lengthAdjust="spacing" textLength="4" x="1020.5" y="213.3998"> </text><text fill="#000000" font-family="sans-serif" font-size="14" lengthAdjust="spacing" textLength="234" x="1028.5" y="196.5999">http://localhost:8080/restful/menubars</text><text fill="#000000" font-family="sans-serif" font-size="14" lengthAdjust="spacing" textLength="20" x="1270.5" y="196.5999">n/a</text><text fill="#000000" font-family="sans-serif" font-size="14" lengthAdjust="spacing" textLength="50" x="1298.5" y="196.5999">ERROR</text><text fill="#000000" font-family="sans-serif" font-size="14" lengthAdjust="spacing" textLength="71" x="1356.5" y="196.5999">{another js}</text><line style="stroke:#000000;stroke-width:0.5;" x1="412.5" x2="1431.5" y1="182.5999" y2="182.5999"/><line style="stroke:#000000;stroke-width:0.5;" x1="412.5" x2="1431.5" y1="216.1998" y2="216.1998"/><line style="stroke:#000000;stroke-width:0.5;" x1="412.5" x2="412.5" y1="182.5999" y2="216.1998"/><line style="stroke:#000000;stroke-width:0.5;" x1="438.5" x2="438.5" y1="182.5999" y2="216.1998"/><line style="stroke:#000000;stroke-width:0.5;" x1="542.5" x2="542.5" y1="182.5999" y2="216.1998"/><line style="stroke:#000000;stroke-width:0.5;" x1="584.5" x2="584.5" y1="182.5999" y2="216.1998"/><line style="stroke:#000000;stroke-width:0.5;" x1="656.5" x2="656.5" y1="182.5999" y2="216.1998"/><line style="stroke:#000000;stroke-width:0.5;" x1="660.5" x2="660.5" y1="182.5999" y2="216.1998"/><line style="stroke:#000000;stroke-width:0.5;" x1="836.5" x2="836.5" y1="182.5999" y2="216.1998"/><line style="stroke:#000000;stroke-width:0.5;" x1="885.5" x2="885.5" y1="182.5999" y2="216.1998"/><line style="stroke:#000000;stroke-width:0.5;" x1="959.5" x2="959.5" y1="182.5999" y2="216.1998"/><line style="stroke:#000000;stroke-width:0.5;" x1="1020.5" x2="1020.5" y1="182.5999" y2="216.1998"/><line style="stroke:#000000;stroke-width:0.5;" x1="1024.5" x2="1024.5" y1="182.5999" y2="216.1998"/><line style="stroke:#000000;stroke-width:0.5;" x1="1266.5" x2="1266.5" y1="182.5999" y2="216.1998"/><line style="stroke:#000000;stroke-width:0.5;" x1="1294.5" x2="1294.5" y1="182.5999" y2="216.1998"/><line style="stroke:#000000;stroke-width:0.5;" x1="1352.5" x2="1352.5" y1="182.5999" y2="216.1998"/><line style="stroke:#000000;stroke-width:0.5;" x1="1431.5" x2="1431.5" y1="182.5999" y2="216.1998"/><line style="stroke:#181818;stroke-width:1.0;stroke-dasharray:1.0,2.0;" x1="403.5" x2="850.5" y1="172.2" y2="172.2"/><text fill="#000000" font-family="sans-serif" font-size="14" lengthAdjust="spacing" textLength="149" x="850.5" y="177.2999">(Sample) Replay Events</text><line style="stroke:#181818;stroke-width:1.0;stroke-dasharray:1.0,2.0;" x1="999.5" x2="1446.5" y1="172.2" y2="172.2"/></g><!--MD5=[cb29a752e8bd9ff083cca7770c370a33]
entity DRT--><g id="elem_DRT"><rect fill="#F1F1F1" height="80.3998" rx="2.5" ry="2.5" style="stroke:#181818;stroke-width:0.5;" width="113" x="1515.5" y="152.8"/><rect fill="#F1F1F1" height="10" style="stroke:#181818;stroke-width:0.5;" width="15" x="1608.5" y="157.8"/><rect fill="#F1F1F1" height="2" style="stroke:#181818;stroke-width:0.5;" width="4" x="1606.5" y="159.8"/><rect fill="#F1F1F1" height="2" style="stroke:#181818;stroke-width:0.5;" width="4" x="1606.5" y="163.8"/><text fill="#000000" font-family="sans-serif" font-size="14" lengthAdjust="spacing" textLength="35" x="1530.5" y="186.7999">Demo</text><text fill="#000000" font-family="sans-serif" font-size="14" lengthAdjust="spacing" textLength="69" x="1530.5" y="203.5999">Regression</text><text fill="#000000" font-family="sans-serif" font-size="14" lengthAdjust="spacing" textLength="27" x="1530.5" y="220.3998">Test</text></g><!--MD5=[6ae0ad3fca144316621ac535abd7bcd7]
entity  --><g id="elem_ "><ellipse cx="19" cy="171.3" fill="#F1F1F1" rx="8" ry="8" style="stroke:#181818;stroke-width:0.5;"/><path d="M19,179.3 L19,206.3 M6,187.3 L32,187.3 M19,206.3 L6,221.3 M19,206.3 L32,221.3 " fill="none" style="stroke:#181818;stroke-width:0.5;"/></g><g id="elem_GMN27189149"><path d="M112,319.3 L112,376.1 A0,0 0 0 0 112,376.1 L244,376.1 A0,0 0 0 0 244,376.1 L244,329.3 L234,319.3 L182,319.3 L178,216.05 L174,319.3 L112,319.3 A0,0 0 0 0 112,319.3 " fill="#FEFFDD" style="stroke:#181818;stroke-width:0.5;"/><path d="M234,319.3 L234,329.3 L244,329.3 L234,319.3 " fill="#FEFFDD" style="stroke:#181818;stroke-width:0.5;"/><text fill="#000000" font-family="sans-serif" font-size="13" lengthAdjust="spacing" textLength="62" x="118" y="337.3">Req./Resp.</text><text fill="#000000" font-family="sans-serif" font-size="13" lengthAdjust="spacing" textLength="70" x="118" y="352.9">as well as UI</text><text fill="#000000" font-family="sans-serif" font-size="13" lengthAdjust="spacing" textLength="111" x="118" y="368.5">events are recorded</text></g><!--MD5=[cd187d11655e4367e900de538d2f1d0c]
entity APP--><g id="elem_APP"><rect fill="#F1F1F1" height="63.5999" rx="2.5" ry="2.5" style="stroke:#181818;stroke-width:0.5;" width="102" x="265" y="160.8"/><rect fill="#F1F1F1" height="10" style="stroke:#181818;stroke-width:0.5;" width="15" x="347" y="165.8"/><rect fill="#F1F1F1" height="2" style="stroke:#181818;stroke-width:0.5;" width="4" x="345" y="167.8"/><rect fill="#F1F1F1" height="2" style="stroke:#181818;stroke-width:0.5;" width="4" x="345" y="171.8"/><text fill="#000000" font-family="sans-serif" font-size="14" font-style="italic" lengthAdjust="spacing" textLength="62" x="280" y="194.7999">«RO App»</text><text fill="#000000" font-family="sans-serif" font-size="14" lengthAdjust="spacing" textLength="35" x="293.5" y="211.5999">Demo</text></g><!--MD5=[fb4a08e111f2163e9179077dacc52f93]
entity FW--><g id="elem_FW"><rect fill="#F1F1F1" height="63.5999" rx="2.5" ry="2.5" style="stroke:#181818;stroke-width:0.5;" width="170" x="359" y="460.8"/><rect fill="#F1F1F1" height="10" style="stroke:#181818;stroke-width:0.5;" width="15" x="509" y="465.8"/><rect fill="#F1F1F1" height="2" style="stroke:#181818;stroke-width:0.5;" width="4" x="507" y="467.8"/><rect fill="#F1F1F1" height="2" style="stroke:#181818;stroke-width:0.5;" width="4" x="507" y="471.8"/><text fill="#000000" font-family="sans-serif" font-size="14" font-style="italic" lengthAdjust="spacing" textLength="130" x="374" y="494.7999">«Naked Objects FW»</text><text fill="#000000" font-family="sans-serif" font-size="14" lengthAdjust="spacing" textLength="116" x="381" y="511.5999">Apache Causeway</text></g><g id="elem_GMN27189163"><path d="M1443.5,295.8 L1443.5,399.4001 A0,0 0 0 0 1443.5,399.4001 L1700.5,399.4001 A0,0 0 0 0 1700.5,399.4001 L1700.5,305.8 L1690.5,295.8 L1576,295.8 L1572,232.8 L1568,295.8 L1443.5,295.8 A0,0 0 0 0 1443.5,295.8 " fill="#FEFFDD" style="stroke:#181818;stroke-width:0.5;"/><path d="M1690.5,295.8 L1690.5,305.8 L1700.5,305.8 L1690.5,295.8 " fill="#FEFFDD" style="stroke:#181818;stroke-width:0.5;"/><text fill="#000000" font-family="sans-serif" font-size="13" lengthAdjust="spacing" textLength="235" x="1449.5" y="313.8">Event Log Entries are replayed during test.</text><text fill="#000000" font-family="sans-serif" font-size="13" lengthAdjust="spacing" textLength="236" x="1449.5" y="329.4">Expected/actual responses are compared.</text><text fill="#000000" font-family="sans-serif" font-size="13" lengthAdjust="spacing" textLength="4" x="1449.5" y="345"> </text><text fill="#000000" font-family="sans-serif" font-size="13" lengthAdjust="spacing" textLength="85" x="1449.5" y="360.6001">Events in state:</text><ellipse cx="1455" cy="371.3001" fill="#000000" rx="2.5" ry="2.5" style="stroke:#000000;stroke-width:0.0;"/><text fill="#000000" font-family="sans-serif" font-size="13" lengthAdjust="spacing" textLength="189" x="1461.5" y="376.2001">SUCCESS -&gt; expected == actual</text><ellipse cx="1455" cy="386.9001" fill="#000000" rx="2.5" ry="2.5" style="stroke:#000000;stroke-width:0.0;"/><text fill="#000000" font-family="sans-serif" font-size="13" lengthAdjust="spacing" textLength="168" x="1461.5" y="391.8001">ERROR -&gt; expected != actual</text></g><g id="elem_GMN27189166"><path d="M545,327.3 L545,368.5 A0,0 0 0 0 545,368.5 L559.96,368.5 L474.26,460.67 L567.96,368.5 L621,368.5 A0,0 0 0 0 621,368.5 L621,337.3 L611,327.3 L545,327.3 A0,0 0 0 0 545,327.3 " fill="#FEFFDD" style="stroke:#181818;stroke-width:0.5;"/><path d="M611,327.3 L611,337.3 L621,337.3 L611,327.3 " fill="#FEFFDD" style="stroke:#181818;stroke-width:0.5;"/><text fill="#000000" font-family="sans-serif" font-size="13" lengthAdjust="spacing" textLength="55" x="551" y="345.3">additional</text><text fill="#000000" font-family="sans-serif" font-size="13" lengthAdjust="spacing" textLength="52" x="551" y="360.9">coverage</text></g><g id="elem_NREG"><path d="M378.5,327.3 L378.5,368.5 L509.5,368.5 L509.5,337.3 L499.5,327.3 L378.5,327.3 " fill="#FEFFDD" style="stroke:#181818;stroke-width:0.5;"/><path d="M499.5,327.3 L499.5,337.3 L509.5,337.3 L499.5,327.3 " fill="#FEFFDD" style="stroke:#181818;stroke-width:1.0;"/><text fill="#000000" font-family="sans-serif" font-size="13" lengthAdjust="spacing" textLength="110" x="384.5" y="345.3">Regressions can be</text><text fill="#000000" font-family="sans-serif" font-size="13" lengthAdjust="spacing" textLength="89" x="384.5" y="360.9">caused in either</text></g><!--MD5=[044d05b892026c564542e04e71cdfcae]
link   to FE--><g id="link_ _FE"><path d="M32.66,192.8 C43.92,192.8 60.3,192.8 74.525,192.8 C81.6375,192.8 88.2113,192.8 93.3369,192.8 C93.9776,192.8 94.5957,192.8 95.1893,192.8 C95.3377,192.8 95.4846,192.8 95.63,192.8 C95.7026,192.8 95.7749,192.8 95.8468,192.8 " fill="none" id=" -to-FE" style="stroke:#181818;stroke-width:1.0;"/><polygon fill="#181818" points="95.8468,192.8,86.8468,188.8,90.8468,192.8,86.8468,196.8,95.8468,192.8" style="stroke:#181818;stroke-width:1.0;"/><text fill="#000000" font-family="sans-serif" font-size="13" lengthAdjust="spacing" textLength="35" x="50.57" y="186.8">action</text></g><!--MD5=[fbb8d5fa8a9feca13177321b4678f474]
link FE to EL--><g id="link_FE_EL"><path d="M104.58,192.8 C114.35,192.8 124.12,192.8 133.89,192.8 " fill="none" id="FE-to-EL" style="stroke:#181818;stroke-width:1.0;"/><polygon fill="#181818" points="138.99,192.8,129.99,188.8,133.99,192.8,129.99,196.8,138.99,192.8" style="stroke:#181818;stroke-width:1.0;"/></g><!--MD5=[2c760634608609d01a798da024c32d51]
link FE to APP--><g id="link_FE_APP"><path d="M118.9947,73.5862 C119.1352,73.44 119.2765,73.2945 119.4187,73.1496 C120.5564,71.9902 121.7494,70.8725 123,69.8 C160.11,37.98 189.83,46.85 233,69.8 C267.01,87.88 289.6,126.79 302.51,156.04 " fill="none" id="FE-APP" style="stroke:#181818;stroke-width:1.0;"/><polygon fill="#181818" points="304.5,160.64,304.5943,150.7916,302.5132,156.0517,297.2531,153.9705,304.5,160.64" style="stroke:#181818;stroke-width:1.0;"/><polygon fill="#181818" points="118.9947,73.5862,128.1147,69.8679,122.4589,69.9808,122.346,64.3251,118.9947,73.5862" style="stroke:#181818;stroke-width:1.0;"/><text fill="#000000" font-family="sans-serif" font-size="13" lengthAdjust="spacing" textLength="103" x="132.5" y="46.8">request / response</text></g><!--MD5=[37ca614c21ecc4e03f38dc516ec979d6]
link APP to FW--><g id="link_APP_FW"><path d="M311.43,224.81 C306.73,267 303.72,343.64 333,399.8 C345.09,423 365.82,442.59 386.11,457.66 " fill="none" id="APP-to-FW" style="stroke:#181818;stroke-width:1.0;"/><polygon fill="#181818" points="390.16,460.61,385.2376,452.0794,386.1176,457.6674,380.5296,458.5474,390.16,460.61" style="stroke:#181818;stroke-width:1.0;"/><text fill="#000000" font-family="sans-serif" font-size="13" lengthAdjust="spacing" textLength="26" x="334" y="353.3">uses</text></g><!--MD5=[83c5898c77d344dea07ae0f2b5cb3be3]
link EL to RE--><g id="link_EL_RE"><path d="M182.25,169.65 C190.55,132.62 212.91,62.26 265.5,42.8 C364.98,6 652.5,95.85 813.12,151.91 " fill="none" id="EL-to-RE" style="stroke:#181818;stroke-width:1.0;"/><polygon fill="#181818" points="818.3,153.73,811.1112,146.9979,813.5769,152.0891,808.4857,154.5548,818.3,153.73" style="stroke:#181818;stroke-width:1.0;"/><text fill="#000000" font-family="sans-serif" font-size="13" lengthAdjust="spacing" textLength="35" x="760.4006" y="143.1621">export</text></g><!--MD5=[e6ed755eced7106e72aa480df7c9ef45]
reverse link RE to DRT--><g id="link_RE_DRT"><path d="M1452.74,192.8 C1476.47,192.8 1497.72,192.8 1515.47,192.8 " fill="none" id="RE-backto-DRT" style="stroke:#181818;stroke-width:1.0;"/><polygon fill="#181818" points="1447.63,192.8,1456.63,196.8,1452.63,192.8,1456.63,188.8,1447.63,192.8" style="stroke:#181818;stroke-width:1.0;"/><text fill="#000000" font-family="sans-serif" font-size="13" lengthAdjust="spacing" textLength="31" x="1466" y="186.8">reads</text></g><!--MD5=[5ea144c57fb525e20369093d1f53f308]
link DRT to APP--><g id="link_DRT_APP"><path d="M1549.97,152.77 C1531.51,123.76 1502.22,86.75 1465,69.8 C1410.45,44.95 437.82,39.67 386,69.8 C354.48,88.13 335.98,126.55 326,155.6 " fill="none" id="DRT-to-APP" style="stroke:#181818;stroke-width:1.0;"/><polygon fill="#181818" points="324.35,160.54,330.9776,153.2548,325.9226,155.7937,323.3836,150.7387,324.35,160.54" style="stroke:#181818;stroke-width:1.0;"/><text fill="#000000" font-family="sans-serif" font-size="13" lengthAdjust="spacing" textLength="34" x="924" y="46.8">replay</text><text fill="#000000" font-family="sans-serif" font-size="13" lengthAdjust="spacing" textLength="43" x="1499.2162" y="142.3216">invokes</text><text fill="#000000" font-family="sans-serif" font-size="13" lengthAdjust="spacing" textLength="44" x="277.5347" y="150.4427">RO API</text></g><!--MD5=[e01b7f7586d9d51e2af1bb984dcd3f4c]
link APP to NREG--><g id="link_APP_NREG"><path d="M342.21,225.13 C367.81,255.73 405.98,301.35 427.57,327.16 " fill="none" id="APP-NREG" style="stroke:#181818;stroke-width:1.0;stroke-dasharray:7.0,7.0;"/></g><!--MD5=[08c403ccfe222087d529d28b9c140709]
link NREG to FW--><g id="link_NREG_FW"><path d="M444,368.38 C444,392.17 444,432.6 444,460.67 " fill="none" id="NREG-FW" style="stroke:#181818;stroke-width:1.0;stroke-dasharray:7.0,7.0;"/></g><!--MD5=[70e212617a1c0bc2c0c02a2763aa006f]
@startuml
: : -> FE : action

component kroviz <<RO FrontEnd>> as FE {
    database EventLog as EL
    FE -> EL
}

note bottom of EL
Req./Resp.
as well as UI
events are recorded
end note

component Demo <<RO App>> as APP
FE <-> APP : request / response

component "Apache Causeway" <<Naked Objects FW>> as FW
APP -> FW : uses


together {
    file RE as "
    .. (Sample) Replay Events..
    |= url |= [request data] |= state |= response |\n| http://localhost:8080/restful | uid/pw | SUCCESS | {jsonStr} |\n| http://localhost:8080/restful/menubars | n/a | ERROR | {another js} |
    "
    component "Demo \nRegression \nTest" as DRT
}
EL ->"export" RE


RE <- DRT : reads
DRT "invokes"->"RO API" APP : replay

note bottom of DRT
Event Log Entries are replayed during test.
Expected/actual responses are compared.

Events in state:
* SUCCESS -> expected == actual
* ERROR -> expected != actual
end note

note top of FW
additional
coverage
end note

note as NREG
Regressions can be
caused in either
end note
APP .. NREG
NREG .. FW
@enduml

PlantUML version 1.2022.5(Sat Apr 30 10:55:52 GMT 2022)
(GPL source distribution)
Java Runtime: OpenJDK Runtime Environment
JVM: OpenJDK 64-Bit Server VM
Default Encoding: UTF-8
Language: en
Country: US
--></g></svg>