<?xml version="1.0" encoding="UTF-8" standalone="no"?><svg xmlns="http://www.w3.org/2000/svg" xmlns:xlink="http://www.w3.org/1999/xlink" contentScriptType="application/ecmascript" contentStyleType="text/css" height="541px" preserveAspectRatio="none" style="width:1197px;height:541px;" version="1.1" viewBox="0 0 1197 541" width="1197px" zoomAndPan="magnify"><defs><filter height="300%" id="fqryl9qhb0ple" width="300%" x="-1" y="-1"><feGaussianBlur result="blurOut" stdDeviation="2.0"/><feColorMatrix in="blurOut" result="blurOut2" type="matrix" values="0 0 0 0 0 0 0 0 0 0 0 0 0 0 0 0 0 0 .4 0"/><feOffset dx="4.0" dy="4.0" in="blurOut2" result="blurOut3"/><feBlend in="SourceGraphic" in2="blurOut3" mode="normal"/></filter></defs><g><!--MD5=[d2242131270c237e071fd8738247fbb8]
cluster FE--><rect fill="#FFFFFF" filter="url(#fqryl9qhb0ple)" height="166" style="stroke: #000000; stroke-width: 1.5;" width="145" x="97" y="63.95"/><rect fill="#FFFFFF" height="10" style="stroke: #000000; stroke-width: 1.5;" width="15" x="222" y="68.95"/><rect fill="#FFFFFF" height="2" style="stroke: #000000; stroke-width: 1.5;" width="4" x="220" y="70.95"/><rect fill="#FFFFFF" height="2" style="stroke: #000000; stroke-width: 1.5;" width="4" x="220" y="74.95"/><text fill="#000000" font-family="sans-serif" font-size="14" font-style="italic" lengthAdjust="spacingAndGlyphs" textLength="95" x="122" y="90.9499">«RO FrontEnd»</text><text fill="#000000" font-family="sans-serif" font-size="14" font-weight="bold" lengthAdjust="spacingAndGlyphs" textLength="41" x="149" y="107.7499">kroviz</text><!--MD5=[c37df8c2fa1b5f86dd58dff9a3868e14]
entity EL--><path d="M140,169.95 C140,159.95 179,159.95 179,159.95 C179,159.95 218,159.95 218,169.95 L218,195.7499 C218,205.7499 179,205.7499 179,205.7499 C179,205.7499 140,205.7499 140,195.7499 L140,169.95 " fill="#FEFECE" filter="url(#fqryl9qhb0ple)" style="stroke: #000000; stroke-width: 1.5;"/><path d="M140,169.95 C140,179.95 179,179.95 179,179.95 C179,179.95 218,179.95 218,169.95 " fill="none" style="stroke: #000000; stroke-width: 1.5;"/><text fill="#000000" font-family="sans-serif" font-size="14" lengthAdjust="spacingAndGlyphs" textLength="58" x="150" y="197.9499">EventLog</text><!--MD5=[11e5abc0296d2a9544c49e35636d4c40]
entity RE--><polygon fill="#FEFECE" filter="url(#fqryl9qhb0ple)" points="403.5,135.45,403.5,230.6497,934.5,230.6497,934.5,145.45,924.5,135.45,403.5,135.45" style="stroke: #000000; stroke-width: 1.5;"/><path d="M924.5,135.45 L924.5,145.45 L934.5,145.45 " fill="#FEFECE" style="stroke: #000000; stroke-width: 1.5;"/><text fill="#000000" font-family="sans-serif" font-size="14" font-weight="bold" lengthAdjust="spacingAndGlyphs" textLength="18" x="423.5" y="178.2499">url</text><text fill="#000000" font-family="sans-serif" font-size="14" font-weight="bold" lengthAdjust="spacingAndGlyphs" textLength="96" x="665.5" y="178.2499">[request data]</text><text fill="#000000" font-family="sans-serif" font-size="14" font-weight="bold" lengthAdjust="spacingAndGlyphs" textLength="34" x="769.5" y="178.2499">state</text><text fill="#000000" font-family="sans-serif" font-size="14" font-weight="bold" lengthAdjust="spacingAndGlyphs" textLength="64" x="843.5" y="178.2499">response</text><text fill="#000000" font-family="sans-serif" font-size="14" lengthAdjust="spacingAndGlyphs" textLength="168" x="423.5" y="195.0498">http://localhost:8080/restful</text><text fill="#000000" font-family="sans-serif" font-size="14" lengthAdjust="spacingAndGlyphs" textLength="41" x="665.5" y="195.0498">uid/pw</text><text fill="#000000" font-family="sans-serif" font-size="14" lengthAdjust="spacingAndGlyphs" textLength="66" x="769.5" y="195.0498">SUCCESS</text><text fill="#000000" font-family="sans-serif" font-size="14" lengthAdjust="spacingAndGlyphs" textLength="53" x="843.5" y="195.0498">{jsonStr}</text><text fill="#000000" font-family="sans-serif" font-size="14" lengthAdjust="spacingAndGlyphs" textLength="234" x="423.5" y="211.8497">http://localhost:8080/restful/menubars</text><text fill="#000000" font-family="sans-serif" font-size="14" lengthAdjust="spacingAndGlyphs" textLength="20" x="665.5" y="211.8497">n/a</text><text fill="#000000" font-family="sans-serif" font-size="14" lengthAdjust="spacingAndGlyphs" textLength="50" x="769.5" y="211.8497">ERROR</text><text fill="#000000" font-family="sans-serif" font-size="14" lengthAdjust="spacingAndGlyphs" textLength="71" x="843.5" y="211.8497">{another js}</text><line style="stroke: #000000; stroke-width: 1.5;" x1="419.5" x2="918.5" y1="164.2499" y2="164.2499"/><line style="stroke: #000000; stroke-width: 1.5;" x1="419.5" x2="918.5" y1="181.0499" y2="181.0499"/><line style="stroke: #000000; stroke-width: 1.5;" x1="419.5" x2="918.5" y1="197.8498" y2="197.8498"/><line style="stroke: #000000; stroke-width: 1.5;" x1="419.5" x2="918.5" y1="214.6497" y2="214.6497"/><line style="stroke: #000000; stroke-width: 1.5;" x1="419.5" x2="419.5" y1="164.2499" y2="214.6497"/><line style="stroke: #000000; stroke-width: 1.5;" x1="661.5" x2="661.5" y1="164.2499" y2="214.6497"/><line style="stroke: #000000; stroke-width: 1.5;" x1="765.5" x2="765.5" y1="164.2499" y2="214.6497"/><line style="stroke: #000000; stroke-width: 1.5;" x1="839.5" x2="839.5" y1="164.2499" y2="214.6497"/><line style="stroke: #000000; stroke-width: 1.5;" x1="918.5" x2="918.5" y1="164.2499" y2="214.6497"/><line style="stroke: #000000; stroke-width: 1.0; stroke-dasharray: 1.0,2.0;" x1="404.5" x2="594.5" y1="153.85" y2="153.85"/><text fill="#000000" font-family="sans-serif" font-size="14" lengthAdjust="spacingAndGlyphs" textLength="149" x="594.5" y="158.9499">(Sample) Replay Events</text><line style="stroke: #000000; stroke-width: 1.0; stroke-dasharray: 1.0,2.0;" x1="743.5" x2="933.5" y1="153.85" y2="153.85"/><!--MD5=[cb29a752e8bd9ff083cca7770c370a33]
entity DRT--><rect fill="#FEFECE" filter="url(#fqryl9qhb0ple)" height="80.3998" style="stroke: #A80036; stroke-width: 1.5;" width="109" x="1002.5" y="142.95"/><rect fill="#FEFECE" height="10" style="stroke: #A80036; stroke-width: 1.5;" width="15" x="1091.5" y="147.95"/><rect fill="#FEFECE" height="2" style="stroke: #A80036; stroke-width: 1.5;" width="4" x="1089.5" y="149.95"/><rect fill="#FEFECE" height="2" style="stroke: #A80036; stroke-width: 1.5;" width="4" x="1089.5" y="153.95"/><text fill="#000000" font-family="sans-serif" font-size="14" lengthAdjust="spacingAndGlyphs" textLength="35" x="1017.5" y="176.9499">Demo</text><text fill="#000000" font-family="sans-serif" font-size="14" lengthAdjust="spacingAndGlyphs" textLength="69" x="1017.5" y="193.7499">Regression</text><text fill="#000000" font-family="sans-serif" font-size="14" lengthAdjust="spacingAndGlyphs" textLength="27" x="1017.5" y="210.5498">Test</text><!--MD5=[6ae0ad3fca144316621ac535abd7bcd7]
entity  --><ellipse cx="19" cy="159.95" fill="#FEFECE" filter="url(#fqryl9qhb0ple)" rx="8" ry="8" style="stroke: #A80036; stroke-width: 1.5;"/><path d="M19,167.95 L19,194.95 M6,175.95 L32,175.95 M19,194.95 L6,209.95 M19,194.95 L32,209.95 " fill="none" filter="url(#fqryl9qhb0ple)" style="stroke: #A80036; stroke-width: 1.5;"/><path d="M113,316.95 L113,373.75 A0,0 0 0 0 113,373.75 L245,373.75 A0,0 0 0 0 245,373.75 L245,326.95 L235,316.95 L183,316.95 L179,206.27 L175,316.95 L113,316.95 A0,0 0 0 0 113,316.95 " fill="#FBFB77" filter="url(#fqryl9qhb0ple)" style="stroke: #A80036; stroke-width: 1.0;"/><path d="M235,316.95 L235,326.95 L245,326.95 L235,316.95 " fill="#FBFB77" style="stroke: #A80036; stroke-width: 1.0;"/><text fill="#000000" font-family="sans-serif" font-size="13" lengthAdjust="spacingAndGlyphs" textLength="62" x="119" y="334.95">Req./Resp.</text><text fill="#000000" font-family="sans-serif" font-size="13" lengthAdjust="spacingAndGlyphs" textLength="70" x="119" y="350.55">as well as UI</text><text fill="#000000" font-family="sans-serif" font-size="13" lengthAdjust="spacingAndGlyphs" textLength="111" x="119" y="366.15">events are recorded</text><!--MD5=[cd187d11655e4367e900de538d2f1d0c]
entity APP--><rect fill="#FEFECE" filter="url(#fqryl9qhb0ple)" height="63.5999" style="stroke: #A80036; stroke-width: 1.5;" width="102" x="266" y="150.95"/><rect fill="#FEFECE" height="10" style="stroke: #A80036; stroke-width: 1.5;" width="15" x="348" y="155.95"/><rect fill="#FEFECE" height="2" style="stroke: #A80036; stroke-width: 1.5;" width="4" x="346" y="157.95"/><rect fill="#FEFECE" height="2" style="stroke: #A80036; stroke-width: 1.5;" width="4" x="346" y="161.95"/><text fill="#000000" font-family="sans-serif" font-size="14" font-style="italic" lengthAdjust="spacingAndGlyphs" textLength="62" x="281" y="184.9499">«RO App»</text><text fill="#000000" font-family="sans-serif" font-size="14" lengthAdjust="spacingAndGlyphs" textLength="35" x="294.5" y="201.7499">Demo</text><!--MD5=[fb4a08e111f2163e9179077dacc52f93]
entity FW--><rect fill="#FEFECE" filter="url(#fqryl9qhb0ple)" height="63.5999" style="stroke: #A80036; stroke-width: 1.5;" width="170" x="360" y="458.45"/><rect fill="#FEFECE" height="10" style="stroke: #A80036; stroke-width: 1.5;" width="15" x="510" y="463.45"/><rect fill="#FEFECE" height="2" style="stroke: #A80036; stroke-width: 1.5;" width="4" x="508" y="465.45"/><rect fill="#FEFECE" height="2" style="stroke: #A80036; stroke-width: 1.5;" width="4" x="508" y="469.45"/><text fill="#000000" font-family="sans-serif" font-size="14" font-style="italic" lengthAdjust="spacingAndGlyphs" textLength="130" x="375" y="492.4499">«Naked Objects FW»</text><text fill="#000000" font-family="sans-serif" font-size="14" lengthAdjust="spacingAndGlyphs" textLength="72" x="404" y="509.2499">Apache Isis</text><path d="M928.5,293.45 L928.5,397.0501 A0,0 0 0 0 928.5,397.0501 L1185.5,397.0501 A0,0 0 0 0 1185.5,397.0501 L1185.5,303.45 L1175.5,293.45 L1061,293.45 L1057,223.21 L1053,293.45 L928.5,293.45 A0,0 0 0 0 928.5,293.45 " fill="#FBFB77" filter="url(#fqryl9qhb0ple)" style="stroke: #A80036; stroke-width: 1.0;"/><path d="M1175.5,293.45 L1175.5,303.45 L1185.5,303.45 L1175.5,293.45 " fill="#FBFB77" style="stroke: #A80036; stroke-width: 1.0;"/><text fill="#000000" font-family="sans-serif" font-size="13" lengthAdjust="spacingAndGlyphs" textLength="235" x="934.5" y="311.45">Event Log Entries are replayed during test.</text><text fill="#000000" font-family="sans-serif" font-size="13" lengthAdjust="spacingAndGlyphs" textLength="236" x="934.5" y="327.05">Expected/actual responses are compared.</text><text fill="#000000" font-family="sans-serif" font-size="13" lengthAdjust="spacingAndGlyphs" textLength="0" x="937.5" y="342.65"/><text fill="#000000" font-family="sans-serif" font-size="13" lengthAdjust="spacingAndGlyphs" textLength="85" x="934.5" y="358.2501">Events in state:</text><ellipse cx="940" cy="368.9501" fill="#000000" rx="2.5" ry="2.5" style="stroke: #000000; stroke-width: 0.0;"/><text fill="#000000" font-family="sans-serif" font-size="13" lengthAdjust="spacingAndGlyphs" textLength="189" x="946.5" y="373.8501">SUCCESS -&gt; expected == actual</text><ellipse cx="940" cy="384.5501" fill="#000000" rx="2.5" ry="2.5" style="stroke: #000000; stroke-width: 0.0;"/><text fill="#000000" font-family="sans-serif" font-size="13" lengthAdjust="spacingAndGlyphs" textLength="168" x="946.5" y="389.4501">ERROR -&gt; expected != actual</text><path d="M546,324.95 L546,366.15 A0,0 0 0 0 546,366.15 L560.96,366.15 L475.26,458.32 L568.96,366.15 L622,366.15 A0,0 0 0 0 622,366.15 L622,334.95 L612,324.95 L546,324.95 A0,0 0 0 0 546,324.95 " fill="#FBFB77" filter="url(#fqryl9qhb0ple)" style="stroke: #A80036; stroke-width: 1.0;"/><path d="M612,324.95 L612,334.95 L622,334.95 L612,324.95 " fill="#FBFB77" style="stroke: #A80036; stroke-width: 1.0;"/><text fill="#000000" font-family="sans-serif" font-size="13" lengthAdjust="spacingAndGlyphs" textLength="55" x="552" y="342.95">additional</text><text fill="#000000" font-family="sans-serif" font-size="13" lengthAdjust="spacingAndGlyphs" textLength="52" x="552" y="358.55">coverage</text><path d="M379.5,324.95 L379.5,366.15 L510.5,366.15 L510.5,334.95 L500.5,324.95 L379.5,324.95 " fill="#FBFB77" filter="url(#fqryl9qhb0ple)" style="stroke: #A80036; stroke-width: 1.0;"/><path d="M500.5,324.95 L500.5,334.95 L510.5,334.95 L500.5,324.95 " fill="#FBFB77" style="stroke: #A80036; stroke-width: 1.0;"/><text fill="#000000" font-family="sans-serif" font-size="13" lengthAdjust="spacingAndGlyphs" textLength="110" x="385.5" y="342.95">Regressions can be</text><text fill="#000000" font-family="sans-serif" font-size="13" lengthAdjust="spacingAndGlyphs" textLength="89" x="385.5" y="358.55">caused in either</text><!--MD5=[044d05b892026c564542e04e71cdfcae]
link   to FE--><path d="M33.59,182.95 C45.09,182.95 61.5,182.95 75.69,182.95 C82.785,182.95 89.325,182.95 94.4187,182.95 C95.0555,182.95 95.6696,182.95 96.2594,182.95 C96.4068,182.95 96.5527,182.95 96.6971,182.95 C96.7693,182.95 96.8411,182.95 96.9125,182.95 " fill="none" id=" -&gt;FE" style="stroke: #A80036; stroke-width: 1.0;"/><polygon fill="#A80036" points="96.9125,182.95,87.9125,178.95,91.9125,182.95,87.9125,186.95,96.9125,182.95" style="stroke: #A80036; stroke-width: 1.0;"/><text fill="#000000" font-family="sans-serif" font-size="13" lengthAdjust="spacingAndGlyphs" textLength="35" x="51.57" y="176.95">action</text><!--MD5=[fbb8d5fa8a9feca13177321b4678f474]
link FE to EL--><path d="M105.58,182.95 C115.35,182.95 125.12,182.95 134.89,182.95 " fill="none" id="FE-&gt;EL" style="stroke: #A80036; stroke-width: 1.0;"/><polygon fill="#A80036" points="139.99,182.95,130.99,178.95,134.99,182.95,130.99,186.95,139.99,182.95" style="stroke: #A80036; stroke-width: 1.0;"/><!--MD5=[2c760634608609d01a798da024c32d51]
link FE to APP--><path d="M118.2671,63.6161 C118.4027,63.4623 118.5391,63.3091 118.6764,63.1566 C119.2256,62.5464 119.7887,61.9464 120.3658,61.3568 C121.52,60.1778 122.7306,59.0409 124,57.95 C161.08,26.08 190.92,34.84 234,57.95 C268.54,76.48 291.15,116.4 303.92,146.17 " fill="none" id="FE-APP" style="stroke: #A80036; stroke-width: 1.0;"/><polygon fill="#A80036" points="305.89,150.86,306.11,141.0136,303.9619,146.2467,298.7287,144.0986,305.89,150.86" style="stroke: #A80036; stroke-width: 1.0;"/><polygon fill="#A80036" points="118.2671,63.6161,127.2193,59.5102,121.5736,59.8655,121.2183,54.2198,118.2671,63.6161" style="stroke: #A80036; stroke-width: 1.0;"/><text fill="#000000" font-family="sans-serif" font-size="13" lengthAdjust="spacingAndGlyphs" textLength="103" x="133.5" y="36.95">request / response</text><!--MD5=[37ca614c21ecc4e03f38dc516ec979d6]
link APP to FW--><path d="M312.28,214.97 C307.19,258.44 303.49,338.72 334,397.45 C346.06,420.67 366.78,440.26 387.07,455.33 " fill="none" id="APP-&gt;FW" style="stroke: #A80036; stroke-width: 1.0;"/><polygon fill="#A80036" points="391.12,458.28,386.1976,449.7494,387.0776,455.3374,381.4896,456.2174,391.12,458.28" style="stroke: #A80036; stroke-width: 1.0;"/><text fill="#000000" font-family="sans-serif" font-size="13" lengthAdjust="spacingAndGlyphs" textLength="26" x="335" y="350.95">uses</text><!--MD5=[83c5898c77d344dea07ae0f2b5cb3be3]
link EL to RE--><path d="M187.75,159.89 C199.14,131.68 220.96,83.33 249,47.95 C282.25,6 316.4,20.67 368.5,32.95 C449.95,52.15 534.51,96.96 593.11,132.64 " fill="none" id="EL-&gt;RE" style="stroke: #A80036; stroke-width: 1.0;"/><polygon fill="#A80036" points="597.63,135.41,592.0417,127.3,593.3654,132.7999,587.8655,134.1235,597.63,135.41" style="stroke: #A80036; stroke-width: 1.0;"/><text fill="#000000" font-family="sans-serif" font-size="13" lengthAdjust="spacingAndGlyphs" textLength="35" x="549.0218" y="125.0127">export</text><!--MD5=[e6ed755eced7106e72aa480df7c9ef45]
reverse link RE to DRT--><path d="M939.77,182.95 C962.88,182.95 984.26,182.95 1002.26,182.95 " fill="none" id="RE&lt;-DRT" style="stroke: #A80036; stroke-width: 1.0;"/><polygon fill="#A80036" points="934.5,182.95,943.5,186.95,939.5,182.95,943.5,178.95,934.5,182.95" style="stroke: #A80036; stroke-width: 1.0;"/><text fill="#000000" font-family="sans-serif" font-size="13" lengthAdjust="spacingAndGlyphs" textLength="31" x="953" y="176.95">reads</text><!--MD5=[5ea144c57fb525e20369093d1f53f308]
link DRT to APP--><path d="M1036.09,142.92 C1018.19,113.37 989.38,75.37 952,57.95 C895.1,31.43 441.16,26.21 387,57.95 C354.95,76.74 336.47,116.15 326.64,145.73 " fill="none" id="DRT-&gt;APP" style="stroke: #A80036; stroke-width: 1.0;"/><polygon fill="#A80036" points="325.02,150.76,331.5815,143.4151,326.5496,145.9997,323.965,140.9678,325.02,150.76" style="stroke: #A80036; stroke-width: 1.0;"/><text fill="#000000" font-family="sans-serif" font-size="13" lengthAdjust="spacingAndGlyphs" textLength="34" x="668" y="36.95">replay</text><text fill="#000000" font-family="sans-serif" font-size="13" lengthAdjust="spacingAndGlyphs" textLength="43" x="985.5357" y="132.4716">invokes</text><text fill="#000000" font-family="sans-serif" font-size="13" lengthAdjust="spacingAndGlyphs" textLength="44" x="277.9619" y="140.1872">RO API</text><!--MD5=[e01b7f7586d9d51e2af1bb984dcd3f4c]
link APP to NREG--><path d="M341.98,215.28 C367.88,247.75 407.57,297.52 429.35,324.83 " fill="none" id="APP-NREG" style="stroke: #A80036; stroke-width: 1.0; stroke-dasharray: 7.0,7.0;"/><!--MD5=[08c403ccfe222087d529d28b9c140709]
link NREG to FW--><path d="M445,366.03 C445,389.82 445,430.25 445,458.32 " fill="none" id="NREG-FW" style="stroke: #A80036; stroke-width: 1.0; stroke-dasharray: 7.0,7.0;"/><!--MD5=[c5b225af61e5ef9f548e9a8b7c3a448b]
@startuml

: : -> FE : action

component kroviz <<RO FrontEnd>> as FE {
    database EventLog as EL
    FE -> EL
}

note bottom of EL
Req./Resp.
as well as UI
events are recorded
end note

component Demo <<RO App>> as APP
FE <-> APP : request / response

component "Apache Isis" <<Naked Objects FW>> as FW
APP -> FW : uses


together {
    file RE as "
    .. (Sample) Replay Events..
    |= url |= [request data] |= state |= response |\n| http://localhost:8080/restful | uid/pw | SUCCESS | {jsonStr} |\n| http://localhost:8080/restful/menubars | n/a | ERROR | {another js} |
    "
    component "Demo \nRegression \nTest" as DRT
}
EL ->"export" RE


RE <- DRT : reads
DRT "invokes"->"RO API" APP : replay

note bottom of DRT
Event Log Entries are replayed during test.
Expected/actual responses are compared.

Events in state:
* SUCCESS -> expected == actual
* ERROR -> expected != actual
end note

note top of FW
additional
coverage
end note

note as NREG
Regressions can be
caused in either
end note
APP .. NREG
NREG .. FW

@enduml

PlantUML version 1.2020.15(Sun Jun 28 11:39:45 GMT 2020)
(GPL source distribution)
Java Runtime: OpenJDK Runtime Environment
JVM: OpenJDK 64-Bit Server VM
Default Encoding: UTF-8
Language: en
Country: US
--></g></svg>