<?xml version="1.0" encoding="UTF-8" standalone="no"?><svg xmlns="http://www.w3.org/2000/svg" xmlns:xlink="http://www.w3.org/1999/xlink" contentScriptType="application/ecmascript" contentStyleType="text/css" height="548px" preserveAspectRatio="none" style="width:729px;height:548px;" version="1.1" viewBox="0 0 729 548" width="729px" zoomAndPan="magnify"><defs><filter height="300%" id="f1zy80vph81cv" width="300%" x="-1" y="-1"><feGaussianBlur result="blurOut" stdDeviation="2.0"/><feColorMatrix in="blurOut" result="blurOut2" type="matrix" values="0 0 0 0 0 0 0 0 0 0 0 0 0 0 0 0 0 0 .4 0"/><feOffset dx="4.0" dy="4.0" in="blurOut2" result="blurOut3"/><feBlend in="SourceGraphic" in2="blurOut3" mode="normal"/></filter></defs><g><!--MD5=[4945c737fad898a5ce312252f730d528]
class Renderer--><rect codeLine="1" fill="#FEFECE" filter="url(#f1zy80vph81cv)" height="107.3828" id="Renderer" style="stroke:#A80036;stroke-width:1.5;" width="95" x="281.5" y="164"/><ellipse cx="304.6" cy="180" fill="#A9DCDF" rx="11" ry="11" style="stroke:#A80036;stroke-width:1.0;"/><path d="M304.6469,174.1719 L304.6781,174.1719 L303.6625,180.25 L305.6625,180.25 L304.6469,174.1719 Z M306.0688,182.125 L303.2563,182.125 L302.4594,185.7031 L300.3344,185.7031 L303.5844,172.5938 L305.8031,172.5938 L309.0531,185.7031 L306.85,185.7031 L306.0688,182.125 Z " fill="#000000"/><text fill="#000000" font-family="sans-serif" font-size="12" font-style="italic" lengthAdjust="spacing" textLength="45" x="320.4" y="184.5352">Renderer</text><line style="stroke:#A80036;stroke-width:1.5;" x1="282.5" x2="375.5" y1="196" y2="196"/><text fill="#000000" font-family="sans-serif" font-size="11" lengthAdjust="spacing" textLength="81" x="287.5" y="211.5801">iconName:String</text><text fill="#000000" font-family="sans-serif" font-size="11" lengthAdjust="spacing" textLength="53" x="287.5" y="226.4258">title:String</text><text fill="#000000" font-family="sans-serif" font-size="11" lengthAdjust="spacing" textLength="59" x="287.5" y="241.2715">view:RoView</text><text fill="#000000" font-family="sans-serif" font-size="11" lengthAdjust="spacing" textLength="83" x="287.5" y="256.1172">protocol:Protocol</text><line style="stroke:#A80036;stroke-width:1.5;" x1="282.5" x2="375.5" y1="263.3828" y2="263.3828"/><!--MD5=[a0c27cfb527bdb20a6436baa93834728]
class Protocol--><rect codeLine="9" fill="#FEFECE" filter="url(#f1zy80vph81cv)" height="62.8457" id="Protocol" style="stroke:#A80036;stroke-width:1.5;" width="161" x="439.5" y="186"/><ellipse cx="494.75" cy="202" fill="#A9DCDF" rx="11" ry="11" style="stroke:#A80036;stroke-width:1.0;"/><path d="M494.7969,196.1719 L494.8281,196.1719 L493.8125,202.25 L495.8125,202.25 L494.7969,196.1719 Z M496.2188,204.125 L493.4063,204.125 L492.6094,207.7031 L490.4844,207.7031 L493.7344,194.5938 L495.9531,194.5938 L499.2031,207.7031 L497,207.7031 L496.2188,204.125 Z " fill="#000000"/><text fill="#000000" font-family="sans-serif" font-size="12" font-style="italic" lengthAdjust="spacing" textLength="42" x="515.25" y="206.5352">Protocol</text><line style="stroke:#A80036;stroke-width:1.5;" x1="440.5" x2="599.5" y1="218" y2="218"/><line style="stroke:#A80036;stroke-width:1.5;" x1="440.5" x2="599.5" y1="226" y2="226"/><text fill="#000000" font-family="sans-serif" font-size="11" lengthAdjust="spacing" textLength="149" x="445.5" y="241.5801">includes(propertyName:String)</text><!--MD5=[b6539e280a383d4bd2138df28ea79f0b]
class ObjectRdr--><rect fill="#FEFECE" filter="url(#f1zy80vph81cv)" height="48" id="ObjectRdr" style="stroke:#A80036;stroke-width:1.5;" width="82" x="252" y="354.5"/><ellipse cx="267" cy="370.5" fill="#ADD1B2" rx="11" ry="11" style="stroke:#A80036;stroke-width:1.0;"/><path d="M262.9375,370.6406 Q262.9375,367.1875 264.0313,365.5625 Q265.1406,363.9219 267.3594,363.9219 Q268.5625,363.9219 269.8281,364.5781 L269.8281,366.625 Q268.375,365.8438 267.4375,365.8438 Q264.9844,365.8438 264.9844,370.6406 Q264.9844,373.3438 265.6094,374.4063 Q266.25,375.4531 267.4375,375.4531 Q268.4063,375.4531 269.9063,374.5313 L269.9063,376.7344 Q268.6406,377.3594 267.3594,377.3594 Q265.0938,377.3594 264.0156,375.7813 Q262.9375,374.2031 262.9375,370.6406 Z " fill="#000000"/><text fill="#000000" font-family="sans-serif" font-size="12" lengthAdjust="spacing" textLength="50" x="281" y="375.0352">ObjectRdr</text><line style="stroke:#A80036;stroke-width:1.5;" x1="253" x2="333" y1="386.5" y2="386.5"/><line style="stroke:#A80036;stroke-width:1.5;" x1="253" x2="333" y1="394.5" y2="394.5"/><!--MD5=[660956bd813a32f4c4e01cf0c9a6a063]
class ListRdr--><rect fill="#FEFECE" filter="url(#f1zy80vph81cv)" height="48" id="ListRdr" style="stroke:#A80036;stroke-width:1.5;" width="68" x="369" y="354.5"/><ellipse cx="384" cy="370.5" fill="#ADD1B2" rx="11" ry="11" style="stroke:#A80036;stroke-width:1.0;"/><path d="M379.9375,370.6406 Q379.9375,367.1875 381.0313,365.5625 Q382.1406,363.9219 384.3594,363.9219 Q385.5625,363.9219 386.8281,364.5781 L386.8281,366.625 Q385.375,365.8438 384.4375,365.8438 Q381.9844,365.8438 381.9844,370.6406 Q381.9844,373.3438 382.6094,374.4063 Q383.25,375.4531 384.4375,375.4531 Q385.4063,375.4531 386.9063,374.5313 L386.9063,376.7344 Q385.6406,377.3594 384.3594,377.3594 Q382.0938,377.3594 381.0156,375.7813 Q379.9375,374.2031 379.9375,370.6406 Z " fill="#000000"/><text fill="#000000" font-family="sans-serif" font-size="12" lengthAdjust="spacing" textLength="36" x="398" y="375.0352">ListRdr</text><line style="stroke:#A80036;stroke-width:1.5;" x1="370" x2="436" y1="386.5" y2="386.5"/><line style="stroke:#A80036;stroke-width:1.5;" x1="370" x2="436" y1="394.5" y2="394.5"/><!--MD5=[24f215063a43c8314490619b47a99cd0]
class GeoLocationRdr--><rect fill="#FEFECE" filter="url(#f1zy80vph81cv)" height="48" id="GeoLocationRdr" style="stroke:#A80036;stroke-width:1.5;" width="112" x="327" y="486"/><ellipse cx="342" cy="502" fill="#ADD1B2" rx="11" ry="11" style="stroke:#A80036;stroke-width:1.0;"/><path d="M337.9375,502.1406 Q337.9375,498.6875 339.0313,497.0625 Q340.1406,495.4219 342.3594,495.4219 Q343.5625,495.4219 344.8281,496.0781 L344.8281,498.125 Q343.375,497.3438 342.4375,497.3438 Q339.9844,497.3438 339.9844,502.1406 Q339.9844,504.8438 340.6094,505.9063 Q341.25,506.9531 342.4375,506.9531 Q343.4063,506.9531 344.9063,506.0313 L344.9063,508.2344 Q343.6406,508.8594 342.3594,508.8594 Q340.0938,508.8594 339.0156,507.2813 Q337.9375,505.7031 337.9375,502.1406 Z " fill="#000000"/><text fill="#000000" font-family="sans-serif" font-size="12" lengthAdjust="spacing" textLength="80" x="356" y="506.5352">GeoLocationRdr</text><line style="stroke:#A80036;stroke-width:1.5;" x1="328" x2="438" y1="518" y2="518"/><line style="stroke:#A80036;stroke-width:1.5;" x1="328" x2="438" y1="526" y2="526"/><!--MD5=[3ac3a25a251d55f379c2f348a979e9b0]
class EventRdr--><rect fill="#FEFECE" filter="url(#f1zy80vph81cv)" height="48" id="EventRdr" style="stroke:#A80036;stroke-width:1.5;" width="77" x="474.5" y="486"/><ellipse cx="489.5" cy="502" fill="#ADD1B2" rx="11" ry="11" style="stroke:#A80036;stroke-width:1.0;"/><path d="M485.4375,502.1406 Q485.4375,498.6875 486.5313,497.0625 Q487.6406,495.4219 489.8594,495.4219 Q491.0625,495.4219 492.3281,496.0781 L492.3281,498.125 Q490.875,497.3438 489.9375,497.3438 Q487.4844,497.3438 487.4844,502.1406 Q487.4844,504.8438 488.1094,505.9063 Q488.75,506.9531 489.9375,506.9531 Q490.9063,506.9531 492.4063,506.0313 L492.4063,508.2344 Q491.1406,508.8594 489.8594,508.8594 Q487.5938,508.8594 486.5156,507.2813 Q485.4375,505.7031 485.4375,502.1406 Z " fill="#000000"/><text fill="#000000" font-family="sans-serif" font-size="12" lengthAdjust="spacing" textLength="45" x="503.5" y="506.5352">EventRdr</text><line style="stroke:#A80036;stroke-width:1.5;" x1="475.5" x2="550.5" y1="518" y2="518"/><line style="stroke:#A80036;stroke-width:1.5;" x1="475.5" x2="550.5" y1="526" y2="526"/><!--MD5=[94b905841b8882956344401c70c922d8]
class RoView--><rect codeLine="18" fill="#FEFECE" filter="url(#f1zy80vph81cv)" height="48" id="RoView" style="stroke:#A80036;stroke-width:1.5;" width="69" x="149.5" y="193.5"/><ellipse cx="164.5" cy="209.5" fill="#A9DCDF" rx="11" ry="11" style="stroke:#A80036;stroke-width:1.0;"/><path d="M164.5469,203.6719 L164.5781,203.6719 L163.5625,209.75 L165.5625,209.75 L164.5469,203.6719 Z M165.9688,211.625 L163.1563,211.625 L162.3594,215.2031 L160.2344,215.2031 L163.4844,202.0938 L165.7031,202.0938 L168.9531,215.2031 L166.75,215.2031 L165.9688,211.625 Z " fill="#000000"/><text fill="#000000" font-family="sans-serif" font-size="12" font-style="italic" lengthAdjust="spacing" textLength="37" x="178.5" y="214.0352">RoView</text><line style="stroke:#A80036;stroke-width:1.5;" x1="150.5" x2="217.5" y1="225.5" y2="225.5"/><line style="stroke:#A80036;stroke-width:1.5;" x1="150.5" x2="217.5" y1="233.5" y2="233.5"/><!--MD5=[ac681369a1a81eadc0880c8fcd051002]
class ObjectVw--><rect fill="#FEFECE" filter="url(#f1zy80vph81cv)" height="48" id="ObjectVw" style="stroke:#A80036;stroke-width:1.5;" width="80" x="36" y="354.5"/><ellipse cx="51" cy="370.5" fill="#ADD1B2" rx="11" ry="11" style="stroke:#A80036;stroke-width:1.0;"/><path d="M46.9375,370.6406 Q46.9375,367.1875 48.0313,365.5625 Q49.1406,363.9219 51.3594,363.9219 Q52.5625,363.9219 53.8281,364.5781 L53.8281,366.625 Q52.375,365.8438 51.4375,365.8438 Q48.9844,365.8438 48.9844,370.6406 Q48.9844,373.3438 49.6094,374.4063 Q50.25,375.4531 51.4375,375.4531 Q52.4063,375.4531 53.9063,374.5313 L53.9063,376.7344 Q52.6406,377.3594 51.3594,377.3594 Q49.0938,377.3594 48.0156,375.7813 Q46.9375,374.2031 46.9375,370.6406 Z " fill="#000000"/><text fill="#000000" font-family="sans-serif" font-size="12" lengthAdjust="spacing" textLength="48" x="65" y="375.0352">ObjectVw</text><line style="stroke:#A80036;stroke-width:1.5;" x1="37" x2="115" y1="386.5" y2="386.5"/><line style="stroke:#A80036;stroke-width:1.5;" x1="37" x2="115" y1="394.5" y2="394.5"/><!--MD5=[6001a356541f2e1ff9f964c5f5b67d85]
class ListVw--><rect fill="#FEFECE" filter="url(#f1zy80vph81cv)" height="48" id="ListVw" style="stroke:#A80036;stroke-width:1.5;" width="66" x="151" y="354.5"/><ellipse cx="166" cy="370.5" fill="#ADD1B2" rx="11" ry="11" style="stroke:#A80036;stroke-width:1.0;"/><path d="M161.9375,370.6406 Q161.9375,367.1875 163.0313,365.5625 Q164.1406,363.9219 166.3594,363.9219 Q167.5625,363.9219 168.8281,364.5781 L168.8281,366.625 Q167.375,365.8438 166.4375,365.8438 Q163.9844,365.8438 163.9844,370.6406 Q163.9844,373.3438 164.6094,374.4063 Q165.25,375.4531 166.4375,375.4531 Q167.4063,375.4531 168.9063,374.5313 L168.9063,376.7344 Q167.6406,377.3594 166.3594,377.3594 Q164.0938,377.3594 163.0156,375.7813 Q161.9375,374.2031 161.9375,370.6406 Z " fill="#000000"/><text fill="#000000" font-family="sans-serif" font-size="12" lengthAdjust="spacing" textLength="34" x="180" y="375.0352">ListVw</text><line style="stroke:#A80036;stroke-width:1.5;" x1="152" x2="216" y1="386.5" y2="386.5"/><line style="stroke:#A80036;stroke-width:1.5;" x1="152" x2="216" y1="394.5" y2="394.5"/><!--MD5=[293cdd98efd2ef6414c6838d728daf9e]
class GeoLocationVw--><rect fill="#FEFECE" filter="url(#f1zy80vph81cv)" height="48" id="GeoLocationVw" style="stroke:#A80036;stroke-width:1.5;" width="110" x="7" y="486"/><ellipse cx="22" cy="502" fill="#ADD1B2" rx="11" ry="11" style="stroke:#A80036;stroke-width:1.0;"/><path d="M17.9375,502.1406 Q17.9375,498.6875 19.0313,497.0625 Q20.1406,495.4219 22.3594,495.4219 Q23.5625,495.4219 24.8281,496.0781 L24.8281,498.125 Q23.375,497.3438 22.4375,497.3438 Q19.9844,497.3438 19.9844,502.1406 Q19.9844,504.8438 20.6094,505.9063 Q21.25,506.9531 22.4375,506.9531 Q23.4063,506.9531 24.9063,506.0313 L24.9063,508.2344 Q23.6406,508.8594 22.3594,508.8594 Q20.0938,508.8594 19.0156,507.2813 Q17.9375,505.7031 17.9375,502.1406 Z " fill="#000000"/><text fill="#000000" font-family="sans-serif" font-size="12" lengthAdjust="spacing" textLength="78" x="36" y="506.5352">GeoLocationVw</text><line style="stroke:#A80036;stroke-width:1.5;" x1="8" x2="116" y1="518" y2="518"/><line style="stroke:#A80036;stroke-width:1.5;" x1="8" x2="116" y1="526" y2="526"/><!--MD5=[b5b2b5ee462037f139d18fe25361c91f]
class TimeLineView--><rect fill="#FEFECE" filter="url(#f1zy80vph81cv)" height="48" id="TimeLineView" style="stroke:#A80036;stroke-width:1.5;" width="102" x="152" y="486"/><ellipse cx="167" cy="502" fill="#ADD1B2" rx="11" ry="11" style="stroke:#A80036;stroke-width:1.0;"/><path d="M162.9375,502.1406 Q162.9375,498.6875 164.0313,497.0625 Q165.1406,495.4219 167.3594,495.4219 Q168.5625,495.4219 169.8281,496.0781 L169.8281,498.125 Q168.375,497.3438 167.4375,497.3438 Q164.9844,497.3438 164.9844,502.1406 Q164.9844,504.8438 165.6094,505.9063 Q166.25,506.9531 167.4375,506.9531 Q168.4063,506.9531 169.9063,506.0313 L169.9063,508.2344 Q168.6406,508.8594 167.3594,508.8594 Q165.0938,508.8594 164.0156,507.2813 Q162.9375,505.7031 162.9375,502.1406 Z " fill="#000000"/><text fill="#000000" font-family="sans-serif" font-size="12" lengthAdjust="spacing" textLength="70" x="181" y="506.5352">TimeLineView</text><line style="stroke:#A80036;stroke-width:1.5;" x1="153" x2="253" y1="518" y2="518"/><line style="stroke:#A80036;stroke-width:1.5;" x1="153" x2="253" y1="526" y2="526"/><!--MD5=[bd1591ba57da9f11d5bbb0d64d5c2717]
class Exposer--><rect codeLine="28" fill="#FEFECE" filter="url(#f1zy80vph81cv)" height="62.8457" id="Exposer" style="stroke:#A80036;stroke-width:1.5;" width="129" x="455.5" y="14.5"/><ellipse cx="496.15" cy="30.5" fill="#ADD1B2" rx="11" ry="11" style="stroke:#A80036;stroke-width:1.0;"/><path d="M492.0875,30.6406 Q492.0875,27.1875 493.1813,25.5625 Q494.2906,23.9219 496.5094,23.9219 Q497.7125,23.9219 498.9781,24.5781 L498.9781,26.625 Q497.525,25.8438 496.5875,25.8438 Q494.1344,25.8438 494.1344,30.6406 Q494.1344,33.3438 494.7594,34.4063 Q495.4,35.4531 496.5875,35.4531 Q497.5563,35.4531 499.0563,34.5313 L499.0563,36.7344 Q497.7906,37.3594 496.5094,37.3594 Q494.2438,37.3594 493.1656,35.7813 Q492.0875,34.2031 492.0875,30.6406 Z " fill="#000000"/><text fill="#000000" font-family="sans-serif" font-size="12" lengthAdjust="spacing" textLength="40" x="515.85" y="35.0352">Exposer</text><line style="stroke:#A80036;stroke-width:1.5;" x1="456.5" x2="583.5" y1="46.5" y2="46.5"/><text fill="#000000" font-family="sans-serif" font-size="11" lengthAdjust="spacing" textLength="117" x="461.5" y="62.0801">delegate:TransferObject</text><line style="stroke:#A80036;stroke-width:1.5;" x1="456.5" x2="583.5" y1="69.3457" y2="69.3457"/><!--MD5=[1baf32c238e7b10acca77db68c6197d6]
class TransferObject--><rect codeLine="32" fill="#90EE90" filter="url(#f1zy80vph81cv)" height="62.8457" id="TransferObject" style="stroke:#A80036;stroke-width:1.5;" width="140" x="280" y="14.5"/><ellipse cx="309.85" cy="30.5" fill="#A9DCDF" rx="11" ry="11" style="stroke:#A80036;stroke-width:1.0;"/><path d="M309.8969,24.6719 L309.9281,24.6719 L308.9125,30.75 L310.9125,30.75 L309.8969,24.6719 Z M311.3188,32.625 L308.5063,32.625 L307.7094,36.2031 L305.5844,36.2031 L308.8344,23.0938 L311.0531,23.0938 L314.3031,36.2031 L312.1,36.2031 L311.3188,32.625 Z " fill="#000000"/><text fill="#000000" font-family="sans-serif" font-size="12" font-style="italic" lengthAdjust="spacing" textLength="75" x="327.15" y="35.0352">TransferObject</text><line style="stroke:#A80036;stroke-width:1.5;" x1="281" x2="419" y1="46.5" y2="46.5"/><text fill="#000000" font-family="sans-serif" font-size="11" lengthAdjust="spacing" textLength="128" x="286" y="62.0801">properties:List&lt;Property&gt;</text><line style="stroke:#A80036;stroke-width:1.5;" x1="281" x2="419" y1="69.3457" y2="69.3457"/><!--MD5=[6b626634f3bb0842bebd5e499c80b711]
class Property--><rect codeLine="36" fill="#ADD8E6" filter="url(#f1zy80vph81cv)" height="77.6914" id="Property" style="stroke:#A80036;stroke-width:1.5;" width="75" x="147.5" y="7"/><ellipse cx="162.95" cy="23" fill="#ADD1B2" rx="11" ry="11" style="stroke:#A80036;stroke-width:1.0;"/><path d="M158.8875,23.1406 Q158.8875,19.6875 159.9813,18.0625 Q161.0906,16.4219 163.3094,16.4219 Q164.5125,16.4219 165.7781,17.0781 L165.7781,19.125 Q164.325,18.3438 163.3875,18.3438 Q160.9344,18.3438 160.9344,23.1406 Q160.9344,25.8438 161.5594,26.9063 Q162.2,27.9531 163.3875,27.9531 Q164.3563,27.9531 165.8563,27.0313 L165.8563,29.2344 Q164.5906,29.8594 163.3094,29.8594 Q161.0438,29.8594 159.9656,28.2813 Q158.8875,26.7031 158.8875,23.1406 Z " fill="#000000"/><text fill="#000000" font-family="sans-serif" font-size="12" lengthAdjust="spacing" textLength="42" x="177.05" y="27.5352">Property</text><line style="stroke:#A80036;stroke-width:1.5;" x1="148.5" x2="221.5" y1="39" y2="39"/><text fill="#000000" font-family="sans-serif" font-size="11" lengthAdjust="spacing" textLength="63" x="153.5" y="54.5801">name: String</text><text fill="#000000" font-family="sans-serif" font-size="11" lengthAdjust="spacing" textLength="55" x="153.5" y="69.4258">type: Class</text><line style="stroke:#A80036;stroke-width:1.5;" x1="148.5" x2="221.5" y1="76.6914" y2="76.6914"/><!--MD5=[1e477e70b6ee4c5ba5660faf99f4d9ee]
class TimeLinePtc--><rect codeLine="43" fill="#ADD8E6" filter="url(#f1zy80vph81cv)" height="92.5371" id="TimeLinePtc" style="stroke:#A80036;stroke-width:1.5;" width="95" x="472.5" y="332"/><ellipse cx="487.5" cy="348" fill="#ADD1B2" rx="11" ry="11" style="stroke:#A80036;stroke-width:1.0;"/><path d="M483.4375,348.1406 Q483.4375,344.6875 484.5313,343.0625 Q485.6406,341.4219 487.8594,341.4219 Q489.0625,341.4219 490.3281,342.0781 L490.3281,344.125 Q488.875,343.3438 487.9375,343.3438 Q485.4844,343.3438 485.4844,348.1406 Q485.4844,350.8438 486.1094,351.9063 Q486.75,352.9531 487.9375,352.9531 Q488.9063,352.9531 490.4063,352.0313 L490.4063,354.2344 Q489.1406,354.8594 487.8594,354.8594 Q485.5938,354.8594 484.5156,353.2813 Q483.4375,351.7031 483.4375,348.1406 Z " fill="#000000"/><text fill="#000000" font-family="sans-serif" font-size="12" lengthAdjust="spacing" textLength="63" x="501.5" y="352.5352">TimeLinePtc</text><line style="stroke:#A80036;stroke-width:1.5;" x1="473.5" x2="566.5" y1="364" y2="364"/><text fill="#000000" font-family="sans-serif" font-size="11" lengthAdjust="spacing" textLength="74" x="478.5" y="379.5801">start:DateTime</text><text fill="#000000" font-family="sans-serif" font-size="11" lengthAdjust="spacing" textLength="68" x="478.5" y="394.4258">end:DateTime</text><text fill="#000000" font-family="sans-serif" font-size="11" lengthAdjust="spacing" textLength="78" x="478.5" y="409.2715">duration:Double</text><line style="stroke:#A80036;stroke-width:1.5;" x1="473.5" x2="566.5" y1="416.5371" y2="416.5371"/><!--MD5=[701a273d35b20c028becaec0330689a0]
class GeoLocationPtc--><rect codeLine="48" fill="#ADD8E6" filter="url(#f1zy80vph81cv)" height="77.6914" id="GeoLocationPtc" style="stroke:#A80036;stroke-width:1.5;" width="112" x="603" y="339.5"/><ellipse cx="618" cy="355.5" fill="#ADD1B2" rx="11" ry="11" style="stroke:#A80036;stroke-width:1.0;"/><path d="M613.9375,355.6406 Q613.9375,352.1875 615.0313,350.5625 Q616.1406,348.9219 618.3594,348.9219 Q619.5625,348.9219 620.8281,349.5781 L620.8281,351.625 Q619.375,350.8438 618.4375,350.8438 Q615.9844,350.8438 615.9844,355.6406 Q615.9844,358.3438 616.6094,359.4063 Q617.25,360.4531 618.4375,360.4531 Q619.4063,360.4531 620.9063,359.5313 L620.9063,361.7344 Q619.6406,362.3594 618.3594,362.3594 Q616.0938,362.3594 615.0156,360.7813 Q613.9375,359.2031 613.9375,355.6406 Z " fill="#000000"/><text fill="#000000" font-family="sans-serif" font-size="12" lengthAdjust="spacing" textLength="80" x="632" y="360.0352">GeoLocationPtc</text><line style="stroke:#A80036;stroke-width:1.5;" x1="604" x2="714" y1="371.5" y2="371.5"/><text fill="#000000" font-family="sans-serif" font-size="11" lengthAdjust="spacing" textLength="75" x="609" y="387.0801">latitude:Double</text><text fill="#000000" font-family="sans-serif" font-size="11" lengthAdjust="spacing" textLength="83" x="609" y="401.9258">longitude:Double</text><line style="stroke:#A80036;stroke-width:1.5;" x1="604" x2="714" y1="409.1914" y2="409.1914"/><!--MD5=[776de531de4fc26eb6aa1d58b5cd9cef]
link Renderer to Protocol--><path codeLine="7" d="M376.75,217.5 C395.85,217.5 414.94,217.5 434.04,217.5 " fill="none" id="Renderer-to-Protocol" style="stroke:#A80036;stroke-width:1.0;"/><polygon fill="#A80036" points="439.42,217.5,430.42,213.5,434.42,217.5,430.42,221.5,439.42,217.5" style="stroke:#A80036;stroke-width:1.0;"/><!--MD5=[3cb176c019a1793214f32deabd48c781]
reverse link Renderer to ObjectRdr--><path codeLine="13" d="M312.63,290.78 C307.43,313.75 302.05,337.53 298.24,354.36 " fill="none" id="Renderer-backto-ObjectRdr" style="stroke:#A80036;stroke-width:1.0;"/><polygon fill="none" points="305.87,288.96,317.11,271,319.52,292.06,305.87,288.96" style="stroke:#A80036;stroke-width:1.0;"/><!--MD5=[2d003ea05eff3833a625365fa4a23c92]
reverse link Renderer to ListRdr--><path codeLine="14" d="M361.99,289.39 C372.88,312.79 384.24,337.19 392.23,354.36 " fill="none" id="Renderer-backto-ListRdr" style="stroke:#A80036;stroke-width:1.0;"/><polygon fill="none" points="355.53,292.09,353.44,271,368.22,286.18,355.53,292.09" style="stroke:#A80036;stroke-width:1.0;"/><!--MD5=[270c2e783ce252c6a17b4cdda7eeb367]
reverse link ListRdr to GeoLocationRdr--><path codeLine="15" d="M396.36,422.52 C393.11,443.56 389.32,468.07 386.61,485.61 " fill="none" id="ListRdr-backto-GeoLocationRdr" style="stroke:#A80036;stroke-width:1.0;"/><polygon fill="none" points="389.45,421.35,399.42,402.65,403.29,423.49,389.45,421.35" style="stroke:#A80036;stroke-width:1.0;"/><!--MD5=[5fa14edd34496078a462d0f43443cad0]
reverse link ListRdr to EventRdr--><path codeLine="16" d="M435.66,417.95 C454.33,439.93 477.14,466.79 493.13,485.61 " fill="none" id="ListRdr-backto-EventRdr" style="stroke:#A80036;stroke-width:1.0;"/><polygon fill="none" points="430.28,422.43,422.67,402.65,440.95,413.36,430.28,422.43" style="stroke:#A80036;stroke-width:1.0;"/><!--MD5=[ed7825cf26eab76999869bbf1a2f89e6]
reverse link RoView to ObjectVw--><path codeLine="21" d="M156.84,258.49 C136.28,288.75 108.77,329.26 91.72,354.35 " fill="none" id="RoView-backto-ObjectVw" style="stroke:#A80036;stroke-width:1.0;"/><polygon fill="none" points="151.27,254.23,168.3,241.62,162.85,262.1,151.27,254.23" style="stroke:#A80036;stroke-width:1.0;"/><!--MD5=[216093aafde1c45b2e5b0712ff058d71]
reverse link RoView to ListVw--><path codeLine="22" d="M184,261.94 C184,291.77 184,330.2 184,354.35 " fill="none" id="RoView-backto-ListVw" style="stroke:#A80036;stroke-width:1.0;"/><polygon fill="none" points="177,261.62,184,241.62,191,261.62,177,261.62" style="stroke:#A80036;stroke-width:1.0;"/><!--MD5=[4f43e277fa3c3b5869da3b3235ceba62]
reverse link ListVw to GeoLocationVw--><path codeLine="23" d="M148.38,417.31 C127.56,439.41 101.94,466.6 84.03,485.61 " fill="none" id="ListVw-backto-GeoLocationVw" style="stroke:#A80036;stroke-width:1.0;"/><polygon fill="none" points="143.38,412.41,162.19,402.65,153.57,422.01,143.38,412.41" style="stroke:#A80036;stroke-width:1.0;"/><!--MD5=[1436f1ec751da39d0b8ebbe47b3dd9e6]
reverse link ListVw to TimeLineView--><path codeLine="24" d="M190.31,422.52 C193.4,443.56 196.99,468.07 199.57,485.61 " fill="none" id="ListVw-backto-TimeLineView" style="stroke:#A80036;stroke-width:1.0;"/><polygon fill="none" points="183.37,423.46,187.4,402.65,197.23,421.42,183.37,423.46" style="stroke:#A80036;stroke-width:1.0;"/><!--MD5=[d87128cbb67638ba9a85a96e24c98396]
reverse link RoView to Renderer--><path codeLine="26" d="M223.93,217.5 C242.99,217.5 262.05,217.5 281.11,217.5 " fill="none" id="RoView-backto-Renderer" style="stroke:#A80036;stroke-width:1.0;"/><polygon fill="#A80036" points="218.55,217.5,227.55,221.5,223.55,217.5,227.55,213.5,218.55,217.5" style="stroke:#A80036;stroke-width:1.0;"/><!--MD5=[7f100461146c8f8905a6594a925a30e1]
reverse link TransferObject to Exposer--><path codeLine="35" d="M425.27,46 C435.25,46 445.22,46 455.19,46 " fill="none" id="TransferObject-backto-Exposer" style="stroke:#A80036;stroke-width:1.0;"/><polygon fill="#A80036" points="420.06,46,429.06,50,425.06,46,429.06,42,420.06,46" style="stroke:#A80036;stroke-width:1.0;"/><!--MD5=[ca8c0f72eda8f7f565b74e74c1e8a3d2]
link Property to TransferObject--><path codeLine="40" d="M222.85,46 C235.95,46 251.2,46 266.49,46 " fill="none" id="Property-to-TransferObject" style="stroke:#A80036;stroke-width:1.0;"/><polygon fill="#A80036" points="279.89,46,273.89,42,267.89,46,273.89,50,279.89,46" style="stroke:#A80036;stroke-width:1.0;"/><text fill="#000000" font-family="sans-serif" font-size="13" lengthAdjust="spacing" textLength="21" x="240.75" y="38.6855">has</text><!--MD5=[b98afa943d79ecfbff6cd27acaf81a75]
link Exposer to Protocol--><path codeLine="41" d="M520,77.7 C520,106.64 520,150.03 520,180.58 " fill="none" id="Exposer-to-Protocol" style="stroke:#A80036;stroke-width:1.0;"/><polygon fill="#A80036" points="520,185.75,524,176.75,520,180.75,516,176.75,520,185.75" style="stroke:#A80036;stroke-width:1.0;"/><text fill="#000000" font-family="sans-serif" font-size="13" lengthAdjust="spacing" textLength="128" x="521" y="129.6855">delegate.conformsTo()</text><!--MD5=[49f8108e56dec56423f64f1d301d4747]
reverse link Protocol to GeoLocationPtc--><path codeLine="52" d="M560.06,264.32 C580.84,288.1 605.94,316.8 625.65,339.35 " fill="none" id="Protocol-backto-GeoLocationPtc" style="stroke:#A80036;stroke-width:1.0;"/><polygon fill="none" points="554.69,268.82,546.8,249.16,565.23,259.61,554.69,268.82" style="stroke:#A80036;stroke-width:1.0;"/><!--MD5=[8b653c0a697b1fbb7536d936f8568711]
reverse link Protocol to TimeLinePtc--><path codeLine="53" d="M520,269.21 C520,289.33 520,312.29 520,331.88 " fill="none" id="Protocol-backto-TimeLinePtc" style="stroke:#A80036;stroke-width:1.0;"/><polygon fill="none" points="513,269.16,520,249.16,527,269.16,513,269.16" style="stroke:#A80036;stroke-width:1.0;"/><!--MD5=[40a96f61d0b04e5611bb03c0125e1622]
@startuml
abstract class Renderer {
    iconName:String
    title:String
    view:RoView
    protocol:Protocol
}
Renderer -right-> Protocol

abstract class Protocol {
    includes(propertyName:String)
}

Renderer <|-down- ObjectRdr
Renderer <|-down- ListRdr
ListRdr <|-down- GeoLocationRdr
ListRdr <|-down- EventRdr

abstract class RoView {
}

RoView <|-down- ObjectVw
RoView <|-down- ListVw
ListVw <|-down- GeoLocationVw
ListVw <|-down- TimeLineView

Renderer -left-> RoView

class Exposer {
    delegate:TransferObject
}

abstract class TransferObject #LightGreen {
    properties:List<Property>
}
Exposer -left-> TransferObject
class Property #LightBlue {
    name: String
    type: Class
}
TransferObject *-left- Property : has
Exposer -down-> Protocol : delegate.conformsTo()

class TimeLinePtc #LightBlue {
start:DateTime
end:DateTime
duration:Double
}
class GeoLocationPtc #LightBlue {
latitude:Double
longitude:Double
}
Protocol <|-down- GeoLocationPtc
Protocol <|-down- TimeLinePtc
@enduml

PlantUML version 1.2021.01(Tue Feb 02 07:55:08 GMT 2021)
(GPL source distribution)
Java Runtime: OpenJDK Runtime Environment
JVM: OpenJDK 64-Bit Server VM
Default Encoding: UTF-8
Language: en
Country: US
--></g></svg>