<?xml version="1.0" encoding="UTF-8" standalone="no"?><svg xmlns="http://www.w3.org/2000/svg" xmlns:xlink="http://www.w3.org/1999/xlink" contentScriptType="application/ecmascript" contentStyleType="text/css" height="374px" preserveAspectRatio="none" style="width:157px;height:374px;background:#FFFFFF;" version="1.1" viewBox="0 0 157 374" width="157px" zoomAndPan="magnify"><defs><filter height="300%" id="fe8vmq4i9zw78" width="300%" x="-1" y="-1"><feGaussianBlur result="blurOut" stdDeviation="2.0"/><feColorMatrix in="blurOut" result="blurOut2" type="matrix" values="0 0 0 0 0 0 0 0 0 0 0 0 0 0 0 0 0 0 .4 0"/><feOffset dx="4.0" dy="4.0" in="blurOut2" result="blurOut3"/><feBlend in="SourceGraphic" in2="blurOut3" mode="normal"/></filter></defs><g><!--MD5=[bf52ada63cd2e6cd3f37b8d0408107a6]
cluster pets--><polygon fill="#FFFFFF" filter="url(#fe8vmq4i9zw78)" points="16,6,52,6,59,28.7999,140,28.7999,140,367,16,367,16,6" style="stroke:#000000;stroke-width:1.5;"/><line style="stroke:#000000;stroke-width:1.5;" x1="16" x2="59" y1="28.7999" y2="28.7999"/><text fill="#000000" font-family="sans-serif" font-size="14" font-weight="bold" lengthAdjust="spacing" textLength="30" x="20" y="21.9999">pets</text><!--MD5=[090b45072795caa641b719bb9659a4d2]
class PetSpecies--><rect codeLine="14" fill="#00FFFF" filter="url(#fe8vmq4i9zw78)" height="99.5998" id="PetSpecies" style="stroke:#A80036;stroke-width:1.5;" width="91" x="32.5" y="41"/><ellipse cx="47.5" cy="60.4001" fill="#EB937F" rx="11" ry="11" style="stroke:#A80036;stroke-width:1.0;"/><path d="M49.6563,62.822 Q49.6563,61.6814 50.5,61.6814 Q51.3438,61.6814 51.3438,62.822 L51.3438,65.4001 L43.3438,65.4001 Q42.2188,65.4001 42.2188,64.5564 Q42.2188,63.697 43.3438,63.697 L43.5938,63.697 L43.5938,57.1814 L43.3438,57.1814 Q42.2188,57.1814 42.2188,56.3376 Q42.2188,55.8532 42.5,55.6814 Q42.7969,55.4939 43.3438,55.4939 L50.9688,55.4939 L50.9688,58.0407 Q50.9688,59.1814 50.125,59.1814 Q49.2813,59.1814 49.2813,58.0407 L49.2813,57.1814 L45.2969,57.1814 L45.2969,59.5876 L46.75,59.5876 L46.75,59.4626 Q46.75,58.322 47.5781,58.322 Q48.4219,58.322 48.4219,59.4626 L48.4219,61.3845 Q48.4219,62.5095 47.5938,62.5095 Q46.75,62.5095 46.75,61.3845 L46.75,61.2751 L45.2969,61.2751 L45.2969,63.697 L49.6563,63.697 L49.6563,62.822 Z " fill="#000000"/><text fill="#000000" font-family="sans-serif" font-size="12" font-style="italic" lengthAdjust="spacing" textLength="36" x="73" y="58.0001">«desc»</text><text fill="#000000" font-family="sans-serif" font-size="12" lengthAdjust="spacing" textLength="59" x="61.5" y="72.4002">PetSpecies</text><line style="stroke:#A80036;stroke-width:1.5;" x1="33.5" x2="122.5" y1="79.8002" y2="79.8002"/><text fill="#000000" font-family="sans-serif" font-size="11" lengthAdjust="spacing" textLength="20" x="38.5" y="94.8001">Dog</text><text fill="#000000" font-family="sans-serif" font-size="11" lengthAdjust="spacing" textLength="17" x="38.5" y="108">Cat</text><text fill="#000000" font-family="sans-serif" font-size="11" lengthAdjust="spacing" textLength="41" x="38.5" y="121.1999">Hamster</text><text fill="#000000" font-family="sans-serif" font-size="11" lengthAdjust="spacing" textLength="53" x="38.5" y="134.3998">Budgerigar</text><!--MD5=[9cfa872a99fa8e70a8c023fe905238fd]
class Pet--><rect codeLine="21" fill="#90EE90" filter="url(#fe8vmq4i9zw78)" height="149.9996" id="Pet" style="stroke:#A80036;stroke-width:1.5;" width="74" x="41" y="201"/><ellipse cx="64.55" cy="220.4001" fill="#ADD1B2" rx="11" ry="11" style="stroke:#A80036;stroke-width:1.0;"/><path d="M63.9094,224.1814 Q64.7063,224.1814 65.2688,223.9939 Q65.8469,223.7907 66.0813,223.572 Q66.3313,223.3376 66.5656,223.1501 Q66.8156,222.947 67.0344,222.947 Q67.3781,222.947 67.6281,223.2126 Q67.8938,223.4626 67.8938,223.7907 Q67.8938,224.5251 66.7219,225.2126 Q65.5656,225.8845 63.8625,225.8845 Q61.7063,225.8845 60.2844,224.6189 Q58.8625,223.3532 58.8625,221.4157 L58.8625,220.2907 Q58.8625,218.2595 60.1906,216.8845 Q61.5188,215.4939 63.4875,215.4939 Q64.675,215.4939 65.8938,216.072 L66.0656,216.1501 Q66.3625,215.7439 66.7844,215.7439 Q67.2688,215.7439 67.4406,216.0407 Q67.6281,216.322 67.6281,216.8689 L67.6281,218.2907 Q67.6281,219.4157 66.7844,219.4157 Q66.4719,219.4157 66.2688,219.2439 Q66.0813,219.072 66.0344,218.9314 Q66.0031,218.7751 65.9563,218.5095 Q65.8469,217.9939 65.3313,217.6814 Q64.8156,217.3689 64.3625,217.2907 Q63.925,217.197 63.55,217.197 Q62.2688,217.197 61.4094,218.072 Q60.5656,218.947 60.5656,220.2907 L60.5656,221.3845 Q60.5656,222.6657 61.4719,223.4314 Q62.3781,224.1814 63.9094,224.1814 Z " fill="#000000"/><text fill="#000000" font-family="sans-serif" font-size="12" font-style="italic" lengthAdjust="spacing" textLength="27" x="78.45" y="218.0001">«ppt»</text><text fill="#000000" font-family="sans-serif" font-size="12" lengthAdjust="spacing" textLength="17" x="83.45" y="232.4002">Pet</text><line style="stroke:#A80036;stroke-width:1.5;" x1="42" x2="114" y1="239.8002" y2="239.8002"/><ellipse cx="52" cy="250.8002" rx="3" ry="3" style="stroke:#038048;stroke-width:1.0;fill:none;"/><text fill="#000000" font-family="sans-serif" font-size="11" lengthAdjust="spacing" textLength="8" x="61" y="254.8001">id</text><line style="stroke:#A80036;stroke-width:1.0;stroke-dasharray:1.0,2.0;" x1="42" x2="114" y1="261.0001" y2="261.0001"/><polygon fill="none" points="52,267.0001,56,271.0001,52,275.0001,48,271.0001" style="stroke:#B38D22;stroke-width:1.0;"/><text fill="#000000" font-family="sans-serif" font-size="11" lengthAdjust="spacing" textLength="48" x="61" y="276">petOwner</text><polygon fill="none" points="52,280.2,56,284.2,52,288.2,48,284.2" style="stroke:#B38D22;stroke-width:1.0;"/><text fill="#000000" font-family="sans-serif" font-size="11" lengthAdjust="spacing" textLength="27" x="61" y="289.1999">name</text><line style="stroke:#A80036;stroke-width:1.0;stroke-dasharray:1.0,2.0;" x1="42" x2="114" y1="295.3999" y2="295.3999"/><rect fill="none" height="6" style="stroke:#C82930;stroke-width:1.0;" width="6" x="49" y="303.3999"/><text fill="#000000" font-family="sans-serif" font-size="11" lengthAdjust="spacing" textLength="36" x="61" y="310.3998">species</text><rect fill="none" height="6" style="stroke:#C82930;stroke-width:1.0;" width="6" x="49" y="316.5998"/><text fill="#000000" font-family="sans-serif" font-size="11" lengthAdjust="spacing" textLength="26" x="61" y="323.5997">notes</text><line style="stroke:#A80036;stroke-width:1.0;stroke-dasharray:1.0,2.0;" x1="42" x2="114" y1="329.7997" y2="329.7997"/><rect fill="none" height="6" style="stroke:#C82930;stroke-width:1.0;" width="6" x="49" y="337.7997"/><text fill="#000000" font-family="sans-serif" font-size="11" lengthAdjust="spacing" textLength="34" x="61" y="344.7996">version</text><!--MD5=[7cf74b9fc99331c7f7f6dbd0d6c352bd]
reverse link PetSpecies to Pet--><path codeLine="35" d="M78,146.27 C78,163.33 78,182.47 78,200.68 " fill="none" id="PetSpecies-backto-Pet" style="stroke:#A80036;stroke-width:1.0;"/><polygon fill="#A80036" points="78,141.04,74,150.04,78,146.04,82,150.04,78,141.04" style="stroke:#A80036;stroke-width:1.0;"/><text fill="#000000" font-family="sans-serif" font-size="13" lengthAdjust="spacing" textLength="5" x="72.7422" y="190.1702">*</text><!--MD5=[c5613029b3c5a4210295c44b8a6f308b]
@startuml
hide empty members
hide methods

skinparam class {
	BackgroundColor<<desc>> Cyan
	BackgroundColor<<ppt>> LightGreen
	BackgroundColor<<mi>> LightPink
	BackgroundColor<<role>> LightYellow
}


package pets {

    enum PetSpecies <<desc>> {
        Dog
        Cat
        Hamster
        Budgerigar
    }

    class Pet <<ppt>> {
        +id
        ..
        #petOwner
        #name
        ..
        -species
        -notes
        ..
        -version
    }

}

Pet  "*" -u-> PetSpecies
@enduml

PlantUML version 1.2021.16(Wed Dec 08 17:25:22 GMT 2021)
(GPL source distribution)
Java Runtime: OpenJDK Runtime Environment
JVM: OpenJDK 64-Bit Server VM
Default Encoding: UTF-8
Language: en
Country: US
--></g></svg>