<?xml version="1.0" encoding="us-ascii" standalone="no"?><svg xmlns="http://www.w3.org/2000/svg" xmlns:xlink="http://www.w3.org/1999/xlink" contentStyleType="text/css" height="158px" preserveAspectRatio="none" style="width:147px;height:158px;background:#FFFFFF;" version="1.1" viewBox="0 0 147 158" width="147px" zoomAndPan="magnify"><defs/><g><!--class Owner--><g id="elem_Owner"><rect codeLine="4" fill="#F1F1F1" height="137.4844" id="Owner" rx="2.5" ry="2.5" style="stroke:#181818;stroke-width:0.5;" width="126" x="7" y="7"/><ellipse cx="44.05" cy="23" fill="#ADD1B2" rx="11" ry="11" style="stroke:#181818;stroke-width:1.0;"/><path d="M47.0188,28.6406 Q46.4406,28.9375 45.8,29.0781 Q45.1594,29.2344 44.4563,29.2344 Q41.9563,29.2344 40.6281,27.5938 Q39.3156,25.9375 39.3156,22.8125 Q39.3156,19.6875 40.6281,18.0313 Q41.9563,16.375 44.4563,16.375 Q45.1594,16.375 45.8,16.5313 Q46.4563,16.6875 47.0188,16.9844 L47.0188,19.7031 Q46.3938,19.125 45.8,18.8594 Q45.2063,18.5781 44.5813,18.5781 Q43.2375,18.5781 42.55,19.6563 Q41.8625,20.7188 41.8625,22.8125 Q41.8625,24.9063 42.55,25.9844 Q43.2375,27.0469 44.5813,27.0469 Q45.2063,27.0469 45.8,26.7813 Q46.3938,26.5 47.0188,25.9219 L47.0188,28.6406 Z " fill="#000000"/><text fill="#000000" font-family="sans-serif" font-size="14" lengthAdjust="spacing" textLength="45" x="62.95" y="27.8467">Owner</text><line style="stroke:#181818;stroke-width:0.5;" x1="8" x2="132" y1="39" y2="39"/><ellipse cx="18" cy="52.6484" fill="none" rx="3" ry="3" style="stroke:#038048;stroke-width:1.0;"/><text fill="#000000" font-family="sans-serif" font-size="14" lengthAdjust="spacing" textLength="12" x="27" y="55.9951">id</text><line style="stroke:#181818;stroke-width:1.0;stroke-dasharray:1.0,2.0;" x1="8" x2="132" y1="63.2969" y2="63.2969"/><polygon fill="none" points="18,71.9453,22,75.9453,18,79.9453,14,75.9453" style="stroke:#B38D22;stroke-width:1.0;"/><text fill="#000000" font-family="sans-serif" font-size="14" lengthAdjust="spacing" textLength="64" x="27" y="80.292">lastName</text><polygon fill="none" points="18,88.2422,22,92.2422,18,96.2422,14,92.2422" style="stroke:#B38D22;stroke-width:1.0;"/><text fill="#000000" font-family="sans-serif" font-size="14" lengthAdjust="spacing" textLength="65" x="27" y="96.5889">firstName</text><line style="stroke:#181818;stroke-width:1.0;stroke-dasharray:1.0,2.0;" x1="8" x2="132" y1="103.8906" y2="103.8906"/><rect fill="none" height="6" style="stroke:#C82930;stroke-width:1.0;" width="6" x="15" y="114.5391"/><text fill="#000000" font-family="sans-serif" font-size="14" lengthAdjust="spacing" textLength="100" x="27" y="120.8857">phoneNumber</text><rect fill="none" height="6" style="stroke:#C82930;stroke-width:1.0;" width="6" x="15" y="130.8359"/><text fill="#000000" font-family="sans-serif" font-size="14" lengthAdjust="spacing" textLength="93" x="27" y="137.1826">emailAddress</text></g><!--SRC=[JOrB2e1034FtFKN1fUWTl82UORIH6R0gqn4HyUv-5sOJNdWG7mGCdTF62cqHZVmzAPAVn8YwmPbniuw8l1DVoOCyNPPFPPUGQgTugG_nXvzJp7uQKI_tmJj0NHWgaGWpEau0]--></g></svg>