<?xml version="1.0" encoding="UTF-8" standalone="no"?><svg xmlns="http://www.w3.org/2000/svg" xmlns:xlink="http://www.w3.org/1999/xlink" contentStyleType="text/css" height="414px" preserveAspectRatio="none" style="width:145px;height:414px;background:#FFFFFF;" version="1.1" viewBox="0 0 145 414" width="145px" zoomAndPan="magnify"><defs/><g><!--MD5=[bf52ada63cd2e6cd3f37b8d0408107a6]
cluster pets--><g id="cluster_pets"><path d="M8.5,6 L39.5,6 A3.75,3.75 0 0 1 42,8.5 L49,28.7999 L135.5,28.7999 A2.5,2.5 0 0 1 138,31.2999 L138,404.5 A2.5,2.5 0 0 1 135.5,407 L8.5,407 A2.5,2.5 0 0 1 6,404.5 L6,8.5 A2.5,2.5 0 0 1 8.5,6 " style="stroke:#000000;stroke-width:1.5;fill:none;"/><line style="stroke:#000000;stroke-width:1.5;fill:none;" x1="6" x2="49" y1="28.7999" y2="28.7999"/><text fill="#000000" font-family="sans-serif" font-size="14" font-weight="bold" lengthAdjust="spacing" textLength="30" x="10" y="21.9999">pets</text></g><!--MD5=[090b45072795caa641b719bb9659a4d2]
class PetSpecies--><g id="elem_PetSpecies"><rect codeLine="14" fill="#00FFFF" height="116.3997" id="PetSpecies" rx="2.5" ry="2.5" style="stroke:#181818;stroke-width:0.5;" width="100" x="22" y="41"/><ellipse cx="37" cy="61.6" fill="#EB937F" rx="11" ry="11" style="stroke:#181818;stroke-width:1.0;"/><path d="M39.1563,64.0219 Q39.1563,62.8813 40,62.8813 Q40.8438,62.8813 40.8438,64.0219 L40.8438,66.6 L32.8438,66.6 Q31.7188,66.6 31.7188,65.7563 Q31.7188,64.8969 32.8438,64.8969 L33.0938,64.8969 L33.0938,58.3813 L32.8438,58.3813 Q31.7188,58.3813 31.7188,57.5375 Q31.7188,57.0531 32,56.8813 Q32.2969,56.6938 32.8438,56.6938 L40.4688,56.6938 L40.4688,59.2406 Q40.4688,60.3813 39.625,60.3813 Q38.7813,60.3813 38.7813,59.2406 L38.7813,58.3813 L34.7969,58.3813 L34.7969,60.7875 L36.25,60.7875 L36.25,60.6625 Q36.25,59.5219 37.0781,59.5219 Q37.9219,59.5219 37.9219,60.6625 L37.9219,62.5844 Q37.9219,63.7094 37.0938,63.7094 Q36.25,63.7094 36.25,62.5844 L36.25,62.475 L34.7969,62.475 L34.7969,64.8969 L39.1563,64.8969 L39.1563,64.0219 Z " fill="#000000"/><text fill="#000000" font-family="sans-serif" font-size="12" font-style="italic" lengthAdjust="spacing" textLength="36" x="67" y="58.0001">«desc»</text><text fill="#000000" font-family="sans-serif" font-size="14" lengthAdjust="spacing" textLength="68" x="51" y="74.4">PetSpecies</text><line style="stroke:#181818;stroke-width:0.5;" x1="23" x2="121" y1="82.2" y2="82.2"/><text fill="#000000" font-family="sans-serif" font-size="14" lengthAdjust="spacing" textLength="25" x="28" y="100.2">Dog</text><text fill="#000000" font-family="sans-serif" font-size="14" lengthAdjust="spacing" textLength="22" x="28" y="116.9999">Cat</text><text fill="#000000" font-family="sans-serif" font-size="14" lengthAdjust="spacing" textLength="52" x="28" y="133.7998">Hamster</text><text fill="#000000" font-family="sans-serif" font-size="14" lengthAdjust="spacing" textLength="69" x="28" y="150.5997">Budgerigar</text></g><!--MD5=[9cfa872a99fa8e70a8c023fe905238fd]
class Pet--><g id="elem_Pet"><rect codeLine="21" fill="#90EE90" height="173.9996" id="Pet" rx="2.5" ry="2.5" style="stroke:#181818;stroke-width:0.5;" width="86" x="29" y="217"/><ellipse cx="57.95" cy="237.6" fill="#ADD1B2" rx="11" ry="11" style="stroke:#181818;stroke-width:1.0;"/><path d="M57.3094,241.3813 Q58.1063,241.3813 58.6688,241.1938 Q59.2469,240.9906 59.4813,240.7719 Q59.7313,240.5375 59.9656,240.35 Q60.2156,240.1469 60.4344,240.1469 Q60.7781,240.1469 61.0281,240.4125 Q61.2938,240.6625 61.2938,240.9906 Q61.2938,241.725 60.1219,242.4125 Q58.9656,243.0844 57.2625,243.0844 Q55.1063,243.0844 53.6844,241.8188 Q52.2625,240.5531 52.2625,238.6156 L52.2625,237.4906 Q52.2625,235.4594 53.5906,234.0844 Q54.9188,232.6938 56.8875,232.6938 Q58.075,232.6938 59.2938,233.2719 L59.4656,233.35 Q59.7625,232.9438 60.1844,232.9438 Q60.6688,232.9438 60.8406,233.2406 Q61.0281,233.5219 61.0281,234.0688 L61.0281,235.4906 Q61.0281,236.6156 60.1844,236.6156 Q59.8719,236.6156 59.6688,236.4438 Q59.4813,236.2719 59.4344,236.1313 Q59.4031,235.975 59.3563,235.7094 Q59.2469,235.1938 58.7313,234.8813 Q58.2156,234.5688 57.7625,234.4906 Q57.325,234.3969 56.95,234.3969 Q55.6688,234.3969 54.8094,235.2719 Q53.9656,236.1469 53.9656,237.4906 L53.9656,238.5844 Q53.9656,239.8656 54.8719,240.6313 Q55.7781,241.3813 57.3094,241.3813 Z " fill="#000000"/><text fill="#000000" font-family="sans-serif" font-size="12" font-style="italic" lengthAdjust="spacing" textLength="27" x="73.05" y="234.0001">«ppt»</text><text fill="#000000" font-family="sans-serif" font-size="14" lengthAdjust="spacing" textLength="20" x="76.55" y="250.4">Pet</text><line style="stroke:#181818;stroke-width:0.5;" x1="30" x2="114" y1="258.2" y2="258.2"/><ellipse cx="40" cy="269.2" fill="none" rx="3" ry="3" style="stroke:#038048;stroke-width:1.0;"/><text fill="#000000" font-family="sans-serif" font-size="14" lengthAdjust="spacing" textLength="11" x="49" y="276.2">id</text><line style="stroke:#181818;stroke-width:1.0;stroke-dasharray:1.0,2.0;" x1="30" x2="114" y1="283" y2="283"/><polygon fill="none" points="40,289,44,293,40,297,36,293" style="stroke:#B38D22;stroke-width:1.0;"/><text fill="#000000" font-family="sans-serif" font-size="14" lengthAdjust="spacing" textLength="60" x="49" y="300.9999">petOwner</text><polygon fill="none" points="40,305.7999,44,309.7999,40,313.7999,36,309.7999" style="stroke:#B38D22;stroke-width:1.0;"/><text fill="#000000" font-family="sans-serif" font-size="14" lengthAdjust="spacing" textLength="34" x="49" y="317.7998">name</text><line style="stroke:#181818;stroke-width:1.0;stroke-dasharray:1.0,2.0;" x1="30" x2="114" y1="324.5998" y2="324.5998"/><rect fill="none" height="6" style="stroke:#C82930;stroke-width:1.0;" width="6" x="37" y="332.5998"/><text fill="#000000" font-family="sans-serif" font-size="14" lengthAdjust="spacing" textLength="46" x="49" y="342.5997">species</text><rect fill="none" height="6" style="stroke:#C82930;stroke-width:1.0;" width="6" x="37" y="349.3997"/><text fill="#000000" font-family="sans-serif" font-size="14" lengthAdjust="spacing" textLength="33" x="49" y="359.3997">notes</text><line style="stroke:#181818;stroke-width:1.0;stroke-dasharray:1.0,2.0;" x1="30" x2="114" y1="366.1997" y2="366.1997"/><rect fill="none" height="6" style="stroke:#C82930;stroke-width:1.0;" width="6" x="37" y="374.1997"/><text fill="#000000" font-family="sans-serif" font-size="14" lengthAdjust="spacing" textLength="44" x="49" y="384.1996">version</text></g><!--MD5=[7cf74b9fc99331c7f7f6dbd0d6c352bd]
reverse link PetSpecies to Pet--><g id="link_PetSpecies_Pet"><path codeLine="35" d="M72,162.36 C72,179.54 72,198.49 72,216.77 " fill="none" id="PetSpecies-backto-Pet" style="stroke:#181818;stroke-width:1.0;"/><polygon fill="#181818" points="72,157.09,68,166.09,72,162.09,76,166.09,72,157.09" style="stroke:#181818;stroke-width:1.0;"/><text fill="#000000" font-family="sans-serif" font-size="13" lengthAdjust="spacing" textLength="5" x="66.7773" y="206.3599">*</text></g><!--MD5=[6131e0431e14f3c9d751c83e9c6b244d]
@startuml
hide empty members
hide methods

skinparam class {
	BackgroundColor<<desc>> Cyan
	BackgroundColor<<ppt>> LightGreen
	BackgroundColor<<mi>> LightPink
	BackgroundColor<<role>> LightYellow
}


package pets {

    enum PetSpecies <<desc>> {
        Dog
        Cat
        Hamster
        Budgerigar
    }

    class Pet <<ppt>> {
        +id
        ..
        #petOwner
        #name
        ..
        -species
        -notes
        ..
        -version
    }

}

Pet  "*" -u-> PetSpecies
@enduml

PlantUML version 1.2022.5(Sat Apr 30 10:55:52 GMT 2022)
(GPL source distribution)
Java Runtime: OpenJDK Runtime Environment
JVM: OpenJDK 64-Bit Server VM
Default Encoding: UTF-8
Language: en
Country: US
--></g></svg>