<?xml version="1.0" encoding="UTF-8" standalone="no"?><svg xmlns="http://www.w3.org/2000/svg" xmlns:xlink="http://www.w3.org/1999/xlink" contentScriptType="application/ecmascript" contentStyleType="text/css" height="142px" preserveAspectRatio="none" style="width:116px;height:142px;background:#FFFFFF;" version="1.1" viewBox="0 0 116 142" width="116px" zoomAndPan="magnify"><defs><filter height="300%" id="fnlf6wp7h1wse" width="300%" x="-1" y="-1"><feGaussianBlur result="blurOut" stdDeviation="2.0"/><feColorMatrix in="blurOut" result="blurOut2" type="matrix" values="0 0 0 0 0 0 0 0 0 0 0 0 0 0 0 0 0 0 .4 0"/><feOffset dx="4.0" dy="4.0" in="blurOut2" result="blurOut3"/><feBlend in="SourceGraphic" in2="blurOut3" mode="normal"/></filter></defs><g><!--MD5=[08d6a551530ab71b272f9c2c40bfb385]
class Owner--><rect codeLine="4" fill="#FEFECE" filter="url(#fnlf6wp7h1wse)" height="121.9995" id="Owner" style="stroke:#A80036;stroke-width:1.5;" width="95" x="7" y="7"/><ellipse cx="35.05" cy="23" fill="#ADD1B2" rx="11" ry="11" style="stroke:#A80036;stroke-width:1.0;"/><path d="M34.4094,26.7813 Q35.2063,26.7813 35.7688,26.5938 Q36.3469,26.3906 36.5813,26.1719 Q36.8313,25.9375 37.0656,25.75 Q37.3156,25.5469 37.5344,25.5469 Q37.8781,25.5469 38.1281,25.8125 Q38.3938,26.0625 38.3938,26.3906 Q38.3938,27.125 37.2219,27.8125 Q36.0656,28.4844 34.3625,28.4844 Q32.2063,28.4844 30.7844,27.2188 Q29.3625,25.9531 29.3625,24.0156 L29.3625,22.8906 Q29.3625,20.8594 30.6906,19.4844 Q32.0188,18.0938 33.9875,18.0938 Q35.175,18.0938 36.3938,18.6719 L36.5656,18.75 Q36.8625,18.3438 37.2844,18.3438 Q37.7688,18.3438 37.9406,18.6406 Q38.1281,18.9219 38.1281,19.4688 L38.1281,20.8906 Q38.1281,22.0156 37.2844,22.0156 Q36.9719,22.0156 36.7688,21.8438 Q36.5813,21.6719 36.5344,21.5313 Q36.5031,21.375 36.4563,21.1094 Q36.3469,20.5938 35.8313,20.2813 Q35.3156,19.9688 34.8625,19.8906 Q34.425,19.7969 34.05,19.7969 Q32.7688,19.7969 31.9094,20.6719 Q31.0656,21.5469 31.0656,22.8906 L31.0656,23.9844 Q31.0656,25.2656 31.9719,26.0313 Q32.8781,26.7813 34.4094,26.7813 Z " fill="#000000"/><text fill="#000000" font-family="sans-serif" font-size="12" lengthAdjust="spacing" textLength="34" x="51.95" y="27.8">Owner</text><line style="stroke:#A80036;stroke-width:1.5;" x1="8" x2="101" y1="39" y2="39"/><ellipse cx="18" cy="50" rx="3" ry="3" style="stroke:#038048;stroke-width:1.0;fill:none;"/><text fill="#000000" font-family="sans-serif" font-size="11" lengthAdjust="spacing" textLength="8" x="27" y="53.9999">id</text><line style="stroke:#A80036;stroke-width:1.0;stroke-dasharray:1.0,2.0;" x1="8" x2="101" y1="60.1999" y2="60.1999"/><polygon fill="none" points="18,66.1999,22,70.1999,18,74.1999,14,70.1999" style="stroke:#B38D22;stroke-width:1.0;"/><text fill="#000000" font-family="sans-serif" font-size="11" lengthAdjust="spacing" textLength="45" x="27" y="75.1998">lastName</text><polygon fill="none" points="18,79.3998,22,83.3998,18,87.3998,14,83.3998" style="stroke:#B38D22;stroke-width:1.0;"/><text fill="#000000" font-family="sans-serif" font-size="11" lengthAdjust="spacing" textLength="46" x="27" y="88.3997">firstName</text><line style="stroke:#A80036;stroke-width:1.0;stroke-dasharray:1.0,2.0;" x1="8" x2="101" y1="94.5997" y2="94.5997"/><rect fill="none" height="6" style="stroke:#C82930;stroke-width:1.0;" width="6" x="15" y="102.5997"/><text fill="#000000" font-family="sans-serif" font-size="11" lengthAdjust="spacing" textLength="69" x="27" y="109.5996">phoneNumber</text><rect fill="none" height="6" style="stroke:#C82930;stroke-width:1.0;" width="6" x="15" y="115.7996"/><text fill="#000000" font-family="sans-serif" font-size="11" lengthAdjust="spacing" textLength="64" x="27" y="122.7995">emailAddress</text><!--MD5=[c6eb1077a40b9098fb90dd2a5561b61b]
@startuml
hide empty members
hide methods

class Owner {
    +id
    ..
    #lastName
    #firstName
    ..
    -phoneNumber
    -emailAddress
}
@enduml

PlantUML version 1.2021.16(Wed Dec 08 17:25:22 GMT 2021)
(GPL source distribution)
Java Runtime: OpenJDK Runtime Environment
JVM: OpenJDK 64-Bit Server VM
Default Encoding: UTF-8
Language: en
Country: US
--></g></svg>