<?xml version="1.0" encoding="us-ascii" standalone="no"?><svg xmlns="http://www.w3.org/2000/svg" xmlns:xlink="http://www.w3.org/1999/xlink" contentStyleType="text/css" height="448px" preserveAspectRatio="none" style="width:564px;height:448px;background:#FFFFFF;" version="1.1" viewBox="0 0 564 448" width="564px" zoomAndPan="magnify"><defs/><g><!--cluster petowner--><g id="cluster_petowner"><path d="M8.5,6 L86.5,6 A3.75,3.75 0 0 1 89,8.5 L96,28.2969 L322.5,28.2969 A2.5,2.5 0 0 1 325,30.7969 L325,438.59 A2.5,2.5 0 0 1 322.5,441.09 L8.5,441.09 A2.5,2.5 0 0 1 6,438.59 L6,8.5 A2.5,2.5 0 0 1 8.5,6 " fill="none" style="stroke:#000000;stroke-width:1.5;"/><line style="stroke:#000000;stroke-width:1.5;" x1="6" x2="96" y1="28.2969" y2="28.2969"/><text fill="#000000" font-family="sans-serif" font-size="14" font-weight="bold" lengthAdjust="spacing" textLength="77" x="10" y="20.9951">petowner</text></g><!--cluster visit--><g id="cluster_visit"><path d="M351.5,232.19 L384.5,232.19 A3.75,3.75 0 0 1 387,234.69 L394,254.4869 L554.5,254.4869 A2.5,2.5 0 0 1 557,256.9869 L557,385.85 A2.5,2.5 0 0 1 554.5,388.35 L351.5,388.35 A2.5,2.5 0 0 1 349,385.85 L349,234.69 A2.5,2.5 0 0 1 351.5,232.19 " fill="none" style="stroke:#000000;stroke-width:1.5;"/><line style="stroke:#000000;stroke-width:1.5;" x1="349" x2="394" y1="254.4869" y2="254.4869"/><text fill="#000000" font-family="sans-serif" font-size="14" font-weight="bold" lengthAdjust="spacing" textLength="32" x="353" y="247.1851">visit</text></g><!--class PetSpecies--><g id="elem_PetSpecies"><rect codeLine="14" fill="#00FFFF" height="113.4531" id="PetSpecies" rx="2.5" ry="2.5" style="stroke:#181818;stroke-width:0.5;" width="110" x="199" y="41"/><ellipse cx="214" cy="61.1328" fill="#EB937F" rx="11" ry="11" style="stroke:#181818;stroke-width:1.0;"/><path d="M218.1094,67.1328 L210.3906,67.1328 L210.3906,54.7422 L218.1094,54.7422 L218.1094,56.8984 L212.8438,56.8984 L212.8438,59.5703 L217.6094,59.5703 L217.6094,61.7266 L212.8438,61.7266 L212.8438,64.9766 L218.1094,64.9766 L218.1094,67.1328 Z " fill="#000000"/><text fill="#000000" font-family="sans-serif" font-size="12" font-style="italic" lengthAdjust="spacing" textLength="44" x="245" y="57.1387">&#171;desc&#187;</text><text fill="#000000" font-family="sans-serif" font-size="14" lengthAdjust="spacing" textLength="78" x="228" y="72.9639">PetSpecies</text><line style="stroke:#181818;stroke-width:0.5;" x1="200" x2="308" y1="81.2656" y2="81.2656"/><text fill="#000000" font-family="sans-serif" font-size="14" lengthAdjust="spacing" textLength="29" x="205" y="98.2607">Dog</text><text fill="#000000" font-family="sans-serif" font-size="14" lengthAdjust="spacing" textLength="23" x="205" y="114.5576">Cat</text><text fill="#000000" font-family="sans-serif" font-size="14" lengthAdjust="spacing" textLength="58" x="205" y="130.8545">Hamster</text><text fill="#000000" font-family="sans-serif" font-size="14" lengthAdjust="spacing" textLength="76" x="205" y="147.1514">Budgerigar</text></g><!--class Pet--><g id="elem_Pet"><rect codeLine="21" fill="#90EE90" height="170.0469" id="Pet" rx="2.5" ry="2.5" style="stroke:#181818;stroke-width:0.5;" width="94" x="215" y="234.75"/><ellipse cx="243.95" cy="254.8828" fill="#ADD1B2" rx="11" ry="11" style="stroke:#181818;stroke-width:1.0;"/><path d="M246.9188,260.5234 Q246.3406,260.8203 245.7,260.9609 Q245.0594,261.1172 244.3563,261.1172 Q241.8563,261.1172 240.5281,259.4766 Q239.2156,257.8203 239.2156,254.6953 Q239.2156,251.5703 240.5281,249.9141 Q241.8563,248.2578 244.3563,248.2578 Q245.0594,248.2578 245.7,248.4141 Q246.3563,248.5703 246.9188,248.8672 L246.9188,251.5859 Q246.2938,251.0078 245.7,250.7422 Q245.1063,250.4609 244.4813,250.4609 Q243.1375,250.4609 242.45,251.5391 Q241.7625,252.6016 241.7625,254.6953 Q241.7625,256.7891 242.45,257.8672 Q243.1375,258.9297 244.4813,258.9297 Q245.1063,258.9297 245.7,258.6641 Q246.2938,258.3828 246.9188,257.8047 L246.9188,260.5234 Z " fill="#000000"/><text fill="#000000" font-family="sans-serif" font-size="12" font-style="italic" lengthAdjust="spacing" textLength="35" x="259.05" y="250.8887">&#171;ppt&#187;</text><text fill="#000000" font-family="sans-serif" font-size="14" lengthAdjust="spacing" textLength="23" x="265.05" y="266.7139">Pet</text><line style="stroke:#181818;stroke-width:0.5;" x1="216" x2="308" y1="275.0156" y2="275.0156"/><ellipse cx="226" cy="288.6641" fill="none" rx="3" ry="3" style="stroke:#038048;stroke-width:1.0;"/><text fill="#000000" font-family="sans-serif" font-size="14" lengthAdjust="spacing" textLength="12" x="235" y="292.0107">id</text><line style="stroke:#181818;stroke-width:1.0;stroke-dasharray:1.0,2.0;" x1="216" x2="308" y1="299.3125" y2="299.3125"/><polygon fill="none" points="226,307.9609,230,311.9609,226,315.9609,222,311.9609" style="stroke:#B38D22;stroke-width:1.0;"/><text fill="#000000" font-family="sans-serif" font-size="14" lengthAdjust="spacing" textLength="68" x="235" y="316.3076">petOwner</text><polygon fill="none" points="226,324.2578,230,328.2578,226,332.2578,222,328.2578" style="stroke:#B38D22;stroke-width:1.0;"/><text fill="#000000" font-family="sans-serif" font-size="14" lengthAdjust="spacing" textLength="39" x="235" y="332.6045">name</text><line style="stroke:#181818;stroke-width:1.0;stroke-dasharray:1.0,2.0;" x1="216" x2="308" y1="339.9063" y2="339.9063"/><rect fill="none" height="6" style="stroke:#C82930;stroke-width:1.0;" width="6" x="223" y="350.5547"/><text fill="#000000" font-family="sans-serif" font-size="14" lengthAdjust="spacing" textLength="54" x="235" y="356.9014">species</text><rect fill="none" height="6" style="stroke:#C82930;stroke-width:1.0;" width="6" x="223" y="366.8516"/><text fill="#000000" font-family="sans-serif" font-size="14" lengthAdjust="spacing" textLength="40" x="235" y="373.1982">notes</text><line style="stroke:#181818;stroke-width:1.0;stroke-dasharray:1.0,2.0;" x1="216" x2="308" y1="380.5" y2="380.5"/><rect fill="none" height="6" style="stroke:#C82930;stroke-width:1.0;" width="6" x="223" y="391.1484"/><text fill="#000000" font-family="sans-serif" font-size="14" lengthAdjust="spacing" textLength="50" x="235" y="397.4951">version</text></g><!--class PetOwner--><g id="elem_PetOwner"><rect codeLine="34" fill="#FFFFE0" height="210.6406" id="PetOwner" rx="2.5" ry="2.5" style="stroke:#181818;stroke-width:0.5;" width="157" x="22.5" y="214.45"/><ellipse cx="63.15" cy="234.5828" fill="#ADD1B2" rx="11" ry="11" style="stroke:#181818;stroke-width:1.0;"/><path d="M66.1188,240.2234 Q65.5406,240.5203 64.9,240.6609 Q64.2594,240.8172 63.5563,240.8172 Q61.0563,240.8172 59.7281,239.1766 Q58.4156,237.5203 58.4156,234.3953 Q58.4156,231.2703 59.7281,229.6141 Q61.0563,227.9578 63.5563,227.9578 Q64.2594,227.9578 64.9,228.1141 Q65.5563,228.2703 66.1188,228.5672 L66.1188,231.2859 Q65.4938,230.7078 64.9,230.4422 Q64.3063,230.1609 63.6813,230.1609 Q62.3375,230.1609 61.65,231.2391 Q60.9625,232.3016 60.9625,234.3953 Q60.9625,236.4891 61.65,237.5672 Q62.3375,238.6297 63.6813,238.6297 Q64.3063,238.6297 64.9,238.3641 Q65.4938,238.0828 66.1188,237.5047 L66.1188,240.2234 Z " fill="#000000"/><text fill="#000000" font-family="sans-serif" font-size="12" font-style="italic" lengthAdjust="spacing" textLength="38" x="97.85" y="230.5887">&#171;role&#187;</text><text fill="#000000" font-family="sans-serif" font-size="14" lengthAdjust="spacing" textLength="68" x="82.85" y="246.4139">PetOwner</text><line style="stroke:#181818;stroke-width:0.5;" x1="23.5" x2="178.5" y1="254.7156" y2="254.7156"/><ellipse cx="33.5" cy="268.3641" fill="none" rx="3" ry="3" style="stroke:#038048;stroke-width:1.0;"/><text fill="#000000" font-family="sans-serif" font-size="14" lengthAdjust="spacing" textLength="12" x="42.5" y="271.7107">id</text><line style="stroke:#181818;stroke-width:1.0;stroke-dasharray:1.0,2.0;" x1="23.5" x2="178.5" y1="279.0125" y2="279.0125"/><polygon fill="none" points="33.5,287.6609,37.5,291.6609,33.5,295.6609,29.5,291.6609" style="stroke:#B38D22;stroke-width:1.0;"/><text fill="#000000" font-family="sans-serif" font-size="14" lengthAdjust="spacing" textLength="39" x="42.5" y="296.0076">name</text><polygon fill="none" points="33.5,303.9578,37.5,307.9578,33.5,311.9578,29.5,307.9578" style="stroke:#B38D22;stroke-width:1.0;"/><text fill="#000000" font-family="sans-serif" font-size="14" lengthAdjust="spacing" textLength="63" x="42.5" y="312.3045">knownAs</text><line style="stroke:#181818;stroke-width:1.0;stroke-dasharray:1.0,2.0;" x1="23.5" x2="178.5" y1="319.6063" y2="319.6063"/><rect fill="none" height="6" style="stroke:#C82930;stroke-width:1.0;" width="6" x="30.5" y="330.2547"/><text fill="#000000" font-family="sans-serif" font-size="14" lengthAdjust="spacing" textLength="100" x="42.5" y="336.6014">phoneNumber</text><rect fill="none" height="6" style="stroke:#C82930;stroke-width:1.0;" width="6" x="30.5" y="346.5516"/><text fill="#000000" font-family="sans-serif" font-size="14" lengthAdjust="spacing" textLength="93" x="42.5" y="352.8982">emailAddress</text><line style="stroke:#181818;stroke-width:1.0;stroke-dasharray:1.0,2.0;" x1="23.5" x2="178.5" y1="360.2" y2="360.2"/><rect fill="none" height="6" style="stroke:#C82930;stroke-width:1.0;" width="6" x="30.5" y="370.8484"/><text fill="#000000" font-family="sans-serif" font-size="14" lengthAdjust="spacing" textLength="52" x="42.5" y="377.1951">lastVisit</text><rect fill="none" height="6" style="stroke:#C82930;stroke-width:1.0;" width="6" x="30.5" y="387.1453"/><text fill="#000000" font-family="sans-serif" font-size="14" lengthAdjust="spacing" textLength="131" x="42.5" y="393.492">/daysSinceLastVisit</text><line style="stroke:#181818;stroke-width:1.0;stroke-dasharray:1.0,2.0;" x1="23.5" x2="178.5" y1="400.7938" y2="400.7938"/><rect fill="none" height="6" style="stroke:#C82930;stroke-width:1.0;" width="6" x="30.5" y="411.4422"/><text fill="#000000" font-family="sans-serif" font-size="14" lengthAdjust="spacing" textLength="40" x="42.5" y="417.7889">notes</text></g><!--class Visit--><g id="elem_Visit"><rect codeLine="53" fill="#FFB6C1" height="105.1563" id="Visit" rx="2.5" ry="2.5" style="stroke:#181818;stroke-width:0.5;" width="177" x="364.5" y="267.19"/><ellipse cx="434.75" cy="287.3228" fill="#ADD1B2" rx="11" ry="11" style="stroke:#181818;stroke-width:1.0;"/><path d="M437.7188,292.9634 Q437.1406,293.2603 436.5,293.4009 Q435.8594,293.5572 435.1563,293.5572 Q432.6563,293.5572 431.3281,291.9166 Q430.0156,290.2603 430.0156,287.1353 Q430.0156,284.0103 431.3281,282.3541 Q432.6563,280.6978 435.1563,280.6978 Q435.8594,280.6978 436.5,280.8541 Q437.1563,281.0103 437.7188,281.3072 L437.7188,284.0259 Q437.0938,283.4478 436.5,283.1822 Q435.9063,282.9009 435.2813,282.9009 Q433.9375,282.9009 433.25,283.9791 Q432.5625,285.0416 432.5625,287.1353 Q432.5625,289.2291 433.25,290.3072 Q433.9375,291.3697 435.2813,291.3697 Q435.9063,291.3697 436.5,291.1041 Q437.0938,290.8228 437.7188,290.2447 L437.7188,292.9634 Z " fill="#000000"/><text fill="#000000" font-family="sans-serif" font-size="12" font-style="italic" lengthAdjust="spacing" textLength="28" x="455.25" y="283.3287">&#171;mi&#187;</text><text fill="#000000" font-family="sans-serif" font-size="14" lengthAdjust="spacing" textLength="28" x="455.25" y="299.1539">Visit</text><line style="stroke:#181818;stroke-width:0.5;" x1="365.5" x2="540.5" y1="307.4556" y2="307.4556"/><ellipse cx="375.5" cy="321.1041" fill="none" rx="3" ry="3" style="stroke:#038048;stroke-width:1.0;"/><text fill="#000000" font-family="sans-serif" font-size="14" lengthAdjust="spacing" textLength="12" x="384.5" y="324.4507">id</text><line style="stroke:#181818;stroke-width:1.0;stroke-dasharray:1.0,2.0;" x1="365.5" x2="540.5" y1="331.7525" y2="331.7525"/><polygon fill="none" points="375.5,340.4009,379.5,344.4009,375.5,348.4009,371.5,344.4009" style="stroke:#B38D22;stroke-width:1.0;"/><text fill="#000000" font-family="sans-serif" font-size="14" lengthAdjust="spacing" textLength="23" x="384.5" y="348.7476">pet</text><polygon fill="none" points="375.5,356.6978,379.5,360.6978,375.5,364.6978,371.5,360.6978" style="stroke:#B38D22;stroke-width:1.0;"/><text fill="#000000" font-family="sans-serif" font-size="14" lengthAdjust="spacing" textLength="151" x="384.5" y="365.0445">visitAt: LocalDateTime</text></g><!--link PetOwner to Pet--><g id="link_PetOwner_Pet"><path codeLine="62" d="M191.93,319.77 C203.47,319.77 197.01,319.77 208.55,319.77 " fill="none" id="PetOwner-Pet" style="stroke:#181818;stroke-width:1.0;"/><polygon fill="#181818" points="179.93,319.77,185.93,323.77,191.93,319.77,185.93,315.77,179.93,319.77" style="stroke:#181818;stroke-width:1.0;"/><polygon fill="#181818" points="214.55,319.77,205.55,315.77,209.55,319.77,205.55,323.77,214.55,319.77" style="stroke:#181818;stroke-width:1.0;"/><text fill="#000000" font-family="sans-serif" font-size="13" lengthAdjust="spacing" textLength="23" x="187.393" y="315.5826">0..*</text></g><!--link Visit to Pet--><g id="link_Visit_Pet"><path codeLine="63" d="M364.08,319.77 C345.84,319.77 333.61,319.77 315.38,319.77 " fill="none" id="Visit-to-Pet" style="stroke:#181818;stroke-width:1.0;"/><polygon fill="#181818" points="309.38,319.77,318.38,323.77,314.38,319.77,318.38,315.77,309.38,319.77" style="stroke:#181818;stroke-width:1.0;"/><text fill="#000000" font-family="sans-serif" font-size="13" lengthAdjust="spacing" textLength="12" x="344.5161" y="300.6523">&#160;&#160;&#160;</text><text fill="#000000" font-family="sans-serif" font-size="13" lengthAdjust="spacing" textLength="7" x="347.0161" y="315.7851">*</text></g><!--reverse link PetSpecies to Pet--><g id="link_PetSpecies_Pet"><path codeLine="64" d="M256.2581,160.816 C257.1381,185.006 257.97,207.83 258.94,234.5 " fill="none" id="PetSpecies-backto-Pet" style="stroke:#181818;stroke-width:1.0;"/><polygon fill="#181818" points="256.04,154.82,252.3698,163.9595,256.2218,159.8167,260.3645,163.6686,256.04,154.82" style="stroke:#181818;stroke-width:1.0;"/><text fill="#000000" font-family="sans-serif" font-size="13" lengthAdjust="spacing" textLength="7" x="251.3762" y="223.5999">*</text></g><!--SRC=[ZLBBQiCm43nNNx4ujnIxFPSGo0FQGsW3AOL2BwgrsCBM0qbE227_NicEvOGQMfrMiwFTqUoMd26WqEu80iKt6alA00bqfMAM45jngQcX0lAQMWidShUaULKOrKYsKhKoinb3cy_di3fIEPBLsldaXXUbUpQ8OnJ1UyQMosg4O5IDFUKJwreTo9aGeZsF5WWQdJf8D5uT0NzGDWAsw7OQSuuMeiHJcmvdhOeOhwYByGiLrg69zsN32ZIye1rqxXfqNlWEqFzlg7pFMOopB8OJB_8jY1mGIGMEKLFRwHu0gTpLzPgwzoFZIlRYRjMr_I3QzxV66qMJIdfN5-DzTQaalZPXPGOG1UNrWZ63TloL5-O-kEM3t-a3eqUxupB7pQ_azTF1WlFDxFVXHJ_uxkTj4RYirRy6CrpQSWlt11kLqtfD7RxpYoTTtsZhD3LfEeVaCSkcIN2RT7qJJ_sI7lBvERI9i2YG1AZnqB2OFm00]--></g></svg>