<svg xmlns="http://www.w3.org/2000/svg" xmlns:xlink="http://www.w3.org/1999/xlink" contentStyleType="text/css" data-diagram-type="CLASS" height="448px" preserveAspectRatio="none" style="width:576px;height:448px;background:#FFFFFF;" version="1.1" viewBox="0 0 576 448" width="576px" zoomAndPan="magnify"><defs/><g><!--cluster petowner--><g class="cluster" data-entity="petowner" data-source-line="12" data-uid="ent0002" id="cluster_petowner"><path d="M8.5,6 L84.627,6 A3.75,3.75 0 0 1 87.127,8.5 L94.127,28.2969 L326.5,28.2969 A2.5,2.5 0 0 1 329,30.7969 L329,438.59 A2.5,2.5 0 0 1 326.5,441.09 L8.5,441.09 A2.5,2.5 0 0 1 6,438.59 L6,8.5 A2.5,2.5 0 0 1 8.5,6" fill="none" style="stroke:#000000;stroke-width:1.5;"/><line style="stroke:#000000;stroke-width:1.5;" x1="6" x2="94.127" y1="28.2969" y2="28.2969"/><text fill="#000000" font-family="sans-serif" font-size="14" font-weight="bold" lengthAdjust="spacing" textLength="75.127" x="10" y="20.9951">petowner</text></g><!--cluster visit--><g class="cluster" data-entity="visit" data-source-line="51" data-uid="ent0006" id="cluster_visit"><path d="M355.5,232.19 L390.249,232.19 A3.75,3.75 0 0 1 392.749,234.69 L399.749,254.4869 L566.5,254.4869 A2.5,2.5 0 0 1 569,256.9869 L569,385.85 A2.5,2.5 0 0 1 566.5,388.35 L355.5,388.35 A2.5,2.5 0 0 1 353,385.85 L353,234.69 A2.5,2.5 0 0 1 355.5,232.19" fill="none" style="stroke:#000000;stroke-width:1.5;"/><line style="stroke:#000000;stroke-width:1.5;" x1="353" x2="399.749" y1="254.4869" y2="254.4869"/><text fill="#000000" font-family="sans-serif" font-size="14" font-weight="bold" lengthAdjust="spacing" textLength="33.749" x="357" y="247.1851">visit</text></g><!--class PetSpecies--><g class="entity" data-entity="PetSpecies" data-source-line="14" data-uid="ent0003" id="entity_PetSpecies"><rect fill="#00FFFF" height="113.4531" rx="2.5" ry="2.5" style="stroke:#181818;stroke-width:0.5;" width="108.4258" x="204.79" y="41"/><ellipse cx="219.79" cy="61.1328" fill="#EB937F" rx="11" ry="11" style="stroke:#181818;stroke-width:1;"/><path d="M223.8994,67.1328 L216.1806,67.1328 L216.1806,54.7422 L223.8994,54.7422 L223.8994,56.8984 L218.6338,56.8984 L218.6338,59.5703 L223.3994,59.5703 L223.3994,61.7266 L218.6338,61.7266 L218.6338,64.9766 L223.8994,64.9766 L223.8994,67.1328 Z " fill="#000000"/><text fill="#000000" font-family="sans-serif" font-size="12" font-style="italic" lengthAdjust="spacing" textLength="42.5332" x="250.7363" y="57.1387">&#171;desc&#187;</text><text fill="#000000" font-family="sans-serif" font-size="14" lengthAdjust="spacing" textLength="76.4258" x="233.79" y="72.9639">PetSpecies</text><line style="stroke:#181818;stroke-width:0.5;" x1="205.79" x2="312.2158" y1="81.2656" y2="81.2656"/><text fill="#000000" font-family="sans-serif" font-size="14" lengthAdjust="spacing" textLength="28.2324" x="210.79" y="98.2607">Dog</text><text fill="#000000" font-family="sans-serif" font-size="14" lengthAdjust="spacing" textLength="23.8438" x="210.79" y="114.5576">Cat</text><text fill="#000000" font-family="sans-serif" font-size="14" lengthAdjust="spacing" textLength="59.8965" x="210.79" y="130.8545">Hamster</text><text fill="#000000" font-family="sans-serif" font-size="14" lengthAdjust="spacing" textLength="77.7314" x="210.79" y="147.1514">Budgerigar</text></g><!--class Pet--><g class="entity" data-entity="Pet" data-source-line="21" data-uid="ent0004" id="entity_Pet"><rect fill="#90EE90" height="170.0469" rx="2.5" ry="2.5" style="stroke:#181818;stroke-width:0.5;" width="94.7012" x="218.65" y="234.75"/><ellipse cx="248.0852" cy="254.8828" fill="#ADD1B2" rx="11" ry="11" style="stroke:#181818;stroke-width:1;"/><path d="M251.0539,260.5234 Q250.4758,260.8203 249.8352,260.9609 Q249.1945,261.1172 248.4914,261.1172 Q245.9914,261.1172 244.6633,259.4766 Q243.3508,257.8203 243.3508,254.6953 Q243.3508,251.5703 244.6633,249.9141 Q245.9914,248.2578 248.4914,248.2578 Q249.1945,248.2578 249.8352,248.4141 Q250.4914,248.5703 251.0539,248.8672 L251.0539,251.5859 Q250.4289,251.0078 249.8352,250.7422 Q249.2414,250.4609 248.6164,250.4609 Q247.2727,250.4609 246.5852,251.5391 Q245.8977,252.6016 245.8977,254.6953 Q245.8977,256.7891 246.5852,257.8672 Q247.2727,258.9297 248.6164,258.9297 Q249.2414,258.9297 249.8352,258.6641 Q250.4289,258.3828 251.0539,257.8047 L251.0539,260.5234 Z " fill="#000000"/><text fill="#000000" font-family="sans-serif" font-size="12" font-style="italic" lengthAdjust="spacing" textLength="34.623" x="263.293" y="250.8887">&#171;ppt&#187;</text><text fill="#000000" font-family="sans-serif" font-size="14" lengthAdjust="spacing" textLength="22.5449" x="269.332" y="266.7139">Pet</text><line style="stroke:#181818;stroke-width:0.5;" x1="219.65" x2="312.3512" y1="275.0156" y2="275.0156"/><ellipse cx="229.65" cy="288.6641" fill="none" rx="3" ry="3" style="stroke:#038048;stroke-width:1;"/><text fill="#000000" font-family="sans-serif" font-size="14" lengthAdjust="spacing" textLength="12.7764" x="238.65" y="292.0107">id</text><line style="stroke:#181818;stroke-width:1;stroke-dasharray:1,2;" x1="219.65" x2="312.3512" y1="299.3125" y2="299.3125"/><polygon fill="none" points="229.65,307.9609,233.65,311.9609,229.65,315.9609,225.65,311.9609" style="stroke:#B38D22;stroke-width:1;"/><text fill="#000000" font-family="sans-serif" font-size="14" lengthAdjust="spacing" textLength="68.7012" x="238.65" y="316.3076">petOwner</text><polygon fill="none" points="229.65,324.2578,233.65,328.2578,229.65,332.2578,225.65,328.2578" style="stroke:#B38D22;stroke-width:1;"/><text fill="#000000" font-family="sans-serif" font-size="14" lengthAdjust="spacing" textLength="39.7031" x="238.65" y="332.6045">name</text><line style="stroke:#181818;stroke-width:1;stroke-dasharray:1,2;" x1="219.65" x2="312.3512" y1="339.9063" y2="339.9063"/><rect fill="none" height="6" style="stroke:#C82930;stroke-width:1;" width="6" x="226.65" y="350.5547"/><text fill="#000000" font-family="sans-serif" font-size="14" lengthAdjust="spacing" textLength="52.2881" x="238.65" y="356.9014">species</text><rect fill="none" height="6" style="stroke:#C82930;stroke-width:1;" width="6" x="226.65" y="366.8516"/><text fill="#000000" font-family="sans-serif" font-size="14" lengthAdjust="spacing" textLength="38.835" x="238.65" y="373.1982">notes</text><line style="stroke:#181818;stroke-width:1;stroke-dasharray:1,2;" x1="219.65" x2="312.3512" y1="380.5" y2="380.5"/><rect fill="none" height="6" style="stroke:#C82930;stroke-width:1;" width="6" x="226.65" y="391.1484"/><text fill="#000000" font-family="sans-serif" font-size="14" lengthAdjust="spacing" textLength="51.2764" x="238.65" y="397.4951">version</text></g><!--class PetOwner--><g class="entity" data-entity="PetOwner" data-source-line="34" data-uid="ent0005" id="entity_PetOwner"><rect fill="#FFFFE0" height="210.6406" rx="2.5" ry="2.5" style="stroke:#181818;stroke-width:0.5;" width="161.0234" x="22.49" y="214.45"/><ellipse cx="64.835" cy="234.5828" fill="#ADD1B2" rx="11" ry="11" style="stroke:#181818;stroke-width:1;"/><path d="M67.8037,240.2234 Q67.2256,240.5203 66.585,240.6609 Q65.9443,240.8172 65.2412,240.8172 Q62.7412,240.8172 61.4131,239.1766 Q60.1006,237.5203 60.1006,234.3953 Q60.1006,231.2703 61.4131,229.6141 Q62.7412,227.9578 65.2412,227.9578 Q65.9443,227.9578 66.585,228.1141 Q67.2412,228.2703 67.8037,228.5672 L67.8037,231.2859 Q67.1787,230.7078 66.585,230.4422 Q65.9912,230.1609 65.3662,230.1609 Q64.0225,230.1609 63.335,231.2391 Q62.6475,232.3016 62.6475,234.3953 Q62.6475,236.4891 63.335,237.5672 Q64.0225,238.6297 65.3662,238.6297 Q65.9912,238.6297 66.585,238.3641 Q67.1787,238.0828 67.8037,237.5047 L67.8037,240.2234 Z " fill="#000000"/><text fill="#000000" font-family="sans-serif" font-size="12" font-style="italic" lengthAdjust="spacing" textLength="37.6758" x="100.2022" y="230.5887">&#171;role&#187;</text><text fill="#000000" font-family="sans-serif" font-size="14" lengthAdjust="spacing" textLength="68.2568" x="84.9116" y="246.4139">PetOwner</text><line style="stroke:#181818;stroke-width:0.5;" x1="23.49" x2="182.5134" y1="254.7156" y2="254.7156"/><ellipse cx="33.49" cy="268.3641" fill="none" rx="3" ry="3" style="stroke:#038048;stroke-width:1;"/><text fill="#000000" font-family="sans-serif" font-size="14" lengthAdjust="spacing" textLength="12.7764" x="42.49" y="271.7107">id</text><line style="stroke:#181818;stroke-width:1;stroke-dasharray:1,2;" x1="23.49" x2="182.5134" y1="279.0125" y2="279.0125"/><polygon fill="none" points="33.49,287.6609,37.49,291.6609,33.49,295.6609,29.49,291.6609" style="stroke:#B38D22;stroke-width:1;"/><text fill="#000000" font-family="sans-serif" font-size="14" lengthAdjust="spacing" textLength="39.7031" x="42.49" y="296.0076">name</text><polygon fill="none" points="33.49,303.9578,37.49,307.9578,33.49,311.9578,29.49,307.9578" style="stroke:#B38D22;stroke-width:1;"/><text fill="#000000" font-family="sans-serif" font-size="14" lengthAdjust="spacing" textLength="62.7402" x="42.49" y="312.3045">knownAs</text><line style="stroke:#181818;stroke-width:1;stroke-dasharray:1,2;" x1="23.49" x2="182.5134" y1="319.6063" y2="319.6063"/><rect fill="none" height="6" style="stroke:#C82930;stroke-width:1;" width="6" x="30.49" y="330.2547"/><text fill="#000000" font-family="sans-serif" font-size="14" lengthAdjust="spacing" textLength="100.0508" x="42.49" y="336.6014">phoneNumber</text><rect fill="none" height="6" style="stroke:#C82930;stroke-width:1;" width="6" x="30.49" y="346.5516"/><text fill="#000000" font-family="sans-serif" font-size="14" lengthAdjust="spacing" textLength="94.917" x="42.49" y="352.8982">emailAddress</text><line style="stroke:#181818;stroke-width:1;stroke-dasharray:1,2;" x1="23.49" x2="182.5134" y1="360.2" y2="360.2"/><rect fill="none" height="6" style="stroke:#C82930;stroke-width:1;" width="6" x="30.49" y="370.8484"/><text fill="#000000" font-family="sans-serif" font-size="14" lengthAdjust="spacing" textLength="55.3916" x="42.49" y="377.1951">lastVisit</text><rect fill="none" height="6" style="stroke:#C82930;stroke-width:1;" width="6" x="30.49" y="387.1453"/><text fill="#000000" font-family="sans-serif" font-size="14" lengthAdjust="spacing" textLength="135.0234" x="42.49" y="393.492">/daysSinceLastVisit</text><line style="stroke:#181818;stroke-width:1;stroke-dasharray:1,2;" x1="23.49" x2="182.5134" y1="400.7938" y2="400.7938"/><rect fill="none" height="6" style="stroke:#C82930;stroke-width:1;" width="6" x="30.49" y="411.4422"/><text fill="#000000" font-family="sans-serif" font-size="14" lengthAdjust="spacing" textLength="38.835" x="42.49" y="417.7889">notes</text></g><!--class Visit--><g class="entity" data-entity="Visit" data-source-line="53" data-uid="ent0007" id="entity_Visit"><rect fill="#FFB6C1" height="105.1563" rx="2.5" ry="2.5" style="stroke:#181818;stroke-width:0.5;" width="183.7666" x="369.12" y="267.19"/><ellipse cx="441.6835" cy="287.3228" fill="#ADD1B2" rx="11" ry="11" style="stroke:#181818;stroke-width:1;"/><path d="M444.6522,292.9634 Q444.0741,293.2603 443.4335,293.4009 Q442.7929,293.5572 442.0897,293.5572 Q439.5897,293.5572 438.2616,291.9166 Q436.9491,290.2603 436.9491,287.1353 Q436.9491,284.0103 438.2616,282.3541 Q439.5897,280.6978 442.0897,280.6978 Q442.7929,280.6978 443.4335,280.8541 Q444.0897,281.0103 444.6522,281.3072 L444.6522,284.0259 Q444.0272,283.4478 443.4335,283.1822 Q442.8397,282.9009 442.2147,282.9009 Q440.871,282.9009 440.1835,283.9791 Q439.496,285.0416 439.496,287.1353 Q439.496,289.2291 440.1835,290.3072 Q440.871,291.3697 442.2147,291.3697 Q442.8397,291.3697 443.4335,291.1041 Q444.0272,290.8228 444.6522,290.2447 L444.6522,292.9634 Z " fill="#000000"/><text fill="#000000" font-family="sans-serif" font-size="12" font-style="italic" lengthAdjust="spacing" textLength="29.707" x="462.3998" y="283.3287">&#171;mi&#187;</text><text fill="#000000" font-family="sans-serif" font-size="14" lengthAdjust="spacing" textLength="30.1396" x="462.1835" y="299.1539">Visit</text><line style="stroke:#181818;stroke-width:0.5;" x1="370.12" x2="551.8866" y1="307.4556" y2="307.4556"/><ellipse cx="380.12" cy="321.1041" fill="none" rx="3" ry="3" style="stroke:#038048;stroke-width:1;"/><text fill="#000000" font-family="sans-serif" font-size="14" lengthAdjust="spacing" textLength="12.7764" x="389.12" y="324.4507">id</text><line style="stroke:#181818;stroke-width:1;stroke-dasharray:1,2;" x1="370.12" x2="551.8866" y1="331.7525" y2="331.7525"/><polygon fill="none" points="380.12,340.4009,384.12,344.4009,380.12,348.4009,376.12,344.4009" style="stroke:#B38D22;stroke-width:1;"/><text fill="#000000" font-family="sans-serif" font-size="14" lengthAdjust="spacing" textLength="22.9893" x="389.12" y="348.7476">pet</text><polygon fill="none" points="380.12,356.6978,384.12,360.6978,380.12,364.6978,376.12,360.6978" style="stroke:#B38D22;stroke-width:1;"/><text fill="#000000" font-family="sans-serif" font-size="14" lengthAdjust="spacing" textLength="157.7666" x="389.12" y="365.0445">visitAt: LocalDateTime</text></g><!--link PetOwner to Pet--><g class="link" data-entity-1="PetOwner" data-entity-2="Pet" data-source-line="62" data-uid="lnk8" id="link_PetOwner_Pet"><path codeLine="62" d="M195.86,319.77 C207.31,319.77 200.75,319.77 212.19,319.77" fill="none" id="PetOwner-Pet" style="stroke:#181818;stroke-width:1;"/><polygon fill="#181818" points="183.86,319.77,189.86,323.77,195.86,319.77,189.86,315.77,183.86,319.77" style="stroke:#181818;stroke-width:1;"/><polygon fill="#181818" points="218.19,319.77,209.19,315.77,213.19,319.77,209.19,323.77,218.19,319.77" style="stroke:#181818;stroke-width:1;"/><text fill="#000000" font-family="sans-serif" font-size="13" lengthAdjust="spacing" textLength="23.0356" x="191.6477" y="315.5302">0..*</text></g><!--link Visit to Pet--><g class="link" data-entity-1="Visit" data-entity-2="Pet" data-source-line="63" data-uid="lnk9" id="link_Visit_Pet"><path codeLine="63" d="M368.88,319.77 C350.46,319.77 338.03,319.77 319.61,319.77" fill="none" id="Visit-to-Pet" style="stroke:#181818;stroke-width:1;"/><polygon fill="#181818" points="313.61,319.77,322.61,323.77,318.61,319.77,322.61,315.77,313.61,319.77" style="stroke:#181818;stroke-width:1;"/><text fill="#000000" font-family="sans-serif" font-size="13" lengthAdjust="spacing" textLength="12.397" x="348.7706" y="300.6059">&#160;&#160;&#160;</text><text fill="#000000" font-family="sans-serif" font-size="13" lengthAdjust="spacing" textLength="6.5" x="351.7191" y="315.7387">*</text></g><!--reverse link PetSpecies to Pet--><g class="link" data-entity-1="PetSpecies" data-entity-2="Pet" data-source-line="64" data-uid="lnk11" id="link_PetSpecies_Pet"><path codeLine="64" d="M260.9709,160.817 C261.7409,185.007 262.47,207.83 263.32,234.5" fill="none" id="PetSpecies-backto-Pet" style="stroke:#181818;stroke-width:1;"/><polygon fill="#181818" points="260.78,154.82,257.0684,163.9427,260.9391,159.8175,265.0643,163.6882,260.78,154.82" style="stroke:#181818;stroke-width:1;"/><text fill="#000000" font-family="sans-serif" font-size="13" lengthAdjust="spacing" textLength="6.5" x="256.8533" y="223.5999">*</text></g><!--SRC=[ZLBBQiCm43nNNx4ujnIxFPSGo0FQGsW3AOL2BwgrsCBM0qbE227_NicEvOGQMfrMiwFTqUoMd26WqEu80iKt6alA00bqfMAM45jngQcX0lAQMWidShUaULKOrKYsKhKoinb3cy_di3fIEPBLsldaXXUbUpQ8OnJ1UyQMosg4O5IDFUKJwreTo9aGeZsF5WWQdJf8D5uT0NzGDWAsw7OQSuuMeiHJcmvdhOeOhwYByGiLrg69zsN32ZIye1rqxXfqNlWEqFzlg7pFMOopB8OJB_8jY1mGIGMEKLFRwHu0gTpLzPgwzoFZIlRYRjMr_I3QzxV66qMJIdfN5-DzTQaalZPXPGOG1UNrWZ63TloL5-O-kEM3t-a3eqUxupB7pQ_azTF1WlFDxFVXHJ_uxkTj4RYirRy6CrpQSWlt11kLqtfD7RxpYoTTtsZhD3LfEeVaCSkcIN2RT7qJJ_sI7lBvERI9i2YG1AZnqB2OFm00]--></g></svg>