<svg xmlns="http://www.w3.org/2000/svg" xmlns:xlink="http://www.w3.org/1999/xlink" contentStyleType="text/css" data-diagram-type="CLASS" height="209px" preserveAspectRatio="none" style="width:300px;height:209px;background:#FFFFFF;" version="1.1" viewBox="0 0 300 209" width="300px" zoomAndPan="magnify"><defs/><g><!--cluster pets--><g class="cluster" data-entity="pets" data-source-line="12" data-uid="ent0002" id="cluster_pets"><path d="M8.5,6 L44.042,6 A3.75,3.75 0 0 1 46.542,8.5 L53.542,28.2969 L290.5,28.2969 A2.5,2.5 0 0 1 293,30.7969 L293,200.25 A2.5,2.5 0 0 1 290.5,202.75 L8.5,202.75 A2.5,2.5 0 0 1 6,200.25 L6,8.5 A2.5,2.5 0 0 1 8.5,6" fill="none" style="stroke:#000000;stroke-width:1.5;"/><line style="stroke:#000000;stroke-width:1.5;" x1="6" x2="53.542" y1="28.2969" y2="28.2969"/><text fill="#000000" font-family="sans-serif" font-size="14" font-weight="bold" lengthAdjust="spacing" textLength="34.542" x="10" y="20.9951">pets</text></g><!--class Pet--><g class="entity" data-entity="Pet" data-source-line="14" data-uid="ent0003" id="entity_Pet"><rect fill="#90EE90" height="129.4531" rx="2.5" ry="2.5" style="stroke:#181818;stroke-width:0.5;" width="94.7012" x="182.65" y="49.15"/><ellipse cx="212.0852" cy="69.2828" fill="#ADD1B2" rx="11" ry="11" style="stroke:#181818;stroke-width:1;"/><path d="M215.0539,74.9234 Q214.4758,75.2203 213.8352,75.3609 Q213.1945,75.5172 212.4914,75.5172 Q209.9914,75.5172 208.6633,73.8766 Q207.3508,72.2203 207.3508,69.0953 Q207.3508,65.9703 208.6633,64.3141 Q209.9914,62.6578 212.4914,62.6578 Q213.1945,62.6578 213.8352,62.8141 Q214.4914,62.9703 215.0539,63.2672 L215.0539,65.9859 Q214.4289,65.4078 213.8352,65.1422 Q213.2414,64.8609 212.6164,64.8609 Q211.2727,64.8609 210.5852,65.9391 Q209.8977,67.0016 209.8977,69.0953 Q209.8977,71.1891 210.5852,72.2672 Q211.2727,73.3297 212.6164,73.3297 Q213.2414,73.3297 213.8352,73.0641 Q214.4289,72.7828 215.0539,72.2047 L215.0539,74.9234 Z " fill="#000000"/><text fill="#000000" font-family="sans-serif" font-size="12" font-style="italic" lengthAdjust="spacing" textLength="34.623" x="227.293" y="65.2887">&#171;ppt&#187;</text><text fill="#000000" font-family="sans-serif" font-size="14" lengthAdjust="spacing" textLength="22.5449" x="233.332" y="81.1139">Pet</text><line style="stroke:#181818;stroke-width:0.5;" x1="183.65" x2="276.3512" y1="89.4156" y2="89.4156"/><ellipse cx="193.65" cy="103.0641" fill="none" rx="3" ry="3" style="stroke:#038048;stroke-width:1;"/><text fill="#000000" font-family="sans-serif" font-size="14" lengthAdjust="spacing" textLength="12.7764" x="202.65" y="106.4107">id</text><line style="stroke:#181818;stroke-width:1;stroke-dasharray:1.0,2.0;" x1="183.65" x2="276.3512" y1="113.7125" y2="113.7125"/><polygon fill="none" points="193.65,122.3609,197.65,126.3609,193.65,130.3609,189.65,126.3609" style="stroke:#B38D22;stroke-width:1;"/><text fill="#000000" font-family="sans-serif" font-size="14" lengthAdjust="spacing" textLength="68.7012" x="202.65" y="130.7076">petOwner</text><polygon fill="none" points="193.65,138.6578,197.65,142.6578,193.65,146.6578,189.65,142.6578" style="stroke:#B38D22;stroke-width:1;"/><text fill="#000000" font-family="sans-serif" font-size="14" lengthAdjust="spacing" textLength="39.7031" x="202.65" y="147.0045">name</text><line style="stroke:#181818;stroke-width:1;stroke-dasharray:1.0,2.0;" x1="183.65" x2="276.3512" y1="154.3063" y2="154.3063"/><text fill="#000000" font-family="sans-serif" font-size="14" lengthAdjust="spacing" textLength="51.2764" x="188.65" y="171.3014">version</text></g><!--class PetOwner--><g class="entity" data-entity="PetOwner" data-source-line="23" data-uid="ent0004" id="entity_PetOwner"><rect fill="#FFFFE0" height="145.75" rx="2.5" ry="2.5" style="stroke:#181818;stroke-width:0.5;" width="126.0508" x="21.97" y="41"/><ellipse cx="48.5773" cy="61.1328" fill="#ADD1B2" rx="11" ry="11" style="stroke:#181818;stroke-width:1;"/><path d="M51.546,66.7734 Q50.9679,67.0703 50.3273,67.2109 Q49.6867,67.3672 48.9835,67.3672 Q46.4835,67.3672 45.1554,65.7266 Q43.8429,64.0703 43.8429,60.9453 Q43.8429,57.8203 45.1554,56.1641 Q46.4835,54.5078 48.9835,54.5078 Q49.6867,54.5078 50.3273,54.6641 Q50.9835,54.8203 51.546,55.1172 L51.546,57.8359 Q50.921,57.2578 50.3273,56.9922 Q49.7335,56.7109 49.1085,56.7109 Q47.7648,56.7109 47.0773,57.7891 Q46.3898,58.8516 46.3898,60.9453 Q46.3898,63.0391 47.0773,64.1172 Q47.7648,65.1797 49.1085,65.1797 Q49.7335,65.1797 50.3273,64.9141 Q50.921,64.6328 51.546,64.0547 L51.546,66.7734 Z " fill="#000000"/><text fill="#000000" font-family="sans-serif" font-size="12" font-style="italic" lengthAdjust="spacing" textLength="37.6758" x="80.4472" y="57.1387">&#171;role&#187;</text><text fill="#000000" font-family="sans-serif" font-size="14" lengthAdjust="spacing" textLength="68.2568" x="65.1567" y="72.9639">PetOwner</text><line style="stroke:#181818;stroke-width:0.5;" x1="22.97" x2="147.0208" y1="81.2656" y2="81.2656"/><ellipse cx="32.97" cy="94.9141" fill="none" rx="3" ry="3" style="stroke:#038048;stroke-width:1;"/><text fill="#000000" font-family="sans-serif" font-size="14" lengthAdjust="spacing" textLength="12.7764" x="41.97" y="98.2607">id</text><line style="stroke:#181818;stroke-width:1;stroke-dasharray:1.0,2.0;" x1="22.97" x2="147.0208" y1="105.5625" y2="105.5625"/><polygon fill="none" points="32.97,114.2109,36.97,118.2109,32.97,122.2109,28.97,118.2109" style="stroke:#B38D22;stroke-width:1;"/><text fill="#000000" font-family="sans-serif" font-size="14" lengthAdjust="spacing" textLength="66.5547" x="41.97" y="122.5576">lastName</text><polygon fill="none" points="32.97,130.5078,36.97,134.5078,32.97,138.5078,28.97,134.5078" style="stroke:#B38D22;stroke-width:1;"/><text fill="#000000" font-family="sans-serif" font-size="14" lengthAdjust="spacing" textLength="68.6602" x="41.97" y="138.8545">firstName</text><line style="stroke:#181818;stroke-width:1;stroke-dasharray:1.0,2.0;" x1="22.97" x2="147.0208" y1="146.1563" y2="146.1563"/><rect fill="none" height="6" style="stroke:#C82930;stroke-width:1;" width="6" x="29.97" y="156.8047"/><text fill="#000000" font-family="sans-serif" font-size="14" lengthAdjust="spacing" textLength="100.0508" x="41.97" y="163.1514">phoneNumber</text><rect fill="none" height="6" style="stroke:#C82930;stroke-width:1;" width="6" x="29.97" y="173.1016"/><text fill="#000000" font-family="sans-serif" font-size="14" lengthAdjust="spacing" textLength="94.917" x="41.97" y="179.4482">emailAddress</text></g><!--link PetOwner to Pet--><g class="link" data-entity-1="PetOwner" data-entity-2="Pet" data-source-line="35" data-uid="lnk5" id="link_PetOwner_Pet"><path codeLine="35" d="M160.44,113.87 C171.69,113.87 164.95,113.87 176.21,113.87" fill="none" id="PetOwner-Pet" style="stroke:#181818;stroke-width:1;"/><polygon fill="#181818" points="148.44,113.87,154.44,117.87,160.44,113.87,154.44,109.87,148.44,113.87" style="stroke:#181818;stroke-width:1;"/><polygon fill="#181818" points="182.21,113.87,173.21,109.87,177.21,113.87,173.21,117.87,182.21,113.87" style="stroke:#181818;stroke-width:1;"/><text fill="#000000" font-family="sans-serif" font-size="13" lengthAdjust="spacing" textLength="23.0356" x="156.133" y="109.4985">0..*</text></g><!--SRC=[XP5DQiCm48NNdLCCoIx59WS8XZQBRagQRPQgDRM4zST8QGWXTw_arau8XivgzEQJtcEaj2Ga6z8PBTbFuWYgI9QIyZ82n5wx85XOR8s84I_mz2hQlcD_T7BhZUVDHb9icmQtP-5cfY6aF7pNdKflJ3I7M3qIU-tw6O2zeH4va37-15S029aJ7M6WL981vlgDkQU4e_Lbq4izQpdrTJsrotp_u-I8RueJbkRGxxmXxTrmlZuO3a_W5FP_stmnxUwDbb-Q7wGxlWhAEzeTopVTHB92cnSfcMByYrLMC-LPLLnL3IxMTRrQb9W_]--></g></svg>