<svg xmlns="http://www.w3.org/2000/svg" xmlns:xlink="http://www.w3.org/1999/xlink" contentStyleType="text/css" data-diagram-type="CLASS" height="407px" preserveAspectRatio="none" style="width:153px;height:407px;background:#FFFFFF;" version="1.1" viewBox="0 0 153 407" width="153px" zoomAndPan="magnify"><defs/><g><!--cluster pets--><g class="cluster" data-entity="pets" data-source-line="12" data-uid="ent0002" id="cluster_pets"><path d="M8.5,6 L44.042,6 A3.75,3.75 0 0 1 46.542,8.5 L53.542,28.2969 L143.5,28.2969 A2.5,2.5 0 0 1 146,30.7969 L146,398 A2.5,2.5 0 0 1 143.5,400.5 L8.5,400.5 A2.5,2.5 0 0 1 6,398 L6,8.5 A2.5,2.5 0 0 1 8.5,6" fill="none" style="stroke:#000000;stroke-width:1.5;"/><line style="stroke:#000000;stroke-width:1.5;" x1="6" x2="53.542" y1="28.2969" y2="28.2969"/><text fill="#000000" font-family="sans-serif" font-size="14" font-weight="bold" lengthAdjust="spacing" textLength="34.542" x="10" y="20.9951">pets</text></g><!--class PetSpecies--><g class="entity" data-entity="PetSpecies" data-source-line="14" data-uid="ent0003" id="entity_PetSpecies"><rect fill="#00FFFF" height="113.4531" rx="2.5" ry="2.5" style="stroke:#181818;stroke-width:0.5;" width="108.4258" x="21.79" y="41"/><ellipse cx="36.79" cy="61.1328" fill="#EB937F" rx="11" ry="11" style="stroke:#181818;stroke-width:1;"/><path d="M40.8994,67.1328 L33.1806,67.1328 L33.1806,54.7422 L40.8994,54.7422 L40.8994,56.8984 L35.6338,56.8984 L35.6338,59.5703 L40.3994,59.5703 L40.3994,61.7266 L35.6338,61.7266 L35.6338,64.9766 L40.8994,64.9766 L40.8994,67.1328 Z " fill="#000000"/><text fill="#000000" font-family="sans-serif" font-size="12" font-style="italic" lengthAdjust="spacing" textLength="42.5332" x="67.7363" y="57.1387">&#171;desc&#187;</text><text fill="#000000" font-family="sans-serif" font-size="14" lengthAdjust="spacing" textLength="76.4258" x="50.79" y="72.9639">PetSpecies</text><line style="stroke:#181818;stroke-width:0.5;" x1="22.79" x2="129.2158" y1="81.2656" y2="81.2656"/><text fill="#000000" font-family="sans-serif" font-size="14" lengthAdjust="spacing" textLength="28.2324" x="27.79" y="98.2607">Dog</text><text fill="#000000" font-family="sans-serif" font-size="14" lengthAdjust="spacing" textLength="23.8438" x="27.79" y="114.5576">Cat</text><text fill="#000000" font-family="sans-serif" font-size="14" lengthAdjust="spacing" textLength="59.8965" x="27.79" y="130.8545">Hamster</text><text fill="#000000" font-family="sans-serif" font-size="14" lengthAdjust="spacing" textLength="77.7314" x="27.79" y="147.1514">Budgerigar</text></g><!--class Pet--><g class="entity" data-entity="Pet" data-source-line="21" data-uid="ent0004" id="entity_Pet"><rect fill="#90EE90" height="170.0469" rx="2.5" ry="2.5" style="stroke:#181818;stroke-width:0.5;" width="94.7012" x="28.65" y="214.45"/><ellipse cx="58.0852" cy="234.5828" fill="#ADD1B2" rx="11" ry="11" style="stroke:#181818;stroke-width:1;"/><path d="M61.0539,240.2234 Q60.4758,240.5203 59.8352,240.6609 Q59.1945,240.8172 58.4914,240.8172 Q55.9914,240.8172 54.6633,239.1766 Q53.3508,237.5203 53.3508,234.3953 Q53.3508,231.2703 54.6633,229.6141 Q55.9914,227.9578 58.4914,227.9578 Q59.1945,227.9578 59.8352,228.1141 Q60.4914,228.2703 61.0539,228.5672 L61.0539,231.2859 Q60.4289,230.7078 59.8352,230.4422 Q59.2414,230.1609 58.6164,230.1609 Q57.2727,230.1609 56.5852,231.2391 Q55.8977,232.3016 55.8977,234.3953 Q55.8977,236.4891 56.5852,237.5672 Q57.2727,238.6297 58.6164,238.6297 Q59.2414,238.6297 59.8352,238.3641 Q60.4289,238.0828 61.0539,237.5047 L61.0539,240.2234 Z " fill="#000000"/><text fill="#000000" font-family="sans-serif" font-size="12" font-style="italic" lengthAdjust="spacing" textLength="34.623" x="73.293" y="230.5887">&#171;ppt&#187;</text><text fill="#000000" font-family="sans-serif" font-size="14" lengthAdjust="spacing" textLength="22.5449" x="79.332" y="246.4139">Pet</text><line style="stroke:#181818;stroke-width:0.5;" x1="29.65" x2="122.3512" y1="254.7156" y2="254.7156"/><ellipse cx="39.65" cy="268.3641" fill="none" rx="3" ry="3" style="stroke:#038048;stroke-width:1;"/><text fill="#000000" font-family="sans-serif" font-size="14" lengthAdjust="spacing" textLength="12.7764" x="48.65" y="271.7107">id</text><line style="stroke:#181818;stroke-width:1;stroke-dasharray:1.0,2.0;" x1="29.65" x2="122.3512" y1="279.0125" y2="279.0125"/><polygon fill="none" points="39.65,287.6609,43.65,291.6609,39.65,295.6609,35.65,291.6609" style="stroke:#B38D22;stroke-width:1;"/><text fill="#000000" font-family="sans-serif" font-size="14" lengthAdjust="spacing" textLength="68.7012" x="48.65" y="296.0076">petOwner</text><polygon fill="none" points="39.65,303.9578,43.65,307.9578,39.65,311.9578,35.65,307.9578" style="stroke:#B38D22;stroke-width:1;"/><text fill="#000000" font-family="sans-serif" font-size="14" lengthAdjust="spacing" textLength="39.7031" x="48.65" y="312.3045">name</text><line style="stroke:#181818;stroke-width:1;stroke-dasharray:1.0,2.0;" x1="29.65" x2="122.3512" y1="319.6063" y2="319.6063"/><rect fill="none" height="6" style="stroke:#C82930;stroke-width:1;" width="6" x="36.65" y="330.2547"/><text fill="#000000" font-family="sans-serif" font-size="14" lengthAdjust="spacing" textLength="52.2881" x="48.65" y="336.6014">species</text><rect fill="none" height="6" style="stroke:#C82930;stroke-width:1;" width="6" x="36.65" y="346.5516"/><text fill="#000000" font-family="sans-serif" font-size="14" lengthAdjust="spacing" textLength="38.835" x="48.65" y="352.8982">notes</text><line style="stroke:#181818;stroke-width:1;stroke-dasharray:1.0,2.0;" x1="29.65" x2="122.3512" y1="360.2" y2="360.2"/><rect fill="none" height="6" style="stroke:#C82930;stroke-width:1;" width="6" x="36.65" y="370.8484"/><text fill="#000000" font-family="sans-serif" font-size="14" lengthAdjust="spacing" textLength="51.2764" x="48.65" y="377.1951">version</text></g><!--reverse link PetSpecies to Pet--><g class="link" data-entity-1="PetSpecies" data-entity-2="Pet" data-source-line="35" data-uid="lnk6" id="link_PetSpecies_Pet"><path codeLine="35" d="M76,160.9 C76,179.25 76,194.05 76,214" fill="none" id="PetSpecies-backto-Pet" style="stroke:#181818;stroke-width:1;"/><polygon fill="#181818" points="76,154.9,72,163.9,76,159.9,80,163.9,76,154.9" style="stroke:#181818;stroke-width:1;"/><text fill="#000000" font-family="sans-serif" font-size="13" lengthAdjust="spacing" textLength="6.5" x="69.7722" y="203.373">*</text></g><!--SRC=[RP5DQiCm48NNrIc6PDVYd21u4HVQHQ61hhgSMWzPsFf1aXj2oDqhrrZnmaABDpCVCq-ZJaiGZ4zNCZ0_255qKyeWTKv68MAlhUV0Xjg1OwIRU3fnswlWHYiRDxXmF4h4jgwfkRBTg7gVSl53gowz1M0BCNeXpjhs6q1m0nRa6yFWBk8kXF2POmNoI9CpGVd0ZeREI5yUhKQaOk_sNvxEgrD5DvoAVcSJ4qA9JwDK25hndBhF0-Ozv0cqlEtH-KNBeW-78lVPuEV5hbhlBHjieLMSVJyIrgLLk4P_ytTfPnTp-KwkQFUyesgiwjKM_W00]--></g></svg>