<?xml version="1.0" encoding="UTF-8" standalone="no"?><svg xmlns="http://www.w3.org/2000/svg" xmlns:xlink="http://www.w3.org/1999/xlink" contentStyleType="text/css" height="213px" preserveAspectRatio="none" style="width:280px;height:213px;background:#FFFFFF;" version="1.1" viewBox="0 0 280 213" width="280px" zoomAndPan="magnify"><defs/><g><!--MD5=[bf52ada63cd2e6cd3f37b8d0408107a6]
cluster pets--><g id="cluster_pets"><path d="M8.5,6 L39.5,6 A3.75,3.75 0 0 1 42,8.5 L49,28.7999 L270.5,28.7999 A2.5,2.5 0 0 1 273,31.2999 L273,203.5 A2.5,2.5 0 0 1 270.5,206 L8.5,206 A2.5,2.5 0 0 1 6,203.5 L6,8.5 A2.5,2.5 0 0 1 8.5,6 " style="stroke:#000000;stroke-width:1.5;fill:none;"/><line style="stroke:#000000;stroke-width:1.5;fill:none;" x1="6" x2="49" y1="28.7999" y2="28.7999"/><text fill="#000000" font-family="sans-serif" font-size="14" font-weight="bold" lengthAdjust="spacing" textLength="30" x="10" y="21.9999">pets</text></g><!--MD5=[9cfa872a99fa8e70a8c023fe905238fd]
class Pet--><g id="elem_Pet"><rect codeLine="14" fill="#90EE90" height="132.3997" id="Pet" rx="2.5" ry="2.5" style="stroke:#181818;stroke-width:0.5;" width="86" x="171" y="49.5"/><ellipse cx="199.95" cy="70.1" fill="#ADD1B2" rx="11" ry="11" style="stroke:#181818;stroke-width:1.0;"/><path d="M199.3094,73.8813 Q200.1063,73.8813 200.6688,73.6938 Q201.2469,73.4906 201.4813,73.2719 Q201.7313,73.0375 201.9656,72.85 Q202.2156,72.6469 202.4344,72.6469 Q202.7781,72.6469 203.0281,72.9125 Q203.2938,73.1625 203.2938,73.4906 Q203.2938,74.225 202.1219,74.9125 Q200.9656,75.5844 199.2625,75.5844 Q197.1063,75.5844 195.6844,74.3188 Q194.2625,73.0531 194.2625,71.1156 L194.2625,69.9906 Q194.2625,67.9594 195.5906,66.5844 Q196.9188,65.1938 198.8875,65.1938 Q200.075,65.1938 201.2938,65.7719 L201.4656,65.85 Q201.7625,65.4438 202.1844,65.4438 Q202.6688,65.4438 202.8406,65.7406 Q203.0281,66.0219 203.0281,66.5688 L203.0281,67.9906 Q203.0281,69.1156 202.1844,69.1156 Q201.8719,69.1156 201.6688,68.9438 Q201.4813,68.7719 201.4344,68.6313 Q201.4031,68.475 201.3563,68.2094 Q201.2469,67.6938 200.7313,67.3813 Q200.2156,67.0688 199.7625,66.9906 Q199.325,66.8969 198.95,66.8969 Q197.6688,66.8969 196.8094,67.7719 Q195.9656,68.6469 195.9656,69.9906 L195.9656,71.0844 Q195.9656,72.3656 196.8719,73.1313 Q197.7781,73.8813 199.3094,73.8813 Z " fill="#000000"/><text fill="#000000" font-family="sans-serif" font-size="12" font-style="italic" lengthAdjust="spacing" textLength="27" x="215.05" y="66.5001">«ppt»</text><text fill="#000000" font-family="sans-serif" font-size="14" lengthAdjust="spacing" textLength="20" x="218.55" y="82.9">Pet</text><line style="stroke:#181818;stroke-width:0.5;" x1="172" x2="256" y1="90.7" y2="90.7"/><ellipse cx="182" cy="101.7" fill="none" rx="3" ry="3" style="stroke:#038048;stroke-width:1.0;"/><text fill="#000000" font-family="sans-serif" font-size="14" lengthAdjust="spacing" textLength="11" x="191" y="108.7">id</text><line style="stroke:#181818;stroke-width:1.0;stroke-dasharray:1.0,2.0;" x1="172" x2="256" y1="115.5" y2="115.5"/><polygon fill="none" points="182,121.5,186,125.5,182,129.5,178,125.5" style="stroke:#B38D22;stroke-width:1.0;"/><text fill="#000000" font-family="sans-serif" font-size="14" lengthAdjust="spacing" textLength="60" x="191" y="133.4999">petOwner</text><polygon fill="none" points="182,138.2999,186,142.2999,182,146.2999,178,142.2999" style="stroke:#B38D22;stroke-width:1.0;"/><text fill="#000000" font-family="sans-serif" font-size="14" lengthAdjust="spacing" textLength="34" x="191" y="150.2998">name</text><line style="stroke:#181818;stroke-width:1.0;stroke-dasharray:1.0,2.0;" x1="172" x2="256" y1="157.0998" y2="157.0998"/><text fill="#000000" font-family="sans-serif" font-size="14" lengthAdjust="spacing" textLength="44" x="177" y="175.0997">version</text></g><!--MD5=[298f3cc1e9c072e56c2f010460aa72aa]
class PetOwner--><g id="elem_PetOwner"><rect codeLine="23" fill="#FFFFE0" height="149.1997" id="PetOwner" rx="2.5" ry="2.5" style="stroke:#181818;stroke-width:0.5;" width="113" x="22.5" y="41"/><ellipse cx="46.5" cy="61.6" fill="#ADD1B2" rx="11" ry="11" style="stroke:#181818;stroke-width:1.0;"/><path d="M45.8594,65.3813 Q46.6563,65.3813 47.2188,65.1938 Q47.7969,64.9906 48.0313,64.7719 Q48.2813,64.5375 48.5156,64.35 Q48.7656,64.1469 48.9844,64.1469 Q49.3281,64.1469 49.5781,64.4125 Q49.8438,64.6625 49.8438,64.9906 Q49.8438,65.725 48.6719,66.4125 Q47.5156,67.0844 45.8125,67.0844 Q43.6563,67.0844 42.2344,65.8188 Q40.8125,64.5531 40.8125,62.6156 L40.8125,61.4906 Q40.8125,59.4594 42.1406,58.0844 Q43.4688,56.6938 45.4375,56.6938 Q46.625,56.6938 47.8438,57.2719 L48.0156,57.35 Q48.3125,56.9438 48.7344,56.9438 Q49.2188,56.9438 49.3906,57.2406 Q49.5781,57.5219 49.5781,58.0688 L49.5781,59.4906 Q49.5781,60.6156 48.7344,60.6156 Q48.4219,60.6156 48.2188,60.4438 Q48.0313,60.2719 47.9844,60.1313 Q47.9531,59.975 47.9063,59.7094 Q47.7969,59.1938 47.2813,58.8813 Q46.7656,58.5688 46.3125,58.4906 Q45.875,58.3969 45.5,58.3969 Q44.2188,58.3969 43.3594,59.2719 Q42.5156,60.1469 42.5156,61.4906 L42.5156,62.5844 Q42.5156,63.8656 43.4219,64.6313 Q44.3281,65.3813 45.8594,65.3813 Z " fill="#000000"/><text fill="#000000" font-family="sans-serif" font-size="12" font-style="italic" lengthAdjust="spacing" textLength="31" x="77.5" y="58.0001">«role»</text><text fill="#000000" font-family="sans-serif" font-size="14" lengthAdjust="spacing" textLength="61" x="62.5" y="74.4">PetOwner</text><line style="stroke:#181818;stroke-width:0.5;" x1="23.5" x2="134.5" y1="82.2" y2="82.2"/><ellipse cx="33.5" cy="93.2" fill="none" rx="3" ry="3" style="stroke:#038048;stroke-width:1.0;"/><text fill="#000000" font-family="sans-serif" font-size="14" lengthAdjust="spacing" textLength="11" x="42.5" y="100.2">id</text><line style="stroke:#181818;stroke-width:1.0;stroke-dasharray:1.0,2.0;" x1="23.5" x2="134.5" y1="107" y2="107"/><polygon fill="none" points="33.5,113,37.5,117,33.5,121,29.5,117" style="stroke:#B38D22;stroke-width:1.0;"/><text fill="#000000" font-family="sans-serif" font-size="14" lengthAdjust="spacing" textLength="58" x="42.5" y="124.9999">lastName</text><polygon fill="none" points="33.5,129.7999,37.5,133.7999,33.5,137.7999,29.5,133.7999" style="stroke:#B38D22;stroke-width:1.0;"/><text fill="#000000" font-family="sans-serif" font-size="14" lengthAdjust="spacing" textLength="59" x="42.5" y="141.7998">firstName</text><line style="stroke:#181818;stroke-width:1.0;stroke-dasharray:1.0,2.0;" x1="23.5" x2="134.5" y1="148.5998" y2="148.5998"/><rect fill="none" height="6" style="stroke:#C82930;stroke-width:1.0;" width="6" x="30.5" y="156.5998"/><text fill="#000000" font-family="sans-serif" font-size="14" lengthAdjust="spacing" textLength="87" x="42.5" y="166.5997">phoneNumber</text><rect fill="none" height="6" style="stroke:#C82930;stroke-width:1.0;" width="6" x="30.5" y="173.3997"/><text fill="#000000" font-family="sans-serif" font-size="14" lengthAdjust="spacing" textLength="83" x="42.5" y="183.3997">emailAddress</text></g><!--MD5=[a87e4590ce7090a69ece8af29152749d]
link PetOwner to Pet--><g id="link_PetOwner_Pet"><path codeLine="35" d="M147.69,115.5 C147.69,115.5 154.84,115.5 157.81,115.5 " fill="none" id="PetOwner-Pet" style="stroke:#181818;stroke-width:1.0;"/><polygon fill="#181818" points="170.87,115.5,161.87,111.5,165.87,115.5,161.87,119.5,170.87,115.5" style="stroke:#181818;stroke-width:1.0;"/><line style="stroke:#181818;stroke-width:1.0;" x1="165.87" x2="157.87" y1="115.5" y2="115.5"/><polygon fill="#181818" points="135.69,115.5,141.69,119.5,147.69,115.5,141.69,111.5,135.69,115.5" style="stroke:#181818;stroke-width:1.0;"/><text fill="#000000" font-family="sans-serif" font-size="13" lengthAdjust="spacing" textLength="18" x="144.8876" y="112.3669">0..*</text></g><!--MD5=[e12e2eae0a438494ff4d1b415f73d93b]
@startuml
hide empty members
hide methods

skinparam class {
	BackgroundColor<<desc>> Cyan
	BackgroundColor<<ppt>> LightGreen
	BackgroundColor<<mi>> LightPink
	BackgroundColor<<role>> LightYellow
}


package pets {

    class Pet <<ppt>> {
        +id
        ..
        #petOwner
        #name
        ..
        version
    }

    class PetOwner <<role>> {
        +id
        ..
        #lastName
        #firstName
        ..
        -phoneNumber
        -emailAddress
    }
}


PetOwner *-r- -> "0..*" Pet
@enduml

PlantUML version 1.2022.5(Sat Apr 30 10:55:52 GMT 2022)
(GPL source distribution)
Java Runtime: OpenJDK Runtime Environment
JVM: OpenJDK 64-Bit Server VM
Default Encoding: UTF-8
Language: en
Country: US
--></g></svg>