<?xml version="1.0" encoding="UTF-8" standalone="no"?><svg xmlns="http://www.w3.org/2000/svg" xmlns:xlink="http://www.w3.org/1999/xlink" contentStyleType="text/css" height="431px" preserveAspectRatio="none" style="width:500px;height:431px;background:#FFFFFF;" version="1.1" viewBox="0 0 500 431" width="500px" zoomAndPan="magnify"><defs/><g><!--MD5=[bf52ada63cd2e6cd3f37b8d0408107a6]
cluster pets--><g id="cluster_pets"><path d="M8.5,6 L39.5,6 A3.75,3.75 0 0 1 42,8.5 L49,28.7999 L270.5,28.7999 A2.5,2.5 0 0 1 273,31.2999 L273,413 A2.5,2.5 0 0 1 270.5,415.5 L8.5,415.5 A2.5,2.5 0 0 1 6,413 L6,8.5 A2.5,2.5 0 0 1 8.5,6 " style="stroke:#000000;stroke-width:1.5;fill:none;"/><line style="stroke:#000000;stroke-width:1.5;fill:none;" x1="6" x2="49" y1="28.7999" y2="28.7999"/><text fill="#000000" font-family="sans-serif" font-size="14" font-weight="bold" lengthAdjust="spacing" textLength="30" x="10" y="21.9999">pets</text></g><!--MD5=[d43df49e7bbc0a5622b66b0739f0a946]
cluster visits--><g id="cluster_visits"><path d="M299.5,182 L337.5,182 A3.75,3.75 0 0 1 340,184.5 L347,204.7999 L490.5,204.7999 A2.5,2.5 0 0 1 493,207.2999 L493,421.5 A2.5,2.5 0 0 1 490.5,424 L299.5,424 A2.5,2.5 0 0 1 297,421.5 L297,184.5 A2.5,2.5 0 0 1 299.5,182 " style="stroke:#000000;stroke-width:1.5;fill:none;"/><line style="stroke:#000000;stroke-width:1.5;fill:none;" x1="297" x2="347" y1="204.7999" y2="204.7999"/><text fill="#000000" font-family="sans-serif" font-size="14" font-weight="bold" lengthAdjust="spacing" textLength="37" x="301" y="197.9999">visits</text></g><!--MD5=[090b45072795caa641b719bb9659a4d2]
class PetSpecies--><g id="elem_PetSpecies"><rect codeLine="14" fill="#00FFFF" height="116.3997" id="PetSpecies" rx="2.5" ry="2.5" style="stroke:#181818;stroke-width:0.5;" width="100" x="157" y="41"/><ellipse cx="172" cy="61.6" fill="#EB937F" rx="11" ry="11" style="stroke:#181818;stroke-width:1.0;"/><path d="M174.1563,64.0219 Q174.1563,62.8813 175,62.8813 Q175.8438,62.8813 175.8438,64.0219 L175.8438,66.6 L167.8438,66.6 Q166.7188,66.6 166.7188,65.7563 Q166.7188,64.8969 167.8438,64.8969 L168.0938,64.8969 L168.0938,58.3813 L167.8438,58.3813 Q166.7188,58.3813 166.7188,57.5375 Q166.7188,57.0531 167,56.8813 Q167.2969,56.6938 167.8438,56.6938 L175.4688,56.6938 L175.4688,59.2406 Q175.4688,60.3813 174.625,60.3813 Q173.7813,60.3813 173.7813,59.2406 L173.7813,58.3813 L169.7969,58.3813 L169.7969,60.7875 L171.25,60.7875 L171.25,60.6625 Q171.25,59.5219 172.0781,59.5219 Q172.9219,59.5219 172.9219,60.6625 L172.9219,62.5844 Q172.9219,63.7094 172.0938,63.7094 Q171.25,63.7094 171.25,62.5844 L171.25,62.475 L169.7969,62.475 L169.7969,64.8969 L174.1563,64.8969 L174.1563,64.0219 Z " fill="#000000"/><text fill="#000000" font-family="sans-serif" font-size="12" font-style="italic" lengthAdjust="spacing" textLength="36" x="202" y="58.0001">«desc»</text><text fill="#000000" font-family="sans-serif" font-size="14" lengthAdjust="spacing" textLength="68" x="186" y="74.4">PetSpecies</text><line style="stroke:#181818;stroke-width:0.5;" x1="158" x2="256" y1="82.2" y2="82.2"/><text fill="#000000" font-family="sans-serif" font-size="14" lengthAdjust="spacing" textLength="25" x="163" y="100.2">Dog</text><text fill="#000000" font-family="sans-serif" font-size="14" lengthAdjust="spacing" textLength="22" x="163" y="116.9999">Cat</text><text fill="#000000" font-family="sans-serif" font-size="14" lengthAdjust="spacing" textLength="52" x="163" y="133.7998">Hamster</text><text fill="#000000" font-family="sans-serif" font-size="14" lengthAdjust="spacing" textLength="69" x="163" y="150.5997">Budgerigar</text></g><!--MD5=[9cfa872a99fa8e70a8c023fe905238fd]
class Pet--><g id="elem_Pet"><rect codeLine="21" fill="#90EE90" height="173.9996" id="Pet" rx="2.5" ry="2.5" style="stroke:#181818;stroke-width:0.5;" width="86" x="171" y="225.5"/><ellipse cx="199.95" cy="246.1" fill="#ADD1B2" rx="11" ry="11" style="stroke:#181818;stroke-width:1.0;"/><path d="M199.3094,249.8813 Q200.1063,249.8813 200.6688,249.6938 Q201.2469,249.4906 201.4813,249.2719 Q201.7313,249.0375 201.9656,248.85 Q202.2156,248.6469 202.4344,248.6469 Q202.7781,248.6469 203.0281,248.9125 Q203.2938,249.1625 203.2938,249.4906 Q203.2938,250.225 202.1219,250.9125 Q200.9656,251.5844 199.2625,251.5844 Q197.1063,251.5844 195.6844,250.3188 Q194.2625,249.0531 194.2625,247.1156 L194.2625,245.9906 Q194.2625,243.9594 195.5906,242.5844 Q196.9188,241.1938 198.8875,241.1938 Q200.075,241.1938 201.2938,241.7719 L201.4656,241.85 Q201.7625,241.4438 202.1844,241.4438 Q202.6688,241.4438 202.8406,241.7406 Q203.0281,242.0219 203.0281,242.5688 L203.0281,243.9906 Q203.0281,245.1156 202.1844,245.1156 Q201.8719,245.1156 201.6688,244.9438 Q201.4813,244.7719 201.4344,244.6313 Q201.4031,244.475 201.3563,244.2094 Q201.2469,243.6938 200.7313,243.3813 Q200.2156,243.0688 199.7625,242.9906 Q199.325,242.8969 198.95,242.8969 Q197.6688,242.8969 196.8094,243.7719 Q195.9656,244.6469 195.9656,245.9906 L195.9656,247.0844 Q195.9656,248.3656 196.8719,249.1313 Q197.7781,249.8813 199.3094,249.8813 Z " fill="#000000"/><text fill="#000000" font-family="sans-serif" font-size="12" font-style="italic" lengthAdjust="spacing" textLength="27" x="215.05" y="242.5001">«ppt»</text><text fill="#000000" font-family="sans-serif" font-size="14" lengthAdjust="spacing" textLength="20" x="218.55" y="258.9">Pet</text><line style="stroke:#181818;stroke-width:0.5;" x1="172" x2="256" y1="266.7" y2="266.7"/><ellipse cx="182" cy="277.7" fill="none" rx="3" ry="3" style="stroke:#038048;stroke-width:1.0;"/><text fill="#000000" font-family="sans-serif" font-size="14" lengthAdjust="spacing" textLength="11" x="191" y="284.7">id</text><line style="stroke:#181818;stroke-width:1.0;stroke-dasharray:1.0,2.0;" x1="172" x2="256" y1="291.5" y2="291.5"/><polygon fill="none" points="182,297.5,186,301.5,182,305.5,178,301.5" style="stroke:#B38D22;stroke-width:1.0;"/><text fill="#000000" font-family="sans-serif" font-size="14" lengthAdjust="spacing" textLength="60" x="191" y="309.4999">petOwner</text><polygon fill="none" points="182,314.2999,186,318.2999,182,322.2999,178,318.2999" style="stroke:#B38D22;stroke-width:1.0;"/><text fill="#000000" font-family="sans-serif" font-size="14" lengthAdjust="spacing" textLength="34" x="191" y="326.2998">name</text><line style="stroke:#181818;stroke-width:1.0;stroke-dasharray:1.0,2.0;" x1="172" x2="256" y1="333.0998" y2="333.0998"/><rect fill="none" height="6" style="stroke:#C82930;stroke-width:1.0;" width="6" x="179" y="341.0998"/><text fill="#000000" font-family="sans-serif" font-size="14" lengthAdjust="spacing" textLength="46" x="191" y="351.0997">species</text><rect fill="none" height="6" style="stroke:#C82930;stroke-width:1.0;" width="6" x="179" y="357.8997"/><text fill="#000000" font-family="sans-serif" font-size="14" lengthAdjust="spacing" textLength="33" x="191" y="367.8997">notes</text><line style="stroke:#181818;stroke-width:1.0;stroke-dasharray:1.0,2.0;" x1="172" x2="256" y1="374.6997" y2="374.6997"/><rect fill="none" height="6" style="stroke:#C82930;stroke-width:1.0;" width="6" x="179" y="382.6997"/><text fill="#000000" font-family="sans-serif" font-size="14" lengthAdjust="spacing" textLength="44" x="191" y="392.6996">version</text></g><!--MD5=[298f3cc1e9c072e56c2f010460aa72aa]
class PetOwner--><g id="elem_PetOwner"><rect codeLine="34" fill="#FFFFE0" height="149.1997" id="PetOwner" rx="2.5" ry="2.5" style="stroke:#181818;stroke-width:0.5;" width="113" x="22.5" y="238"/><ellipse cx="46.5" cy="258.6" fill="#ADD1B2" rx="11" ry="11" style="stroke:#181818;stroke-width:1.0;"/><path d="M45.8594,262.3813 Q46.6563,262.3813 47.2188,262.1938 Q47.7969,261.9906 48.0313,261.7719 Q48.2813,261.5375 48.5156,261.35 Q48.7656,261.1469 48.9844,261.1469 Q49.3281,261.1469 49.5781,261.4125 Q49.8438,261.6625 49.8438,261.9906 Q49.8438,262.725 48.6719,263.4125 Q47.5156,264.0844 45.8125,264.0844 Q43.6563,264.0844 42.2344,262.8188 Q40.8125,261.5531 40.8125,259.6156 L40.8125,258.4906 Q40.8125,256.4594 42.1406,255.0844 Q43.4688,253.6938 45.4375,253.6938 Q46.625,253.6938 47.8438,254.2719 L48.0156,254.35 Q48.3125,253.9438 48.7344,253.9438 Q49.2188,253.9438 49.3906,254.2406 Q49.5781,254.5219 49.5781,255.0688 L49.5781,256.4906 Q49.5781,257.6156 48.7344,257.6156 Q48.4219,257.6156 48.2188,257.4438 Q48.0313,257.2719 47.9844,257.1313 Q47.9531,256.975 47.9063,256.7094 Q47.7969,256.1938 47.2813,255.8813 Q46.7656,255.5688 46.3125,255.4906 Q45.875,255.3969 45.5,255.3969 Q44.2188,255.3969 43.3594,256.2719 Q42.5156,257.1469 42.5156,258.4906 L42.5156,259.5844 Q42.5156,260.8656 43.4219,261.6313 Q44.3281,262.3813 45.8594,262.3813 Z " fill="#000000"/><text fill="#000000" font-family="sans-serif" font-size="12" font-style="italic" lengthAdjust="spacing" textLength="31" x="77.5" y="255.0001">«role»</text><text fill="#000000" font-family="sans-serif" font-size="14" lengthAdjust="spacing" textLength="61" x="62.5" y="271.4">PetOwner</text><line style="stroke:#181818;stroke-width:0.5;" x1="23.5" x2="134.5" y1="279.2" y2="279.2"/><ellipse cx="33.5" cy="290.2" fill="none" rx="3" ry="3" style="stroke:#038048;stroke-width:1.0;"/><text fill="#000000" font-family="sans-serif" font-size="14" lengthAdjust="spacing" textLength="11" x="42.5" y="297.2">id</text><line style="stroke:#181818;stroke-width:1.0;stroke-dasharray:1.0,2.0;" x1="23.5" x2="134.5" y1="304" y2="304"/><polygon fill="none" points="33.5,310,37.5,314,33.5,318,29.5,314" style="stroke:#B38D22;stroke-width:1.0;"/><text fill="#000000" font-family="sans-serif" font-size="14" lengthAdjust="spacing" textLength="58" x="42.5" y="321.9999">lastName</text><polygon fill="none" points="33.5,326.7999,37.5,330.7999,33.5,334.7999,29.5,330.7999" style="stroke:#B38D22;stroke-width:1.0;"/><text fill="#000000" font-family="sans-serif" font-size="14" lengthAdjust="spacing" textLength="59" x="42.5" y="338.7998">firstName</text><line style="stroke:#181818;stroke-width:1.0;stroke-dasharray:1.0,2.0;" x1="23.5" x2="134.5" y1="345.5998" y2="345.5998"/><rect fill="none" height="6" style="stroke:#C82930;stroke-width:1.0;" width="6" x="30.5" y="353.5998"/><text fill="#000000" font-family="sans-serif" font-size="14" lengthAdjust="spacing" textLength="87" x="42.5" y="363.5997">phoneNumber</text><rect fill="none" height="6" style="stroke:#C82930;stroke-width:1.0;" width="6" x="30.5" y="370.3997"/><text fill="#000000" font-family="sans-serif" font-size="14" lengthAdjust="spacing" textLength="83" x="42.5" y="380.3997">emailAddress</text></g><!--MD5=[e049a9fc6087ec9a0b5519edf8a49765]
class Visit--><g id="elem_Visit"><rect codeLine="48" fill="#FFB6C1" height="190.7995" id="Visit" rx="2.5" ry="2.5" style="stroke:#181818;stroke-width:0.5;" width="163" x="313.5" y="217"/><ellipse cx="377.75" cy="237.6" fill="#ADD1B2" rx="11" ry="11" style="stroke:#181818;stroke-width:1.0;"/><path d="M377.1094,241.3813 Q377.9063,241.3813 378.4688,241.1938 Q379.0469,240.9906 379.2813,240.7719 Q379.5313,240.5375 379.7656,240.35 Q380.0156,240.1469 380.2344,240.1469 Q380.5781,240.1469 380.8281,240.4125 Q381.0938,240.6625 381.0938,240.9906 Q381.0938,241.725 379.9219,242.4125 Q378.7656,243.0844 377.0625,243.0844 Q374.9063,243.0844 373.4844,241.8188 Q372.0625,240.5531 372.0625,238.6156 L372.0625,237.4906 Q372.0625,235.4594 373.3906,234.0844 Q374.7188,232.6938 376.6875,232.6938 Q377.875,232.6938 379.0938,233.2719 L379.2656,233.35 Q379.5625,232.9438 379.9844,232.9438 Q380.4688,232.9438 380.6406,233.2406 Q380.8281,233.5219 380.8281,234.0688 L380.8281,235.4906 Q380.8281,236.6156 379.9844,236.6156 Q379.6719,236.6156 379.4688,236.4438 Q379.2813,236.2719 379.2344,236.1313 Q379.2031,235.975 379.1563,235.7094 Q379.0469,235.1938 378.5313,234.8813 Q378.0156,234.5688 377.5625,234.4906 Q377.125,234.3969 376.75,234.3969 Q375.4688,234.3969 374.6094,235.2719 Q373.7656,236.1469 373.7656,237.4906 L373.7656,238.5844 Q373.7656,239.8656 374.6719,240.6313 Q375.5781,241.3813 377.1094,241.3813 Z " fill="#000000"/><text fill="#000000" font-family="sans-serif" font-size="12" font-style="italic" lengthAdjust="spacing" textLength="23" x="399.75" y="234.0001">«mi»</text><text fill="#000000" font-family="sans-serif" font-size="14" lengthAdjust="spacing" textLength="26" x="398.25" y="250.4">Visit</text><line style="stroke:#181818;stroke-width:0.5;" x1="314.5" x2="475.5" y1="258.2" y2="258.2"/><ellipse cx="324.5" cy="269.2" fill="none" rx="3" ry="3" style="stroke:#038048;stroke-width:1.0;"/><text fill="#000000" font-family="sans-serif" font-size="14" lengthAdjust="spacing" textLength="11" x="333.5" y="276.2">id</text><line style="stroke:#181818;stroke-width:1.0;stroke-dasharray:1.0,2.0;" x1="314.5" x2="475.5" y1="283" y2="283"/><polygon fill="none" points="324.5,289,328.5,293,324.5,297,320.5,293" style="stroke:#B38D22;stroke-width:1.0;"/><text fill="#000000" font-family="sans-serif" font-size="14" lengthAdjust="spacing" textLength="19" x="333.5" y="300.9999">pet</text><polygon fill="none" points="324.5,305.7999,328.5,309.7999,324.5,313.7999,320.5,309.7999" style="stroke:#B38D22;stroke-width:1.0;"/><text fill="#000000" font-family="sans-serif" font-size="14" lengthAdjust="spacing" textLength="137" x="333.5" y="317.7998">visitAt: LocalDateTime</text><line style="stroke:#181818;stroke-width:1.0;stroke-dasharray:1.0,2.0;" x1="314.5" x2="475.5" y1="324.5998" y2="324.5998"/><rect fill="none" height="6" style="stroke:#C82930;stroke-width:1.0;" width="6" x="321.5" y="332.5998"/><text fill="#000000" font-family="sans-serif" font-size="14" lengthAdjust="spacing" textLength="42" x="333.5" y="342.5997">reason</text><line style="stroke:#181818;stroke-width:1.0;stroke-dasharray:1.0,2.0;" x1="314.5" x2="475.5" y1="349.3997" y2="349.3997"/><rect fill="none" height="6" style="stroke:#C82930;stroke-width:1.0;" width="6" x="321.5" y="357.3997"/><text fill="#000000" font-family="sans-serif" font-size="14" lengthAdjust="spacing" textLength="25" x="333.5" y="367.3997">cost</text><rect fill="none" height="6" style="stroke:#C82930;stroke-width:1.0;" width="6" x="321.5" y="374.1997"/><text fill="#000000" font-family="sans-serif" font-size="14" lengthAdjust="spacing" textLength="83" x="333.5" y="384.1996">paid: boolean</text><rect fill="none" height="6" style="stroke:#C82930;stroke-width:1.0;" width="6" x="321.5" y="390.9996"/><text fill="#000000" font-family="sans-serif" font-size="14" lengthAdjust="spacing" textLength="51" x="333.5" y="400.9995">outcome</text></g><!--MD5=[a87e4590ce7090a69ece8af29152749d]
link PetOwner to Pet--><g id="link_PetOwner_Pet"><path codeLine="63" d="M147.69,312.5 C147.69,312.5 154.84,312.5 157.81,312.5 " fill="none" id="PetOwner-Pet" style="stroke:#181818;stroke-width:1.0;"/><polygon fill="#181818" points="170.87,312.5,161.87,308.5,165.87,312.5,161.87,316.5,170.87,312.5" style="stroke:#181818;stroke-width:1.0;"/><line style="stroke:#181818;stroke-width:1.0;" x1="165.87" x2="157.87" y1="312.5" y2="312.5"/><polygon fill="#181818" points="135.69,312.5,141.69,316.5,147.69,312.5,141.69,308.5,135.69,312.5" style="stroke:#181818;stroke-width:1.0;"/><text fill="#000000" font-family="sans-serif" font-size="13" lengthAdjust="spacing" textLength="18" x="144.8876" y="309.3975">0..*</text></g><!--MD5=[bbb7bdc3ed87ac65eddf3444896f6ab4]
link Visit to Pet--><g id="link_Visit_Pet"><path codeLine="64" d="M313.41,312.5 C296.41,312.5 279.41,312.5 262.41,312.5 " fill="none" id="Visit-to-Pet" style="stroke:#181818;stroke-width:1.0;"/><polygon fill="#181818" points="257.13,312.5,266.13,316.5,262.13,312.5,266.13,308.5,257.13,312.5" style="stroke:#181818;stroke-width:1.0;"/><text fill="#000000" font-family="sans-serif" font-size="13" lengthAdjust="spacing" textLength="12" x="296.4736" y="293.0896">   </text><text fill="#000000" font-family="sans-serif" font-size="13" lengthAdjust="spacing" textLength="5" x="298.4736" y="308.6896">*</text></g><!--MD5=[7cf74b9fc99331c7f7f6dbd0d6c352bd]
reverse link PetSpecies to Pet--><g id="link_PetSpecies_Pet"><path codeLine="65" d="M209.07,162.45 C209.72,182.11 210.45,204.19 211.14,225.2 " fill="none" id="PetSpecies-backto-Pet" style="stroke:#181818;stroke-width:1.0;"/><polygon fill="#181818" points="208.89,157.23,205.2007,166.3618,209.0613,162.2271,213.196,166.0877,208.89,157.23" style="stroke:#181818;stroke-width:1.0;"/><text fill="#000000" font-family="sans-serif" font-size="13" lengthAdjust="spacing" textLength="5" x="205.6626" y="214.7836">*</text></g><!--MD5=[1125e4a79d8389b16c3d3941aa2f63e0]
@startuml
hide empty members
hide methods

skinparam class {
	BackgroundColor<<desc>> Cyan
	BackgroundColor<<ppt>> LightGreen
	BackgroundColor<<mi>> LightPink
	BackgroundColor<<role>> LightYellow
}


package pets {

    enum PetSpecies <<desc>> {
        Dog
        Cat
        Hamster
        Budgerigar
    }

    class Pet <<ppt>> {
        +id
        ..
        #petOwner
        #name
        ..
        -species
        -notes
        ..
        -version
    }


    class PetOwner <<role>> {
        +id
        ..
        #lastName
        #firstName
        ..
        -phoneNumber
        -emailAddress
    }
}


package visits {

    class Visit <<mi>> {
        +id
        ..
        #pet
        #visitAt: LocalDateTime
        ..
        -reason
        ..
        -cost
        -paid: boolean
        -outcome
    }
}


PetOwner *-r- -> "0..*" Pet
Visit "   \n*" -r->  Pet
Pet  "*" -u-> PetSpecies
@enduml

PlantUML version 1.2022.5(Sat Apr 30 10:55:52 GMT 2022)
(GPL source distribution)
Java Runtime: OpenJDK Runtime Environment
JVM: OpenJDK 64-Bit Server VM
Default Encoding: UTF-8
Language: en
Country: US
--></g></svg>