<?xml version="1.0" encoding="UTF-8" standalone="no"?><svg xmlns="http://www.w3.org/2000/svg" xmlns:xlink="http://www.w3.org/1999/xlink" contentScriptType="application/ecmascript" contentStyleType="text/css" height="387px" preserveAspectRatio="none" style="width:458px;height:387px;background:#FFFFFF;" version="1.1" viewBox="0 0 458 387" width="458px" zoomAndPan="magnify"><defs><filter height="300%" id="f1wcpmforne9e" width="300%" x="-1" y="-1"><feGaussianBlur result="blurOut" stdDeviation="2.0"/><feColorMatrix in="blurOut" result="blurOut2" type="matrix" values="0 0 0 0 0 0 0 0 0 0 0 0 0 0 0 0 0 0 .4 0"/><feOffset dx="4.0" dy="4.0" in="blurOut2" result="blurOut3"/><feBlend in="SourceGraphic" in2="blurOut3" mode="normal"/></filter></defs><g><!--MD5=[bf52ada63cd2e6cd3f37b8d0408107a6]
cluster pets--><polygon fill="#FFFFFF" filter="url(#f1wcpmforne9e)" points="16,6,52,6,59,28.7999,253,28.7999,253,373.5,16,373.5,16,6" style="stroke:#000000;stroke-width:1.5;"/><line style="stroke:#000000;stroke-width:1.5;" x1="16" x2="59" y1="28.7999" y2="28.7999"/><text fill="#000000" font-family="sans-serif" font-size="14" font-weight="bold" lengthAdjust="spacing" textLength="30" x="20" y="21.9999">pets</text><!--MD5=[d43df49e7bbc0a5622b66b0739f0a946]
cluster visits--><polygon fill="#FFFFFF" filter="url(#f1wcpmforne9e)" points="277,166,320,166,327,188.7999,441,188.7999,441,380,277,380,277,166" style="stroke:#000000;stroke-width:1.5;"/><line style="stroke:#000000;stroke-width:1.5;" x1="277" x2="327" y1="188.7999" y2="188.7999"/><text fill="#000000" font-family="sans-serif" font-size="14" font-weight="bold" lengthAdjust="spacing" textLength="37" x="281" y="181.9999">visits</text><!--MD5=[090b45072795caa641b719bb9659a4d2]
class PetSpecies--><rect codeLine="14" fill="#00FFFF" filter="url(#f1wcpmforne9e)" height="99.5998" id="PetSpecies" style="stroke:#A80036;stroke-width:1.5;" width="91" x="145.5" y="41"/><ellipse cx="160.5" cy="60.4001" fill="#EB937F" rx="11" ry="11" style="stroke:#A80036;stroke-width:1.0;"/><path d="M162.6563,62.822 Q162.6563,61.6814 163.5,61.6814 Q164.3438,61.6814 164.3438,62.822 L164.3438,65.4001 L156.3438,65.4001 Q155.2188,65.4001 155.2188,64.5564 Q155.2188,63.697 156.3438,63.697 L156.5938,63.697 L156.5938,57.1814 L156.3438,57.1814 Q155.2188,57.1814 155.2188,56.3376 Q155.2188,55.8532 155.5,55.6814 Q155.7969,55.4939 156.3438,55.4939 L163.9688,55.4939 L163.9688,58.0407 Q163.9688,59.1814 163.125,59.1814 Q162.2813,59.1814 162.2813,58.0407 L162.2813,57.1814 L158.2969,57.1814 L158.2969,59.5876 L159.75,59.5876 L159.75,59.4626 Q159.75,58.322 160.5781,58.322 Q161.4219,58.322 161.4219,59.4626 L161.4219,61.3845 Q161.4219,62.5095 160.5938,62.5095 Q159.75,62.5095 159.75,61.3845 L159.75,61.2751 L158.2969,61.2751 L158.2969,63.697 L162.6563,63.697 L162.6563,62.822 Z " fill="#000000"/><text fill="#000000" font-family="sans-serif" font-size="12" font-style="italic" lengthAdjust="spacing" textLength="36" x="186" y="58.0001">«desc»</text><text fill="#000000" font-family="sans-serif" font-size="12" lengthAdjust="spacing" textLength="59" x="174.5" y="72.4002">PetSpecies</text><line style="stroke:#A80036;stroke-width:1.5;" x1="146.5" x2="235.5" y1="79.8002" y2="79.8002"/><text fill="#000000" font-family="sans-serif" font-size="11" lengthAdjust="spacing" textLength="20" x="151.5" y="94.8001">Dog</text><text fill="#000000" font-family="sans-serif" font-size="11" lengthAdjust="spacing" textLength="17" x="151.5" y="108">Cat</text><text fill="#000000" font-family="sans-serif" font-size="11" lengthAdjust="spacing" textLength="41" x="151.5" y="121.1999">Hamster</text><text fill="#000000" font-family="sans-serif" font-size="11" lengthAdjust="spacing" textLength="53" x="151.5" y="134.3998">Budgerigar</text><!--MD5=[9cfa872a99fa8e70a8c023fe905238fd]
class Pet--><rect codeLine="21" fill="#90EE90" filter="url(#f1wcpmforne9e)" height="149.9996" id="Pet" style="stroke:#A80036;stroke-width:1.5;" width="74" x="163" y="207.5"/><ellipse cx="186.55" cy="226.9001" fill="#ADD1B2" rx="11" ry="11" style="stroke:#A80036;stroke-width:1.0;"/><path d="M185.9094,230.6814 Q186.7063,230.6814 187.2688,230.4939 Q187.8469,230.2907 188.0813,230.072 Q188.3313,229.8376 188.5656,229.6501 Q188.8156,229.447 189.0344,229.447 Q189.3781,229.447 189.6281,229.7126 Q189.8938,229.9626 189.8938,230.2907 Q189.8938,231.0251 188.7219,231.7126 Q187.5656,232.3845 185.8625,232.3845 Q183.7063,232.3845 182.2844,231.1189 Q180.8625,229.8532 180.8625,227.9157 L180.8625,226.7907 Q180.8625,224.7595 182.1906,223.3845 Q183.5188,221.9939 185.4875,221.9939 Q186.675,221.9939 187.8938,222.572 L188.0656,222.6501 Q188.3625,222.2439 188.7844,222.2439 Q189.2688,222.2439 189.4406,222.5407 Q189.6281,222.822 189.6281,223.3689 L189.6281,224.7907 Q189.6281,225.9157 188.7844,225.9157 Q188.4719,225.9157 188.2688,225.7439 Q188.0813,225.572 188.0344,225.4314 Q188.0031,225.2751 187.9563,225.0095 Q187.8469,224.4939 187.3313,224.1814 Q186.8156,223.8689 186.3625,223.7907 Q185.925,223.697 185.55,223.697 Q184.2688,223.697 183.4094,224.572 Q182.5656,225.447 182.5656,226.7907 L182.5656,227.8845 Q182.5656,229.1657 183.4719,229.9314 Q184.3781,230.6814 185.9094,230.6814 Z " fill="#000000"/><text fill="#000000" font-family="sans-serif" font-size="12" font-style="italic" lengthAdjust="spacing" textLength="27" x="200.45" y="224.5001">«ppt»</text><text fill="#000000" font-family="sans-serif" font-size="12" lengthAdjust="spacing" textLength="17" x="205.45" y="238.9002">Pet</text><line style="stroke:#A80036;stroke-width:1.5;" x1="164" x2="236" y1="246.3002" y2="246.3002"/><ellipse cx="174" cy="257.3002" rx="3" ry="3" style="stroke:#038048;stroke-width:1.0;fill:none;"/><text fill="#000000" font-family="sans-serif" font-size="11" lengthAdjust="spacing" textLength="8" x="183" y="261.3001">id</text><line style="stroke:#A80036;stroke-width:1.0;stroke-dasharray:1.0,2.0;" x1="164" x2="236" y1="267.5001" y2="267.5001"/><polygon fill="none" points="174,273.5001,178,277.5001,174,281.5001,170,277.5001" style="stroke:#B38D22;stroke-width:1.0;"/><text fill="#000000" font-family="sans-serif" font-size="11" lengthAdjust="spacing" textLength="48" x="183" y="282.5">petOwner</text><polygon fill="none" points="174,286.7,178,290.7,174,294.7,170,290.7" style="stroke:#B38D22;stroke-width:1.0;"/><text fill="#000000" font-family="sans-serif" font-size="11" lengthAdjust="spacing" textLength="27" x="183" y="295.6999">name</text><line style="stroke:#A80036;stroke-width:1.0;stroke-dasharray:1.0,2.0;" x1="164" x2="236" y1="301.8999" y2="301.8999"/><rect fill="none" height="6" style="stroke:#C82930;stroke-width:1.0;" width="6" x="171" y="309.8999"/><text fill="#000000" font-family="sans-serif" font-size="11" lengthAdjust="spacing" textLength="36" x="183" y="316.8998">species</text><rect fill="none" height="6" style="stroke:#C82930;stroke-width:1.0;" width="6" x="171" y="323.0998"/><text fill="#000000" font-family="sans-serif" font-size="11" lengthAdjust="spacing" textLength="26" x="183" y="330.0997">notes</text><line style="stroke:#A80036;stroke-width:1.0;stroke-dasharray:1.0,2.0;" x1="164" x2="236" y1="336.2997" y2="336.2997"/><rect fill="none" height="6" style="stroke:#C82930;stroke-width:1.0;" width="6" x="171" y="344.2997"/><text fill="#000000" font-family="sans-serif" font-size="11" lengthAdjust="spacing" textLength="34" x="183" y="351.2996">version</text><!--MD5=[298f3cc1e9c072e56c2f010460aa72aa]
class PetOwner--><rect codeLine="34" fill="#FFFFE0" filter="url(#f1wcpmforne9e)" height="128.7997" id="PetOwner" style="stroke:#A80036;stroke-width:1.5;" width="95" x="32.5" y="218"/><ellipse cx="52.9" cy="237.4001" fill="#ADD1B2" rx="11" ry="11" style="stroke:#A80036;stroke-width:1.0;"/><path d="M52.2594,241.1814 Q53.0563,241.1814 53.6188,240.9939 Q54.1969,240.7907 54.4313,240.572 Q54.6813,240.3376 54.9156,240.1501 Q55.1656,239.947 55.3844,239.947 Q55.7281,239.947 55.9781,240.2126 Q56.2438,240.4626 56.2438,240.7907 Q56.2438,241.5251 55.0719,242.2126 Q53.9156,242.8845 52.2125,242.8845 Q50.0563,242.8845 48.6344,241.6189 Q47.2125,240.3532 47.2125,238.4157 L47.2125,237.2907 Q47.2125,235.2595 48.5406,233.8845 Q49.8688,232.4939 51.8375,232.4939 Q53.025,232.4939 54.2438,233.072 L54.4156,233.1501 Q54.7125,232.7439 55.1344,232.7439 Q55.6188,232.7439 55.7906,233.0407 Q55.9781,233.322 55.9781,233.8689 L55.9781,235.2907 Q55.9781,236.4157 55.1344,236.4157 Q54.8219,236.4157 54.6188,236.2439 Q54.4313,236.072 54.3844,235.9314 Q54.3531,235.7751 54.3063,235.5095 Q54.1969,234.9939 53.6813,234.6814 Q53.1656,234.3689 52.7125,234.2907 Q52.275,234.197 51.9,234.197 Q50.6188,234.197 49.7594,235.072 Q48.9156,235.947 48.9156,237.2907 L48.9156,238.3845 Q48.9156,239.6657 49.8219,240.4314 Q50.7281,241.1814 52.2594,241.1814 Z " fill="#000000"/><text fill="#000000" font-family="sans-serif" font-size="12" font-style="italic" lengthAdjust="spacing" textLength="31" x="78.1" y="235.0001">«role»</text><text fill="#000000" font-family="sans-serif" font-size="12" lengthAdjust="spacing" textLength="51" x="68.1" y="249.4002">PetOwner</text><line style="stroke:#A80036;stroke-width:1.5;" x1="33.5" x2="126.5" y1="256.8002" y2="256.8002"/><ellipse cx="43.5" cy="267.8002" rx="3" ry="3" style="stroke:#038048;stroke-width:1.0;fill:none;"/><text fill="#000000" font-family="sans-serif" font-size="11" lengthAdjust="spacing" textLength="8" x="52.5" y="271.8001">id</text><line style="stroke:#A80036;stroke-width:1.0;stroke-dasharray:1.0,2.0;" x1="33.5" x2="126.5" y1="278.0001" y2="278.0001"/><polygon fill="none" points="43.5,284.0001,47.5,288.0001,43.5,292.0001,39.5,288.0001" style="stroke:#B38D22;stroke-width:1.0;"/><text fill="#000000" font-family="sans-serif" font-size="11" lengthAdjust="spacing" textLength="45" x="52.5" y="293">lastName</text><polygon fill="none" points="43.5,297.2,47.5,301.2,43.5,305.2,39.5,301.2" style="stroke:#B38D22;stroke-width:1.0;"/><text fill="#000000" font-family="sans-serif" font-size="11" lengthAdjust="spacing" textLength="46" x="52.5" y="306.1999">firstName</text><line style="stroke:#A80036;stroke-width:1.0;stroke-dasharray:1.0,2.0;" x1="33.5" x2="126.5" y1="312.3999" y2="312.3999"/><rect fill="none" height="6" style="stroke:#C82930;stroke-width:1.0;" width="6" x="40.5" y="320.3999"/><text fill="#000000" font-family="sans-serif" font-size="11" lengthAdjust="spacing" textLength="69" x="52.5" y="327.3998">phoneNumber</text><rect fill="none" height="6" style="stroke:#C82930;stroke-width:1.0;" width="6" x="40.5" y="333.5998"/><text fill="#000000" font-family="sans-serif" font-size="11" lengthAdjust="spacing" textLength="64" x="52.5" y="340.5997">emailAddress</text><!--MD5=[e049a9fc6087ec9a0b5519edf8a49765]
class Visit--><rect codeLine="48" fill="#FFB6C1" filter="url(#f1wcpmforne9e)" height="163.1995" id="Visit" style="stroke:#A80036;stroke-width:1.5;" width="132" x="293" y="201"/><ellipse cx="343.25" cy="220.4001" fill="#ADD1B2" rx="11" ry="11" style="stroke:#A80036;stroke-width:1.0;"/><path d="M342.6094,224.1814 Q343.4063,224.1814 343.9688,223.9939 Q344.5469,223.7907 344.7813,223.572 Q345.0313,223.3376 345.2656,223.1501 Q345.5156,222.947 345.7344,222.947 Q346.0781,222.947 346.3281,223.2126 Q346.5938,223.4626 346.5938,223.7907 Q346.5938,224.5251 345.4219,225.2126 Q344.2656,225.8845 342.5625,225.8845 Q340.4063,225.8845 338.9844,224.6189 Q337.5625,223.3532 337.5625,221.4157 L337.5625,220.2907 Q337.5625,218.2595 338.8906,216.8845 Q340.2188,215.4939 342.1875,215.4939 Q343.375,215.4939 344.5938,216.072 L344.7656,216.1501 Q345.0625,215.7439 345.4844,215.7439 Q345.9688,215.7439 346.1406,216.0407 Q346.3281,216.322 346.3281,216.8689 L346.3281,218.2907 Q346.3281,219.4157 345.4844,219.4157 Q345.1719,219.4157 344.9688,219.2439 Q344.7813,219.072 344.7344,218.9314 Q344.7031,218.7751 344.6563,218.5095 Q344.5469,217.9939 344.0313,217.6814 Q343.5156,217.3689 343.0625,217.2907 Q342.625,217.197 342.25,217.197 Q340.9688,217.197 340.1094,218.072 Q339.2656,218.947 339.2656,220.2907 L339.2656,221.3845 Q339.2656,222.6657 340.1719,223.4314 Q341.0781,224.1814 342.6094,224.1814 Z " fill="#000000"/><text fill="#000000" font-family="sans-serif" font-size="12" font-style="italic" lengthAdjust="spacing" textLength="23" x="363.75" y="218.0001">«mi»</text><text fill="#000000" font-family="sans-serif" font-size="12" lengthAdjust="spacing" textLength="23" x="363.75" y="232.4002">Visit</text><line style="stroke:#A80036;stroke-width:1.5;" x1="294" x2="424" y1="239.8002" y2="239.8002"/><ellipse cx="304" cy="250.8002" rx="3" ry="3" style="stroke:#038048;stroke-width:1.0;fill:none;"/><text fill="#000000" font-family="sans-serif" font-size="11" lengthAdjust="spacing" textLength="8" x="313" y="254.8001">id</text><line style="stroke:#A80036;stroke-width:1.0;stroke-dasharray:1.0,2.0;" x1="294" x2="424" y1="261.0001" y2="261.0001"/><polygon fill="none" points="304,267.0001,308,271.0001,304,275.0001,300,271.0001" style="stroke:#B38D22;stroke-width:1.0;"/><text fill="#000000" font-family="sans-serif" font-size="11" lengthAdjust="spacing" textLength="15" x="313" y="276">pet</text><polygon fill="none" points="304,280.2,308,284.2,304,288.2,300,284.2" style="stroke:#B38D22;stroke-width:1.0;"/><text fill="#000000" font-family="sans-serif" font-size="11" lengthAdjust="spacing" textLength="106" x="313" y="289.1999">visitAt: LocalDateTime</text><line style="stroke:#A80036;stroke-width:1.0;stroke-dasharray:1.0,2.0;" x1="294" x2="424" y1="295.3999" y2="295.3999"/><rect fill="none" height="6" style="stroke:#C82930;stroke-width:1.0;" width="6" x="301" y="303.3999"/><text fill="#000000" font-family="sans-serif" font-size="11" lengthAdjust="spacing" textLength="33" x="313" y="310.3998">reason</text><line style="stroke:#A80036;stroke-width:1.0;stroke-dasharray:1.0,2.0;" x1="294" x2="424" y1="316.5998" y2="316.5998"/><rect fill="none" height="6" style="stroke:#C82930;stroke-width:1.0;" width="6" x="301" y="324.5998"/><text fill="#000000" font-family="sans-serif" font-size="11" lengthAdjust="spacing" textLength="20" x="313" y="331.5997">cost</text><rect fill="none" height="6" style="stroke:#C82930;stroke-width:1.0;" width="6" x="301" y="337.7997"/><text fill="#000000" font-family="sans-serif" font-size="11" lengthAdjust="spacing" textLength="64" x="313" y="344.7996">paid: boolean</text><rect fill="none" height="6" style="stroke:#C82930;stroke-width:1.0;" width="6" x="301" y="350.9996"/><text fill="#000000" font-family="sans-serif" font-size="11" lengthAdjust="spacing" textLength="42" x="313" y="357.9995">outcome</text><!--MD5=[a87e4590ce7090a69ece8af29152749d]
link PetOwner to Pet--><path codeLine="63" d="M139.81,282.5 C139.81,282.5 146.62,282.5 149.46,282.5 " fill="none" id="PetOwner-Pet" style="stroke:#A80036;stroke-width:1.0;"/><polygon fill="#A80036" points="162.78,282.5,153.78,278.5,157.78,282.5,153.78,286.5,162.78,282.5" style="stroke:#A80036;stroke-width:1.0;"/><line style="stroke:#A80036;stroke-width:1.0;" x1="157.78" x2="149.78" y1="282.5" y2="282.5"/><polygon fill="#A80036" points="127.81,282.5,133.81,286.5,139.81,282.5,133.81,278.5,127.81,282.5" style="stroke:#A80036;stroke-width:1.0;"/><text fill="#000000" font-family="sans-serif" font-size="13" lengthAdjust="spacing" textLength="18" x="137.1248" y="279.3075">0..*</text><!--MD5=[bbb7bdc3ed87ac65eddf3444896f6ab4]
link Visit to Pet--><path codeLine="64" d="M292.9,282.5 C276.1,282.5 259.29,282.5 242.48,282.5 " fill="none" id="Visit-to-Pet" style="stroke:#A80036;stroke-width:1.0;"/><polygon fill="#A80036" points="237.27,282.5,246.27,286.5,242.27,282.5,246.27,278.5,237.27,282.5" style="stroke:#A80036;stroke-width:1.0;"/><text fill="#000000" font-family="sans-serif" font-size="13" lengthAdjust="spacing" textLength="0" x="285.1781" y="262.8047"/><text fill="#000000" font-family="sans-serif" font-size="13" lengthAdjust="spacing" textLength="5" x="278.1781" y="278.4047">*</text><!--MD5=[7cf74b9fc99331c7f7f6dbd0d6c352bd]
reverse link PetSpecies to Pet--><path codeLine="65" d="M193.59,146.57 C194.49,165.55 195.52,187.16 196.48,207.45 " fill="none" id="PetSpecies-backto-Pet" style="stroke:#A80036;stroke-width:1.0;"/><polygon fill="#A80036" points="193.34,141.29,189.7552,150.4633,193.5683,146.2848,197.7468,150.0979,193.34,141.29" style="stroke:#A80036;stroke-width:1.0;"/><text fill="#000000" font-family="sans-serif" font-size="13" lengthAdjust="spacing" textLength="5" x="190.8592" y="196.968">*</text><!--MD5=[705a09f7b82576dfddb8194d025228ad]
@startuml
hide empty members
hide methods

skinparam class {
	BackgroundColor<<desc>> Cyan
	BackgroundColor<<ppt>> LightGreen
	BackgroundColor<<mi>> LightPink
	BackgroundColor<<role>> LightYellow
}


package pets {

    enum PetSpecies <<desc>> {
        Dog
        Cat
        Hamster
        Budgerigar
    }

    class Pet <<ppt>> {
        +id
        ..
        #petOwner
        #name
        ..
        -species
        -notes
        ..
        -version
    }


    class PetOwner <<role>> {
        +id
        ..
        #lastName
        #firstName
        ..
        -phoneNumber
        -emailAddress
    }
}


package visits {

    class Visit <<mi>> {
        +id
        ..
        #pet
        #visitAt: LocalDateTime
        ..
        -reason
        ..
        -cost
        -paid: boolean
        -outcome
    }
}


PetOwner *-r- -> "0..*" Pet
Visit "   \n*" -r->  Pet
Pet  "*" -u-> PetSpecies
@enduml

PlantUML version 1.2021.16(Wed Dec 08 17:25:22 GMT 2021)
(GPL source distribution)
Java Runtime: OpenJDK Runtime Environment
JVM: OpenJDK 64-Bit Server VM
Default Encoding: UTF-8
Language: en
Country: US
--></g></svg>