<?xml version="1.0" encoding="us-ascii" standalone="no"?><svg xmlns="http://www.w3.org/2000/svg" xmlns:xlink="http://www.w3.org/1999/xlink" contentStyleType="text/css" height="407px" preserveAspectRatio="none" style="width:155px;height:407px;background:#FFFFFF;" version="1.1" viewBox="0 0 155 407" width="155px" zoomAndPan="magnify"><defs/><g><!--cluster pets--><g id="cluster_pets"><path d="M8.5,6 L44.5,6 A3.75,3.75 0 0 1 47,8.5 L54,28.2969 L145.5,28.2969 A2.5,2.5 0 0 1 148,30.7969 L148,398 A2.5,2.5 0 0 1 145.5,400.5 L8.5,400.5 A2.5,2.5 0 0 1 6,398 L6,8.5 A2.5,2.5 0 0 1 8.5,6 " fill="none" style="stroke:#000000;stroke-width:1.5;"/><line style="stroke:#000000;stroke-width:1.5;" x1="6" x2="54" y1="28.2969" y2="28.2969"/><text fill="#000000" font-family="sans-serif" font-size="14" font-weight="bold" lengthAdjust="spacing" textLength="35" x="10" y="20.9951">pets</text></g><!--class PetSpecies--><g id="elem_PetSpecies"><rect codeLine="14" fill="#00FFFF" height="113.4531" id="PetSpecies" rx="2.5" ry="2.5" style="stroke:#181818;stroke-width:0.5;" width="110" x="22" y="41"/><ellipse cx="37" cy="61.1328" fill="#EB937F" rx="11" ry="11" style="stroke:#181818;stroke-width:1.0;"/><path d="M41.1094,67.1328 L33.3906,67.1328 L33.3906,54.7422 L41.1094,54.7422 L41.1094,56.8984 L35.8438,56.8984 L35.8438,59.5703 L40.6094,59.5703 L40.6094,61.7266 L35.8438,61.7266 L35.8438,64.9766 L41.1094,64.9766 L41.1094,67.1328 Z " fill="#000000"/><text fill="#000000" font-family="sans-serif" font-size="12" font-style="italic" lengthAdjust="spacing" textLength="44" x="68" y="57.1387">&#171;desc&#187;</text><text fill="#000000" font-family="sans-serif" font-size="14" lengthAdjust="spacing" textLength="78" x="51" y="72.9639">PetSpecies</text><line style="stroke:#181818;stroke-width:0.5;" x1="23" x2="131" y1="81.2656" y2="81.2656"/><text fill="#000000" font-family="sans-serif" font-size="14" lengthAdjust="spacing" textLength="29" x="28" y="98.2607">Dog</text><text fill="#000000" font-family="sans-serif" font-size="14" lengthAdjust="spacing" textLength="23" x="28" y="114.5576">Cat</text><text fill="#000000" font-family="sans-serif" font-size="14" lengthAdjust="spacing" textLength="58" x="28" y="130.8545">Hamster</text><text fill="#000000" font-family="sans-serif" font-size="14" lengthAdjust="spacing" textLength="76" x="28" y="147.1514">Budgerigar</text></g><!--class Pet--><g id="elem_Pet"><rect codeLine="21" fill="#90EE90" height="170.0469" id="Pet" rx="2.5" ry="2.5" style="stroke:#181818;stroke-width:0.5;" width="94" x="30" y="214.45"/><ellipse cx="58.95" cy="234.5828" fill="#ADD1B2" rx="11" ry="11" style="stroke:#181818;stroke-width:1.0;"/><path d="M61.9188,240.2234 Q61.3406,240.5203 60.7,240.6609 Q60.0594,240.8172 59.3563,240.8172 Q56.8563,240.8172 55.5281,239.1766 Q54.2156,237.5203 54.2156,234.3953 Q54.2156,231.2703 55.5281,229.6141 Q56.8563,227.9578 59.3563,227.9578 Q60.0594,227.9578 60.7,228.1141 Q61.3563,228.2703 61.9188,228.5672 L61.9188,231.2859 Q61.2938,230.7078 60.7,230.4422 Q60.1063,230.1609 59.4813,230.1609 Q58.1375,230.1609 57.45,231.2391 Q56.7625,232.3016 56.7625,234.3953 Q56.7625,236.4891 57.45,237.5672 Q58.1375,238.6297 59.4813,238.6297 Q60.1063,238.6297 60.7,238.3641 Q61.2938,238.0828 61.9188,237.5047 L61.9188,240.2234 Z " fill="#000000"/><text fill="#000000" font-family="sans-serif" font-size="12" font-style="italic" lengthAdjust="spacing" textLength="35" x="74.05" y="230.5887">&#171;ppt&#187;</text><text fill="#000000" font-family="sans-serif" font-size="14" lengthAdjust="spacing" textLength="23" x="80.05" y="246.4139">Pet</text><line style="stroke:#181818;stroke-width:0.5;" x1="31" x2="123" y1="254.7156" y2="254.7156"/><ellipse cx="41" cy="268.3641" fill="none" rx="3" ry="3" style="stroke:#038048;stroke-width:1.0;"/><text fill="#000000" font-family="sans-serif" font-size="14" lengthAdjust="spacing" textLength="12" x="50" y="271.7107">id</text><line style="stroke:#181818;stroke-width:1.0;stroke-dasharray:1.0,2.0;" x1="31" x2="123" y1="279.0125" y2="279.0125"/><polygon fill="none" points="41,287.6609,45,291.6609,41,295.6609,37,291.6609" style="stroke:#B38D22;stroke-width:1.0;"/><text fill="#000000" font-family="sans-serif" font-size="14" lengthAdjust="spacing" textLength="68" x="50" y="296.0076">petOwner</text><polygon fill="none" points="41,303.9578,45,307.9578,41,311.9578,37,307.9578" style="stroke:#B38D22;stroke-width:1.0;"/><text fill="#000000" font-family="sans-serif" font-size="14" lengthAdjust="spacing" textLength="39" x="50" y="312.3045">name</text><line style="stroke:#181818;stroke-width:1.0;stroke-dasharray:1.0,2.0;" x1="31" x2="123" y1="319.6063" y2="319.6063"/><rect fill="none" height="6" style="stroke:#C82930;stroke-width:1.0;" width="6" x="38" y="330.2547"/><text fill="#000000" font-family="sans-serif" font-size="14" lengthAdjust="spacing" textLength="54" x="50" y="336.6014">species</text><rect fill="none" height="6" style="stroke:#C82930;stroke-width:1.0;" width="6" x="38" y="346.5516"/><text fill="#000000" font-family="sans-serif" font-size="14" lengthAdjust="spacing" textLength="40" x="50" y="352.8982">notes</text><line style="stroke:#181818;stroke-width:1.0;stroke-dasharray:1.0,2.0;" x1="31" x2="123" y1="360.2" y2="360.2"/><rect fill="none" height="6" style="stroke:#C82930;stroke-width:1.0;" width="6" x="38" y="370.8484"/><text fill="#000000" font-family="sans-serif" font-size="14" lengthAdjust="spacing" textLength="50" x="50" y="377.1951">version</text></g><!--reverse link PetSpecies to Pet--><g id="link_PetSpecies_Pet"><path codeLine="35" d="M77,160.9 C77,179.25 77,194.05 77,214 " fill="none" id="PetSpecies-backto-Pet" style="stroke:#181818;stroke-width:1.0;"/><polygon fill="#181818" points="77,154.9,73,163.9,77,159.9,81,163.9,77,154.9" style="stroke:#181818;stroke-width:1.0;"/><text fill="#000000" font-family="sans-serif" font-size="13" lengthAdjust="spacing" textLength="7" x="69.7102" y="203.373">*</text></g><!--SRC=[RP5DQiCm48NNrIc6PDVYd21u4HVQHQ61hhgSMWzPsFf1aXj2oDqhrrZnmaABDpCVCq-ZJaiGZ4zNCZ0_255qKyeWTKv68MAlhUV0Xjg1OwIRU3fnswlWHYiRDxXmF4h4jgwfkRBTg7gVSl53gowz1M0BCNeXpjhs6q1m0nRa6yFWBk8kXF2POmNoI9CpGVd0ZeREI5yUhKQaOk_sNvxEgrD5DvoAVcSJ4qA9JwDK25hndBhF0-Ozv0cqlEtH-KNBeW-78lVPuEV5hbhlBHjieLMSVJyIrgLLk4P_ytTfPnTp-KwkQFUyesgiwjKM_W00]--></g></svg>