<?xml version="1.0" encoding="UTF-8" standalone="no"?><svg xmlns="http://www.w3.org/2000/svg" xmlns:xlink="http://www.w3.org/1999/xlink" contentScriptType="application/ecmascript" contentStyleType="text/css" height="193px" preserveAspectRatio="none" style="width:270px;height:193px;background:#FFFFFF;" version="1.1" viewBox="0 0 270 193" width="270px" zoomAndPan="magnify"><defs><filter height="300%" id="f1gcxafh2f4inj" width="300%" x="-1" y="-1"><feGaussianBlur result="blurOut" stdDeviation="2.0"/><feColorMatrix in="blurOut" result="blurOut2" type="matrix" values="0 0 0 0 0 0 0 0 0 0 0 0 0 0 0 0 0 0 .4 0"/><feOffset dx="4.0" dy="4.0" in="blurOut2" result="blurOut3"/><feBlend in="SourceGraphic" in2="blurOut3" mode="normal"/></filter></defs><g><!--MD5=[bf52ada63cd2e6cd3f37b8d0408107a6]
cluster pets--><polygon fill="#FFFFFF" filter="url(#f1gcxafh2f4inj)" points="16,6,52,6,59,28.7999,253,28.7999,253,186,16,186,16,6" style="stroke:#000000;stroke-width:1.5;"/><line style="stroke:#000000;stroke-width:1.5;" x1="16" x2="59" y1="28.7999" y2="28.7999"/><text fill="#000000" font-family="sans-serif" font-size="14" font-weight="bold" lengthAdjust="spacing" textLength="30" x="20" y="21.9999">pets</text><!--MD5=[9cfa872a99fa8e70a8c023fe905238fd]
class Pet--><rect codeLine="14" fill="#90EE90" filter="url(#f1gcxafh2f4inj)" height="115.5998" id="Pet" style="stroke:#A80036;stroke-width:1.5;" width="74" x="163" y="47.5"/><ellipse cx="186.55" cy="66.9001" fill="#ADD1B2" rx="11" ry="11" style="stroke:#A80036;stroke-width:1.0;"/><path d="M185.9094,70.6814 Q186.7063,70.6814 187.2688,70.4939 Q187.8469,70.2907 188.0813,70.072 Q188.3313,69.8376 188.5656,69.6501 Q188.8156,69.447 189.0344,69.447 Q189.3781,69.447 189.6281,69.7126 Q189.8938,69.9626 189.8938,70.2907 Q189.8938,71.0251 188.7219,71.7126 Q187.5656,72.3845 185.8625,72.3845 Q183.7063,72.3845 182.2844,71.1189 Q180.8625,69.8532 180.8625,67.9157 L180.8625,66.7907 Q180.8625,64.7595 182.1906,63.3845 Q183.5188,61.9939 185.4875,61.9939 Q186.675,61.9939 187.8938,62.572 L188.0656,62.6501 Q188.3625,62.2439 188.7844,62.2439 Q189.2688,62.2439 189.4406,62.5407 Q189.6281,62.822 189.6281,63.3689 L189.6281,64.7907 Q189.6281,65.9157 188.7844,65.9157 Q188.4719,65.9157 188.2688,65.7439 Q188.0813,65.572 188.0344,65.4314 Q188.0031,65.2751 187.9563,65.0095 Q187.8469,64.4939 187.3313,64.1814 Q186.8156,63.8689 186.3625,63.7907 Q185.925,63.697 185.55,63.697 Q184.2688,63.697 183.4094,64.572 Q182.5656,65.447 182.5656,66.7907 L182.5656,67.8845 Q182.5656,69.1657 183.4719,69.9314 Q184.3781,70.6814 185.9094,70.6814 Z " fill="#000000"/><text fill="#000000" font-family="sans-serif" font-size="12" font-style="italic" lengthAdjust="spacing" textLength="27" x="200.45" y="64.5001">«ppt»</text><text fill="#000000" font-family="sans-serif" font-size="12" lengthAdjust="spacing" textLength="17" x="205.45" y="78.9002">Pet</text><line style="stroke:#A80036;stroke-width:1.5;" x1="164" x2="236" y1="86.3002" y2="86.3002"/><ellipse cx="174" cy="97.3002" rx="3" ry="3" style="stroke:#038048;stroke-width:1.0;fill:none;"/><text fill="#000000" font-family="sans-serif" font-size="11" lengthAdjust="spacing" textLength="8" x="183" y="101.3001">id</text><line style="stroke:#A80036;stroke-width:1.0;stroke-dasharray:1.0,2.0;" x1="164" x2="236" y1="107.5001" y2="107.5001"/><polygon fill="none" points="174,113.5001,178,117.5001,174,121.5001,170,117.5001" style="stroke:#B38D22;stroke-width:1.0;"/><text fill="#000000" font-family="sans-serif" font-size="11" lengthAdjust="spacing" textLength="48" x="183" y="122.5">petOwner</text><polygon fill="none" points="174,126.7,178,130.7,174,134.7,170,130.7" style="stroke:#B38D22;stroke-width:1.0;"/><text fill="#000000" font-family="sans-serif" font-size="11" lengthAdjust="spacing" textLength="27" x="183" y="135.6999">name</text><line style="stroke:#A80036;stroke-width:1.0;stroke-dasharray:1.0,2.0;" x1="164" x2="236" y1="141.8999" y2="141.8999"/><text fill="#000000" font-family="sans-serif" font-size="11" lengthAdjust="spacing" textLength="34" x="169" y="156.8998">version</text><!--MD5=[298f3cc1e9c072e56c2f010460aa72aa]
class PetOwner--><rect codeLine="23" fill="#FFFFE0" filter="url(#f1gcxafh2f4inj)" height="128.7997" id="PetOwner" style="stroke:#A80036;stroke-width:1.5;" width="95" x="32.5" y="41"/><ellipse cx="52.9" cy="60.4001" fill="#ADD1B2" rx="11" ry="11" style="stroke:#A80036;stroke-width:1.0;"/><path d="M52.2594,64.1814 Q53.0563,64.1814 53.6188,63.9939 Q54.1969,63.7907 54.4313,63.572 Q54.6813,63.3376 54.9156,63.1501 Q55.1656,62.947 55.3844,62.947 Q55.7281,62.947 55.9781,63.2126 Q56.2438,63.4626 56.2438,63.7907 Q56.2438,64.5251 55.0719,65.2126 Q53.9156,65.8845 52.2125,65.8845 Q50.0563,65.8845 48.6344,64.6189 Q47.2125,63.3532 47.2125,61.4157 L47.2125,60.2907 Q47.2125,58.2595 48.5406,56.8845 Q49.8688,55.4939 51.8375,55.4939 Q53.025,55.4939 54.2438,56.072 L54.4156,56.1501 Q54.7125,55.7439 55.1344,55.7439 Q55.6188,55.7439 55.7906,56.0407 Q55.9781,56.322 55.9781,56.8689 L55.9781,58.2907 Q55.9781,59.4157 55.1344,59.4157 Q54.8219,59.4157 54.6188,59.2439 Q54.4313,59.072 54.3844,58.9314 Q54.3531,58.7751 54.3063,58.5095 Q54.1969,57.9939 53.6813,57.6814 Q53.1656,57.3689 52.7125,57.2907 Q52.275,57.197 51.9,57.197 Q50.6188,57.197 49.7594,58.072 Q48.9156,58.947 48.9156,60.2907 L48.9156,61.3845 Q48.9156,62.6657 49.8219,63.4314 Q50.7281,64.1814 52.2594,64.1814 Z " fill="#000000"/><text fill="#000000" font-family="sans-serif" font-size="12" font-style="italic" lengthAdjust="spacing" textLength="31" x="78.1" y="58.0001">«role»</text><text fill="#000000" font-family="sans-serif" font-size="12" lengthAdjust="spacing" textLength="51" x="68.1" y="72.4002">PetOwner</text><line style="stroke:#A80036;stroke-width:1.5;" x1="33.5" x2="126.5" y1="79.8002" y2="79.8002"/><ellipse cx="43.5" cy="90.8002" rx="3" ry="3" style="stroke:#038048;stroke-width:1.0;fill:none;"/><text fill="#000000" font-family="sans-serif" font-size="11" lengthAdjust="spacing" textLength="8" x="52.5" y="94.8001">id</text><line style="stroke:#A80036;stroke-width:1.0;stroke-dasharray:1.0,2.0;" x1="33.5" x2="126.5" y1="101.0001" y2="101.0001"/><polygon fill="none" points="43.5,107.0001,47.5,111.0001,43.5,115.0001,39.5,111.0001" style="stroke:#B38D22;stroke-width:1.0;"/><text fill="#000000" font-family="sans-serif" font-size="11" lengthAdjust="spacing" textLength="45" x="52.5" y="116">lastName</text><polygon fill="none" points="43.5,120.2,47.5,124.2,43.5,128.2,39.5,124.2" style="stroke:#B38D22;stroke-width:1.0;"/><text fill="#000000" font-family="sans-serif" font-size="11" lengthAdjust="spacing" textLength="46" x="52.5" y="129.1999">firstName</text><line style="stroke:#A80036;stroke-width:1.0;stroke-dasharray:1.0,2.0;" x1="33.5" x2="126.5" y1="135.3999" y2="135.3999"/><rect fill="none" height="6" style="stroke:#C82930;stroke-width:1.0;" width="6" x="40.5" y="143.3999"/><text fill="#000000" font-family="sans-serif" font-size="11" lengthAdjust="spacing" textLength="69" x="52.5" y="150.3998">phoneNumber</text><rect fill="none" height="6" style="stroke:#C82930;stroke-width:1.0;" width="6" x="40.5" y="156.5998"/><text fill="#000000" font-family="sans-serif" font-size="11" lengthAdjust="spacing" textLength="64" x="52.5" y="163.5997">emailAddress</text><!--MD5=[a87e4590ce7090a69ece8af29152749d]
link PetOwner to Pet--><path codeLine="35" d="M139.81,105.5 C139.81,105.5 146.62,105.5 149.46,105.5 " fill="none" id="PetOwner-Pet" style="stroke:#A80036;stroke-width:1.0;"/><polygon fill="#A80036" points="162.78,105.5,153.78,101.5,157.78,105.5,153.78,109.5,162.78,105.5" style="stroke:#A80036;stroke-width:1.0;"/><line style="stroke:#A80036;stroke-width:1.0;" x1="157.78" x2="149.78" y1="105.5" y2="105.5"/><polygon fill="#A80036" points="127.81,105.5,133.81,109.5,139.81,105.5,133.81,101.5,127.81,105.5" style="stroke:#A80036;stroke-width:1.0;"/><text fill="#000000" font-family="sans-serif" font-size="13" lengthAdjust="spacing" textLength="18" x="137.1248" y="102.3407">0..*</text><!--MD5=[63e2b2898721fb7a49f878397a034076]
@startuml
hide empty members
hide methods

skinparam class {
	BackgroundColor<<desc>> Cyan
	BackgroundColor<<ppt>> LightGreen
	BackgroundColor<<mi>> LightPink
	BackgroundColor<<role>> LightYellow
}


package pets {

    class Pet <<ppt>> {
        +id
        ..
        #petOwner
        #name
        ..
        version
    }

    class PetOwner <<role>> {
        +id
        ..
        #lastName
        #firstName
        ..
        -phoneNumber
        -emailAddress
    }
}


PetOwner *-r- -> "0..*" Pet
@enduml

PlantUML version 1.2021.16(Wed Dec 08 17:25:22 GMT 2021)
(GPL source distribution)
Java Runtime: OpenJDK Runtime Environment
JVM: OpenJDK 64-Bit Server VM
Default Encoding: UTF-8
Language: en
Country: US
--></g></svg>