<?xml version="1.0" encoding="UTF-8" standalone="no"?><svg xmlns="http://www.w3.org/2000/svg" xmlns:xlink="http://www.w3.org/1999/xlink" contentStyleType="text/css" height="160px" preserveAspectRatio="none" style="width:134px;height:160px;background:#FFFFFF;" version="1.1" viewBox="0 0 134 160" width="134px" zoomAndPan="magnify"><defs/><g><!--MD5=[08d6a551530ab71b272f9c2c40bfb385]
class Owner--><g id="elem_Owner"><rect codeLine="4" fill="#F1F1F1" height="139.9996" id="Owner" rx="2.5" ry="2.5" style="stroke:#181818;stroke-width:0.5;" width="113" x="7" y="7"/><ellipse cx="40" cy="23" fill="#ADD1B2" rx="11" ry="11" style="stroke:#181818;stroke-width:1.0;"/><path d="M39.3594,26.7813 Q40.1563,26.7813 40.7188,26.5938 Q41.2969,26.3906 41.5313,26.1719 Q41.7813,25.9375 42.0156,25.75 Q42.2656,25.5469 42.4844,25.5469 Q42.8281,25.5469 43.0781,25.8125 Q43.3438,26.0625 43.3438,26.3906 Q43.3438,27.125 42.1719,27.8125 Q41.0156,28.4844 39.3125,28.4844 Q37.1563,28.4844 35.7344,27.2188 Q34.3125,25.9531 34.3125,24.0156 L34.3125,22.8906 Q34.3125,20.8594 35.6406,19.4844 Q36.9688,18.0938 38.9375,18.0938 Q40.125,18.0938 41.3438,18.6719 L41.5156,18.75 Q41.8125,18.3438 42.2344,18.3438 Q42.7188,18.3438 42.8906,18.6406 Q43.0781,18.9219 43.0781,19.4688 L43.0781,20.8906 Q43.0781,22.0156 42.2344,22.0156 Q41.9219,22.0156 41.7188,21.8438 Q41.5313,21.6719 41.4844,21.5313 Q41.4531,21.375 41.4063,21.1094 Q41.2969,20.5938 40.7813,20.2813 Q40.2656,19.9688 39.8125,19.8906 Q39.375,19.7969 39,19.7969 Q37.7188,19.7969 36.8594,20.6719 Q36.0156,21.5469 36.0156,22.8906 L36.0156,23.9844 Q36.0156,25.2656 36.9219,26.0313 Q37.8281,26.7813 39.3594,26.7813 Z " fill="#000000"/><text fill="#000000" font-family="sans-serif" font-size="14" lengthAdjust="spacing" textLength="41" x="58" y="28.6">Owner</text><line style="stroke:#181818;stroke-width:0.5;" x1="8" x2="119" y1="39" y2="39"/><ellipse cx="18" cy="50" fill="none" rx="3" ry="3" style="stroke:#038048;stroke-width:1.0;"/><text fill="#000000" font-family="sans-serif" font-size="14" lengthAdjust="spacing" textLength="11" x="27" y="56.9999">id</text><line style="stroke:#181818;stroke-width:1.0;stroke-dasharray:1.0,2.0;" x1="8" x2="119" y1="63.7999" y2="63.7999"/><polygon fill="none" points="18,69.7999,22,73.7999,18,77.7999,14,73.7999" style="stroke:#B38D22;stroke-width:1.0;"/><text fill="#000000" font-family="sans-serif" font-size="14" lengthAdjust="spacing" textLength="58" x="27" y="81.7999">lastName</text><polygon fill="none" points="18,86.5999,22,90.5999,18,94.5999,14,90.5999" style="stroke:#B38D22;stroke-width:1.0;"/><text fill="#000000" font-family="sans-serif" font-size="14" lengthAdjust="spacing" textLength="59" x="27" y="98.5998">firstName</text><line style="stroke:#181818;stroke-width:1.0;stroke-dasharray:1.0,2.0;" x1="8" x2="119" y1="105.3998" y2="105.3998"/><rect fill="none" height="6" style="stroke:#C82930;stroke-width:1.0;" width="6" x="15" y="113.3998"/><text fill="#000000" font-family="sans-serif" font-size="14" lengthAdjust="spacing" textLength="87" x="27" y="123.3997">phoneNumber</text><rect fill="none" height="6" style="stroke:#C82930;stroke-width:1.0;" width="6" x="15" y="130.1997"/><text fill="#000000" font-family="sans-serif" font-size="14" lengthAdjust="spacing" textLength="83" x="27" y="140.1996">emailAddress</text></g><!--MD5=[6d080b1479196cd2db16a60fbe9e6013]
@startuml
hide empty members
hide methods

class Owner {
    +id
    ..
    #lastName
    #firstName
    ..
    -phoneNumber
    -emailAddress
}
@enduml

PlantUML version 1.2022.5(Sat Apr 30 10:55:52 GMT 2022)
(GPL source distribution)
Java Runtime: OpenJDK Runtime Environment
JVM: OpenJDK 64-Bit Server VM
Default Encoding: UTF-8
Language: en
Country: US
--></g></svg>