<?xml version="1.0" encoding="UTF-8" standalone="no"?><svg xmlns="http://www.w3.org/2000/svg" xmlns:xlink="http://www.w3.org/1999/xlink" contentStyleType="text/css" height="1456px" preserveAspectRatio="none" style="width:478px;height:1456px;background:#FFFFFF;" version="1.1" viewBox="0 0 478 1456" width="478px" zoomAndPan="magnify"><defs/><g><rect height="26.7999" style="stroke:#00000000;stroke-width:1.0;fill:none;" width="130" x="167" y="5"/><text fill="#000000" font-family="sans-serif" font-size="14" font-weight="bold" lengthAdjust="spacing" textLength="120" x="172" y="23.9999">Core - Containers</text><!--MD5=[09d29cf3bf6e8569eef9a69bc18e58ae]
cluster Core\n[Software System]--><g id="cluster_Core\n[Software System]"><path d="M8.5,43.7999 L136.5,43.7999 A3.75,3.75 0 0 1 139,46.2999 L146,83.3998 L468.5,83.3998 A2.5,2.5 0 0 1 471,85.8998 L471,1421.2999 A2.5,2.5 0 0 1 468.5,1423.7999 L8.5,1423.7999 A2.5,2.5 0 0 1 6,1421.2999 L6,46.2999 A2.5,2.5 0 0 1 8.5,43.7999 " style="stroke:#000000;stroke-width:1.5;fill:none;"/><line style="stroke:#000000;stroke-width:1.5;fill:none;" x1="6" x2="146" y1="83.3998" y2="83.3998"/><text fill="#000000" font-family="sans-serif" font-size="14" font-weight="bold" lengthAdjust="spacing" textLength="32" x="57.5" y="59.7999">Core</text><text fill="#000000" font-family="sans-serif" font-size="14" font-weight="bold" lengthAdjust="spacing" textLength="127" x="10" y="76.5998">[Software System]</text></g><!--MD5=[b289b39ced8dc6d267141842d8cb9775]
entity 14--><g id="elem_14"><rect fill="#438DD5" height="70.4001" rx="2.5" ry="2.5" style="stroke:#2E6295;stroke-width:0.5;" width="159" x="266.5" y="1337.7999"/><text fill="#FFFFFE" font-family="sans-serif" font-size="16" font-weight="bold" lengthAdjust="spacing" textLength="135" x="276.5" y="1363.8">Apache Isis - JDK</text><text fill="#FFFFFE" font-family="sans-serif" font-size="16" font-weight="bold" lengthAdjust="spacing" textLength="105" x="293.5" y="1383">Supplemental</text><text fill="#FFFFFE" font-family="sans-serif" font-size="10" lengthAdjust="spacing" textLength="120" x="286" y="1396.2">[Container: packaging: pom]</text></g><!--MD5=[773709cb2207c097691e7e7d3d2cc787]
entity 2--><g id="elem_2"><rect fill="#438DD5" height="51.2" rx="2.5" ry="2.5" style="stroke:#2E6295;stroke-width:0.5;" width="150" x="22" y="735.2999"/><text fill="#FFFFFE" font-family="sans-serif" font-size="16" font-weight="bold" lengthAdjust="spacing" textLength="130" x="32" y="761.3">Apache Isis Core</text><text fill="#FFFFFE" font-family="sans-serif" font-size="10" lengthAdjust="spacing" textLength="120" x="37" y="774.5">[Container: packaging: pom]</text></g><!--MD5=[5721696d2af8d327c8f4e7ea88061d17]
entity 3--><g id="elem_3"><rect fill="#438DD5" height="51.2" rx="2.5" ry="2.5" style="stroke:#2E6295;stroke-width:0.5;" width="218" x="237" y="1251.2999"/><text fill="#FFFFFE" font-family="sans-serif" font-size="16" font-weight="bold" lengthAdjust="spacing" textLength="198" x="247" y="1277.3">Apache Isis Core - AppLib</text><text fill="#FFFFFE" font-family="sans-serif" font-size="10" lengthAdjust="spacing" textLength="111" x="290.5" y="1290.5">[Container: packaging: jar]</text></g><!--MD5=[ca8cb0432c9090f8973c99138b4c3ca0]
entity 4--><g id="elem_4"><rect fill="#438DD5" height="70.4001" rx="2.5" ry="2.5" style="stroke:#2E6295;stroke-width:0.5;" width="208" x="242" y="1145.7999"/><text fill="#FFFFFE" font-family="sans-serif" font-size="16" font-weight="bold" lengthAdjust="spacing" textLength="184" x="252" y="1171.8">Apache Isis Core - Code</text><text fill="#FFFFFE" font-family="sans-serif" font-size="16" font-weight="bold" lengthAdjust="spacing" textLength="129" x="281.5" y="1191">Gen (ByteBuddy)</text><text fill="#FFFFFE" font-family="sans-serif" font-size="10" lengthAdjust="spacing" textLength="111" x="290.5" y="1204.2">[Container: packaging: jar]</text></g><!--MD5=[fad6a9c1e4f80769a7fea8e2093188d9]
entity 5--><g id="elem_5"><rect fill="#438DD5" height="70.4001" rx="2.5" ry="2.5" style="stroke:#2E6295;stroke-width:0.5;" width="163" x="264.5" y="1040.7999"/><text fill="#FFFFFE" font-family="sans-serif" font-size="16" font-weight="bold" lengthAdjust="spacing" textLength="139" x="274.5" y="1066.8">Apache Isis Core -</text><text fill="#FFFFFE" font-family="sans-serif" font-size="16" font-weight="bold" lengthAdjust="spacing" textLength="105" x="293.5" y="1086">Configuration</text><text fill="#FFFFFE" font-family="sans-serif" font-size="10" lengthAdjust="spacing" textLength="111" x="290.5" y="1099.2">[Container: packaging: jar]</text></g><!--MD5=[a92bd7649e35c8a5fd4b3e9f57d24e4a]
entity 6--><g id="elem_6"><rect fill="#438DD5" height="70.4001" rx="2.5" ry="2.5" style="stroke:#2E6295;stroke-width:0.5;" width="163" x="264.5" y="935.7999"/><text fill="#FFFFFE" font-family="sans-serif" font-size="16" font-weight="bold" lengthAdjust="spacing" textLength="139" x="274.5" y="961.8">Apache Isis Core -</text><text fill="#FFFFFE" font-family="sans-serif" font-size="16" font-weight="bold" lengthAdjust="spacing" textLength="82" x="305" y="981">Interaction</text><text fill="#FFFFFE" font-family="sans-serif" font-size="10" lengthAdjust="spacing" textLength="111" x="290.5" y="994.2">[Container: packaging: jar]</text></g><!--MD5=[cbb381f34bde73e199f6c8e56df9562c]
entity 7--><g id="elem_7"><rect fill="#438DD5" height="70.4001" rx="2.5" ry="2.5" style="stroke:#2E6295;stroke-width:0.5;" width="181" x="255.5" y="830.7999"/><text fill="#FFFFFE" font-family="sans-serif" font-size="16" font-weight="bold" lengthAdjust="spacing" textLength="139" x="274.5" y="856.8">Apache Isis Core -</text><text fill="#FFFFFE" font-family="sans-serif" font-size="16" font-weight="bold" lengthAdjust="spacing" textLength="161" x="265.5" y="876">Internal Test Support</text><text fill="#FFFFFE" font-family="sans-serif" font-size="10" lengthAdjust="spacing" textLength="111" x="290.5" y="889.2">[Container: packaging: jar]</text></g><!--MD5=[df1cfc51a8f3e60039521c9170723b8d]
entity 8--><g id="elem_8"><rect fill="#438DD5" height="70.4001" rx="2.5" ry="2.5" style="stroke:#2E6295;stroke-width:0.5;" width="163" x="264.5" y="725.7999"/><text fill="#FFFFFE" font-family="sans-serif" font-size="16" font-weight="bold" lengthAdjust="spacing" textLength="139" x="274.5" y="751.8">Apache Isis Core -</text><text fill="#FFFFFE" font-family="sans-serif" font-size="16" font-weight="bold" lengthAdjust="spacing" textLength="84" x="304" y="771">MetaModel</text><text fill="#FFFFFE" font-family="sans-serif" font-size="10" lengthAdjust="spacing" textLength="111" x="290.5" y="784.2">[Container: packaging: jar]</text></g><!--MD5=[d25218acdea247ba6571a34297258ee9]
entity 9--><g id="elem_9"><rect fill="#438DD5" height="70.4001" rx="2.5" ry="2.5" style="stroke:#2E6295;stroke-width:0.5;" width="163" x="264.5" y="620.7999"/><text fill="#FFFFFE" font-family="sans-serif" font-size="16" font-weight="bold" lengthAdjust="spacing" textLength="139" x="274.5" y="646.8">Apache Isis Core -</text><text fill="#FFFFFE" font-family="sans-serif" font-size="16" font-weight="bold" lengthAdjust="spacing" textLength="64" x="314" y="666">Runtime</text><text fill="#FFFFFE" font-family="sans-serif" font-size="10" lengthAdjust="spacing" textLength="111" x="290.5" y="679.2">[Container: packaging: jar]</text></g><!--MD5=[832467b18690d1dd1b9afbdc6cb3d7bf]
entity 10--><g id="elem_10"><rect fill="#438DD5" height="70.4001" rx="2.5" ry="2.5" style="stroke:#2E6295;stroke-width:0.5;" width="163" x="264.5" y="515.7999"/><text fill="#FFFFFE" font-family="sans-serif" font-size="16" font-weight="bold" lengthAdjust="spacing" textLength="139" x="274.5" y="541.8">Apache Isis Core -</text><text fill="#FFFFFE" font-family="sans-serif" font-size="16" font-weight="bold" lengthAdjust="spacing" textLength="134" x="279" y="561">Runtime Services</text><text fill="#FFFFFE" font-family="sans-serif" font-size="10" lengthAdjust="spacing" textLength="111" x="290.5" y="574.2">[Container: packaging: jar]</text></g><!--MD5=[50c48f50f23c4505b4e1bf8eb0388b7a]
entity 15--><g id="elem_15"><rect fill="#438DD5" height="70.4001" rx="2.5" ry="2.5" style="stroke:#2E6295;stroke-width:0.5;" width="163" x="264.5" y="410.7999"/><text fill="#FFFFFE" font-family="sans-serif" font-size="16" font-weight="bold" lengthAdjust="spacing" textLength="139" x="274.5" y="436.8">Apache Isis Core -</text><text fill="#FFFFFE" font-family="sans-serif" font-size="16" font-weight="bold" lengthAdjust="spacing" textLength="71" x="310.5" y="456">Schemas</text><text fill="#FFFFFE" font-family="sans-serif" font-size="10" lengthAdjust="spacing" textLength="111" x="290.5" y="469.2">[Container: packaging: jar]</text></g><!--MD5=[e25884bd7fe840786d881277a14c5a0e]
entity 11--><g id="elem_11"><rect fill="#438DD5" height="70.4001" rx="2.5" ry="2.5" style="stroke:#2E6295;stroke-width:0.5;" width="163" x="264.5" y="305.7999"/><text fill="#FFFFFE" font-family="sans-serif" font-size="16" font-weight="bold" lengthAdjust="spacing" textLength="139" x="274.5" y="331.8">Apache Isis Core -</text><text fill="#FFFFFE" font-family="sans-serif" font-size="16" font-weight="bold" lengthAdjust="spacing" textLength="63" x="314.5" y="351">Security</text><text fill="#FFFFFE" font-family="sans-serif" font-size="10" lengthAdjust="spacing" textLength="111" x="290.5" y="364.2">[Container: packaging: jar]</text></g><!--MD5=[2e47fe9ff0124b653d7be087bd1c1ac2]
entity 12--><g id="elem_12"><rect fill="#438DD5" height="70.4001" rx="2.5" ry="2.5" style="stroke:#2E6295;stroke-width:0.5;" width="163" x="264.5" y="200.7999"/><text fill="#FFFFFE" font-family="sans-serif" font-size="16" font-weight="bold" lengthAdjust="spacing" textLength="139" x="274.5" y="226.8">Apache Isis Core -</text><text fill="#FFFFFE" font-family="sans-serif" font-size="16" font-weight="bold" lengthAdjust="spacing" textLength="91" x="300.5" y="246">Transaction</text><text fill="#FFFFFE" font-family="sans-serif" font-size="10" lengthAdjust="spacing" textLength="111" x="290.5" y="259.2">[Container: packaging: jar]</text></g><!--MD5=[2cd44814ab46f5e6a99045c6c67d7a1c]
entity 13--><g id="elem_13"><rect fill="#438DD5" height="70.4001" rx="2.5" ry="2.5" style="stroke:#2E6295;stroke-width:0.5;" width="163" x="264.5" y="95.7999"/><text fill="#FFFFFE" font-family="sans-serif" font-size="16" font-weight="bold" lengthAdjust="spacing" textLength="139" x="274.5" y="121.8">Apache Isis Core -</text><text fill="#FFFFFE" font-family="sans-serif" font-size="16" font-weight="bold" lengthAdjust="spacing" textLength="65" x="313.5" y="141">WebApp</text><text fill="#FFFFFE" font-family="sans-serif" font-size="10" lengthAdjust="spacing" textLength="111" x="290.5" y="154.2">[Container: packaging: jar]</text></g><!--MD5=[3c15ce39e8e568d8007db2b3de990d68]
link 2 to 14--><g id="link_2_14"><path d="M101.28,786.5999 C114.28,885.2099 165.01,1236.9499 237,1319.7999 C244.13,1327.9999 252.82,1335.0599 262.15,1341.0999 " fill="none" id="2-to-14" style="stroke:#707070;stroke-width:1.0;stroke-dasharray:7.0,7.0;"/><polygon fill="#707070" points="266.47,1343.7999,260.9654,1335.6329,262.2324,1341.1461,256.7193,1342.4131,266.47,1343.7999" style="stroke:#707070;stroke-width:1.0;"/><text fill="#000000" font-family="sans-serif" font-size="10" lengthAdjust="spacing" textLength="3" x="203" y="1258.7999"> </text></g><!--MD5=[eeb69082328d10abd3b14fdeede0d8a3]
link 2 to 3--><g id="link_2_3"><path d="M98.16,786.4799 C100,864.0399 115.82,1098.7899 237,1232.7999 C242.45,1238.8299 248.86,1244.0499 255.77,1248.5699 " fill="none" id="2-to-3" style="stroke:#707070;stroke-width:1.0;stroke-dasharray:7.0,7.0;"/><polygon fill="#707070" points="260.14,1251.2899,254.6034,1243.1446,255.892,1248.6528,250.3839,1249.9414,260.14,1251.2899" style="stroke:#707070;stroke-width:1.0;"/><text fill="#000000" font-family="sans-serif" font-size="10" lengthAdjust="spacing" textLength="3" x="203" y="1189.7999"> </text></g><!--MD5=[d209f2622dd5d3103b9c9b4670e2d6db]
link 2 to 4--><g id="link_2_4"><path d="M101.16,786.3899 C110.41,851.2999 143,1024.4999 237,1127.7999 C241.97,1133.2599 247.62,1138.2199 253.68,1142.7199 " fill="none" id="2-to-4" style="stroke:#707070;stroke-width:1.0;stroke-dasharray:7.0,7.0;"/><polygon fill="#707070" points="257.94,1145.7599,252.9301,1137.2805,253.8675,1142.8591,248.2888,1143.7965,257.94,1145.7599" style="stroke:#707070;stroke-width:1.0;"/><text fill="#000000" font-family="sans-serif" font-size="10" lengthAdjust="spacing" textLength="3" x="203" y="1084.7999"> </text></g><!--MD5=[4e74f4bf4b09d37138dfb3a42c5ccc13]
link 2 to 5--><g id="link_2_5"><path d="M105.63,786.4399 C121.98,837.4899 164.89,952.9299 237,1022.7999 C243.77,1029.3599 251.51,1035.2599 259.67,1040.5199 " fill="none" id="2-to-5" style="stroke:#707070;stroke-width:1.0;stroke-dasharray:7.0,7.0;"/><polygon fill="#707070" points="264.24,1043.3699,258.7157,1035.2163,259.996,1040.7264,254.4859,1042.0067,264.24,1043.3699" style="stroke:#707070;stroke-width:1.0;"/><text fill="#000000" font-family="sans-serif" font-size="10" lengthAdjust="spacing" textLength="3" x="203" y="985.7999"> </text></g><!--MD5=[8d5e64f07a3a026530162c78b23a3473]
link 2 to 6--><g id="link_2_6"><path d="M115.72,786.4099 C139.98,819.9999 186.33,879.1899 237,917.7999 C244.15,923.2499 251.95,928.3599 259.97,933.0999 " fill="none" id="2-to-6" style="stroke:#707070;stroke-width:1.0;stroke-dasharray:7.0,7.0;"/><polygon fill="#707070" points="264.45,935.6899,258.657,927.7249,260.1203,933.1893,254.6559,934.6525,264.45,935.6899" style="stroke:#707070;stroke-width:1.0;"/><text fill="#000000" font-family="sans-serif" font-size="10" lengthAdjust="spacing" textLength="3" x="203" y="886.7999"> </text></g><!--MD5=[f03a35d0a29bcf5b4caf40b6b6655269]
link 2 to 7--><g id="link_2_7"><path d="M158.11,786.3499 C188.05,799.0799 224.81,814.7099 257.79,828.7299 " fill="none" id="2-to-7" style="stroke:#707070;stroke-width:1.0;stroke-dasharray:7.0,7.0;"/><polygon fill="#707070" points="262.63,830.7799,255.9144,823.5757,258.0291,828.8224,252.7824,830.9371,262.63,830.7799" style="stroke:#707070;stroke-width:1.0;"/><text fill="#000000" font-family="sans-serif" font-size="10" lengthAdjust="spacing" textLength="3" x="203" y="805.7999"> </text></g><!--MD5=[0ad92ee86b71fc92e123e5500ea78341]
link 2 to 8--><g id="link_2_8"><path d="M172.11,760.7999 C199.53,760.7999 230.85,760.7999 259.22,760.7999 " fill="none" id="2-to-8" style="stroke:#707070;stroke-width:1.0;stroke-dasharray:7.0,7.0;"/><polygon fill="#707070" points="264.48,760.7999,255.48,756.7999,259.48,760.7999,255.48,764.7999,264.48,760.7999" style="stroke:#707070;stroke-width:1.0;"/><text fill="#000000" font-family="sans-serif" font-size="10" lengthAdjust="spacing" textLength="3" x="203" y="758.7999"> </text></g><!--MD5=[676073e7019c75b59fc2b05612aba49c]
link 2 to 9--><g id="link_2_9"><path d="M158.11,735.2499 C188.59,722.2899 226.15,706.3199 259.58,692.1099 " fill="none" id="2-to-9" style="stroke:#707070;stroke-width:1.0;stroke-dasharray:7.0,7.0;"/><polygon fill="#707070" points="264.49,690.0299,254.6424,689.8728,259.8891,691.9874,257.7744,697.2342,264.49,690.0299" style="stroke:#707070;stroke-width:1.0;"/><text fill="#000000" font-family="sans-serif" font-size="10" lengthAdjust="spacing" textLength="3" x="203" y="712.7999"> </text></g><!--MD5=[ecc6855e18f9a45a4c7eaf523375ba95]
link 2 to 10--><g id="link_2_10"><path d="M115.44,735.2499 C139.55,701.4299 185.92,641.5499 237,602.7999 C244.13,597.3899 251.92,592.3299 259.94,587.6499 " fill="none" id="2-to-10" style="stroke:#707070;stroke-width:1.0;stroke-dasharray:7.0,7.0;"/><polygon fill="#707070" points="264.42,585.0899,254.6195,586.0648,260.0744,587.5629,258.5763,593.0178,264.42,585.0899" style="stroke:#707070;stroke-width:1.0;"/><text fill="#000000" font-family="sans-serif" font-size="10" lengthAdjust="spacing" textLength="3" x="203" y="626.7999"> </text></g><!--MD5=[62213bd213e9eab9cca34893f70ee040]
link 2 to 15--><g id="link_2_15"><path d="M105.56,735.0199 C121.78,683.6899 164.47,567.6599 237,497.7999 C243.77,491.2799 251.5,485.4499 259.66,480.2599 " fill="none" id="2-to-15" style="stroke:#707070;stroke-width:1.0;stroke-dasharray:7.0,7.0;"/><polygon fill="#707070" points="264.23,477.4399,254.4675,478.741,259.9693,480.0564,258.6539,485.5582,264.23,477.4399" style="stroke:#707070;stroke-width:1.0;"/><text fill="#000000" font-family="sans-serif" font-size="10" lengthAdjust="spacing" textLength="3" x="203" y="532.7999"> </text></g><!--MD5=[350ab8b289b532334afad443a8f96638]
link 2 to 11--><g id="link_2_11"><path d="M101.09,735.0999 C110.19,669.9099 142.43,496.0399 237,392.7999 C243.58,385.6099 251.37,379.3199 259.7,373.8199 " fill="none" id="2-to-11" style="stroke:#707070;stroke-width:1.0;stroke-dasharray:7.0,7.0;"/><polygon fill="#707070" points="264.38,370.8599,254.6405,372.3236,260.1635,373.5471,258.9399,379.07,264.38,370.8599" style="stroke:#707070;stroke-width:1.0;"/><text fill="#000000" font-family="sans-serif" font-size="10" lengthAdjust="spacing" textLength="3" x="203" y="432.7999"> </text></g><!--MD5=[f7b23945b808440529d54eae70ccd1cc]
link 2 to 12--><g id="link_2_12"><path d="M98.53,735.1299 C101.43,658.0699 119.97,425.6299 237,287.7999 C243.54,280.0999 251.48,273.4499 260.06,267.7199 " fill="none" id="2-to-12" style="stroke:#707070;stroke-width:1.0;stroke-dasharray:7.0,7.0;"/><polygon fill="#707070" points="264.32,264.9899,254.5864,266.492,260.1141,267.6937,258.9124,273.2215,264.32,264.9899" style="stroke:#707070;stroke-width:1.0;"/><text fill="#000000" font-family="sans-serif" font-size="10" lengthAdjust="spacing" textLength="3" x="203" y="328.7999"> </text></g><!--MD5=[78aff816aa8a90b4ab29aa1634b5681f]
link 2 to 13--><g id="link_2_13"><path d="M101.11,735.2399 C113.77,635.0099 164.17,270.0599 237,182.7999 C243.53,174.9699 251.52,168.2399 260.16,162.4599 " fill="none" id="2-to-13" style="stroke:#707070;stroke-width:1.0;stroke-dasharray:7.0,7.0;"/><polygon fill="#707070" points="264.46,159.7099,254.73,161.2354,260.2606,162.4238,259.0722,167.9544,264.46,159.7099" style="stroke:#707070;stroke-width:1.0;"/><text fill="#000000" font-family="sans-serif" font-size="10" lengthAdjust="spacing" textLength="3" x="203" y="243.7999"> </text></g><rect height="16.7999" style="stroke:#00000000;stroke-width:1.0;fill:none;" width="164" x="150" y="1430.7999"/><text fill="#000000" font-family="sans-serif" font-size="14" lengthAdjust="spacing" textLength="164" x="150" y="1444.7999">Artifact Hierarchy (Maven)</text><!--MD5=[f26f403a0e15d75615381ce2e32d2bf1]
@startuml
title Core - Containers
caption Artifact Hierarchy (Maven)

skinparam {
  shadowing false
  arrowFontSize 10
  defaultTextAlignment center
  wrapWidth 200
  maxMessageSize 100
}
hide stereotype
left to right direction
skinparam rectangle<<11>> {
  BackgroundColor #438dd5
  FontColor #fffffe
  BorderColor #2E6295
}
skinparam rectangle<<12>> {
  BackgroundColor #438dd5
  FontColor #fffffe
  BorderColor #2E6295
}
skinparam rectangle<<13>> {
  BackgroundColor #438dd5
  FontColor #fffffe
  BorderColor #2E6295
}
skinparam rectangle<<14>> {
  BackgroundColor #438dd5
  FontColor #fffffe
  BorderColor #2E6295
}
skinparam rectangle<<15>> {
  BackgroundColor #438dd5
  FontColor #fffffe
  BorderColor #2E6295
}
skinparam rectangle<<2>> {
  BackgroundColor #438dd5
  FontColor #fffffe
  BorderColor #2E6295
}
skinparam rectangle<<3>> {
  BackgroundColor #438dd5
  FontColor #fffffe
  BorderColor #2E6295
}
skinparam rectangle<<4>> {
  BackgroundColor #438dd5
  FontColor #fffffe
  BorderColor #2E6295
}
skinparam rectangle<<5>> {
  BackgroundColor #438dd5
  FontColor #fffffe
  BorderColor #2E6295
}
skinparam rectangle<<6>> {
  BackgroundColor #438dd5
  FontColor #fffffe
  BorderColor #2E6295
}
skinparam rectangle<<7>> {
  BackgroundColor #438dd5
  FontColor #fffffe
  BorderColor #2E6295
}
skinparam rectangle<<8>> {
  BackgroundColor #438dd5
  FontColor #fffffe
  BorderColor #2E6295
}
skinparam rectangle<<9>> {
  BackgroundColor #438dd5
  FontColor #fffffe
  BorderColor #2E6295
}
skinparam rectangle<<10>> {
  BackgroundColor #438dd5
  FontColor #fffffe
  BorderColor #2E6295
}
package "Core\n[Software System]" {
  rectangle "==Apache Isis - JDK Supplemental\n<size:10>[Container: packaging: pom]</size>" <<14>> as 14
  rectangle "==Apache Isis Core\n<size:10>[Container: packaging: pom]</size>" <<2>> as 2
  rectangle "==Apache Isis Core - AppLib\n<size:10>[Container: packaging: jar]</size>" <<3>> as 3
  rectangle "==Apache Isis Core - Code Gen (ByteBuddy)\n<size:10>[Container: packaging: jar]</size>" <<4>> as 4
  rectangle "==Apache Isis Core - Configuration\n<size:10>[Container: packaging: jar]</size>" <<5>> as 5
  rectangle "==Apache Isis Core - Interaction\n<size:10>[Container: packaging: jar]</size>" <<6>> as 6
  rectangle "==Apache Isis Core - Internal Test Support\n<size:10>[Container: packaging: jar]</size>" <<7>> as 7
  rectangle "==Apache Isis Core - MetaModel\n<size:10>[Container: packaging: jar]</size>" <<8>> as 8
  rectangle "==Apache Isis Core - Runtime\n<size:10>[Container: packaging: jar]</size>" <<9>> as 9
  rectangle "==Apache Isis Core - Runtime Services\n<size:10>[Container: packaging: jar]</size>" <<10>> as 10
  rectangle "==Apache Isis Core - Schemas\n<size:10>[Container: packaging: jar]</size>" <<15>> as 15
  rectangle "==Apache Isis Core - Security\n<size:10>[Container: packaging: jar]</size>" <<11>> as 11
  rectangle "==Apache Isis Core - Transaction\n<size:10>[Container: packaging: jar]</size>" <<12>> as 12
  rectangle "==Apache Isis Core - WebApp\n<size:10>[Container: packaging: jar]</size>" <<13>> as 13
}
2 .[#707070].> 14 : ""
2 .[#707070].> 3 : ""
2 .[#707070].> 4 : ""
2 .[#707070].> 5 : ""
2 .[#707070].> 6 : ""
2 .[#707070].> 7 : ""
2 .[#707070].> 8 : ""
2 .[#707070].> 9 : ""
2 .[#707070].> 10 : ""
2 .[#707070].> 15 : ""
2 .[#707070].> 11 : ""
2 .[#707070].> 12 : ""
2 .[#707070].> 13 : ""
@enduml

PlantUML version 1.2022.3(Tue Mar 29 16:10:57 GMT 2022)
(GPL source distribution)
Java Runtime: OpenJDK Runtime Environment
JVM: OpenJDK 64-Bit Server VM
Default Encoding: UTF-8
Language: en
Country: US
--></g></svg>