<?xml version="1.0" encoding="UTF-8" standalone="no"?><svg xmlns="http://www.w3.org/2000/svg" xmlns:xlink="http://www.w3.org/1999/xlink" contentStyleType="text/css" height="214px" preserveAspectRatio="none" style="width:534px;height:214px;background:#FFFFFF;" version="1.1" viewBox="0 0 534 214" width="534px" zoomAndPan="magnify"><defs/><g><rect height="26.7999" style="stroke:#00000000;stroke-width:1.0;fill:none;" width="144" x="188" y="5"/><text fill="#000000" font-family="sans-serif" font-size="14" font-weight="bold" lengthAdjust="spacing" textLength="134" x="193" y="23.9999">Spring - Containers</text><!--MD5=[873909d35d957c95a340e90da5431bb8]
cluster Spring\n[Software System]--><g id="cluster_Spring\n[Software System]"><path d="M8.5,43.7999 L136.5,43.7999 A3.75,3.75 0 0 1 139,46.2999 L146,83.3998 L524.5,83.3998 A2.5,2.5 0 0 1 527,85.8998 L527,179.2999 A2.5,2.5 0 0 1 524.5,181.7999 L8.5,181.7999 A2.5,2.5 0 0 1 6,179.2999 L6,46.2999 A2.5,2.5 0 0 1 8.5,43.7999 " style="stroke:#000000;stroke-width:1.5;fill:none;"/><line style="stroke:#000000;stroke-width:1.5;fill:none;" x1="6" x2="146" y1="83.3998" y2="83.3998"/><text fill="#000000" font-family="sans-serif" font-size="14" font-weight="bold" lengthAdjust="spacing" textLength="46" x="50.5" y="59.7999">Spring</text><text fill="#000000" font-family="sans-serif" font-size="14" font-weight="bold" lengthAdjust="spacing" textLength="127" x="10" y="76.5998">[Software System]</text></g><!--MD5=[5721696d2af8d327c8f4e7ea88061d17]
entity 3--><g id="elem_3"><rect fill="#438DD5" height="70.4001" rx="2.5" ry="2.5" style="stroke:#2E6295;stroke-width:0.5;" width="212" x="299" y="95.7999"/><text fill="#FFFFFE" font-family="sans-serif" font-size="16" font-weight="bold" lengthAdjust="spacing" textLength="188" x="309" y="121.8">Apache Isis Sub - Spring</text><text fill="#FFFFFE" font-family="sans-serif" font-size="16" font-weight="bold" lengthAdjust="spacing" textLength="57" x="376.5" y="141">(applib)</text><text fill="#FFFFFE" font-family="sans-serif" font-size="10" lengthAdjust="spacing" textLength="111" x="349.5" y="154.2">[Container: packaging: jar]</text></g><!--MD5=[773709cb2207c097691e7e7d3d2cc787]
entity 2--><g id="elem_2"><rect fill="#438DD5" height="70.4001" rx="2.5" ry="2.5" style="stroke:#2E6295;stroke-width:0.5;" width="212" x="22" y="95.7999"/><text fill="#FFFFFE" font-family="sans-serif" font-size="16" font-weight="bold" lengthAdjust="spacing" textLength="188" x="32" y="121.8">Apache Isis Sub - Spring</text><text fill="#FFFFFE" font-family="sans-serif" font-size="16" font-weight="bold" lengthAdjust="spacing" textLength="59" x="98.5" y="141">(parent)</text><text fill="#FFFFFE" font-family="sans-serif" font-size="10" lengthAdjust="spacing" textLength="120" x="68" y="154.2">[Container: packaging: pom]</text></g><!--MD5=[eeb69082328d10abd3b14fdeede0d8a3]
link 2 to 3--><g id="link_2_3"><path d="M234.14,130.7999 C253.63,130.7999 274.04,130.7999 293.67,130.7999 " fill="none" id="2-to-3" style="stroke:#707070;stroke-width:1.0;stroke-dasharray:7.0,7.0;"/><polygon fill="#707070" points="298.92,130.7999,289.92,126.7999,293.92,130.7999,289.92,134.7999,298.92,130.7999" style="stroke:#707070;stroke-width:1.0;"/><text fill="#000000" font-family="sans-serif" font-size="10" lengthAdjust="spacing" textLength="3" x="265" y="128.7999"> </text></g><rect height="16.7999" style="stroke:#00000000;stroke-width:1.0;fill:none;" width="164" x="178" y="188.7999"/><text fill="#000000" font-family="sans-serif" font-size="14" lengthAdjust="spacing" textLength="164" x="178" y="202.7999">Artifact Hierarchy (Maven)</text><!--MD5=[9cef173f8dc821cd7d2a067890103d5d]
@startuml
title Spring - Containers
caption Artifact Hierarchy (Maven)

skinparam {
  shadowing false
  arrowFontSize 10
  defaultTextAlignment center
  wrapWidth 200
  maxMessageSize 100
}
hide stereotype
left to right direction
skinparam rectangle<<2>> {
  BackgroundColor #438dd5
  FontColor #fffffe
  BorderColor #2E6295
}
skinparam rectangle<<3>> {
  BackgroundColor #438dd5
  FontColor #fffffe
  BorderColor #2E6295
}
package "Spring\n[Software System]" {
  rectangle "==Apache Isis Sub - Spring (applib)\n<size:10>[Container: packaging: jar]</size>" <<3>> as 3
  rectangle "==Apache Isis Sub - Spring (parent)\n<size:10>[Container: packaging: pom]</size>" <<2>> as 2
}
2 .[#707070].> 3 : ""
@enduml

PlantUML version 1.2022.3(Tue Mar 29 16:10:57 GMT 2022)
(GPL source distribution)
Java Runtime: OpenJDK Runtime Environment
JVM: OpenJDK 64-Bit Server VM
Default Encoding: UTF-8
Language: en
Country: US
--></g></svg>