<?xml version="1.0" encoding="UTF-8" standalone="no"?><svg xmlns="http://www.w3.org/2000/svg" xmlns:xlink="http://www.w3.org/1999/xlink" contentStyleType="text/css" height="712px" preserveAspectRatio="none" style="width:463px;height:712px;background:#FFFFFF;" version="1.1" viewBox="0 0 463 712" width="463px" zoomAndPan="magnify"><defs/><g><rect height="26.7999" style="stroke:#00000000;stroke-width:1.0;fill:none;" width="165" x="142" y="5"/><text fill="#000000" font-family="sans-serif" font-size="14" font-weight="bold" lengthAdjust="spacing" textLength="155" x="147" y="23.9999">Examples - Containers</text><!--MD5=[a20a5339884a347ed1c1c60f07c12995]
cluster Examples\n[Software System]--><g id="cluster_Examples\n[Software System]"><path d="M8.5,43.7999 L136.5,43.7999 A3.75,3.75 0 0 1 139,46.2999 L146,83.3998 L453.5,83.3998 A2.5,2.5 0 0 1 456,85.8998 L456,677.2999 A2.5,2.5 0 0 1 453.5,679.7999 L8.5,679.7999 A2.5,2.5 0 0 1 6,677.2999 L6,46.2999 A2.5,2.5 0 0 1 8.5,43.7999 " style="stroke:#000000;stroke-width:1.5;fill:none;"/><line style="stroke:#000000;stroke-width:1.5;fill:none;" x1="6" x2="146" y1="83.3998" y2="83.3998"/><text fill="#000000" font-family="sans-serif" font-size="14" font-weight="bold" lengthAdjust="spacing" textLength="67" x="40" y="59.7999">Examples</text><text fill="#000000" font-family="sans-serif" font-size="14" font-weight="bold" lengthAdjust="spacing" textLength="127" x="10" y="76.5998">[Software System]</text></g><!--MD5=[5721696d2af8d327c8f4e7ea88061d17]
entity 3--><g id="elem_3"><rect fill="#438DD5" height="51.2" rx="2.5" ry="2.5" style="stroke:#2E6295;stroke-width:0.5;" width="137" x="265" y="612.2999"/><text fill="#FFFFFE" font-family="sans-serif" font-size="16" font-weight="bold" lengthAdjust="spacing" textLength="117" x="275" y="638.3">Demo - Domain</text><text fill="#FFFFFE" font-family="sans-serif" font-size="10" lengthAdjust="spacing" textLength="111" x="278" y="651.5">[Container: packaging: jar]</text></g><!--MD5=[ca8cb0432c9090f8973c99138b4c3ca0]
entity 4--><g id="elem_4"><rect fill="#438DD5" height="51.2" rx="2.5" ry="2.5" style="stroke:#2E6295;stroke-width:0.5;" width="135" x="266" y="526.2999"/><text fill="#FFFFFE" font-family="sans-serif" font-size="16" font-weight="bold" lengthAdjust="spacing" textLength="115" x="276" y="552.3">Demo - JavaFX</text><text fill="#FFFFFE" font-family="sans-serif" font-size="10" lengthAdjust="spacing" textLength="111" x="278" y="565.5">[Container: packaging: jar]</text></g><!--MD5=[773709cb2207c097691e7e7d3d2cc787]
entity 2--><g id="elem_2"><rect fill="#438DD5" height="51.2" rx="2.5" ry="2.5" style="stroke:#2E6295;stroke-width:0.5;" width="140" x="22" y="354.2999"/><text fill="#FFFFFE" font-family="sans-serif" font-size="16" font-weight="bold" lengthAdjust="spacing" textLength="108" x="38" y="380.3">Demo - Parent</text><text fill="#FFFFFE" font-family="sans-serif" font-size="10" lengthAdjust="spacing" textLength="120" x="32" y="393.5">[Container: packaging: pom]</text></g><!--MD5=[fad6a9c1e4f80769a7fea8e2093188d9]
entity 5--><g id="elem_5"><rect fill="#438DD5" height="51.2" rx="2.5" ry="2.5" style="stroke:#2E6295;stroke-width:0.5;" width="131" x="268" y="440.2999"/><text fill="#FFFFFE" font-family="sans-serif" font-size="16" font-weight="bold" lengthAdjust="spacing" textLength="111" x="278" y="466.3">Demo - Vaadin</text><text fill="#FFFFFE" font-family="sans-serif" font-size="10" lengthAdjust="spacing" textLength="111" x="278" y="479.5">[Container: packaging: jar]</text></g><!--MD5=[a92bd7649e35c8a5fd4b3e9f57d24e4a]
entity 6--><g id="elem_6"><rect fill="#438DD5" height="51.2" rx="2.5" ry="2.5" style="stroke:#2E6295;stroke-width:0.5;" width="131" x="268" y="354.2999"/><text fill="#FFFFFE" font-family="sans-serif" font-size="16" font-weight="bold" lengthAdjust="spacing" textLength="92" x="287.5" y="380.3">Demo - Web</text><text fill="#FFFFFE" font-family="sans-serif" font-size="10" lengthAdjust="spacing" textLength="111" x="278" y="393.5">[Container: packaging: jar]</text></g><!--MD5=[cbb381f34bde73e199f6c8e56df9562c]
entity 7--><g id="elem_7"><rect fill="#438DD5" height="51.2" rx="2.5" ry="2.5" style="stroke:#2E6295;stroke-width:0.5;" width="213" x="227" y="268.2999"/><text fill="#FFFFFE" font-family="sans-serif" font-size="16" font-weight="bold" lengthAdjust="spacing" textLength="193" x="237" y="294.3">Demo - Wicket (Common)</text><text fill="#FFFFFE" font-family="sans-serif" font-size="10" lengthAdjust="spacing" textLength="111" x="278" y="307.5">[Container: packaging: jar]</text></g><!--MD5=[df1cfc51a8f3e60039521c9170723b8d]
entity 8--><g id="elem_8"><rect fill="#438DD5" height="51.2" rx="2.5" ry="2.5" style="stroke:#2E6295;stroke-width:0.5;" width="167" x="250" y="182.2999"/><text fill="#FFFFFE" font-family="sans-serif" font-size="16" font-weight="bold" lengthAdjust="spacing" textLength="147" x="260" y="208.3">Demo - Wicket/JDO</text><text fill="#FFFFFE" font-family="sans-serif" font-size="10" lengthAdjust="spacing" textLength="111" x="278" y="221.5">[Container: packaging: jar]</text></g><!--MD5=[d25218acdea247ba6571a34297258ee9]
entity 9--><g id="elem_9"><rect fill="#438DD5" height="51.2" rx="2.5" ry="2.5" style="stroke:#2E6295;stroke-width:0.5;" width="164" x="251.5" y="96.2999"/><text fill="#FFFFFE" font-family="sans-serif" font-size="16" font-weight="bold" lengthAdjust="spacing" textLength="144" x="261.5" y="122.3">Demo - Wicket/JPA</text><text fill="#FFFFFE" font-family="sans-serif" font-size="10" lengthAdjust="spacing" textLength="111" x="278" y="135.5">[Container: packaging: jar]</text></g><!--MD5=[eeb69082328d10abd3b14fdeede0d8a3]
link 2 to 3--><g id="link_2_3"><path d="M102.81,405.6199 C120.92,450.0599 163.6,541.3699 227,594.7999 C236.75,603.0099 248.27,609.8199 260.06,615.3999 " fill="none" id="2-to-3" style="stroke:#707070;stroke-width:1.0;stroke-dasharray:7.0,7.0;"/><polygon fill="#707070" points="264.77,617.5599,258.2406,610.1865,260.2206,615.4855,254.9216,617.4655,264.77,617.5599" style="stroke:#707070;stroke-width:1.0;"/><text fill="#000000" font-family="sans-serif" font-size="10" lengthAdjust="spacing" textLength="3" x="193" y="558.7999"> </text></g><!--MD5=[d209f2622dd5d3103b9c9b4670e2d6db]
link 2 to 4--><g id="link_2_4"><path d="M114.16,405.3299 C138.8,433.7299 181.93,479.4799 227,508.7999 C237.54,515.6599 249.35,521.7599 261.15,527.0599 " fill="none" id="2-to-4" style="stroke:#707070;stroke-width:1.0;stroke-dasharray:7.0,7.0;"/><polygon fill="#707070" points="265.84,529.1299,259.2169,521.8406,261.2645,527.1138,255.9912,529.1614,265.84,529.1299" style="stroke:#707070;stroke-width:1.0;"/><text fill="#000000" font-family="sans-serif" font-size="10" lengthAdjust="spacing" textLength="3" x="193" y="482.7999"> </text></g><!--MD5=[4e74f4bf4b09d37138dfb3a42c5ccc13]
link 2 to 5--><g id="link_2_5"><path d="M162.27,404.6699 C193.88,416.0199 231.22,429.4299 262.87,440.7999 " fill="none" id="2-to-5" style="stroke:#707070;stroke-width:1.0;stroke-dasharray:7.0,7.0;"/><polygon fill="#707070" points="267.9,442.5999,260.7788,435.7963,263.1936,440.9119,258.078,443.3266,267.9,442.5999" style="stroke:#707070;stroke-width:1.0;"/><text fill="#000000" font-family="sans-serif" font-size="10" lengthAdjust="spacing" textLength="3" x="193" y="414.7999"> </text></g><!--MD5=[8d5e64f07a3a026530162c78b23a3473]
link 2 to 6--><g id="link_2_6"><path d="M162.27,379.7999 C193.88,379.7999 231.22,379.7999 262.87,379.7999 " fill="none" id="2-to-6" style="stroke:#707070;stroke-width:1.0;stroke-dasharray:7.0,7.0;"/><polygon fill="#707070" points="267.9,379.7999,258.9,375.7999,262.9,379.7999,258.9,383.7999,267.9,379.7999" style="stroke:#707070;stroke-width:1.0;"/><text fill="#000000" font-family="sans-serif" font-size="10" lengthAdjust="spacing" textLength="3" x="193" y="377.7999"> </text></g><!--MD5=[f03a35d0a29bcf5b4caf40b6b6655269]
link 2 to 7--><g id="link_2_7"><path d="M162.27,354.9299 C191.78,344.3299 226.29,331.9399 256.49,321.0899 " fill="none" id="2-to-7" style="stroke:#707070;stroke-width:1.0;stroke-dasharray:7.0,7.0;"/><polygon fill="#707070" points="261.3,319.3699,251.478,318.6432,256.5936,321.058,254.1788,326.1735,261.3,319.3699" style="stroke:#707070;stroke-width:1.0;"/><text fill="#000000" font-family="sans-serif" font-size="10" lengthAdjust="spacing" textLength="3" x="193" y="341.7999"> </text></g><!--MD5=[0ad92ee86b71fc92e123e5500ea78341]
link 2 to 8--><g id="link_2_8"><path d="M114.16,354.2699 C138.8,325.8699 181.93,280.1199 227,250.7999 C235.62,245.1899 245.09,240.0899 254.71,235.5199 " fill="none" id="2-to-8" style="stroke:#707070;stroke-width:1.0;stroke-dasharray:7.0,7.0;"/><polygon fill="#707070" points="259.44,233.3099,249.5928,233.4929,254.9094,235.4251,252.9772,240.7417,259.44,233.3099" style="stroke:#707070;stroke-width:1.0;"/><text fill="#000000" font-family="sans-serif" font-size="10" lengthAdjust="spacing" textLength="3" x="193" y="273.7999"> </text></g><!--MD5=[676073e7019c75b59fc2b05612aba49c]
link 2 to 9--><g id="link_2_9"><path d="M102.81,353.9799 C120.92,309.5399 163.6,218.2299 227,164.7999 C233.7,159.1499 241.24,154.1699 249.13,149.7999 " fill="none" id="2-to-9" style="stroke:#707070;stroke-width:1.0;stroke-dasharray:7.0,7.0;"/><polygon fill="#707070" points="253.54,147.4299,243.7186,148.1655,249.1354,149.7962,247.5046,155.2129,253.54,147.4299" style="stroke:#707070;stroke-width:1.0;"/><text fill="#000000" font-family="sans-serif" font-size="10" lengthAdjust="spacing" textLength="3" x="193" y="197.7999"> </text></g><rect height="16.7999" style="stroke:#00000000;stroke-width:1.0;fill:none;" width="164" x="142.5" y="686.7999"/><text fill="#000000" font-family="sans-serif" font-size="14" lengthAdjust="spacing" textLength="164" x="142.5" y="700.7999">Artifact Hierarchy (Maven)</text><!--MD5=[3d0d34b6bf05ea179d5695e45f1fa870]
@startuml
title Examples - Containers
caption Artifact Hierarchy (Maven)

skinparam {
  shadowing false
  arrowFontSize 10
  defaultTextAlignment center
  wrapWidth 200
  maxMessageSize 100
}
hide stereotype
left to right direction
skinparam rectangle<<2>> {
  BackgroundColor #438dd5
  FontColor #fffffe
  BorderColor #2E6295
}
skinparam rectangle<<3>> {
  BackgroundColor #438dd5
  FontColor #fffffe
  BorderColor #2E6295
}
skinparam rectangle<<4>> {
  BackgroundColor #438dd5
  FontColor #fffffe
  BorderColor #2E6295
}
skinparam rectangle<<5>> {
  BackgroundColor #438dd5
  FontColor #fffffe
  BorderColor #2E6295
}
skinparam rectangle<<6>> {
  BackgroundColor #438dd5
  FontColor #fffffe
  BorderColor #2E6295
}
skinparam rectangle<<7>> {
  BackgroundColor #438dd5
  FontColor #fffffe
  BorderColor #2E6295
}
skinparam rectangle<<8>> {
  BackgroundColor #438dd5
  FontColor #fffffe
  BorderColor #2E6295
}
skinparam rectangle<<9>> {
  BackgroundColor #438dd5
  FontColor #fffffe
  BorderColor #2E6295
}
package "Examples\n[Software System]" {
  rectangle "==Demo - Domain\n<size:10>[Container: packaging: jar]</size>" <<3>> as 3
  rectangle "==Demo - JavaFX\n<size:10>[Container: packaging: jar]</size>" <<4>> as 4
  rectangle "==Demo - Parent\n<size:10>[Container: packaging: pom]</size>" <<2>> as 2
  rectangle "==Demo - Vaadin\n<size:10>[Container: packaging: jar]</size>" <<5>> as 5
  rectangle "==Demo - Web\n<size:10>[Container: packaging: jar]</size>" <<6>> as 6
  rectangle "==Demo - Wicket (Common)\n<size:10>[Container: packaging: jar]</size>" <<7>> as 7
  rectangle "==Demo - Wicket/JDO\n<size:10>[Container: packaging: jar]</size>" <<8>> as 8
  rectangle "==Demo - Wicket/JPA\n<size:10>[Container: packaging: jar]</size>" <<9>> as 9
}
2 .[#707070].> 3 : ""
2 .[#707070].> 4 : ""
2 .[#707070].> 5 : ""
2 .[#707070].> 6 : ""
2 .[#707070].> 7 : ""
2 .[#707070].> 8 : ""
2 .[#707070].> 9 : ""
@enduml

PlantUML version 1.2022.3(Tue Mar 29 16:10:57 GMT 2022)
(GPL source distribution)
Java Runtime: OpenJDK Runtime Environment
JVM: OpenJDK 64-Bit Server VM
Default Encoding: UTF-8
Language: en
Country: US
--></g></svg>