<?xml version="1.0" encoding="UTF-8" standalone="no"?><svg xmlns="http://www.w3.org/2000/svg" xmlns:xlink="http://www.w3.org/1999/xlink" contentStyleType="text/css" height="196px" preserveAspectRatio="none" style="width:237px;height:196px;background:#FFFFFF;" version="1.1" viewBox="0 0 237 196" width="237px" zoomAndPan="magnify"><defs/><g><rect height="26.7999" style="stroke:#00000000;stroke-width:1.0;fill:none;" width="169" x="27" y="5"/><text fill="#000000" font-family="sans-serif" font-size="14" font-weight="bold" lengthAdjust="spacing" textLength="159" x="32" y="23.9999">Commons - Containers</text><!--MD5=[ee3ac0098bc7935a5ccae7945d14be4c]
cluster Commons\n[Software System]--><g id="cluster_Commons\n[Software System]"><path d="M8.5,43.7999 L136.5,43.7999 A3.75,3.75 0 0 1 139,46.2999 L146,83.3998 L227.5,83.3998 A2.5,2.5 0 0 1 230,85.8998 L230,161.2999 A2.5,2.5 0 0 1 227.5,163.7999 L8.5,163.7999 A2.5,2.5 0 0 1 6,161.2999 L6,46.2999 A2.5,2.5 0 0 1 8.5,43.7999 " style="stroke:#000000;stroke-width:1.5;fill:none;"/><line style="stroke:#000000;stroke-width:1.5;fill:none;" x1="6" x2="146" y1="83.3998" y2="83.3998"/><text fill="#000000" font-family="sans-serif" font-size="14" font-weight="bold" lengthAdjust="spacing" textLength="71" x="38" y="59.7999">Commons</text><text fill="#000000" font-family="sans-serif" font-size="14" font-weight="bold" lengthAdjust="spacing" textLength="127" x="10" y="76.5998">[Software System]</text></g><!--MD5=[773709cb2207c097691e7e7d3d2cc787]
entity 2--><g id="elem_2"><rect fill="#438DD5" height="51.2" rx="2.5" ry="2.5" style="stroke:#2E6295;stroke-width:0.5;" width="192" x="22" y="96.2999"/><text fill="#FFFFFE" font-family="sans-serif" font-size="16" font-weight="bold" lengthAdjust="spacing" textLength="172" x="32" y="122.3">Apache Isis Commons</text><text fill="#FFFFFE" font-family="sans-serif" font-size="10" lengthAdjust="spacing" textLength="111" x="62.5" y="135.5">[Container: packaging: jar]</text></g><rect height="16.7999" style="stroke:#00000000;stroke-width:1.0;fill:none;" width="164" x="29.5" y="170.7999"/><text fill="#000000" font-family="sans-serif" font-size="14" lengthAdjust="spacing" textLength="164" x="29.5" y="184.7999">Artifact Hierarchy (Maven)</text><!--MD5=[d8600df50c1a2f87114b547bad87455b]
@startuml
title Commons - Containers
caption Artifact Hierarchy (Maven)

skinparam {
  shadowing false
  arrowFontSize 10
  defaultTextAlignment center
  wrapWidth 200
  maxMessageSize 100
}
hide stereotype
left to right direction
skinparam rectangle<<2>> {
  BackgroundColor #438dd5
  FontColor #fffffe
  BorderColor #2E6295
}
package "Commons\n[Software System]" {
  rectangle "==Apache Isis Commons\n<size:10>[Container: packaging: jar]</size>" <<2>> as 2
}
@enduml

PlantUML version 1.2022.3(Tue Mar 29 16:10:57 GMT 2022)
(GPL source distribution)
Java Runtime: OpenJDK Runtime Environment
JVM: OpenJDK 64-Bit Server VM
Default Encoding: UTF-8
Language: en
Country: US
--></g></svg>