<?xml version="1.0" encoding="UTF-8" standalone="no"?><svg xmlns="http://www.w3.org/2000/svg" xmlns:xlink="http://www.w3.org/1999/xlink" contentStyleType="text/css" height="817px" preserveAspectRatio="none" style="width:463px;height:817px;background:#FFFFFF;" version="1.1" viewBox="0 0 463 817" width="463px" zoomAndPan="magnify"><defs/><g><rect height="26.7999" style="stroke:#00000000;stroke-width:1.0;fill:none;" width="165" x="142" y="5"/><text fill="#000000" font-family="sans-serif" font-size="14" font-weight="bold" lengthAdjust="spacing" textLength="155" x="147" y="23.9999">Examples - Containers</text><!--MD5=[a20a5339884a347ed1c1c60f07c12995]
cluster Examples\n[Software System]--><g id="cluster_Examples\n[Software System]"><path d="M8.5,43.7999 L136.5,43.7999 A3.75,3.75 0 0 1 139,46.2999 L146,83.3998 L453.5,83.3998 A2.5,2.5 0 0 1 456,85.8998 L456,782.2999 A2.5,2.5 0 0 1 453.5,784.7999 L8.5,784.7999 A2.5,2.5 0 0 1 6,782.2999 L6,46.2999 A2.5,2.5 0 0 1 8.5,43.7999 " style="stroke:#000000;stroke-width:1.5;fill:none;"/><line style="stroke:#000000;stroke-width:1.5;fill:none;" x1="6" x2="146" y1="83.3998" y2="83.3998"/><text fill="#000000" font-family="sans-serif" font-size="14" font-weight="bold" lengthAdjust="spacing" textLength="67" x="40" y="59.7999">Examples</text><text fill="#000000" font-family="sans-serif" font-size="14" font-weight="bold" lengthAdjust="spacing" textLength="127" x="10" y="76.5998">[Software System]</text></g><!--MD5=[5721696d2af8d327c8f4e7ea88061d17]
entity 3--><g id="elem_3"><rect fill="#438DD5" height="51.2" rx="2.5" ry="2.5" style="stroke:#2E6295;stroke-width:0.5;" width="137" x="265" y="717.2999"/><text fill="#FFFFFE" font-family="sans-serif" font-size="16" font-weight="bold" lengthAdjust="spacing" textLength="117" x="275" y="743.3">Demo - Domain</text><text fill="#FFFFFE" font-family="sans-serif" font-size="10" lengthAdjust="spacing" textLength="111" x="278" y="756.5">[Container: packaging: jar]</text></g><!--MD5=[ca8cb0432c9090f8973c99138b4c3ca0]
entity 4--><g id="elem_4"><rect fill="#438DD5" height="51.2" rx="2.5" ry="2.5" style="stroke:#2E6295;stroke-width:0.5;" width="135" x="266" y="631.2999"/><text fill="#FFFFFE" font-family="sans-serif" font-size="16" font-weight="bold" lengthAdjust="spacing" textLength="115" x="276" y="657.3">Demo - JavaFX</text><text fill="#FFFFFE" font-family="sans-serif" font-size="10" lengthAdjust="spacing" textLength="111" x="278" y="670.5">[Container: packaging: jar]</text></g><!--MD5=[773709cb2207c097691e7e7d3d2cc787]
entity 2--><g id="elem_2"><rect fill="#438DD5" height="51.2" rx="2.5" ry="2.5" style="stroke:#2E6295;stroke-width:0.5;" width="140" x="22" y="417.2999"/><text fill="#FFFFFE" font-family="sans-serif" font-size="16" font-weight="bold" lengthAdjust="spacing" textLength="108" x="38" y="443.3">Demo - Parent</text><text fill="#FFFFFE" font-family="sans-serif" font-size="10" lengthAdjust="spacing" textLength="120" x="32" y="456.5">[Container: packaging: pom]</text></g><!--MD5=[fad6a9c1e4f80769a7fea8e2093188d9]
entity 5--><g id="elem_5"><rect fill="#438DD5" height="51.2" rx="2.5" ry="2.5" style="stroke:#2E6295;stroke-width:0.5;" width="131" x="268" y="545.2999"/><text fill="#FFFFFE" font-family="sans-serif" font-size="16" font-weight="bold" lengthAdjust="spacing" textLength="111" x="278" y="571.3">Demo - Vaadin</text><text fill="#FFFFFE" font-family="sans-serif" font-size="10" lengthAdjust="spacing" textLength="111" x="278" y="584.5">[Container: packaging: jar]</text></g><!--MD5=[a92bd7649e35c8a5fd4b3e9f57d24e4a]
entity 6--><g id="elem_6"><rect fill="#438DD5" height="51.2" rx="2.5" ry="2.5" style="stroke:#2E6295;stroke-width:0.5;" width="131" x="268" y="459.2999"/><text fill="#FFFFFE" font-family="sans-serif" font-size="16" font-weight="bold" lengthAdjust="spacing" textLength="92" x="287.5" y="485.3">Demo - Web</text><text fill="#FFFFFE" font-family="sans-serif" font-size="10" lengthAdjust="spacing" textLength="111" x="278" y="498.5">[Container: packaging: jar]</text></g><!--MD5=[cbb381f34bde73e199f6c8e56df9562c]
entity 7--><g id="elem_7"><rect fill="#438DD5" height="51.2" rx="2.5" ry="2.5" style="stroke:#2E6295;stroke-width:0.5;" width="213" x="227" y="373.2999"/><text fill="#FFFFFE" font-family="sans-serif" font-size="16" font-weight="bold" lengthAdjust="spacing" textLength="193" x="237" y="399.3">Demo - Wicket (Common)</text><text fill="#FFFFFE" font-family="sans-serif" font-size="10" lengthAdjust="spacing" textLength="111" x="278" y="412.5">[Container: packaging: jar]</text></g><!--MD5=[df1cfc51a8f3e60039521c9170723b8d]
entity 8--><g id="elem_8"><rect fill="#438DD5" height="51.2" rx="2.5" ry="2.5" style="stroke:#2E6295;stroke-width:0.5;" width="167" x="250" y="287.2999"/><text fill="#FFFFFE" font-family="sans-serif" font-size="16" font-weight="bold" lengthAdjust="spacing" textLength="147" x="260" y="313.3">Demo - Wicket/JDO</text><text fill="#FFFFFE" font-family="sans-serif" font-size="10" lengthAdjust="spacing" textLength="111" x="278" y="326.5">[Container: packaging: jar]</text></g><!--MD5=[d25218acdea247ba6571a34297258ee9]
entity 9--><g id="elem_9"><rect fill="#438DD5" height="51.2" rx="2.5" ry="2.5" style="stroke:#2E6295;stroke-width:0.5;" width="164" x="251.5" y="201.2999"/><text fill="#FFFFFE" font-family="sans-serif" font-size="16" font-weight="bold" lengthAdjust="spacing" textLength="144" x="261.5" y="227.3">Demo - Wicket/JPA</text><text fill="#FFFFFE" font-family="sans-serif" font-size="10" lengthAdjust="spacing" textLength="111" x="278" y="240.5">[Container: packaging: jar]</text></g><!--MD5=[832467b18690d1dd1b9afbdc6cb3d7bf]
entity 10--><g id="elem_10"><rect fill="#438DD5" height="70.4001" rx="2.5" ry="2.5" style="stroke:#2E6295;stroke-width:0.5;" width="208" x="229.5" y="95.7999"/><text fill="#FFFFFE" font-family="sans-serif" font-size="16" font-weight="bold" lengthAdjust="spacing" textLength="184" x="239.5" y="121.8">Demo - Wicket/JPA (with</text><text fill="#FFFFFE" font-family="sans-serif" font-size="16" font-weight="bold" lengthAdjust="spacing" textLength="75" x="296" y="141">GraphQL)</text><text fill="#FFFFFE" font-family="sans-serif" font-size="10" lengthAdjust="spacing" textLength="111" x="278" y="154.2">[Container: packaging: jar]</text></g><!--MD5=[eeb69082328d10abd3b14fdeede0d8a3]
link 2 to 3--><g id="link_2_3"><path d="M99.84,468.3699 C114.68,519.1999 154.45,633.7399 227,699.7999 C236.55,708.4999 248.1,715.5599 260,721.2499 " fill="none" id="2-to-3" style="stroke:#707070;stroke-width:1.0;stroke-dasharray:7.0,7.0;"/><polygon fill="#707070" points="264.76,723.4399,258.2498,716.0495,260.216,721.3537,254.9119,723.3199,264.76,723.4399" style="stroke:#707070;stroke-width:1.0;"/><text fill="#000000" font-family="sans-serif" font-size="10" lengthAdjust="spacing" textLength="3" x="193" y="663.7999"> </text></g><!--MD5=[d209f2622dd5d3103b9c9b4670e2d6db]
link 2 to 4--><g id="link_2_4"><path d="M107.27,468.5599 C128.82,505.3499 172.96,573.0099 227,613.7999 C237.24,621.5299 249.07,628.1099 261.02,633.6099 " fill="none" id="2-to-4" style="stroke:#707070;stroke-width:1.0;stroke-dasharray:7.0,7.0;"/><polygon fill="#707070" points="265.79,635.7499,259.2136,628.4184,261.2275,633.7046,255.9412,635.7185,265.79,635.7499" style="stroke:#707070;stroke-width:1.0;"/><text fill="#000000" font-family="sans-serif" font-size="10" lengthAdjust="spacing" textLength="3" x="193" y="584.7999"> </text></g><!--MD5=[4e74f4bf4b09d37138dfb3a42c5ccc13]
link 2 to 5--><g id="link_2_5"><path d="M129.49,468.4499 C155.86,486.3599 192.72,510.1199 227,527.7999 C238.41,533.6799 250.81,539.3499 262.97,544.5199 " fill="none" id="2-to-5" style="stroke:#707070;stroke-width:1.0;stroke-dasharray:7.0,7.0;"/><polygon fill="#707070" points="267.79,546.5599,261.0475,539.3809,263.1818,544.6196,257.9431,546.754,267.79,546.5599" style="stroke:#707070;stroke-width:1.0;"/><text fill="#000000" font-family="sans-serif" font-size="10" lengthAdjust="spacing" textLength="3" x="193" y="506.7999"> </text></g><!--MD5=[8d5e64f07a3a026530162c78b23a3473]
link 2 to 6--><g id="link_2_6"><path d="M162.13,458.0199 C172.13,460.0599 182.32,462.0499 192,463.7999 C214.9,467.9399 240.01,471.8799 262.59,475.1999 " fill="none" id="2-to-6" style="stroke:#707070;stroke-width:1.0;stroke-dasharray:7.0,7.0;"/><polygon fill="#707070" points="267.66,475.9499,259.3395,470.6803,262.7134,475.2208,258.1729,478.5948,267.66,475.9499" style="stroke:#707070;stroke-width:1.0;"/><text fill="#000000" font-family="sans-serif" font-size="10" lengthAdjust="spacing" textLength="3" x="193" y="461.7999"> </text></g><!--MD5=[f03a35d0a29bcf5b4caf40b6b6655269]
link 2 to 7--><g id="link_2_7"><path d="M162.27,430.0699 C180.87,426.6599 201.45,422.8799 221.69,419.1599 " fill="none" id="2-to-7" style="stroke:#707070;stroke-width:1.0;stroke-dasharray:7.0,7.0;"/><polygon fill="#707070" points="226.83,418.2099,217.2567,415.8967,221.9118,419.1106,218.6978,423.7658,226.83,418.2099" style="stroke:#707070;stroke-width:1.0;"/><text fill="#000000" font-family="sans-serif" font-size="10" lengthAdjust="spacing" textLength="3" x="193" y="422.7999"> </text></g><!--MD5=[0ad92ee86b71fc92e123e5500ea78341]
link 2 to 8--><g id="link_2_8"><path d="M128.28,417.2599 C154.68,398.8099 192.09,374.0399 227,355.7999 C237.35,350.3899 248.55,345.1899 259.64,340.3899 " fill="none" id="2-to-8" style="stroke:#707070;stroke-width:1.0;stroke-dasharray:7.0,7.0;"/><polygon fill="#707070" points="264.38,338.3499,254.532,338.2186,259.7843,340.3195,257.6834,345.5718,264.38,338.3499" style="stroke:#707070;stroke-width:1.0;"/><text fill="#000000" font-family="sans-serif" font-size="10" lengthAdjust="spacing" textLength="3" x="193" y="371.7999"> </text></g><!--MD5=[676073e7019c75b59fc2b05612aba49c]
link 2 to 9--><g id="link_2_9"><path d="M107.02,417.0399 C128.41,379.8799 172.54,311.1499 227,269.7999 C234.38,264.1999 242.58,259.2099 251.07,254.7899 " fill="none" id="2-to-9" style="stroke:#707070;stroke-width:1.0;stroke-dasharray:7.0,7.0;"/><polygon fill="#707070" points="255.81,252.3999,245.9737,252.8975,251.3494,254.6588,249.588,260.0345,255.81,252.3999" style="stroke:#707070;stroke-width:1.0;"/><text fill="#000000" font-family="sans-serif" font-size="10" lengthAdjust="spacing" textLength="3" x="193" y="295.7999"> </text></g><!--MD5=[ecc6855e18f9a45a4c7eaf523375ba95]
link 2 to 10--><g id="link_2_10"><path d="M100.36,417.1199 C116,366.5599 156.96,253.0099 227,183.7999 C232.55,178.3099 238.79,173.2799 245.39,168.6999 " fill="none" id="2-to-10" style="stroke:#707070;stroke-width:1.0;stroke-dasharray:7.0,7.0;"/><polygon fill="#707070" points="249.53,165.8999,239.8335,167.6255,245.3874,168.6997,244.3132,174.2537,249.53,165.8999" style="stroke:#707070;stroke-width:1.0;"/><text fill="#000000" font-family="sans-serif" font-size="10" lengthAdjust="spacing" textLength="3" x="193" y="217.7999"> </text></g><rect height="16.7999" style="stroke:#00000000;stroke-width:1.0;fill:none;" width="164" x="142.5" y="791.7999"/><text fill="#000000" font-family="sans-serif" font-size="14" lengthAdjust="spacing" textLength="164" x="142.5" y="805.7999">Artifact Hierarchy (Maven)</text><!--MD5=[5112834a12fd817125ae794cf0a219c5]
@startuml
title Examples - Containers
caption Artifact Hierarchy (Maven)

skinparam {
  shadowing false
  arrowFontSize 10
  defaultTextAlignment center
  wrapWidth 200
  maxMessageSize 100
}
hide stereotype
left to right direction
skinparam rectangle<<2>> {
  BackgroundColor #438dd5
  FontColor #fffffe
  BorderColor #2E6295
}
skinparam rectangle<<3>> {
  BackgroundColor #438dd5
  FontColor #fffffe
  BorderColor #2E6295
}
skinparam rectangle<<4>> {
  BackgroundColor #438dd5
  FontColor #fffffe
  BorderColor #2E6295
}
skinparam rectangle<<5>> {
  BackgroundColor #438dd5
  FontColor #fffffe
  BorderColor #2E6295
}
skinparam rectangle<<6>> {
  BackgroundColor #438dd5
  FontColor #fffffe
  BorderColor #2E6295
}
skinparam rectangle<<7>> {
  BackgroundColor #438dd5
  FontColor #fffffe
  BorderColor #2E6295
}
skinparam rectangle<<8>> {
  BackgroundColor #438dd5
  FontColor #fffffe
  BorderColor #2E6295
}
skinparam rectangle<<9>> {
  BackgroundColor #438dd5
  FontColor #fffffe
  BorderColor #2E6295
}
skinparam rectangle<<10>> {
  BackgroundColor #438dd5
  FontColor #fffffe
  BorderColor #2E6295
}
package "Examples\n[Software System]" {
  rectangle "==Demo - Domain\n<size:10>[Container: packaging: jar]</size>" <<3>> as 3
  rectangle "==Demo - JavaFX\n<size:10>[Container: packaging: jar]</size>" <<4>> as 4
  rectangle "==Demo - Parent\n<size:10>[Container: packaging: pom]</size>" <<2>> as 2
  rectangle "==Demo - Vaadin\n<size:10>[Container: packaging: jar]</size>" <<5>> as 5
  rectangle "==Demo - Web\n<size:10>[Container: packaging: jar]</size>" <<6>> as 6
  rectangle "==Demo - Wicket (Common)\n<size:10>[Container: packaging: jar]</size>" <<7>> as 7
  rectangle "==Demo - Wicket/JDO\n<size:10>[Container: packaging: jar]</size>" <<8>> as 8
  rectangle "==Demo - Wicket/JPA\n<size:10>[Container: packaging: jar]</size>" <<9>> as 9
  rectangle "==Demo - Wicket/JPA (with GraphQL)\n<size:10>[Container: packaging: jar]</size>" <<10>> as 10
}
2 .[#707070].> 3 : ""
2 .[#707070].> 4 : ""
2 .[#707070].> 5 : ""
2 .[#707070].> 6 : ""
2 .[#707070].> 7 : ""
2 .[#707070].> 8 : ""
2 .[#707070].> 9 : ""
2 .[#707070].> 10 : ""
@enduml

PlantUML version 1.2022.5(Sat Apr 30 10:55:52 GMT 2022)
(GPL source distribution)
Java Runtime: OpenJDK Runtime Environment
JVM: OpenJDK 64-Bit Server VM
Default Encoding: UTF-8
Language: en
Country: US
--></g></svg>