<?xml version="1.0" encoding="UTF-8" standalone="no"?><svg xmlns="http://www.w3.org/2000/svg" xmlns:xlink="http://www.w3.org/1999/xlink" contentStyleType="text/css" height="214px" preserveAspectRatio="none" style="width:212px;height:214px;background:#FFFFFF;" version="1.1" viewBox="0 0 212 214" width="212px" zoomAndPan="magnify"><defs/><g><rect height="26.7999" style="stroke:#00000000;stroke-width:1.0;fill:none;" width="161" x="18.5" y="5"/><text fill="#000000" font-family="sans-serif" font-size="14" font-weight="bold" lengthAdjust="spacing" textLength="151" x="23.5" y="23.9999">Keycloak - Containers</text><!--MD5=[526fe980e24bcf717557c65232349606]
cluster Keycloak\n[Software System]--><g id="cluster_Keycloak\n[Software System]"><path d="M8.5,43.7999 L136.5,43.7999 A3.75,3.75 0 0 1 139,46.2999 L146,83.3998 L202.5,83.3998 A2.5,2.5 0 0 1 205,85.8998 L205,179.2999 A2.5,2.5 0 0 1 202.5,181.7999 L8.5,181.7999 A2.5,2.5 0 0 1 6,179.2999 L6,46.2999 A2.5,2.5 0 0 1 8.5,43.7999 " style="stroke:#000000;stroke-width:1.5;fill:none;"/><line style="stroke:#000000;stroke-width:1.5;fill:none;" x1="6" x2="146" y1="83.3998" y2="83.3998"/><text fill="#000000" font-family="sans-serif" font-size="14" font-weight="bold" lengthAdjust="spacing" textLength="63" x="42" y="59.7999">Keycloak</text><text fill="#000000" font-family="sans-serif" font-size="14" font-weight="bold" lengthAdjust="spacing" textLength="127" x="10" y="76.5998">[Software System]</text></g><!--MD5=[773709cb2207c097691e7e7d3d2cc787]
entity 2--><g id="elem_2"><rect fill="#438DD5" height="70.4001" rx="2.5" ry="2.5" style="stroke:#2E6295;stroke-width:0.5;" width="167" x="22" y="95.7999"/><text fill="#FFFFFE" font-family="sans-serif" font-size="16" font-weight="bold" lengthAdjust="spacing" textLength="141" x="33" y="121.8">Apache Causeway</text><text fill="#FFFFFE" font-family="sans-serif" font-size="16" font-weight="bold" lengthAdjust="spacing" textLength="147" x="32" y="141">Security - Keycloak</text><text fill="#FFFFFE" font-family="sans-serif" font-size="10" lengthAdjust="spacing" textLength="111" x="50" y="154.2">[Container: packaging: jar]</text></g><rect height="16.7999" style="stroke:#00000000;stroke-width:1.0;fill:none;" width="164" x="17" y="188.7999"/><text fill="#000000" font-family="sans-serif" font-size="14" lengthAdjust="spacing" textLength="164" x="17" y="202.7999">Artifact Hierarchy (Maven)</text><!--MD5=[2caaa788548942aae70601a6a488fbd3]
@startuml
title Keycloak - Containers
caption Artifact Hierarchy (Maven)

skinparam {
  shadowing false
  arrowFontSize 10
  defaultTextAlignment center
  wrapWidth 200
  maxMessageSize 100
}
hide stereotype
left to right direction
skinparam rectangle<<2>> {
  BackgroundColor #438dd5
  FontColor #fffffe
  BorderColor #2E6295
}
package "Keycloak\n[Software System]" {
  rectangle "==Apache Causeway Security - Keycloak\n<size:10>[Container: packaging: jar]</size>" <<2>> as 2
}
@enduml

PlantUML version 1.2022.5(Sat Apr 30 10:55:52 GMT 2022)
(GPL source distribution)
Java Runtime: OpenJDK Runtime Environment
JVM: OpenJDK 64-Bit Server VM
Default Encoding: UTF-8
Language: en
Country: US
--></g></svg>