<?xml version="1.0" encoding="us-ascii" standalone="no"?><svg xmlns="http://www.w3.org/2000/svg" xmlns:xlink="http://www.w3.org/1999/xlink" contentStyleType="text/css" height="187px" preserveAspectRatio="none" style="width:396px;height:187px;background:#FFFFFF;" version="1.1" viewBox="0 0 396 187" width="396px" zoomAndPan="magnify"><defs/><g><!--class Car--><g id="elem_Car"><rect codeLine="1" fill="#F1F1F1" height="48" id="Car" rx="2.5" ry="2.5" style="stroke:#181818;stroke-width:0.5;" width="55" x="166.5" y="7"/><ellipse cx="181.5" cy="23" fill="#ADD1B2" rx="11" ry="11" style="stroke:#181818;stroke-width:1.0;"/><path d="M184.4688,28.6406 Q183.8906,28.9375 183.25,29.0781 Q182.6094,29.2344 181.9063,29.2344 Q179.4063,29.2344 178.0781,27.5938 Q176.7656,25.9375 176.7656,22.8125 Q176.7656,19.6875 178.0781,18.0313 Q179.4063,16.375 181.9063,16.375 Q182.6094,16.375 183.25,16.5313 Q183.9063,16.6875 184.4688,16.9844 L184.4688,19.7031 Q183.8438,19.125 183.25,18.8594 Q182.6563,18.5781 182.0313,18.5781 Q180.6875,18.5781 180,19.6563 Q179.3125,20.7188 179.3125,22.8125 Q179.3125,24.9063 180,25.9844 Q180.6875,27.0469 182.0313,27.0469 Q182.6563,27.0469 183.25,26.7813 Q183.8438,26.5 184.4688,25.9219 L184.4688,28.6406 Z " fill="#000000"/><text fill="#000000" font-family="sans-serif" font-size="14" lengthAdjust="spacing" textLength="23" x="195.5" y="27.8467">Car</text><line style="stroke:#181818;stroke-width:0.5;" x1="167.5" x2="220.5" y1="39" y2="39"/><line style="stroke:#181818;stroke-width:0.5;" x1="167.5" x2="220.5" y1="47" y2="47"/></g><!--class Driver--><g id="elem_Driver"><rect fill="#F1F1F1" height="48" id="Driver" rx="2.5" ry="2.5" style="stroke:#181818;stroke-width:0.5;" width="72" x="7" y="7"/><ellipse cx="22" cy="23" fill="#ADD1B2" rx="11" ry="11" style="stroke:#181818;stroke-width:1.0;"/><path d="M24.9688,28.6406 Q24.3906,28.9375 23.75,29.0781 Q23.1094,29.2344 22.4063,29.2344 Q19.9063,29.2344 18.5781,27.5938 Q17.2656,25.9375 17.2656,22.8125 Q17.2656,19.6875 18.5781,18.0313 Q19.9063,16.375 22.4063,16.375 Q23.1094,16.375 23.75,16.5313 Q24.4063,16.6875 24.9688,16.9844 L24.9688,19.7031 Q24.3438,19.125 23.75,18.8594 Q23.1563,18.5781 22.5313,18.5781 Q21.1875,18.5781 20.5,19.6563 Q19.8125,20.7188 19.8125,22.8125 Q19.8125,24.9063 20.5,25.9844 Q21.1875,27.0469 22.5313,27.0469 Q23.1563,27.0469 23.75,26.7813 Q24.3438,26.5 24.9688,25.9219 L24.9688,28.6406 Z " fill="#000000"/><text fill="#000000" font-family="sans-serif" font-size="14" lengthAdjust="spacing" textLength="40" x="36" y="27.8467">Driver</text><line style="stroke:#181818;stroke-width:0.5;" x1="8" x2="78" y1="39" y2="39"/><line style="stroke:#181818;stroke-width:0.5;" x1="8" x2="78" y1="47" y2="47"/></g><!--class Wheel--><g id="elem_Wheel"><rect fill="#F1F1F1" height="48" id="Wheel" rx="2.5" ry="2.5" style="stroke:#181818;stroke-width:0.5;" width="75" x="314.5" y="7"/><ellipse cx="329.5" cy="23" fill="#ADD1B2" rx="11" ry="11" style="stroke:#181818;stroke-width:1.0;"/><path d="M332.4688,28.6406 Q331.8906,28.9375 331.25,29.0781 Q330.6094,29.2344 329.9063,29.2344 Q327.4063,29.2344 326.0781,27.5938 Q324.7656,25.9375 324.7656,22.8125 Q324.7656,19.6875 326.0781,18.0313 Q327.4063,16.375 329.9063,16.375 Q330.6094,16.375 331.25,16.5313 Q331.9063,16.6875 332.4688,16.9844 L332.4688,19.7031 Q331.8438,19.125 331.25,18.8594 Q330.6563,18.5781 330.0313,18.5781 Q328.6875,18.5781 328,19.6563 Q327.3125,20.7188 327.3125,22.8125 Q327.3125,24.9063 328,25.9844 Q328.6875,27.0469 330.0313,27.0469 Q330.6563,27.0469 331.25,26.7813 Q331.8438,26.5 332.4688,25.9219 L332.4688,28.6406 Z " fill="#000000"/><text fill="#000000" font-family="sans-serif" font-size="14" lengthAdjust="spacing" textLength="43" x="343.5" y="27.8467">Wheel</text><line style="stroke:#181818;stroke-width:0.5;" x1="315.5" x2="388.5" y1="39" y2="39"/><line style="stroke:#181818;stroke-width:0.5;" x1="315.5" x2="388.5" y1="47" y2="47"/></g><!--class Person--><g id="elem_Person"><rect fill="#F1F1F1" height="48" id="Person" rx="2.5" ry="2.5" style="stroke:#181818;stroke-width:0.5;" width="81" x="153.5" y="132"/><ellipse cx="168.5" cy="148" fill="#ADD1B2" rx="11" ry="11" style="stroke:#181818;stroke-width:1.0;"/><path d="M171.4688,153.6406 Q170.8906,153.9375 170.25,154.0781 Q169.6094,154.2344 168.9063,154.2344 Q166.4063,154.2344 165.0781,152.5938 Q163.7656,150.9375 163.7656,147.8125 Q163.7656,144.6875 165.0781,143.0313 Q166.4063,141.375 168.9063,141.375 Q169.6094,141.375 170.25,141.5313 Q170.9063,141.6875 171.4688,141.9844 L171.4688,144.7031 Q170.8438,144.125 170.25,143.8594 Q169.6563,143.5781 169.0313,143.5781 Q167.6875,143.5781 167,144.6563 Q166.3125,145.7188 166.3125,147.8125 Q166.3125,149.9063 167,150.9844 Q167.6875,152.0469 169.0313,152.0469 Q169.6563,152.0469 170.25,151.7813 Q170.8438,151.5 171.4688,150.9219 L171.4688,153.6406 Z " fill="#000000"/><text fill="#000000" font-family="sans-serif" font-size="14" lengthAdjust="spacing" textLength="49" x="182.5" y="152.8467">Person</text><line style="stroke:#181818;stroke-width:0.5;" x1="154.5" x2="233.5" y1="164" y2="164"/><line style="stroke:#181818;stroke-width:0.5;" x1="154.5" x2="233.5" y1="172" y2="172"/></g><!--link Driver to Car--><g id="link_Driver_Car"><path codeLine="3" d="M79.17,31 C105.87,31 141.67,31 166.16,31 " fill="none" id="Driver-Car" style="stroke:#181818;stroke-width:1.0;"/><polygon fill="#000000" points="106.25,19.5664,97.2049,16.6275,97.2049,22.5053,106.25,19.5664" style="stroke:#000000;stroke-width:1.0;"/><text fill="#000000" font-family="sans-serif" font-size="13" lengthAdjust="spacing" textLength="38" x="110.25" y="24.0669">drives</text></g><!--reverse link Car to Wheel--><g id="link_Car_Wheel"><path codeLine="4" d="M235.74,31 C260.03,31 290.41,31 314.02,31 " fill="none" id="Car-backto-Wheel" style="stroke:#181818;stroke-width:1.0;"/><polygon fill="#181818" points="222.88,31,228.88,35,234.88,31,228.88,27,222.88,31" style="stroke:#181818;stroke-width:1.0;"/><polygon fill="#000000" points="249,19.5664,239.9549,16.6275,239.9549,22.5053,249,19.5664" style="stroke:#000000;stroke-width:1.0;"/><text fill="#000000" font-family="sans-serif" font-size="13" lengthAdjust="spacing" textLength="43" x="253" y="24.0669">have 4</text></g><!--link Car to Person--><g id="link_Car_Person"><path codeLine="5" d="M194,55.42 C194,77.31 194,109.8 194,131.66 " fill="none" id="Car-Person" style="stroke:#181818;stroke-width:1.0;"/><polygon fill="#000000" points="199,88.5664,196.0611,97.6115,201.9389,97.6115,199,88.5664" style="stroke:#000000;stroke-width:1.0;"/><text fill="#000000" font-family="sans-serif" font-size="13" lengthAdjust="spacing" textLength="32" x="208" y="98.0669">owns</text></g><!--SRC=[Iyv9B2vMS4uiuk9oASeiIorIq0Nn5AmKKa3SOWKxBX1NIrSXF2CrDGSedf5ObgfW0XNNrLK8I2qgpiy3IjWev9Vd5GC0]--></g></svg>