<?xml version="1.0" encoding="UTF-8" standalone="no"?><svg xmlns="http://www.w3.org/2000/svg" xmlns:xlink="http://www.w3.org/1999/xlink" contentScriptType="application/ecmascript" contentStyleType="text/css" height="196px" preserveAspectRatio="none" style="width:367px;height:196px;" version="1.1" viewBox="0 0 367 196" width="367px" zoomAndPan="magnify"><defs><filter height="300%" id="f1fbfkwplcf7tv" width="300%" x="-1" y="-1"><feGaussianBlur result="blurOut" stdDeviation="2.0"/><feColorMatrix in="blurOut" result="blurOut2" type="matrix" values="0 0 0 0 0 0 0 0 0 0 0 0 0 0 0 0 0 0 .4 0"/><feOffset dx="4.0" dy="4.0" in="blurOut2" result="blurOut3"/><feBlend in="SourceGraphic" in2="blurOut3" mode="normal"/></filter></defs><g><!--MD5=[3f0ef310aaa84a542276992c5216544d]
class Car--><rect codeLine="1" fill="#FEFECE" filter="url(#f1fbfkwplcf7tv)" height="48" id="Car" style="stroke:#A80036;stroke-width:1.5;" width="49" x="152.5" y="7"/><ellipse cx="167.5" cy="23" fill="#ADD1B2" rx="11" ry="11" style="stroke:#A80036;stroke-width:1.0;"/><path d="M163.4375,23.1406 Q163.4375,19.6875 164.5313,18.0625 Q165.6406,16.4219 167.8594,16.4219 Q169.0625,16.4219 170.3281,17.0781 L170.3281,19.125 Q168.875,18.3438 167.9375,18.3438 Q165.4844,18.3438 165.4844,23.1406 Q165.4844,25.8438 166.1094,26.9063 Q166.75,27.9531 167.9375,27.9531 Q168.9063,27.9531 170.4063,27.0313 L170.4063,29.2344 Q169.1406,29.8594 167.8594,29.8594 Q165.5938,29.8594 164.5156,28.2813 Q163.4375,26.7031 163.4375,23.1406 Z " fill="#000000"/><text fill="#000000" font-family="sans-serif" font-size="12" lengthAdjust="spacing" textLength="17" x="181.5" y="27.5352">Car</text><line style="stroke:#A80036;stroke-width:1.5;" x1="153.5" x2="200.5" y1="39" y2="39"/><line style="stroke:#A80036;stroke-width:1.5;" x1="153.5" x2="200.5" y1="47" y2="47"/><!--MD5=[eee9d396a8aca12c6c152931e8dc1ab6]
class Driver--><rect fill="#FEFECE" filter="url(#f1fbfkwplcf7tv)" height="48" id="Driver" style="stroke:#A80036;stroke-width:1.5;" width="62" x="7" y="7"/><ellipse cx="22" cy="23" fill="#ADD1B2" rx="11" ry="11" style="stroke:#A80036;stroke-width:1.0;"/><path d="M17.9375,23.1406 Q17.9375,19.6875 19.0313,18.0625 Q20.1406,16.4219 22.3594,16.4219 Q23.5625,16.4219 24.8281,17.0781 L24.8281,19.125 Q23.375,18.3438 22.4375,18.3438 Q19.9844,18.3438 19.9844,23.1406 Q19.9844,25.8438 20.6094,26.9063 Q21.25,27.9531 22.4375,27.9531 Q23.4063,27.9531 24.9063,27.0313 L24.9063,29.2344 Q23.6406,29.8594 22.3594,29.8594 Q20.0938,29.8594 19.0156,28.2813 Q17.9375,26.7031 17.9375,23.1406 Z " fill="#000000"/><text fill="#000000" font-family="sans-serif" font-size="12" lengthAdjust="spacing" textLength="30" x="36" y="27.5352">Driver</text><line style="stroke:#A80036;stroke-width:1.5;" x1="8" x2="68" y1="39" y2="39"/><line style="stroke:#A80036;stroke-width:1.5;" x1="8" x2="68" y1="47" y2="47"/><!--MD5=[63ed6a0a2dfd613875880437a5e2b06e]
class Wheel--><rect fill="#FEFECE" filter="url(#f1fbfkwplcf7tv)" height="48" id="Wheel" style="stroke:#A80036;stroke-width:1.5;" width="63" x="290.5" y="7"/><ellipse cx="305.5" cy="23" fill="#ADD1B2" rx="11" ry="11" style="stroke:#A80036;stroke-width:1.0;"/><path d="M301.4375,23.1406 Q301.4375,19.6875 302.5313,18.0625 Q303.6406,16.4219 305.8594,16.4219 Q307.0625,16.4219 308.3281,17.0781 L308.3281,19.125 Q306.875,18.3438 305.9375,18.3438 Q303.4844,18.3438 303.4844,23.1406 Q303.4844,25.8438 304.1094,26.9063 Q304.75,27.9531 305.9375,27.9531 Q306.9063,27.9531 308.4063,27.0313 L308.4063,29.2344 Q307.1406,29.8594 305.8594,29.8594 Q303.5938,29.8594 302.5156,28.2813 Q301.4375,26.7031 301.4375,23.1406 Z " fill="#000000"/><text fill="#000000" font-family="sans-serif" font-size="12" lengthAdjust="spacing" textLength="31" x="319.5" y="27.5352">Wheel</text><line style="stroke:#A80036;stroke-width:1.5;" x1="291.5" x2="352.5" y1="39" y2="39"/><line style="stroke:#A80036;stroke-width:1.5;" x1="291.5" x2="352.5" y1="47" y2="47"/><!--MD5=[09ce52be0ee7de43c61b6e2d59bf108b]
class Person--><rect fill="#FEFECE" filter="url(#f1fbfkwplcf7tv)" height="48" id="Person" style="stroke:#A80036;stroke-width:1.5;" width="67" x="143.5" y="134"/><ellipse cx="158.5" cy="150" fill="#ADD1B2" rx="11" ry="11" style="stroke:#A80036;stroke-width:1.0;"/><path d="M154.4375,150.1406 Q154.4375,146.6875 155.5313,145.0625 Q156.6406,143.4219 158.8594,143.4219 Q160.0625,143.4219 161.3281,144.0781 L161.3281,146.125 Q159.875,145.3438 158.9375,145.3438 Q156.4844,145.3438 156.4844,150.1406 Q156.4844,152.8438 157.1094,153.9063 Q157.75,154.9531 158.9375,154.9531 Q159.9063,154.9531 161.4063,154.0313 L161.4063,156.2344 Q160.1406,156.8594 158.8594,156.8594 Q156.5938,156.8594 155.5156,155.2813 Q154.4375,153.7031 154.4375,150.1406 Z " fill="#000000"/><text fill="#000000" font-family="sans-serif" font-size="12" lengthAdjust="spacing" textLength="35" x="172.5" y="154.5352">Person</text><line style="stroke:#A80036;stroke-width:1.5;" x1="144.5" x2="209.5" y1="166" y2="166"/><line style="stroke:#A80036;stroke-width:1.5;" x1="144.5" x2="209.5" y1="174" y2="174"/><!--MD5=[85884a73f707af3ae230d559cad4fc2c]
link Driver to Car--><path codeLine="3" d="M69.19,31 C94.33,31 129.18,31 152.38,31 " fill="none" id="Driver-Car" style="stroke:#A80036;stroke-width:1.0;"/><polygon fill="#000000" points="96.25,18.7725,87.2049,15.8335,87.2049,21.7114,96.25,18.7725" style="stroke:#000000;stroke-width:1.0;"/><text fill="#000000" font-family="sans-serif" font-size="13" lengthAdjust="spacing" textLength="34" x="100.25" y="23.6855">drives</text><!--MD5=[6190aadcc963d15c02367c0199cc5452]
reverse link Car to Wheel--><path codeLine="4" d="M214.61,31 C238.14,31 268.13,31 290.43,31 " fill="none" id="Car-backto-Wheel" style="stroke:#A80036;stroke-width:1.0;"/><polygon fill="#A80036" points="201.6,31,207.6,35,213.6,31,207.6,27,201.6,31" style="stroke:#A80036;stroke-width:1.0;"/><polygon fill="#000000" points="229,18.7725,219.9549,15.8335,219.9549,21.7114,229,18.7725" style="stroke:#000000;stroke-width:1.0;"/><text fill="#000000" font-family="sans-serif" font-size="13" lengthAdjust="spacing" textLength="39" x="233" y="23.6855">have 4</text><!--MD5=[2800f28b8e2a8d078fc1fa2e2aa6715e]
link Car to Person--><path codeLine="5" d="M177,55.22 C177,77.67 177,111.5 177,133.91 " fill="none" id="Car-Person" style="stroke:#A80036;stroke-width:1.0;"/><polygon fill="#000000" points="182,89.7725,179.0611,98.8175,184.9389,98.8175,182,89.7725" style="stroke:#000000;stroke-width:1.0;"/><text fill="#000000" font-family="sans-serif" font-size="13" lengthAdjust="spacing" textLength="30" x="191" y="99.6855">owns</text><!--MD5=[fbad7fb825cb0d1f29810cf350d22d7e]
@startuml
class Car

Driver - Car : drives >
Car *- Wheel : have 4 >
Car - - Person : < owns
@enduml

PlantUML version 1.2021.01(Tue Feb 02 07:55:08 GMT 2021)
(GPL source distribution)
Java Runtime: OpenJDK Runtime Environment
JVM: OpenJDK 64-Bit Server VM
Default Encoding: UTF-8
Language: en
Country: US
--></g></svg>