<svg xmlns="http://www.w3.org/2000/svg" xmlns:xlink="http://www.w3.org/1999/xlink" contentStyleType="text/css" data-diagram-type="CLASS" height="187px" preserveAspectRatio="none" style="width:402px;height:187px;background:#FFFFFF;" version="1.1" viewBox="0 0 402 187" width="402px" zoomAndPan="magnify"><defs/><g><!--class Car--><g class="entity" data-entity="Car" data-source-line="1" data-uid="ent0002" id="entity_Car"><rect fill="#F1F1F1" height="48" rx="2.5" ry="2.5" style="stroke:#181818;stroke-width:0.5;" width="56.1104" x="170.48" y="7"/><ellipse cx="185.48" cy="23" fill="#ADD1B2" rx="11" ry="11" style="stroke:#181818;stroke-width:1;"/><path d="M188.4488,28.6406 Q187.8706,28.9375 187.23,29.0781 Q186.5894,29.2344 185.8863,29.2344 Q183.3863,29.2344 182.0581,27.5938 Q180.7456,25.9375 180.7456,22.8125 Q180.7456,19.6875 182.0581,18.0313 Q183.3863,16.375 185.8863,16.375 Q186.5894,16.375 187.23,16.5313 Q187.8863,16.6875 188.4488,16.9844 L188.4488,19.7031 Q187.8238,19.125 187.23,18.8594 Q186.6363,18.5781 186.0113,18.5781 Q184.6675,18.5781 183.98,19.6563 Q183.2925,20.7188 183.2925,22.8125 Q183.2925,24.9063 183.98,25.9844 Q184.6675,27.0469 186.0113,27.0469 Q186.6363,27.0469 187.23,26.7813 Q187.8238,26.5 188.4488,25.9219 L188.4488,28.6406 Z " fill="#000000"/><text fill="#000000" font-family="sans-serif" font-size="14" lengthAdjust="spacing" textLength="24.1104" x="199.48" y="27.8467">Car</text><line style="stroke:#181818;stroke-width:0.5;" x1="171.48" x2="225.5904" y1="39" y2="39"/><line style="stroke:#181818;stroke-width:0.5;" x1="171.48" x2="225.5904" y1="47" y2="47"/></g><!--class Driver--><g class="entity" data-entity="Driver" data-source-line="3" data-uid="ent0003" id="entity_Driver"><rect fill="#F1F1F1" height="48" rx="2.5" ry="2.5" style="stroke:#181818;stroke-width:0.5;" width="75.0801" x="7" y="7"/><ellipse cx="22" cy="23" fill="#ADD1B2" rx="11" ry="11" style="stroke:#181818;stroke-width:1;"/><path d="M24.9688,28.6406 Q24.3906,28.9375 23.75,29.0781 Q23.1094,29.2344 22.4063,29.2344 Q19.9063,29.2344 18.5781,27.5938 Q17.2656,25.9375 17.2656,22.8125 Q17.2656,19.6875 18.5781,18.0313 Q19.9063,16.375 22.4063,16.375 Q23.1094,16.375 23.75,16.5313 Q24.4063,16.6875 24.9688,16.9844 L24.9688,19.7031 Q24.3438,19.125 23.75,18.8594 Q23.1563,18.5781 22.5313,18.5781 Q21.1875,18.5781 20.5,19.6563 Q19.8125,20.7188 19.8125,22.8125 Q19.8125,24.9063 20.5,25.9844 Q21.1875,27.0469 22.5313,27.0469 Q23.1563,27.0469 23.75,26.7813 Q24.3438,26.5 24.9688,25.9219 L24.9688,28.6406 Z " fill="#000000"/><text fill="#000000" font-family="sans-serif" font-size="14" lengthAdjust="spacing" textLength="43.0801" x="36" y="27.8467">Driver</text><line style="stroke:#181818;stroke-width:0.5;" x1="8" x2="81.0801" y1="39" y2="39"/><line style="stroke:#181818;stroke-width:0.5;" x1="8" x2="81.0801" y1="47" y2="47"/></g><!--class Wheel--><g class="entity" data-entity="Wheel" data-source-line="4" data-uid="ent0005" id="entity_Wheel"><rect fill="#F1F1F1" height="48" rx="2.5" ry="2.5" style="stroke:#181818;stroke-width:0.5;" width="75.832" x="319.62" y="7"/><ellipse cx="334.62" cy="23" fill="#ADD1B2" rx="11" ry="11" style="stroke:#181818;stroke-width:1;"/><path d="M337.5888,28.6406 Q337.0106,28.9375 336.37,29.0781 Q335.7294,29.2344 335.0263,29.2344 Q332.5263,29.2344 331.1981,27.5938 Q329.8856,25.9375 329.8856,22.8125 Q329.8856,19.6875 331.1981,18.0313 Q332.5263,16.375 335.0263,16.375 Q335.7294,16.375 336.37,16.5313 Q337.0263,16.6875 337.5888,16.9844 L337.5888,19.7031 Q336.9638,19.125 336.37,18.8594 Q335.7763,18.5781 335.1513,18.5781 Q333.8075,18.5781 333.12,19.6563 Q332.4325,20.7188 332.4325,22.8125 Q332.4325,24.9063 333.12,25.9844 Q333.8075,27.0469 335.1513,27.0469 Q335.7763,27.0469 336.37,26.7813 Q336.9638,26.5 337.5888,25.9219 L337.5888,28.6406 Z " fill="#000000"/><text fill="#000000" font-family="sans-serif" font-size="14" lengthAdjust="spacing" textLength="43.832" x="348.62" y="27.8467">Wheel</text><line style="stroke:#181818;stroke-width:0.5;" x1="320.62" x2="394.452" y1="39" y2="39"/><line style="stroke:#181818;stroke-width:0.5;" x1="320.62" x2="394.452" y1="47" y2="47"/></g><!--class Person--><g class="entity" data-entity="Person" data-source-line="5" data-uid="ent0007" id="entity_Person"><rect fill="#F1F1F1" height="48" rx="2.5" ry="2.5" style="stroke:#181818;stroke-width:0.5;" width="79.5439" x="158.77" y="132"/><ellipse cx="173.77" cy="148" fill="#ADD1B2" rx="11" ry="11" style="stroke:#181818;stroke-width:1;"/><path d="M176.7388,153.6406 Q176.1606,153.9375 175.52,154.0781 Q174.8794,154.2344 174.1763,154.2344 Q171.6763,154.2344 170.3481,152.5938 Q169.0356,150.9375 169.0356,147.8125 Q169.0356,144.6875 170.3481,143.0313 Q171.6763,141.375 174.1763,141.375 Q174.8794,141.375 175.52,141.5313 Q176.1763,141.6875 176.7388,141.9844 L176.7388,144.7031 Q176.1138,144.125 175.52,143.8594 Q174.9263,143.5781 174.3013,143.5781 Q172.9575,143.5781 172.27,144.6563 Q171.5825,145.7188 171.5825,147.8125 Q171.5825,149.9063 172.27,150.9844 Q172.9575,152.0469 174.3013,152.0469 Q174.9263,152.0469 175.52,151.7813 Q176.1138,151.5 176.7388,150.9219 L176.7388,153.6406 Z " fill="#000000"/><text fill="#000000" font-family="sans-serif" font-size="14" lengthAdjust="spacing" textLength="47.5439" x="187.77" y="152.8467">Person</text><line style="stroke:#181818;stroke-width:0.5;" x1="159.77" x2="237.3139" y1="164" y2="164"/><line style="stroke:#181818;stroke-width:0.5;" x1="159.77" x2="237.3139" y1="172" y2="172"/></g><!--link Driver to Car--><g class="link" data-entity-1="Driver" data-entity-2="Car" data-source-line="3" data-uid="lnk4" id="link_Driver_Car"><path codeLine="3" d="M82.21,31 C109.46,31 145.69,31 170.43,31" fill="none" id="Driver-Car" style="stroke:#181818;stroke-width:1;"/><polygon fill="#000000" points="109.28,19.5664,100.2349,16.6275,100.2349,22.5053,109.28,19.5664" style="stroke:#000000;stroke-width:1;"/><text fill="#000000" font-family="sans-serif" font-size="13" lengthAdjust="spacing" textLength="39.6729" x="113.28" y="24.0669">drives</text></g><!--reverse link Car to Wheel--><g class="link" data-entity-1="Car" data-entity-2="Wheel" data-source-line="4" data-uid="lnk6" id="link_Car_Wheel"><path codeLine="4" d="M238.97,31 C264.69,31 290.79,31 319.2,31" fill="none" id="Car-backto-Wheel" style="stroke:#181818;stroke-width:1;"/><polygon fill="#181818" points="226.97,31,232.97,35,238.97,31,232.97,27,226.97,31" style="stroke:#181818;stroke-width:1;"/><polygon fill="#000000" points="253.61,19.5664,244.5649,16.6275,244.5649,22.5053,253.61,19.5664" style="stroke:#000000;stroke-width:1;"/><text fill="#000000" font-family="sans-serif" font-size="13" lengthAdjust="spacing" textLength="44.3003" x="257.61" y="24.0669">have 4</text></g><!--link Car to Person--><g class="link" data-entity-1="Car" data-entity-2="Person" data-source-line="5" data-uid="lnk8" id="link_Car_Person"><path codeLine="5" d="M198.54,55.42 C198.54,77.31 198.54,109.8 198.54,131.66" fill="none" id="Car-Person" style="stroke:#181818;stroke-width:1;"/><polygon fill="#000000" points="203.54,88.5664,200.6011,97.6115,206.4789,97.6115,203.54,88.5664" style="stroke:#000000;stroke-width:1;"/><text fill="#000000" font-family="sans-serif" font-size="13" lengthAdjust="spacing" textLength="33.5981" x="212.54" y="98.0669">owns</text></g><!--SRC=[Iyv9B2vMS4uiuk9oASeiIorIq0Nn5AmKKa3SOWKxBX1NIrSXF2CrDGSedf5ObgfW0XNNrLK8I2qgpiy3IjWev9Vd5GC0]--></g></svg>