<?xml version="1.0" encoding="UTF-8" standalone="no"?><svg xmlns="http://www.w3.org/2000/svg" xmlns:xlink="http://www.w3.org/1999/xlink" contentScriptType="application/ecmascript" contentStyleType="text/css" height="194px" preserveAspectRatio="none" style="width:369px;height:194px;background:#FFFFFF;" version="1.1" viewBox="0 0 369 194" width="369px" zoomAndPan="magnify"><defs><filter height="300%" id="f1fbfkwplcf7tv" width="300%" x="-1" y="-1"><feGaussianBlur result="blurOut" stdDeviation="2.0"/><feColorMatrix in="blurOut" result="blurOut2" type="matrix" values="0 0 0 0 0 0 0 0 0 0 0 0 0 0 0 0 0 0 .4 0"/><feOffset dx="4.0" dy="4.0" in="blurOut2" result="blurOut3"/><feBlend in="SourceGraphic" in2="blurOut3" mode="normal"/></filter></defs><g><!--MD5=[3f0ef310aaa84a542276992c5216544d]
class Car--><rect codeLine="1" fill="#FEFECE" filter="url(#f1fbfkwplcf7tv)" height="48" id="Car" style="stroke:#A80036;stroke-width:1.5;" width="52" x="152.5" y="7"/><ellipse cx="167.5" cy="23" fill="#ADD1B2" rx="11" ry="11" style="stroke:#A80036;stroke-width:1.0;"/><path d="M166.8594,26.7813 Q167.6563,26.7813 168.2188,26.5938 Q168.7969,26.3906 169.0313,26.1719 Q169.2813,25.9375 169.5156,25.75 Q169.7656,25.5469 169.9844,25.5469 Q170.3281,25.5469 170.5781,25.8125 Q170.8438,26.0625 170.8438,26.3906 Q170.8438,27.125 169.6719,27.8125 Q168.5156,28.4844 166.8125,28.4844 Q164.6563,28.4844 163.2344,27.2188 Q161.8125,25.9531 161.8125,24.0156 L161.8125,22.8906 Q161.8125,20.8594 163.1406,19.4844 Q164.4688,18.0938 166.4375,18.0938 Q167.625,18.0938 168.8438,18.6719 L169.0156,18.75 Q169.3125,18.3438 169.7344,18.3438 Q170.2188,18.3438 170.3906,18.6406 Q170.5781,18.9219 170.5781,19.4688 L170.5781,20.8906 Q170.5781,22.0156 169.7344,22.0156 Q169.4219,22.0156 169.2188,21.8438 Q169.0313,21.6719 168.9844,21.5313 Q168.9531,21.375 168.9063,21.1094 Q168.7969,20.5938 168.2813,20.2813 Q167.7656,19.9688 167.3125,19.8906 Q166.875,19.7969 166.5,19.7969 Q165.2188,19.7969 164.3594,20.6719 Q163.5156,21.5469 163.5156,22.8906 L163.5156,23.9844 Q163.5156,25.2656 164.4219,26.0313 Q165.3281,26.7813 166.8594,26.7813 Z " fill="#000000"/><text fill="#000000" font-family="sans-serif" font-size="12" lengthAdjust="spacing" textLength="20" x="181.5" y="27.8">Car</text><line style="stroke:#A80036;stroke-width:1.5;" x1="153.5" x2="203.5" y1="39" y2="39"/><line style="stroke:#A80036;stroke-width:1.5;" x1="153.5" x2="203.5" y1="47" y2="47"/><!--MD5=[eee9d396a8aca12c6c152931e8dc1ab6]
class Driver--><rect fill="#FEFECE" filter="url(#f1fbfkwplcf7tv)" height="48" id="Driver" style="stroke:#A80036;stroke-width:1.5;" width="63" x="7" y="7"/><ellipse cx="22" cy="23" fill="#ADD1B2" rx="11" ry="11" style="stroke:#A80036;stroke-width:1.0;"/><path d="M21.3594,26.7813 Q22.1563,26.7813 22.7188,26.5938 Q23.2969,26.3906 23.5313,26.1719 Q23.7813,25.9375 24.0156,25.75 Q24.2656,25.5469 24.4844,25.5469 Q24.8281,25.5469 25.0781,25.8125 Q25.3438,26.0625 25.3438,26.3906 Q25.3438,27.125 24.1719,27.8125 Q23.0156,28.4844 21.3125,28.4844 Q19.1563,28.4844 17.7344,27.2188 Q16.3125,25.9531 16.3125,24.0156 L16.3125,22.8906 Q16.3125,20.8594 17.6406,19.4844 Q18.9688,18.0938 20.9375,18.0938 Q22.125,18.0938 23.3438,18.6719 L23.5156,18.75 Q23.8125,18.3438 24.2344,18.3438 Q24.7188,18.3438 24.8906,18.6406 Q25.0781,18.9219 25.0781,19.4688 L25.0781,20.8906 Q25.0781,22.0156 24.2344,22.0156 Q23.9219,22.0156 23.7188,21.8438 Q23.5313,21.6719 23.4844,21.5313 Q23.4531,21.375 23.4063,21.1094 Q23.2969,20.5938 22.7813,20.2813 Q22.2656,19.9688 21.8125,19.8906 Q21.375,19.7969 21,19.7969 Q19.7188,19.7969 18.8594,20.6719 Q18.0156,21.5469 18.0156,22.8906 L18.0156,23.9844 Q18.0156,25.2656 18.9219,26.0313 Q19.8281,26.7813 21.3594,26.7813 Z " fill="#000000"/><text fill="#000000" font-family="sans-serif" font-size="12" lengthAdjust="spacing" textLength="31" x="36" y="27.8">Driver</text><line style="stroke:#A80036;stroke-width:1.5;" x1="8" x2="69" y1="39" y2="39"/><line style="stroke:#A80036;stroke-width:1.5;" x1="8" x2="69" y1="47" y2="47"/><!--MD5=[63ed6a0a2dfd613875880437a5e2b06e]
class Wheel--><rect fill="#FEFECE" filter="url(#f1fbfkwplcf7tv)" height="48" id="Wheel" style="stroke:#A80036;stroke-width:1.5;" width="64" x="291.5" y="7"/><ellipse cx="306.5" cy="23" fill="#ADD1B2" rx="11" ry="11" style="stroke:#A80036;stroke-width:1.0;"/><path d="M305.8594,26.7813 Q306.6563,26.7813 307.2188,26.5938 Q307.7969,26.3906 308.0313,26.1719 Q308.2813,25.9375 308.5156,25.75 Q308.7656,25.5469 308.9844,25.5469 Q309.3281,25.5469 309.5781,25.8125 Q309.8438,26.0625 309.8438,26.3906 Q309.8438,27.125 308.6719,27.8125 Q307.5156,28.4844 305.8125,28.4844 Q303.6563,28.4844 302.2344,27.2188 Q300.8125,25.9531 300.8125,24.0156 L300.8125,22.8906 Q300.8125,20.8594 302.1406,19.4844 Q303.4688,18.0938 305.4375,18.0938 Q306.625,18.0938 307.8438,18.6719 L308.0156,18.75 Q308.3125,18.3438 308.7344,18.3438 Q309.2188,18.3438 309.3906,18.6406 Q309.5781,18.9219 309.5781,19.4688 L309.5781,20.8906 Q309.5781,22.0156 308.7344,22.0156 Q308.4219,22.0156 308.2188,21.8438 Q308.0313,21.6719 307.9844,21.5313 Q307.9531,21.375 307.9063,21.1094 Q307.7969,20.5938 307.2813,20.2813 Q306.7656,19.9688 306.3125,19.8906 Q305.875,19.7969 305.5,19.7969 Q304.2188,19.7969 303.3594,20.6719 Q302.5156,21.5469 302.5156,22.8906 L302.5156,23.9844 Q302.5156,25.2656 303.4219,26.0313 Q304.3281,26.7813 305.8594,26.7813 Z " fill="#000000"/><text fill="#000000" font-family="sans-serif" font-size="12" lengthAdjust="spacing" textLength="32" x="320.5" y="27.8">Wheel</text><line style="stroke:#A80036;stroke-width:1.5;" x1="292.5" x2="354.5" y1="39" y2="39"/><line style="stroke:#A80036;stroke-width:1.5;" x1="292.5" x2="354.5" y1="47" y2="47"/><!--MD5=[09ce52be0ee7de43c61b6e2d59bf108b]
class Person--><rect fill="#FEFECE" filter="url(#f1fbfkwplcf7tv)" height="48" id="Person" style="stroke:#A80036;stroke-width:1.5;" width="68" x="144.5" y="132"/><ellipse cx="159.5" cy="148" fill="#ADD1B2" rx="11" ry="11" style="stroke:#A80036;stroke-width:1.0;"/><path d="M158.8594,151.7813 Q159.6563,151.7813 160.2188,151.5938 Q160.7969,151.3906 161.0313,151.1719 Q161.2813,150.9375 161.5156,150.75 Q161.7656,150.5469 161.9844,150.5469 Q162.3281,150.5469 162.5781,150.8125 Q162.8438,151.0625 162.8438,151.3906 Q162.8438,152.125 161.6719,152.8125 Q160.5156,153.4844 158.8125,153.4844 Q156.6563,153.4844 155.2344,152.2188 Q153.8125,150.9531 153.8125,149.0156 L153.8125,147.8906 Q153.8125,145.8594 155.1406,144.4844 Q156.4688,143.0938 158.4375,143.0938 Q159.625,143.0938 160.8438,143.6719 L161.0156,143.75 Q161.3125,143.3438 161.7344,143.3438 Q162.2188,143.3438 162.3906,143.6406 Q162.5781,143.9219 162.5781,144.4688 L162.5781,145.8906 Q162.5781,147.0156 161.7344,147.0156 Q161.4219,147.0156 161.2188,146.8438 Q161.0313,146.6719 160.9844,146.5313 Q160.9531,146.375 160.9063,146.1094 Q160.7969,145.5938 160.2813,145.2813 Q159.7656,144.9688 159.3125,144.8906 Q158.875,144.7969 158.5,144.7969 Q157.2188,144.7969 156.3594,145.6719 Q155.5156,146.5469 155.5156,147.8906 L155.5156,148.9844 Q155.5156,150.2656 156.4219,151.0313 Q157.3281,151.7813 158.8594,151.7813 Z " fill="#000000"/><text fill="#000000" font-family="sans-serif" font-size="12" lengthAdjust="spacing" textLength="36" x="173.5" y="152.8">Person</text><line style="stroke:#A80036;stroke-width:1.5;" x1="145.5" x2="211.5" y1="164" y2="164"/><line style="stroke:#A80036;stroke-width:1.5;" x1="145.5" x2="211.5" y1="172" y2="172"/><!--MD5=[85884a73f707af3ae230d559cad4fc2c]
link Driver to Car--><path codeLine="3" d="M70.27,31 C95.12,31 129.24,31 152.48,31 " fill="none" id="Driver-Car" style="stroke:#A80036;stroke-width:1.0;"/><polygon fill="#000000" points="97.25,19.8,88.2049,16.8611,88.2049,22.7389,97.25,19.8" style="stroke:#000000;stroke-width:1.0;"/><text fill="#000000" font-family="sans-serif" font-size="13" lengthAdjust="spacing" textLength="33" x="101.25" y="25">drives</text><!--MD5=[6190aadcc963d15c02367c0199cc5452]
reverse link Car to Wheel--><path codeLine="4" d="M217.92,31 C240.96,31 269.69,31 291.35,31 " fill="none" id="Car-backto-Wheel" style="stroke:#A80036;stroke-width:1.0;"/><polygon fill="#A80036" points="204.76,31,210.76,35,216.76,31,210.76,27,204.76,31" style="stroke:#A80036;stroke-width:1.0;"/><polygon fill="#000000" points="232,19.8,222.9549,16.8611,222.9549,22.7389,232,19.8" style="stroke:#000000;stroke-width:1.0;"/><text fill="#000000" font-family="sans-serif" font-size="13" lengthAdjust="spacing" textLength="37" x="236" y="25">have 4</text><!--MD5=[2800f28b8e2a8d078fc1fa2e2aa6715e]
link Car to Person--><path codeLine="5" d="M178.5,55.14 C178.5,77.13 178.5,110.01 178.5,131.97 " fill="none" id="Car-Person" style="stroke:#A80036;stroke-width:1.0;"/><polygon fill="#000000" points="183.5,88.8,180.5611,97.8451,186.4389,97.8451,183.5,88.8" style="stroke:#000000;stroke-width:1.0;"/><text fill="#000000" font-family="sans-serif" font-size="13" lengthAdjust="spacing" textLength="29" x="192.5" y="99">owns</text><!--MD5=[e7c8e8a4a2ba41a175acf58ccba60987]
@startuml
class Car

Driver - Car : drives >
Car *- Wheel : have 4 >
Car - - Person : < owns
@enduml

PlantUML version 1.2021.8(Sat Jun 26 08:20:59 GMT 2021)
(GPL source distribution)
Java Runtime: OpenJDK Runtime Environment
JVM: OpenJDK 64-Bit Server VM
Default Encoding: UTF-8
Language: en
Country: US
--></g></svg>