<?xml version="1.0" encoding="UTF-8" standalone="no"?><svg xmlns="http://www.w3.org/2000/svg" xmlns:xlink="http://www.w3.org/1999/xlink" contentStyleType="text/css" height="187px" preserveAspectRatio="none" style="width:377px;height:187px;background:#FFFFFF;" version="1.1" viewBox="0 0 377 187" width="377px" zoomAndPan="magnify"><defs/><g><!--MD5=[3f0ef310aaa84a542276992c5216544d]
class Car--><g id="elem_Car"><rect codeLine="1" fill="#F1F1F1" height="48" id="Car" rx="2.5" ry="2.5" style="stroke:#181818;stroke-width:0.5;" width="55" x="159" y="7"/><ellipse cx="174" cy="23" fill="#ADD1B2" rx="11" ry="11" style="stroke:#181818;stroke-width:1.0;"/><path d="M173.3594,26.7813 Q174.1563,26.7813 174.7188,26.5938 Q175.2969,26.3906 175.5313,26.1719 Q175.7813,25.9375 176.0156,25.75 Q176.2656,25.5469 176.4844,25.5469 Q176.8281,25.5469 177.0781,25.8125 Q177.3438,26.0625 177.3438,26.3906 Q177.3438,27.125 176.1719,27.8125 Q175.0156,28.4844 173.3125,28.4844 Q171.1563,28.4844 169.7344,27.2188 Q168.3125,25.9531 168.3125,24.0156 L168.3125,22.8906 Q168.3125,20.8594 169.6406,19.4844 Q170.9688,18.0938 172.9375,18.0938 Q174.125,18.0938 175.3438,18.6719 L175.5156,18.75 Q175.8125,18.3438 176.2344,18.3438 Q176.7188,18.3438 176.8906,18.6406 Q177.0781,18.9219 177.0781,19.4688 L177.0781,20.8906 Q177.0781,22.0156 176.2344,22.0156 Q175.9219,22.0156 175.7188,21.8438 Q175.5313,21.6719 175.4844,21.5313 Q175.4531,21.375 175.4063,21.1094 Q175.2969,20.5938 174.7813,20.2813 Q174.2656,19.9688 173.8125,19.8906 Q173.375,19.7969 173,19.7969 Q171.7188,19.7969 170.8594,20.6719 Q170.0156,21.5469 170.0156,22.8906 L170.0156,23.9844 Q170.0156,25.2656 170.9219,26.0313 Q171.8281,26.7813 173.3594,26.7813 Z " fill="#000000"/><text fill="#000000" font-family="sans-serif" font-size="14" lengthAdjust="spacing" textLength="23" x="188" y="28.6">Car</text><line style="stroke:#181818;stroke-width:0.5;" x1="160" x2="213" y1="39" y2="39"/><line style="stroke:#181818;stroke-width:0.5;" x1="160" x2="213" y1="47" y2="47"/></g><!--MD5=[eee9d396a8aca12c6c152931e8dc1ab6]
class Driver--><g id="elem_Driver"><rect fill="#F1F1F1" height="48" id="Driver" rx="2.5" ry="2.5" style="stroke:#181818;stroke-width:0.5;" width="69" x="7" y="7"/><ellipse cx="22" cy="23" fill="#ADD1B2" rx="11" ry="11" style="stroke:#181818;stroke-width:1.0;"/><path d="M21.3594,26.7813 Q22.1563,26.7813 22.7188,26.5938 Q23.2969,26.3906 23.5313,26.1719 Q23.7813,25.9375 24.0156,25.75 Q24.2656,25.5469 24.4844,25.5469 Q24.8281,25.5469 25.0781,25.8125 Q25.3438,26.0625 25.3438,26.3906 Q25.3438,27.125 24.1719,27.8125 Q23.0156,28.4844 21.3125,28.4844 Q19.1563,28.4844 17.7344,27.2188 Q16.3125,25.9531 16.3125,24.0156 L16.3125,22.8906 Q16.3125,20.8594 17.6406,19.4844 Q18.9688,18.0938 20.9375,18.0938 Q22.125,18.0938 23.3438,18.6719 L23.5156,18.75 Q23.8125,18.3438 24.2344,18.3438 Q24.7188,18.3438 24.8906,18.6406 Q25.0781,18.9219 25.0781,19.4688 L25.0781,20.8906 Q25.0781,22.0156 24.2344,22.0156 Q23.9219,22.0156 23.7188,21.8438 Q23.5313,21.6719 23.4844,21.5313 Q23.4531,21.375 23.4063,21.1094 Q23.2969,20.5938 22.7813,20.2813 Q22.2656,19.9688 21.8125,19.8906 Q21.375,19.7969 21,19.7969 Q19.7188,19.7969 18.8594,20.6719 Q18.0156,21.5469 18.0156,22.8906 L18.0156,23.9844 Q18.0156,25.2656 18.9219,26.0313 Q19.8281,26.7813 21.3594,26.7813 Z " fill="#000000"/><text fill="#000000" font-family="sans-serif" font-size="14" lengthAdjust="spacing" textLength="37" x="36" y="28.6">Driver</text><line style="stroke:#181818;stroke-width:0.5;" x1="8" x2="75" y1="39" y2="39"/><line style="stroke:#181818;stroke-width:0.5;" x1="8" x2="75" y1="47" y2="47"/></g><!--MD5=[63ed6a0a2dfd613875880437a5e2b06e]
class Wheel--><g id="elem_Wheel"><rect fill="#F1F1F1" height="48" id="Wheel" rx="2.5" ry="2.5" style="stroke:#181818;stroke-width:0.5;" width="70" x="300.5" y="7"/><ellipse cx="315.5" cy="23" fill="#ADD1B2" rx="11" ry="11" style="stroke:#181818;stroke-width:1.0;"/><path d="M314.8594,26.7813 Q315.6563,26.7813 316.2188,26.5938 Q316.7969,26.3906 317.0313,26.1719 Q317.2813,25.9375 317.5156,25.75 Q317.7656,25.5469 317.9844,25.5469 Q318.3281,25.5469 318.5781,25.8125 Q318.8438,26.0625 318.8438,26.3906 Q318.8438,27.125 317.6719,27.8125 Q316.5156,28.4844 314.8125,28.4844 Q312.6563,28.4844 311.2344,27.2188 Q309.8125,25.9531 309.8125,24.0156 L309.8125,22.8906 Q309.8125,20.8594 311.1406,19.4844 Q312.4688,18.0938 314.4375,18.0938 Q315.625,18.0938 316.8438,18.6719 L317.0156,18.75 Q317.3125,18.3438 317.7344,18.3438 Q318.2188,18.3438 318.3906,18.6406 Q318.5781,18.9219 318.5781,19.4688 L318.5781,20.8906 Q318.5781,22.0156 317.7344,22.0156 Q317.4219,22.0156 317.2188,21.8438 Q317.0313,21.6719 316.9844,21.5313 Q316.9531,21.375 316.9063,21.1094 Q316.7969,20.5938 316.2813,20.2813 Q315.7656,19.9688 315.3125,19.8906 Q314.875,19.7969 314.5,19.7969 Q313.2188,19.7969 312.3594,20.6719 Q311.5156,21.5469 311.5156,22.8906 L311.5156,23.9844 Q311.5156,25.2656 312.4219,26.0313 Q313.3281,26.7813 314.8594,26.7813 Z " fill="#000000"/><text fill="#000000" font-family="sans-serif" font-size="14" lengthAdjust="spacing" textLength="38" x="329.5" y="28.6">Wheel</text><line style="stroke:#181818;stroke-width:0.5;" x1="301.5" x2="369.5" y1="39" y2="39"/><line style="stroke:#181818;stroke-width:0.5;" x1="301.5" x2="369.5" y1="47" y2="47"/></g><!--MD5=[09ce52be0ee7de43c61b6e2d59bf108b]
class Person--><g id="elem_Person"><rect fill="#F1F1F1" height="48" id="Person" rx="2.5" ry="2.5" style="stroke:#181818;stroke-width:0.5;" width="75" x="149" y="132"/><ellipse cx="164" cy="148" fill="#ADD1B2" rx="11" ry="11" style="stroke:#181818;stroke-width:1.0;"/><path d="M163.3594,151.7813 Q164.1563,151.7813 164.7188,151.5938 Q165.2969,151.3906 165.5313,151.1719 Q165.7813,150.9375 166.0156,150.75 Q166.2656,150.5469 166.4844,150.5469 Q166.8281,150.5469 167.0781,150.8125 Q167.3438,151.0625 167.3438,151.3906 Q167.3438,152.125 166.1719,152.8125 Q165.0156,153.4844 163.3125,153.4844 Q161.1563,153.4844 159.7344,152.2188 Q158.3125,150.9531 158.3125,149.0156 L158.3125,147.8906 Q158.3125,145.8594 159.6406,144.4844 Q160.9688,143.0938 162.9375,143.0938 Q164.125,143.0938 165.3438,143.6719 L165.5156,143.75 Q165.8125,143.3438 166.2344,143.3438 Q166.7188,143.3438 166.8906,143.6406 Q167.0781,143.9219 167.0781,144.4688 L167.0781,145.8906 Q167.0781,147.0156 166.2344,147.0156 Q165.9219,147.0156 165.7188,146.8438 Q165.5313,146.6719 165.4844,146.5313 Q165.4531,146.375 165.4063,146.1094 Q165.2969,145.5938 164.7813,145.2813 Q164.2656,144.9688 163.8125,144.8906 Q163.375,144.7969 163,144.7969 Q161.7188,144.7969 160.8594,145.6719 Q160.0156,146.5469 160.0156,147.8906 L160.0156,148.9844 Q160.0156,150.2656 160.9219,151.0313 Q161.8281,151.7813 163.3594,151.7813 Z " fill="#000000"/><text fill="#000000" font-family="sans-serif" font-size="14" lengthAdjust="spacing" textLength="43" x="178" y="153.6">Person</text><line style="stroke:#181818;stroke-width:0.5;" x1="150" x2="223" y1="164" y2="164"/><line style="stroke:#181818;stroke-width:0.5;" x1="150" x2="223" y1="172" y2="172"/></g><!--MD5=[85884a73f707af3ae230d559cad4fc2c]
link Driver to Car--><g id="link_Driver_Car"><path codeLine="3" d="M76.23,31 C101.53,31 135.35,31 158.84,31 " fill="none" id="Driver-Car" style="stroke:#181818;stroke-width:1.0;"/><polygon fill="#000000" points="103.5,19.8,94.4549,16.8611,94.4549,22.7389,103.5,19.8" style="stroke:#000000;stroke-width:1.0;"/><text fill="#000000" font-family="sans-serif" font-size="13" lengthAdjust="spacing" textLength="33" x="107.5" y="25">drives</text></g><!--MD5=[6190aadcc963d15c02367c0199cc5452]
reverse link Car to Wheel--><g id="link_Car_Wheel"><path codeLine="4" d="M227.28,31 C250.17,31 278.44,31 300.34,31 " fill="none" id="Car-backto-Wheel" style="stroke:#181818;stroke-width:1.0;"/><polygon fill="#181818" points="214.18,31,220.18,35,226.18,31,220.18,27,214.18,31" style="stroke:#181818;stroke-width:1.0;"/><polygon fill="#000000" points="241.25,19.8,232.2049,16.8611,232.2049,22.7389,241.25,19.8" style="stroke:#000000;stroke-width:1.0;"/><text fill="#000000" font-family="sans-serif" font-size="13" lengthAdjust="spacing" textLength="37" x="245.25" y="25">have 4</text></g><!--MD5=[2800f28b8e2a8d078fc1fa2e2aa6715e]
link Car to Person--><g id="link_Car_Person"><path codeLine="5" d="M186.5,55.14 C186.5,77.13 186.5,110.01 186.5,131.97 " fill="none" id="Car-Person" style="stroke:#181818;stroke-width:1.0;"/><polygon fill="#000000" points="191.5,88.8,188.5611,97.8451,194.4389,97.8451,191.5,88.8" style="stroke:#000000;stroke-width:1.0;"/><text fill="#000000" font-family="sans-serif" font-size="13" lengthAdjust="spacing" textLength="29" x="200.5" y="99">owns</text></g><!--MD5=[d1c84046a5098eb61311eeb93db8fe93]
@startuml
class Car

Driver - Car : drives >
Car *- Wheel : have 4 >
Car - - Person : < owns
@enduml

PlantUML version 1.2022.5(Sat Apr 30 10:55:52 GMT 2022)
(GPL source distribution)
Java Runtime: OpenJDK Runtime Environment
JVM: OpenJDK 64-Bit Server VM
Default Encoding: UTF-8
Language: en
Country: US
--></g></svg>